<svg width="64" height="64" viewBox="0 0 64 64" fill="none" xmlns="http://www.w3.org/2000/svg">
<g clip-path="url(#clip0_423_6543)">
<g clip-path="url(#clip1_423_6543)">
<g clip-path="url(#clip2_423_6543)">
<path d="M-10.668 0H74.6654V64H-10.668V0Z" fill="#D0103A"/>
<path d="M-10.668 0H47.3587V64H-10.668V0Z" fill="#FEDF00"/>
<path d="M-10.668 0H16.6387V64H-10.668V0Z" fill="#0018A8"/>
<path d="M29.3847 18.2148C30.4114 18.2148 30.8381 19.0948 31.8648 19.0948C32.4914 19.0948 32.8648 18.8948 33.4248 18.5748C33.8114 18.3615 34.0514 18.2415 34.4914 18.2415C34.9448 18.2415 35.2248 18.3748 35.4648 18.7748C35.5981 18.9882 35.7047 19.4282 35.6381 19.6682C35.5588 20.0491 35.4381 20.4202 35.2781 20.7748C35.1848 20.9882 35.1047 21.1082 35.1047 21.3348C35.1047 21.8815 35.8514 22.0682 36.3581 22.0815C36.4648 22.0815 37.3848 22.0815 37.9581 21.5215C37.6514 21.5082 37.3047 21.2548 37.3047 20.9482C37.3047 20.6015 37.5448 20.3748 37.8781 20.2682C37.9448 20.2548 38.0514 20.3082 38.1047 20.2682C38.1981 20.2282 38.1581 20.1348 38.2381 20.0815C38.3981 19.9482 38.5048 19.8682 38.7181 19.8682C38.8514 19.8682 38.9314 19.8815 39.0514 19.9615C39.1048 20.0148 39.1314 20.0682 39.1848 20.0682C39.3448 20.0682 39.4248 19.9615 39.5848 19.9615C39.6919 19.9631 39.7971 19.9906 39.8914 20.0415C39.9714 20.0815 39.9714 20.2415 40.0781 20.2415C40.1314 20.2415 40.3981 20.1215 40.5448 20.1215C40.8381 20.1215 40.9981 20.2282 41.1848 20.4548C41.2381 20.5215 41.2648 20.6415 41.3181 20.6415C41.4489 20.6526 41.5751 20.6947 41.6864 20.7642C41.7977 20.8338 41.8908 20.9288 41.9581 21.0415C41.9981 21.0948 42.0514 21.2282 42.1047 21.2415C42.1847 21.2815 42.2381 21.2682 42.3314 21.3348C42.4406 21.4035 42.5316 21.4976 42.5966 21.609C42.6617 21.7205 42.6987 21.846 42.7047 21.9748C42.7047 22.0682 42.6647 22.1882 42.6381 22.2682C42.3981 23.1348 41.7981 23.4148 41.1981 24.1748C40.9314 24.4948 40.7314 24.7482 40.7314 25.1615C40.7314 25.2548 40.8647 25.4415 40.9047 25.5215C40.8781 25.3348 40.9714 25.0948 41.1714 25.0815C41.3041 25.0808 41.4323 25.1297 41.5309 25.2184C41.6295 25.3072 41.6915 25.4295 41.7047 25.5615C41.7079 25.6434 41.6943 25.7251 41.6648 25.8015C41.8264 25.7003 42.0086 25.6366 42.1981 25.6148H42.4514C42.8914 25.6148 43.3848 25.8682 43.6914 26.1215C44.0123 26.3971 44.2666 26.7418 44.4352 27.1298C44.6038 27.5178 44.6823 27.9389 44.6648 28.3615C44.5581 29.0548 44.6248 30.3348 42.8248 30.8415C43.1581 30.9748 43.3847 31.2415 43.3847 31.5348C43.3883 31.6147 43.3759 31.6945 43.3482 31.7696C43.3205 31.8446 43.278 31.9133 43.2234 31.9717C43.1687 32.0301 43.1029 32.077 43.0299 32.1096C42.9569 32.1421 42.878 32.1598 42.7981 32.1615C42.7113 32.1669 42.6245 32.153 42.5437 32.1207C42.463 32.0884 42.3905 32.0386 42.3314 31.9748C41.9581 32.3482 41.8914 32.7348 41.8914 33.2682C41.8914 33.5882 41.9448 33.7748 42.0781 34.0682C42.2114 34.3615 42.3181 34.5348 42.5714 34.7482C42.7047 34.5482 42.8514 34.4015 43.1047 34.4015C43.3314 34.4015 43.5314 34.4815 43.6248 34.6948C43.6514 34.7615 43.6248 34.8148 43.6648 34.8815C43.7048 34.9615 43.7714 34.9748 43.8114 35.0548C43.8781 35.1882 43.8114 35.2948 43.8781 35.4148C43.9181 35.5082 43.9981 35.5215 44.0381 35.6015C44.0914 35.7348 44.1047 35.8148 44.1047 35.9615C44.1047 36.3615 43.7448 36.6548 43.3448 36.6548C43.2114 36.6548 43.1581 36.6015 43.0381 36.6148C43.2647 36.8415 43.4381 36.9482 43.6114 37.2148C43.8836 37.6202 44.0234 38.1 44.0114 38.5882C44.0221 39.1103 43.8932 39.6258 43.6381 40.0815C43.4391 40.5392 43.1158 40.9318 42.7047 41.2148C42.0759 41.6726 41.3425 41.966 40.5714 42.0682C40.0879 42.1668 39.5976 42.2292 39.1047 42.2548L37.2248 42.3615C36.2648 42.4148 35.5981 42.5615 34.9181 43.2415C35.2381 43.4682 35.4514 43.7082 35.4514 44.0948C35.4514 44.4948 35.2114 44.8015 34.8248 44.9215C34.7314 44.9482 34.6647 44.9215 34.5714 44.9748C34.4781 45.0282 34.4781 45.1482 34.3847 45.2015C34.2348 45.2997 34.057 45.3465 33.8781 45.3348C33.72 45.3462 33.5614 45.3221 33.4138 45.2645C33.2662 45.2068 33.1333 45.117 33.0248 45.0015C32.7314 45.2415 32.6248 45.4548 32.2914 45.6548C32.1848 45.7082 32.1314 45.7882 32.0114 45.7882C31.8114 45.7882 31.7181 45.6548 31.5581 45.5482C31.3403 45.3965 31.1431 45.2173 30.9714 45.0148C30.6647 45.1882 30.4914 45.3348 30.1314 45.3348C29.9443 45.345 29.7584 45.2985 29.5981 45.2015C29.5181 45.1348 29.4914 45.0415 29.3981 44.9882C29.3048 44.9215 29.2247 44.9482 29.1181 44.8948C28.7181 44.7215 28.4514 44.4282 28.4514 43.9882C28.4514 43.6015 28.6914 43.3615 29.0381 43.1882C28.3714 42.5215 27.7047 42.4148 26.7714 42.3615L24.9047 42.2548C24.3181 42.2148 23.9981 42.1615 23.4381 42.0682C22.9981 42.0015 22.7448 41.9748 22.3448 41.7882C20.9848 41.1482 20.1048 40.2815 19.9448 38.7882C19.9181 38.6548 19.9181 38.5882 19.9181 38.4548C19.9181 37.6815 20.2248 37.2015 20.7714 36.6548C20.6381 36.6148 20.5448 36.6548 20.3981 36.6148C20.0648 36.4815 19.8114 36.2548 19.8114 35.8815C19.8114 35.7482 19.8114 35.6548 19.8781 35.5348C19.9314 35.4548 20.0114 35.4415 20.0381 35.3482C20.0648 35.2148 20.0381 35.1348 20.0914 35.0148C20.1314 34.9482 20.1981 34.9348 20.2248 34.8548C20.3581 34.6015 20.4914 34.4015 20.7714 34.4015C21.0114 34.4015 21.1714 34.5348 21.2781 34.7348C21.5181 34.6282 21.5714 34.4548 21.7048 34.2415C21.8663 33.9786 21.9669 33.6829 21.9992 33.376C22.0315 33.0692 21.9947 32.7589 21.8914 32.4682C21.8381 32.2682 21.8114 32.1348 21.6514 31.9748C21.5181 32.1082 21.3848 32.1615 21.1981 32.1615C20.8114 32.1615 20.5314 31.8282 20.5314 31.4548C20.5273 31.324 20.5635 31.195 20.635 31.0853C20.7066 30.9756 20.81 30.8905 20.9314 30.8415C20.7181 30.6548 20.5314 30.6415 20.3048 30.4948C19.9581 30.2815 19.8381 30.0415 19.6114 29.6948C19.4514 29.4815 19.4114 29.3215 19.3448 29.0682C19.2283 28.7346 19.1829 28.3803 19.2114 28.0282C19.2914 27.3615 19.4114 26.9615 19.8248 26.4415C20.0648 26.1348 20.2248 25.9482 20.5981 25.7882C20.9048 25.6548 21.0914 25.5615 21.4248 25.5615L21.6914 25.5748C21.822 25.5834 21.9493 25.6198 22.0648 25.6815C22.1181 25.7082 22.2114 25.8015 22.2114 25.7348C22.2114 25.6682 22.1714 25.6282 22.1714 25.5615C22.1714 25.2948 22.3714 25.0282 22.6514 25.0282C22.8514 25.0282 22.9314 25.2148 23.0381 25.3882C23.0914 25.2815 23.1314 25.2015 23.1314 25.0815C23.1314 24.6282 22.8781 24.3882 22.5981 24.0282C21.9714 23.2548 21.1981 22.8948 21.1981 21.8948C21.1981 21.6015 21.3314 21.4015 21.5981 21.2415C21.6648 21.2015 21.7714 21.2415 21.8381 21.2015C21.9048 21.1615 21.8914 21.0682 21.9314 21.0148C21.9981 20.9215 22.0648 20.8815 22.1448 20.8015C22.2781 20.6682 22.4114 20.7215 22.5581 20.6015C22.6381 20.5482 22.6648 20.4682 22.7181 20.4148C22.8914 20.2015 23.0514 20.0948 23.3314 20.0948C23.4648 20.0948 23.5448 20.0948 23.6648 20.1482L23.7981 20.2148C23.8381 20.1882 23.9048 20.1082 23.9981 20.0682C24.086 20.0136 24.188 19.9858 24.2914 19.9882C24.4381 19.9882 24.5314 20.0682 24.6914 20.0682C24.7314 20.0682 24.7448 20.0148 24.7981 19.9882C24.9314 19.8948 24.9981 19.8548 25.1581 19.8548C25.3181 19.8548 25.3981 19.8948 25.5314 19.9882C25.6648 20.0548 25.6648 20.1615 25.7981 20.2282C25.8648 20.2682 25.9314 20.2548 25.9981 20.2815C26.3448 20.4015 26.5981 20.6282 26.5981 20.9882C26.5981 21.1882 26.5581 21.3215 26.4114 21.4548C26.2914 21.5482 26.1847 21.5348 26.0381 21.5882C26.4622 21.9305 27.0014 22.0975 27.5448 22.0548C28.1048 22.0548 28.7847 21.8282 28.7847 21.2682C28.7847 21.0015 28.6514 20.8682 28.5448 20.6282C28.3635 20.2777 28.2676 19.8894 28.2648 19.4948C28.2648 19.1215 28.3047 18.8948 28.5181 18.6015C28.7314 18.2948 28.9981 18.2148 29.3847 18.2148Z" fill="#C7B37F"/>
<path d="M25.6523 21.2011C25.6753 21.2767 25.7164 21.3454 25.7723 21.4012C25.8281 21.457 25.8968 21.4982 25.9723 21.5211C26.079 21.5611 26.3323 21.5478 26.479 21.3345C26.6123 21.1745 26.6123 20.9611 26.559 20.8011C26.5148 20.6827 26.4358 20.5805 26.3323 20.5078L25.6523 21.2011Z" stroke="#703D29" stroke-width="0.0933333" stroke-linejoin="round"/>
<path d="M42.798 31.4776C42.638 31.0909 42.2246 31.2642 42.2113 31.4776C42.1446 31.9709 42.5713 32.1176 42.878 32.0376C42.9489 32.0185 43.0151 31.9849 43.0725 31.939C43.1298 31.8931 43.1771 31.8359 43.2113 31.7709C43.2913 31.6376 43.318 31.4509 43.2646 31.2776C43.2425 31.2005 43.2063 31.1282 43.158 31.0642C43.1102 31.001 43.0515 30.9468 42.9846 30.9042C42.8646 30.8242 42.7313 30.8242 42.5313 30.8242C41.798 30.8242 41.1446 31.6909 40.9313 32.6109C40.8513 32.9042 40.758 33.5842 40.8913 34.2109C41.0021 34.7787 41.2754 35.3021 41.678 35.7176C42.0541 36.0715 42.5053 36.3359 42.998 36.4909C43.1716 36.541 43.3553 36.5456 43.5313 36.5042C43.958 36.4109 44.158 35.9976 43.9313 35.5709C43.758 35.2376 43.2246 35.0376 42.9713 35.4909C42.958 35.5309 42.918 35.6109 42.918 35.6909C42.918 35.8109 42.9713 35.9576 43.0513 36.0109C43.2513 36.1309 43.558 36.0909 43.5446 35.7442" stroke="#703D29" stroke-width="0.0933333" stroke-linecap="round"/>
<path d="M40.5052 36.5333C40.7331 36.2727 41.0438 36.0984 41.3852 36.04C41.7852 35.9867 42.1318 36.1067 42.4785 36.3067C42.9118 36.505 43.2784 36.8246 43.534 37.2269C43.7895 37.6291 43.9231 38.0968 43.9185 38.5733C43.9185 39.0533 43.7852 39.5734 43.6518 39.8267C43.5452 40.0534 43.2518 41.0267 41.6118 41.6934C40.6652 42.0934 39.2118 42.1734 38.1852 42.2267C36.7985 42.2667 35.5185 42.32 34.7852 43.24" stroke="#703D29" stroke-width="0.106667"/>
<path d="M40.8519 38.0927C40.8119 37.9594 40.8519 37.8127 40.9586 37.6527C41.1186 37.4394 41.4519 37.3727 41.7586 37.5194C41.8906 37.5906 42.0046 37.6909 42.0919 37.8127L42.2386 38.026C42.3319 38.1727 42.3719 38.2927 42.3719 38.3594C42.7053 39.2927 42.1853 40.2927 41.5053 40.706C40.9719 41.026 40.3453 41.1594 39.5853 41.2394C39.2519 41.2927 39.0519 41.2794 38.7186 41.306H37.4386C37.1188 41.2896 36.7984 41.2896 36.4786 41.306C36.0919 41.346 35.8119 41.3594 35.4653 41.4127C35.2519 41.4394 35.0119 41.4794 34.7453 41.546C34.6653 41.546 34.5853 41.5727 34.5053 41.5994L34.3453 41.6394C33.8653 41.786 33.4119 41.9594 33.0386 42.1994C32.9319 42.266 32.7986 42.3327 32.7053 42.426L32.5319 42.586C32.2653 42.8527 32.0119 43.1194 31.9453 43.4794V43.6927C31.9453 43.9327 32.1319 44.266 32.6653 44.3594M33.3986 21.6927C33.5053 21.8794 33.5719 21.9994 33.5053 22.2127C33.4253 22.4394 33.2653 22.586 33.0253 22.586C32.4919 22.586 32.1853 21.946 32.4253 21.546C32.8519 20.8394 33.6653 21.2394 34.4253 21.586C34.3853 21.4127 34.3186 21.346 34.3319 21.1194C34.3453 20.5594 34.7586 20.3194 34.9319 19.786C35.0253 19.4794 35.0653 19.2127 34.8386 18.986C34.6386 18.8127 34.4119 18.8127 34.1586 18.906C33.6519 19.106 33.0253 19.6927 31.9453 19.706C30.8519 19.6927 30.2386 19.106 29.7186 18.906C29.4519 18.8127 29.2386 18.8127 29.0386 18.9994C28.8119 19.2127 28.8519 19.4794 28.9453 19.7994C29.1186 20.306 29.5319 20.5594 29.5453 21.1327C29.5453 21.346 29.4919 21.3994 29.4519 21.586C30.2119 21.2394 31.0519 20.7994 31.4519 21.546C31.6786 21.9727 31.3853 22.5727 30.8519 22.5727C30.6119 22.5727 30.4519 22.4394 30.3719 22.2127C30.3186 22.0127 30.3719 21.8394 30.4786 21.6794" stroke="#703D29" stroke-width="0.0933333"/>
<path d="M31.2799 21.3203C31.3896 21.391 31.4776 21.4908 31.5341 21.6084C31.5905 21.7261 31.6133 21.8571 31.5999 21.987C31.5732 22.3203 31.4932 22.4003 31.2266 22.587M31.5466 22.0803C31.5332 22.2803 31.4532 22.4136 31.2399 22.4936" stroke="#703D29" stroke-width="0.0933333" stroke-linecap="round"/>
<path d="M26.2259 20.4414L26.3193 20.5081L26.4259 20.6147L26.4926 20.7481L26.5193 20.8547V21.1081L26.4926 21.2147L26.4259 21.2947L26.3459 21.3747L26.2259 21.4414L26.0926 21.4681L25.9593 21.4947L25.8259 21.4281L25.7059 21.3481L25.6393 21.2414L25.5859 21.1081V21.0547L26.2259 20.4414Z" fill="#C7B37F"/>
<path d="M26.0262 20.9609C25.9862 20.7342 25.7328 20.6942 25.6262 20.8276C25.4795 21.0276 25.5862 21.3609 25.8928 21.4542C25.9883 21.4736 26.0872 21.4664 26.1789 21.4335C26.2706 21.4006 26.3515 21.3432 26.4128 21.2676C26.5462 21.0942 26.5328 20.8942 26.4795 20.7342C26.4368 20.615 26.3574 20.5123 26.2528 20.4409C25.8928 20.1742 25.3062 20.2276 25.1062 20.7076C24.8662 21.2942 25.3995 21.7476 25.9062 22.0809C26.5195 22.5076 27.2395 22.5876 27.7728 22.5876C28.9995 22.5742 29.9328 21.9876 30.5328 21.6542C30.6662 21.5742 30.8128 21.5876 30.8928 21.6809C30.9327 21.7349 30.9507 21.802 30.9433 21.8687C30.9359 21.9355 30.9036 21.997 30.8528 22.0409" stroke="#703D29" stroke-width="0.0933333" stroke-linecap="round"/>
<path d="M22.4014 37.4922L22.1347 37.5855L21.8681 37.7989L21.7347 37.9722L21.5881 38.2389L21.5214 38.4389L21.4681 38.6789L21.4414 38.8655M23.9747 37.5189L23.9614 37.7589L23.9214 37.9189L23.7881 38.2122L23.6147 38.4522L23.4147 38.6122L23.2681 38.6789L23.0547 38.7322" stroke="#703D29" stroke-width="0.0933333"/>
<path d="M31.9585 43.8789C31.9185 44.1056 31.7052 44.3589 31.2519 44.4389L31.1719 44.4656" stroke="#703D29" stroke-width="0.106667"/>
<path d="M43.2272 36.8242C43.4686 37.0569 43.6595 37.3367 43.788 37.6464C43.9165 37.9561 43.9797 38.289 43.9739 38.6242C43.9739 39.1042 43.8405 39.6242 43.7072 39.8776C43.6005 40.1042 43.3072 41.0776 41.6672 41.7442C40.5634 42.0954 39.4122 42.2753 38.2539 42.2776C36.8805 42.3176 35.6139 42.3709 34.8672 43.2509" stroke="#703D29" stroke-width="0.12"/>
<path d="M41 37.7206C41.1067 37.5873 41.4667 37.4006 41.7733 37.574C41.8962 37.6359 42.0016 37.7276 42.08 37.8406" stroke="#703D29" stroke-width="0.08"/>
<path d="M42.8789 36.5044L43.0656 36.5711C43.2396 36.623 43.4249 36.623 43.5989 36.5711C43.9722 36.4644 44.2122 36.1178 44.0256 35.6511C43.9685 35.5403 43.8863 35.4445 43.7856 35.3711" stroke="#703D29" stroke-width="0.12"/>
<path d="M21.3734 26.6397C21.1067 26.7864 20.9334 26.8264 20.7334 27.0531C20.579 27.339 20.4625 27.6438 20.3867 27.9597M26.5201 21.0664C26.5201 21.3064 26.3601 21.4397 26.1201 21.4931" stroke="#703D29" stroke-width="0.0933333" stroke-linecap="round"/>
<path d="M42.2812 25.5977C42.6186 25.6045 42.9512 25.6786 43.2595 25.8157C43.5678 25.9528 43.8456 26.15 44.0766 26.396C44.3076 26.6419 44.4872 26.9315 44.6047 27.2477C44.7223 27.564 44.7755 27.9006 44.7613 28.2377C44.7613 30.371 43.4412 30.7043 42.9212 30.851" stroke="#703D29" stroke-width="0.08"/>
<path d="M42.4531 25.5991C43.5331 25.5591 44.6531 26.3591 44.7065 28.3591C44.7465 29.9191 43.6398 30.6257 43.1065 30.7591" stroke="#703D29" stroke-width="0.0933333"/>
<path d="M41.8405 33.1181L41.8538 32.9047L41.9338 32.5714L42.0271 32.3047L42.1471 32.0914L42.2805 31.9181M43.3205 31.4647V31.6647L43.2538 31.7981L43.1605 31.9447L43.0538 32.0247L42.8938 32.0914H42.7471L42.6405 32.0781M40.7338 25.0381L40.7738 24.8114L40.8805 24.5981L41.0138 24.3981L41.2271 24.1047L41.4138 23.9181L41.6805 23.6247L41.9471 23.3714L42.0938 23.1981L42.2938 22.9447L42.4805 22.6781L42.5871 22.4514L42.6538 22.1581L42.6671 21.7981L42.6405 21.6914M41.0005 38.7847L41.2138 38.7314L41.3738 38.6514L41.4671 38.5581L41.5338 38.4514L41.5738 38.2914V38.1714M20.4805 36.5581H20.8405L21.0538 36.4781M21.7205 31.6114L21.6938 31.7981L21.6405 31.8781L21.5871 31.9581L21.4938 32.0247L21.4005 32.0647L21.2671 32.0781H21.1871M22.5071 30.0114L22.4671 30.2914L22.4005 30.4247L22.2938 30.5847L22.1338 30.7047L21.9738 30.7847L21.6671 30.8514M23.7071 25.5581L23.6405 25.7314L23.5738 25.8647L23.4671 25.9981L23.3338 26.1314L23.1738 26.1981L23.0271 26.2381L22.9471 26.2247M22.9871 25.3981V25.5314" stroke="#703D29" stroke-width="0.08"/>
<path d="M23.2409 29.8672C23.1599 29.9461 23.065 30.0094 22.9609 30.0539M43.0276 36.0272L43.0943 36.0539C43.2809 36.1605 43.6543 36.0272 43.5476 35.7339" stroke="#703D29" stroke-width="0.08" stroke-linecap="round"/>
<path d="M42.3743 31.9446C42.5076 32.118 42.7609 32.1713 42.9609 32.118C43.0319 32.0989 43.0981 32.0653 43.1554 32.0194C43.2128 31.9736 43.2601 31.9163 43.2943 31.8513C43.3743 31.718 43.4009 31.5313 43.3476 31.358C43.3214 31.2799 43.2807 31.2076 43.2276 31.1446C43.1799 31.0699 43.1215 31.0025 43.0543 30.9446L43.0009 30.918M43.8543 35.4513C43.8615 35.4206 43.8659 35.3894 43.8676 35.358C43.8685 35.2829 43.8535 35.2084 43.8237 35.1394C43.7938 35.0705 43.7497 35.0087 43.6943 34.958L43.5876 34.8513M43.6409 34.918C43.6409 34.678 43.4409 34.4913 43.1876 34.4513M42.6276 34.8246L42.4543 34.6913C42.0891 34.3057 41.8842 33.7957 41.8809 33.2646C41.8809 32.7046 42.0943 32.1446 42.3609 31.9313M34.8276 43.198L35.0676 42.9846L35.2276 42.8513L35.5343 42.6646L35.8276 42.5313L36.0409 42.4646L36.4409 42.3846L36.9209 42.3046M32.9876 44.8913C32.7364 45.2555 32.3842 45.5382 31.9743 45.7046C31.567 45.5337 31.216 45.2519 30.9609 44.8913" stroke="#703D29" stroke-width="0.08"/>
<path d="M31.2543 44.3477C31.2028 44.5551 31.1022 44.7472 30.9609 44.9077" stroke="#703D29" stroke-width="0.08" stroke-linecap="round"/>
<path d="M31.2947 44.0651L31.2414 44.3585M30.9347 44.9318L30.8014 45.0651L30.5747 45.1851L30.3081 45.2651M29.5614 21.5585C29.6014 21.4518 29.6281 21.3718 29.6281 21.2118C29.6147 20.6518 29.2014 20.3985 29.0281 19.8785M29.0281 19.8785C28.9347 19.5718 28.8947 19.3051 29.1214 19.0785C29.3081 18.8918 29.5481 18.8918 29.7881 18.9985C30.3214 19.1985 30.9347 19.7718 32.0147 19.7985C30.9347 19.7718 30.3081 19.1985 29.8014 18.9985C29.5347 18.8918 29.2947 18.8651 29.0947 19.0651C28.8681 19.2785 28.9347 19.5718 29.0281 19.8785ZM29.0281 19.8785C29.2014 20.3985 29.5881 20.6518 29.6014 21.2118C29.6014 21.3718 29.5614 21.4518 29.5347 21.5585M32.0014 19.7318C33.0681 19.6785 33.9881 18.9585 34.2814 18.8918C34.5481 18.8385 34.6814 18.8651 34.8814 19.0385C34.6947 18.8651 34.4814 18.8785 34.2147 18.9718C33.7081 19.1718 33.0947 19.7451 32.0014 19.7718M42.6147 34.8251C42.3581 34.6326 42.1497 34.383 42.0063 34.096C41.8628 33.8091 41.7881 33.4926 41.7881 33.1718C41.7881 32.6251 42.0147 32.0518 42.2681 31.8385M32.9347 44.8518C32.7614 45.1185 32.3614 45.5185 31.9214 45.6785C31.5125 45.5039 31.1612 45.2173 30.9081 44.8518" stroke="#703D29" stroke-width="0.08"/>
<path d="M30.2266 21.8274L30.5332 21.6541C30.6666 21.5741 30.8399 21.5874 30.9199 21.6808C30.9999 21.7741 31.0132 21.9474 30.8932 22.0541" stroke="#703D29" stroke-width="0.08" stroke-linecap="round"/>
<path d="M28.6264 22.5741C29.3597 22.4141 29.9597 22.0941 30.413 21.8408M34.7064 43.7341C34.773 43.7741 34.813 43.8674 34.813 43.8674C34.8264 43.8941 34.853 43.9341 34.853 43.9741C34.893 44.1741 34.7597 44.2941 34.5864 44.3208C34.3597 44.3474 34.1864 44.2141 34.1197 44.0541M28.5864 22.5341C29.3197 22.3874 29.9197 22.0541 30.373 21.8008M43.3864 36.0541C43.253 36.1074 43.173 36.0941 42.9864 36.0274L42.7464 35.8941C42.26 35.617 41.8694 35.1984 41.6264 34.6941C41.5243 34.5004 41.4481 34.2942 41.3997 34.0808C41.3571 33.9379 41.3346 33.7898 41.333 33.6408C41.3185 32.9113 41.5381 32.1963 41.9597 31.6008C42.1064 31.3874 42.2397 31.2674 42.5197 31.2541M23.3597 26.0141C23.4742 26.1045 23.5663 26.2201 23.6287 26.3519C23.6912 26.4838 23.7223 26.6283 23.7197 26.7741C23.7197 27.1874 23.373 27.8674 22.5197 28.1074C22.2366 28.1847 21.9345 28.1463 21.6797 28.0008" stroke="#703D29" stroke-width="0.08"/>
<path d="M23.5044 27.4141C23.651 27.5207 23.7177 27.6407 23.7177 27.8541C23.7177 27.9874 23.6244 28.1741 23.4644 28.3474C23.3145 28.5103 23.1334 28.6415 22.9318 28.7331C22.7303 28.8247 22.5124 28.8749 22.291 28.8807C22.0244 28.8807 21.7577 28.8274 21.491 28.6541C21.237 28.4869 21.0559 28.2296 20.9844 27.9341" stroke="#703D29" stroke-width="0.08"/>
<path d="M23.4913 28.3074C23.6646 28.4674 23.7179 28.6674 23.7179 28.9208C23.7179 29.2808 23.5712 29.5608 23.2246 29.8541C23.1446 29.9341 23.0646 29.9874 22.9579 30.0541M40.2246 27.1074V27.5741M40.1846 26.9874V27.6541M40.2246 25.5474V26.4274M40.1846 25.3608V26.5474M39.9312 37.4808C39.7932 37.7627 39.6032 38.016 39.3712 38.2274C39.1489 38.4552 38.8868 38.6405 38.5979 38.7741C38.32 38.9131 38.0237 39.0118 37.7179 39.0674C37.4207 39.1388 37.1168 39.179 36.8112 39.1874C36.4779 39.1874 36.2913 39.1874 35.9579 39.1608C35.6113 39.1341 35.4246 39.0808 35.0646 39.0541C34.7712 39.0274 34.6112 39.0008 34.3179 39.0141C33.818 38.9961 33.3194 39.0777 32.8512 39.2541C32.5046 39.3874 32.0913 39.6541 32.0113 39.7608C31.7576 39.5446 31.4691 39.3733 31.1579 39.2541C30.9396 39.1648 30.7113 39.1021 30.4779 39.0674C30.1713 39.0141 30.0112 39.0141 29.7046 39.0141C29.4112 39.0141 29.2513 39.0274 28.9579 39.0541C28.6113 39.0941 28.4246 39.1341 28.0646 39.1608C27.7312 39.1874 27.5446 39.2008 27.2113 39.1874C26.5942 39.1809 25.9855 39.0446 25.4246 38.7874C25.099 38.6354 24.8084 38.4174 24.5712 38.1474M30.1846 45.2674L30.4246 45.2408M34.4646 44.9208L34.7046 44.9074L34.9312 44.8141L35.0913 44.7074L35.3179 44.4408L35.3579 44.3608L35.3979 44.1341V44.0274M41.6646 25.8008C41.7579 25.4541 41.6379 25.0808 41.2913 25.0941M23.6913 31.2941C23.6182 31.5533 23.452 31.7765 23.2246 31.9208M23.7046 25.6941C23.6673 25.8121 23.6052 25.9208 23.5224 26.0128C23.4396 26.1048 23.338 26.178 23.2246 26.2274C22.9712 26.3341 22.6912 26.2274 22.5312 26.1208" stroke="#703D29" stroke-width="0.08"/>
<path d="M21.8398 26.9844C22.0398 27.0911 22.2532 26.9311 22.2132 26.6644C22.1945 26.5872 22.1525 26.5176 22.0928 26.4651C22.0332 26.4127 21.9588 26.3798 21.8798 26.3711" stroke="#703D29" stroke-width="0.08" stroke-linecap="round"/>
<path d="M22.693 38.2134C22.733 38.2534 22.7464 38.3068 22.7997 38.3201C22.893 38.3468 22.9597 38.3734 23.053 38.2534C23.1597 38.1068 23.093 37.8801 22.9864 37.7334C22.8881 37.6323 22.7603 37.5649 22.6214 37.5409C22.4824 37.517 22.3395 37.5377 22.213 37.6001C22.1064 37.6668 21.9864 37.7335 21.8664 37.8935L21.7197 38.1068C21.6264 38.2534 21.5864 38.3735 21.573 38.4268C21.3064 39.2135 21.6264 40.0268 22.1197 40.5201" stroke="#703D29" stroke-width="0.08"/>
<path d="M34.6921 43.707L34.7855 43.8137L34.8121 43.9337C34.8521 44.1337 34.7188 44.2537 34.5455 44.2804C34.3321 44.307 34.1721 44.1737 34.1055 44.0137" stroke="#703D29" stroke-width="0.08" stroke-linecap="round"/>
<path d="M41.2535 20.6406C41.4801 20.6745 41.6879 20.7861 41.8411 20.9564C41.9944 21.1267 42.0836 21.3451 42.0935 21.574C42.0935 22.1606 41.8935 22.374 41.5868 22.8006C41.2535 23.254 40.1602 24.0806 40.1602 25.0273C40.1602 25.6006 40.3202 25.9606 40.7335 26.1473C41.0002 26.2806 41.3068 26.1473 41.4535 26.014C41.8002 25.694 41.6535 25.1473 41.2935 25.0806C40.8668 25.0006 40.7735 25.694 41.2002 25.654M43.5868 34.854C43.5653 34.7421 43.5057 34.6412 43.4182 34.5683C43.3307 34.4954 43.2207 34.455 43.1068 34.454C42.976 34.454 42.8505 34.5059 42.758 34.5985C42.6655 34.691 42.6135 34.8165 42.6135 34.9473C42.6135 35.0806 42.6668 35.214 42.7468 35.294" stroke="#703D29" stroke-width="0.08"/>
<path d="M40.5193 26.0117C40.4048 26.1021 40.3127 26.2177 40.2503 26.3495C40.1878 26.4814 40.1567 26.6259 40.1593 26.7717C40.1593 27.1851 40.506 27.8651 41.3593 28.1051C41.6793 28.1984 41.9993 28.1851 42.1859 28.0651M21.3859 26.6917C21.1278 26.774 20.9032 26.9377 20.746 27.1584C20.4283 27.6619 20.3229 28.2707 20.4526 28.8517C20.5058 29.118 20.6099 29.3716 20.7593 29.5984C20.7984 29.6559 20.8431 29.7095 20.8926 29.7584L21.0526 29.8917M29.5859 42.1584C30.2393 42.4384 30.7059 42.6517 31.1059 43.2917C31.2142 43.4922 31.2693 43.7172 31.2659 43.9451C31.2659 44.3051 31.1326 44.7051 30.826 44.9584C30.7054 45.0651 30.563 45.1443 30.4087 45.1904C30.2544 45.2364 30.092 45.2483 29.9326 45.2251C29.6793 45.1984 29.4393 45.0117 29.3993 44.8784M23.1993 29.8784C23.5593 30.1717 23.7193 30.4384 23.7193 30.8784C23.7274 31.0774 23.6822 31.275 23.5884 31.4508C23.4947 31.6266 23.3557 31.7742 23.1859 31.8784" stroke="#703D29" stroke-width="0.08"/>
<path d="M22.8672 31.5195C23.4005 32.1995 23.7072 32.5995 23.7205 33.3995C23.7339 34.1595 23.4939 34.6795 23.0539 35.2262" stroke="#703D29" stroke-width="0.08" stroke-linecap="round"/>
<path d="M33.3047 22.5728C33.4021 22.5 33.4725 22.3967 33.5047 22.2794C33.5714 22.0794 33.5714 21.9061 33.478 21.7461C33.6114 21.9328 33.6114 22.0794 33.5714 22.2794C33.558 22.4128 33.4647 22.4794 33.358 22.5861M40.2247 34.0661V36.2261L40.2114 36.5594C40.1999 36.6353 40.1866 36.7109 40.1714 36.7861" stroke="#703D29" stroke-width="0.08"/>
<path d="M40.1844 33.8644V36.5177L40.1178 36.8644M40.1844 31.131V33.0777M40.2244 31.291V32.8644M40.2244 29.291V30.4644M40.1844 29.1444V30.611M40.2244 28.0777V28.5444M40.1844 27.9844V28.651M39.9444 37.3444L39.8911 37.4377C39.7585 37.7233 39.573 37.9812 39.3444 38.1977C39.117 38.4221 38.8504 38.6028 38.5578 38.731C38.284 38.8688 37.9923 38.9676 37.6911 39.0244C37.3311 39.1044 37.1311 39.131 36.7711 39.1444C36.4378 39.1444 36.2511 39.1444 35.9311 39.1177C35.5711 39.091 35.3844 39.051 35.0244 39.011C34.7311 38.9844 34.5711 38.971 34.2778 38.971C33.9844 38.971 33.8111 38.971 33.5178 39.0244C33.2799 39.058 33.047 39.1207 32.8244 39.211C32.4644 39.3577 32.0644 39.611 31.9711 39.7177C31.8911 39.611 31.4778 39.3577 31.1311 39.211C30.9085 39.1207 30.6756 39.058 30.4378 39.0244C30.1444 38.971 29.9711 38.971 29.6644 38.971C29.3711 38.971 29.2111 38.9844 28.9178 39.011C28.5711 39.051 28.3844 39.091 28.0244 39.1177C27.6911 39.1444 27.5044 39.1577 27.1844 39.1444C26.5629 39.1397 25.9494 39.0033 25.3844 38.7444C25.0954 38.611 24.8332 38.4257 24.6111 38.1977C24.4896 38.083 24.378 37.9581 24.2778 37.8244M24.0111 37.3977C24.033 37.5807 24.017 37.7663 23.9643 37.9429C23.9115 38.1195 23.8231 38.2833 23.7044 38.4244C23.5978 38.5444 23.3578 38.771 23.0378 38.771C22.5444 38.771 22.3978 38.4377 22.3711 38.3444" stroke="#703D29" stroke-width="0.08"/>
<path d="M23.4129 37.1875C23.5063 37.2808 23.5862 37.3875 23.6662 37.5208C23.7996 37.7608 23.7462 38.1608 23.6529 38.3475C23.6406 38.366 23.6273 38.3838 23.6129 38.4008M20.9062 40.8008C21.2129 41.1208 21.6662 41.4675 22.3596 41.7475C23.3062 42.1475 24.7729 42.2275 25.7862 42.2808C27.1196 42.3208 28.3596 42.3742 29.1196 43.2142M31.4263 42.6808C31.671 42.8687 31.8562 43.1234 31.9596 43.4142M30.9862 44.9475C30.957 44.9805 30.9259 45.0116 30.8929 45.0408C30.7739 45.1458 30.6338 45.2239 30.4819 45.2699C30.3301 45.3159 30.1701 45.3287 30.0129 45.3075C29.7463 45.2808 29.5062 45.0942 29.4396 44.9608M28.7196 44.5742L28.7596 44.6275C28.9369 44.8174 29.1803 44.9319 29.4396 44.9475M33.0396 44.9475C32.7794 45.3086 32.4239 45.5902 32.0129 45.7608C31.6057 45.5899 31.2546 45.3081 30.9996 44.9475L30.9596 44.8808M33.0396 44.9342L33.1329 45.0275C33.2535 45.1343 33.3958 45.2134 33.5501 45.2595C33.7044 45.3056 33.8669 45.3174 34.0263 45.2942C34.1343 45.2816 34.2382 45.2452 34.3305 45.1876C34.4227 45.1299 34.501 45.0525 34.5596 44.9608L34.6263 44.8675" stroke="#703D29" stroke-width="0.08"/>
<path d="M34.5316 44.8789L34.4382 45.0389L34.2916 45.1722L34.0649 45.2656H33.8516" stroke="#703D29" stroke-width="0.08"/>
<path d="M35.0658 43.3718C35.2028 43.4722 35.3128 43.6051 35.3858 43.7584C35.4258 43.8518 35.4392 43.9584 35.4525 44.0651C35.4578 44.167 35.4428 44.269 35.4085 44.3651C35.3741 44.4612 35.3211 44.5496 35.2525 44.6251C35.1604 44.7244 35.0491 44.804 34.9253 44.859C34.8016 44.914 34.6679 44.9433 34.5325 44.9451C34.5147 44.9458 34.4969 44.9458 34.4792 44.9451M34.5058 44.9184C34.376 44.9221 34.2469 44.8977 34.1273 44.8471C34.0077 44.7965 33.9003 44.7208 33.8125 44.6251M42.3058 35.5718C42.0459 35.3255 41.8295 35.037 41.6658 34.7184C41.5649 34.529 41.4887 34.3273 41.4392 34.1184C41.3966 33.9756 41.3741 33.8275 41.3725 33.6784C41.3578 32.9509 41.5724 32.2372 41.9858 31.6384C42.0792 31.5318 42.1725 31.3984 42.2658 31.3451M42.0925 21.2251C42.4258 21.2518 42.7325 21.6251 42.7325 21.9851C42.7325 22.4918 42.5592 22.7184 42.1458 23.2251C41.7992 23.6518 40.7325 24.4251 40.7725 25.1584C40.7725 25.2918 40.8392 25.4251 40.9192 25.5318M40.4925 25.9984C40.5698 26.0758 40.66 26.139 40.7592 26.1851C40.8517 26.2216 40.9512 26.237 41.0504 26.2301C41.1496 26.2231 41.246 26.1941 41.3325 26.1451M38.5325 20.3984C38.6617 20.4832 38.7636 20.6036 38.8258 20.7451C39.0658 21.3451 38.5325 21.7984 38.0258 22.1318C37.6922 22.355 37.315 22.505 36.9192 22.5718" stroke="#703D29" stroke-width="0.08"/>
<path d="M37.946 21.5454C37.8669 21.5431 37.7891 21.5242 37.7179 21.4897C37.6466 21.4552 37.5835 21.406 37.5327 21.3454C37.4938 21.3069 37.4621 21.2617 37.4393 21.212M35.4393 21.8654C35.3788 21.8304 35.3247 21.7853 35.2793 21.732C35.146 21.5987 35.0793 21.4254 35.1727 21.1454C35.2527 20.892 35.666 20.1854 35.6793 19.692C35.706 18.9454 35.4127 18.492 34.9727 18.332" stroke="#703D29" stroke-width="0.08"/>
<path d="M35.6404 19.5312L35.6271 19.7979L35.5471 20.0912L35.4137 20.4912L35.2804 20.7446L35.1737 20.9979L35.1204 21.1713L35.0938 21.3046L35.1071 21.4246M40.1737 38.2646L40.2537 38.3712C40.3471 38.5046 40.6804 38.7712 40.9871 38.7712C41.4804 38.7712 41.6004 38.4246 41.6137 38.3446C41.6804 37.9579 41.5471 37.8646 41.3471 37.7446C41.3471 37.7446 41.2404 37.6912 41.0937 37.7179" stroke="#703D29" stroke-width="0.08" stroke-linecap="round"/>
<path d="M20.9333 36.5881C20.7719 36.633 20.6013 36.633 20.4399 36.5881C20.0533 36.4681 19.7466 36.1081 19.9066 35.6547M21.6933 31.4147C21.7333 31.4547 21.7466 31.5081 21.7466 31.5481C21.7999 32.0547 21.3733 32.1881 21.0799 32.1081C20.9151 32.0553 20.7737 31.9469 20.6799 31.8014C20.6228 31.709 20.5906 31.6033 20.5866 31.4947M23.5199 28.3481C23.5999 28.4147 23.6533 28.4814 23.6933 28.5747M23.5466 27.4414C23.6133 27.4947 23.6666 27.5614 23.6933 27.6147" stroke="#703D29" stroke-width="0.08"/>
<path d="M23.72 28.0653C23.6676 28.1834 23.5955 28.2916 23.5067 28.3853C23.3568 28.5482 23.1757 28.6794 22.9741 28.771C22.7726 28.8626 22.5547 28.9128 22.3333 28.9186C22.0667 28.9186 21.8 28.8653 21.5333 28.692C21.2685 28.5185 21.0782 28.2521 21 27.9453" stroke="#703D29" stroke-width="0.08" stroke-linecap="round"/>
<path d="M23.3867 26.0391C23.5325 26.1584 23.6431 26.3151 23.7067 26.4924" stroke="#703D29" stroke-width="0.08"/>
<path d="M23.7064 27.0938C23.5864 27.4938 23.2397 27.9738 22.5597 28.1471C22.2397 28.2271 21.813 28.1204 21.6797 28.0138" stroke="#703D29" stroke-width="0.08" stroke-linecap="round"/>
<path d="M21.332 27.0138C21.372 27.3604 21.5987 27.6271 22.052 27.6271C22.6787 27.6404 23.0654 26.7337 22.5054 26.0938" stroke="#703D29" stroke-width="0.08"/>
<path d="M19.918 30.0649C20.0113 30.1849 20.118 30.2916 20.238 30.3849C20.4716 30.585 20.7439 30.7348 21.038 30.8249M21.7313 30.8916C22.2913 30.8249 22.6113 30.3983 22.5313 29.9183C22.4913 29.5449 22.158 29.2516 21.918 29.2383" stroke="#703D29" stroke-width="0.08" stroke-linecap="round"/>
<path d="M22.6406 25.0781C22.894 25.0781 23.0406 25.2915 23.0273 25.4781" stroke="#703D29" stroke-width="0.08"/>
<path d="M22.5859 21.7344C22.7107 22.0657 22.9462 22.3436 23.2526 22.521M42.4793 26.6544C42.7059 26.961 42.5593 27.5877 41.9459 27.5877C41.8256 27.589 41.707 27.5589 41.6018 27.5005C41.4966 27.4421 41.4084 27.3572 41.3459 27.2544" stroke="#703D29" stroke-width="0.08" stroke-linecap="round"/>
<path d="M40.2266 22.5469V24.6669" stroke="#703D29" stroke-width="0.08"/>
<path d="M21.8396 26.9717C22.0262 27.105 22.2796 26.8784 22.1729 26.625C22.1062 26.465 21.8796 26.2784 21.5462 26.505C21.1729 26.7584 21.2796 27.545 21.9729 27.5584C22.5996 27.5584 22.9862 26.6517 22.4262 26.0117C21.8929 25.3984 20.9196 25.5317 20.2929 26.0384C19.8101 26.4387 19.4728 26.987 19.3329 27.5984C19.2484 28.0029 19.2484 28.4205 19.3329 28.825C19.3999 29.1812 19.5358 29.5209 19.7329 29.825L19.9062 30.0517C20.0129 30.1584 20.0396 30.2117 20.1729 30.3184C20.5556 30.6531 21.0514 30.8295 21.5596 30.8117C22.1729 30.785 22.5329 30.3584 22.4662 29.8384C22.4129 29.3317 21.9062 29.0784 21.5729 29.3184C21.3462 29.4784 21.2662 29.9717 21.6662 30.0917C21.8796 30.1584 22.0796 29.865 21.9329 29.6917M39.1996 20.1184C39.5596 19.9317 39.8396 19.9584 40.0396 20.2517C40.2317 20.5323 40.3081 20.8762 40.2529 21.2117C40.2014 21.5194 40.0345 21.796 39.7862 21.985" stroke="#703D29" stroke-width="0.08" stroke-linecap="round"/>
<path d="M40.0664 20.2657C40.4797 19.9991 40.9331 20.1191 41.1731 20.4791C41.3464 20.7457 41.3997 20.9591 41.3864 21.2924C41.3737 21.5444 41.2973 21.7891 41.1644 22.0036C41.0315 22.2181 40.8464 22.3955 40.6264 22.5191" stroke="#703D29" stroke-width="0.08" stroke-linecap="round"/>
<path d="M41.9986 21.2266C42.3452 21.2532 42.6119 21.5599 42.6119 21.9066C42.6119 22.4132 42.4786 22.6399 42.0786 23.1466C41.7186 23.5866 40.6652 24.3466 40.6919 25.0932C40.6919 25.3732 40.9319 25.6266 41.1319 25.6532" stroke="#703D29" stroke-width="0.08"/>
<path d="M42.0545 26.9725C41.8545 27.1058 41.6145 26.8925 41.7212 26.6525C41.7879 26.4925 42.0145 26.2791 42.3479 26.5058C42.7079 26.7591 42.6145 27.5458 41.9079 27.5591C41.2812 27.5591 40.8412 26.6791 41.4545 26.0125C41.9879 25.3991 43.0145 25.5191 43.6545 26.0258C43.9212 26.2391 44.4679 26.8258 44.5879 27.6258C44.7212 28.5591 44.7079 29.7058 43.7345 30.4258C43.3345 30.7058 42.8012 30.8391 42.3212 30.8258C41.7079 30.7991 41.3479 30.3591 41.4145 29.8391C41.4812 29.3325 41.9479 29.1191 42.3079 29.3191C42.6812 29.5191 42.6145 30.0391 42.2145 30.0925C41.9879 30.1191 41.8012 29.8658 41.9479 29.6925" stroke="#703D29" stroke-width="0.08" stroke-linecap="round"/>
<path d="M41.7188 26.6512C41.8254 26.1845 42.2121 26.1445 42.5454 26.1445C43.4121 26.1579 44.0254 27.2112 44.0387 28.2112C44.0387 29.4779 43.5054 30.2379 42.5721 30.2779C42.3187 30.2779 41.9054 30.1712 41.9054 29.8779" stroke="#703D29" stroke-width="0.08"/>
<path d="M42.2652 26.4414C43.1852 26.6547 43.5052 27.4814 43.5052 28.2814C43.5052 28.9347 43.4385 29.8281 42.1719 30.1347" stroke="#703D29" stroke-width="0.08" stroke-linecap="square"/>
<path d="M43.787 35.3739C43.8019 35.2837 43.7926 35.1912 43.7603 35.1057C43.728 35.0201 43.6737 34.9446 43.6029 34.8868C43.5321 34.829 43.4472 34.7908 43.357 34.7762C43.2667 34.7616 43.1742 34.771 43.0888 34.8036C43.0034 34.8361 42.928 34.8906 42.8703 34.9616C42.8127 35.0326 42.7748 35.1175 42.7604 35.2078C42.746 35.298 42.7557 35.3905 42.7884 35.4759C42.8212 35.5612 42.8759 35.6365 42.947 35.6939" stroke="#703D29" stroke-width="0.08"/>
<path d="M41.9202 34.5859C42.1068 34.8526 42.3202 35.1326 42.7602 35.3859M42.5868 36.7859C42.1602 36.4926 41.3202 36.1193 40.5868 36.4926C40.4532 36.5435 40.3318 36.622 40.2307 36.7231C40.1296 36.8243 40.051 36.9456 40.0002 37.0793C39.9298 37.2935 39.9149 37.522 39.9569 37.7435C39.9989 37.9651 40.0963 38.1723 40.2402 38.3459C40.3602 38.4793 40.6002 38.6926 40.9068 38.7059C41.4135 38.7059 41.5335 38.3593 41.5468 38.2793C41.6002 37.9059 41.3868 37.7593 41.2802 37.7326C41.1868 37.6926 40.9068 37.7059 40.8535 37.9059C40.8268 37.9726 40.8268 38.0793 40.8802 38.1726" stroke="#703D29" stroke-width="0.08" stroke-linecap="round"/>
<path d="M34.7315 43.7867C34.8648 44.08 34.7048 44.2134 34.5182 44.24C34.2248 44.28 34.0782 44.0534 34.0648 43.84C34.0594 43.7608 34.0701 43.6813 34.0963 43.6063C34.1225 43.5314 34.1637 43.4625 34.2173 43.4039C34.2709 43.3453 34.3358 43.2982 34.4082 43.2655C34.4805 43.2327 34.5588 43.215 34.6382 43.2134C34.9448 43.2134 35.1848 43.4134 35.3048 43.68C35.3448 43.7734 35.3715 43.88 35.3715 44C35.3822 44.1995 35.3153 44.3954 35.1848 44.5467C35.0939 44.6484 34.9831 44.7305 34.8593 44.7878C34.7355 44.8452 34.6012 44.8765 34.4648 44.88C33.9048 44.8934 33.4648 44.3734 33.4648 43.84C33.4648 42.8134 34.9848 42.24 35.5982 42.1067C36.3799 41.9146 37.1801 41.8073 37.9848 41.7867C38.4515 41.7734 38.8115 41.7867 39.3315 41.72C39.7982 41.68 40.0515 41.6534 40.5315 41.5467C41.1569 41.4152 41.7365 41.1209 42.2115 40.6934C42.5982 40.3334 42.8115 40.0934 42.9982 39.6C43.1021 39.2964 43.1404 38.9742 43.1105 38.6548C43.0807 38.3353 42.9833 38.0257 42.8248 37.7467C42.6782 37.5026 42.4787 37.2945 42.241 37.1376C42.0034 36.9807 41.7336 36.879 41.4515 36.84C40.9582 36.7734 40.5182 36.9867 40.2515 37.48C40.1182 37.72 40.1715 38.12 40.2648 38.3067C40.3304 38.4209 40.4231 38.5171 40.5347 38.5869C40.6464 38.6567 40.7735 38.6978 40.9048 38.7067C41.4115 38.7067 41.5315 38.36 41.5448 38.28C41.5982 37.9067 41.3848 37.76 41.2782 37.72C41.1848 37.6934 40.9048 37.7067 40.8515 37.9067C40.8248 37.9734 40.8248 38.08 40.8782 38.1734" stroke="#703D29" stroke-width="0.08" stroke-linecap="round"/>
<path d="M34.2935 42.1602C33.6535 42.4402 33.1735 42.6535 32.7735 43.2935C32.6646 43.4938 32.6095 43.7189 32.6135 43.9468C32.6135 44.3068 32.7601 44.7068 33.0535 44.9602C33.174 45.0669 33.3164 45.1461 33.4707 45.1921C33.625 45.2382 33.7875 45.25 33.9468 45.2268C34.2135 45.2002 34.4401 45.0135 34.4801 44.8802" stroke="#703D29" stroke-width="0.08" stroke-linecap="round"/>
<path d="M40.6811 29.8789C40.3744 29.9856 40.1611 30.4389 40.1611 30.8789C40.153 31.078 40.1982 31.2756 40.2919 31.4513C40.3857 31.6271 40.5246 31.7747 40.6944 31.8789" stroke="#703D29" stroke-width="0.08"/>
<path d="M41.0135 31.5195C40.4802 32.1995 40.1735 32.5995 40.1602 33.3995C40.1602 34.1595 40.3868 34.6795 40.8402 35.2262" stroke="#703D29" stroke-width="0.08" stroke-linecap="round"/>
<path d="M38.1211 20.2644L38.1611 20.1977C38.3878 19.8777 38.7878 19.7844 39.0811 19.9977C39.4278 20.2644 39.5211 20.7177 39.4278 21.1977C39.3611 21.4911 39.1611 21.7444 38.8944 21.9311" stroke="#703D29" stroke-width="0.08"/>
<path d="M24.6787 20.1068C24.332 19.9468 24.052 19.9735 23.8387 20.2401C23.735 20.3748 23.6621 20.5305 23.6253 20.6964C23.5884 20.8623 23.5885 21.0343 23.6254 21.2001C23.7054 21.5601 23.812 21.7068 24.092 21.9735" stroke="#703D29" stroke-width="0.08" stroke-linecap="round"/>
<path d="M23.814 20.2677C23.7285 20.2059 23.6311 20.1622 23.528 20.1394C23.4249 20.1165 23.3182 20.1151 23.2146 20.1351C23.1109 20.1551 23.0124 20.1961 22.9252 20.2556C22.8379 20.3151 22.7638 20.3918 22.7074 20.4811C22.5416 20.7181 22.4659 21.0065 22.494 21.2944C22.5207 21.8544 22.8674 22.3077 23.2674 22.5211" stroke="#703D29" stroke-width="0.08"/>
<path d="M22.6281 20.6406C22.4111 20.6663 22.2107 20.7694 22.0637 20.9311C21.9167 21.0928 21.833 21.3022 21.8281 21.5206C21.8281 22.1206 21.9615 22.3606 22.2948 22.8006C22.6281 23.254 23.7215 24.0806 23.7215 25.0273C23.7215 25.6006 23.5615 25.9606 23.1481 26.1473C22.8815 26.2806 22.5748 26.1473 22.4281 26.014C22.0815 25.694 22.2281 25.1473 22.5881 25.0806C23.0281 25.0006 23.1081 25.694 22.6815 25.654" stroke="#703D29" stroke-width="0.08"/>
<path d="M21.8659 21.2266C21.5326 21.2532 21.1992 21.5332 21.1992 21.8932C21.1992 22.3999 21.3992 22.6399 21.8126 23.1466C22.1592 23.5866 23.1592 24.3466 23.1326 25.0799C23.1326 25.3466 22.9326 25.6932 22.7459 25.6532" stroke="#703D29" stroke-width="0.08"/>
<path d="M21.0653 31.4776C21.2386 31.0909 21.6519 31.2642 21.6786 31.4776C21.7319 31.9709 21.3053 32.1176 20.9986 32.0376C20.9277 32.0185 20.8614 31.9849 20.8041 31.939C20.7467 31.8931 20.6995 31.8359 20.6653 31.7709C20.624 31.6963 20.598 31.6143 20.5888 31.5296C20.5797 31.4449 20.5875 31.3592 20.6119 31.2776C20.6381 31.1995 20.6788 31.1271 20.7319 31.0642C20.7757 31.0022 20.8299 30.948 20.8919 30.9042C21.0253 30.8242 21.1453 30.8242 21.3453 30.8242C22.0786 30.8242 22.7319 31.6909 22.9453 32.6109C23.0253 32.9042 23.1186 33.5842 22.9853 34.2109C22.8782 34.7772 22.6097 35.3005 22.2119 35.7176C21.8317 36.0729 21.3758 36.3373 20.8786 36.4909C20.71 36.5445 20.5297 36.5491 20.3586 36.5042C19.9853 36.3842 19.7453 36.0376 19.9319 35.5709C20.0919 35.2242 20.6519 35.0376 20.9053 35.4909C20.9319 35.5309 20.9586 35.6109 20.9586 35.6909C20.9586 35.8109 20.9053 35.9576 20.8253 36.0109C20.6386 36.1309 20.3319 36.0909 20.3453 35.7442" stroke="#703D29" stroke-width="0.08" stroke-linecap="round"/>
<path d="M20.5043 36.0539C20.6376 36.1072 20.7176 36.0939 20.891 36.0272L21.131 35.8939C21.4776 35.6939 21.8776 35.3872 22.251 34.6806C22.3519 34.4911 22.4281 34.2895 22.4776 34.0806C22.5176 33.9472 22.5443 33.7872 22.5576 33.6406C22.5683 32.9096 22.3439 32.1945 21.9176 31.6006C21.771 31.3872 21.651 31.2672 21.3576 31.2539M20.091 35.3872C20.074 35.297 20.0813 35.2039 20.1119 35.1173C20.1426 35.0308 20.1957 34.9539 20.2657 34.8946C20.3358 34.8352 20.4203 34.7954 20.5107 34.7793C20.6011 34.7631 20.6941 34.7712 20.7804 34.8027C20.8666 34.8342 20.943 34.888 21.0017 34.9585C21.0605 35.0291 21.0995 35.114 21.1148 35.2045C21.1301 35.2951 21.1211 35.388 21.0888 35.474C21.0566 35.5599 21.0021 35.6358 20.931 35.6939" stroke="#703D29" stroke-width="0.08"/>
<path d="M20.293 34.8532C20.3149 34.7391 20.3765 34.6364 20.4667 34.5633C20.557 34.4901 20.6701 34.4511 20.7863 34.4532C20.9148 34.4567 21.0369 34.5102 21.1266 34.6023C21.2162 34.6945 21.2663 34.818 21.2663 34.9465C21.2673 35.0748 21.2197 35.1987 21.133 35.2932" stroke="#703D29" stroke-width="0.08"/>
<path d="M21.2539 34.8382C21.5106 34.6457 21.7189 34.3961 21.8624 34.1091C22.0059 33.8222 22.0806 33.5057 22.0806 33.1849C22.0806 32.6382 21.8672 32.0649 21.6006 31.8516" stroke="#703D29" stroke-width="0.08"/>
<path d="M21.9611 34.5859C21.7577 34.9229 21.4676 35.1992 21.1211 35.3859" stroke="#703D29" stroke-width="0.08" stroke-linecap="round"/>
<path d="M23.2794 36.4946C23.146 36.2012 22.906 36.0679 22.506 36.0279C22.106 35.9879 21.7727 36.0946 21.4127 36.2812C20.9804 36.4809 20.6147 36.8008 20.3594 37.2028C20.104 37.6047 19.9698 38.0717 19.9727 38.5479C19.978 38.9835 20.0686 39.4138 20.2394 39.8146C20.3594 40.0279 20.6394 41.0146 22.2794 41.6812C23.3887 42.027 24.5441 42.2023 25.706 42.2012C27.0927 42.2546 28.3727 42.3079 29.1194 43.2146" stroke="#703D29" stroke-width="0.08"/>
<path d="M21.293 36.786C21.733 36.4927 22.5596 36.1193 23.3063 36.4927C23.4359 36.5478 23.5532 36.628 23.6516 36.7287C23.75 36.8294 23.8275 36.9485 23.8796 37.0793C23.95 37.2935 23.9649 37.5221 23.9229 37.7436C23.8809 37.9651 23.7835 38.1724 23.6396 38.346C23.5196 38.4793 23.2796 38.6927 22.973 38.706C22.4663 38.706 22.3463 38.3593 22.333 38.2793C22.2796 37.906 22.493 37.7593 22.5996 37.7193C22.693 37.6927 22.973 37.706 23.0263 37.906C23.053 37.9727 23.053 38.0793 22.9996 38.1727" stroke="#703D29" stroke-width="0.08" stroke-linecap="round"/>
<path d="M23.0245 38.0936C23.0645 37.9602 23.0511 37.8002 22.9178 37.6536C22.8165 37.5484 22.6839 37.4786 22.5399 37.4546C22.3958 37.4306 22.2478 37.4536 22.1178 37.5202C22.0245 37.5869 21.9045 37.6536 21.7978 37.8136C21.7445 37.8669 21.6645 37.9602 21.6378 38.0269C21.5445 38.1736 21.5045 38.2936 21.5045 38.3602C21.1711 39.2936 21.7045 40.2802 22.3711 40.7069C22.9578 41.0802 23.5445 41.1869 24.2911 41.2402C24.6245 41.2802 24.8245 41.2802 25.1578 41.3069H26.4378C26.7576 41.2904 27.078 41.2904 27.3978 41.3069C27.7978 41.3469 28.0778 41.3602 28.4111 41.4136C28.6245 41.4402 28.8778 41.4802 29.1311 41.5469C29.2111 41.5469 29.2911 41.5736 29.3711 41.6002L29.5311 41.6402C30.0111 41.7869 30.4645 41.9602 30.8378 42.2002C30.9445 42.2669 31.0778 42.3336 31.1711 42.4269L31.3445 42.5869C31.6111 42.8536 31.8778 43.1202 31.9311 43.4802V43.6936C31.9311 43.9336 31.7445 44.2669 31.2245 44.3602" stroke="#703D29" stroke-width="0.08"/>
<path d="M29.1463 43.7867C29.013 44.08 29.173 44.2134 29.3597 44.24C29.653 44.28 29.7997 44.0534 29.8263 43.84C29.8318 43.7597 29.8207 43.6791 29.7937 43.6032C29.7667 43.5274 29.7244 43.4579 29.6693 43.3991C29.6143 43.3403 29.5477 43.2935 29.4738 43.2615C29.3999 43.2296 29.3202 43.2132 29.2397 43.2134C29.0949 43.2166 28.9543 43.2627 28.8357 43.3457C28.717 43.4288 28.6256 43.5451 28.573 43.68C28.5319 43.7819 28.5093 43.8902 28.5063 44C28.4956 44.1995 28.5625 44.3954 28.693 44.5467C28.7839 44.6484 28.8947 44.7305 29.0185 44.7878C29.1424 44.8452 29.2766 44.8765 29.413 44.88C29.973 44.8934 30.413 44.3734 30.413 43.84C30.413 42.8134 28.893 42.24 28.2797 42.1067C27.4979 41.9146 26.6978 41.8073 25.893 41.7867C25.4263 41.7734 25.0663 41.7867 24.5463 41.72C24.0797 41.68 23.8263 41.6534 23.3463 41.5467C22.7257 41.413 22.151 41.1188 21.6797 40.6934C21.2358 40.3647 20.9271 39.8853 20.8117 39.3452C20.6964 38.8051 20.7821 38.2414 21.053 37.76C21.1982 37.5135 21.3971 37.3027 21.6348 37.1435C21.8725 36.9842 22.1431 36.8805 22.4263 36.84C22.933 36.7734 23.3597 36.9867 23.6263 37.48C23.7597 37.72 23.7063 38.12 23.613 38.3067C23.5475 38.4209 23.4548 38.5171 23.3431 38.5869C23.2315 38.6567 23.1044 38.6978 22.973 38.7067C22.4663 38.7067 22.3463 38.36 22.333 38.28C22.2797 37.9067 22.493 37.76 22.5997 37.72C22.693 37.6934 22.973 37.7067 23.0263 37.9067C23.053 37.9734 23.053 38.08 22.9997 38.1734" stroke="#703D29" stroke-width="0.08"/>
<path d="M25.7742 20.2644L25.7208 20.1977C25.4942 19.8777 25.0942 19.7844 24.8008 19.9977C24.4542 20.2644 24.3608 20.7177 24.4675 21.1977C24.5425 21.5025 24.734 21.7658 25.0008 21.9311" stroke="#703D29" stroke-width="0.08" stroke-linecap="round"/>
<path d="M38.239 21.2795C37.7057 21.8662 37.159 22.0528 36.359 22.0795C36.0923 22.0795 35.6257 21.9995 35.3457 21.7995C35.1723 21.6662 34.9723 21.4528 35.0923 21.0662C35.1723 20.8128 35.5857 20.1062 35.599 19.6128C35.639 18.8662 35.3457 18.4528 34.8923 18.2928C34.0657 17.9995 33.159 18.8262 32.6257 19.0128C32.3457 19.1062 32.199 19.1195 31.9457 19.1195C31.679 19.1195 31.5457 19.1062 31.2523 19.0128C30.719 18.8262 29.8257 17.9995 28.9857 18.2928C28.5323 18.4528 28.2523 18.8662 28.279 19.6262C28.2923 20.1062 28.7057 20.8262 28.7857 21.0662C28.919 21.4528 28.719 21.6662 28.5323 21.7995C28.2657 21.9995 27.7723 22.0795 27.5323 22.0662C26.7323 22.0528 26.1857 21.8662 25.6523 21.2795" stroke="#703D29" stroke-width="0.08"/>
<path d="M28.9727 41.918C29.0793 41.958 28.9993 41.8913 29.6793 42.1846C30.3003 42.4002 30.8309 42.8181 31.186 43.3713C31.342 43.6707 31.3847 44.0163 31.306 44.3446" stroke="#703D29" stroke-width="0.08" stroke-linecap="round"/>
<path d="M29.0273 44.7986C29.1596 44.8681 29.305 44.909 29.454 44.9186C30.014 44.932 30.454 44.412 30.454 43.8786C30.454 43.5053 30.254 43.1853 29.974 42.9453" stroke="#703D29" stroke-width="0.08"/>
<path d="M29.1467 43.787C29.0134 44.0936 29.2 44.2536 29.3867 44.2803C29.68 44.307 29.84 44.0936 29.8667 43.8803C29.8748 43.7689 29.8516 43.6575 29.7998 43.5585C29.7479 43.4596 29.6695 43.3771 29.5734 43.3203" stroke="#703D29" stroke-width="0.08" stroke-linecap="round"/>
<path d="M41.3457 20.6406C41.7724 20.6406 42.1457 21.1206 42.1457 21.6006C42.1457 22.174 41.8524 22.5206 41.6257 22.774C41.4524 22.9873 41.2657 23.174 41.0391 23.4006" stroke="#703D29" stroke-width="0.08"/>
<path d="M40.8387 20.1857C40.9839 20.2655 41.111 20.3744 41.212 20.5057C41.3854 20.7724 41.4387 20.9991 41.4254 21.3324C41.3987 21.8924 40.9987 22.2791 40.6254 22.5324M39.9987 20.1857L40.0787 20.2791C40.332 20.5724 40.3454 20.9991 40.292 21.2391C40.2621 21.3876 40.2016 21.5284 40.1144 21.6523C40.0272 21.7763 39.9151 21.8807 39.7854 21.9591M39.1187 20.0391C39.4654 20.3057 39.572 20.7591 39.452 21.2391C39.372 21.5724 39.1587 21.7724 38.892 21.9324M40.372 27.4124C40.412 27.5457 40.492 27.5857 40.572 27.6791C40.8009 27.9058 41.0863 28.0669 41.3987 28.1457C41.7187 28.2391 42.012 28.1724 42.2387 28.0257M20.5054 35.2257C20.6654 35.2257 20.8387 35.3457 20.9454 35.5324C20.9587 35.5591 20.9987 35.6391 20.9987 35.7324C20.9987 35.8524 20.9454 35.9724 20.8654 36.0257C20.6654 36.1591 20.332 36.0924 20.332 35.7591" stroke="#703D29" stroke-width="0.08" stroke-linecap="round"/>
<path d="M21.5318 30.8398C22.1985 30.9732 22.8252 31.7598 23.0252 32.6132C23.1052 32.9198 23.1985 33.5865 23.0652 34.2132C22.9531 34.7872 22.6749 35.3158 22.2652 35.7332C22.1793 35.8255 22.0856 35.9102 21.9852 35.9865L21.8518 36.0798M20.7852 34.4665C21.0518 34.4665 21.2918 34.7198 21.2918 34.9998C21.2929 35.1281 21.2452 35.252 21.1585 35.3465" stroke="#703D29" stroke-width="0.08"/>
<path d="M20.6133 34.7578C20.8933 34.7578 21.1599 35.0245 21.1599 35.3178C21.1601 35.3941 21.1434 35.4695 21.1112 35.5386C21.0789 35.6077 21.0318 35.6689 20.9733 35.7178" stroke="#703D29" stroke-width="0.08"/>
<path d="M23.2007 31.9336C23.4499 32.2299 23.6237 32.5822 23.7073 32.9603M23.7073 34.0936C23.663 34.279 23.5958 34.4581 23.5073 34.6269C23.3834 34.8611 23.2212 35.073 23.0273 35.2536" stroke="#703D29" stroke-width="0.08" stroke-linecap="round"/>
<path d="M23.2383 29.9062C23.4783 30.1062 23.6383 30.3063 23.7049 30.5463" stroke="#703D29" stroke-width="0.08"/>
<path d="M23.7191 29.2652C23.6309 29.5094 23.4733 29.7225 23.2657 29.8785M22.0391 27.5852L22.3324 27.5052L22.5057 27.3718L22.6124 27.2252L22.7057 26.9852L22.7457 26.7852" stroke="#703D29" stroke-width="0.08" stroke-linecap="round"/>
<path d="M21.467 26.5742C21.3736 26.6009 21.2536 26.6276 21.1336 26.6809C20.946 26.7714 20.7851 26.9093 20.667 27.0809C20.3507 27.5849 20.2453 28.1932 20.3736 28.7742C20.4268 29.0405 20.5309 29.2941 20.6803 29.5209L20.8136 29.7076C21.0003 29.8809 21.1603 29.9742 21.427 29.9342" stroke="#703D29" stroke-width="0.08"/>
<path d="M23.068 25.3047C23.028 25.478 22.9346 25.6914 22.668 25.6647" stroke="#703D29" stroke-width="0.08" stroke-linecap="round"/>
<path d="M22.0944 26.4658C21.8277 26.2125 21.2944 26.1458 20.7477 26.4925L20.5344 26.6658C20.4638 26.7291 20.4011 26.8008 20.3477 26.8792C20.2063 27.083 20.0983 27.308 20.0277 27.5458C19.9344 27.9458 19.9344 28.2925 19.9477 28.3858C19.9477 28.5192 19.9744 28.6392 19.9877 28.7458C20.0677 29.1192 20.1744 29.3858 20.2944 29.5725C20.4144 29.7725 20.6944 30.2392 21.321 30.2925C21.561 30.3058 21.961 30.1992 21.9877 29.8925" stroke="#703D29" stroke-width="0.08"/>
<path d="M37.8391 20.9342C37.8791 20.7209 38.1457 20.6809 38.2391 20.8009C38.3991 21.0142 38.2924 21.3609 37.9724 21.4542C37.879 21.471 37.7828 21.4626 37.6937 21.4298C37.6046 21.397 37.5259 21.341 37.4657 21.2676C37.3324 21.0942 37.3457 20.8942 37.3991 20.7342C37.4257 20.6276 37.5191 20.5342 37.6257 20.4409C37.9857 20.1742 38.5724 20.2276 38.7724 20.7076C39.0124 21.2942 38.4791 21.7476 37.9724 22.0809C37.3591 22.5076 36.6391 22.5876 36.1057 22.5742C34.8791 22.5742 33.9591 21.9876 33.3457 21.6409C33.2124 21.5742 33.0657 21.5876 32.9857 21.6809C32.9458 21.7349 32.9278 21.802 32.9352 21.8687C32.9426 21.9355 32.975 21.997 33.0257 22.0409" stroke="#703D29" stroke-width="0.08" stroke-linecap="round"/>
<path d="M38.0784 20.7344C38.2117 20.7344 38.2384 20.7877 38.2784 20.841C38.4384 21.041 38.3184 21.3877 38.0117 21.4944M40.3851 28.361C39.9184 28.8677 40.3584 29.7344 40.705 29.9344C40.825 30.0277 40.8784 29.9744 40.9717 30.0277" stroke="#703D29" stroke-width="0.08" stroke-linecap="round"/>
<path d="M40.4121 27.3876C40.2654 27.4942 40.2121 27.6142 40.1988 27.8276C40.1915 27.9245 40.2043 28.0219 40.2365 28.1137C40.2686 28.2055 40.3193 28.2896 40.3854 28.3609C40.7238 28.6725 41.1654 28.8482 41.6254 28.8542C41.8921 28.8542 42.1588 28.8009 42.4254 28.6276C42.6794 28.4604 42.8605 28.2031 42.9321 27.9076M40.1588 36.1476L40.1321 36.4809C40.1045 36.8063 40.014 37.1233 39.8654 37.4142C39.7274 37.6961 39.5374 37.9495 39.3054 38.1609C39.078 38.3853 38.8114 38.566 38.5188 38.6942C38.2457 38.8366 37.9539 38.9399 37.6521 39.0009C37.0728 39.1164 36.4794 39.1434 35.8921 39.0809C35.5321 39.0542 35.3454 39.0142 34.9854 38.9742C34.6921 38.9609 34.5321 38.9342 34.2387 38.9342C33.7424 38.9222 33.2485 39.0083 32.7854 39.1875C32.4254 39.3209 32.0254 39.5876 31.9321 39.6942C31.8521 39.5742 31.4388 39.3209 31.0921 39.1875C30.8701 39.0926 30.6372 39.0254 30.3988 38.9875C30.1054 38.9342 29.9321 38.9342 29.6254 38.9342C29.3321 38.9342 29.1721 38.9609 28.8788 38.9875C28.5321 39.0142 28.3454 39.0676 27.9854 39.0809C27.6521 39.1076 27.4654 39.1209 27.1454 39.1075C26.8314 39.1054 26.5185 39.0696 26.2121 39.0009C25.9109 38.9441 25.6192 38.8453 25.3454 38.7075C25.0565 38.5739 24.7944 38.3887 24.5721 38.1609C24.3387 37.9455 24.1487 37.6876 24.0121 37.4009C23.8655 37.114 23.775 36.8017 23.7454 36.4809C23.7188 36.3476 23.7188 36.1476 23.7188 36.1476V22.5742H40.1454L40.1588 36.1476Z" stroke="#703D29" stroke-width="0.08"/>
<path d="M22.3987 38.0791C22.3987 37.9907 22.4338 37.9059 22.4963 37.8434C22.5588 37.7809 22.6436 37.7458 22.732 37.7458C22.8204 37.7458 22.9052 37.7809 22.9677 37.8434C23.0302 37.9059 23.0654 37.9907 23.0654 38.0791C23.0654 38.1675 23.0302 38.2523 22.9677 38.3148C22.9052 38.3773 22.8204 38.4124 22.732 38.4124C22.6436 38.4124 22.5588 38.3773 22.4963 38.3148C22.4338 38.2523 22.3987 38.1675 22.3987 38.0791ZM20.332 35.7324C20.332 35.5591 20.4387 35.4258 20.572 35.4258C20.7054 35.4258 20.7987 35.5591 20.7987 35.7324C20.7987 35.8924 20.692 36.0258 20.572 36.0258C20.4387 36.0258 20.332 35.8924 20.332 35.7324Z" fill="#C7B37F" stroke="#C7B37F" stroke-width="0.04"/>
<path d="M21.5039 29.8115C21.5039 29.6781 21.6106 29.5715 21.7306 29.5715C21.8639 29.5715 21.9572 29.6781 21.9572 29.8115C21.9572 29.9448 21.8639 30.0515 21.7306 30.0515C21.5972 30.0515 21.5039 29.9448 21.5039 29.8115ZM25.5972 21.0648C25.5972 20.9315 25.6639 20.7981 25.7839 20.7981C25.9039 20.7848 26.0106 20.8781 26.0239 21.0115C26.0239 21.1448 25.9572 21.2781 25.8372 21.2781C25.7172 21.2915 25.6239 21.1981 25.5972 21.0648Z" fill="#C7B37F"/>
<path d="M21.2368 31.1992C21.1834 31.2126 21.1568 31.2259 21.1301 31.2659C21.0901 31.3059 21.0768 31.3192 21.0501 31.3859L21.0234 31.5459M21.6501 35.1059L21.7834 34.9726L21.8634 34.8392L21.9301 34.7059L22.0234 34.5326M21.8501 36.3992L21.6501 36.4926L21.5034 36.5726C21.4441 36.6056 21.3863 36.6411 21.3301 36.6792L21.1701 36.8126M23.1701 31.7592L23.0634 31.6526L22.9301 31.5459L22.8101 31.4392" stroke="#C7B37F" stroke-width="0.08" stroke-linecap="round"/>
<path d="M23.2233 30L23.0633 30.0667C22.999 30.09 22.9316 30.1035 22.8633 30.1067" stroke="#C7B37F" stroke-width="0.08"/>
<path d="M20.9844 27.7863C21.011 27.8663 21.011 27.9196 21.051 27.9863C21.0777 28.0796 21.1177 28.133 21.171 28.213C21.2576 28.3578 21.3762 28.481 21.5177 28.573L21.7177 28.6796M21.5844 27.9063L21.7577 27.9863C21.884 28.0405 22.0203 28.0678 22.1577 28.0663L22.3977 28.053M23.3577 22.6263L23.091 22.4663C22.971 22.3996 22.9177 22.3463 22.8244 22.2663C22.7703 22.2131 22.7212 22.1551 22.6777 22.093L22.571 21.9196M23.571 21.3063L23.651 21.533C23.6989 21.6311 23.7619 21.7211 23.8377 21.7996C23.971 21.933 24.0644 21.973 24.211 22.093M24.3977 21.293C24.4377 21.3863 24.4377 21.4263 24.491 21.5063C24.5177 21.573 24.5444 21.613 24.5977 21.6663L24.771 21.8396C24.8644 21.9196 24.931 21.933 25.0377 21.9863" stroke="#C7B37F" stroke-width="0.08" stroke-linecap="round"/>
<path d="M33.7715 20.2127C33.7715 19.986 33.5448 19.9727 33.4515 19.9727C33.2115 19.9727 33.1448 20.1193 32.8382 20.2793C32.5738 20.4557 32.2626 20.5486 31.9448 20.546C31.6272 20.5477 31.3162 20.4549 31.0515 20.2793C30.7448 20.1193 30.6915 19.9727 30.4382 19.9727C30.3979 19.9744 30.3583 19.984 30.3218 20.001C30.2852 20.018 30.2524 20.0421 30.2251 20.0718C30.1979 20.1015 30.1768 20.1363 30.163 20.1742C30.1492 20.2121 30.143 20.2524 30.1448 20.2927V20.4127L30.1848 20.4393C30.1848 20.3327 30.1982 20.2793 30.2515 20.2127C30.2776 20.1809 30.3101 20.155 30.3468 20.1367C30.3836 20.1183 30.4238 20.1078 30.4648 20.106C30.7048 20.106 30.7982 20.266 31.1048 20.426C31.5048 20.6393 31.6648 20.6793 31.9982 20.6927C32.3203 20.6971 32.6364 20.6041 32.9048 20.426C33.2115 20.266 33.3048 20.0927 33.5448 20.0927C33.6248 20.0927 33.6782 20.146 33.7182 20.226V20.346L33.7448 20.3593C33.7448 20.3193 33.7715 20.306 33.7715 20.226V20.2127Z" fill="#703D29" stroke="#703D29" stroke-width="0.0266667"/>
<path d="M24.5854 39.2035C24.6521 39.1368 24.7054 39.1635 24.7188 39.1235C24.7188 39.0968 24.7188 39.0968 24.6788 39.0835L24.5588 39.0568L24.4521 39.0035C24.4388 39.0035 24.3988 38.9768 24.3854 39.0035C24.3721 39.0568 24.5188 39.0568 24.4654 39.1901C24.4407 39.2499 24.4045 39.3043 24.3588 39.3501L24.0121 39.7501L23.9854 39.7635V39.1901L23.9988 38.9501C24.0254 38.8968 24.1054 38.9501 24.1188 38.8968C24.1188 38.8835 24.1188 38.8701 24.0788 38.8568C24.0521 38.8568 24.0121 38.8568 23.9321 38.8168L23.7988 38.7501C23.7721 38.7501 23.7321 38.7235 23.7188 38.7501L23.7321 38.7901C23.7854 38.8168 23.7988 38.8435 23.7988 38.9235V39.9101C23.7988 39.9768 23.8121 39.9901 23.8254 40.0035C23.8388 40.0035 23.8521 40.0035 23.8788 39.9635L24.5854 39.2035Z" fill="#703D29"/>
<path d="M24.9998 39.3608C25.0398 39.2142 25.1331 39.3075 25.1331 39.2542C25.1465 39.2275 25.1331 39.2275 25.1065 39.2142L24.9331 39.1608C24.8798 39.1608 24.8265 39.1208 24.7731 39.1075C24.7731 39.1075 24.7331 39.0942 24.7198 39.1075C24.7065 39.1742 24.8665 39.1742 24.8265 39.3075L24.5998 40.0408C24.5598 40.1742 24.4665 40.1208 24.4531 40.1742V40.1875L24.6131 40.2408L24.8265 40.3075H24.8665C24.8931 40.2542 24.7065 40.2675 24.7731 40.0808L24.9998 39.3608ZM25.4931 39.4942C25.5198 39.4142 25.5598 39.4275 25.6131 39.4408C25.7465 39.4808 25.7998 39.6142 25.7465 39.7742C25.7198 39.8542 25.6931 39.9342 25.4798 39.8808C25.4398 39.8675 25.3865 39.8542 25.3998 39.8142L25.4931 39.5075V39.4942ZM25.1198 40.1608C25.0531 40.3475 24.9598 40.2675 24.9465 40.3208C24.9465 40.3475 24.9731 40.3475 24.9865 40.3608L25.1998 40.4142L25.3065 40.4542H25.3598C25.3731 40.3875 25.2265 40.4142 25.2665 40.2542L25.3465 39.9875C25.3598 39.9342 25.3598 39.9208 25.4265 39.9475C25.5065 39.9608 25.5198 39.9875 25.5331 40.0542L25.5731 40.3208C25.5998 40.4408 25.6131 40.5475 25.7065 40.5875C25.7731 40.5875 25.8665 40.5875 25.8931 40.5342L25.8665 40.5075H25.8265C25.8265 40.5075 25.7865 40.5075 25.7865 40.4675L25.6931 39.9875C25.6931 39.9608 25.7465 39.9608 25.7998 39.9475C25.833 39.9297 25.8621 39.905 25.885 39.8751C25.908 39.8452 25.9244 39.8108 25.9331 39.7742C25.9465 39.7075 25.9865 39.4808 25.6931 39.3875L25.4131 39.3208L25.2531 39.2675H25.2131C25.1998 39.3342 25.3598 39.3208 25.3065 39.4942L25.1198 40.1608ZM26.2398 40.4942C26.1865 40.6808 26.0531 40.5608 26.0398 40.6275C26.0398 40.6542 26.0531 40.6675 26.0798 40.6675L26.2798 40.7075L26.4665 40.7608C26.5065 40.7608 26.5331 40.7875 26.5465 40.7475C26.5465 40.7075 26.3731 40.7075 26.4131 40.5075L26.5865 39.8142C26.5865 39.7342 26.6131 39.7342 26.6665 39.7475L26.7998 39.7742C26.9465 39.8142 26.8665 39.9742 26.9331 39.9875C26.9598 39.9875 26.9598 39.9342 26.9598 39.9075L26.9731 39.7742V39.7208L26.5331 39.6275L26.1065 39.5208C26.0931 39.5208 26.0798 39.5208 26.0798 39.5475L26.0131 39.7475C25.9998 39.7608 25.9865 39.8008 26.0131 39.8008C26.0798 39.8142 26.0798 39.6008 26.2398 39.6408L26.3598 39.6675C26.4131 39.6808 26.4265 39.6942 26.4131 39.7742L26.2398 40.4942ZM27.9331 40.0542C27.9865 39.9742 28.0398 39.9875 28.0531 39.9608C28.0531 39.9342 28.0265 39.9342 27.9998 39.9208H27.8798L27.7598 39.8808C27.7465 39.8808 27.7065 39.8675 27.7065 39.8942C27.6931 39.9475 27.8398 39.9208 27.8131 40.0675C27.8131 40.0942 27.7998 40.1475 27.7331 40.2408L27.4665 40.6808L27.4265 40.7075V40.6808L27.3331 40.1475C27.3153 40.0688 27.3108 39.9877 27.3198 39.9075C27.3198 39.8408 27.4131 39.8808 27.4131 39.8408C27.4131 39.8142 27.4131 39.8142 27.3598 39.8008L27.2131 39.7875C27.1598 39.7875 27.1198 39.7608 27.0798 39.7475C27.0531 39.7475 27.0131 39.7342 26.9998 39.7608L27.0131 39.7875C27.0798 39.8142 27.0931 39.8408 27.1065 39.9075L27.2798 40.8808C27.2931 40.9475 27.3065 40.9742 27.3198 40.9742C27.3331 40.9742 27.3465 40.9742 27.3731 40.9342L27.9331 40.0542ZM28.0131 40.9608C28.0131 41.0008 28.0131 41.0008 28.0398 41.0275C28.1198 41.0542 28.1731 41.1075 28.2665 41.1208C28.4531 41.1475 28.6131 41.0275 28.6398 40.8275C28.6798 40.6275 28.5998 40.5475 28.4531 40.4408C28.2798 40.3208 28.2131 40.2942 28.2265 40.1742C28.2398 40.0808 28.3198 40.0408 28.4131 40.0408C28.6531 40.0808 28.6265 40.3875 28.6531 40.3875C28.6931 40.3875 28.6931 40.3742 28.6931 40.3342L28.7198 40.1208V40.0675H28.6398C28.5865 40.0675 28.5465 40.0008 28.4265 39.9742C28.2665 39.9475 28.1198 40.0675 28.0931 40.2408C28.0665 40.4008 28.1465 40.4808 28.2531 40.5608C28.4665 40.7075 28.5465 40.7475 28.5198 40.8808C28.5065 41.0142 28.3998 41.0675 28.2931 41.0542C28.1331 41.0275 28.0798 40.8675 28.0531 40.7075C28.0531 40.6808 28.0531 40.6675 28.0265 40.6675C27.9998 40.6675 27.9998 40.7075 27.9998 40.7342V40.9608H28.0131ZM30.1198 40.3608C30.1598 40.2675 30.2265 40.2808 30.2265 40.2408C30.2265 40.2142 30.2131 40.2275 30.1731 40.2142H30.0531L29.9331 40.2008C29.9198 40.2008 29.8798 40.2008 29.8798 40.2275C29.8798 40.2808 30.0131 40.2275 30.0131 40.3742C30.0131 40.4008 29.9998 40.4542 29.9465 40.5608L29.7065 41.0275L29.6931 41.0675L29.6798 41.0275L29.5331 40.4942C29.5091 40.4255 29.4956 40.3535 29.4931 40.2808C29.4931 40.2142 29.5865 40.2408 29.5865 40.2008C29.5865 40.1742 29.5865 40.1742 29.5331 40.1742H29.3731L29.2398 40.1475C29.2131 40.1475 29.1731 40.1342 29.1598 40.1608L29.1865 40.1875C29.2398 40.2142 29.2665 40.2275 29.2798 40.2942L29.5598 41.2408L29.6131 41.3342C29.6265 41.3342 29.6398 41.3342 29.6531 41.2808L30.1198 40.3608Z" fill="#703D29"/>
<path d="M30.3436 41.1352C30.3436 41.2952 30.2103 41.2686 30.2103 41.3352C30.2103 41.3619 30.2236 41.3486 30.2503 41.3486H30.5436L30.5969 41.3352C30.5969 41.2552 30.4103 41.3619 30.4103 41.0686V40.5086L30.4236 40.4952L30.4503 40.5086L31.1303 41.3486L31.1703 41.3619L31.1969 41.3219V40.4286C31.1969 40.2552 31.3303 40.2952 31.3303 40.2552C31.3303 40.2552 31.3303 40.2286 31.2903 40.2286H30.9836C30.9569 40.2286 30.9569 40.2419 30.9569 40.2552C30.9569 40.3086 31.1303 40.2819 31.1303 40.4286V40.9619L31.1169 41.0152L31.0636 40.9752L30.5036 40.2686C30.4769 40.2286 30.4903 40.2286 30.4503 40.2286H30.2103L30.1836 40.2419C30.1836 40.3219 30.3436 40.2152 30.3436 40.5219V41.1352ZM31.7303 40.4019C31.7303 40.2552 31.8369 40.3086 31.8369 40.2552C31.8369 40.2419 31.8369 40.2286 31.7836 40.2286H31.4369C31.4369 40.2286 31.3969 40.2286 31.3969 40.2552C31.3969 40.3086 31.5436 40.2552 31.5436 40.4152V41.1752C31.5436 41.3219 31.4369 41.2819 31.4369 41.3352C31.4369 41.3352 31.4369 41.3619 31.4636 41.3619H31.8369C31.8636 41.3619 31.8769 41.3619 31.8769 41.3352C31.8769 41.2819 31.7169 41.3619 31.7169 41.1619L31.7303 40.4019ZM32.3303 41.1352C32.3303 41.3352 32.1703 41.2686 32.1703 41.3219C32.1703 41.3486 32.1969 41.3486 32.2236 41.3486H32.6236C32.6636 41.3486 32.6903 41.3486 32.6903 41.3086C32.6903 41.2686 32.5036 41.3086 32.5036 41.1219V40.4019C32.5036 40.3219 32.5036 40.3219 32.5703 40.3219H32.7036C32.8636 40.3086 32.8103 40.4819 32.8769 40.4819C32.9036 40.4819 32.8903 40.4286 32.8903 40.4019L32.8769 40.2686C32.8769 40.2419 32.8769 40.2152 32.8503 40.2152L32.4103 40.2286H31.9703L31.9436 40.2686L31.9303 40.4819L31.9436 40.5352C32.0103 40.5352 31.9703 40.3219 32.1303 40.3219H32.2503C32.3036 40.3219 32.3169 40.3219 32.3303 40.4019V41.1486V41.1352ZM33.1703 40.8419H33.1169L33.1303 40.7752L33.2236 40.4819V40.4552L33.2503 40.4686L33.3836 40.7486L33.4103 40.8019C33.4103 40.8286 33.3836 40.8286 33.3569 40.8286L33.1703 40.8419ZM33.4103 40.9086C33.4503 40.9086 33.4503 40.9086 33.5169 41.0419L33.5436 41.1486C33.5436 41.2419 33.4503 41.2286 33.4503 41.2819C33.4503 41.2952 33.4769 41.2952 33.5036 41.2819H33.6636L33.8369 41.2686C33.8769 41.2686 33.8903 41.2686 33.8903 41.2419C33.8903 41.1886 33.8103 41.2419 33.7569 41.1486L33.3036 40.2152L33.2636 40.1619C33.2369 40.1619 33.2369 40.1886 33.2236 40.2152L32.9303 41.2019C32.9036 41.2952 32.8236 41.2952 32.8369 41.3352H33.1436C33.1703 41.3219 33.2103 41.3352 33.2103 41.2952C33.2103 41.2552 33.0503 41.2952 33.0369 41.1752L33.0636 41.0419C33.0903 40.9352 33.1169 40.9352 33.1436 40.9352L33.4236 40.9086H33.4103ZM34.5169 40.2419C34.5036 40.1352 34.5169 40.1352 34.6769 40.1086C34.9436 40.0819 34.8636 40.2819 34.9436 40.2686C34.9703 40.2686 34.9436 40.2152 34.9436 40.1886L34.9303 40.0419C34.9303 40.0286 34.9169 40.0152 34.8903 40.0152C34.7569 40.0152 34.6636 40.0419 34.5703 40.0552L34.1969 40.1086C34.1703 40.1086 34.1569 40.1086 34.1569 40.1352C34.1703 40.2019 34.3303 40.1352 34.3436 40.2686L34.4369 41.0019C34.4636 41.2019 34.3436 41.1352 34.3569 41.2019C34.3569 41.2019 34.3569 41.2152 34.3836 41.2019L34.5703 41.1886L34.7303 41.1752C34.7703 41.1752 34.7969 41.1752 34.7969 41.1352C34.7969 41.0952 34.6369 41.1486 34.6103 40.9752L34.5836 40.7486C34.5703 40.6552 34.5703 40.6286 34.6236 40.6152H34.7303C34.8769 40.5886 34.8636 40.7619 34.9036 40.7486C34.9436 40.7486 34.9303 40.6952 34.9169 40.6819L34.8769 40.4019C34.8769 40.3619 34.8503 40.3619 34.8503 40.3619C34.8103 40.3619 34.8369 40.5086 34.7169 40.5219L34.6236 40.5352C34.5569 40.5486 34.5569 40.5352 34.5436 40.4686L34.5169 40.2419ZM35.0503 40.6152C35.1036 40.9219 35.3303 41.1086 35.6103 41.0552C36.0636 40.9619 36.0769 40.5752 36.0369 40.3486C35.9703 40.0152 35.7303 39.8552 35.4503 39.9086C35.1169 39.9752 34.9836 40.2686 35.0503 40.6152ZM35.1969 40.4819C35.1569 40.2686 35.1969 40.0286 35.4236 39.9886C35.6103 39.9486 35.8236 40.0952 35.8769 40.4419C35.9169 40.7086 35.8769 40.9219 35.6369 40.9752C35.3836 41.0286 35.2369 40.7086 35.1969 40.4952V40.4819ZM36.3036 39.9352C36.2903 39.8419 36.3303 39.8286 36.3836 39.8152C36.5169 39.7886 36.6236 39.8819 36.6636 40.0286C36.6903 40.1219 36.7036 40.2152 36.4903 40.2686C36.4503 40.2686 36.3969 40.2819 36.3836 40.2419L36.3169 39.9352H36.3036ZM36.3036 40.6952C36.3569 40.8819 36.2369 40.8686 36.2369 40.9086C36.2503 40.9486 36.2769 40.9352 36.2903 40.9219C36.3703 40.9219 36.4236 40.8819 36.5036 40.8686L36.6369 40.8419C36.6636 40.8419 36.6636 40.8286 36.6636 40.8152C36.6636 40.7619 36.5303 40.8552 36.4903 40.6819L36.4236 40.4152C36.4236 40.3619 36.3969 40.3619 36.4769 40.3486C36.5436 40.3219 36.5703 40.3352 36.6236 40.3886L36.7969 40.6019C36.8636 40.6819 36.9303 40.7752 37.0369 40.7486C37.1036 40.7352 37.1703 40.6819 37.1703 40.6286L37.1436 40.6152L37.1036 40.6286C37.1036 40.6286 37.0636 40.6419 37.0503 40.6286L36.7303 40.2419L36.7969 40.1619C36.8236 40.1086 36.8503 40.0419 36.8236 39.9486C36.8103 39.8819 36.7303 39.6686 36.4236 39.7352L36.1436 39.8152L35.9836 39.8419C35.9569 39.8419 35.9436 39.8552 35.9569 39.8686C35.9569 39.9352 36.1036 39.8419 36.1436 40.0019L36.3036 40.6952ZM37.4636 40.4286C37.5036 40.6152 37.3303 40.5886 37.3436 40.6419C37.3436 40.6819 37.3836 40.6686 37.4103 40.6686L37.5969 40.6019L37.7969 40.5619C37.8369 40.5619 37.8636 40.5619 37.8503 40.5086C37.8503 40.4686 37.6769 40.5619 37.6236 40.3752L37.4503 39.6686C37.4236 39.6019 37.4503 39.5886 37.4903 39.5752L37.6236 39.5486C37.7703 39.4952 37.7703 39.6819 37.8236 39.6686C37.8636 39.6686 37.8236 39.6019 37.8236 39.5752L37.7703 39.4419C37.7703 39.4419 37.7703 39.4019 37.7436 39.4152L37.3169 39.5352L36.8903 39.6286V39.6686L36.9036 39.8819C36.9036 39.9086 36.9036 39.9352 36.9436 39.9352C37.0103 39.9219 36.9036 39.7219 37.0769 39.6819L37.1836 39.6552C37.2369 39.6419 37.2636 39.6552 37.2769 39.7219L37.4636 40.4286ZM38.1969 39.4552C38.1569 39.3219 38.2769 39.3352 38.2503 39.2819H38.2103L38.0236 39.3352L37.8636 39.3752C37.8636 39.3752 37.8236 39.3752 37.8236 39.4019C37.8369 39.4552 37.9836 39.3752 38.0236 39.5086L38.2369 40.2552C38.2636 40.3886 38.1569 40.3886 38.1703 40.4286C38.1703 40.4419 38.1703 40.4552 38.1969 40.4419L38.3436 40.4019L38.5569 40.3486C38.5969 40.3486 38.5969 40.3352 38.5969 40.3086C38.5836 40.2686 38.4503 40.3752 38.3969 40.1886L38.1969 39.4552ZM38.5036 39.8152C38.5969 40.1219 38.8503 40.2686 39.1303 40.1752C39.5569 40.0286 39.5303 39.6286 39.4503 39.4152C39.3436 39.0952 39.0769 38.9752 38.8103 39.0552C38.4903 39.1752 38.3836 39.4819 38.5036 39.8152ZM38.6369 39.6819C38.5569 39.4552 38.5569 39.2152 38.7836 39.1486C38.9569 39.0819 39.1836 39.2019 39.3036 39.5352C39.3836 39.7752 39.3703 40.0152 39.1436 40.0952C38.9036 40.1752 38.7169 39.8952 38.6369 39.6686V39.6819ZM39.6503 38.9486C39.6236 38.8552 39.6503 38.8419 39.7036 38.8152C39.8369 38.7752 39.9703 38.8552 40.0236 39.0019C40.0503 39.0819 40.0769 39.1752 39.8769 39.2552C39.8369 39.2552 39.7836 39.2819 39.7703 39.2552L39.6503 38.9486ZM39.7569 39.6952C39.8369 39.8819 39.7036 39.8819 39.7303 39.9219C39.7303 39.9619 39.7569 39.9352 39.7836 39.9352L39.9836 39.8419L40.1036 39.8152C40.1303 39.8019 40.1303 39.7886 40.1303 39.7752C40.1036 39.7219 39.9969 39.8286 39.9436 39.6686L39.8369 39.4152C39.8103 39.3619 39.8103 39.3486 39.8769 39.3219C39.9436 39.2952 39.9703 39.3086 40.0236 39.3619L40.2369 39.5486C40.3036 39.6152 40.3836 39.6952 40.5036 39.6552C40.5436 39.6286 40.6236 39.5619 40.5969 39.5219L40.5703 39.5086L40.5436 39.5352H40.4769L40.1036 39.2019L40.1569 39.1086C40.1716 39.0749 40.1792 39.0386 40.1792 39.0019C40.1792 38.9652 40.1716 38.9289 40.1569 38.8952C40.1436 38.8152 40.0236 38.6286 39.7436 38.7352L39.4769 38.8552L39.3169 38.9086L39.2903 38.9352C39.3169 38.9886 39.4369 38.8819 39.5036 39.0419L39.7703 39.7086L39.7569 39.6952Z" fill="#703D29"/>
<path d="M24.5508 23.4062H31.5566V30.4036H24.5508V23.4062Z" fill="#D52B1E"/>
<path d="M27.8375 28.9111C27.8375 28.9111 27.8375 29.1671 27.7692 29.3633C27.6839 29.5937 27.6839 29.5937 27.6071 29.7047C27.5242 29.84 27.4137 29.9563 27.2828 30.046C27.1121 30.1484 26.9415 30.1996 26.7708 30.1825C26.31 30.1484 26.0881 29.6364 25.9857 29.2268C25.8748 28.7916 25.5591 28.5441 25.3457 28.7148C25.2263 28.8001 25.2263 28.9537 25.3201 29.1073C25.412 29.2182 25.5333 29.301 25.67 29.3463L25.4225 29.662C25.4225 29.662 24.8849 29.5937 24.7825 29.0305C24.7399 28.8172 24.8423 28.4247 25.2007 28.3052C25.6529 28.1516 25.9345 28.4759 26.0796 28.7489C26.2673 29.1244 26.3527 29.8071 26.8817 29.7047C27.1719 29.6449 27.3084 29.2268 27.3084 29.0305L27.5132 28.8087L27.8289 28.9111H27.8375Z" fill="white"/>
<path d="M28.2719 28.9111C28.2719 28.9111 28.2719 29.1671 28.3402 29.3633C28.4255 29.5937 28.4255 29.5937 28.5023 29.7047C28.5852 29.84 28.6957 29.9563 28.8266 30.046C28.9973 30.1484 29.1679 30.1996 29.3386 30.1825C29.7994 30.1484 30.0213 29.6364 30.1237 29.2268C30.2346 28.7916 30.5503 28.5441 30.7637 28.7148C30.8831 28.8001 30.8831 28.9537 30.7893 29.1073C30.6973 29.2182 30.5761 29.301 30.4394 29.3463L30.6869 29.662C30.6869 29.662 31.2245 29.5937 31.3269 29.0305C31.3695 28.8172 31.2671 28.4247 30.9087 28.3052C30.4565 28.1516 30.1749 28.4759 30.0298 28.7489C29.8421 29.1244 29.7567 29.8071 29.2277 29.7047C28.9375 29.6449 28.801 29.2268 28.801 29.0305L28.5962 28.8087L28.2805 28.9111H28.2719Z" fill="white"/>
<path d="M28.6825 25.9405L29.6041 24.9421C29.6041 24.9421 29.7406 24.8312 29.7406 24.652L29.5529 24.6861L29.5102 24.5837L29.5017 24.4898L29.7577 24.4301V24.3192L29.7833 24.2082L29.5102 24.2253L29.5358 24.1058L29.5785 24.0205L29.7406 23.9864H29.9028C30.0564 23.6962 30.6878 23.4402 31.1316 23.901C31.4558 24.2424 31.3876 24.8568 30.9609 25.0274C30.8655 25.0698 30.7598 25.0835 30.6568 25.0668C30.5538 25.0502 30.4578 25.0039 30.3806 24.9336L30.5513 24.5922C30.7817 24.7373 30.978 24.5666 30.9609 24.3874C30.9438 24.157 30.7902 24.0205 30.594 24.0034C30.3977 23.9864 30.2526 24.0888 30.1673 24.2594C30.1161 24.3704 30.1417 24.4472 30.1246 24.5666C30.1076 24.6946 30.1246 24.7629 30.082 24.8909C30.0403 25.0088 29.9699 25.1143 29.8772 25.1981L28.9385 26.2221L25.2692 30.1816L24.9961 29.9256L28.6825 25.9405Z" fill="#FEDF00"/>
<path d="M25.9844 26.2821C25.9844 26.2821 26.2148 27.4255 26.9998 29.1407C27.4009 28.9957 27.6313 28.9018 28.058 28.9018C28.4761 28.9018 28.7065 28.9871 29.1076 29.1407C29.5445 28.2257 29.8848 27.2676 30.123 26.2821L28.058 23.6367L25.9844 26.2821Z" fill="white"/>
<path d="M28.2526 24.5234L29.6862 26.3752C29.6862 26.3752 29.4985 27.2712 28.9182 28.6194C28.6878 28.5682 28.4916 28.5256 28.2526 28.5085V24.5234ZM27.8516 24.5234L26.418 26.3752C26.418 26.3752 26.6057 27.2712 27.186 28.6194C27.4164 28.5682 27.6126 28.5256 27.8516 28.5085V24.5234Z" fill="#FEDF00"/>
<path d="M32.3047 23.3984H39.318V30.3984H32.3047V23.3984Z" fill="#FEDF00"/>
<path d="M33.293 23.3984H34.333V30.3984H33.293V23.3984ZM35.293 23.3984H36.333V30.3984H35.293V23.3984ZM37.293 23.3984H38.3463V30.3984H37.293V23.3984Z" fill="#D52B1E"/>
<path d="M24.5735 36.4668C24.5869 36.6002 24.6402 36.8135 24.7602 37.0402C24.8935 37.2402 24.8402 37.2268 25.1202 37.5468C25.2759 37.7038 25.456 37.8343 25.6535 37.9335C26.2836 38.2048 26.9689 38.3236 27.6535 38.2802C28.0135 38.2668 28.2935 38.2268 28.5335 38.1868C29.0196 38.1222 29.51 38.0955 30.0002 38.1068C30.2002 38.1068 30.4002 38.1468 30.6269 38.1868C31.0935 38.2802 31.5602 38.4535 31.5602 38.4535V31.1602H24.5469V36.1335L24.5735 36.4535V36.4668Z" fill="#FEDF00"/>
<path d="M25.3867 37.7484L25.7201 37.9484L26.1734 38.1084V31.1484H25.3867V37.7484ZM29.2801 38.0684V31.1484H28.5067V38.1884L29.2801 38.0951V38.0684ZM30.8401 31.1484H30.0667V38.0951C30.3201 38.1218 30.5734 38.1751 30.8401 38.2284V31.1484ZM27.7201 31.1484V38.2684C27.7201 38.2684 27.2134 38.2951 26.9467 38.2684V31.1484H27.7201Z" fill="#D52B1E" stroke="#D52B1E" stroke-width="0.04"/>
<path d="M39.2935 36.4732C39.263 36.6702 39.1995 36.8606 39.1058 37.0364C38.9778 37.2327 39.0204 37.2327 38.7388 37.5484C38.4337 37.8494 38.0487 38.0567 37.6295 38.1458C37.1678 38.2675 36.6894 38.3136 36.213 38.2823C35.846 38.2652 35.573 38.2226 35.334 38.197C35.0098 38.1458 34.7623 38.1202 34.3954 38.1116C34.2191 38.1029 34.0425 38.1029 33.8663 38.1116C33.3339 38.1719 32.8101 38.2921 32.3047 38.47V31.1484H39.3191V36.1404L39.2935 36.4732Z" fill="#FEDF00"/>
<path d="M34.0967 31.7475L34.0455 31.7646L33.9773 31.8329C33.9431 31.867 33.9175 31.8755 33.8749 31.9011L33.8237 31.9438C33.7981 31.9694 33.8237 31.995 33.7981 32.0291C33.7895 32.0633 33.7725 32.0803 33.7469 32.1145C33.7127 32.1486 33.6871 32.1571 33.6615 32.1998L33.5591 32.2851L33.5335 32.2937H33.4823C33.4482 32.3107 33.4397 32.3449 33.4141 32.3619L33.4397 32.4131L33.5079 32.5326C33.525 32.5582 33.525 32.5923 33.5506 32.6009C33.5933 32.6179 33.6274 32.6179 33.6615 32.6094C33.7298 32.6265 33.7725 32.6265 33.8322 32.6521L33.9602 32.7203C34.0029 32.7459 34.0285 32.7545 34.0711 32.763H34.2247V32.7886L34.3954 32.8739C34.3912 32.8849 34.3883 32.8964 34.3869 32.9081C34.3783 32.9337 34.3698 32.9678 34.3783 32.9763C34.4295 33.1385 34.4807 33.2323 34.5063 33.2494C34.5575 33.2665 34.5746 33.3262 34.6002 33.3774L34.5746 33.403C34.5234 33.4542 34.4722 33.4883 34.4295 33.5566C34.3698 33.659 34.3271 33.659 34.4039 33.7955L34.5319 34.0003C34.5661 34.0601 34.5831 34.1027 34.6002 34.171C34.6173 34.2307 34.6258 34.2734 34.6258 34.3417L34.7111 34.3673L34.7709 34.3161L34.8221 34.2137V34.1283C34.805 34.1198 34.7965 34.0942 34.805 34.0686C34.805 34.0345 34.8477 34.043 34.8647 34.0174C34.8903 33.9747 34.8306 33.9491 34.805 33.9235C34.7538 33.8638 34.6855 33.8467 34.6685 33.7614C34.6685 33.7443 34.6685 33.7273 34.7026 33.7017L34.8733 33.5481C34.8903 33.5566 34.9245 33.5651 34.9586 33.5566L35.0695 33.5907C35.1207 33.6078 35.1463 33.5907 35.1719 33.5907H35.2061L35.2146 33.6419C35.2231 33.7273 35.2061 33.8979 35.2317 33.9406L35.2573 33.9918L35.2743 34.043V34.2137L35.2573 34.3587C35.2573 34.3929 35.2402 34.4185 35.2146 34.4441C35.1975 34.4782 35.1634 34.4782 35.1293 34.5038V34.5891L35.2231 34.6318L35.3341 34.6574L35.3938 34.6318L35.4023 34.5806L35.445 34.5379C35.4791 34.5209 35.5133 34.5379 35.5218 34.5294C35.5389 34.5038 35.5218 34.4953 35.5218 34.4611C35.5218 34.4099 35.5047 34.3758 35.4962 34.3246C35.4839 34.2456 35.481 34.1654 35.4877 34.0857C35.4877 34.0345 35.4877 34.0003 35.5047 33.9577C35.5133 33.8723 35.5389 33.8382 35.5559 33.7699C35.5815 33.6846 35.5815 33.6334 35.5901 33.5566C35.8778 33.5999 36.1714 33.5825 36.4519 33.5054C36.5202 33.5651 36.597 33.6078 36.6823 33.6419V33.7273C36.6823 33.7529 36.6823 33.7614 36.6994 33.787L36.725 33.8126C36.7506 33.8126 36.7677 33.8126 36.7847 33.7955C36.8018 33.7785 36.8018 33.7614 36.8018 33.7358V33.6761H36.9554V33.7699C36.9639 33.7955 36.981 33.8041 36.9981 33.8041C37.0061 33.8079 37.0148 33.8098 37.0237 33.8098C37.0325 33.8098 37.0413 33.8079 37.0493 33.8041C37.0749 33.787 37.0663 33.7529 37.0749 33.7187V33.659L37.1602 33.6249C37.1625 33.6504 37.1625 33.6761 37.1602 33.7017L37.1346 33.7785C37.1175 33.8297 37.0919 33.8467 37.0663 33.8979C37.0322 33.9491 37.0237 33.9833 36.981 34.0259L36.9298 34.0857L36.8786 34.1625L36.8018 34.2478C36.7421 34.299 36.6994 34.2649 36.6311 34.3246L36.6055 34.4099L36.725 34.4611L36.8359 34.4782L36.8701 34.4611C36.8701 34.4355 36.8701 34.4099 36.8957 34.3929C36.9127 34.3673 36.9298 34.3673 36.9554 34.3587C36.9895 34.3587 37.0237 34.3587 37.0407 34.3417C37.0749 34.3161 37.0749 34.2563 37.1005 34.2137C37.1633 34.0871 37.2503 33.9741 37.3565 33.8809L37.5015 33.7614C37.5186 33.7273 37.5442 33.7187 37.5442 33.6761L37.5271 33.6249L37.5101 33.5395C37.6381 33.5993 37.5954 33.5993 37.6125 33.659C37.6381 33.7102 37.6125 33.7443 37.621 33.8041C37.6295 33.8723 37.6637 33.8979 37.6637 33.9662C37.6722 34.043 37.6551 34.0857 37.6381 34.1625C37.6295 34.2307 37.6295 34.2734 37.5954 34.3331C37.5752 34.3829 37.5429 34.4269 37.5015 34.4611L37.4503 34.5038L37.4418 34.5891L37.5357 34.6233L37.6722 34.6574L37.7063 34.6318C37.7234 34.5721 37.7063 34.4867 37.7405 34.4867C37.7746 34.4782 37.8002 34.4867 37.8087 34.4611V34.4014L37.8685 34.0174L37.9026 33.8553L37.9367 33.7102C37.9965 33.5395 37.9197 33.5139 37.8514 33.403C37.8087 33.3433 37.7917 33.3177 37.7917 33.275V33.0275C37.7891 32.9479 37.7891 32.8682 37.7917 32.7886L37.8258 32.7715C37.9282 32.7118 37.9709 32.6947 38.0306 32.5582C38.0487 32.518 38.0575 32.4743 38.0562 32.4302V32.3449L38.0221 32.2595C38.0087 32.2342 37.9914 32.2112 37.9709 32.1913C37.9111 32.1059 37.8258 32.0974 37.7405 32.0633C37.6125 32.0206 37.5271 32.0291 37.3991 32.0206C37.2455 32.0035 37.1687 32.0035 37.0237 32.0206C36.853 32.0206 36.7591 32.0547 36.5885 32.0803L36.1703 32.1145C35.9741 32.1145 35.7949 32.0718 35.6754 32.0803C35.4706 32.0974 35.4621 32.1486 35.1463 32.1742C35.0384 32.183 34.9303 32.1887 34.8221 32.1913L34.6343 32.1315C34.7111 32.1059 34.7282 32.0889 34.7623 32.0462C34.7879 32.0121 34.7794 31.9865 34.8135 31.9523L34.8733 31.867C34.8506 31.85 34.8243 31.8383 34.7965 31.8329H34.7111C34.6756 31.8342 34.6407 31.8429 34.6087 31.8585L34.5405 31.9097L34.3527 31.8073C34.2727 31.7666 34.186 31.7406 34.0967 31.7305V31.7475Z" fill="#D52B1E"/>
<path d="M37.8668 32.8149L37.7986 32.8405C37.7218 32.8747 37.662 32.8747 37.5767 32.8832C37.3548 32.9003 37.2098 32.7893 36.9794 32.8064C36.8599 32.8149 36.8087 32.9088 36.6807 32.9429C36.633 32.9531 36.5844 32.9588 36.5356 32.96L36.5783 32.8747C36.5783 32.8747 36.4759 32.9003 36.4076 32.9003C36.3616 32.8995 36.3159 32.8938 36.2711 32.8832L36.3564 32.7979L36.2455 32.7808C36.2142 32.7654 36.1854 32.7452 36.1602 32.7211C36.2088 32.7146 36.2572 32.706 36.3052 32.6955C36.4332 32.6613 36.4759 32.5931 36.638 32.576C36.7319 32.576 36.894 32.576 37.2866 32.6443C37.5426 32.6869 37.662 32.6613 37.7559 32.6187C37.8242 32.5931 37.8412 32.5333 37.8498 32.4651C37.8583 32.3968 37.8156 32.3456 37.7815 32.3115C37.773 32.3115 37.7388 32.2859 37.6876 32.2773" stroke="#FEDF00" stroke-width="0.0853333" stroke-linecap="round"/>
<path d="M34.1142 32.0547C34.0716 32.0547 34.0374 32.0547 34.0033 32.0803C33.9606 32.1059 33.9521 32.14 33.918 32.1742C33.9606 32.1827 33.9862 32.2083 34.0204 32.1998C34.0545 32.1998 34.063 32.1827 34.0886 32.1571C34.1142 32.123 34.1228 32.0974 34.1228 32.0547H34.1142Z" fill="#FCD900" stroke="#FEDF00" stroke-width="0.0426667"/>
<path d="M35.0701 33.1798C35.0924 33.2477 35.121 33.3134 35.1554 33.3761C35.1725 33.4443 35.1554 33.4785 35.1725 33.5467V33.6833M35.7527 33.0859L35.7271 33.1969L35.6418 33.4955V33.5553M34.7031 33.2139C34.7799 33.231 34.7543 33.4955 34.8653 33.5553" stroke="#FEDF00" stroke-width="0.0853333" stroke-linecap="round"/>
<path d="M37.125 33.6948L37.1591 33.6692C37.2454 33.6339 37.3237 33.5817 37.3895 33.5156" stroke="#FEDF00" stroke-width="0.0853333"/>
<path d="M36.4688 33.5407C36.7674 33.4639 36.9722 33.3188 37.1173 33.2932M36.7759 33.1652H36.8442C36.9722 33.1396 36.9893 33.2164 37.0746 33.2676C37.2367 33.353 37.2538 33.4639 37.4415 33.5578L37.4757 33.5663L37.5439 33.6004" stroke="#FEDF00" stroke-width="0.0853333" stroke-linecap="round"/>
<path d="M33.5078 32.3882H33.5675L33.6358 32.3711C33.6614 32.3711 33.6785 32.3711 33.6955 32.3882C33.7126 32.3882 33.7126 32.3967 33.7211 32.4138C33.7211 32.4308 33.7382 32.4394 33.7297 32.4564C33.7297 32.4735 33.7041 32.4906 33.6785 32.4906C33.6614 32.4906 33.6443 32.4906 33.6358 32.465C33.6335 32.4596 33.6322 32.4538 33.6322 32.4479C33.6322 32.442 33.6335 32.4362 33.6358 32.4308C33.6239 32.4368 33.6107 32.44 33.5974 32.44C33.5841 32.44 33.5709 32.4368 33.559 32.4308C33.5481 32.4275 33.5379 32.422 33.5291 32.4147C33.5203 32.4074 33.513 32.3983 33.5078 32.3882Z" fill="#FCD900" stroke="#FEDF00" stroke-width="0.0426667"/>
<path d="M34.1378 33.215L33.9672 33.1382C34.0013 33.1211 34.0269 33.1211 34.0525 33.0955C34.0781 33.0614 34.0781 33.0273 34.0952 32.9846C34.1122 32.9419 34.1122 32.8993 34.1549 32.8651C34.1805 32.8481 34.2232 32.8481 34.2488 32.8566C34.2829 32.8566 34.317 32.8907 34.3256 32.9163C34.3256 32.9675 34.3085 33.0017 34.3 33.0443C34.3 33.0955 34.2744 33.1211 34.2829 33.1638C34.2829 33.1979 34.3 33.215 34.317 33.2491L34.1464 33.215H34.1378ZM34.0525 33.3003C34.051 33.2904 34.0524 33.2802 34.0567 33.2711C34.0609 33.262 34.0677 33.2543 34.0763 33.249C34.0849 33.2437 34.0948 33.2411 34.1049 33.2415C34.115 33.2418 34.1247 33.2451 34.1329 33.251C34.1411 33.2568 34.1473 33.265 34.1509 33.2744C34.1545 33.2838 34.1553 33.294 34.1531 33.3038C34.1509 33.3137 34.1458 33.3226 34.1386 33.3296C34.1313 33.3365 34.1221 33.3412 34.1122 33.343C34.1048 33.3443 34.0972 33.3439 34.09 33.3419C34.0828 33.3399 34.0761 33.3363 34.0704 33.3314C34.0647 33.3265 34.0601 33.3204 34.057 33.3136C34.0539 33.3068 34.0524 33.2993 34.0525 33.2918V33.3003ZM33.9074 31.8838H33.8904C33.8562 31.8497 33.8562 31.8155 33.8392 31.7814C33.8254 31.7488 33.8167 31.7143 33.8136 31.679V31.5083C33.8136 31.4827 33.8136 31.4571 33.7965 31.4315C33.7965 31.4145 33.7624 31.4059 33.7709 31.3974C33.7709 31.3889 33.7965 31.3974 33.805 31.3974C33.8392 31.3974 33.8562 31.4059 33.8904 31.4315C33.916 31.4571 33.933 31.4827 33.9416 31.5169L33.9757 31.6449L34.0013 31.7131L34.044 31.7643L33.9842 31.8326L33.9074 31.8838ZM34.2146 32.7883L34.4024 32.8737C34.5309 32.7963 34.6345 32.6838 34.701 32.5494C34.7778 32.3958 34.7864 32.319 34.8205 32.1739L34.6669 32.1313H34.6328C34.5901 32.2849 34.573 32.3617 34.4962 32.4897C34.428 32.6006 34.3512 32.6859 34.2744 32.7457L34.2146 32.7883ZM34.6413 34.3414L34.7096 34.2305L34.829 34.1366H34.8632C34.8621 34.2181 34.8477 34.2988 34.8205 34.3755L34.7864 34.4609L34.7437 34.5035C34.701 34.4353 34.6328 34.3926 34.6328 34.3329L34.6413 34.3414ZM37.4573 34.495L37.5768 34.5462L37.7048 34.623V34.6657L37.5768 34.6827C37.5398 34.6856 37.5028 34.6856 37.4658 34.6827H37.3805L37.3293 34.6486C37.372 34.5889 37.3976 34.5121 37.4488 34.495H37.4573ZM36.621 34.3243L36.7405 34.367L36.8685 34.4523C36.8685 34.4609 36.877 34.4779 36.8685 34.4865C36.7934 34.5066 36.7158 34.5153 36.6381 34.5121L36.5528 34.5035L36.493 34.4779C36.5442 34.4182 36.5698 34.3329 36.621 34.3243ZM35.1362 34.5035L35.2642 34.5462L35.3922 34.6315V34.6742C35.314 34.6924 35.2333 34.6981 35.1533 34.6913H35.068L35.0168 34.6571C35.0594 34.5974 35.085 34.5206 35.1362 34.5035ZM34.3682 31.9606C34.317 31.935 34.2829 31.8753 34.317 31.8241C34.3256 31.807 34.3512 31.807 34.3682 31.7899C34.3853 31.7643 34.3768 31.7473 34.3682 31.7217L34.3597 31.6363L34.3426 31.551C34.3426 31.4998 34.3426 31.4657 34.3768 31.4145C34.3938 31.3889 34.4365 31.3633 34.445 31.3633C34.4621 31.3718 34.445 31.4059 34.445 31.4315C34.445 31.4742 34.4536 31.4913 34.4706 31.5339L34.5304 31.6449C34.5474 31.6961 34.5645 31.7131 34.5645 31.7643C34.5645 31.807 34.5645 31.8241 34.5474 31.8667C34.5364 31.8935 34.5188 31.917 34.4962 31.935C34.4763 31.9514 34.453 31.9631 34.428 31.9691C34.4112 31.9739 34.3935 31.9739 34.3768 31.9691L34.3682 31.9606Z" fill="#0065BD"/>
<path d="M34.0967 34.8686L34.0455 34.8857L33.9773 34.954C33.9431 34.9881 33.9175 34.9966 33.8749 35.0222L33.8237 35.0649C33.7981 35.0905 33.8237 35.1161 33.7981 35.1502C33.7895 35.1844 33.7725 35.2014 33.7469 35.2356C33.7127 35.2697 33.6871 35.2782 33.6615 35.3209L33.5591 35.4062L33.5335 35.4148H33.4823C33.4482 35.4318 33.4397 35.466 33.4141 35.483L33.4397 35.5342L33.5079 35.6537C33.525 35.6793 33.525 35.7134 33.5506 35.722C33.5933 35.739 33.6274 35.739 33.6615 35.7305C33.7298 35.7476 33.7725 35.7476 33.8322 35.7732L33.9602 35.8414C34.0029 35.867 34.0285 35.8756 34.0711 35.8841H34.2247V35.9097L34.3954 35.995C34.3912 36.006 34.3883 36.0175 34.3869 36.0292C34.3783 36.0548 34.3698 36.0889 34.3783 36.0974C34.4295 36.2596 34.4807 36.3534 34.5063 36.3705C34.5575 36.3876 34.5746 36.4473 34.6002 36.4985L34.5746 36.5241C34.5234 36.5753 34.4722 36.6094 34.4295 36.6777C34.3698 36.7801 34.3271 36.7801 34.4039 36.9166L34.5319 37.1214C34.5661 37.1812 34.5831 37.2238 34.6002 37.2921C34.6173 37.3518 34.6258 37.3945 34.6258 37.4628L34.7111 37.4884L34.7709 37.4372L34.8221 37.3348V37.2494C34.805 37.2409 34.7965 37.2153 34.805 37.1897C34.805 37.1556 34.8477 37.1641 34.8647 37.1385C34.8903 37.0958 34.8306 37.0702 34.805 37.0446C34.7538 36.9849 34.6855 36.9678 34.6685 36.8825C34.6685 36.8654 34.6685 36.8484 34.7026 36.8228L34.8733 36.6692C34.8903 36.6777 34.9245 36.6862 34.9586 36.6777L35.0695 36.7118C35.1207 36.7289 35.1463 36.7118 35.1719 36.7118H35.2061L35.2146 36.763C35.2231 36.8484 35.2061 37.019 35.2317 37.0617L35.2573 37.1129L35.2743 37.1641V37.3348L35.2573 37.4798C35.2573 37.514 35.2402 37.5396 35.2146 37.5652C35.1975 37.5993 35.1634 37.5993 35.1293 37.6249V37.7102L35.2231 37.7529L35.3341 37.7785L35.3938 37.7529L35.4023 37.7017L35.445 37.659C35.4791 37.642 35.5133 37.659 35.5218 37.6505C35.5389 37.6249 35.5218 37.6164 35.5218 37.5822C35.5218 37.531 35.5047 37.4969 35.4962 37.4457C35.4839 37.3667 35.481 37.2865 35.4877 37.2068C35.4877 37.1556 35.4877 37.1214 35.5047 37.0788C35.5133 36.9934 35.5389 36.9593 35.5559 36.891C35.5815 36.8057 35.5815 36.7545 35.5901 36.6777C35.8778 36.721 36.1714 36.7036 36.4519 36.6265C36.5202 36.6862 36.597 36.7289 36.6823 36.763V36.8484C36.6823 36.874 36.6823 36.8825 36.6994 36.9081L36.725 36.9337C36.7506 36.9337 36.7677 36.9337 36.7847 36.9166C36.8018 36.8996 36.8018 36.8825 36.8018 36.8569V36.7972H36.9554V36.891C36.9639 36.9166 36.981 36.9252 36.9981 36.9252C37.0061 36.929 37.0148 36.9309 37.0237 36.9309C37.0325 36.9309 37.0413 36.929 37.0493 36.9252C37.0749 36.9081 37.0663 36.874 37.0749 36.8398V36.7801L37.1602 36.746C37.1625 36.7715 37.1625 36.7972 37.1602 36.8228L37.1346 36.8996C37.1175 36.9508 37.0919 36.9678 37.0663 37.019C37.0322 37.0702 37.0237 37.1044 36.981 37.147L36.9298 37.2068L36.8786 37.2836L36.8018 37.3689C36.7421 37.4201 36.6994 37.386 36.6311 37.4457L36.6055 37.531L36.725 37.5822L36.8359 37.5993L36.8701 37.5822C36.8701 37.5566 36.8701 37.531 36.8957 37.514C36.9127 37.4884 36.9298 37.4884 36.9554 37.4798C36.9895 37.4798 37.0237 37.4798 37.0407 37.4628C37.0749 37.4372 37.0749 37.3774 37.1005 37.3348C37.1633 37.2082 37.2503 37.0951 37.3565 37.002L37.5015 36.8825C37.5186 36.8484 37.5442 36.8398 37.5442 36.7972L37.5271 36.746L37.5101 36.6606C37.6381 36.7204 37.5954 36.7204 37.6125 36.7801C37.6381 36.8313 37.6125 36.8654 37.621 36.9252C37.6295 36.9934 37.6637 37.019 37.6637 37.0873C37.6722 37.1641 37.6551 37.2068 37.6381 37.2836C37.6295 37.3518 37.6295 37.3945 37.5954 37.4542C37.5752 37.504 37.5429 37.548 37.5015 37.5822L37.4503 37.6249L37.4418 37.7102L37.5357 37.7444L37.6722 37.7785L37.7063 37.7529C37.7234 37.6932 37.7063 37.6078 37.7405 37.6078C37.7746 37.5993 37.8002 37.6078 37.8087 37.5822V37.5225L37.8685 37.1385L37.9026 36.9764L37.9367 36.8313C37.9965 36.6606 37.9197 36.635 37.8514 36.5241C37.8087 36.4644 37.7917 36.4388 37.7917 36.3961V36.1486C37.7891 36.069 37.7891 35.9893 37.7917 35.9097L37.8258 35.8926C37.9282 35.8329 37.9709 35.8158 38.0306 35.6793C38.0487 35.6391 38.0575 35.5954 38.0562 35.5513V35.466L38.0221 35.3806C38.0087 35.3553 37.9914 35.3323 37.9709 35.3124C37.9111 35.227 37.8258 35.2185 37.7405 35.1844C37.6125 35.1417 37.5271 35.1502 37.3991 35.1417C37.2455 35.1246 37.1687 35.1246 37.0237 35.1417C36.853 35.1417 36.7591 35.1758 36.5885 35.2014L36.1703 35.2356C35.9741 35.2356 35.7949 35.1929 35.6754 35.2014C35.4706 35.2185 35.4621 35.2697 35.1463 35.2953C35.0384 35.3041 34.9303 35.3097 34.8221 35.3124L34.6343 35.2526C34.7111 35.227 34.7282 35.21 34.7623 35.1673C34.7879 35.1332 34.7794 35.1076 34.8135 35.0734L34.8733 34.9881C34.8506 34.9711 34.8243 34.9594 34.7965 34.954H34.7111C34.6756 34.9553 34.6407 34.964 34.6087 34.9796L34.5405 35.0308L34.3527 34.9284C34.2727 34.8877 34.186 34.8616 34.0967 34.8516V34.8686Z" fill="#D52B1E"/>
<path d="M37.8668 35.936L37.7986 35.9616C37.7218 35.9958 37.662 35.9958 37.5767 36.0043C37.3548 36.0214 37.2098 35.9104 36.9794 35.9275C36.8599 35.936 36.8087 36.0299 36.6807 36.064C36.633 36.0742 36.5844 36.0799 36.5356 36.0811L36.5783 35.9958C36.5783 35.9958 36.4759 36.0214 36.4076 36.0214C36.3616 36.0206 36.3159 36.0149 36.2711 36.0043L36.3564 35.919L36.2455 35.9019C36.2142 35.8865 36.1854 35.8663 36.1602 35.8422C36.2088 35.8357 36.2572 35.8271 36.3052 35.8166C36.4332 35.7824 36.4759 35.7142 36.638 35.6971C36.7319 35.6971 36.894 35.6971 37.2866 35.7654C37.5426 35.808 37.662 35.7824 37.7559 35.7398C37.8242 35.7142 37.8412 35.6544 37.8498 35.5862C37.8583 35.5179 37.8156 35.4667 37.7815 35.4326C37.773 35.4326 37.7388 35.407 37.6876 35.3984" stroke="#FEDF00" stroke-width="0.0853333" stroke-linecap="round"/>
<path d="M34.1142 35.1758C34.0716 35.1758 34.0374 35.1758 34.0033 35.2014C33.9606 35.227 33.9521 35.2611 33.918 35.2952C33.9606 35.3038 33.9862 35.3294 34.0204 35.3208C34.0545 35.3208 34.063 35.3038 34.0886 35.2782C34.1142 35.244 34.1228 35.2184 34.1228 35.1758H34.1142Z" fill="#FCD900" stroke="#FEDF00" stroke-width="0.0426667"/>
<path d="M35.0701 36.3009C35.0924 36.3688 35.121 36.4345 35.1554 36.4972C35.1725 36.5654 35.1554 36.5996 35.1725 36.6678V36.8044M35.7527 36.207L35.7271 36.318L35.6418 36.6166V36.6764M34.7031 36.335C34.7799 36.3521 34.7543 36.6166 34.8653 36.6764" stroke="#FEDF00" stroke-width="0.0853333" stroke-linecap="round"/>
<path d="M37.125 36.8159L37.1591 36.7903C37.2454 36.755 37.3237 36.7028 37.3895 36.6367" stroke="#FEDF00" stroke-width="0.0853333"/>
<path d="M36.4688 36.6618C36.7674 36.585 36.9722 36.4399 37.1173 36.4143M36.7759 36.2863H36.8442C36.9722 36.2607 36.9893 36.3375 37.0746 36.3887C37.2367 36.4741 37.2538 36.585 37.4415 36.6789L37.4757 36.6874L37.5439 36.7215" stroke="#FEDF00" stroke-width="0.0853333" stroke-linecap="round"/>
<path d="M33.5078 35.5093H33.5675L33.6358 35.4922C33.6614 35.4922 33.6785 35.4922 33.6955 35.5093C33.7126 35.5093 33.7126 35.5178 33.7211 35.5349C33.7211 35.5519 33.7382 35.5605 33.7297 35.5775C33.7297 35.5946 33.7041 35.6117 33.6785 35.6117C33.6614 35.6117 33.6443 35.6117 33.6358 35.5861C33.6335 35.5807 33.6322 35.5749 33.6322 35.569C33.6322 35.5631 33.6335 35.5573 33.6358 35.5519C33.6239 35.5579 33.6107 35.561 33.5974 35.561C33.5841 35.561 33.5709 35.5579 33.559 35.5519C33.5481 35.5486 33.5379 35.5431 33.5291 35.5358C33.5203 35.5285 33.513 35.5194 33.5078 35.5093Z" fill="#FCD900" stroke="#FEDF00" stroke-width="0.0426667"/>
<path d="M34.1378 36.3361L33.9672 36.2593C34.0013 36.2422 34.0269 36.2422 34.0525 36.2166C34.0781 36.1825 34.0781 36.1484 34.0952 36.1057C34.1122 36.063 34.1122 36.0204 34.1549 35.9862C34.1805 35.9692 34.2232 35.9692 34.2488 35.9777C34.2829 35.9777 34.317 36.0118 34.3256 36.0374C34.3256 36.0886 34.3085 36.1228 34.3 36.1654C34.3 36.2166 34.2744 36.2422 34.2829 36.2849C34.2829 36.319 34.3 36.3361 34.317 36.3702L34.1464 36.3361H34.1378ZM34.0525 36.4214C34.051 36.4115 34.0524 36.4013 34.0567 36.3922C34.0609 36.3831 34.0677 36.3754 34.0763 36.3701C34.0849 36.3648 34.0948 36.3622 34.1049 36.3626C34.115 36.3629 34.1247 36.3662 34.1329 36.3721C34.1411 36.3779 34.1473 36.3861 34.1509 36.3955C34.1545 36.4049 34.1553 36.4151 34.1531 36.4249C34.1509 36.4348 34.1458 36.4437 34.1386 36.4507C34.1313 36.4576 34.1221 36.4623 34.1122 36.4641C34.1048 36.4654 34.0972 36.465 34.09 36.463C34.0828 36.461 34.0761 36.4574 34.0704 36.4525C34.0647 36.4476 34.0601 36.4415 34.057 36.4347C34.0539 36.4279 34.0524 36.4204 34.0525 36.4129V36.4214ZM33.9074 35.0049H33.8904C33.8562 34.9708 33.8562 34.9366 33.8392 34.9025C33.8254 34.8699 33.8167 34.8354 33.8136 34.8001V34.6294C33.8136 34.6038 33.8136 34.5782 33.7965 34.5526C33.7965 34.5356 33.7624 34.527 33.7709 34.5185C33.7709 34.51 33.7965 34.5185 33.805 34.5185C33.8392 34.5185 33.8562 34.527 33.8904 34.5526C33.916 34.5782 33.933 34.6038 33.9416 34.638L33.9757 34.766L34.0013 34.8342L34.044 34.8854L33.9842 34.9537L33.9074 35.0049ZM34.2146 35.9094L34.4024 35.9948C34.5309 35.9174 34.6345 35.8049 34.701 35.6705C34.7778 35.5169 34.7864 35.4401 34.8205 35.295L34.6669 35.2524H34.6328C34.5901 35.406 34.573 35.4828 34.4962 35.6108C34.428 35.7217 34.3512 35.807 34.2744 35.8668L34.2146 35.9094ZM34.6413 37.4625L34.7096 37.3516L34.829 37.2577H34.8632C34.8621 37.3392 34.8477 37.4199 34.8205 37.4966L34.7864 37.582L34.7437 37.6246C34.701 37.5564 34.6328 37.5137 34.6328 37.454L34.6413 37.4625ZM37.4573 37.6161L37.5768 37.6673L37.7048 37.7441V37.7868L37.5768 37.8038C37.5398 37.8067 37.5028 37.8067 37.4658 37.8038H37.3805L37.3293 37.7697C37.372 37.71 37.3976 37.6332 37.4488 37.6161H37.4573ZM36.621 37.4454L36.7405 37.4881L36.8685 37.5734C36.8685 37.582 36.877 37.599 36.8685 37.6076C36.7934 37.6277 36.7158 37.6363 36.6381 37.6332L36.5528 37.6246L36.493 37.599C36.5442 37.5393 36.5698 37.454 36.621 37.4454ZM35.1362 37.6246L35.2642 37.6673L35.3922 37.7526V37.7953C35.314 37.8135 35.2333 37.8192 35.1533 37.8124H35.068L35.0168 37.7782C35.0594 37.7185 35.085 37.6417 35.1362 37.6246ZM34.3682 35.0817C34.317 35.0561 34.2829 34.9964 34.317 34.9452C34.3256 34.9281 34.3512 34.9281 34.3682 34.911C34.3853 34.8854 34.3768 34.8684 34.3682 34.8428L34.3597 34.7574L34.3426 34.6721C34.3426 34.6209 34.3426 34.5868 34.3768 34.5356C34.3938 34.51 34.4365 34.4844 34.445 34.4844C34.4621 34.4929 34.445 34.527 34.445 34.5526C34.445 34.5953 34.4536 34.6124 34.4706 34.655L34.5304 34.766C34.5474 34.8172 34.5645 34.8342 34.5645 34.8854C34.5645 34.9281 34.5645 34.9452 34.5474 34.9878C34.5364 35.0146 34.5188 35.0381 34.4962 35.0561C34.4763 35.0725 34.453 35.0842 34.428 35.0902C34.4112 35.095 34.3935 35.095 34.3768 35.0902L34.3682 35.0817Z" fill="#0065BD"/>
<path d="M24.5469 23.3984H31.5602V30.3984H24.5469V23.3984ZM32.3069 23.3984H39.3202V30.3984H32.3069V23.3984ZM24.5735 36.4651C24.5869 36.5984 24.6402 36.8118 24.7602 37.0384C24.8935 37.2384 24.8402 37.2251 25.1202 37.5451C25.2759 37.702 25.456 37.8326 25.6535 37.9318C26.2836 38.2031 26.9689 38.3218 27.6535 38.2784C28.0135 38.2651 28.2935 38.2251 28.5335 38.1851C29.0196 38.1205 29.51 38.0937 30.0002 38.1051C30.2002 38.1051 30.4002 38.1451 30.6269 38.1851C31.0935 38.2784 31.5602 38.4518 31.5602 38.4518V31.1584H24.5469V36.1318L24.5735 36.4518V36.4651ZM39.2935 36.4651C39.2653 36.6657 39.2021 36.8597 39.1069 37.0384C38.9735 37.2384 39.0269 37.2251 38.7469 37.5451C38.5911 37.7019 38.411 37.8324 38.2135 37.9318C38.0402 38.0251 37.9069 38.0651 37.6269 38.1451C37.1663 38.2667 36.6888 38.3117 36.2135 38.2784C35.8535 38.2651 35.5735 38.2118 35.3469 38.1851C35.0284 38.1422 34.708 38.1155 34.3869 38.1051C34.2136 38.0968 34.0401 38.0968 33.8669 38.1051C33.6669 38.1051 33.4669 38.1451 33.2402 38.1851C32.7735 38.2784 32.3069 38.4518 32.3069 38.4518V31.1451H39.3335V36.1451L39.3069 36.4651H39.2935Z" stroke="#703D29" stroke-width="0.0666667"/>
</g>
</g>
</g>
<defs>
<clipPath id="clip0_423_6543">
<rect width="64" height="64" rx="32" fill="white"/>
</clipPath>
<clipPath id="clip1_423_6543">
<rect width="64" height="64" fill="white"/>
</clipPath>
<clipPath id="clip2_423_6543">
<rect width="85.3333" height="64" fill="white" transform="translate(-10.668)"/>
</clipPath>
</defs>
</svg>
