<svg width="64" height="64" viewBox="0 0 64 64" fill="none" xmlns="http://www.w3.org/2000/svg">
<g clip-path="url(#clip0_423_6742)">
<g clip-path="url(#clip1_423_6742)">
<g clip-path="url(#clip2_423_6742)">
<path d="M-10.668 0H74.6654V64H-10.668V0Z" fill="#74ACDF"/>
<path d="M-10.668 21.332H74.6654V42.6654H-10.668V21.332Z" fill="white"/>
<path d="M31.5898 32.1698L35.2378 40.1058C35.2378 40.1058 35.3018 40.2594 35.4042 40.221C35.5066 40.1698 35.4426 40.0162 35.4426 40.0162L32.409 31.8242M32.3194 34.9218C32.2682 36.125 33.0106 36.7906 32.921 37.8658C32.8186 38.9538 33.4074 39.5554 33.561 39.9778C33.689 40.4002 33.4074 40.6434 33.5226 40.7074C33.6506 40.7714 33.9066 40.4386 33.8298 39.837C33.7402 39.2482 33.2922 39.069 33.3946 37.7506C33.497 36.4322 32.857 36.125 33.0106 34.9346" fill="#F6B40E"/>
<path d="M31.5898 32.1698L35.2378 40.1058C35.2378 40.1058 35.3018 40.2594 35.4042 40.221C35.5066 40.1698 35.4426 40.0162 35.4426 40.0162L32.409 31.8242M32.3194 34.9218C32.2682 36.125 33.0106 36.7906 32.921 37.8658C32.8186 38.9538 33.4074 39.5554 33.561 39.9778C33.689 40.4002 33.4074 40.6434 33.5226 40.7074C33.6506 40.7714 33.9066 40.4386 33.8298 39.837C33.7402 39.2482 33.2922 39.069 33.3946 37.7506C33.497 36.4322 32.857 36.125 33.0106 34.9346" stroke="#85340A" stroke-width="0.1408"/>
<path d="M31.5552 31.999L31.8886 40.7269C31.8886 40.7269 31.8889 40.8933 31.9982 40.897C32.1124 40.8889 32.1121 40.7225 32.1121 40.7225L32.4443 31.9932M31.1762 34.8207C30.6684 35.9127 31.0996 36.8118 30.6054 37.7708C30.0944 38.7368 30.4081 39.5179 30.3884 39.967C30.345 40.4062 29.9918 40.5231 30.0737 40.6263C30.1675 40.7345 30.5314 40.525 30.6906 39.9398C30.8332 39.3615 30.4878 39.0245 31.087 37.8456C31.6861 36.6668 31.2124 36.138 31.8099 35.097" fill="#F6B40E"/>
<path d="M31.5552 31.999L31.8886 40.7269C31.8886 40.7269 31.8889 40.8933 31.9982 40.897C32.1124 40.8889 32.1121 40.7225 32.1121 40.7225L32.4443 31.9932M31.1762 34.8207C30.6684 35.9127 31.0996 36.8118 30.6054 37.7708C30.0944 38.7368 30.4081 39.5179 30.3884 39.967C30.345 40.4062 29.9918 40.5231 30.0737 40.6263C30.1675 40.7345 30.5314 40.525 30.6906 39.9398C30.8332 39.3615 30.4878 39.0245 31.087 37.8456C31.6861 36.6668 31.2124 36.138 31.8099 35.097" stroke="#85340A" stroke-width="0.1408"/>
<path d="M31.5916 31.8303L28.5595 40.0214C28.5595 40.0214 28.4961 40.1753 28.5957 40.2206C28.7043 40.2568 28.7677 40.1029 28.7677 40.1029L32.4152 32.1652M30.1615 34.2922C29.2745 35.1068 29.3288 36.1024 28.5052 36.7993C27.6634 37.4962 27.6544 38.338 27.4643 38.7453C27.2562 39.1344 26.8851 39.1073 26.9213 39.234C26.9665 39.3698 27.3829 39.3155 27.754 38.8358C28.1069 38.3561 27.9169 37.9126 28.9215 37.0527C29.9262 36.1929 29.6909 35.5231 30.6412 34.79" fill="#F6B40E"/>
<path d="M31.5916 31.8303L28.5595 40.0214C28.5595 40.0214 28.4961 40.1753 28.5957 40.2206C28.7043 40.2568 28.7677 40.1029 28.7677 40.1029L32.4152 32.1652M30.1615 34.2922C29.2745 35.1068 29.3288 36.1024 28.5052 36.7993C27.6634 37.4962 27.6544 38.338 27.4643 38.7453C27.2562 39.1344 26.8851 39.1073 26.9213 39.234C26.9665 39.3698 27.3829 39.3155 27.754 38.8358C28.1069 38.3561 27.9169 37.9126 28.9215 37.0527C29.9262 36.1929 29.6909 35.5231 30.6412 34.79" stroke="#85340A" stroke-width="0.1408"/>
<path d="M31.6885 31.6869L25.7526 38.0942C25.7526 38.0942 25.6352 38.2121 25.7099 38.2921C25.7964 38.3671 25.9138 38.2492 25.9138 38.2492L32.3213 32.3115M29.4252 33.4142C28.294 33.8273 27.9632 34.7679 26.9355 35.0966C25.8912 35.4183 25.5607 36.1925 25.2292 36.4961C24.888 36.776 24.5555 36.6089 24.5405 36.7398C24.5303 36.8826 24.9357 36.9917 25.4622 36.6905C25.9719 36.3824 25.966 35.9 27.2232 35.49C28.4804 35.0801 28.5193 34.3713 29.6779 34.0576" fill="#F6B40E"/>
<path d="M31.6885 31.6869L25.7526 38.0942C25.7526 38.0942 25.6352 38.2121 25.7099 38.2921C25.7964 38.3671 25.9138 38.2492 25.9138 38.2492L32.3213 32.3115M29.4252 33.4142C28.294 33.8273 27.9632 34.7679 26.9355 35.0966C25.8912 35.4183 25.5607 36.1925 25.2292 36.4961C24.888 36.776 24.5555 36.6089 24.5405 36.7398C24.5303 36.8826 24.9357 36.9917 25.4622 36.6905C25.9719 36.3824 25.966 35.9 27.2232 35.49C28.4804 35.0801 28.5193 34.3713 29.6779 34.0576" stroke="#85340A" stroke-width="0.1408"/>
<path d="M32.5482 35.1258C32.6122 36.2778 33.265 36.7898 33.137 37.8522C33.4186 37.0202 32.7402 36.3674 32.7786 35.1386M31.793 32.0922L34.289 37.545L32.2026 31.9258" fill="#85340A"/>
<path d="M31.313 35.097C30.9312 36.1858 31.3384 36.9086 30.8136 37.8412C31.3922 37.1803 31.0152 36.3175 31.5209 35.197M31.7762 32.0053L31.9955 37.9982L32.2183 32.0083" fill="#85340A"/>
<path d="M30.1775 34.5975C29.4082 35.4574 29.5077 36.281 28.666 36.9417C29.4534 36.5525 29.4353 35.6112 30.3314 34.7695M31.7886 31.9184L29.6978 37.5391L32.1959 32.0904" fill="#85340A"/>
<path d="M29.3248 33.7035C28.285 34.2035 28.0617 35.0026 27.0312 35.2909C27.9077 35.2327 28.2512 34.3561 29.4011 33.9213M31.8385 31.8449L27.7559 36.2376L32.1489 32.1597" fill="#85340A"/>
<path d="M31.8302 31.5898L23.8942 35.2378C23.8942 35.2378 23.7406 35.3018 23.779 35.4042C23.8302 35.5066 23.9838 35.4426 23.9838 35.4426L32.1758 32.409M29.0782 32.3194C27.875 32.2682 27.2094 33.0106 26.1342 32.921C25.0462 32.8186 24.4446 33.4074 24.0222 33.561C23.5998 33.689 23.3566 33.4074 23.2926 33.5226C23.2286 33.6506 23.5614 33.9066 24.163 33.8298C24.7518 33.7402 24.931 33.2922 26.2494 33.3946C27.5678 33.497 27.875 32.857 29.0654 33.0106" fill="#F6B40E"/>
<path d="M31.8302 31.5898L23.8942 35.2378C23.8942 35.2378 23.7406 35.3018 23.779 35.4042C23.8302 35.5066 23.9838 35.4426 23.9838 35.4426L32.1758 32.409M29.0782 32.3194C27.875 32.2682 27.2094 33.0106 26.1342 32.921C25.0462 32.8186 24.4446 33.4074 24.0222 33.561C23.5998 33.689 23.3566 33.4074 23.2926 33.5226C23.2286 33.6506 23.5614 33.9066 24.163 33.8298C24.7518 33.7402 24.931 33.2922 26.2494 33.3946C27.5678 33.497 27.875 32.857 29.0654 33.0106" stroke="#85340A" stroke-width="0.1408"/>
<path d="M32.001 31.5552L23.2731 31.8886C23.2731 31.8886 23.1067 31.8889 23.103 31.9982C23.1111 32.1124 23.2775 32.1121 23.2775 32.1121L32.0068 32.4443M29.1793 31.1762C28.0873 30.6684 27.1882 31.0996 26.2292 30.6054C25.2632 30.0944 24.4821 30.4081 24.033 30.3884C23.5938 30.345 23.4769 29.9918 23.3737 30.0737C23.2655 30.1675 23.475 30.5314 24.0602 30.6906C24.6385 30.8332 24.9755 30.4878 26.1544 31.087C27.3332 31.6861 27.862 31.2124 28.903 31.8099" fill="#F6B40E"/>
<path d="M32.001 31.5552L23.2731 31.8886C23.2731 31.8886 23.1067 31.8889 23.103 31.9982C23.1111 32.1124 23.2775 32.1121 23.2775 32.1121L32.0068 32.4443M29.1793 31.1762C28.0873 30.6684 27.1882 31.0996 26.2292 30.6054C25.2632 30.0944 24.4821 30.4081 24.033 30.3884C23.5938 30.345 23.4769 29.9918 23.3737 30.0737C23.2655 30.1675 23.475 30.5314 24.0602 30.6906C24.6385 30.8332 24.9755 30.4878 26.1544 31.087C27.3332 31.6861 27.862 31.2124 28.903 31.8099" stroke="#85340A" stroke-width="0.1408"/>
<path d="M32.1697 31.5916L23.9786 28.5595C23.9786 28.5595 23.8247 28.4961 23.7794 28.5957C23.7432 28.7043 23.8971 28.7677 23.8971 28.7677L31.8348 32.4152M29.7078 30.1615C28.8932 29.2745 27.8976 29.3288 27.2007 28.5052C26.5038 27.6634 25.662 27.6544 25.2547 27.4643C24.8656 27.2562 24.8927 26.8851 24.766 26.9213C24.6302 26.9665 24.6845 27.3829 25.1642 27.754C25.6439 28.1069 26.0874 27.9169 26.9473 28.9215C27.8071 29.9262 28.4769 29.6909 29.21 30.6412" fill="#F6B40E"/>
<path d="M32.1697 31.5916L23.9786 28.5595C23.9786 28.5595 23.8247 28.4961 23.7794 28.5957C23.7432 28.7043 23.8971 28.7677 23.8971 28.7677L31.8348 32.4152M29.7078 30.1615C28.8932 29.2745 27.8976 29.3288 27.2007 28.5052C26.5038 27.6634 25.662 27.6544 25.2547 27.4643C24.8656 27.2562 24.8927 26.8851 24.766 26.9213C24.6302 26.9665 24.6845 27.3829 25.1642 27.754C25.6439 28.1069 26.0874 27.9169 26.9473 28.9215C27.8071 29.9262 28.4769 29.6909 29.21 30.6412" stroke="#85340A" stroke-width="0.1408"/>
<path d="M32.3131 31.6885L25.9058 25.7526C25.9058 25.7526 25.7879 25.6352 25.7079 25.7099C25.6329 25.7964 25.7508 25.9138 25.7508 25.9138L31.6885 32.3213M30.5858 29.4252C30.1727 28.294 29.2321 27.9632 28.9034 26.9355C28.5817 25.8912 27.8075 25.5607 27.5039 25.2292C27.224 24.888 27.3911 24.5555 27.2602 24.5405C27.1174 24.5303 27.0083 24.9357 27.3095 25.4622C27.6176 25.9719 28.1 25.966 28.51 27.2232C28.9199 28.4804 29.6287 28.5193 29.9424 29.6779" fill="#F6B40E"/>
<path d="M32.3131 31.6885L25.9058 25.7526C25.9058 25.7526 25.7879 25.6352 25.7079 25.7099C25.6329 25.7964 25.7508 25.9138 25.7508 25.9138L31.6885 32.3213M30.5858 29.4252C30.1727 28.294 29.2321 27.9632 28.9034 26.9355C28.5817 25.8912 27.8075 25.5607 27.5039 25.2292C27.224 24.888 27.3911 24.5555 27.2602 24.5405C27.1174 24.5303 27.0083 24.9357 27.3095 25.4622C27.6176 25.9719 28.1 25.966 28.51 27.2232C28.9199 28.4804 29.6287 28.5193 29.9424 29.6779" stroke="#85340A" stroke-width="0.1408"/>
<path d="M28.8742 32.5482C27.7222 32.6122 27.2102 33.265 26.1478 33.137C26.9798 33.4186 27.6326 32.7402 28.8614 32.7786M31.9078 31.793L26.455 34.289L32.0742 32.2026" fill="#85340A"/>
<path d="M28.903 31.313C27.8142 30.9312 27.0914 31.3384 26.1588 30.8136C26.8197 31.3922 27.6825 31.0152 28.803 31.5209M31.9947 31.7762L26.0018 31.9955L31.9917 32.2183" fill="#85340A"/>
<path d="M29.4025 30.1775C28.5426 29.4082 27.719 29.5077 27.0583 28.666C27.4475 29.4534 28.3888 29.4353 29.2305 30.3314M32.0816 31.7886L26.4609 29.6978L31.9096 32.1959" fill="#85340A"/>
<path d="M30.2965 29.3248C29.7965 28.285 28.9974 28.0617 28.7091 27.0312C28.7673 27.9077 29.6439 28.2512 30.0787 29.4011M32.1551 31.8385L27.7624 27.7559L31.8403 32.1489" fill="#85340A"/>
<path d="M32.4062 31.8302L28.7582 23.8942C28.7582 23.8942 28.6942 23.7406 28.5918 23.779C28.4894 23.8302 28.5534 23.9838 28.5534 23.9838L31.587 32.1758M31.6766 29.0782C31.7278 27.875 30.9854 27.2094 31.075 26.1342C31.1774 25.0462 30.5886 24.4446 30.435 24.0222C30.307 23.5998 30.5886 23.3566 30.4734 23.2926C30.3454 23.2286 30.0894 23.5614 30.1662 24.163C30.2558 24.7518 30.7038 24.931 30.6014 26.2494C30.499 27.5678 31.139 27.875 30.9854 29.0654" fill="#F6B40E"/>
<path d="M32.4062 31.8302L28.7582 23.8942C28.7582 23.8942 28.6942 23.7406 28.5918 23.779C28.4894 23.8302 28.5534 23.9838 28.5534 23.9838L31.587 32.1758M31.6766 29.0782C31.7278 27.875 30.9854 27.2094 31.075 26.1342C31.1774 25.0462 30.5886 24.4446 30.435 24.0222C30.307 23.5998 30.5886 23.3566 30.4734 23.2926C30.3454 23.2286 30.0894 23.5614 30.1662 24.163C30.2558 24.7518 30.7038 24.931 30.6014 26.2494C30.499 27.5678 31.139 27.875 30.9854 29.0654" stroke="#85340A" stroke-width="0.1408"/>
<path d="M32.4408 32.001L32.1075 23.2731C32.1075 23.2731 32.1072 23.1067 31.9979 23.103C31.8837 23.1111 31.884 23.2775 31.884 23.2775L31.5517 32.0068M32.8199 29.1793C33.3277 28.0873 32.8965 27.1882 33.3907 26.2292C33.9017 25.2632 33.5879 24.4821 33.6077 24.033C33.6511 23.5938 34.0043 23.4769 33.9224 23.3737C33.8286 23.2655 33.4647 23.475 33.3055 24.0602C33.1629 24.6385 33.5082 24.9755 32.9091 26.1544C32.31 27.3332 32.7837 27.862 32.1862 28.903" fill="#F6B40E"/>
<path d="M32.4408 32.001L32.1075 23.2731C32.1075 23.2731 32.1072 23.1067 31.9979 23.103C31.8837 23.1111 31.884 23.2775 31.884 23.2775L31.5517 32.0068M32.8199 29.1793C33.3277 28.0873 32.8965 27.1882 33.3907 26.2292C33.9017 25.2632 33.5879 24.4821 33.6077 24.033C33.6511 23.5938 34.0043 23.4769 33.9224 23.3737C33.8286 23.2655 33.4647 23.475 33.3055 24.0602C33.1629 24.6385 33.5082 24.9755 32.9091 26.1544C32.31 27.3332 32.7837 27.862 32.1862 28.903" stroke="#85340A" stroke-width="0.1408"/>
<path d="M32.4045 32.1697L35.4366 23.9786C35.4366 23.9786 35.5 23.8247 35.4004 23.7794C35.2918 23.7432 35.2284 23.8971 35.2284 23.8971L31.5809 31.8348M33.8346 29.7078C34.7216 28.8932 34.6673 27.8976 35.4909 27.2007C36.3326 26.5038 36.3417 25.662 36.5318 25.2547C36.7399 24.8656 37.111 24.8927 37.0748 24.766C37.0296 24.6302 36.6132 24.6845 36.2421 25.1642C35.8892 25.6439 36.0792 26.0874 35.0746 26.9473C34.0699 27.8071 34.3052 28.4769 33.3549 29.21" fill="#F6B40E"/>
<path d="M32.4045 32.1697L35.4366 23.9786C35.4366 23.9786 35.5 23.8247 35.4004 23.7794C35.2918 23.7432 35.2284 23.8971 35.2284 23.8971L31.5809 31.8348M33.8346 29.7078C34.7216 28.8932 34.6673 27.8976 35.4909 27.2007C36.3326 26.5038 36.3417 25.662 36.5318 25.2547C36.7399 24.8656 37.111 24.8927 37.0748 24.766C37.0296 24.6302 36.6132 24.6845 36.2421 25.1642C35.8892 25.6439 36.0792 26.0874 35.0746 26.9473C34.0699 27.8071 34.3052 28.4769 33.3549 29.21" stroke="#85340A" stroke-width="0.1408"/>
<path d="M32.3076 32.3131L38.2434 25.9058C38.2434 25.9058 38.3609 25.7879 38.2862 25.7079C38.1997 25.6329 38.0823 25.7508 38.0823 25.7508L31.6748 31.6885M34.5709 30.5858C35.7021 30.1727 36.0329 29.2321 37.0606 28.9034C38.1049 28.5817 38.4354 27.8075 38.7669 27.5039C39.1081 27.224 39.4406 27.3911 39.4556 27.2602C39.4658 27.1174 39.0603 27.0083 38.5339 27.3095C38.0242 27.6176 38.0301 28.1 36.7729 28.51C35.5157 28.9199 35.4768 29.6287 34.3182 29.9424" fill="#F6B40E"/>
<path d="M32.3076 32.3131L38.2434 25.9058C38.2434 25.9058 38.3609 25.7879 38.2862 25.7079C38.1997 25.6329 38.0823 25.7508 38.0823 25.7508L31.6748 31.6885M34.5709 30.5858C35.7021 30.1727 36.0329 29.2321 37.0606 28.9034C38.1049 28.5817 38.4354 27.8075 38.7669 27.5039C39.1081 27.224 39.4406 27.3911 39.4556 27.2602C39.4658 27.1174 39.0603 27.0083 38.5339 27.3095C38.0242 27.6176 38.0301 28.1 36.7729 28.51C35.5157 28.9199 35.4768 29.6287 34.3182 29.9424" stroke="#85340A" stroke-width="0.1408"/>
<path d="M31.4479 28.8742C31.3839 27.7222 30.7311 27.2102 30.8591 26.1478C30.5775 26.9798 31.2559 27.6326 31.2175 28.8614M32.2031 31.9078L29.7071 26.455L31.7935 32.0742" fill="#85340A"/>
<path d="M32.6831 28.903C33.0648 27.8142 32.6577 27.0914 33.1825 26.1588C32.6039 26.8197 32.9809 27.6825 32.4752 28.803M32.2199 31.9947L32.0006 26.0018L31.7778 31.9917" fill="#85340A"/>
<path d="M33.8186 29.4025C34.5879 28.5426 34.4884 27.719 35.3301 27.0583C34.5427 27.4475 34.5608 28.3888 33.6647 29.2305M32.2075 32.0816L34.2983 26.4609L31.8002 31.9096" fill="#85340A"/>
<path d="M34.6713 30.2965C35.7111 29.7965 35.9343 28.9974 36.9649 28.7091C36.0884 28.7673 35.7449 29.6439 34.595 30.0787M32.1576 32.1551L36.2402 27.7624L31.8472 31.8403" fill="#85340A"/>
<path d="M32.1659 32.4102L40.1019 28.7622C40.1019 28.7622 40.2555 28.6982 40.2171 28.5958C40.1659 28.4934 40.0123 28.5574 40.0123 28.5574L31.8203 31.591M34.9179 31.6806C36.1211 31.7318 36.7867 30.9894 37.8619 31.079C38.9499 31.1814 39.5515 30.5926 39.9739 30.439C40.3963 30.311 40.6395 30.5926 40.7035 30.4774C40.7675 30.3494 40.4347 30.0934 39.8331 30.1702C39.2443 30.2598 39.0651 30.7078 37.7467 30.6054C36.4283 30.503 36.1211 31.143 34.9307 30.9894" fill="#F6B40E"/>
<path d="M32.1659 32.4102L40.1019 28.7622C40.1019 28.7622 40.2555 28.6982 40.2171 28.5958C40.1659 28.4934 40.0123 28.5574 40.0123 28.5574L31.8203 31.591M34.9179 31.6806C36.1211 31.7318 36.7867 30.9894 37.8619 31.079C38.9499 31.1814 39.5515 30.5926 39.9739 30.439C40.3963 30.311 40.6395 30.5926 40.7035 30.4774C40.7675 30.3494 40.4347 30.0934 39.8331 30.1702C39.2443 30.2598 39.0651 30.7078 37.7467 30.6054C36.4283 30.503 36.1211 31.143 34.9307 30.9894" stroke="#85340A" stroke-width="0.1408"/>
<path d="M31.9951 32.4448L40.723 32.1114C40.723 32.1114 40.8894 32.1111 40.8931 32.0018C40.885 31.8876 40.7186 31.8879 40.7186 31.8879L31.9893 31.5557M34.8168 32.8238C35.9088 33.3316 36.8079 32.9004 37.7669 33.3946C38.7329 33.9056 39.514 33.5919 39.9631 33.6116C40.4023 33.655 40.5192 34.0082 40.6224 33.9263C40.7305 33.8325 40.5211 33.4686 39.9359 33.3094C39.3576 33.1668 39.0206 33.5122 37.8417 32.913C36.6629 32.3139 36.1341 32.7876 35.0931 32.1901" fill="#F6B40E"/>
<path d="M31.9951 32.4448L40.723 32.1114C40.723 32.1114 40.8894 32.1111 40.8931 32.0018C40.885 31.8876 40.7186 31.8879 40.7186 31.8879L31.9893 31.5557M34.8168 32.8238C35.9088 33.3316 36.8079 32.9004 37.7669 33.3946C38.7329 33.9056 39.514 33.5919 39.9631 33.6116C40.4023 33.655 40.5192 34.0082 40.6224 33.9263C40.7305 33.8325 40.5211 33.4686 39.9359 33.3094C39.3576 33.1668 39.0206 33.5122 37.8417 32.913C36.6629 32.3139 36.1341 32.7876 35.0931 32.1901" stroke="#85340A" stroke-width="0.1408"/>
<path d="M31.8264 32.4084L40.0175 35.4405C40.0175 35.4405 40.1714 35.5039 40.2167 35.4043C40.2529 35.2957 40.099 35.2323 40.099 35.2323L32.1613 31.5848M34.2883 33.8385C35.1029 34.7255 36.0985 34.6712 36.7954 35.4948C37.4923 36.3366 38.3341 36.3456 38.7413 36.5357C39.1305 36.7438 39.1034 37.1149 39.2301 37.0787C39.3659 37.0335 39.3116 36.6171 38.8319 36.246C38.3522 35.8931 37.9087 36.0831 37.0488 35.0785C36.189 34.0738 35.5192 34.3091 34.7861 33.3588" fill="#F6B40E"/>
<path d="M31.8264 32.4084L40.0175 35.4405C40.0175 35.4405 40.1714 35.5039 40.2167 35.4043C40.2529 35.2957 40.099 35.2323 40.099 35.2323L32.1613 31.5848M34.2883 33.8385C35.1029 34.7255 36.0985 34.6712 36.7954 35.4948C37.4923 36.3366 38.3341 36.3456 38.7413 36.5357C39.1305 36.7438 39.1034 37.1149 39.2301 37.0787C39.3659 37.0335 39.3116 36.6171 38.8319 36.246C38.3522 35.8931 37.9087 36.0831 37.0488 35.0785C36.189 34.0738 35.5192 34.3091 34.7861 33.3588" stroke="#85340A" stroke-width="0.1408"/>
<path d="M31.683 32.3115L38.0903 38.2474C38.0903 38.2474 38.2082 38.3648 38.2881 38.2901C38.3632 38.2036 38.2452 38.0862 38.2452 38.0862L32.3076 31.6787M33.4102 34.5748C33.8234 35.706 34.764 36.0368 35.0927 37.0645C35.4144 38.1088 36.1886 38.4393 36.4922 38.7708C36.7721 39.112 36.605 39.4445 36.7359 39.4595C36.8787 39.4697 36.9878 39.0643 36.6866 38.5378C36.3785 38.0281 35.8961 38.034 35.4861 36.7768C35.0762 35.5196 34.3674 35.4807 34.0537 34.3221" fill="#F6B40E"/>
<path d="M31.683 32.3115L38.0903 38.2474C38.0903 38.2474 38.2082 38.3648 38.2881 38.2901C38.3632 38.2036 38.2452 38.0862 38.2452 38.0862L32.3076 31.6787M33.4102 34.5748C33.8234 35.706 34.764 36.0368 35.0927 37.0645C35.4144 38.1088 36.1886 38.4393 36.4922 38.7708C36.7721 39.112 36.605 39.4445 36.7359 39.4595C36.8787 39.4697 36.9878 39.0643 36.6866 38.5378C36.3785 38.0281 35.8961 38.034 35.4861 36.7768C35.0762 35.5196 34.3674 35.4807 34.0537 34.3221" stroke="#85340A" stroke-width="0.1408"/>
<path d="M35.1219 31.4518C36.2739 31.3878 36.7859 30.735 37.8483 30.863C37.0163 30.5814 36.3635 31.2598 35.1347 31.2214M32.0883 32.207L37.5411 29.711L31.9219 31.7974" fill="#85340A"/>
<path d="M35.0931 32.687C36.1819 33.0688 36.9047 32.6616 37.8373 33.1864C37.1764 32.6078 36.3136 32.9848 35.1931 32.4791M32.0014 32.2238L37.9943 32.0045L32.0044 31.7817" fill="#85340A"/>
<path d="M34.5936 33.8225C35.4535 34.5918 36.2771 34.4923 36.9378 35.334C36.5486 34.5466 35.6073 34.5647 34.7656 33.6686M31.9145 32.2114L37.5352 34.3022L32.0865 31.8041" fill="#85340A"/>
<path d="M33.6996 34.6752C34.1996 35.715 34.9987 35.9383 35.287 36.9688C35.2287 36.0923 34.3522 35.7488 33.9174 34.5989M31.841 32.1615L36.2337 36.2441L32.1558 31.8511" fill="#85340A"/>
<path d="M31.9975 35.5614C33.9636 35.5614 35.5575 33.9675 35.5575 32.0014C35.5575 30.0353 33.9636 28.4414 31.9975 28.4414C30.0314 28.4414 28.4375 30.0353 28.4375 32.0014C28.4375 33.9675 30.0314 35.5614 31.9975 35.5614Z" fill="#F6B40E" stroke="#85340A" stroke-width="0.186667"/>
<path d="M33.1977 31.2383C32.971 31.2383 32.731 31.3449 32.5977 31.5583C32.8643 31.8116 33.4777 31.8249 33.891 31.5316C33.8037 31.4389 33.6983 31.3651 33.5813 31.3146C33.4644 31.2642 33.3384 31.2382 33.211 31.2383H33.1977ZM33.1977 31.2916C33.4377 31.2916 33.6643 31.3983 33.691 31.5049C33.4243 31.8116 32.9843 31.7716 32.7043 31.5583C32.8377 31.3716 33.0243 31.2916 33.211 31.2916H33.1977Z" fill="#843511"/>
<path d="M33.2524 31.0664C32.8924 31.0664 32.8124 31.1464 32.6524 31.2931C32.4924 31.4264 32.3991 31.3997 32.3858 31.4264C32.3458 31.4531 32.3858 31.5331 32.4258 31.5064C32.4924 31.4797 32.5991 31.4264 32.7591 31.2931C32.9191 31.1597 33.0924 31.1597 33.2524 31.1597C33.7458 31.1597 34.0124 31.5597 34.0658 31.5331C34.1324 31.5064 33.7991 31.0664 33.2524 31.0664Z" fill="#85340A"/>
<path d="M34.2383 31.2409C33.6116 30.6942 32.8116 30.6009 32.3716 31.0142C32.2703 31.1475 32.2018 31.3028 32.1716 31.4676C32.1183 31.7876 32.2116 32.1209 32.4516 32.4676L32.3449 32.5209C32.1316 32.1076 32.0516 31.6809 32.1316 31.2676L32.2116 30.9609C32.8116 30.4676 33.6383 30.4276 34.2383 31.2276V31.2409Z" fill="#85340A"/>
<path d="M33.197 31.7456C33.3296 31.7456 33.437 31.6382 33.437 31.5056C33.437 31.3731 33.3296 31.2656 33.197 31.2656C33.0645 31.2656 32.957 31.3731 32.957 31.5056C32.957 31.6382 33.0645 31.7456 33.197 31.7456Z" fill="#85340A"/>
<path d="M33.9062 31.6666C33.4396 32.0266 32.9729 31.9999 32.7063 31.8399C32.4396 31.6666 32.4396 31.6133 32.4929 31.6133C32.5462 31.6133 32.5996 31.6666 32.8129 31.7866C33.0396 31.8933 33.3596 31.8933 33.9062 31.6666Z" fill="#85340A"/>
<path d="M31.4671 32.4922C31.43 32.5009 31.3956 32.5184 31.3666 32.5431C31.3376 32.5677 31.315 32.599 31.3004 32.6341C31.2859 32.6693 31.2799 32.7075 31.2831 32.7454C31.2862 32.7833 31.2983 32.82 31.3183 32.8523C31.3384 32.8847 31.3659 32.9118 31.3985 32.9314C31.4311 32.951 31.4679 32.9626 31.5059 32.9652C31.5439 32.9678 31.5819 32.9613 31.6169 32.9463C31.6519 32.9313 31.6828 32.9082 31.7071 32.8789C31.795 32.9334 31.8969 32.9612 32.0004 32.9589H32.0271C32.1071 32.9589 32.2404 32.9455 32.3337 32.8789C32.3737 32.9455 32.4537 32.9722 32.5337 32.9722C32.5974 32.9775 32.6606 32.9573 32.7093 32.916C32.7581 32.8748 32.7884 32.8158 32.7937 32.7522C32.7991 32.6885 32.7789 32.6254 32.7376 32.5766C32.6963 32.5279 32.6374 32.4975 32.5737 32.4922C32.6404 32.5189 32.6804 32.5722 32.6804 32.6522C32.6804 32.6946 32.6636 32.7353 32.6336 32.7653C32.6035 32.7953 32.5628 32.8122 32.5204 32.8122C32.478 32.8122 32.4373 32.7953 32.4073 32.7653C32.3773 32.7353 32.3604 32.6946 32.3604 32.6522C32.3288 32.718 32.2798 32.7739 32.2187 32.8139C32.1576 32.8538 32.0867 32.8763 32.0137 32.8789C31.9431 32.874 31.875 32.8504 31.8164 32.8106C31.7579 32.7708 31.7109 32.7161 31.6804 32.6522C31.6804 32.7455 31.6004 32.8122 31.5071 32.8122C31.4271 32.8122 31.3471 32.7322 31.3471 32.6522C31.3471 32.5722 31.3871 32.5189 31.4537 32.4922H31.4671ZM31.7337 33.2122C31.4537 33.2122 31.3337 33.4789 31.0938 33.6255C31.2271 33.5722 31.3337 33.4655 31.5337 33.3589C31.7204 33.2522 31.8804 33.3855 32.0004 33.3855C32.1071 33.3855 32.2671 33.2522 32.4671 33.3589C32.6537 33.4655 32.7737 33.5722 32.9071 33.6255C32.6537 33.4655 32.5471 33.2255 32.2671 33.2255C32.2137 33.2255 32.1071 33.2522 32.0004 33.3055L31.7337 33.2122Z" fill="#85340A"/>
<path d="M31.6252 33.5472C31.5185 33.5472 31.3852 33.5739 31.1719 33.6272C31.6652 33.5206 31.7719 33.6939 31.9985 33.6939C32.2119 33.6939 32.3319 33.5206 32.8119 33.6272C32.2785 33.4672 32.1585 33.5739 31.9985 33.5739C31.8919 33.5739 31.8119 33.5339 31.6252 33.5472Z" fill="#85340A"/>
<path d="M31.2004 33.6265H31.0938C31.6671 33.6932 31.4004 34.0265 32.0004 34.0265C32.6004 34.0265 32.3337 33.6932 32.9071 33.6265C32.3071 33.5732 32.4937 33.9332 32.0004 33.9332C31.5337 33.9332 31.6804 33.6265 31.2004 33.6265Z" fill="#85340A"/>
<path d="M32.4906 34.5207C32.4906 34.3898 32.4386 34.2644 32.3461 34.1718C32.2536 34.0793 32.1281 34.0273 31.9972 34.0273C31.8664 34.0273 31.7409 34.0793 31.6484 34.1718C31.5559 34.2644 31.5039 34.3898 31.5039 34.5207C31.53 34.4094 31.5929 34.3102 31.6824 34.2391C31.772 34.1681 31.8829 34.1295 31.9972 34.1295C32.1115 34.1295 32.2225 34.1681 32.312 34.2391C32.4016 34.3102 32.4645 34.4094 32.4906 34.5207Z" fill="#85340A"/>
<path d="M29.7852 31.2409C30.4118 30.6942 31.2118 30.6009 31.6518 31.0142C31.7531 31.1475 31.8217 31.3028 31.8518 31.4676C31.9052 31.7876 31.8118 32.1209 31.5718 32.4676L31.6785 32.5209C31.8918 32.1076 31.9718 31.6809 31.8918 31.2676L31.8118 30.9609C31.2118 30.4676 30.3852 30.4276 29.7852 31.2276V31.2409Z" fill="#85340A"/>
<path d="M30.771 31.0664C31.131 31.0664 31.211 31.1464 31.371 31.2931C31.531 31.4264 31.6243 31.3997 31.6377 31.4264C31.6777 31.4531 31.6377 31.5331 31.5977 31.5064C31.531 31.4797 31.4243 31.4264 31.2643 31.2931C31.1043 31.1597 30.931 31.1597 30.771 31.1597C30.2777 31.1597 30.011 31.5597 29.9577 31.5331C29.891 31.5064 30.2243 31.0664 30.771 31.0664Z" fill="#85340A"/>
<path d="M30.7445 31.2383C30.5179 31.2383 30.2779 31.3449 30.1445 31.5583C30.4112 31.8116 31.0245 31.8249 31.4379 31.5316C31.3505 31.4389 31.2451 31.3651 31.1282 31.3146C31.0113 31.2642 30.8852 31.2382 30.7579 31.2383H30.7445ZM30.7445 31.2916C30.9845 31.2916 31.2112 31.3983 31.2379 31.5049C30.9712 31.8116 30.5312 31.7716 30.2512 31.5583C30.3845 31.3716 30.5712 31.2916 30.7579 31.2916H30.7445Z" fill="#843511"/>
<path d="M30.7869 31.7456C30.9194 31.7456 31.0269 31.6382 31.0269 31.5056C31.0269 31.3731 30.9194 31.2656 30.7869 31.2656C30.6543 31.2656 30.5469 31.3731 30.5469 31.5056C30.5469 31.6382 30.6543 31.7456 30.7869 31.7456Z" fill="#85340A"/>
<path d="M30.1172 31.6666C30.5839 32.0266 31.0505 31.9999 31.3172 31.8399C31.5839 31.6666 31.5839 31.6133 31.5305 31.6133C31.4772 31.6133 31.4239 31.6666 31.2105 31.7866C30.9839 31.8933 30.6639 31.8933 30.1172 31.6666Z" fill="#85340A"/>
</g>
</g>
</g>
<defs>
<clipPath id="clip0_423_6742">
<rect width="64" height="64" rx="32" fill="white"/>
</clipPath>
<clipPath id="clip1_423_6742">
<rect width="64" height="64" fill="white"/>
</clipPath>
<clipPath id="clip2_423_6742">
<rect width="85.3333" height="64" fill="white" transform="translate(-10.668)"/>
</clipPath>
</defs>
</svg>
