<svg width="64" height="64" viewBox="0 0 64 64" fill="none" xmlns="http://www.w3.org/2000/svg">
<g clip-path="url(#clip0_423_25513)">
<g clip-path="url(#clip1_423_25513)">
<g clip-path="url(#clip2_423_25513)">
<path d="M-10.668 0H74.6654V64H-10.668V0Z" fill="#00008B"/>
<path d="M-5.66797 0L10.5987 12.0667L26.7987 0H31.9987V4.13333L15.9987 16.0667L31.9987 27.9333V32H26.6654L10.6654 20.0667L-5.26797 32H-10.668V28L5.26537 16.1333L-10.668 4.26667V0H-5.66797Z" fill="black"/>
<path d="M17.5987 18.7333L31.9987 29.3333V32L13.932 18.7333H17.5987ZM5.33203 20.0667L5.73203 22.4L-7.06797 32H-10.668L5.33203 20.0667ZM31.9987 0V0.2L15.3987 12.7333L15.532 9.8L28.6654 0H31.9987ZM-10.668 0L5.26537 11.7333H1.26537L-10.668 2.8V0Z" fill="#FF0000"/>
<path d="M5.3987 0V32H16.0654V0H5.3987ZM-10.668 10.6667V21.3333H31.9987V10.6667H-10.668Z" fill="black"/>
<path d="M-10.668 12.8667V19.2667H31.9987V12.8667H-10.668ZM7.53203 0V32H13.932V0H7.53203Z" fill="#FF0000"/>
<path d="M59.5992 52.8944L56.8658 53.2411L57.1592 55.9744L55.1858 54.0544L53.2258 55.9878L53.4925 53.2544L50.7592 52.9344L53.0658 51.4411L51.6125 49.1078L54.2258 49.9744L55.1458 47.3744L56.0925 49.9611L58.6925 49.0678L57.2658 51.4144L59.5992 52.8944ZM59.1058 37.2678L59.4658 35.5344L58.1592 34.3344L59.9192 34.1344L60.6525 32.5211L61.3858 34.1344L63.1458 34.3344L61.8392 35.5344L62.1992 37.2678L60.6525 36.3878L59.1058 37.2678ZM45.2258 29.2678L42.5192 29.5611L42.7592 32.2678L40.8392 30.3344L38.8658 32.2144L39.1858 29.5078L36.4925 29.1478L38.7992 27.7078L37.3992 25.3744L39.9725 26.2811L40.9325 23.7344L41.8258 26.3078L44.4125 25.4678L42.9592 27.7744L45.2392 29.2678H45.2258ZM72.3992 24.8944L69.6125 25.2544L69.9192 28.0411L67.9058 26.0811L65.9058 28.0544L66.1858 25.2544L63.3992 24.9344L65.7592 23.4011L64.2792 21.0144L66.9458 21.9078L67.8792 19.2678L68.8392 21.9078L71.4925 20.9878L70.0258 23.3878L72.3992 24.8944ZM59.5858 13.7611L56.8258 14.0678L57.0792 16.8411L55.1192 14.8678L53.1058 16.7878L53.4258 14.0278L50.6658 13.6544L53.0258 12.1878L51.5992 9.80109L54.2258 10.7211L55.1992 8.12109L56.1058 10.7478L58.7458 9.88109L57.2658 12.2278L59.5858 13.7611ZM20.5325 51.4278L14.4258 52.1478L15.0392 58.2678L10.6658 53.9478L6.26583 58.2411L6.91917 52.1211L0.8125 51.3478L5.99917 48.0411L2.79917 42.7878L8.6125 44.7878L10.7192 39.0011L12.7858 44.8011L18.6125 42.8411L15.3725 48.0678L20.5458 51.4144L20.5325 51.4278Z" fill="black"/>
</g>
</g>
</g>
<defs>
<clipPath id="clip0_423_25513">
<rect width="64" height="64" rx="32" fill="white"/>
</clipPath>
<clipPath id="clip1_423_25513">
<rect width="64" height="64" fill="white"/>
</clipPath>
<clipPath id="clip2_423_25513">
<rect width="85.3333" height="64" fill="white" transform="translate(-10.668)"/>
</clipPath>
</defs>
</svg>
