<svg width="85" height="56" viewBox="0 0 85 56" fill="none" xmlns="http://www.w3.org/2000/svg">
<g clip-path="url(#clip0_423_24498)">
<rect width="84.31" height="56" fill="#CFCFCF"/>
<g clip-path="url(#clip1_423_24498)">
<g clip-path="url(#clip2_423_24498)">
<g clip-path="url(#clip3_423_24498)">
<path d="M27.5347 29.6309C27.0894 29.8153 26.7284 29.879 26.4791 30.0815C24.8976 31.3604 23.3395 32.6666 21.7788 33.9702C21.401 34.2858 21.0283 34.5935 20.5025 34.3377C20.0091 34.0976 20 33.6379 20 33.1678C20.0039 27.9105 19.9974 22.6532 20.0039 17.3959C20.0078 14.2577 22.1775 12.0815 25.3092 12.0737C29.2681 12.0646 33.227 12.0633 37.1872 12.0737C40.2787 12.0815 42.438 14.2538 42.4653 17.357C42.4692 17.7426 42.4653 18.1283 42.4653 18.6191C43.2716 18.6191 44.0195 18.6061 44.766 18.6216C47.4837 18.6801 49.478 20.368 49.9338 22.9961C49.9883 23.3128 49.9948 23.6413 49.9948 23.9647C49.9987 29.5245 49.9948 35.0856 50 40.6454C50 41.1401 49.9883 41.6115 49.4533 41.853C48.9379 42.0854 48.5899 41.7634 48.2381 41.4713C46.6877 40.1897 45.1504 38.8913 43.578 37.6357C43.3053 37.4176 42.8911 37.2722 42.5419 37.2683C39.362 37.241 36.1809 37.2552 33.0011 37.2514C29.6512 37.2475 27.5412 35.1284 27.5321 31.7655C27.5308 31.1229 27.5321 30.4788 27.5321 29.6296L27.5347 29.6309ZM21.7684 31.6811C23.1331 30.5516 24.3575 29.5661 25.5481 28.539C26.0052 28.1442 26.483 27.9924 27.0803 27.9962C30.4121 28.0157 33.7437 28.0131 37.0755 28.0028C39.34 27.9962 40.7098 26.62 40.7189 24.3529C40.7279 22.0807 40.7254 19.8097 40.7189 17.5375C40.7124 15.1925 39.3517 13.8279 37.0106 13.824C33.1595 13.8188 29.3084 13.8188 25.4573 13.824C23.0941 13.8266 21.7697 15.1627 21.7672 17.5401C21.7633 21.9755 21.7672 26.4109 21.7672 30.845C21.7672 31.0579 21.7672 31.2709 21.7672 31.6811H21.7684ZM42.5068 20.4096V23.2167C42.5847 23.2531 42.6223 23.2869 42.6613 23.2882C43.2014 23.2999 43.7429 23.2973 44.2817 23.3193C44.892 23.3427 45.292 23.6972 45.2945 24.1918C45.2971 24.6866 44.892 25.0514 44.2921 25.0696C43.8169 25.0839 43.3391 25.0527 42.8652 25.0878C42.7107 25.0994 42.4731 25.2202 42.4328 25.3436C42.2549 25.8851 42.1342 26.446 41.9757 27.0692C42.7315 27.0692 43.4417 27.0601 44.1519 27.0717C44.8738 27.0821 45.2945 27.4146 45.2958 27.9456C45.2958 28.478 44.8699 28.8116 44.1532 28.8168C43.0287 28.8247 41.9031 28.8103 40.7787 28.8272C40.5293 28.8311 40.2424 28.8636 40.0411 28.9908C39.0867 29.592 38.0468 29.7712 36.9405 29.7634C34.5825 29.7465 32.2233 29.7686 29.8654 29.7505C29.4135 29.7465 29.2409 29.8855 29.2733 30.3425C29.3058 30.7944 29.2798 31.2501 29.2798 31.7045C29.2863 34.1677 30.625 35.5037 33.0985 35.505C36.4081 35.5076 39.7191 35.4881 43.0287 35.5271C43.4819 35.5323 44.0013 35.7348 44.37 36.0088C45.3582 36.7437 46.28 37.5669 47.2304 38.3525C47.52 38.5927 47.8186 38.8225 48.1446 39.0808C48.19 38.9316 48.2237 38.8718 48.2237 38.8134C48.2237 33.708 48.251 28.6013 48.2043 23.4959C48.19 21.8547 46.8916 20.5693 45.2296 20.4226C44.3518 20.346 43.4624 20.4096 42.5055 20.4096H42.5068Z" fill="white"/>
<path d="M34.4547 19.2665C34.3885 20.3546 33.8224 21.3387 32.6473 21.9179C32.3448 22.0671 32.1695 22.2178 32.0331 22.567C31.928 22.8397 31.4554 23.1462 31.1697 23.1241C30.8893 23.102 30.5244 22.7307 30.4062 22.4307C30.2725 22.0944 30.3374 21.6607 30.3815 21.2777C30.4504 20.6934 30.8893 20.5558 31.4047 20.487C32.189 20.3831 32.707 19.7703 32.7005 19.0289C32.6941 18.316 32.163 17.7058 31.445 17.5902C30.6776 17.4656 29.9791 17.9823 29.7973 18.8081C29.7505 19.0172 29.774 19.3223 29.6441 19.4158C29.3584 19.6235 28.991 19.8495 28.6651 19.8378C28.2002 19.8209 28.0133 19.4093 28.0081 18.9458C27.9834 17.0981 29.8129 15.5751 31.7137 15.8633C33.3109 16.1061 34.4859 17.4759 34.4547 19.2665Z" fill="white"/>
<path d="M32.1018 25.1007C32.1175 25.5784 31.7604 25.9692 31.2839 25.9939C30.7762 26.0199 30.3685 25.6356 30.3672 25.1318C30.3672 24.6514 30.7372 24.2761 31.219 24.2697C31.702 24.2619 32.085 24.6228 32.1018 25.1007Z" fill="white"/>
<path d="M38.8328 30.8181C40.5415 30.8181 42.2502 30.8181 43.9576 30.8194C44.1732 30.8194 44.4524 30.7622 44.59 30.8727C44.8665 31.0934 45.2223 31.3972 45.2483 31.692C45.2703 31.9452 44.9107 32.2749 44.6535 32.4904C44.5185 32.6047 44.2394 32.5658 44.0251 32.5658C40.522 32.5696 37.0189 32.5696 33.5145 32.5658C33.321 32.5658 33.121 32.5696 32.9354 32.5243C32.4744 32.4126 32.1641 32.0685 32.2835 31.6335C32.3667 31.3271 32.7172 31.0609 33.0055 30.857C33.1535 30.7519 33.4248 30.8168 33.6404 30.8155C35.3699 30.813 37.1007 30.8155 38.8302 30.8155L38.8328 30.8181Z" fill="white"/>
</g>
</g>
</g>
<mask id="path-5-inside-1_423_24498" fill="white">
<path d="M-19.8008 -14.2188L3.69154 -22.7692L20.7925 24.2154L-2.69979 32.7659L-19.8008 -14.2188Z"/>
</mask>
<path d="M-19.8008 -14.2188L-28.3513 -37.7111L-51.8436 -29.1606L-43.2931 -5.66825L-19.8008 -14.2188ZM-2.69979 32.7659L-26.1921 41.3164L-17.6416 64.8087L5.85071 56.2582L-2.69979 32.7659ZM-11.2503 9.27357L12.242 0.723071L-4.85896 -46.2616L-28.3513 -37.7111L-11.2503 9.27357ZM12.242 0.723071L-11.2503 9.27357L5.85071 56.2582L29.343 47.7077L12.242 0.723071ZM20.7925 24.2154L3.69154 -22.7692L-43.2931 -5.66825L-26.1921 41.3164L20.7925 24.2154Z" fill="url(#paint0_diamond_423_24498)" mask="url(#path-5-inside-1_423_24498)"/>
<mask id="path-7-inside-2_423_24498" fill="white">
<path d="M-2.69922 23.2305L20.7931 31.781L3.69211 78.7656L-19.8002 70.2151L-2.69922 23.2305Z"/>
</mask>
<path d="M-2.69922 23.2305L5.85128 -0.26185L-17.641 -8.81235L-26.1915 14.68L-2.69922 23.2305ZM-19.8002 70.2151L-43.2925 61.6646L-51.843 85.1569L-28.3507 93.7074L-19.8002 70.2151ZM-11.2497 46.7228L12.2426 55.2733L29.3436 8.28865L5.85128 -0.26185L-11.2497 46.7228ZM12.2426 55.2733L-11.2497 46.7228L-28.3507 93.7074L-4.85839 102.258L12.2426 55.2733ZM3.69211 78.7656L20.7931 31.781L-26.1915 14.68L-43.2925 61.6646L3.69211 78.7656Z" fill="url(#paint1_diamond_423_24498)" mask="url(#path-7-inside-2_423_24498)"/>
</g>
<defs>
<radialGradient id="paint0_diamond_423_24498" cx="0" cy="0" r="1" gradientUnits="userSpaceOnUse" gradientTransform="translate(-11.2503 9.27357) rotate(-20) scale(25 25)">
<stop offset="1" stop-color="#606060"/>
<stop offset="1" stop-opacity="0"/>
</radialGradient>
<radialGradient id="paint1_diamond_423_24498" cx="0" cy="0" r="1" gradientUnits="userSpaceOnUse" gradientTransform="translate(-11.2497 46.7228) rotate(20) scale(25 25)">
<stop offset="1" stop-color="#606060"/>
<stop offset="1" stop-opacity="0"/>
</radialGradient>
<clipPath id="clip0_423_24498">
<rect width="84.31" height="56" fill="white"/>
</clipPath>
<clipPath id="clip1_423_24498">
<rect width="30" height="30" fill="white" transform="translate(20 12)"/>
</clipPath>
<clipPath id="clip2_423_24498">
<rect width="30" height="30" fill="white" transform="translate(20 12)"/>
</clipPath>
<clipPath id="clip3_423_24498">
<rect width="30" height="30" fill="white" transform="translate(20 12)"/>
</clipPath>
</defs>
</svg>
