<svg width="20" height="21" viewBox="0 0 20 21" fill="none" xmlns="http://www.w3.org/2000/svg">
<rect y="0.941406" width="20" height="20" rx="10" fill="#30A7BF"/>
<path fill-rule="evenodd" clip-rule="evenodd" d="M15.3623 6.26266C15.4251 6.31036 15.4779 6.36999 15.5177 6.43812C15.5575 6.50626 15.5834 6.58157 15.594 6.65974C15.6047 6.73791 15.5998 6.81741 15.5796 6.89368C15.5595 6.96996 15.5245 7.04152 15.4767 7.10426L9.0767 15.5043C9.02478 15.5723 8.95891 15.6285 8.88351 15.6689C8.80811 15.7094 8.72492 15.7333 8.63952 15.739C8.55412 15.7447 8.4685 15.732 8.3884 15.7019C8.3083 15.6718 8.23557 15.6248 8.1751 15.5643L4.5751 11.9643C4.46911 11.8505 4.41141 11.7001 4.41416 11.5446C4.4169 11.3892 4.47987 11.2409 4.5898 11.131C4.69973 11.021 4.84804 10.9581 5.00348 10.9553C5.15892 10.9526 5.30936 11.0103 5.4231 11.1163L8.5383 14.2307L14.5223 6.37706C14.6186 6.25062 14.7611 6.16756 14.9186 6.14612C15.0761 6.12467 15.2357 6.16658 15.3623 6.26266Z" fill="white"/>
</svg>
