<svg width="85" height="56" viewBox="0 0 85 56" fill="none" xmlns="http://www.w3.org/2000/svg">
<g clip-path="url(#clip0_423_24486)">
<rect width="84.31" height="56" fill="#B529AC"/>
<g clip-path="url(#clip1_423_24486)">
<g clip-path="url(#clip2_423_24486)">
<g clip-path="url(#clip3_423_24486)">
<path d="M35.5306 32.5585C34.7437 33.3831 33.9372 34.2545 33.0996 35.096C31.2529 36.9518 29.4062 38.8101 27.5271 40.6347C26.257 41.8684 24.7311 42.2489 23.0363 41.6919C21.365 41.1425 20.3741 39.9477 20.0819 38.2257C19.83 36.7349 20.3157 35.4518 21.3819 34.3882C23.8038 31.974 26.2245 29.5599 28.6569 27.1547C28.8997 26.9145 29.2088 26.7405 29.4633 26.5093C29.1153 25.9938 28.8777 25.821 28.3543 25.9106C25.6103 26.3807 23.2818 25.56 21.5403 23.3796C19.8066 21.2108 19.5858 18.7785 20.6299 16.2292C21.1001 15.0825 21.6883 14.9721 22.5623 15.8331C23.5026 16.7591 24.4324 17.6967 25.3726 18.6239C25.9064 19.1512 26.3804 19.2096 26.7803 18.8135C27.1738 18.4239 27.1219 17.9071 26.6154 17.398C25.6544 16.4318 24.6804 15.476 23.7168 14.5124C22.9961 13.7904 23.0922 13.1579 24.0181 12.754C26.5622 11.645 29.0218 11.7943 31.2581 13.4774C33.4918 15.1578 34.3671 17.4603 33.9398 20.2239C33.8645 20.7096 33.9502 21.029 34.3086 21.3589C34.7515 21.7654 35.132 22.2394 35.5332 22.6783C37.1851 20.9953 38.7396 19.4122 40.3278 17.7941C40.3513 17.8577 40.3473 17.8097 40.3213 17.7824C39.2266 16.611 39.2578 16.35 40.6551 15.5046C42.4148 14.441 44.1927 13.4086 45.9445 12.3346C46.5458 11.9658 47.0172 12.0242 47.4977 12.5268C48.1859 13.2462 48.8976 13.9436 49.6119 14.6358C50.0743 15.0838 50.1093 15.5331 49.7729 16.0838C48.6301 17.946 47.5184 19.8278 46.3834 21.6953C45.7848 22.6796 45.338 22.7276 44.5056 21.9316C44.4134 21.8433 44.3147 21.7628 44.2303 21.6874C42.6602 23.2848 41.1071 24.8639 39.4344 26.5652C39.9292 27.0158 40.485 27.5547 41.0824 28.0443C41.2058 28.1456 41.485 28.0962 41.681 28.0599C46.1186 27.2275 50.2002 30.6832 49.9924 35.1881C49.9482 36.1544 49.5989 37.1297 49.2586 38.0517C48.9626 38.8556 48.2886 38.9426 47.6704 38.3439C46.6614 37.3647 45.6731 36.3622 44.6718 35.3752C44.1355 34.8453 43.6667 34.7856 43.2654 35.1804C42.8693 35.5687 42.9187 36.0855 43.4238 36.5946C44.3693 37.5465 45.3251 38.4894 46.2744 39.4361C47.0639 40.2244 46.9756 40.836 45.9679 41.2672C43.4407 42.3503 40.9992 42.1879 38.7864 40.5218C36.554 38.8413 35.6748 36.5401 36.0994 33.7766C36.1786 33.2636 36.128 32.8896 35.5293 32.5585H35.5306ZM21.9533 17.7253C21.8896 18.0876 21.8338 18.3148 21.813 18.5447C21.4676 22.2134 24.7713 25.012 28.392 24.0939C29.04 23.9289 29.5309 23.9743 30.0322 24.4809C32.5113 26.9898 35.0098 29.4806 37.5267 31.952C38.0215 32.4376 38.1435 32.8961 37.95 33.5675C37.1501 36.3375 38.8266 39.2581 41.6109 40.0023C42.4732 40.2322 43.3446 40.2763 44.2952 39.9789C44.0952 39.766 43.9537 39.6088 43.8057 39.4595C43.2096 38.862 42.6031 38.2737 42.0174 37.6673C41.4135 37.0414 41.1084 36.2934 41.2564 35.418C41.4239 34.4246 41.9836 33.7013 42.9342 33.3584C43.9251 33.0012 44.8679 33.1558 45.6523 33.8882C46.4523 34.6349 47.2184 35.4155 48.0834 36.2635C48.147 35.9297 48.2016 35.7233 48.2236 35.5141C48.621 31.8286 45.2913 28.969 41.6499 29.9066C40.9265 30.0923 40.4369 29.9469 39.9188 29.4221C37.4721 26.9418 35.0021 24.4847 32.5152 22.0446C32.0191 21.5576 31.9139 21.0992 32.0918 20.4265C32.6684 18.246 32.0373 16.3942 30.3192 14.9669C29.0153 13.8839 27.492 13.5813 25.7271 13.9968C25.9479 14.2319 26.0882 14.389 26.2375 14.5384C26.8336 15.1358 27.4414 15.7227 28.0271 16.3292C28.6309 16.9552 28.9361 17.7032 28.7868 18.5785C28.6179 19.5719 28.0621 20.2966 27.1089 20.6381C26.1167 20.9927 25.1752 20.842 24.3908 20.1083C23.5909 19.3616 22.8247 18.5798 21.9546 17.7253H21.9533ZM30.5919 27.6287C29.8543 28.3871 29.153 29.1222 28.4348 29.8417C26.4934 31.7858 24.5311 33.7104 22.6013 35.6674C21.3936 36.8933 21.5429 38.6933 22.8896 39.6881C23.9441 40.4672 25.3596 40.3139 26.4206 39.2647C28.9595 36.7543 31.4841 34.2298 34.0125 31.7091C34.1294 31.5923 34.2242 31.4546 34.2917 31.374C33.0619 30.13 31.8658 28.9196 30.5906 27.6287H30.5919ZM41.9888 16.7539C43.1109 17.8967 44.1783 18.9836 45.2809 20.1083C46.1458 18.6811 47.0211 17.25 47.8717 15.8046C47.938 15.6916 47.886 15.4254 47.7912 15.3163C47.4652 14.9423 47.1107 14.5903 46.7328 14.2696C46.6263 14.1787 46.3601 14.1501 46.2419 14.2202C44.8069 15.0565 43.3861 15.9175 41.9888 16.7552V16.7539ZM42.7784 20.3706C42.4356 19.9823 42.0693 19.5693 41.7681 19.2278C40.1473 20.8498 38.5798 22.4199 37.0462 23.9561C37.3735 24.3172 37.7332 24.7146 38.1007 25.1211C39.6915 23.5056 41.2382 21.9355 42.7784 20.3706Z" fill="white"/>
<path d="M30.6872 30.5005C31.4482 30.4797 31.8859 31.12 31.6054 31.7043C31.5144 31.8927 31.3599 32.0589 31.2093 32.2096C29.573 33.8446 27.9328 35.4743 26.2926 37.1055C26.2004 37.1963 26.1134 37.2963 26.0082 37.3703C25.6017 37.6587 25.1861 37.6587 24.8342 37.3015C24.481 36.9431 24.4446 36.4977 24.8004 36.1392C26.6108 34.312 28.4393 32.503 30.2704 30.6979C30.3976 30.5732 30.6106 30.5356 30.6872 30.5005Z" fill="white"/>
</g>
</g>
</g>
<mask id="path-3-inside-1_423_24486" fill="white">
<path d="M-19.8008 -14.2188L3.69154 -22.7692L20.7925 24.2154L-2.69979 32.7659L-19.8008 -14.2188Z"/>
</mask>
<path d="M-19.8008 -14.2188L-28.3513 -37.7111L-51.8436 -29.1606L-43.2931 -5.66825L-19.8008 -14.2188ZM-2.69979 32.7659L-26.1921 41.3164L-17.6416 64.8087L5.85071 56.2582L-2.69979 32.7659ZM-11.2503 9.27357L12.242 0.723071L-4.85896 -46.2616L-28.3513 -37.7111L-11.2503 9.27357ZM12.242 0.723071L-11.2503 9.27357L5.85071 56.2582L29.343 47.7077L12.242 0.723071ZM20.7925 24.2154L3.69154 -22.7692L-43.2931 -5.66825L-26.1921 41.3164L20.7925 24.2154Z" fill="url(#paint0_diamond_423_24486)" mask="url(#path-3-inside-1_423_24486)"/>
<mask id="path-5-inside-2_423_24486" fill="white">
<path d="M-2.69922 23.2305L20.7931 31.781L3.69211 78.7656L-19.8002 70.2151L-2.69922 23.2305Z"/>
</mask>
<path d="M-2.69922 23.2305L5.85128 -0.26185L-17.641 -8.81235L-26.1915 14.68L-2.69922 23.2305ZM-19.8002 70.2151L-43.2925 61.6646L-51.843 85.1569L-28.3507 93.7074L-19.8002 70.2151ZM-11.2497 46.7228L12.2426 55.2733L29.3436 8.28865L5.85128 -0.26185L-11.2497 46.7228ZM12.2426 55.2733L-11.2497 46.7228L-28.3507 93.7074L-4.85839 102.258L12.2426 55.2733ZM3.69211 78.7656L20.7931 31.781L-26.1915 14.68L-43.2925 61.6646L3.69211 78.7656Z" fill="url(#paint1_diamond_423_24486)" mask="url(#path-5-inside-2_423_24486)"/>
</g>
<defs>
<radialGradient id="paint0_diamond_423_24486" cx="0" cy="0" r="1" gradientUnits="userSpaceOnUse" gradientTransform="translate(-11.2503 9.27357) rotate(-20) scale(25 25)">
<stop offset="1" stop-color="#606060"/>
<stop offset="1" stop-opacity="0"/>
</radialGradient>
<radialGradient id="paint1_diamond_423_24486" cx="0" cy="0" r="1" gradientUnits="userSpaceOnUse" gradientTransform="translate(-11.2497 46.7228) rotate(20) scale(25 25)">
<stop offset="1" stop-color="#606060"/>
<stop offset="1" stop-opacity="0"/>
</radialGradient>
<clipPath id="clip0_423_24486">
<rect width="84.31" height="56" fill="white"/>
</clipPath>
<clipPath id="clip1_423_24486">
<rect width="30" height="30" fill="white" transform="translate(20 12)"/>
</clipPath>
<clipPath id="clip2_423_24486">
<rect width="30" height="30" fill="white" transform="translate(20 12)"/>
</clipPath>
<clipPath id="clip3_423_24486">
<rect width="30" height="30" fill="white" transform="translate(20 12)"/>
</clipPath>
</defs>
</svg>
