<svg width="20" height="21" viewBox="0 0 20 21" fill="none" xmlns="http://www.w3.org/2000/svg">
<rect y="0.941406" width="20" height="20" rx="10" fill="#606060"/>
<path d="M7.02334 7.11806C6.9096 7.01208 6.75916 6.95438 6.60372 6.95712C6.44828 6.95987 6.29997 7.02284 6.19004 7.13277C6.08011 7.2427 6.01714 7.39101 6.0144 7.54645C6.01166 7.70189 6.06936 7.85232 6.17534 7.96606L9.15134 10.9421L6.17534 13.9181C6.11639 13.973 6.06911 14.0392 6.03632 14.1128C6.00352 14.1864 5.98589 14.2659 5.98447 14.3464C5.98305 14.427 5.99787 14.507 6.02804 14.5817C6.05822 14.6565 6.10314 14.7243 6.16011 14.7813C6.21709 14.8383 6.28495 14.8832 6.35966 14.9134C6.43437 14.9435 6.5144 14.9584 6.59496 14.9569C6.67552 14.9555 6.75497 14.9379 6.82857 14.9051C6.90217 14.8723 6.96841 14.825 7.02334 14.7661L9.99934 11.7901L12.9753 14.7661C13.0303 14.825 13.0965 14.8723 13.1701 14.9051C13.2437 14.9379 13.3232 14.9555 13.4037 14.9569C13.4843 14.9584 13.5643 14.9435 13.639 14.9134C13.7137 14.8832 13.7816 14.8383 13.8386 14.7813C13.8955 14.7243 13.9405 14.6565 13.9706 14.5817C14.0008 14.507 14.0156 14.427 14.0142 14.3464C14.0128 14.2659 13.9952 14.1864 13.9624 14.1128C13.9296 14.0392 13.8823 13.973 13.8233 13.9181L10.8473 10.9421L13.8233 7.96606C13.9293 7.85232 13.987 7.70189 13.9843 7.54645C13.9815 7.39101 13.9186 7.2427 13.8086 7.13277C13.6987 7.02284 13.5504 6.95987 13.395 6.95712C13.2395 6.95438 13.0891 7.01208 12.9753 7.11806L9.99934 10.0941L7.02334 7.11806Z" fill="white"/>
</svg>
