<svg width="128" height="128" viewBox="0 0 128 128" fill="none" xmlns="http://www.w3.org/2000/svg">
<rect width="128" height="128" rx="64" fill="#CFCFCF"/>
<g clip-path="url(#clip0_423_4658)">
<g clip-path="url(#clip1_423_4658)">
<path d="M78.0749 44.2999C78.0698 42.0185 76.6669 40.6139 74.399 40.6105C69.7367 40.6021 65.0745 40.6105 60.4139 40.6055C58.9334 40.6055 57.6789 41.1181 56.6318 42.1669C54.9861 43.8176 53.3505 45.4785 51.6728 47.0973C50.4655 48.259 49.909 49.6248 49.9141 51.306C49.9394 59.3658 49.9242 67.4275 49.9276 75.4874C49.9276 78.0538 51.263 79.3909 53.8159 79.3926C60.5842 79.3943 67.3525 79.3926 74.1208 79.3926C76.7478 79.3926 78.0766 78.079 78.0783 75.474C78.0815 70.3344 78.0783 65.195 78.0783 60.0555C78.0783 54.803 78.0849 49.5523 78.0749 44.2999ZM75.7902 59.9948C75.7902 65.136 75.7917 70.2754 75.7902 75.4166C75.7902 76.8044 75.4815 77.1197 74.1174 77.1197C67.3761 77.1213 60.6348 77.1213 53.8918 77.1197C52.5243 77.1197 52.214 76.806 52.214 75.4233C52.2123 67.3904 52.2208 59.3558 52.2039 51.3228C52.2022 50.2689 52.5395 49.4326 53.2982 48.7008C54.9338 47.1192 56.5441 45.5106 58.1359 43.8868C58.8086 43.2005 59.5792 42.8751 60.5387 42.8784C65.0897 42.8919 69.6406 42.8818 74.1899 42.8852C75.4511 42.8852 75.7868 43.2224 75.7885 44.4904C75.7934 49.6586 75.7902 54.8284 75.7902 59.9965V59.9948Z" fill="white"/>
<path d="M72.7498 56.6399C72.7397 54.6756 71.6841 53.6218 69.7283 53.6184C65.9107 53.6116 62.0932 53.6116 58.274 53.6184C56.3198 53.6218 55.2558 54.6773 55.2524 56.6383C55.244 61.4389 55.244 66.2393 55.2524 71.0399C55.2558 73.0633 56.2911 74.0953 58.3162 74.0986C62.1067 74.1054 65.8955 74.1054 69.6861 74.0986C71.7146 74.0953 72.7431 73.0684 72.7515 71.0416C72.7616 68.6557 72.7532 66.2698 72.7532 63.8838C72.7532 61.4692 72.7616 59.0546 72.7498 56.6416V56.6399ZM67.4873 55.9318C68.3237 55.9318 69.0757 55.9453 69.826 55.9267C70.3083 55.915 70.4701 56.1561 70.4634 56.5945C70.4566 57.0666 70.4634 57.5387 70.4634 58.0867H67.4873V55.9318ZM59.4257 55.9318C59.7579 55.9318 60.0917 55.9318 60.5301 55.9318V58.0934H57.6552C57.6215 58.0345 57.5726 57.9906 57.5692 57.9418C57.4613 56.6007 58.0801 55.9306 59.4257 55.9318ZM60.5116 71.8004C59.6786 71.8004 58.8473 71.8256 58.0228 71.7785C57.8559 71.7683 57.5895 71.4935 57.5709 71.3198C57.5119 70.7752 57.549 70.2187 57.549 69.6168H60.5116V71.8021V71.8004ZM57.5895 67.2106V65.0709H60.5099V67.2106H57.5895ZM65.1401 68.9221C65.1351 69.8444 65.1401 70.7667 65.1401 71.7465H62.9094C62.8942 71.4699 62.8672 71.1766 62.8672 70.8814C62.8638 68.6928 62.8706 66.5024 62.8621 64.3138C62.857 63.0744 62.4878 62.7152 61.2484 62.7103C60.0479 62.7069 58.8473 62.7103 57.5895 62.7103V60.4761C58.8642 60.4761 60.0917 60.481 61.3193 60.4761C62.4558 60.4693 62.8452 60.0933 62.8604 58.9703C62.874 57.9957 62.8638 57.0193 62.8638 55.9892H65.1401C65.1401 56.9401 65.1351 57.881 65.1401 58.8236C65.1469 60.1219 65.4993 60.4744 66.7892 60.4778C67.9662 60.481 69.1431 60.4778 70.3909 60.4778V62.7136C69.8513 62.7136 69.3016 62.7001 68.7536 62.7169C67.9509 62.7406 67.4553 63.1705 67.4351 63.8332C67.4131 64.5346 67.9172 64.9916 68.7688 65.0186C69.2948 65.0355 69.8227 65.022 70.4061 65.022V67.2612C69.1718 67.2612 67.9729 67.2595 66.7757 67.2612C65.4959 67.2646 65.1452 67.6203 65.1384 68.9238L65.1401 68.9221ZM68.6457 71.8054C68.2866 71.8054 67.9257 71.8054 67.4974 71.8054V69.6134H70.3183C70.3757 69.6876 70.4044 69.7078 70.4078 69.7315C70.7129 71.7195 70.6387 71.8054 68.6457 71.8054Z" fill="white"/>
</g>
</g>
<defs>
<clipPath id="clip0_423_4658">
<rect width="40" height="40" fill="white" transform="translate(44 40)"/>
</clipPath>
<clipPath id="clip1_423_4658">
<rect width="29.0909" height="40" fill="white" transform="translate(49.4531 40)"/>
</clipPath>
</defs>
</svg>
