<svg width="128" height="128" viewBox="0 0 128 128" fill="none" xmlns="http://www.w3.org/2000/svg">
<rect width="128" height="128" rx="64" fill="#CFCFCF"/>
<g clip-path="url(#clip0_423_4645)">
<g clip-path="url(#clip1_423_4645)">
<path d="M78.0662 68.4479C78.0628 66.4684 77.336 64.7789 75.9518 63.3744C74.8288 62.2346 73.7024 61.0965 72.5441 59.992C72.1225 59.5891 71.9691 59.1675 71.9708 58.5892C71.991 53.6186 71.9861 48.6478 71.981 43.6772C71.9793 41.6386 70.9508 40.6084 68.9342 40.6067C63.6262 40.605 58.3183 40.605 53.0104 40.6067C50.9298 40.6067 49.9215 41.6201 49.9198 43.7176C49.9164 47.8452 49.9198 51.9745 49.9198 56.1022C49.9198 60.287 49.9147 64.4703 49.9215 68.6553C49.9248 70.6416 50.9466 71.6432 52.9481 71.6481C54.7741 71.6515 56.5985 71.6667 58.4246 71.6381C58.9489 71.6296 59.153 71.7965 59.3873 72.2906C59.851 73.2634 60.34 74.3173 61.1089 75.0238C61.9098 75.7606 62.2351 76.4721 62.0936 77.4855C62.0784 77.595 62.0902 77.7097 62.0936 77.8227C62.1087 79.0216 62.4679 79.3891 63.6515 79.3908C67.9478 79.3942 72.2457 79.3942 76.5419 79.3908C77.68 79.3908 78.0679 79.0131 78.0711 77.8868C78.0779 74.7422 78.0762 71.5959 78.0711 68.4513L78.0662 68.4479ZM53.2651 42.8594C58.4313 42.8982 63.5993 42.8847 68.7656 42.8712C69.3522 42.8712 69.7114 42.9471 69.7081 43.6788C69.6828 47.9464 69.6962 52.2157 69.6928 56.4832C69.6928 56.6147 69.6625 56.7446 69.6508 56.8423C68.9813 56.5743 68.3659 56.2235 67.7067 56.0853C66.2481 55.7835 64.8419 56.4849 64.1405 57.7478C63.4273 59.0292 63.6076 60.6429 64.6362 61.7355C65.4051 62.5532 66.2245 63.3238 67.017 64.1197C67.2041 64.3085 67.3744 64.5142 67.6391 64.8092H52.2045V63.9393C52.2045 57.2841 52.218 50.629 52.1876 43.9739C52.1842 43.1477 52.3849 42.8526 53.2634 42.8594H53.2651ZM52.8941 69.3821C52.6665 69.3821 52.282 69.0701 52.2449 68.856C52.1505 68.3181 52.2146 67.7549 52.2146 67.153H68.0119C67.8685 67.8123 67.7623 68.4462 67.5751 69.0549C67.5262 69.2135 67.2211 69.3904 67.0339 69.3921C62.3212 69.4107 57.6085 69.4141 52.8958 69.3837L52.8941 69.3821ZM75.7039 77.0623H64.2956C64.8048 75.302 64.0039 74.2245 62.6196 73.341C62.1307 73.0291 61.8845 72.3378 61.4107 71.6498C63.5891 71.6498 65.5164 71.6415 67.4436 71.665C67.6122 71.6667 67.8062 71.8521 67.9377 71.9989C68.0422 72.1169 68.0641 72.3074 68.1332 72.4609C68.4856 73.2433 69.0842 73.5535 69.7267 73.2921C70.3319 73.046 70.4753 72.4525 70.2762 71.6447C70.0857 70.8675 69.8278 70.0261 69.9509 69.2707C70.0874 68.4277 70.5175 67.5778 71.0047 66.858C71.6353 65.9255 71.7011 65.5798 70.8833 64.7604C69.4551 63.3289 68.0185 61.9058 66.5887 60.4743C65.8823 59.7678 65.7979 59.1912 66.3055 58.6483C66.813 58.1052 67.4993 58.1777 68.2007 58.8742C70.2359 60.8924 72.3148 62.8669 74.264 64.9644C74.9199 65.6709 75.5909 66.6741 75.6399 67.5746C75.8068 70.7056 75.7039 73.8502 75.7039 77.0623Z" fill="white"/>
<path d="M62.1175 51.0295C62.1039 51.7191 62.5238 52.1052 63.2033 52.1828C63.5574 52.2233 63.9165 52.2216 64.3769 52.2451C64.3769 52.6296 64.3584 52.9584 64.3802 53.2855C64.4308 54.0206 64.8827 54.4877 65.5352 54.4523C66.2299 54.4152 66.6177 54.0155 66.6447 53.3294C66.6751 52.5757 66.6683 51.8203 66.6481 51.0649C66.6295 50.4073 66.2434 50.0026 65.6111 49.9571C64.8051 49.8998 63.989 49.9031 63.1814 49.947C62.5407 49.9824 62.131 50.382 62.1192 51.0295H62.1175Z" fill="white"/>
<path d="M58.7421 59.0301C58.3847 58.9863 58.0205 58.993 57.5281 58.971C57.5281 58.5613 57.5433 58.2561 57.5247 57.9543C57.4775 57.2023 57.0442 56.7319 56.39 56.7589C55.643 56.7892 55.2755 57.2377 55.2535 57.956C55.2316 58.6861 55.2333 59.4163 55.2586 60.1463C55.2822 60.8056 55.6683 61.2102 56.3074 61.2524C57.1184 61.3063 57.9362 61.3046 58.7472 61.2541C59.3946 61.2136 59.7858 60.7971 59.7841 60.1446C59.7825 59.4938 59.3879 59.111 58.7421 59.0301Z" fill="white"/>
<path d="M56.4366 54.4479C57.0942 54.4292 57.4567 54.0297 57.5208 53.3805C57.5562 53.023 57.5596 52.6639 57.5798 52.2457C57.9912 52.2239 58.3504 52.2239 58.7044 52.1834C59.3873 52.1041 59.8055 51.7146 59.7869 51.0199C59.7684 50.3674 59.3519 49.9779 58.7061 49.9459C57.9221 49.9054 57.1313 49.9004 56.3489 49.9493C55.7167 49.988 55.2934 50.3624 55.2681 51.0267C55.2378 51.8124 55.2277 52.6016 55.2732 53.3856C55.3137 54.0752 55.7403 54.4697 56.4383 54.4495L56.4366 54.4479Z" fill="white"/>
<path d="M59.3699 47.398C59.8976 47.4402 60.4321 47.4065 60.9632 47.4065V47.4115C61.4657 47.4115 61.9715 47.4351 62.4723 47.4065C63.1519 47.3677 63.5886 47.0102 63.5952 46.3054C63.602 45.6023 63.1721 45.2044 62.4977 45.1774C61.464 45.1353 60.4271 45.1319 59.3952 45.1774C58.7224 45.2078 58.3026 45.6175 58.3127 46.3189C58.3228 46.9816 58.7308 47.3475 59.3699 47.3964V47.398Z" fill="white"/>
<path d="M60.9142 54.4852C60.2886 54.5087 59.803 55.0247 59.8249 55.6452C59.8452 56.2589 60.3763 56.7479 60.9951 56.7244C61.6189 56.7007 62.1062 56.183 62.0843 55.5642C62.0624 54.9488 61.5347 54.4616 60.9142 54.4852Z" fill="white"/>
</g>
</g>
<defs>
<clipPath id="clip0_423_4645">
<rect width="40" height="40" fill="white" transform="translate(44 40)"/>
</clipPath>
<clipPath id="clip1_423_4645">
<rect width="29.0909" height="40" fill="white" transform="translate(49.4531 40)"/>
</clipPath>
</defs>
</svg>
