<svg width="128" height="128" viewBox="0 0 128 128" fill="none" xmlns="http://www.w3.org/2000/svg">
<rect width="128" height="128" rx="64" fill="#CFCFCF"/>
<g clip-path="url(#clip0_423_4667)">
<path d="M63.9092 79.3886C60.4807 79.3886 57.0522 79.4123 53.6253 79.36C53.1685 79.3532 52.5701 79.0752 52.2971 78.7228C51.7981 78.0806 52.3544 77.1973 53.2545 77.1366C54.0383 77.0844 54.8305 77.0743 55.6126 77.1283C56.2734 77.1754 56.5246 76.9411 56.6746 76.2921C58.2203 69.6189 59.8014 62.9541 61.3741 56.2858C61.6319 55.1935 61.8882 54.0995 62.168 53.0141C62.2775 52.5875 62.2084 52.3163 61.8292 52.0162C60.152 50.6795 59.9716 48.3281 61.3842 46.8026C62.7664 45.3108 65.1802 45.2923 66.5842 46.7638C68.0474 48.296 67.8467 50.639 66.1763 52.065C65.9623 52.247 65.7904 52.6904 65.851 52.9517C67.6783 60.7982 69.5408 68.6378 71.3848 76.481C71.4927 76.9361 71.6681 77.1519 72.1721 77.1249C72.9289 77.0844 73.6891 77.1063 74.4476 77.1182C75.3731 77.1333 75.9074 77.58 75.8771 78.2896C75.85 78.9622 75.3208 79.3835 74.4476 79.3852C70.9347 79.392 67.422 79.3886 63.9109 79.3886H63.9092ZM59.8587 76.8737C59.8553 76.931 59.8503 76.9867 59.8469 77.044H69.1564C68.7671 75.3651 68.3963 73.7723 68.0036 72.0799C65.2105 73.7233 62.5354 75.2977 59.8604 76.8737H59.8587ZM61.1735 67.1444C60.5936 69.6038 60.0492 71.9164 59.4491 74.4616C61.9118 73.0137 64.1452 71.6989 66.5017 70.3133C64.698 69.2413 63.0007 68.2316 61.1735 67.1444ZM64.0963 55.5981L63.8957 55.6049C63.326 58.0136 62.7546 60.4239 62.1343 63.0467C63.2636 62.3877 64.2042 61.8517 65.1263 61.2837C65.251 61.2061 65.3638 60.9481 65.3318 60.8066C64.9357 59.067 64.5127 57.3325 64.0963 55.5981ZM65.9539 63.4597C64.8244 64.1255 63.8249 64.7155 62.6905 65.3846C64.1569 66.2578 65.4886 67.0484 67.0327 67.967C66.6483 66.3606 66.3196 64.9885 65.9539 63.4597ZM65.2779 49.2197C65.2745 48.5169 64.6963 47.937 64.0002 47.937C63.3041 47.937 62.7225 48.5219 62.7208 49.2197C62.7192 49.9294 63.2838 50.489 64.0019 50.489C64.7166 50.489 65.283 49.9277 65.2796 49.2181L65.2779 49.2197Z" fill="white"/>
<path d="M51.3789 49.1719C51.3958 46.2879 52.301 43.714 54.0826 41.4519C54.7805 40.567 55.3806 40.39 55.9806 40.8552C56.574 41.3137 56.5268 41.9862 55.8879 42.8476C53.2837 46.3553 52.9331 50.0855 54.8513 54.0096C55.1328 54.5844 55.5491 55.0935 55.9031 55.6312C56.3447 56.3038 56.2874 56.9611 55.748 57.3472C55.1833 57.7533 54.5866 57.6387 54.0708 56.9796C52.2807 54.6873 51.3739 52.0864 51.3789 49.1719Z" fill="white"/>
<path d="M76.6218 49.1976C76.6302 52.0834 75.7301 54.659 73.967 56.9346C73.4191 57.6408 72.8072 57.7672 72.2324 57.3323C71.6864 56.9193 71.661 56.2671 72.165 55.5422C75.1637 51.2237 75.1064 46.8664 71.9981 42.6929C71.4756 41.9917 71.4689 41.3292 71.9813 40.8927C72.5207 40.4308 73.1562 40.5454 73.731 41.2079C75.5683 43.325 76.615 46.2192 76.6218 49.1976Z" fill="white"/>
<path d="M72.097 49.4798C72.075 50.9109 71.635 52.4549 70.6524 53.8252C70.1366 54.5434 69.5264 54.717 68.9381 54.3191C68.3869 53.945 68.2875 53.3028 68.7308 52.6099C70.2496 50.24 70.2057 47.9223 68.5757 45.6214C68.1071 44.9607 68.1982 44.2982 68.7459 43.9139C69.3022 43.5229 69.9141 43.6577 70.4248 44.3084C71.5593 45.7546 72.0902 47.4099 72.097 49.4815V49.4798Z" fill="white"/>
<path d="M58.4036 43.6892C59.4504 43.7027 59.9763 44.559 59.6089 45.3293C59.4656 45.631 59.233 45.8872 59.061 46.1771C57.8811 48.1645 57.8845 50.1653 59.0088 52.1728C59.1183 52.3684 59.2566 52.5487 59.3628 52.746C59.6864 53.3443 59.6358 53.8922 59.0678 54.3101C58.5351 54.703 57.9098 54.5697 57.458 53.9613C56.0725 52.0953 55.5803 49.9731 56.0826 47.7414C56.3523 46.5446 57.0248 45.4287 57.5979 44.3179C57.7648 43.996 58.2199 43.824 58.402 43.6875L58.4036 43.6892Z" fill="white"/>
</g>
<defs>
<clipPath id="clip0_423_4667">
<rect width="40" height="40" fill="white" transform="translate(44 40)"/>
</clipPath>
</defs>
</svg>
