<svg width="128" height="128" viewBox="0 0 128 128" fill="none" xmlns="http://www.w3.org/2000/svg">
<rect width="128" height="128" rx="64" fill="#CFCFCF"/>
<g clip-path="url(#clip0_423_4636)">
<g clip-path="url(#clip1_423_4636)">
<g clip-path="url(#clip2_423_4636)">
<path d="M83.1581 77.3587C80.9904 72.3137 78.811 67.2755 76.6652 62.2222C76.3322 61.4402 75.8547 61.0955 75.0021 61.1258C73.756 61.1711 72.5082 61.1376 71.1411 61.1376C71.6826 60.053 72.177 59.1179 72.6209 58.1611C74.0973 54.9794 74.8087 51.712 73.835 48.2125C72.5604 43.63 68.6691 40.6334 63.9133 40.6485C59.1964 40.6636 55.3942 43.6704 54.1515 48.2747C53.2131 51.749 53.9194 54.9879 55.3791 58.1442C55.823 59.1045 56.3208 60.0395 56.8673 61.1376C55.485 61.1376 54.2541 61.1711 53.0265 61.1258C52.1823 61.0955 51.6879 61.4116 51.3515 62.2021C49.194 67.2806 47.0011 72.3457 44.8234 77.4158C44.287 78.6636 44.7478 79.3497 46.1284 79.3497C58.0377 79.3531 69.947 79.3531 81.8565 79.3497C83.2807 79.3497 83.7196 78.6703 83.1547 77.357L83.1581 77.3587ZM56.6941 55.3309C56.0399 53.5618 55.8735 51.7423 56.156 49.8672C56.7782 45.7506 59.8303 42.9944 63.8764 42.9389C67.8838 42.8851 71.0922 45.6026 71.8103 49.6486C72.1147 51.3639 72.0559 53.0573 71.511 54.7171C69.9622 59.4357 67.0782 63.3539 64.0109 67.3293C61.031 63.5254 58.3286 59.7536 56.6941 55.3292V55.3309ZM50.2047 70.6842C51.1649 68.4442 52.1184 66.201 53.1206 63.9795C53.235 63.7273 53.6335 63.4616 53.911 63.4498C55.1974 63.3943 56.4889 63.4094 57.7771 63.4381C58.0242 63.4431 58.3623 63.544 58.4969 63.7223C59.0853 64.4974 59.6152 65.3181 60.1919 66.1623C56.8236 67.8793 53.5091 69.5693 50.0668 71.3233C50.129 71.0206 50.1374 70.8389 50.203 70.6825L50.2047 70.6842ZM47.5107 77.0341C48.0555 75.9477 48.1026 74.7673 49.3992 74.1955C51.1901 73.4068 52.9138 72.4566 54.6442 71.5351C55.1386 71.2728 55.4514 71.2594 55.8701 71.6932C57.3701 73.2453 58.9189 74.7487 60.4458 76.2739C60.6376 76.4657 60.8125 76.6759 61.1353 77.0324H47.5107V77.0341ZM63.5602 76.1462C61.591 74.1584 59.6269 72.1674 57.5601 70.0771C58.8298 69.428 60.0372 68.7924 61.2698 68.2088C61.4279 68.1332 61.7828 68.271 61.9341 68.4224C62.3091 68.7958 62.6051 69.2464 62.9599 69.6433C63.683 70.4555 64.3842 70.4841 65.0602 69.6198C66.4745 67.812 67.8467 65.9722 69.1937 64.1158C69.5384 63.6416 69.8697 63.3859 70.4835 63.4128C71.6573 63.4633 72.8344 63.4094 74.0099 63.4414C74.279 63.4481 74.7011 63.5608 74.7835 63.7441C75.8899 66.2144 76.9495 68.7082 78.0543 71.2728C76.5828 72.0396 75.1753 72.7728 73.7661 73.5044C71.6792 74.5873 69.5939 75.6737 67.5036 76.7499C66.1668 77.4377 64.5944 77.1938 63.5585 76.1479L63.5602 76.1462ZM72.3552 77.0257C72.335 76.9635 72.3148 76.9029 72.2947 76.8407C74.4892 75.7039 76.6838 74.5688 78.9708 73.385C79.4937 74.6108 79.9898 75.7711 80.5246 77.0257H72.3552Z" fill="white"/>
<path d="M67.4298 50.8735C67.4129 48.9834 65.8759 47.4749 63.9824 47.4884C62.0922 47.5018 60.5687 49.0405 60.5821 50.9223C60.5956 52.804 62.1359 54.3158 64.0295 54.3057C65.918 54.2957 67.4449 52.7536 67.4281 50.8752L67.4298 50.8735ZM62.8792 50.8718C62.8944 50.2664 63.4308 49.7552 64.0328 49.772C64.6432 49.7889 65.1444 50.3152 65.1327 50.9256C65.1208 51.5445 64.6096 52.0254 63.9807 52.012C63.3518 51.9985 62.8641 51.494 62.8809 50.8735L62.8792 50.8718Z" fill="white"/>
</g>
</g>
</g>
<defs>
<clipPath id="clip0_423_4636">
<rect width="40" height="40" fill="white" transform="translate(44 40)"/>
</clipPath>
<clipPath id="clip1_423_4636">
<rect width="40" height="40" fill="white" transform="translate(44 40)"/>
</clipPath>
<clipPath id="clip2_423_4636">
<rect width="38.7879" height="40" fill="white" transform="translate(44.6055 40)"/>
</clipPath>
</defs>
</svg>
