<svg width="64" height="64" viewBox="0 0 64 64" fill="none" xmlns="http://www.w3.org/2000/svg">
<g clip-path="url(#clip0_423_7064)">
<g clip-path="url(#clip1_423_7064)">
<g clip-path="url(#clip2_423_7064)">
<path d="M-10.668 0H74.6654V64H-10.668V0Z" fill="#00267F"/>
<path d="M17.7734 0H46.2268V64H17.7734V0Z" fill="#FFC726"/>
<path d="M31.9731 18.0664C31.0398 20.5997 30.1065 23.2131 28.0798 25.2264C28.7065 25.0131 29.8131 24.8264 30.5065 24.8531V35.4531L27.5198 35.8931C27.4131 35.8931 27.3865 35.7197 27.3865 35.4931C27.0931 32.1997 26.3198 29.4264 25.4131 26.5597C25.3465 26.1731 24.2131 24.6931 25.0931 24.9597C25.1998 24.9597 26.3598 25.4397 26.1865 25.2131C24.5113 23.5234 22.3468 22.4039 19.9998 22.0131C19.7998 21.9731 19.6798 22.0797 19.8665 22.3064C22.8531 26.9197 25.3731 32.3731 25.3465 38.8397C26.5198 38.8397 29.3465 38.1464 30.5065 38.1464V45.6264H31.9998L32.3331 24.7331L31.9731 18.0664Z" fill="#000001"/>
<path d="M31.9605 18.0664C32.8938 20.5997 33.8271 23.2131 35.8538 25.2264C35.2271 25.0131 34.1205 24.8264 33.4271 24.8531V35.4531L36.4138 35.8931C36.5205 35.8931 36.5471 35.7197 36.5471 35.4931C36.8405 32.1997 37.6138 29.4264 38.5205 26.5597C38.5871 26.1731 39.7205 24.6931 38.8405 24.9597C38.7338 24.9597 37.5738 25.4397 37.7471 25.2131C39.4223 23.5234 41.5868 22.4039 43.9338 22.0131C44.1338 21.9731 44.2538 22.0797 44.0671 22.3064C41.0805 26.9197 38.5605 32.3731 38.5871 38.8397C37.4138 38.8397 34.5871 38.1464 33.4271 38.1464V45.6264H31.9338L31.6005 24.7331L31.9605 18.0664Z" fill="#000001"/>
</g>
</g>
</g>
<defs>
<clipPath id="clip0_423_7064">
<rect width="64" height="64" rx="32" fill="white"/>
</clipPath>
<clipPath id="clip1_423_7064">
<rect width="64" height="64" fill="white"/>
</clipPath>
<clipPath id="clip2_423_7064">
<rect width="85.3333" height="64" fill="white" transform="translate(-10.668)"/>
</clipPath>
</defs>
</svg>
