<svg width="64" height="64" viewBox="0 0 64 64" fill="none" xmlns="http://www.w3.org/2000/svg">
<g clip-path="url(#clip0_423_7938)">
<g clip-path="url(#clip1_423_7938)">
<g clip-path="url(#clip2_423_7938)">
<path d="M-10.668 0H74.6654V64H-10.668V0Z" fill="#F7E017"/>
<path d="M-10.668 4.44141V32.8947L74.6654 46.2281V31.1081L-10.668 4.44141Z" fill="white"/>
<path d="M-10.668 19.5586V32.8919L74.6654 59.5586V46.2253L-10.668 19.5586Z" fill="#000001"/>
<path d="M29.8386 50.6406C28.2783 50.4683 26.7773 49.9457 25.4474 49.1117C25.2341 48.9695 25.0385 48.8451 25.003 48.8451C24.9674 48.8451 24.9496 49.014 24.9496 49.2095C24.9496 49.7784 24.7185 50.0629 24.1496 50.214C23.5985 50.3562 22.763 50.0717 22.0874 49.5028C21.4468 48.9547 20.6991 48.5461 19.8918 48.3028C19.0509 48.1026 18.1658 48.2164 17.4029 48.6228C17.3275 48.6759 17.2432 48.715 17.154 48.7384C17.0563 48.7384 17.0652 48.1251 17.1718 47.9384C17.3052 47.6717 17.6252 47.4228 18.0074 47.2895C18.2029 47.2184 18.3629 47.1295 18.3629 47.0851C18.3629 47.0495 18.2918 46.9073 18.2118 46.7651C17.954 46.3117 18.0607 45.8762 18.514 45.5295C18.9763 45.1739 19.7585 45.1206 20.4429 45.3784C20.5586 45.4277 20.6774 45.4692 20.7985 45.5028C20.8874 45.5028 20.8341 45.3695 20.5852 45.005C20.3007 44.5873 20.2385 44.3828 20.2741 43.8762C20.2985 43.566 20.4328 43.2748 20.6527 43.0548C20.8727 42.8349 21.1639 42.7006 21.4741 42.6761C21.9896 42.6406 22.3096 42.8184 23.0741 43.5384C25.1272 45.6049 27.8239 46.9094 30.7186 47.2362C31.4563 47.3251 32.923 47.2806 33.7852 47.1473C36.5167 46.6915 39.0492 45.4284 41.0564 43.5206C41.6253 42.9873 41.8919 42.845 42.3631 42.845C42.7631 42.845 43.0475 42.9695 43.3408 43.2895C43.6075 43.5828 43.6964 43.8584 43.6608 44.3117C43.6431 44.5962 43.5986 44.7295 43.4297 45.0139C43.1808 45.4139 43.2253 45.4584 43.7142 45.2628C44.3897 44.9962 45.2164 45.1206 45.6609 45.5473C46.052 45.9206 46.0875 46.2939 45.7853 46.7917C45.6697 46.9784 45.5809 47.1473 45.5809 47.1828C45.5809 47.2362 45.6697 47.2539 46.0697 47.3251C46.6031 47.4139 46.9142 47.8051 46.9142 48.4095C46.9142 48.5873 46.8875 48.7384 46.8609 48.7384C46.8342 48.7384 46.6297 48.6584 46.4164 48.5695C45.7942 48.3117 45.4386 48.2495 44.7097 48.2584C44.1586 48.2584 43.972 48.2851 43.5897 48.4095C42.9499 48.632 42.3607 48.9795 41.8564 49.4317C41.2875 49.9384 40.9319 50.0984 40.3808 50.0895C39.8653 50.0895 39.5186 49.9384 39.3319 49.6451C39.2342 49.4851 39.2164 49.3962 39.243 49.0406C39.2608 48.8095 39.2519 48.6228 39.243 48.6228C39.2164 48.6228 39.0208 48.7473 38.7986 48.8984C38.2912 49.2622 37.7383 49.5581 37.1541 49.7784C34.8147 50.6258 32.3109 50.9209 29.8386 50.6406Z" fill="#CF1126"/>
<path d="M30.7823 46.6862C29.0629 46.5282 27.397 46.0048 25.8963 45.1509C24.3955 44.297 23.0944 43.1324 22.0801 41.7351C19.9112 38.784 19.2356 34.8817 19.8934 31.3173C20.2489 29.6906 20.96 28.0639 22.1601 26.9084C21.1708 28.9614 20.8985 31.2868 21.3867 33.5128C22.1867 37.9395 25.9201 41.6818 30.3912 42.3307C32.169 42.8373 33.9912 42.2951 35.6801 41.7529C39.4135 40.4373 42.2579 36.8995 42.5957 32.944C42.889 30.8106 42.569 28.5795 41.6001 26.6328C42.1513 26.9261 42.8446 28.0728 43.2535 28.8373C44.6757 31.5928 44.7379 34.8906 43.9024 37.8329C42.7646 41.5751 39.9024 44.8551 36.1246 46.0462C34.401 46.5847 32.5932 46.8016 30.7912 46.6862H30.7823Z" fill="#CF1126"/>
<path d="M13.5101 41.7694C13.2879 41.7338 13.039 41.9561 13.1279 42.1872C13.2879 42.4183 13.5723 42.5427 13.8212 42.6494C14.477 42.9054 15.1809 43.0147 15.8834 42.9694C16.3988 42.9695 16.9103 42.8793 17.3945 42.7027C17.6612 42.6138 17.999 42.5249 18.1057 42.2227C18.2212 42.0361 18.0168 41.8405 17.8301 41.8761C17.5634 41.9383 17.2968 42.0538 17.0301 42.1338C16.4439 42.2998 15.8329 42.36 15.2256 42.3116C14.7837 42.2473 14.3529 42.1217 13.9456 41.9383C13.8034 41.8761 13.6701 41.7872 13.5101 41.7694Z" fill="#CF1126"/>
<path d="M13.7571 40.8431C13.5349 40.8075 13.3393 41.0742 13.4282 41.2875C13.606 41.5364 13.8993 41.6697 14.1749 41.7853C14.6556 41.9738 15.1699 42.0616 15.686 42.0431H15.8193C16.2582 42.0449 16.6931 41.9604 17.0993 41.7942C17.3393 41.6964 17.6415 41.5986 17.7482 41.3319C17.8282 41.1808 17.766 40.9675 17.5704 40.9497C17.4104 40.9497 17.2593 41.0564 17.0993 41.1008C16.5203 41.34 15.8925 41.4375 15.2682 41.3853C14.8771 41.3408 14.5126 41.1986 14.1571 41.0297C14.0237 40.9675 13.9082 40.8697 13.7571 40.8519V40.8431Z" fill="#CF1126"/>
<path d="M14.0686 39.9631C13.8731 39.9365 13.7397 40.1587 13.7753 40.3276C13.8019 40.4876 13.9353 40.5942 14.0508 40.6831C14.5348 41.0184 15.1162 41.184 15.7042 41.1542H15.8464C16.216 41.1515 16.5804 41.0665 16.9131 40.9054C17.1353 40.8165 17.3931 40.7009 17.4731 40.4431C17.5086 40.3276 17.5264 40.1587 17.3931 40.0876C17.2509 40.0165 17.1175 40.132 16.9931 40.1765C16.5679 40.3999 16.0956 40.5187 15.6153 40.5231C15.203 40.5067 14.802 40.3842 14.4508 40.1676C14.3175 40.1054 14.2108 39.9898 14.0686 39.9631Z" fill="#CF1126"/>
<path d="M10.7988 26.9062C10.5144 27.1996 10.7366 27.7329 10.7099 28.1063C10.8699 29.2796 11.0566 30.4618 11.4922 31.5729C12.0255 32.6396 13.1633 33.2174 13.8477 34.1685C14.0966 34.6218 14.0077 35.173 14.0611 35.6796C14.0966 37.0396 14.0877 38.4085 14.0611 39.7685C14.6833 40.0885 15.35 40.3908 16.0611 40.2752C16.4789 40.1774 17.2611 40.1152 17.35 39.6974L17.2611 32.6307C17.0211 31.9107 16.2833 31.5374 15.7411 31.0752C15.2879 30.6278 14.8661 30.1496 14.4789 29.644C14.2477 29.244 13.3322 29.1107 13.6611 29.7863C13.8566 30.3818 14.3455 30.8174 14.47 31.4396C14.4966 31.7863 14.9144 32.4174 14.5589 32.6129C14.3399 32.2266 14.008 31.9164 13.6077 31.7241C13.2166 31.4307 12.5677 31.3063 12.4255 30.7907C12.2974 30.0574 11.9575 29.3776 11.4477 28.8351C11.5811 28.1774 11.4477 27.3507 10.8788 26.924L10.7988 26.9062Z" fill="#CF1126"/>
<path d="M11.6782 27.0391C11.4115 27.0835 11.4293 27.4124 11.5449 27.5902C11.6766 27.9728 11.7102 28.3823 11.6427 28.7813C12.1301 29.3241 12.4564 29.9921 12.5849 30.7102C12.5849 30.9769 12.8693 31.0657 13.056 31.1991C13.4915 31.4746 13.9715 31.6791 14.3627 32.0258C14.4427 32.1146 14.5049 32.2035 14.4516 32.0258C14.3893 31.7946 14.3627 31.5458 14.1849 31.3769C13.936 31.1102 13.6338 30.8791 13.2782 30.808C13.2515 30.4346 13.0738 30.0969 12.9138 29.7769C12.736 29.4657 12.5493 29.1369 12.2471 28.9413C12.2471 28.3991 12.2471 27.8302 12.016 27.3235C11.9449 27.1991 11.8382 27.048 11.6782 27.0391Z" fill="#CF1126"/>
<path d="M12.4175 27.2539C12.2397 27.3072 12.2752 27.5384 12.3286 27.6717C12.4062 28.0577 12.4361 28.4517 12.4175 28.845C12.7641 29.1117 12.9686 29.5028 13.1641 29.8761C13.2886 30.125 13.3952 30.3917 13.4397 30.6673C13.7152 30.7561 13.9552 30.9339 14.1686 31.1117C14.0797 30.8628 13.9019 30.6673 13.7686 30.4273C13.6352 30.1873 13.5019 29.9295 13.4397 29.6539C13.173 29.3784 13.0308 28.9784 13.0841 28.5872C13.1019 28.1695 12.9686 27.7339 12.6841 27.4139C12.613 27.3428 12.5241 27.2628 12.4175 27.2539Z" fill="#CF1126"/>
<path d="M13.2609 27.3774C13.1542 27.3951 13.1009 27.484 13.0475 27.564C13.0209 27.644 13.1187 27.724 13.1364 27.8129C13.2526 28.1063 13.2953 28.4237 13.2609 28.7374C13.252 28.9596 13.332 29.1818 13.4387 29.3596C13.4586 29.2912 13.4992 29.2305 13.5549 29.186C13.6106 29.1415 13.6786 29.1152 13.7498 29.1107C13.7942 29.1107 13.8742 29.1285 13.8387 29.0485C13.8031 28.6218 13.7409 28.1951 13.5898 27.804C13.546 27.65 13.4597 27.5114 13.3409 27.404C13.3231 27.3863 13.2875 27.3685 13.252 27.3774H13.2609Z" fill="#CF1126"/>
<path d="M50.486 41.7694C50.7082 41.7338 50.9571 41.9561 50.8682 42.1872C50.7082 42.4183 50.4238 42.5427 50.1749 42.6494C49.5191 42.9054 48.8152 43.0147 48.1127 42.9694C47.5973 42.9695 47.0858 42.8793 46.6016 42.7027C46.3349 42.6138 45.9971 42.5249 45.8904 42.2227C45.7749 42.0361 45.9793 41.8405 46.166 41.8761C46.4327 41.9383 46.6993 42.0538 46.966 42.1338C47.5522 42.2998 48.1632 42.36 48.7705 42.3116C49.2124 42.2473 49.6432 42.1217 50.0505 41.9383C50.1927 41.8761 50.326 41.7872 50.486 41.7694Z" fill="#CF1126"/>
<path d="M50.239 40.8431C50.4612 40.8075 50.6568 41.0742 50.5679 41.2875C50.3901 41.5364 50.0968 41.6697 49.8212 41.7853C49.3405 41.9738 48.8262 42.0616 48.3101 42.0431H48.1768C47.7379 42.0449 47.303 41.9604 46.8968 41.7942C46.6568 41.6964 46.3545 41.5986 46.2479 41.3319C46.1679 41.1808 46.2301 40.9675 46.4257 40.9497C46.5857 40.9497 46.7368 41.0564 46.8968 41.1008C47.4758 41.34 48.1036 41.4375 48.7279 41.3853C49.119 41.3408 49.4835 41.1986 49.839 41.0297C49.9723 40.9675 50.0879 40.8697 50.239 40.8519V40.8431Z" fill="#CF1126"/>
<path d="M49.9275 39.9631C50.123 39.9365 50.2564 40.1587 50.2208 40.3276C50.1942 40.4876 50.0608 40.5942 49.9453 40.6831C49.4613 41.0184 48.8799 41.184 48.2919 41.1542H48.1497C47.7801 41.1515 47.4157 41.0665 47.083 40.9054C46.8608 40.8165 46.603 40.7009 46.523 40.4431C46.4875 40.3276 46.4697 40.1587 46.603 40.0876C46.7452 40.0165 46.8786 40.132 47.003 40.1765C47.4282 40.3999 47.9005 40.5187 48.3808 40.5231C48.7931 40.5067 49.1941 40.3842 49.5453 40.1676C49.6786 40.1054 49.7853 39.9898 49.9275 39.9631Z" fill="#CF1126"/>
<path d="M53.1973 26.9062C53.4817 27.1996 53.2595 27.7329 53.2861 28.1063C53.1261 29.2796 52.9395 30.4618 52.5039 31.5729C51.9706 32.6396 50.8328 33.2174 50.1484 34.1685C49.8995 34.6218 49.9884 35.173 49.935 35.6796C49.8995 37.0396 49.9084 38.4085 49.935 39.7685C49.3128 40.0885 48.6461 40.3908 47.935 40.2752C47.5172 40.1774 46.735 40.1152 46.6461 39.6974L46.735 32.6307C46.975 31.9107 47.7128 31.5374 48.255 31.0752C48.7082 30.6278 49.13 30.1496 49.5172 29.644C49.7484 29.244 50.6639 29.1107 50.335 29.7863C50.1395 30.3818 49.6506 30.8174 49.5261 31.4396C49.4995 31.7863 49.0817 32.4174 49.4372 32.6129C49.6562 32.2266 49.9881 31.9164 50.3884 31.7241C50.7795 31.4307 51.4284 31.3063 51.5706 30.7907C51.6987 30.0574 52.0386 29.3776 52.5484 28.8351C52.415 28.1774 52.5484 27.3507 53.1173 26.924L53.1973 26.9062Z" fill="#CF1126"/>
<path d="M52.3179 27.0391C52.5846 27.0835 52.5668 27.4124 52.4512 27.5902C52.3195 27.9728 52.2858 28.3823 52.3534 28.7813C51.866 29.3241 51.5397 29.9921 51.4112 30.7102C51.4112 30.9769 51.1268 31.0657 50.9401 31.1991C50.5045 31.4746 50.0245 31.6791 49.6334 32.0258C49.5534 32.1146 49.4912 32.2035 49.5445 32.0258C49.6068 31.7946 49.6334 31.5458 49.8112 31.3769C50.0601 31.1102 50.3623 30.8791 50.7179 30.808C50.7445 30.4346 50.9223 30.0969 51.0823 29.7769C51.2601 29.4657 51.4468 29.1369 51.749 28.9413C51.749 28.3991 51.749 27.8302 51.9801 27.3235C52.0512 27.1991 52.1579 27.048 52.3179 27.0391Z" fill="#CF1126"/>
<path d="M51.5786 27.2539C51.7564 27.3072 51.7209 27.5384 51.6675 27.6717C51.5899 28.0577 51.56 28.4517 51.5786 28.845C51.232 29.1117 51.0275 29.5028 50.832 29.8761C50.7075 30.125 50.6008 30.3917 50.5564 30.6673C50.2808 30.7561 50.0408 30.9339 49.8275 31.1117C49.9164 30.8628 50.0942 30.6673 50.2275 30.4273C50.3608 30.1873 50.4942 29.9295 50.5564 29.6539C50.8231 29.3784 50.9653 28.9784 50.912 28.5872C50.8942 28.1695 51.0275 27.7339 51.312 27.4139C51.3831 27.3428 51.472 27.2628 51.5786 27.2539Z" fill="#CF1126"/>
<path d="M50.7352 27.3774C50.8419 27.3951 50.8952 27.484 50.9485 27.564C50.9752 27.644 50.8774 27.724 50.8597 27.8129C50.7435 28.1063 50.7008 28.4237 50.7352 28.7374C50.7441 28.9596 50.6641 29.1818 50.5574 29.3596C50.5375 29.2912 50.4969 29.2305 50.4412 29.186C50.3855 29.1415 50.3175 29.1152 50.2463 29.1107C50.2019 29.1107 50.1219 29.1285 50.1574 29.0485C50.193 28.6218 50.2552 28.1951 50.4063 27.804C50.4501 27.65 50.5364 27.5114 50.6552 27.404C50.673 27.3863 50.7085 27.3685 50.7441 27.3774H50.7352Z" fill="#CF1126"/>
<path d="M31.6148 42.3107C31.0144 42.2458 30.4451 42.0104 29.9742 41.6324C29.5033 41.2544 29.1503 40.7495 28.957 40.1774C28.9837 39.9818 29.2237 40.284 29.3393 40.3107C29.556 40.4399 29.799 40.5189 30.0504 40.5418C30.3615 40.6752 30.557 40.9863 30.8593 41.1552C31.0015 41.2618 31.4993 41.4752 31.4015 41.1285C31.2859 40.9507 31.2059 40.7196 31.3126 40.5063C31.4726 40.1418 31.7304 39.8218 31.997 39.5107C32.1837 39.4485 32.317 39.8307 32.4504 39.9551C32.637 40.2485 32.8682 40.604 32.7526 40.9596C32.6459 41.0929 32.5748 41.4929 32.8682 41.3685C33.2237 41.2085 33.5171 40.9418 33.8104 40.6929C34.0771 40.5152 34.4059 40.5063 34.6726 40.3374C34.8059 40.3107 35.0637 40.0618 35.1171 40.1952C34.9579 40.5925 34.7358 40.9617 34.4593 41.2885C34.0318 41.7959 33.4409 42.1385 32.7882 42.2574C32.3971 42.3285 32.0059 42.3463 31.6148 42.3107Z" fill="#CF1126"/>
<path d="M33.0194 40.9067C33.0461 40.6667 32.9927 40.4267 32.8683 40.1955C32.6816 39.8222 32.4238 39.4844 32.1572 39.1378C31.9083 38.9955 31.7749 39.4666 31.6149 39.6C31.3572 39.9822 31.0372 40.3733 31.0194 40.8444C30.8772 41.0667 30.6105 40.6667 30.4949 40.5333C30.2581 40.2288 30.1326 39.8524 30.1394 39.4666C30.1179 38.8407 30.2269 38.2171 30.4594 37.6355C30.6372 37.1377 30.9127 36.6577 30.886 36.1244C30.9038 35.7066 30.8238 35.2622 30.4949 34.9866C30.1749 34.7377 30.6994 34.6844 30.8594 34.8088C31.1438 34.8355 31.2949 35.2977 31.5527 35.1822C31.6505 34.9422 31.6772 34.6488 31.8905 34.4622C32.0949 34.1777 32.3083 34.5777 32.3794 34.7733C32.5305 34.9333 32.3794 35.3511 32.6105 35.36C32.8949 35.1555 33.0994 34.8266 33.4638 34.7466C33.6149 34.6577 33.8638 34.7466 33.6683 34.9066C33.4016 35.1644 33.1705 35.4755 33.1172 35.8577C33.0372 36.3289 33.1527 36.8089 33.3572 37.2266C33.7572 38.0622 34.0683 39.0044 33.8638 39.9378C33.775 40.3467 33.4905 40.7022 33.1527 40.9422C33.1083 40.9689 33.0372 40.9689 33.0194 40.9067Z" fill="#CF1126"/>
<path d="M32.5947 34.6328C32.475 34.3922 32.3053 34.1801 32.0969 34.0105C31.8836 34.0105 31.7502 34.2772 31.608 34.4194C31.5102 34.6061 31.3858 34.9172 31.1369 34.6772C30.7369 34.4461 30.6747 33.9394 30.6747 33.5216C30.648 32.8461 30.9236 32.215 31.1636 31.6016C31.3147 31.2194 31.2791 30.7839 31.1813 30.3927C31.0658 29.9483 30.7013 29.6283 30.4258 29.2727C30.4436 29.1394 30.7991 29.2105 30.9325 29.2372C31.2347 29.3172 31.4125 29.575 31.6347 29.7705C31.7947 29.7172 31.7236 29.3972 31.8036 29.2461C31.8036 29.0327 32.088 28.7572 32.2036 29.0594C32.3813 29.255 32.2036 29.6372 32.4258 29.7527C32.6391 29.6727 32.7458 29.4416 32.9413 29.335C33.0435 29.2689 33.1608 29.2301 33.2822 29.2223C33.4036 29.2145 33.525 29.238 33.6347 29.2905C33.7147 29.4861 33.4036 29.6461 33.3147 29.8239C33.137 30.0455 33.0139 30.3057 32.9552 30.5836C32.8965 30.8615 32.904 31.1493 32.9769 31.4239C33.1014 31.8683 33.3147 32.2683 33.3947 32.7128C33.4907 33.2196 33.4755 33.7412 33.3502 34.2417C33.2702 34.5439 33.0125 34.7394 32.7458 34.8639C32.6747 34.8017 32.6391 34.7128 32.5947 34.6328Z" fill="#CF1126"/>
<path d="M31.2515 29.0592C30.9493 28.837 30.8515 28.6325 30.8515 28.2147C30.8515 28.0103 30.8959 27.8947 31.0293 27.6992C31.2426 27.4147 31.207 27.3258 30.9137 27.4058C30.4426 27.5392 30.2204 27.4236 30.2026 27.0236C30.2026 26.8281 30.2381 26.7481 30.4959 26.4281C30.7093 26.1792 30.7893 26.0458 30.7448 26.0014C30.7004 25.9658 30.4515 26.1792 29.9448 26.6947C29.6271 27.0297 29.2887 27.3444 28.9315 27.6369C28.0604 28.2236 27.2248 28.3125 26.8426 27.8592C26.647 27.6281 26.6559 27.5036 26.8781 27.3614C27.0197 27.2658 27.1508 27.1555 27.2692 27.0325C27.7049 26.6347 28.1851 26.2887 28.7004 26.0014C29.0204 25.8414 29.0915 25.7347 28.887 25.7347C28.6204 25.7347 27.7759 26.2858 27.127 26.8725C26.9404 27.0503 26.6648 27.2458 26.5226 27.3169C26.1271 27.4612 25.6991 27.492 25.287 27.4058C25.0915 27.3436 24.727 27.0058 24.727 26.8814C24.727 26.8547 24.8159 26.7836 24.9048 26.7214C25.0497 26.6395 25.1866 26.5443 25.3137 26.4369C25.8292 25.9925 26.807 25.5214 27.5804 25.3525C27.8292 25.308 27.7315 25.1747 27.4559 25.1925C26.64 25.3483 25.876 25.7058 25.2337 26.2325C24.4959 26.8458 23.3848 26.7836 23.0292 26.1169C22.967 26.0014 22.9226 25.8947 22.9403 25.8769C23.57 25.718 24.1786 25.4853 24.7537 25.1836C25.2489 24.8917 25.7947 24.6957 26.3626 24.6058C26.6115 24.5614 26.6292 24.4369 26.3892 24.4103C26.0692 24.3747 25.5892 24.5347 24.7448 24.9436C23.6514 25.4858 23.3403 25.5836 22.7714 25.548C22.2381 25.5125 21.9448 25.3792 21.527 24.9792C21.2425 24.7125 20.8514 24.0458 20.9225 23.9658C21.384 24.0629 21.8559 24.1017 22.327 24.0814C23.0648 24.0814 23.2692 24.0636 23.6603 23.948C24.4244 23.7059 25.1447 23.3428 25.7937 22.8725C26.7086 22.0985 27.8664 21.6706 29.0648 21.6636C30.167 21.6636 30.8604 21.9125 31.4826 22.5436C31.6959 22.7569 31.8737 22.8903 31.9004 22.8636C31.927 22.8369 31.9537 22.4636 31.9626 22.0369C31.9626 22.0369 32.2915 22.0014 32.3626 22.0991C32.3626 22.7836 32.3626 22.8458 32.4693 22.8458C32.5315 22.8458 32.6026 22.7747 32.647 22.668C32.7359 22.4458 33.0915 22.1347 33.4648 21.9391C34.2648 21.5391 35.6604 21.5214 36.7804 21.9125C37.3158 22.1156 37.8166 22.4005 38.2649 22.7569C38.9188 23.2169 39.6379 23.5764 40.3982 23.8236C41.0026 24.0014 42.0871 24.0458 42.6293 23.9125C42.7879 23.8758 42.9481 23.8461 43.1093 23.8236C43.3138 23.8236 42.9671 24.4992 42.5582 24.8992C41.8115 25.628 40.8426 25.6192 39.4826 24.8903C38.6293 24.428 37.616 24.1792 37.616 24.428C37.616 24.4814 37.6693 24.5169 37.7493 24.5169C38.0426 24.5169 38.6115 24.7125 39.4115 25.0947C39.9141 25.3846 40.4654 25.5804 41.0382 25.6725C41.2426 25.6725 41.2515 25.8058 41.056 26.0903C40.8515 26.3925 40.5049 26.5347 40.016 26.5347C39.5449 26.5347 39.2782 26.4369 38.8604 26.0903C38.1493 25.5036 36.4071 24.8458 36.4693 25.2014C36.4871 25.2636 36.5671 25.308 36.7537 25.3347C37.5045 25.4978 38.2073 25.8325 38.8071 26.3125L39.3315 26.6947C39.4293 26.7481 39.4293 26.7658 39.3493 26.9169C39.2249 27.1658 38.8871 27.3525 38.5315 27.3881C38.0693 27.4414 37.6604 27.2992 37.2426 26.9436C36.3537 26.2058 35.5271 25.6725 35.2604 25.6725C35.0382 25.6725 35.136 25.7969 35.5271 26.0014C36.033 26.2694 36.5046 26.5977 36.9315 26.9792C37.1093 27.1481 37.3137 27.3081 37.376 27.3436C37.5449 27.4325 37.536 27.5569 37.3582 27.7881C37.1804 28.0192 36.8782 28.1258 36.496 28.0814C35.7315 28.0014 35.1271 27.6369 34.1848 26.6592C33.9608 26.4089 33.717 26.1771 33.4559 25.9658C33.3315 25.9658 33.4115 26.1347 33.6515 26.4103C33.9537 26.7392 34.0071 26.9258 33.8915 27.2103C33.7937 27.4414 33.6248 27.5036 33.2871 27.4058C32.9315 27.3169 32.8782 27.4058 33.1093 27.6814C33.4471 28.1169 33.4026 28.6325 32.9759 28.997C32.8877 29.082 32.7854 29.1511 32.6737 29.2014C32.6382 29.2014 32.5493 29.1125 32.4693 28.9881C32.2026 28.5792 31.9626 28.5792 31.6959 28.9881C31.6397 29.0789 31.5804 29.1679 31.5182 29.2547C31.4282 29.191 31.3393 29.1258 31.2515 29.0592Z" fill="#CF1126"/>
<path d="M32.5938 20.7109L32.1315 21.0665L31.7227 20.7643V23.2354H32.5938V20.7109Z" fill="#CF1126"/>
<path d="M29.7688 18.1616C29.6879 19.161 29.4163 20.1356 28.9688 21.0328L29.9554 20.1172L30.6399 20.935L31.3865 20.0994L32.1421 20.8105L32.871 20.0728L33.6265 20.9616L34.2843 20.2328L35.4043 21.0328C34.9954 20.1439 34.4532 19.3794 34.5154 18.1172C33.4399 18.9172 30.871 19.0594 29.7688 18.1527V18.1616Z" fill="#CF1126"/>
<path d="M31.7321 17.5636C31.3321 17.5636 30.9143 17.5725 30.541 17.6525C30.2937 17.6918 30.0575 17.7827 29.8477 17.9191C29.8743 18.6836 33.4921 18.9947 34.461 17.9369C34.243 17.786 33.9939 17.6858 33.7321 17.6436C33.3766 17.5725 32.9677 17.5725 32.5854 17.5547V18.1858H31.7321V17.5636Z" fill="#CF1126"/>
<path d="M32.435 13.6914H31.875V18.0825H32.4439L32.435 13.6914Z" fill="#CF1126"/>
<path d="M32.4339 13.7961L32.2206 15.9028L34.3806 16.9606L33.2872 15.4939L34.7806 15.005L32.4339 13.7961ZM32.1939 13.2539C31.865 13.2539 31.625 13.3784 31.625 13.5206C31.625 13.6628 31.865 13.7872 32.1939 13.7872C32.5228 13.7872 32.7628 13.6628 32.7628 13.5206C32.7628 13.3784 32.5228 13.2539 32.1939 13.2539Z" fill="#CF1126"/>
<path d="M31.1984 50.1179C31.5584 49.9979 31.7584 49.7845 31.9051 49.3712C31.9717 49.1579 32.0251 48.9445 32.0117 48.8912C31.9851 48.7579 31.8251 48.7579 31.6651 48.9045C31.5451 48.9979 31.5317 49.0512 31.5584 49.2512C31.6517 49.7445 31.4651 49.8779 30.5317 49.9712C30.4384 49.9712 30.1584 49.9712 29.9317 49.9312C29.4784 49.8779 29.3184 49.9312 29.4784 50.0645C29.5645 50.1196 29.6591 50.1601 29.7584 50.1845C30.0117 50.2512 30.9317 50.2112 31.1984 50.1179ZM33.1584 50.0379C33.2117 49.9845 33.3851 49.9045 33.5584 49.8379C33.7851 49.7712 33.9051 49.7045 33.9984 49.5445C34.2784 49.1445 34.2251 48.7845 33.8251 48.3045C33.5984 48.0379 33.5051 48.0512 33.3317 48.3445C33.1717 48.5845 33.1851 48.6112 33.3984 48.6645C33.5184 48.6912 33.6251 48.7712 33.6784 48.8779C33.9184 49.2912 33.8517 49.5445 33.4917 49.5445C33.1717 49.5445 33.0917 49.5979 32.9984 49.8112L32.9184 50.0645C32.9184 50.1445 33.0517 50.1312 33.1584 50.0379ZM32.5184 49.5712C32.5717 49.3979 32.5984 49.1045 32.5851 48.5045C32.5994 48.2194 32.586 47.9337 32.5451 47.6512C32.4917 47.5979 32.2384 47.7579 32.1984 47.8779C32.1851 47.9762 32.2089 48.076 32.2651 48.1579C32.3451 48.3179 32.3584 48.4779 32.3317 49.0912C32.2917 49.8912 32.3451 50.0245 32.5184 49.5712Z" fill="#F7E017"/>
<path d="M31.0117 49.2L31.105 48.5334C31.1183 48.3067 31.1717 48.0267 31.1983 47.9067C31.2917 47.6 31.1983 47.52 30.9583 47.6934L30.785 47.8267L30.8117 48.2667C30.8517 48.6667 30.785 49.4 30.6917 49.6934C30.665 49.7734 30.705 49.7467 30.8117 49.6267C30.8917 49.5334 30.985 49.3334 31.0117 49.1867V49.2ZM29.6783 49.4134C29.9983 49.1467 29.9583 48.6667 30.0383 48.2934C30.0383 48.04 30.1983 47.7467 30.0917 47.52C29.785 47.5734 29.5983 47.8667 29.7583 48.1467C29.7583 48.48 29.7583 48.84 29.585 49.1334C29.4517 49.3334 28.9983 49.28 29.025 49C29.1317 48.6 28.6383 48.8 28.4517 48.9067C28.305 49.0133 27.985 49.0267 28.105 48.7733C28.025 48.4133 27.585 48.64 27.345 48.64C27.1183 48.64 27.3317 48.1733 26.9983 48.24C26.3983 48.2 25.7317 48.2534 25.1983 47.8934C24.8917 47.7467 24.9317 47.3734 25.105 47.1334C25.2917 46.8134 25.345 46.4 25.6383 46.1467C25.945 45.8667 25.3717 45.9867 25.2383 46.08C24.945 46.24 25.2117 46.6534 24.9717 46.88C24.8383 47.12 24.6517 47.44 24.3317 47.4C23.865 47.3067 23.5983 46.8667 23.265 46.6C22.9717 46.5334 23.1317 47.0534 23.2917 47.16C23.5873 47.3809 23.9221 47.5438 24.2783 47.64C24.625 47.5733 24.6383 48.04 24.945 48.1067C25.4783 48.3733 26.0917 48.44 26.6917 48.48C26.9317 48.4934 26.7983 48.92 27.105 48.8267C27.2783 48.88 27.6783 48.76 27.6917 48.96C27.425 49.28 27.945 49.2667 28.1317 49.2267C28.385 49.1734 28.6917 49.0934 28.7583 49.4134C28.9583 49.64 29.3317 49.6 29.585 49.48L29.6783 49.4134Z" fill="#F7E017"/>
<path d="M24.3718 46.7197C24.4971 46.5444 24.6044 46.3567 24.6918 46.1597C24.7597 45.9889 24.8493 45.8276 24.9585 45.6797C25.1185 45.5197 25.0251 45.4131 24.7718 45.4664C24.6385 45.4931 24.5851 45.5464 24.5718 45.6664C24.512 45.9935 24.3995 46.3088 24.2385 46.5997C24.0118 46.9331 24.0118 46.9464 24.1051 46.9464C24.1451 46.9464 24.2651 46.8397 24.3718 46.7197ZM21.0385 44.6264C20.7851 44.6264 20.7718 44.7864 21.0118 44.8664C21.1451 44.9064 21.2385 44.9997 21.3185 45.1731C21.5451 45.6397 21.6918 45.7331 22.3185 45.7864L22.7185 45.8131L22.7451 46.0664C22.7451 46.1997 22.7851 46.3064 22.8118 46.3064L23.1585 46.1731C23.4518 46.0131 23.7318 45.6664 23.7318 45.4397C23.7318 45.3064 23.4918 45.1464 23.2785 45.1464C23.1851 45.1464 23.0118 45.2264 22.8651 45.3331C22.4118 45.6531 21.9318 45.5997 21.6651 45.1731C21.4651 44.8264 21.2385 44.6397 21.0385 44.6397V44.6264ZM23.2118 45.4931C23.3318 45.4931 23.3451 45.5864 23.2918 45.7597C23.2836 45.7833 23.2683 45.8037 23.248 45.8181C23.2277 45.8325 23.2034 45.8403 23.1785 45.8403C23.1536 45.8403 23.1293 45.8325 23.109 45.8181C23.0886 45.8037 23.0733 45.7833 23.0651 45.7597C23.0118 45.6264 23.0785 45.4931 23.1985 45.4931H23.2118ZM40.0785 44.9597C39.9051 44.9597 39.8651 44.9864 39.7585 45.1464C39.5851 45.3997 39.5718 45.9464 39.7318 46.1331C39.8251 46.2531 39.8385 46.2531 40.0385 46.1597C40.3318 46.0397 40.3851 46.0531 40.3718 46.1997C40.3718 46.5997 39.8118 47.3597 39.2251 47.7597C39.1048 47.8308 38.9967 47.9208 38.9051 48.0264C38.8651 48.1331 39.0785 48.1197 39.3451 47.9731C39.7867 47.7199 40.1508 47.3511 40.3985 46.9064C40.5451 46.5997 40.5718 46.5064 40.5985 45.9731C40.5985 45.4664 40.5985 45.3064 40.5185 45.1464C40.4118 44.9597 40.3851 44.9464 40.1451 44.9464H40.0785V44.9597ZM40.0918 45.2931C40.2251 45.2931 40.2251 45.3197 40.2518 45.5064C40.2518 45.6397 40.2385 45.7331 40.1585 45.8131C40.0518 45.9064 40.0251 45.9064 39.9451 45.7597C39.8118 45.5464 39.8918 45.2931 40.0918 45.2931ZM37.3985 49.0931C37.9185 48.8264 38.2251 48.5464 38.4118 48.1331C38.4811 48.0004 38.5391 47.8621 38.5851 47.7197C38.5851 47.6397 38.3318 47.5197 38.1851 47.5197C38.0385 47.5197 37.9985 47.4131 38.0518 47.1197C38.1185 46.8397 38.0518 46.4797 37.9185 46.4797C37.8785 46.4797 37.7851 46.5464 37.7451 46.6264C37.6651 46.7597 37.6518 46.8131 37.7185 46.9864C37.8118 47.2531 37.7318 47.4664 37.4918 47.6397C37.3718 47.7197 37.3185 47.8131 37.3185 47.9064L37.3318 48.0397L37.6118 47.9064L37.8785 47.7464L38.0251 47.8797C38.1185 47.9331 38.1851 48.0397 38.1851 48.1064C38.1851 48.4264 37.2785 48.9597 36.6651 49.0131C36.3318 49.0397 36.2651 49.0131 36.1585 48.9064C36.0651 48.8131 36.0385 48.7331 36.0651 48.6397L36.1318 48.2931C36.1851 48.0131 36.0785 48.0531 35.8651 48.3731C35.7051 48.6397 35.6518 48.9197 35.7451 49.0664C35.8251 49.1997 36.3318 49.3064 36.7051 49.2797C36.9318 49.2797 37.1585 49.2131 37.3985 49.0931ZM40.8651 47.1597C41.1851 46.8264 41.3318 46.4264 41.3318 45.8264V45.3597L41.5985 45.2264C41.9585 45.0664 42.2918 44.7331 42.2918 44.5464C42.2918 44.3597 42.1985 44.3597 42.0518 44.5731C41.9318 44.7197 41.7851 44.8131 41.2518 45.0664C41.1185 45.1197 41.1051 45.1597 41.0651 45.7331C41.0385 46.3997 40.9318 46.6397 40.5718 47.0931C40.3451 47.3597 40.3318 47.4131 40.4918 47.4131C40.5585 47.4131 40.7318 47.2931 40.8651 47.1464V47.1597ZM37.3051 46.7864C37.3318 46.6931 37.1451 46.6264 37.0785 46.7064C37.0385 46.7331 37.0251 46.7864 37.0518 46.8264C37.1051 46.9064 37.2651 46.8797 37.3051 46.7864ZM42.2118 45.5197C42.2518 45.4131 42.0651 45.3464 41.9851 45.4264C41.9585 45.4664 41.9451 45.5197 41.9718 45.5597C42.0251 45.6397 42.1851 45.6131 42.2118 45.5197ZM36.3051 42.0664C36.1718 42.1331 36.1051 42.2664 36.0251 42.3731C35.9585 42.4131 36.0118 42.4531 36.0385 42.5064C36.2651 42.7331 36.3585 43.0664 36.4651 43.3731C36.5718 43.7331 36.7051 44.1197 36.5985 44.4931C36.5585 44.6264 36.4385 44.7731 36.2785 44.7331C36.0118 44.7197 35.7451 44.6397 35.4785 44.6397C35.2251 44.6531 35.0385 44.8797 34.7985 44.8531C34.6385 44.8531 34.6385 44.5331 34.5051 44.6264C34.4251 44.7997 34.4651 44.9864 34.4518 45.1597C34.4785 45.1997 34.5585 45.1731 34.5985 45.1864H35.0918C35.1185 45.3464 35.1185 45.5464 35.2251 45.6797C35.3985 45.7331 35.5985 45.6797 35.7585 45.6131C35.9185 45.5331 35.9451 45.3331 35.9985 45.1731C36.0518 44.9997 36.2651 45.0397 36.3985 44.9731C36.5589 44.9231 36.6982 44.8215 36.7947 44.684C36.8912 44.5465 36.9394 44.3809 36.9318 44.2131C36.9051 43.6931 36.7185 43.2264 36.5585 42.7464C36.4918 42.5331 36.4385 42.3064 36.3585 42.0931L36.3051 42.0664ZM35.5051 44.9731C35.6785 44.9731 35.7585 45.1864 35.7185 45.3331C35.6518 45.5331 35.3985 45.4131 35.3585 45.2664C35.2651 45.1331 35.3185 44.9597 35.4918 44.9731H35.5051Z" fill="#F7E017"/>
<path d="M28.7992 43.3047C28.7192 43.3047 28.6259 43.3314 28.5325 43.398C28.0659 43.7314 27.9325 44.118 28.2659 44.278C28.4925 44.3847 28.4392 44.518 28.0659 44.7047C27.5325 44.9714 27.0659 44.9314 26.1725 44.5714C25.9592 44.478 25.9059 44.518 25.9459 44.7047C25.9992 44.9047 26.1859 45.0114 26.6259 45.1047C27.1059 45.238 27.6925 45.198 28.0659 45.038C28.285 44.9262 28.4798 44.7721 28.6392 44.5847L28.9325 44.278L29.2659 44.318C29.6792 44.3714 29.6925 44.3714 29.6925 44.5714C29.6925 44.7314 29.6925 44.7314 30.0792 44.7714L30.7059 44.798C30.8792 44.798 30.9725 44.838 31.0259 44.918C31.1059 45.0114 31.1459 45.0247 31.7725 44.9714C32.3592 44.918 32.4659 44.918 32.7325 45.0114C32.9192 45.0647 33.1325 45.0914 33.2792 45.078C33.7325 45.0247 34.3459 44.6647 34.4392 44.398C34.4392 44.358 34.6125 44.3047 34.7992 44.2647C35.2525 44.1714 35.2659 44.078 34.8525 44.0247C34.6436 43.9971 34.438 43.948 34.2392 43.878C34.0905 43.8151 33.9332 43.7746 33.7725 43.758C33.5459 43.758 33.3325 43.8914 33.3325 44.0514C33.3325 44.1447 33.3592 44.158 33.6392 44.1314C33.8792 44.1047 33.9592 44.118 34.0925 44.2247C34.1859 44.2914 34.2392 44.3714 34.2259 44.398C34.1592 44.5047 33.6259 44.7447 33.3992 44.7847C33.2622 44.8074 33.1215 44.784 32.9992 44.718C32.7859 44.6114 32.4925 44.598 32.4259 44.6914C32.3992 44.7314 32.3459 44.7047 32.2525 44.6247L32.1192 44.4914L31.7992 44.6247C31.4792 44.758 31.3592 44.758 31.3592 44.598C31.3592 44.5314 31.2659 44.518 30.7992 44.558C30.2792 44.5847 30.2259 44.5714 30.1325 44.4647C30.0392 44.3714 30.0392 44.3314 30.1059 44.238C30.1592 44.1314 30.1592 44.1047 30.1059 44.038C30.0525 43.9847 29.9725 43.9847 29.7725 44.038C29.2525 44.1714 29.1059 44.1047 29.1059 43.7047C29.1059 43.4514 28.9725 43.3047 28.7992 43.3047ZM28.6659 43.678C28.6925 43.678 28.7192 43.6914 28.7592 43.7314C28.7992 43.7714 28.8259 43.8647 28.7992 43.9047C28.7592 44.0247 28.5325 44.0247 28.4925 43.9047C28.4659 43.838 28.4925 43.7714 28.5592 43.7314L28.6659 43.678Z" fill="#F7E017"/>
<path d="M27.7336 44.0547C28.0536 43.8547 28.0536 43.8681 28.0936 43.3214C28.1203 42.9214 28.1203 42.8947 28.0136 42.8947C27.8536 42.8947 27.7736 43.0681 27.7736 43.3881C27.7736 43.6014 27.747 43.6947 27.6403 43.7881C27.3736 44.0547 26.7336 43.9347 26.6403 43.6147C26.6136 43.5081 26.6536 43.4014 26.787 43.2147C27.067 42.8147 27.0136 42.7081 26.6536 43.0147C26.427 43.2281 26.387 43.2281 26.427 43.0547C26.467 42.8814 26.387 42.8147 26.187 42.8681C26.0936 42.8947 26.027 42.9481 26.0136 43.0814C25.987 43.1881 25.9336 43.2547 25.8403 43.2814C25.6803 43.3214 25.4136 43.1747 25.4136 43.0414C25.4136 42.9481 25.8136 42.4547 26.3336 41.9214C26.5203 41.7214 26.6803 41.5214 26.6803 41.5081C26.6803 41.4814 26.5736 41.4547 26.4536 41.4547C26.267 41.4547 26.2136 41.4814 26.2136 41.5614C26.2136 41.6147 25.9603 41.9614 25.6403 42.3214C24.9736 43.0681 24.9203 43.2147 25.2403 43.4147C25.3735 43.4969 25.5279 43.5381 25.6843 43.5333C25.8407 43.5286 25.9923 43.4781 26.1203 43.3881L26.3336 43.2414V43.5081C26.3336 43.8414 26.4003 43.9747 26.667 44.1081C26.8338 44.1937 27.0202 44.2339 27.2075 44.2245C27.3947 44.2152 27.5762 44.1566 27.7336 44.0547ZM41.6536 39.4414C41.4136 39.5881 41.6003 39.8947 41.6536 40.1081C41.547 40.3747 41.187 40.4547 40.9203 40.5081C40.547 40.5747 40.2803 40.8814 40.147 41.2147C40.067 41.4281 39.8803 41.7481 39.6803 41.4281C39.507 41.2547 39.187 41.1081 38.987 41.3214C38.827 41.4681 38.787 41.6814 38.7203 41.8814C38.627 41.7347 38.587 41.5081 38.4003 41.4547C38.0803 41.4947 38.2003 41.8947 38.347 42.0547C38.4803 42.2547 38.6136 42.4947 38.4803 42.7214C38.347 42.9881 37.947 43.1747 37.7203 42.9481C37.507 42.8281 37.6536 42.4147 37.427 42.3881C37.3203 42.4681 37.3203 42.9081 37.147 42.6681C37.0136 42.4681 37.0936 42.1881 36.9336 42.0147C36.7603 42.0414 36.6136 42.3481 36.667 42.5081C36.907 42.8281 37.0136 43.2281 37.107 43.6147C37.1603 43.7747 37.0936 44.0814 37.2403 44.1481C37.3336 43.8947 37.2403 43.6147 37.3203 43.3614C37.5603 43.3347 37.8136 43.4414 38.0536 43.3881C38.4136 43.3481 38.6803 43.0414 38.8003 42.7347C38.8403 42.4947 38.8003 42.2547 38.787 42.0147C39.0536 42.0681 39.347 42.0681 39.6136 42.1481C39.747 42.3481 39.5736 42.6414 39.5336 42.8547C39.4003 43.3081 39.0403 43.6281 38.707 43.9214C38.5603 44.0147 38.547 44.2414 38.747 44.1214C39.203 43.9048 39.5602 43.5238 39.747 43.0547C39.8936 42.7081 39.7736 42.3214 39.8803 41.9747C40.0136 41.7081 40.347 41.7614 40.6003 41.7614C40.8536 41.7614 41.067 41.4547 40.987 41.2014C40.907 40.9081 41.2136 40.7747 41.4136 40.6681C41.6936 40.5347 41.907 40.2547 41.8803 39.9347C41.8803 39.7614 41.8803 39.4547 41.6536 39.4414ZM40.6803 41.1081C40.9736 41.1881 40.627 41.7481 40.467 41.3881C40.4136 41.2547 40.5336 41.1081 40.6803 41.1081ZM39.307 41.5081C39.6936 41.4947 39.547 42.0414 39.227 41.8014C39.0536 41.7081 39.107 41.5081 39.307 41.5081ZM25.3336 43.6814C25.3336 43.6281 25.307 43.5881 25.2536 43.5881C25.1603 43.5881 25.0936 43.6814 25.1336 43.7614C25.187 43.8547 25.307 43.8014 25.3336 43.6814ZM29.867 43.2014C29.867 43.1081 29.827 43.0814 29.7603 43.0947C29.6136 43.1214 29.587 43.3214 29.747 43.3214C29.827 43.3214 29.867 43.2814 29.867 43.1881V43.2014ZM24.267 40.4814C24.0936 40.4414 23.9736 40.6014 23.907 40.7481C23.7736 40.9747 23.6136 41.2014 23.3736 41.3214C23.2003 41.3747 23.0136 41.3081 22.8536 41.2147C22.6803 41.1214 22.7203 40.9081 22.6403 40.7614C22.507 40.6547 22.2803 40.8014 22.2936 40.9614C22.2803 41.1747 22.467 41.2947 22.6403 41.3747C22.7736 41.4681 22.987 41.5081 23.0403 41.6814C23.0403 41.8281 23.0936 42.0014 23.267 41.9481C23.467 41.9481 23.5336 42.1881 23.4403 42.3347C23.3512 42.4973 23.3184 42.6849 23.347 42.8681C23.4403 42.9614 23.5336 42.7347 23.6136 42.6814L23.747 42.4947C24.107 42.5081 24.4536 42.5614 24.8136 42.5481C25.0803 42.5481 25.2803 42.3881 25.4403 42.2014C25.6803 41.9614 25.867 41.6814 26.1203 41.4814C26.307 41.4281 26.2136 41.0814 26.0136 41.1881C25.8403 41.2547 25.787 41.4547 25.667 41.5747C25.4725 41.831 25.2488 42.0637 25.0003 42.2681C24.8003 42.3481 24.587 42.3081 24.387 42.2681C24.307 42.2014 24.547 42.1347 24.587 42.0547C24.6936 41.9481 24.827 41.8414 24.8936 41.6947C24.827 41.5614 24.6403 41.5614 24.507 41.5614C24.187 41.5881 23.9336 41.8681 23.6003 41.8947C23.347 41.8947 23.4803 41.6281 23.6003 41.5347C23.8136 41.2681 24.0536 41.0281 24.2803 40.7747C24.347 40.6947 24.587 40.6147 24.4403 40.5081C24.387 40.4814 24.3203 40.4814 24.267 40.4814ZM24.427 41.8147C24.6003 41.9081 24.3203 42.0547 24.2136 42.0414C24.067 42.0814 24.0536 41.9347 24.187 41.9081C24.267 41.8547 24.347 41.8147 24.427 41.8147ZM23.9203 42.1614C24.0136 42.1614 24.2136 42.2547 24.027 42.3081C23.8936 42.4147 23.7603 42.2014 23.9203 42.1614Z" fill="#F7E017"/>
<path d="M27.9191 42.3729C27.9191 42.2396 27.7058 42.2663 27.6791 42.3996C27.6524 42.4796 27.6791 42.4929 27.7858 42.4796C27.8658 42.4796 27.9191 42.4263 27.9191 42.3729ZM37.8791 41.4929C37.9058 41.3729 37.7458 41.2929 37.6524 41.3863C37.5591 41.4663 37.6524 41.6396 37.7591 41.6129C37.8124 41.6129 37.8658 41.5463 37.8924 41.4929H37.8791ZM22.3991 40.2796C22.5458 40.1463 22.5591 40.1329 22.4924 39.8396C22.3858 39.4263 22.3991 39.3729 22.5591 39.3329C22.7591 39.2929 23.2658 39.5596 23.3591 39.7729C23.4658 39.9463 23.4524 39.9596 23.3058 40.0929C23.1458 40.2396 23.1458 40.4129 23.3058 40.4129C23.4391 40.4129 23.7991 40.0663 23.7991 39.9463C23.7991 39.7729 23.3991 39.3596 23.0791 39.2129C22.8871 39.1235 22.6776 39.0779 22.4658 39.0796C22.0524 39.0796 21.9991 39.1729 22.1058 39.6396C22.2391 40.1996 22.0658 40.2796 21.6124 39.8529C21.4511 39.711 21.325 39.5335 21.244 39.3346C21.163 39.1356 21.1294 38.9205 21.1458 38.7063C21.1458 38.1729 21.3591 37.8929 21.8258 37.8263C22.1458 37.7863 22.1324 37.7063 21.8258 37.6663C21.3458 37.5863 20.9458 37.9063 20.7991 38.4663C20.6258 39.0929 21.0124 39.8529 21.6924 40.2396C22.0524 40.4396 22.1858 40.4529 22.3991 40.2796ZM40.9591 39.5863C40.9991 39.5596 41.0258 39.4663 41.0258 39.3996C41.0258 39.3329 41.0924 39.1863 41.1724 39.0796C41.2524 38.9729 41.3058 38.8663 41.3058 38.8396C41.3058 38.7329 41.1324 38.7329 40.9991 38.8396C40.8524 38.9596 40.7324 38.9729 40.7324 38.8396L40.8924 38.7196C41.1058 38.6263 41.1191 38.5196 40.9458 38.4396C40.7191 38.3329 40.4791 38.5196 40.4658 38.8396C40.4524 39.0529 40.4658 39.0796 40.6258 39.1729C40.7724 39.2663 40.7991 39.3063 40.7724 39.4396C40.7324 39.6529 40.8258 39.7329 40.9591 39.5863ZM42.6924 39.3996C42.8258 39.2663 42.9324 39.1463 42.9324 39.1063C42.9324 39.0663 43.0524 38.9463 43.1858 38.8396C43.5591 38.5729 43.6524 38.3063 43.4791 37.8663C43.4124 37.6929 43.2124 37.4663 42.7458 37.0663C42.5332 36.8393 42.291 36.642 42.0258 36.4796C41.9058 36.4796 41.9324 36.9329 42.0524 36.9729C42.2791 37.0529 42.4258 37.1463 42.7724 37.4663C43.1991 37.8396 43.3858 38.1996 43.2791 38.3996C43.1858 38.5863 43.0524 38.5329 42.6791 38.1329C42.558 37.9824 42.4141 37.852 42.2524 37.7463C42.2124 37.7463 42.1858 37.8263 42.1858 37.9329C42.1858 38.0663 42.2524 38.1996 42.4524 38.3996C42.7591 38.7463 42.7858 38.9463 42.5458 39.1329C42.4917 39.1878 42.4286 39.2329 42.3591 39.2663C42.0543 38.7446 41.6459 38.2908 41.1591 37.9329C41.1191 37.9329 41.0924 37.9863 41.0924 38.1196C41.0924 38.2929 41.1191 38.3463 41.2524 38.4129C41.6029 38.682 41.9167 38.9958 42.1858 39.3463L42.4258 39.6129C42.5253 39.5508 42.6151 39.4744 42.6924 39.3863V39.3996ZM43.4924 37.1596C43.4258 36.9996 42.3724 35.9062 42.2524 35.9062C42.1991 35.9062 42.1858 35.9729 42.1991 36.1463C42.1991 36.3596 42.2391 36.3863 42.3858 36.4263C42.6135 36.5595 42.8202 36.7257 42.9991 36.9196C43.144 37.0754 43.31 37.2101 43.4924 37.3196V37.1596ZM37.1191 49.5063C37.1262 49.5262 37.1277 49.5472 37.1233 49.5676C37.119 49.5881 37.1089 49.6074 37.094 49.624C37.0792 49.6407 37.0598 49.6542 37.0375 49.6635C37.0153 49.6728 36.9907 49.6777 36.9658 49.6777C36.9408 49.6777 36.9163 49.6728 36.894 49.6635C36.8717 49.6542 36.8524 49.6407 36.8375 49.624C36.8226 49.6074 36.8126 49.5881 36.8082 49.5676C36.8039 49.5472 36.8053 49.5262 36.8124 49.5063C36.8053 49.4864 36.8039 49.4653 36.8082 49.4449C36.8126 49.4244 36.8226 49.4051 36.8375 49.3885C36.8524 49.3718 36.8717 49.3583 36.894 49.349C36.9163 49.3397 36.9408 49.3348 36.9658 49.3348C36.9907 49.3348 37.0153 49.3397 37.0375 49.349C37.0598 49.3583 37.0792 49.3718 37.094 49.3885C37.1089 49.4051 37.119 49.4244 37.1233 49.4449C37.1277 49.4653 37.1262 49.4864 37.1191 49.5063ZM37.6791 49.3196C37.6791 49.3371 37.675 49.3544 37.6669 49.3706C37.6589 49.3868 37.6471 49.4015 37.6322 49.4139C37.6174 49.4262 37.5997 49.4361 37.5803 49.4428C37.5609 49.4495 37.5401 49.4529 37.5191 49.4529C37.4981 49.4529 37.4773 49.4495 37.4579 49.4428C37.4385 49.4361 37.4208 49.4262 37.406 49.4139C37.3911 49.4015 37.3793 49.3868 37.3713 49.3706C37.3632 49.3544 37.3591 49.3371 37.3591 49.3196C37.3591 49.3021 37.3632 49.2847 37.3713 49.2686C37.3793 49.2524 37.3911 49.2377 37.406 49.2253C37.4208 49.2129 37.4385 49.2031 37.4579 49.1964C37.4773 49.1897 37.4981 49.1863 37.5191 49.1863C37.5401 49.1863 37.5609 49.1897 37.5803 49.1964C37.5997 49.2031 37.6174 49.2129 37.6322 49.2253C37.6471 49.2377 37.6589 49.2524 37.6669 49.2686C37.675 49.2847 37.6791 49.3021 37.6791 49.3196Z" fill="#F7E017"/>
</g>
</g>
</g>
<defs>
<clipPath id="clip0_423_7938">
<rect width="64" height="64" rx="32" fill="white"/>
</clipPath>
<clipPath id="clip1_423_7938">
<rect width="64" height="64" fill="white"/>
</clipPath>
<clipPath id="clip2_423_7938">
<rect width="85.3333" height="64" fill="white" transform="translate(-10.668)"/>
</clipPath>
</defs>
</svg>
