<svg width="64" height="64" viewBox="0 0 64 64" fill="none" xmlns="http://www.w3.org/2000/svg">
<g clip-path="url(#clip0_423_7896)">
<g clip-path="url(#clip1_423_7896)">
<g clip-path="url(#clip2_423_7896)">
<path fill-rule="evenodd" clip-rule="evenodd" d="M-10.668 0H74.6654V64H-10.668V0Z" fill="#229E45"/>
<path fill-rule="evenodd" clip-rule="evenodd" d="M32.1866 58.1339L72.3866 32.0405L31.9466 5.86719L-8.38672 32.0939L32.1866 58.1339Z" fill="#F8E509"/>
<path fill-rule="evenodd" clip-rule="evenodd" d="M49.7038 32C49.7038 41.3733 42.0905 48.9733 32.6905 48.9733C29.3314 48.968 26.0493 47.967 23.2591 46.0967C20.4689 44.2264 18.2958 41.5708 17.0146 38.4656C15.7334 35.3605 15.4016 31.9452 16.0611 28.6515C16.7206 25.3578 18.3419 22.3336 20.7199 19.9612C23.0979 17.5887 26.1259 15.9746 29.4212 15.3228C32.7164 14.6711 36.1309 15.0109 39.233 16.2994C42.3352 17.5879 44.9856 19.7672 46.8494 22.5618C48.7131 25.3565 49.7064 28.6409 49.7038 32Z" fill="#2B49A3"/>
<path fill-rule="evenodd" clip-rule="evenodd" d="M27.1057 42.1749L26.5723 41.8683L26.039 42.1349L26.159 41.5349L25.7323 41.0816L26.3323 41.015L26.6257 40.4816L26.879 41.0416L27.4657 41.1483L27.0257 41.5483M38.4923 45.0549L37.9723 44.7483L37.439 45.015L37.5457 44.415L37.1323 43.9749L37.7323 43.9083L38.0123 43.3616L38.279 43.9216L38.8657 44.0283L38.4123 44.4416M33.5857 40.4416L33.1323 40.1749L32.6657 40.415L32.7723 39.895L32.399 39.5083L32.9323 39.4549L33.1723 38.9749L33.3857 39.4683L33.9057 39.5616L33.5057 39.9216M45.1057 38.7883L44.6523 38.5216L44.1857 38.7616L44.2923 38.2416L43.9323 37.8683L44.4523 37.815L44.6923 37.3483L44.9057 37.8283L45.4123 37.9216L45.0257 38.2683M33.3857 35.3349L32.8523 35.0416L32.319 35.3083L32.4257 34.695L32.0123 34.2549L32.6123 34.1883L32.8923 33.6416L33.159 34.2016L33.7457 34.3083L33.2923 34.7349M19.3457 30.0683L18.8123 29.7749L18.279 30.0416L18.4123 29.4283L17.9723 28.9883L18.5857 28.9216L18.8523 28.3749L19.119 28.9349L19.7057 29.0416L19.2657 29.4549M21.039 37.0816L20.5057 36.7749L19.9723 37.0416L20.0923 36.4416L19.6657 36.0016L20.2657 35.9216L20.5457 35.3883L20.8123 35.9483L21.399 36.0549L20.959 36.4683M38.559 27.4949L38.079 27.2283L37.599 27.4683L37.7057 26.9349L37.3323 26.5349L37.8657 26.4683L38.119 25.9883L38.3457 26.4949L38.879 26.5883L38.479 26.9483M37.5857 32.0549L37.2257 31.8416L36.839 32.0283L36.919 31.6016L36.6257 31.2949L37.0523 31.2416L37.2523 30.8683L37.4257 31.2683L37.8257 31.3349L37.5323 31.6283M18.5723 38.3483L18.2123 38.1483L17.8523 38.3216L17.9323 37.9216L17.6523 37.6283L18.0523 37.5749L18.239 37.215L18.4123 37.5883L18.8123 37.6683L18.5057 37.9349M45.199 39.9749L44.9057 39.8283L44.6123 39.9616L44.679 39.6549L44.4523 39.4416L44.7723 39.4016L44.9323 39.1349L45.0657 39.4016L45.399 39.4683L45.1457 39.6683" fill="#FFFFEF"/>
<path fill-rule="evenodd" clip-rule="evenodd" d="M18.5723 38.3482L18.2123 38.1482L17.8523 38.3215L17.9323 37.9215L17.6523 37.6282L18.0523 37.5748L18.239 37.2148L18.4123 37.5882L18.8123 37.6682L18.5057 37.9348" fill="#FFFFEF"/>
<path fill-rule="evenodd" clip-rule="evenodd" d="M18.5723 38.3483L18.2123 38.1483L17.8523 38.3216L17.9323 37.9216L17.6523 37.6283L18.0523 37.5749L18.239 37.2149L18.4123 37.5883L18.8123 37.6683L18.5057 37.9349M24.1457 38.3349L23.799 38.1483L23.439 38.3216L23.519 37.9216L23.239 37.6283L23.639 37.5749L23.8257 37.2149L23.999 37.5883L24.399 37.6549L24.0923 37.9349M23.4523 40.2016L23.1057 40.0016L22.7457 40.1883L22.8257 39.7883L22.5457 39.4816L22.9457 39.4283L23.1323 39.0683L23.3057 39.4416L23.7057 39.5216L23.399 39.7883M35.0523 36.8283L34.7057 36.6149L34.3323 36.8016L34.4123 36.4016L34.1457 36.095L34.5457 36.0549L34.7323 35.695L34.8923 36.0683L35.2923 36.1349L34.999 36.4149M31.6523 36.8149L31.2923 36.6149L30.9323 36.8016L31.0123 36.4016L30.7457 36.095L31.1457 36.0549L31.3323 35.6816L31.4923 36.0683L31.8923 36.1349L31.599 36.4149M22.4257 35.6416L22.199 35.5083L21.9723 35.6149L22.0257 35.3616L21.8523 35.1749L22.1057 35.1483L22.2123 34.9216L22.319 35.1616L22.5723 35.2016L22.3857 35.3749M44.759 41.4283L44.4123 41.2283L44.0523 41.4149L44.1323 41.0149L43.8523 40.7083L44.2523 40.6549L44.439 40.2949L44.6123 40.6683L45.0123 40.7483L44.7057 41.0149M41.9323 41.8149L41.639 41.6283L41.3323 41.7883L41.399 41.4416L41.1723 41.2016L41.5057 41.1616L41.6657 40.8549L41.799 41.1749L42.1323 41.2283L41.879 41.4683M43.2657 41.7749L42.999 41.6149L42.719 41.7483L42.7723 41.4416L42.559 41.2149L42.8657 41.1749L43.0123 40.9083L43.1457 41.1749L43.4523 41.2416L43.2257 41.4549M47.1057 38.4149L46.839 38.2816L46.5723 38.4149L46.639 38.1083L46.4257 37.8816L46.7323 37.8416L46.8657 37.5749L46.999 37.8549L47.279 37.9083L47.0657 38.1216M41.8923 43.6949L41.559 43.5083L41.199 43.6683L41.279 43.2949L41.0123 43.0283L41.4123 42.9883L41.5857 42.6549L41.7457 43.0016L42.1457 43.0683L41.839 43.3216M41.919 45.2149L41.599 45.0283L41.279 45.2016L41.359 44.8283L41.1057 44.5616L41.4657 44.5083L41.6257 44.1749L41.7723 44.5216L42.1323 44.5883L41.8657 44.8549M39.3323 41.7749L39.079 41.6149L38.8123 41.7483L38.8657 41.4549L38.6657 41.2283L38.959 41.2016L39.0923 40.9349L39.2257 41.2016L39.519 41.2549L39.3057 41.4683M36.9323 41.7749L36.6657 41.6149L36.399 41.7483L36.4657 41.4549L36.2523 41.2283L36.559 41.2016L36.6923 40.9349L36.8257 41.2016L37.1057 41.2549L36.8923 41.4683M32.839 38.1883L32.5723 38.0416L32.3057 38.1749L32.3723 37.8683L32.159 37.6549L32.4523 37.6149L32.5857 37.3483L32.719 37.6149L33.0123 37.6816L32.799 37.8816M33.2923 45.4816L33.079 45.3616L32.839 45.4816L32.8923 45.2149L32.719 45.0283L32.9723 45.0016L33.0923 44.7749L33.199 45.0149L33.4523 45.0549L33.2657 45.2283M27.1057 33.6816L26.5723 33.3749L26.039 33.6416L26.159 33.0416L25.7323 32.6016L26.3323 32.5216L26.6257 31.9883L26.879 32.5483L27.4657 32.6549L27.0257 33.0683" fill="#FFFFEF"/>
<path fill-rule="evenodd" clip-rule="evenodd" d="M48.5851 38.1077C48.9154 37.2506 49.1741 36.3676 49.3584 35.4677C40.3184 27.5344 30.2518 23.4677 17.5318 24.3077C17.0704 25.2004 16.6911 26.1331 16.3984 27.0944C31.4651 25.6544 42.5318 32.3211 48.5851 38.1077Z" fill="white"/>
<path d="M44.5324 33.6541L44.8391 33.8274C44.7933 33.918 44.7792 34.0213 44.7991 34.1208C44.8303 34.2173 44.8971 34.2983 44.9858 34.3474C45.0791 34.4141 45.1724 34.4541 45.2524 34.4408C45.3324 34.4408 45.3858 34.4008 45.4258 34.3474C45.449 34.312 45.4585 34.2694 45.4524 34.2274C45.4415 34.1782 45.4186 34.1324 45.3858 34.0941C45.3591 34.0541 45.2924 33.9608 45.1858 33.8541C45.0761 33.741 44.994 33.6041 44.9458 33.4541C44.9125 33.3406 44.9211 33.2189 44.9701 33.1112C45.019 33.0035 45.105 32.917 45.2124 32.8674C45.3094 32.827 45.4166 32.8177 45.5191 32.8408C45.6445 32.8697 45.7625 32.9241 45.8658 33.0008C46.0524 33.1341 46.1724 33.2674 46.2124 33.4274C46.2309 33.5023 46.2333 33.5802 46.2195 33.656C46.2057 33.7318 46.176 33.8039 46.1324 33.8674L45.8124 33.6674C45.8524 33.5874 45.8658 33.5074 45.8391 33.4408C45.8258 33.3741 45.7724 33.3074 45.6791 33.2541C45.6106 33.199 45.5268 33.1664 45.4391 33.1608C45.4149 33.16 45.391 33.1657 45.3699 33.1775C45.3487 33.1892 45.3312 33.2065 45.3191 33.2274C45.2924 33.2674 45.2924 33.3074 45.3058 33.3608C45.3191 33.4141 45.3858 33.5208 45.5191 33.6541C45.6524 33.7874 45.7324 33.9074 45.7858 33.9874C45.8334 34.0748 45.8549 34.174 45.8478 34.2733C45.8408 34.3726 45.8053 34.4677 45.7458 34.5474C45.6834 34.6381 45.5951 34.7078 45.4924 34.7474C45.3925 34.7935 45.2807 34.8075 45.1724 34.7874C45.0524 34.7608 44.9324 34.7074 44.7991 34.6141C44.5991 34.4808 44.4791 34.3341 44.4391 34.1741C44.3957 33.9927 44.4244 33.8015 44.5191 33.6408L44.5324 33.6541ZM42.9858 32.6408L43.3191 32.8141C43.2778 32.9062 43.2684 33.0094 43.2924 33.1074C43.3265 33.199 43.3929 33.2748 43.4791 33.3208C43.5858 33.3874 43.6658 33.4141 43.7458 33.4008C43.8258 33.4008 43.8791 33.3608 43.9191 33.2941C43.9393 33.2624 43.9487 33.225 43.9458 33.1874C43.9458 33.1474 43.9191 33.0941 43.8791 33.0541C43.8108 32.9717 43.7397 32.8916 43.6658 32.8141C43.5191 32.6674 43.4258 32.5474 43.3991 32.4408C43.3773 32.3722 43.3708 32.2996 43.38 32.2282C43.3892 32.1568 43.4139 32.0883 43.4524 32.0274C43.5031 31.9452 43.5775 31.8801 43.6658 31.8408C43.7574 31.7985 43.8595 31.7846 43.9591 31.8008C44.0824 31.8216 44.2003 31.8669 44.3058 31.9341C44.5058 32.0674 44.6258 32.2008 44.6658 32.3474C44.6901 32.4224 44.6979 32.5017 44.6887 32.5799C44.6795 32.6582 44.6535 32.7335 44.6124 32.8008L44.2791 32.6141C44.3191 32.5208 44.3324 32.4541 44.3058 32.3874C44.2791 32.3208 44.2258 32.2541 44.1324 32.2008C44.0587 32.1478 43.9699 32.1198 43.8791 32.1208C43.8572 32.1223 43.836 32.1291 43.8174 32.1407C43.7988 32.1524 43.7834 32.1684 43.7724 32.1874C43.7458 32.2274 43.7458 32.2674 43.7591 32.3208C43.7724 32.3741 43.8524 32.4808 43.9858 32.6141C44.1191 32.7474 44.2124 32.8541 44.2524 32.9341C44.3059 33.0177 44.3343 33.1149 44.3343 33.2141C44.3343 33.3133 44.3059 33.4105 44.2524 33.4941C44.195 33.5871 44.1116 33.6613 44.0124 33.7074C43.9125 33.7535 43.8007 33.7675 43.6924 33.7474C43.5552 33.7243 43.4239 33.6744 43.3058 33.6008C43.1334 33.5089 43.0006 33.3571 42.9324 33.1741C42.8809 32.9961 42.9 32.8051 42.9858 32.6408ZM41.0924 32.1341L42.0658 30.5341L43.2391 31.2674L43.0791 31.5341L42.2258 31.0008L42.0124 31.3608L42.8124 31.8541L42.6391 32.1208L41.8391 31.6274L41.5724 32.0674L42.4658 32.6008L42.3058 32.8674L41.0924 32.1341ZM38.3324 29.8674L38.4791 29.6008L39.1991 29.9608L38.8658 30.6274C38.7591 30.6541 38.6258 30.6674 38.4658 30.6541C38.3121 30.6372 38.163 30.592 38.0258 30.5208C37.8644 30.4422 37.7265 30.3226 37.6258 30.1741C37.5341 30.0361 37.4875 29.8731 37.4924 29.7074C37.4992 29.5351 37.5448 29.3664 37.6258 29.2141C37.7059 29.0538 37.8251 28.9162 37.9724 28.8141C38.1134 28.7167 38.2811 28.6654 38.4524 28.6674C38.5858 28.6674 38.7191 28.7074 38.8791 28.8008C39.0924 28.8941 39.2258 29.0274 39.2924 29.1741C39.3618 29.3197 39.376 29.4855 39.3324 29.6408L38.9724 29.5341C38.9945 29.4448 38.9851 29.3506 38.9458 29.2674C38.9058 29.1874 38.8391 29.1341 38.7324 29.0808C38.6703 29.0453 38.6013 29.0234 38.5301 29.0165C38.4588 29.0096 38.3869 29.0179 38.3191 29.0408C38.1858 29.0808 38.0658 29.2008 37.9724 29.3874C37.8791 29.5741 37.8391 29.7474 37.8791 29.8941C37.8975 29.9637 37.9309 30.0284 37.977 30.0836C38.0231 30.1389 38.0807 30.1835 38.1458 30.2141C38.2124 30.2541 38.2924 30.2808 38.3724 30.2808C38.452 30.2929 38.5329 30.2929 38.6124 30.2808L38.7191 30.0674L38.3324 29.8674ZM26.3058 26.8941L26.5724 25.0274L27.1324 25.1208L27.2791 26.4274L27.7991 25.2274L28.3591 25.3074L28.0924 27.1474L27.7324 27.0941L27.9591 25.6408L27.3724 27.0408L27.0124 26.9874L26.8658 25.4808L26.6524 26.9474L26.3058 26.8941ZM24.4258 26.6674L24.5991 24.8008L25.9724 24.9341L25.9458 25.2541L24.9458 25.1608L24.9058 25.5608L25.8391 25.6541L25.7991 25.9741L24.8658 25.8808L24.8258 26.3874L25.8658 26.4808L25.8391 26.8008L24.4258 26.6674Z" fill="#309E3A"/>
<path d="M18.1985 25.5069C18.1985 25.3069 18.2385 25.1602 18.2918 25.0269C18.3386 24.932 18.4018 24.8463 18.4785 24.7735C18.5469 24.7046 18.6285 24.6501 18.7185 24.6135C18.8518 24.5735 18.9852 24.5469 19.1185 24.5469C19.3985 24.5469 19.6118 24.6535 19.7852 24.8135C19.8677 24.9155 19.929 25.0328 19.9657 25.1587C20.0023 25.2846 20.0134 25.4166 19.9985 25.5469C19.9985 25.8402 19.9052 26.0802 19.7318 26.2535C19.6427 26.3359 19.5374 26.3986 19.4225 26.4376C19.3077 26.4767 19.1859 26.4912 19.0652 26.4802C18.946 26.4814 18.8278 26.4584 18.7178 26.4126C18.6078 26.3667 18.5082 26.299 18.4252 26.2135C18.2592 26.0172 18.1778 25.7631 18.1985 25.5069Z" fill="#309E3A"/>
<path d="M18.5859 25.5074C18.5859 25.7074 18.6259 25.8674 18.7193 25.9874C18.8126 26.0941 18.9326 26.1608 19.0926 26.1608C19.1618 26.1656 19.2313 26.155 19.2958 26.1296C19.3604 26.1042 19.4185 26.0648 19.4659 26.0141C19.5593 25.9074 19.5993 25.7474 19.6126 25.5208C19.6126 25.3074 19.5859 25.1474 19.4793 25.0408C19.4358 24.987 19.381 24.9436 19.3188 24.9136C19.2565 24.8836 19.1884 24.8679 19.1193 24.8674C19.0491 24.8652 18.9794 24.8784 18.9148 24.906C18.8503 24.9336 18.7927 24.9751 18.7459 25.0274C18.6393 25.1341 18.5993 25.2941 18.5859 25.5074Z" fill="#F7FFFF"/>
<path d="M20.3984 26.4682L20.4251 24.6016H21.2251C21.4251 24.6016 21.5584 24.6282 21.6518 24.6682C21.7451 24.6949 21.8118 24.7616 21.8651 24.8416C21.9184 24.9216 21.9451 25.0282 21.9451 25.1482C21.9461 25.2765 21.8985 25.4004 21.8118 25.4949C21.7132 25.5872 21.5864 25.6436 21.4518 25.6549L21.6518 25.8149C21.7051 25.8682 21.7718 25.9749 21.8518 26.1216L22.0784 26.4949H21.6251L21.3584 26.0682L21.1718 25.8016C21.1394 25.7649 21.0981 25.7373 21.0518 25.7216C20.9911 25.7039 20.9283 25.6949 20.8651 25.6949H20.7851V26.4682H20.3984Z" fill="#309E3A"/>
<path d="M20.7969 25.4019H21.0635C21.2502 25.4019 21.3702 25.4019 21.4102 25.3752C21.4502 25.3752 21.4902 25.3352 21.5169 25.3085C21.5435 25.2819 21.5569 25.2152 21.5569 25.1752C21.5569 25.0952 21.5435 25.0419 21.5035 25.0152C21.4769 24.9752 21.4235 24.9485 21.3702 24.9352H21.1035L20.7969 24.9219V25.4019Z" fill="white"/>
<path d="M22.5308 24.6914L23.2242 24.7314C23.3708 24.7314 23.4908 24.7447 23.5708 24.7714C23.6746 24.8091 23.7666 24.8734 23.8375 24.9581C23.9143 25.0513 23.969 25.1607 23.9975 25.2781C24.0375 25.3981 24.0508 25.5447 24.0375 25.7181C24.0374 25.8542 24.0149 25.9893 23.9708 26.1181C23.9175 26.2514 23.8375 26.3581 23.7442 26.4381C23.6665 26.5021 23.5753 26.5477 23.4775 26.5714C23.3975 26.5981 23.2775 26.5981 23.1442 26.5981L22.4375 26.5581L22.5308 24.6914Z" fill="#309E3A"/>
<path d="M22.8909 25.0234L22.8242 26.2634H23.3309C23.3976 26.2634 23.4509 26.2368 23.4909 26.1968C23.5309 26.1568 23.5709 26.1034 23.5976 26.0234C23.6242 25.9434 23.6509 25.8234 23.6509 25.6768L23.6376 25.3434C23.6185 25.2731 23.5818 25.2089 23.5309 25.1568C23.4866 25.1122 23.4314 25.0801 23.3709 25.0634C23.2701 25.041 23.1674 25.0276 23.0642 25.0234H22.8909Z" fill="white"/>
<path d="M31.6797 28.0282L32.1197 26.2148L32.7064 26.3482L33.133 26.4815C33.2264 26.5348 33.3064 26.6148 33.3464 26.7348C33.3997 26.8415 33.3997 26.9615 33.373 27.1082C33.3464 27.2148 33.3064 27.3082 33.2397 27.3748C33.1908 27.4334 33.1296 27.4805 33.0605 27.5127C32.9914 27.545 32.916 27.5616 32.8397 27.5615C32.7464 27.5615 32.613 27.5348 32.4397 27.4948L32.213 27.4282L32.053 28.1215L31.6797 28.0282Z" fill="#309E3A"/>
<path d="M32.3996 26.6133L32.293 27.1199L32.493 27.1733C32.6263 27.1999 32.733 27.2266 32.7863 27.2133C32.8382 27.2061 32.8865 27.183 32.9247 27.1472C32.9629 27.1114 32.9891 27.0646 32.9996 27.0133C32.9996 26.9466 32.9996 26.8933 32.973 26.8399C32.9437 26.7858 32.8966 26.7433 32.8396 26.7199L32.5863 26.6533L32.413 26.6133H32.3996Z" fill="white"/>
<path d="M33.4102 28.5452L34.0368 26.7852L34.7702 27.0518C34.9702 27.1185 35.0902 27.1852 35.1702 27.2385C35.2368 27.3052 35.2902 27.3718 35.3035 27.4785C35.3168 27.5852 35.3302 27.6785 35.3035 27.7852C35.2502 27.9185 35.1702 28.0118 35.0635 28.0785C34.9568 28.1318 34.8235 28.1452 34.6635 28.1185C34.7168 28.1852 34.7702 28.2518 34.7968 28.3318L34.9035 28.6918L34.9835 29.1052L34.5702 28.9585L34.4368 28.4785C34.4126 28.3699 34.3814 28.2631 34.3435 28.1585C34.3258 28.117 34.2984 28.0804 34.2635 28.0518C34.2368 28.0118 34.1835 27.9852 34.0902 27.9585L34.0235 27.9318L33.7568 28.6785L33.4102 28.5452Z" fill="#309E3A"/>
<path d="M34.1305 27.6509L34.3839 27.7443C34.5572 27.8109 34.6639 27.8376 34.7172 27.8376C34.7572 27.8376 34.7972 27.8376 34.8372 27.7976C34.8772 27.7709 34.9039 27.7309 34.9172 27.6776C34.9439 27.6243 34.9439 27.5709 34.9172 27.5176C34.8975 27.4659 34.8595 27.4232 34.8105 27.3976L34.5439 27.3043L34.2772 27.2109L34.1172 27.6509H34.1305Z" fill="white"/>
<path d="M35.5969 28.4817C35.6428 28.3256 35.7199 28.1804 35.8236 28.0551C35.891 27.9746 35.9723 27.9069 36.0636 27.8551C36.1463 27.8084 36.2365 27.7768 36.3303 27.7617C36.4636 27.7617 36.5969 27.7617 36.7436 27.8151C36.8628 27.8445 36.9743 27.899 37.0709 27.9749C37.1674 28.0507 37.2468 28.1462 37.3036 28.2551C37.4103 28.4684 37.4103 28.7217 37.3303 29.0151C37.2643 29.2671 37.1013 29.4827 36.8769 29.6151C36.6769 29.7351 36.4369 29.7484 36.1836 29.6684C36.0648 29.6381 35.9535 29.5833 35.8571 29.5076C35.7607 29.4318 35.6811 29.3367 35.6236 29.2284C35.5702 29.1118 35.5404 28.9858 35.5358 28.8577C35.5312 28.7296 35.552 28.6018 35.5969 28.4817Z" fill="#309E3A"/>
<path d="M35.9709 28.5867C35.9176 28.7867 35.9043 28.96 35.9709 29.0934C36.0376 29.2267 36.1309 29.3067 36.2776 29.36C36.4109 29.4 36.5443 29.3867 36.6776 29.3067C36.8109 29.24 36.8909 29.0934 36.9576 28.88C37.0243 28.68 37.0243 28.52 36.9576 28.3867C36.9313 28.3234 36.8913 28.2667 36.8406 28.2207C36.7899 28.1746 36.7297 28.1402 36.6643 28.12C36.5987 28.0974 36.5289 28.0892 36.4599 28.0961C36.3908 28.103 36.3241 28.1248 36.2643 28.16C36.1309 28.24 36.0376 28.3734 35.9709 28.5867Z" fill="white"/>
<path d="M39.2383 31.0791L40.0916 29.4258L40.7983 29.7858C40.9315 29.8497 41.0531 29.9353 41.1583 30.0391C41.225 30.1058 41.2649 30.1858 41.2649 30.2924C41.2649 30.3991 41.265 30.4924 41.2116 30.5858C41.1604 30.7057 41.0648 30.8012 40.945 30.8524C40.8116 30.8791 40.6783 30.8791 40.5316 30.8258C40.5849 30.9058 40.6116 30.9858 40.6383 31.0524C40.6649 31.1324 40.6783 31.2524 40.6916 31.4258L40.7183 31.8524L40.3183 31.6524L40.2649 31.1591C40.2586 31.0473 40.2453 30.9359 40.225 30.8258C40.2159 30.7759 40.1927 30.7297 40.1583 30.6924L39.9983 30.5991L39.9316 30.5591L39.5716 31.2524L39.2383 31.0791Z" fill="#309E3A"/>
<path d="M40.0664 30.2939L40.3197 30.4272C40.4797 30.5072 40.5864 30.5605 40.6264 30.5605C40.6664 30.5605 40.7197 30.5605 40.7597 30.5339C40.7997 30.5205 40.8264 30.4805 40.8531 30.4272C40.8797 30.3739 40.8931 30.3205 40.8797 30.2672C40.8633 30.2141 40.8307 30.1675 40.7864 30.1339C40.7084 30.086 40.6283 30.0415 40.5464 30.0005L40.2797 29.8672L40.0664 30.2939Z" fill="white"/>
<path d="M46.1472 34.4932C46.2335 34.3561 46.3469 34.2381 46.4806 34.1465C46.5703 34.0891 46.6697 34.0485 46.7739 34.0265C46.8707 34.0068 46.9704 34.0068 47.0672 34.0265C47.2006 34.0532 47.3206 34.1065 47.4406 34.1865C47.5443 34.2512 47.6335 34.3367 47.7024 34.4377C47.7712 34.5387 47.8183 34.653 47.8406 34.7732C47.8806 34.9999 47.8139 35.2532 47.6539 35.5065C47.5201 35.7269 47.3043 35.8851 47.0539 35.9465C46.9345 35.9723 46.811 35.9726 46.6915 35.9473C46.5721 35.922 46.4593 35.8718 46.3606 35.7999C46.2568 35.7352 46.1676 35.6497 46.0988 35.5487C46.0299 35.4477 45.9828 35.3334 45.9606 35.2132C45.9206 34.9732 45.9872 34.7332 46.1472 34.4932Z" fill="#309E3A"/>
<path d="M46.4787 34.7084C46.3454 34.8818 46.3054 35.0418 46.332 35.1884C46.3418 35.256 46.3659 35.3206 46.4027 35.3781C46.4395 35.4356 46.4881 35.4846 46.5454 35.5218C46.6787 35.6151 46.812 35.6418 46.9454 35.6018C47.0787 35.5618 47.212 35.4685 47.332 35.2818C47.452 35.0951 47.5054 34.9351 47.4787 34.8018C47.4654 34.6684 47.3854 34.5484 47.2654 34.4551C47.1454 34.3618 46.9987 34.3484 46.8654 34.3884C46.732 34.4151 46.5987 34.5218 46.4654 34.7084H46.4787Z" fill="white"/>
<path d="M29.5703 27.2676L29.877 25.9609L30.837 26.1876L30.797 26.4009L30.0903 26.2409L30.0236 26.5343L30.677 26.6809L30.6236 26.9076L29.9703 26.7476L29.8903 27.1076L30.6236 27.2809L30.5703 27.4943L29.5703 27.2676Z" fill="#309E3A"/>
</g>
</g>
</g>
<defs>
<clipPath id="clip0_423_7896">
<rect width="64" height="64" rx="32" fill="white"/>
</clipPath>
<clipPath id="clip1_423_7896">
<rect width="64" height="64" fill="white"/>
</clipPath>
<clipPath id="clip2_423_7896">
<rect width="85.3333" height="64" fill="white" transform="translate(-10.668)"/>
</clipPath>
</defs>
</svg>
