<svg width="64" height="64" viewBox="0 0 64 64" fill="none" xmlns="http://www.w3.org/2000/svg">
<g clip-path="url(#clip0_423_7111)">
<g clip-path="url(#clip1_423_7111)">
<g clip-path="url(#clip2_423_7111)">
<path d="M-10.6562 0H74.6904V64H-10.6562V0Z" fill="#FFD520"/>
<path d="M-10.6562 64H74.6904V0L-10.6562 64Z" fill="#FF4E12"/>
<path d="M35.386 19.9966C34.8527 19.8233 34.506 20.09 34.5327 20.7833C34.5327 21.4633 34.906 21.85 35.4394 21.5966L35.386 19.9966Z" fill="white" stroke="black" stroke-width="0.0533333"/>
<path d="M35.8547 18.7173C35.4147 18.3706 35.0013 18.5173 34.788 19.1706C34.588 19.8373 34.8013 20.3173 35.388 20.2373L35.8547 18.7173Z" fill="white" stroke="black" stroke-width="0.0533333"/>
<path d="M36.5878 17.465C36.2145 17.065 35.7878 17.145 35.4678 17.7584C35.1611 18.3717 35.2945 18.8917 35.8945 18.9184L36.5878 17.465ZM36.1078 23.5317C35.4545 23.7717 35.3878 24.665 35.8011 25.2117C36.2011 25.7584 36.9611 25.865 37.3745 25.2117L36.1078 23.5317Z" fill="white" stroke="black" stroke-width="0.0533333"/>
<path d="M35.3477 21.6397C34.7344 21.4397 34.1744 22.2664 34.081 23.013C33.961 23.9464 32.6144 24.2664 33.361 25.693C33.521 24.7864 34.121 24.2797 34.601 24.253C35.081 24.213 35.801 24.1197 36.1077 23.533L35.3477 21.6397ZM37.3077 25.3197C36.5877 25.493 36.481 26.453 37.001 27.133C37.441 27.7197 38.8277 27.5864 38.7877 26.9997L37.3077 25.3197ZM39.3477 31.1064C39.3877 30.4797 38.3877 30.2397 37.9077 30.3597C37.4277 30.493 36.5077 30.3464 36.3077 29.8264C36.121 30.2397 36.3744 30.693 37.0677 30.9197C37.601 31.0797 37.5877 31.453 37.4277 31.6397C37.8277 31.7064 38.9877 31.7064 39.3477 31.1064Z" fill="white" stroke="black" stroke-width="0.0533333"/>
<path d="M38.7883 27.1586C38.0817 26.8386 37.6683 27.3186 37.4017 27.7719C37.0017 28.4386 35.7883 27.5853 35.375 28.4786C35.935 28.2386 36.495 28.7453 36.7617 28.9186C37.5217 29.4119 38.975 29.2653 39.1883 28.0919L38.7883 27.1586Z" fill="white" stroke="black" stroke-width="0.0533333"/>
<path d="M39.2006 27.9727C38.4939 28.506 38.2139 29.146 38.2406 29.5727C38.2539 29.9993 38.8539 30.946 39.5072 30.9993C39.8806 30.226 40.0806 28.5993 39.2006 27.9727ZM36.2672 31.2927C36.2672 31.026 36.6406 30.9327 36.9072 31.026C37.1606 31.106 37.5606 31.3593 37.4139 31.6393L36.2672 31.2927ZM32.4006 29.866C32.3339 29.5593 32.8272 29.026 33.4939 29.3193C34.1606 29.6127 34.2539 30.1727 33.9739 30.3993L32.4006 29.866Z" fill="white" stroke="black" stroke-width="0.0533333"/>
<path d="M34.026 30.4535C33.9727 30.2802 34.466 29.9335 35.2794 30.1335C36.106 30.3469 36.306 30.8802 36.2794 31.2935L34.026 30.4535ZM32.306 29.8802C32.746 29.5602 32.5727 28.9469 32.186 28.7469C31.4927 28.4002 31.746 27.5202 31.2927 27.3469C30.8527 27.1735 30.426 26.8669 30.3994 26.5469C30.186 26.9869 30.3194 27.3735 30.626 27.6535C30.9327 27.9202 30.386 29.0402 30.786 29.3335L32.306 29.8802ZM23.106 29.6402C22.746 29.0802 21.8927 29.1735 21.5327 29.5735C21.1727 29.9735 21.226 30.5469 21.5594 30.8135L23.106 29.6402ZM25.1727 28.8002C25.0394 28.0402 24.1194 27.9602 23.626 28.1469C23.1194 28.3335 22.786 29.0935 23.106 29.6402L25.1727 28.8002Z" fill="white"/>
<path d="M23.106 29.6402C22.746 29.0802 21.8927 29.1735 21.5327 29.5735C21.1727 29.9735 21.226 30.5469 21.5594 30.8135L23.106 29.6402ZM23.106 29.6402C22.786 29.0935 23.1194 28.3335 23.626 28.1469C24.1194 27.9602 25.0394 28.0402 25.1727 28.8002L23.106 29.6402ZM34.026 30.4535C33.9727 30.2802 34.466 29.9335 35.2794 30.1335C36.106 30.3469 36.306 30.8802 36.2794 31.2935L34.026 30.4535ZM32.306 29.8802C32.746 29.5602 32.5727 28.9469 32.186 28.7469C31.4927 28.4002 31.746 27.5202 31.2927 27.3469C30.8527 27.1735 30.426 26.8669 30.3994 26.5469C30.186 26.9869 30.3194 27.3735 30.626 27.6535C30.9327 27.9202 30.386 29.0402 30.786 29.3335L32.306 29.8802Z" stroke="black" stroke-width="0.0533333"/>
<path d="M26.5343 28.6907C26.8676 28.064 26.2276 27.1173 25.5076 26.984C24.9076 26.8507 24.201 26.864 23.961 26.2773C23.8276 26.784 24.201 27.1173 24.6543 27.4107C25.0943 27.704 24.5743 28.4507 25.2943 28.8773L26.5343 28.6907Z" fill="white" stroke="black" stroke-width="0.0533333"/>
<path d="M26.4795 28.7197C26.3195 28.2664 26.6262 27.653 27.2395 27.7064C27.8662 27.7464 28.2128 28.1864 27.9462 28.7597L26.4795 28.7197Z" fill="white" stroke="black" stroke-width="0.0533333"/>
<path d="M27.8537 28.7587C27.7604 28.2787 28.147 27.7187 28.7604 27.852C29.3604 27.9853 29.6404 28.4787 29.2937 28.9853L27.8537 28.7453V28.7587Z" fill="white" stroke="black" stroke-width="0.0533333"/>
<path d="M29.2008 28.9721C29.1475 28.4921 29.5608 27.9588 30.1608 28.1188C30.7608 28.2788 31.0141 28.7855 30.6408 29.2788L29.2141 28.9721H29.2008ZM18.8541 36.8388C17.6941 36.8388 17.4141 37.1055 17.2541 38.3055C17.0408 39.7721 19.0541 39.9455 18.8541 36.8388Z" fill="white" stroke="black" stroke-width="0.0533333"/>
<path d="M19.3604 35.2907C17.6004 34.6241 16.6404 37.4241 14.8804 36.9174C15.507 37.9174 17.027 36.9174 17.6004 37.0241C18.5604 37.1974 20.6404 36.8374 19.3604 35.2907ZM18.2137 39.1174C17.3337 38.7174 16.4004 40.0507 16.5604 40.6507C16.787 41.3841 18.787 40.7841 18.2137 39.1174ZM14.1337 44.8907C14.6137 45.0241 15.2004 45.2907 15.0937 46.2241C14.987 47.1574 13.227 49.0374 11.6537 49.1574C10.0804 49.2507 9.52037 51.1574 8.14703 50.6241C9.42703 50.3841 9.42703 48.9441 10.4137 48.4907C9.6937 48.2241 9.32036 49.8641 8.38703 49.8641C7.4537 49.8641 7.0137 51.3441 5.88036 51.2374C4.74703 51.1441 4.64036 53.0374 2.36036 53.0641C0.627031 53.0774 -1.5063 55.1041 -2.29297 54.2241C-0.599635 53.9841 0.0803646 53.0507 1.08036 52.0241C2.68036 50.3841 4.50703 51.1174 5.1337 49.6641C4.41398 50.1497 3.56179 50.4012 2.6937 50.3841C1.62703 50.3574 0.480364 52.0641 -0.706302 51.3174C-0.0263023 51.2241 0.427031 50.9307 1.14703 50.1707C1.88036 49.3974 2.9737 49.9041 3.82703 49.1041C5.16036 47.8774 6.32036 48.9041 7.60036 47.3707C7.24036 47.1841 6.46703 47.3041 5.74703 47.6907C5.02703 48.0641 4.10703 47.4241 3.28036 47.8774C3.3737 46.8641 5.30703 47.4374 6.50703 46.7441C7.86703 45.9441 8.98703 46.1841 10.0537 46.2774C8.56036 46.2774 7.98703 44.8507 5.92037 45.2641C5.02703 45.4507 4.30703 44.0241 3.4137 44.7441C3.44036 44.2107 4.3737 43.7841 5.3337 44.3041C6.2937 44.8241 6.68036 43.8507 8.60036 45.0641C9.40036 45.5574 10.747 44.7441 11.6004 45.2774C11.4937 44.9574 11.0004 44.7441 10.427 44.7974C10.787 44.0507 13.1204 44.1441 14.1337 44.8907Z" fill="white" stroke="black" stroke-width="0.0533333"/>
<path d="M15.6544 43.7719C14.9078 43.1853 13.8544 43.8919 13.1211 43.6119C13.1211 44.0919 13.3744 44.8119 14.1611 45.0919C14.4011 44.9186 15.4944 43.9719 15.6544 43.7719Z" fill="white" stroke="black" stroke-width="0.0533333"/>
<path d="M16.8395 42.1046C15.6529 41.5046 15.4529 42.9979 14.5195 42.6912C14.5595 43.1179 14.9062 43.6512 15.6529 43.7712L16.8395 42.1046Z" fill="white" stroke="black" stroke-width="0.0533333"/>
<path d="M17.5469 40.7444C15.8002 40.0644 15.5735 41.7444 14.5469 41.4111C14.7869 41.9978 16.2535 42.3178 17.0135 42.1044L17.5469 40.7444ZM19.9469 33.3844C19.4802 32.7178 18.5069 33.2511 18.3469 34.0378C18.2002 34.8111 18.5735 35.8911 19.2269 35.6378L19.9469 33.3844Z" fill="white" stroke="black" stroke-width="0.0533333"/>
<path d="M21.1337 31.3328C20.3337 31.1328 19.4004 31.2261 19.5071 31.9994C19.1871 32.1461 19.1071 33.1594 19.9471 33.3861L21.1337 31.3328Z" fill="white" stroke="black" stroke-width="0.0533333"/>
<path d="M21.6664 30.7971C20.8664 29.8637 19.9997 29.8771 19.5064 30.2637C18.5864 30.9971 17.7064 30.5837 17.6797 31.3037C18.2264 30.8771 18.7197 31.3837 19.1464 31.2371C19.5997 31.0771 19.933 31.9437 21.173 31.5837L21.6664 30.7971ZM19.7597 44.6504C19.8797 44.8771 20.613 44.9704 20.973 44.5971C21.453 44.0904 20.933 42.7037 20.173 42.5971C19.413 42.5037 19.3464 44.1704 19.7597 44.6504Z" fill="white" stroke="black" stroke-width="0.0533333"/>
<path d="M18.9062 44.6799C19.9729 45.0799 20.4396 44.1866 19.8662 43.6133C19.5706 43.99 19.2498 44.3463 18.9062 44.6799Z" fill="white" stroke="black" stroke-width="0.0533333"/>
<path d="M14.8544 46.16C14.641 46.7866 13.5744 46.8799 12.3744 48.7999C11.1744 50.7333 10.0277 49.9199 9.73438 51.2399C11.1744 50.0799 12.3077 50.84 13.1744 49.6933C14.4677 47.9466 15.5477 48.2 16.0544 47.0266C16.7744 45.3333 19.921 45.3733 20.1077 42.7199C19.041 42.5199 15.6677 45.3733 14.8544 46.16ZM41.9477 20.1999C43.321 20.6533 43.3477 22.4266 44.9344 23.0133C46.5077 23.5999 46.6677 25.0133 47.961 24.6666C46.761 24.3333 46.841 22.9466 45.5877 22.5999C44.121 22.1999 43.561 19.9599 42.3877 19.6133M48.2544 29.5199C48.4944 30.0799 48.4544 31.0533 47.5877 31.3066C48.0544 31.5999 48.7477 31.3333 49.121 30.6933C48.561 31.9466 48.9344 33.0799 49.8277 33.3066C49.401 32.4266 50.361 32.0133 50.0544 31.4399C50.6144 31.6933 51.121 32.4666 51.0944 32.9466C51.841 32.1199 50.561 31.0133 50.7877 30.2399L48.2544 29.5199ZM39.3344 38.3466C38.4944 37.6133 38.1344 38.5466 37.7344 38.2133C37.3344 37.9199 36.8277 37.8799 36.6277 38.1733C37.3477 38.1999 37.001 38.7599 38.401 38.8933C37.001 38.9866 37.2544 40.5599 36.321 40.4799C37.3077 41.4133 37.8277 39.6399 38.641 39.9333C38.401 39.9999 39.0144 40.5599 38.5877 41.3199C39.281 41.3066 39.561 40.3466 39.6544 39.8533L39.3344 38.3466ZM20.801 46.3733C20.5077 46.1066 19.601 45.9866 19.2677 46.1999C18.921 46.3999 19.041 46.4666 19.4544 46.4933C19.8677 46.52 20.3877 47.1866 19.5077 47.2266C19.0944 47.24 19.241 48.2399 18.3744 48.3066C18.721 48.7333 19.7344 48.4533 20.0944 47.9866C20.0277 48.3733 20.5344 48.7199 20.3344 49.1866C20.961 49.2533 20.601 47.8933 21.601 47.96C21.201 48.0133 21.361 48.9466 22.081 48.7066C21.6544 48.9066 21.881 49.4133 22.3477 49.2933C22.0544 49.3866 21.9477 49.7866 22.3744 50.0133C22.7877 49.4399 22.321 47.4133 20.8144 46.3733H20.801ZM58.2144 27.4266C58.5419 27.4511 58.871 27.4078 59.181 27.2993C59.491 27.1908 59.7753 27.0195 60.016 26.7961C60.2568 26.5727 60.4488 26.302 60.5802 26.001C60.7115 25.7 60.7793 25.3751 60.7793 25.0466C60.7793 24.7182 60.7115 24.3933 60.5802 24.0922C60.4488 23.7912 60.2568 23.5205 60.016 23.2971C59.7753 23.0737 59.491 22.9024 59.181 22.7939C58.871 22.6854 58.5419 22.6421 58.2144 22.6666C57.6139 22.7116 57.0527 22.9819 56.6431 23.4232C56.2336 23.8646 56.006 24.4445 56.006 25.0466C56.006 25.6487 56.2336 26.2286 56.6431 26.67C57.0527 27.1114 57.6139 27.3816 58.2144 27.4266Z" fill="white"/>
<path d="M41.9477 20.1999C43.321 20.6533 43.3477 22.4266 44.9344 23.0133C46.5077 23.5999 46.6677 25.0133 47.961 24.6666C46.761 24.3333 46.841 22.9466 45.5877 22.5999C44.121 22.1999 43.561 19.9599 42.3877 19.6133M14.8544 46.16C14.641 46.7866 13.5744 46.8799 12.3744 48.7999C11.1744 50.7333 10.0277 49.9199 9.73438 51.2399C11.1744 50.0799 12.3077 50.84 13.1744 49.6933C14.4677 47.9466 15.5477 48.2 16.0544 47.0266C16.7744 45.3333 19.921 45.3733 20.1077 42.7199C19.041 42.5199 15.6677 45.3733 14.8544 46.16ZM48.2544 29.5199C48.4944 30.0799 48.4544 31.0533 47.5877 31.3066C48.0544 31.5999 48.7477 31.3333 49.121 30.6933C48.561 31.9466 48.9344 33.0799 49.8277 33.3066C49.401 32.4266 50.361 32.0133 50.0544 31.4399C50.6144 31.6933 51.121 32.4666 51.0944 32.9466C51.841 32.1199 50.561 31.0133 50.7877 30.2399L48.2544 29.5199ZM39.3344 38.3466C38.4944 37.6133 38.1344 38.5466 37.7344 38.2133C37.3344 37.9199 36.8277 37.8799 36.6277 38.1733C37.3477 38.1999 37.001 38.7599 38.401 38.8933C37.001 38.9866 37.2544 40.5599 36.321 40.4799C37.3077 41.4133 37.8277 39.6399 38.641 39.9333C38.401 39.9999 39.0144 40.5599 38.5877 41.3199C39.281 41.3066 39.561 40.3466 39.6544 39.8533L39.3344 38.3466ZM20.801 46.3733C20.5077 46.1066 19.601 45.9866 19.2677 46.1999C18.921 46.3999 19.041 46.4666 19.4544 46.4933C19.8677 46.52 20.3877 47.1866 19.5077 47.2266C19.0944 47.24 19.241 48.2399 18.3744 48.3066C18.721 48.7333 19.7344 48.4533 20.0944 47.9866C20.0277 48.3733 20.5344 48.7199 20.3344 49.1866C20.961 49.2533 20.601 47.8933 21.601 47.96C21.201 48.0133 21.361 48.9466 22.081 48.7066C21.6544 48.9066 21.881 49.4133 22.3477 49.2933C22.0544 49.3866 21.9477 49.7866 22.3744 50.0133C22.7877 49.4399 22.321 47.4133 20.8144 46.3733H20.801ZM58.2144 27.4266C58.5419 27.4511 58.871 27.4078 59.181 27.2993C59.491 27.1908 59.7753 27.0195 60.016 26.7961C60.2568 26.5727 60.4488 26.302 60.5802 26.001C60.7115 25.7 60.7793 25.3751 60.7793 25.0466C60.7793 24.7182 60.7115 24.3933 60.5802 24.0922C60.4488 23.7912 60.2568 23.5205 60.016 23.2971C59.7753 23.0737 59.491 22.9024 59.181 22.7939C58.871 22.6854 58.5419 22.6421 58.2144 22.6666C57.6139 22.7116 57.0527 22.9819 56.6431 23.4232C56.2336 23.8646 56.006 24.4445 56.006 25.0466C56.006 25.6487 56.2336 26.2286 56.6431 26.67C57.0527 27.1114 57.6139 27.3816 58.2144 27.4266Z" stroke="black" stroke-width="0.0533333"/>
<path d="M45.7857 30.293C46.519 29.613 47.6123 29.2663 48.3723 29.7863C49.119 30.293 51.6257 30.9063 52.8657 30.053C54.1057 29.1996 54.6923 28.7463 55.239 28.853C55.639 29.4663 56.1457 29.7596 56.759 29.813C56.9457 30.0263 57.6257 30.1863 57.999 30.1463C58.5457 30.2796 59.2123 30.1063 59.7457 29.5196C60.5723 29.653 61.3457 29.0263 61.639 28.093C62.519 27.9996 62.5723 27.0263 62.0123 26.3596C61.5057 26.2663 61.8923 24.5196 60.0257 24.8663C60.8257 25.3463 60.2123 26.3063 60.8657 26.7596C60.4257 26.7596 59.839 26.9463 59.7057 27.613C59.879 27.1596 59.679 26.8396 59.5723 26.7463C59.5723 26.3463 58.7057 25.373 57.879 25.733C58.4657 25.8663 58.1457 26.7996 58.5723 27.173C58.4104 27.1796 58.2519 27.2225 58.1088 27.2987C57.9657 27.3749 57.8416 27.4823 57.7457 27.613C57.519 27.213 56.7323 26.813 56.2523 26.773C56.2523 26.6396 56.2257 26.373 56.159 26.2263C55.9457 25.813 55.759 25.3196 55.8523 24.693C55.4624 25.1519 55.1392 25.6637 54.8923 26.213C54.239 25.7596 52.6257 26.413 51.8657 26.5863C51.119 26.7596 48.5723 26.3463 47.999 25.733C47.183 25.0807 46.2231 24.6327 45.199 24.4263C43.7323 23.9996 43.7323 22.3996 42.119 21.293C42.079 23.293 45.1057 29.613 45.7857 30.293ZM28.959 45.4796C29.5708 45.4796 30.1575 45.2366 30.5901 44.804C31.0227 44.3714 31.2657 43.7847 31.2657 43.173C31.2657 42.5612 31.0227 41.9745 30.5901 41.5419C30.1575 41.1093 29.5708 40.8663 28.959 40.8663C28.3472 40.8663 27.7605 41.1093 27.328 41.5419C26.8954 41.9745 26.6523 42.5612 26.6523 43.173C26.6523 43.7847 26.8954 44.3714 27.328 44.804C27.7605 45.2366 28.3472 45.4796 28.959 45.4796Z" fill="white" stroke="black" stroke-width="0.0533333"/>
<path d="M23.4662 43.7034C23.9329 44.3034 24.7195 44.2634 25.0529 44.2234C25.3195 44.9434 26.1995 44.9167 26.5729 45.3167C26.9595 45.7167 28.2395 45.6767 28.6129 45.4501C28.2795 45.4234 27.8262 45.2101 27.4129 44.8501C26.8795 44.4234 27.1195 43.5434 26.7195 43.2501C26.8454 43.0898 26.9365 42.9051 26.987 42.7076C27.0375 42.5102 27.0463 42.3044 27.0129 42.1034C27.3329 41.9167 27.5729 41.6101 27.5995 41.4501C28.0779 41.427 28.5321 41.233 28.8795 40.9034C29.1729 41.1701 29.9062 40.8234 30.3062 41.2767C30.3862 40.1434 29.3062 39.5434 28.5729 39.9301C28.2929 39.7701 27.5195 39.8767 27.3729 40.0767C27.1462 39.9701 26.4662 40.3167 26.1729 40.5434C26.5062 40.3567 26.5595 39.7834 26.4262 39.5834C26.7195 39.4501 27.0395 39.0634 27.0795 38.7834C27.4795 38.8501 28.1062 38.5701 28.3729 38.6367C27.9329 38.0501 27.1995 37.8367 26.4395 37.9034C25.6529 37.9434 25.3195 38.4901 25.2129 39.0767C24.7595 39.3567 24.5995 40.2767 24.7729 40.6101C24.5062 40.6101 24.2529 40.8634 24.1595 41.0101C23.7613 40.8461 23.3367 40.7558 22.9062 40.7434M23.0795 39.8101C22.9195 39.3567 23.1195 38.9567 23.2262 38.6101C23.4929 37.7034 23.3329 37.4634 22.5195 37.5834C22.5675 38.3538 22.7573 39.1087 23.0795 39.8101Z" fill="white"/>
<path d="M23.4662 43.7034C23.9329 44.3034 24.7195 44.2634 25.0529 44.2234C25.3195 44.9434 26.1995 44.9167 26.5729 45.3167C26.9595 45.7167 28.2395 45.6767 28.6129 45.4501C28.2795 45.4234 27.8262 45.2101 27.4129 44.8501C26.8795 44.4234 27.1195 43.5434 26.7195 43.2501C26.8454 43.0898 26.9365 42.9051 26.987 42.7076C27.0375 42.5102 27.0463 42.3044 27.0129 42.1034C27.3329 41.9167 27.5729 41.6101 27.5995 41.4501C28.0779 41.427 28.5321 41.233 28.8795 40.9034C29.1729 41.1701 29.9062 40.8234 30.3062 41.2767C30.3862 40.1434 29.3062 39.5434 28.5729 39.9301C28.2929 39.7701 27.5195 39.8767 27.3729 40.0767C27.1462 39.9701 26.4662 40.3167 26.1729 40.5434C26.5062 40.3567 26.5595 39.7834 26.4262 39.5834C26.7195 39.4501 27.0395 39.0634 27.0795 38.7834C27.4795 38.8501 28.1062 38.5701 28.3729 38.6367C27.9329 38.0501 27.1995 37.8367 26.4395 37.9034C25.6529 37.9434 25.3195 38.4901 25.2129 39.0767C24.7595 39.3567 24.5995 40.2767 24.7729 40.6101C24.5062 40.6101 24.2529 40.8634 24.1595 41.0101C23.7613 40.8461 23.3367 40.7558 22.9062 40.7434M23.0795 39.8101C22.9195 39.3567 23.1195 38.9567 23.2262 38.6101C23.4929 37.7034 23.3329 37.4634 22.5195 37.5834C22.5675 38.3538 22.7573 39.1087 23.0795 39.8101Z" stroke="black" stroke-width="0.0533333"/>
<path d="M22.4805 37.6391C22.6938 37.8524 23.4138 37.9458 23.4938 37.2924C23.5871 36.5458 23.2805 36.2524 22.6271 36.5458C22.5738 36.7191 22.5205 37.4124 22.4938 37.6391H22.4805Z" fill="white" stroke="black" stroke-width="0.0533333"/>
<path d="M22.6406 36.5193C22.9073 36.6259 23.5073 36.8526 23.8406 36.2126C24.1073 35.6793 23.7473 35.2793 23.174 35.3059C23.0406 35.4659 22.774 36.0126 22.6406 36.5193Z" fill="white" stroke="black" stroke-width="0.0533333"/>
<path d="M23.1484 35.2512C23.2151 35.4645 23.9218 36.1445 24.4284 35.6512C24.9484 35.1579 24.9484 34.4112 24.1751 34.1445C23.9751 34.1712 23.3484 34.8912 23.1484 35.2512Z" fill="white" stroke="black" stroke-width="0.0533333"/>
<path d="M24.1719 34.1307C24.3185 34.5707 24.8119 35.304 25.7052 34.9707C26.5985 34.624 26.2119 33.504 25.7985 33.2773C25.2012 33.4482 24.6468 33.7435 24.1719 34.144V34.1307Z" fill="white" stroke="black" stroke-width="0.0533333"/>
<path d="M25.7988 33.2768C25.7322 33.6634 25.7988 34.6901 27.0255 34.6768C28.2388 34.6501 27.9055 33.2234 27.5855 33.0234C27.0922 33.0234 26.2522 33.0368 25.7988 33.2901V33.2768Z" fill="white" stroke="black" stroke-width="0.0533333"/>
<path d="M27.6407 33.0664C27.5073 33.3731 27.2007 35.2931 29.5873 34.7597C29.894 34.6931 30.694 32.9197 27.6407 33.0797V33.0664Z" fill="white" stroke="black" stroke-width="0.0533333"/>
<path d="M28.9486 33.2508C28.7086 33.4908 29.322 35.4241 30.9486 35.1041C32.5486 34.7708 31.202 32.9308 28.9486 33.2375V33.2508Z" fill="white" stroke="black" stroke-width="0.0533333"/>
<path d="M30.3199 33.5469C30.0533 34.0802 30.4533 35.6535 32.4399 35.6535C34.2399 35.6535 32.3466 33.5735 30.3199 33.5469Z" fill="white" stroke="black" stroke-width="0.0533333"/>
<path d="M31.8801 33.9986C31.7468 34.3052 31.6001 35.9719 33.9468 36.1186C35.6401 36.2252 35.2268 33.8119 31.8801 33.9986Z" fill="white" stroke="black" stroke-width="0.0533333"/>
<path d="M34.4005 34.7031C34.1205 35.2231 33.8138 36.5031 36.3872 36.6098C38.0272 36.6765 37.0138 34.7431 34.4138 34.7031H34.4005Z" fill="white" stroke="black" stroke-width="0.0533333"/>
<path d="M36.5461 35.1057C36.1728 35.6124 36.4528 36.6257 37.4128 36.8124C38.6128 37.0524 38.7861 35.9191 37.9594 35.3724C37.1328 34.8391 36.5461 35.1057 36.5461 35.1057Z" fill="white" stroke="black" stroke-width="0.0533333"/>
<path d="M37.732 35.332C37.452 35.8254 37.612 36.9854 39.4386 36.9854C39.812 36.9854 41.252 35.5187 37.7186 35.3454L37.732 35.332ZM23.612 57.732C24.3192 57.732 24.9975 57.4511 25.4976 56.951C25.9977 56.4509 26.2786 55.7726 26.2786 55.0654C26.2786 54.3581 25.9977 53.6798 25.4976 53.1797C24.9975 52.6796 24.3192 52.3987 23.612 52.3987C22.9047 52.3987 22.2265 52.6796 21.7264 53.1797C21.2263 53.6798 20.9453 54.3581 20.9453 55.0654C20.9453 55.7726 21.2263 56.4509 21.7264 56.951C22.2265 57.4511 22.9047 57.732 23.612 57.732Z" fill="white" stroke="black" stroke-width="0.0533333"/>
<path d="M43.2149 18.8917C42.9271 19.2125 42.6848 19.5714 42.4949 19.9583C41.6016 22.625 43.9882 24.625 45.3749 27.5183C45.9454 28.8203 46.1762 30.2458 46.0456 31.6613C45.915 33.0768 45.4273 34.436 44.6282 35.6117C44.0416 36.385 44.2149 36.6117 43.4549 37.3983C43.1616 37.705 42.8416 38.0917 42.9482 39.185C43.4282 39.0117 44.1082 39.4517 44.2416 39.8517C44.5882 39.665 45.0682 39.7317 45.2416 39.945C45.8282 39.6783 46.3082 39.8117 46.8282 40.345C47.2682 40.2917 47.7616 40.345 48.2016 40.8383C48.4416 40.3583 48.9216 40.1717 49.2682 40.2917C49.2282 39.665 49.8416 39.225 50.3882 39.465C50.3455 39.289 50.3507 39.1047 50.4033 38.9314C50.456 38.758 50.5541 38.602 50.6875 38.4795C50.8209 38.3569 50.9848 38.2724 51.1619 38.2347C51.3391 38.197 51.5232 38.2074 51.6949 38.265C52.3216 37.785 53.5616 37.745 54.1749 38.465C53.0682 38.1583 53.1082 39.3317 52.1749 39.225C52.4149 39.905 51.8016 40.305 51.1882 40.5317C51.5882 40.345 52.0149 40.1183 52.1482 40.3583C52.4949 40.0517 53.1749 40.1717 53.3482 40.3183C53.8016 40.185 54.2416 40.2917 54.4416 40.8383C55.0682 41.2117 55.4816 42.1717 55.0282 42.8917C54.8949 42.145 54.3749 42.1717 54.1749 41.865C53.6949 42.0383 53.2149 42.0383 53.0682 41.7317C52.8016 41.9983 51.8682 42.2517 51.4682 41.8383C51.3082 42.4517 50.7749 42.9717 50.1482 42.9717C50.3216 43.4517 49.8416 44.265 49.4682 44.6783C50.0549 44.985 49.8682 45.6783 49.7349 46.0917C50.6416 46.225 49.8682 47.025 51.4282 47.5317C50.6682 47.7717 49.1882 47.5317 48.9882 46.5983C48.2282 46.5717 47.7216 45.8117 47.7482 45.025C47.1616 44.4783 47.0816 43.6917 47.8816 43.1317C47.2016 43.345 46.8149 42.2383 45.8282 42.6917C45.3349 42.9183 44.0282 42.5317 44.0416 42.0783C43.8416 42.4117 42.5749 42.2783 42.4149 41.6917C42.0016 41.9183 41.0416 41.545 41.0549 40.9717C40.5216 41.2117 39.8016 40.785 39.8416 40.2383C39.3349 40.1717 39.2816 39.7183 39.3082 39.345C38.8682 39.1317 38.9882 38.705 39.1749 38.1983C38.8549 37.8517 38.9883 37.3717 39.2283 36.9183C38.8949 36.5717 38.9616 36.1717 39.0549 35.6783C37.4149 35.545 35.3482 35.145 30.6149 33.6917C23.4682 31.4917 21.5482 36.6517 23.1216 39.8783C24.9482 43.6117 22.9216 44.4117 23.5349 47.185C24.2016 47.3183 24.5349 47.8783 24.4949 48.465C24.8949 48.4783 25.1616 48.8383 25.0283 49.5317C25.2094 49.5019 25.3949 49.514 25.5706 49.5672C25.7462 49.6204 25.9074 49.7131 26.0416 49.8383C26.2816 49.385 27.0816 49.2783 27.4816 49.7983C28.3749 49.7317 28.8282 50.465 28.7882 51.345C29.0035 51.7484 29.0991 52.2049 29.0636 52.6608C29.0282 53.1167 28.8633 53.553 28.5882 53.9183C28.6416 53.5583 28.5882 53.0517 28.5749 52.7317C28.5349 52.1717 27.7483 52.0517 27.8283 51.585C27.4283 51.625 27.0283 51.3983 26.8949 51.0917C26.7759 51.1944 26.6321 51.2644 26.4779 51.2948C26.3236 51.3251 26.164 51.3149 26.0149 51.265C26.4682 51.465 26.8416 52.2917 26.6949 52.8383C26.9349 53.2517 26.8816 54.0117 26.6016 54.3317C26.4682 54.9983 25.9349 55.2383 25.2682 54.945C25.6549 54.705 25.7882 54.2783 25.7749 53.9183C25.5499 53.6934 25.4128 53.3955 25.3882 53.0783C24.7216 53.185 23.7883 52.6117 23.6282 52.385C23.2769 52.385 22.9291 52.4544 22.6047 52.5892C22.2803 52.7241 21.9857 52.9217 21.7379 53.1707C21.4901 53.4198 21.294 53.7153 21.1607 54.0404C21.0275 54.3655 20.9598 54.7137 20.9616 55.065C20.8816 54.5183 20.1882 53.9717 20.2816 53.505C19.8682 52.2383 20.4549 51.0517 22.1349 50.8117C21.9216 50.3317 22.6416 49.8383 22.3749 49.2917C21.8394 48.3178 21.1807 47.4171 20.4149 46.6117C21.0016 45.6117 20.8149 44.2783 20.4816 43.4517C19.9882 42.265 19.5216 42.5583 17.7749 44.4783C14.9216 47.6117 11.1082 46.745 7.74825 48.8117C6.85491 49.345 5.96158 49.5583 6.92158 48.5983C7.88158 47.6383 10.4149 46.6783 12.0682 45.8517C15.1616 44.305 17.7749 41.7317 18.8016 36.7183C21.2149 24.9317 30.1349 28.825 35.7616 31.0117C41.0549 33.0783 40.0949 28.4117 37.4149 25.585C34.1882 22.2117 34.8416 19.545 36.3482 17.4117C39.0549 17.0383 44.2682 17.985 43.2149 18.8917Z" fill="white" stroke="black" stroke-width="0.0533333"/>
<path d="M52.7888 47.837C53.1749 47.837 53.5572 47.761 53.9139 47.6132C54.2706 47.4655 54.5947 47.2489 54.8677 46.9759C55.1407 46.7029 55.3573 46.3788 55.505 46.0221C55.6528 45.6654 55.7288 45.2831 55.7288 44.897C55.7288 44.5109 55.6528 44.1286 55.505 43.7719C55.3573 43.4152 55.1407 43.0911 54.8677 42.8181C54.5947 42.5451 54.2706 42.3286 53.9139 42.1808C53.5572 42.0331 53.1749 41.957 52.7888 41.957C52.0108 41.957 51.2647 42.2661 50.7146 42.8162C50.1645 43.3663 49.8555 44.1124 49.8555 44.8904C49.8555 45.6683 50.1645 46.4144 50.7146 46.9645C51.2647 47.5146 52.0108 47.8237 52.7888 47.8237V47.837Z" fill="white" stroke="black" stroke-width="0.0533333"/>
<path d="M41.5763 19.0273C40.9096 21.9207 41.4696 23.2273 42.4296 24.494C44.4163 27.1207 46.003 33.1073 43.7363 37.0273" stroke="black" stroke-width="0.0533333"/>
<path d="M45 33.64C45.2667 33.5467 45.8 33.2133 45.9067 32.6533M45.2133 32.3867C45.2933 31.8933 46.0667 31.68 46.08 31.1467M45.2267 30.4533C45.1733 29.9333 46 29.4667 45.88 28.96M44.7733 28.6C44.7067 28.3067 45.4667 27.76 45.2533 27.2933M44.2133 26.7867C44.0533 26.4667 44.5733 26.0933 44.3467 25.7467M43.3867 25.3467C43.3333 25.1333 43.6533 24.64 43.48 24.3467M42.56 23.6533C42.6267 23.56 42.9067 23.36 42.8 23.1067M42 22.4C42.1067 22.3467 42.44 22.24 42.4 22" stroke="black" stroke-width="0.0533333" stroke-linecap="round"/>
<path d="M24.8004 54.7868C24.1338 54.5468 23.2671 54.8801 23.0938 55.4668M23.6138 56.0001C23.6938 55.4134 24.5871 55.1601 24.8537 55.4268C24.2937 55.1201 24.0137 56.2268 24.5204 56.2534M29.1338 42.4134C28.7338 42.6268 28.6004 43.3734 29.1338 43.9468M29.7471 42.5868C29.4671 42.8268 29.4804 43.5468 29.9071 43.7201C29.5471 43.4534 29.9071 43.0134 30.1737 43.0001C30.4271 42.9868 30.6004 43.2934 30.2804 43.6001M53.8804 44.2934C52.9204 44.0268 52.1471 45.1468 53.0271 46.1468C53.0004 45.1868 53.6937 44.5468 54.5337 44.7201M54.1337 45.3868C54.0383 45.3868 53.9467 45.4247 53.8792 45.4922C53.8117 45.5597 53.7737 45.6513 53.7737 45.7468C53.7737 45.9334 53.9337 46.1201 54.2004 46.1201C54.3737 46.1201 54.5204 45.9201 54.5204 45.7601M57.5337 24.2934C57.6937 24.8801 58.4937 25.1334 59.1337 24.9868M59.1337 24.6134C58.6404 24.6268 58.2271 24.1601 58.2537 23.7734C58.2537 24.0668 58.9204 24.2001 59.1337 24.0134" stroke="black" stroke-width="0.0533333" stroke-linecap="round" stroke-linejoin="round"/>
<path d="M25.0546 44.2266C24.9212 43.8799 25.4546 43.5332 25.4812 43.2132C25.4946 42.8799 26.0946 42.6266 26.7212 43.2399M26.4279 39.5866L26.0946 39.7466M27.6146 41.4532C27.4679 41.4532 27.1612 41.4532 27.0012 41.3332M27.0012 42.1066C26.8946 42.1732 26.6279 42.2666 26.4679 42.3066M21.1212 52.4799C21.0946 52.7866 21.4146 53.2399 21.5746 53.3732M22.4546 51.7466C22.3601 51.8956 22.2961 52.0619 22.2663 52.2359C22.2366 52.4098 22.2416 52.5879 22.2812 52.7599M25.0146 52.7599C24.7079 52.5599 24.9079 52.0399 24.8812 51.6932C24.8412 51.3466 25.2412 50.7999 26.0146 51.2666M22.1346 50.7999C22.4412 50.7466 22.7612 50.7599 22.9746 50.8532M26.0412 49.8266C25.9339 49.9852 25.8696 50.169 25.8546 50.3599M27.4946 49.7866C27.2546 49.7866 27.0412 49.9599 26.9346 50.1332M24.1613 40.9999C24.4279 41.0932 25.1479 41.5332 25.1746 41.9866M27.0812 38.7599C26.2412 38.7466 25.9079 37.8932 26.5479 37.8932M28.5879 39.9199C28.2679 40.0532 28.4146 40.6132 28.8812 40.8932M26.5746 45.3066C26.4146 45.0932 26.6279 44.5066 27.1613 44.6799M27.8279 51.5732C27.8679 51.0399 28.5212 50.7466 28.7879 51.3332M25.3879 53.0666C25.3479 52.4932 25.6546 52.3066 25.8946 52.2666C26.1613 52.2399 26.5213 52.4532 26.6946 52.8266M20.2812 53.4932C20.3079 53.1466 20.6012 52.7866 20.9079 52.8399M51.7079 38.2532C51.4812 38.4132 51.3346 39.1466 52.1746 39.2132M50.4012 39.4666C50.4012 39.5466 50.5079 39.6666 50.5746 39.7332M54.4412 40.8399C54.2279 40.6666 53.6412 41.3732 54.1746 41.8666M48.9746 46.6132C48.8546 46.1199 49.3079 45.9866 49.7479 46.0932M47.8812 43.1332C48.1479 42.9732 48.4146 42.7732 48.7346 42.6932M47.7479 45.0266C47.7479 44.6266 47.9612 44.2666 48.1479 44.1732M49.2679 40.2932C49.2478 40.7251 49.3594 41.1529 49.5879 41.5199M53.3479 40.3199C53.0946 40.3999 52.8812 40.4932 52.7879 40.7066M53.0679 41.7332C53.2012 41.6266 53.3346 41.5066 53.3879 41.4266M59.5612 26.7332C59.5612 27.2132 58.9612 27.4799 58.5612 27.1732M60.8679 26.7599C61.1346 26.9599 62.0546 26.7599 61.8412 26.2266M59.7346 29.5199C59.4852 29.4468 59.2597 29.3088 59.0812 29.1199M61.6279 28.0932C61.3212 28.1599 61.1079 28.0932 60.9612 28.0266M56.7479 29.8132C57.0481 29.8003 57.3427 29.7277 57.6146 29.5999M56.2679 26.7732C56.0412 26.7466 55.8679 26.7866 55.7479 26.8799M59.7213 27.6132C59.6548 27.877 59.5163 28.117 59.3213 28.3066" stroke="black" stroke-width="0.0533333" stroke-linecap="round"/>
<path d="M55.668 28.3733C56.0946 28.1866 56.628 29.6399 57.668 29.1333M57.748 27.6133C57.6035 27.8366 57.5206 28.0942 57.508 28.3599" stroke="black" stroke-width="0.0533333" stroke-linecap="round" stroke-linejoin="round"/>
<path d="M37.2018 25.3858C37.3352 25.3591 37.5885 25.3191 37.6418 25.1458M19.5352 41.3724C20.0552 41.6658 20.4152 42.1591 20.2018 42.8925M43.1485 23.7991C43.3085 23.9058 43.8818 23.9058 44.2152 23.7991M44.6152 24.1458C44.6152 24.3858 44.6818 25.2924 44.2152 25.4791M44.3885 25.3724C44.8152 25.5058 45.6685 25.4524 45.9485 24.6658M45.3485 25.3324C45.5752 25.6791 45.6418 26.3458 44.9752 26.7058M45.5085 25.9058C46.0152 26.0658 47.1618 26.0924 47.0418 25.1058M46.6418 25.9058C47.0018 26.3724 48.5085 26.9458 48.2685 25.9458M45.2685 27.2791C45.8418 27.4258 46.6685 27.0258 46.3352 25.9991M47.9752 26.5191C48.0552 26.9191 49.9752 27.3191 49.7218 26.4258M49.3618 26.9458C49.7218 27.7724 51.6285 27.7058 51.0285 26.5991M50.7218 27.4658C51.0952 27.9191 52.7885 27.6524 52.1085 26.5324M52.0952 27.4391C53.1485 28.2391 54.3618 27.1058 53.0285 26.2791M53.6418 27.1858C54.5752 27.9191 55.7085 26.5858 54.8952 26.2124M46.3085 26.8791C46.6018 26.9591 47.2152 26.9324 47.3618 26.3991M47.1218 26.7591C47.0952 27.5324 48.4018 27.8258 48.7352 26.9324M48.2952 27.4258C48.5352 27.9458 49.6952 28.1458 49.8818 27.4124M49.6952 27.7591C49.8818 28.2658 50.8818 28.2124 51.1618 27.6791M50.7885 28.0258C51.0952 28.6924 52.3752 28.6924 52.6552 27.7191M52.4418 28.1458C52.9352 28.4524 54.0018 28.3324 53.9085 27.3724M53.7085 28.0658C54.4552 28.6658 55.4952 28.0791 54.9752 27.0658M54.9352 28.8524C55.3352 28.7858 55.5352 27.9991 55.1218 27.7858M45.7885 28.9858C46.5885 28.5458 46.7618 27.7858 46.1885 27.0524M46.4818 28.2391C47.0018 28.5458 47.9752 28.2124 48.1485 27.4658M47.1885 28.3191C47.4818 28.6924 47.5352 29.1591 47.1485 29.5858M47.4152 28.7991C48.3352 28.2391 49.4685 29.2791 48.6152 29.9191M48.4818 28.7458C48.6818 28.6924 49.0418 28.3191 49.0685 27.8924M48.8818 29.1458C49.2685 28.7458 51.8418 29.5458 50.2152 30.3858M50.0818 28.0658C50.5885 28.2524 50.8418 28.9591 50.0818 29.1991M50.7485 29.7858C51.2818 29.2124 53.0152 29.5724 52.3885 30.2924M51.9752 29.5591C52.2818 28.5058 54.1218 29.1591 53.5218 29.5858M51.6018 28.5191C51.6552 28.7191 51.6685 29.2258 51.3352 29.5058M53.1485 28.3058C53.1857 28.4239 53.1954 28.549 53.1769 28.6715C53.1584 28.7939 53.1122 28.9106 53.0418 29.0124M54.3085 28.3191C54.4152 28.5058 54.5752 28.8658 54.2018 29.1591M39.6152 20.4258C39.6285 21.3991 39.9752 22.0524 41.2952 21.4391M40.0285 21.5858C39.3618 22.4658 40.1085 23.4124 41.4018 22.4658M38.0018 21.9991C38.8952 22.9591 40.4952 22.2658 39.4685 20.7991M40.5352 22.8258C40.3752 23.7724 41.1485 23.9591 41.7752 23.5324M37.2152 22.1591C37.3752 23.1058 38.3485 23.8524 39.2952 23.2791M38.3752 23.4658C38.3752 24.8258 40.2418 24.9724 40.6818 23.5724M40.0152 24.4258C40.6152 25.6658 41.9218 25.1591 42.3485 24.4124M38.6952 22.4524C38.9352 23.0524 39.4152 23.7191 40.5218 23.2258M35.2552 22.1591C35.4152 22.6524 36.3085 23.2524 37.3352 22.5591M35.8952 22.7991C35.3352 23.5991 36.4285 24.3591 37.7618 23.1591M36.5485 23.7858C36.7618 24.9191 37.2152 25.8391 38.8152 24.3724M38.0152 24.9591C38.6018 25.6791 39.4952 26.1191 40.3352 24.9058" stroke="black" stroke-width="0.0533333"/>
<path d="M40.974 25.1758C40.9207 26.0424 41.0807 26.4691 41.7607 26.4291C42.294 26.4024 42.7873 25.9891 43.0807 25.5358M41.6407 26.4291C41.614 27.4158 42.3873 28.1891 43.8407 27.1891M42.2407 27.5891C41.974 28.3224 42.7873 29.5224 44.4007 28.9091M38.814 25.6291C38.7207 26.5624 39.5873 27.2024 41.0007 25.9891M39.5073 26.6691C39.5607 27.4424 40.4407 28.3758 41.7207 27.0291M40.1207 27.6558C40.0273 28.9758 41.2407 29.3491 42.2673 28.3358M38.294 26.6691C38.5607 26.6958 38.7873 26.4558 38.9207 26.2691M38.8673 27.6291C39.1073 27.6824 39.534 27.4691 39.6673 27.1891M39.4807 29.1891C39.7473 29.4958 40.6807 29.2824 40.8007 28.8824M40.5073 29.1758C41.014 30.3758 42.3873 30.3358 42.9607 28.9758M42.694 29.4558C42.9607 30.1624 43.614 30.6024 44.6807 30.3624M43.214 30.1758C42.614 31.1491 43.4007 32.3091 44.7473 31.1758M43.5473 31.6424C43.4807 32.2558 44.0407 32.9624 44.814 33.0424M41.0007 29.8424C40.8007 31.2291 41.8007 31.8958 43.0407 31.1491M39.5473 30.5091C39.8673 30.7624 40.454 30.7891 41.014 30.5891M41.6807 31.3891C41.3607 32.5624 42.5607 33.4024 43.5873 32.0958M40.0007 30.6958C40.0273 31.2958 40.6007 31.9491 41.614 31.7624M44.454 32.9624C43.7607 33.4158 43.6273 34.2424 44.5873 34.7758M42.774 32.7224C42.8007 33.4158 43.134 33.8158 43.9073 33.8824M41.7607 32.3624C40.7207 33.2958 41.734 34.4024 42.9607 33.4691M42.4807 33.7624C42.134 34.8424 43.414 35.4958 44.1073 34.4024M40.3473 31.4691C39.974 32.5358 40.454 33.2291 41.334 33.1624M38.9873 31.2558C39.0407 31.8958 39.5873 32.1224 40.214 31.9758M39.3873 31.9224C38.9207 32.8158 39.6273 33.2958 40.5607 32.9624M43.3607 34.9624C43.2273 35.5224 43.3073 35.9224 44.1473 36.1224M43.4273 35.7624C42.414 36.2158 42.3207 37.2024 43.1073 37.8291M42.6007 34.6691C42.4794 34.7752 42.3852 34.9086 42.3258 35.0584C42.2665 35.2081 42.2436 35.3699 42.2593 35.5302C42.2749 35.6906 42.3286 35.8449 42.4158 35.9803C42.503 36.1158 42.6212 36.2285 42.7607 36.3091M38.094 31.5358C37.5207 32.1091 38.0673 33.6958 39.3607 32.8291M41.454 33.5358C40.654 34.2024 41.014 35.3758 42.3207 35.0558M40.1473 33.0558C39.734 34.2158 40.1207 34.6291 41.054 34.6424" stroke="black" stroke-width="0.0533333"/>
<path d="M37.2429 31.4823C37.1151 31.5699 37.0074 31.6838 36.9269 31.8162C36.8464 31.9487 36.795 32.0967 36.7761 32.2505C36.7572 32.4043 36.7712 32.5604 36.8172 32.7084C36.8632 32.8564 36.9401 32.993 37.0429 33.109C37.3496 33.4556 37.9362 33.2956 38.1096 32.8556M35.7629 31.0156C34.9763 32.029 35.7629 33.229 36.8829 32.8823M39.9896 34.029C39.1896 34.309 38.5629 35.0423 39.0563 35.6956C39.3629 36.069 40.6296 36.1223 40.9896 34.6556M38.5363 33.0823C38.0696 33.749 38.2163 34.389 39.0696 34.709M38.4829 34.3356C37.9763 34.6023 37.6562 34.9356 37.7762 35.5356M37.3629 33.2823C37.1763 34.0823 37.4029 34.589 37.8963 34.829M37.3496 34.2423C36.5763 34.189 36.1762 34.509 36.4429 35.2823M36.5096 34.429C35.7496 34.1623 35.6296 33.4956 35.9629 32.829M35.8563 33.8423C35.0296 33.869 34.6562 34.2823 34.6562 34.8423" stroke="black" stroke-width="0.0533333"/>
<path d="M34.7357 30.6274C34.1357 30.8808 33.9357 31.6941 34.1624 32.1341C34.3891 32.5741 35.0957 32.6141 35.5224 32.3208M33.0691 29.9874C32.5224 30.6008 33.1491 31.8141 34.1357 31.5208M31.6557 29.5074C31.1491 30.2274 31.7091 31.4274 33.0291 31.0808M33.0957 34.4274C32.9624 33.5741 33.8557 33.0141 34.9624 34.1208M34.4291 32.3874C34.272 32.5286 34.1503 32.7048 34.0739 32.9016C33.9975 33.0985 33.9684 33.3106 33.9891 33.5208M30.2557 29.0941C29.6824 30.0541 30.3757 30.9341 31.5891 30.5874M33.4291 31.4808C32.6291 32.2808 32.8957 33.0941 33.4957 33.5608M32.9091 32.4274C31.6957 32.4408 31.6291 33.8541 32.6157 34.2941M31.9891 31.0141C31.4824 31.3608 31.3224 32.3074 32.1891 32.6808M31.9491 33.1341C31.4291 32.8941 30.8157 33.1874 30.8691 33.7874M31.1757 33.1474C30.7091 32.0541 29.3624 32.2408 29.4824 33.3741M31.5491 31.7874C31.2691 31.8408 30.6824 32.0141 30.4557 32.4541M30.5357 30.5474C30.4285 30.6581 30.3503 30.7936 30.3082 30.9418C30.266 31.0901 30.2613 31.2464 30.2943 31.397C30.3273 31.5475 30.397 31.6875 30.4973 31.8045C30.5976 31.9215 30.7254 32.0118 30.8691 32.0674M28.8957 28.8008C28.7891 29.5474 29.0824 29.9074 30.0157 29.8408M29.2157 29.7474C28.8691 30.6408 29.3491 31.0408 30.2824 30.9874M29.4291 30.8541C28.8824 31.5074 29.2557 32.2008 29.7891 32.4941M29.1757 31.6808C28.1891 31.5474 28.0424 32.6941 28.3757 33.2141" stroke="black" stroke-width="0.0533333"/>
<path d="M28.389 28.7344C27.789 29.001 27.4423 29.7477 27.7623 30.201C28.0956 30.6677 28.749 30.521 29.0956 30.281M27.9756 30.4144C27.469 31.1744 27.9223 31.7477 28.4556 31.961" stroke="black" stroke-width="0.0533333"/>
<path d="M26.0433 28.6406C25.6433 29.054 25.8966 29.894 26.8433 29.9206C27.63 29.9206 28.0166 29.2006 27.7766 28.6806M26.71 29.9206C26.4033 30.6006 26.6033 31.3473 27.7766 31.2273M28.2566 32.294C27.55 31.974 26.5766 32.294 26.99 33.1606M26.8966 31.0806C26.6033 31.494 26.6966 32.0806 27.03 32.4406M26.8433 32.174C26.3633 32.2673 25.8966 32.5206 26.1766 33.2806M26.11 32.6673C25.4966 32.4806 24.71 32.934 25.1766 33.5606M25.0833 32.9606C24.55 32.8673 23.9233 33.4406 24.43 34.0006M24.23 33.534C23.75 33.6673 23.1766 34.2006 23.6833 34.6406M26.6566 30.8406C25.9633 31.1473 25.8966 31.9206 26.2166 32.494M25.9233 29.4273C24.8966 29.8273 24.91 31.1873 26.0566 31.614M25.5633 31.3073C24.95 31.6673 24.83 32.3606 25.2433 32.8006M24.4833 28.9073C24.0833 29.0406 24.11 30.3073 25.2033 30.2806M23.35 29.334C22.5233 29.8806 23.5233 31.2673 24.8566 30.2673M24.1233 30.6273C24.0033 31.1873 24.1633 31.8006 25.07 31.8806M24.1766 31.374C23.5233 31.614 23.4033 32.9606 24.5766 33.0673M22.0966 30.1606C21.2566 30.934 22.79 31.6006 23.35 30.4806M20.9366 31.4406C20.5233 31.9473 21.9633 33.254 22.6033 31.0673M22.75 31.0273C22.79 31.5606 23.0966 31.854 23.7233 31.894M23.7233 32.3873C22.6966 32.5473 22.3766 33.814 23.51 34.094M21.8433 32.2273C21.8033 32.694 22.31 33.094 22.87 33.014M23.39 34.054C22.4566 34.2673 22.3366 35.4673 23.1633 35.3873M22.7366 36.5073C21.9633 36.2806 21.9366 35.3606 22.63 35.014" stroke="black" stroke-width="0.0533333"/>
<path d="M22.0967 35.7079C21.4434 36.1079 21.6967 37.0412 22.0434 37.1746C22.3901 37.3079 22.6701 37.1479 22.7101 36.8546M22.6434 38.1879C22.7234 38.6279 21.0567 38.4546 21.9101 37.0679M21.9101 38.2546C21.3501 39.1346 22.2567 39.8546 22.8301 39.0946M21.9767 39.3079C21.7501 40.0146 22.6034 40.5212 23.1501 39.9746M20.1367 32.7212C19.8301 33.3479 21.3767 33.5879 21.4701 32.2812M19.7101 33.6546C19.4034 34.8946 21.7367 34.6412 21.1367 33.0412M21.1901 33.8679C21.3451 33.9405 21.5151 33.9757 21.6863 33.9706C21.8575 33.9655 22.0251 33.9203 22.1755 33.8386C22.326 33.7568 22.4552 33.6409 22.5527 33.5001C22.6502 33.3593 22.7132 33.1975 22.7367 33.0279M22.0301 33.9079C22.0724 34.083 22.1497 34.2477 22.2574 34.3921C22.3651 34.5364 22.5009 34.6575 22.6567 34.7479M20.9101 34.2279C20.8034 34.8946 21.4834 35.4546 22.2434 35.4012M21.0301 34.8812C20.6567 35.4012 20.5367 36.3879 21.7234 36.4546M19.2034 35.0679C19.0167 35.6012 20.1367 36.1479 20.7767 35.2679M18.8567 36.4279C18.7634 36.8279 19.7634 37.3612 20.3234 35.6546M19.8834 36.5212C20.1234 36.9479 20.9367 37.2946 21.4301 36.4546M20.6301 36.9746C20.4167 37.5746 20.9901 38.1346 21.6701 37.9746M19.3367 36.8412C19.2034 37.6946 20.2034 38.1879 20.8034 37.7479M18.6834 37.2146C18.3901 38.3079 19.8034 38.7213 20.3367 37.8946M19.9767 38.2279C20.0301 38.8413 20.9901 39.3746 21.7367 38.8679M18.2567 38.7346C18.1901 39.0146 19.3367 39.2946 19.5101 38.3346M18.9234 38.9879C19.1901 39.6812 20.1234 39.8546 20.6567 38.9879M20.3501 39.3346C20.4834 40.0012 21.3101 40.3612 22.0567 39.9079M22.3634 40.1746C22.1767 41.0412 23.0834 41.7479 23.6434 41.2679M20.8967 40.0146C20.6301 40.9746 21.8301 41.5212 22.4967 40.9879M19.4567 39.5212C19.3901 40.4279 20.0967 40.9613 20.8967 40.5613M17.9234 39.6279C17.6834 40.2013 18.9634 40.6812 19.5634 40.1879M17.1367 41.2146C17.4701 41.5879 18.6034 41.2146 18.6967 40.3746M18.3901 40.9879C18.8034 41.4679 19.7901 41.7346 20.1767 40.6946M19.8301 41.2279C19.8301 41.9746 21.1367 42.5079 21.5634 41.1479M23.1234 41.4146C22.9901 41.7746 23.2834 42.3479 23.8834 42.4146M22.0301 41.1879C21.9501 41.5879 22.5501 42.1746 23.1901 41.9479M23.3101 42.1212C23.1367 42.5612 23.2834 43.2012 23.8834 43.1879M23.3634 42.9479C22.9101 43.3212 23.0967 44.0012 23.7501 44.0146M23.1367 43.5879C22.4967 44.0146 22.7234 44.9612 23.5634 44.9079M21.2034 41.7346C21.2034 42.6679 22.3634 42.8012 22.5767 41.9479M22.1367 42.4812C21.9634 43.0412 22.4034 43.5746 23.1101 43.4146M22.2701 49.1212C22.4301 49.3479 23.0701 48.9612 22.8967 48.5879C22.7234 48.2146 22.0434 48.4146 22.1234 48.8146M22.7367 48.4279C22.8167 47.6812 21.9367 47.5612 21.7101 48.2146M22.0301 47.8279C22.2567 47.4546 21.4967 46.9346 21.1901 47.4946M21.4567 47.2679C21.6701 46.7212 20.8167 46.4679 20.7501 46.9746M20.5501 46.2546C20.6567 45.9879 21.6167 46.1479 21.2167 46.7212M21.9501 47.4012C22.3234 47.0546 21.6834 46.3612 21.2834 46.6012M24.4834 48.4546C24.1901 48.4812 23.8834 48.6812 24.0967 49.3212C24.2567 49.7612 24.9101 49.7746 25.0167 49.5212" stroke="black" stroke-width="0.0533333"/>
<path d="M24.0692 48.7893C23.7759 48.5893 23.1359 48.9226 23.4292 49.5359M23.4292 49.5359C23.6425 50.0026 24.2025 49.8026 24.2825 49.5626M23.4292 49.5359C23.2959 49.8026 22.5759 49.9359 22.4159 49.6693M22.9225 48.8159C23.0825 48.7093 23.3625 48.8426 23.4159 48.9759M22.8825 44.5759C22.3759 44.9093 22.6825 45.9093 23.4559 45.6426M22.7092 45.3893C22.3092 45.6959 22.6825 46.6693 23.4159 46.2959M22.8425 46.2959C22.5625 46.5759 22.8292 47.3359 23.5359 47.1893M22.7359 46.6826C22.5759 46.6159 22.1759 46.6559 22.0025 46.9226M22.2825 43.1893C21.9092 43.5626 22.0959 44.2959 22.7892 44.3626M22.1492 43.9626C21.6159 44.2293 21.6159 45.2959 22.6825 45.3359M22.1092 45.1626C21.8025 45.4026 21.9492 46.3359 22.7225 46.2159M22.3492 46.1759C22.2425 46.2959 22.2159 46.5759 22.3225 46.6959M22.0159 45.8293C21.7492 45.8293 21.3759 46.0293 21.2825 46.3226M20.7892 45.3226C20.8825 45.0559 21.7359 45.0559 21.8025 45.8693M21.8825 44.9093C21.7625 44.9359 21.5359 45.0426 21.4825 45.2826M21.5092 42.3893C21.1492 42.7359 20.9759 43.7893 22.0825 43.9893M20.7625 44.5759C20.7625 44.2959 21.5359 44.0426 21.8025 44.4693M20.2692 43.0426C20.3759 43.2559 20.9092 43.5493 21.2292 43.3093M17.4959 41.3626C17.4907 41.486 17.5127 41.609 17.5605 41.7229C17.6083 41.8368 17.6806 41.9387 17.7722 42.0215C17.8639 42.1043 17.9727 42.1658 18.0909 42.2017C18.209 42.2376 18.3337 42.247 18.4559 42.2293C19.0292 42.1626 19.1492 41.6693 18.9759 41.3359M18.5492 42.2559C18.1625 42.7093 18.6292 43.3626 19.0559 43.1759M18.9759 41.9226C19.2025 41.8426 19.9359 41.7359 20.1625 42.0826M16.5892 42.0559C16.4159 42.3226 17.4825 42.5759 17.8425 42.0826M17.4825 42.3359C17.4425 42.6826 17.6159 43.2693 18.4959 43.0159" stroke="black" stroke-width="0.0533333"/>
<path d="M18.6407 43.549C18.7741 43.2557 18.1341 42.7757 17.6274 43.309C17.1341 43.8423 17.7074 44.4423 18.0141 44.2423M16.3607 42.4023C16.0941 42.8557 17.0941 43.669 17.6674 42.909" stroke="black" stroke-width="0.0533333"/>
<path d="M15.6954 43.1737C15.3354 43.5471 15.7887 44.2271 16.322 44.0137C16.8687 43.8137 16.8154 43.2404 16.682 43.0938" stroke="black" stroke-width="0.0533333"/>
<path d="M15.0018 43.8673C14.7085 44.134 15.0018 44.7473 15.4018 44.7473C15.8018 44.7473 16.0552 44.4407 15.9752 44.0273M16.6418 43.814C16.5885 44.214 17.1752 44.4807 17.5618 44.1073M17.5618 43.3873C17.6285 43.3073 17.5885 43.1607 17.4952 43.0807M14.3752 44.3873C14.0418 44.654 14.7752 45.4007 15.2152 44.7207M16.9618 44.254C16.7485 44.454 17.0952 44.9873 17.4418 44.8273M15.7885 44.6273C15.8418 44.9873 16.5618 45.2673 17.0152 44.7073M16.1752 44.9873C16.0685 45.2273 16.2952 45.5873 16.5752 45.5473M23.0152 47.1207C22.7485 47.6407 23.6018 48.254 24.2152 47.614M23.6285 47.894C23.4952 48.174 23.6552 48.574 23.8952 48.7207M22.8285 48.494C22.8818 48.2273 23.2552 47.9873 23.5885 48.1073M22.3885 47.814C22.4285 47.574 22.7352 47.3473 22.9752 47.414M42.9485 38.6807C41.8952 39.0673 41.3752 37.1073 42.6018 37.094C41.8685 37.254 41.2952 36.9473 41.2418 36.5473M42.2018 38.5473C41.9618 38.934 42.4285 39.5607 42.9485 39.1873M42.8152 39.2673C42.4418 39.8673 43.7352 40.7873 44.2552 39.8407M43.8418 40.2007C43.8418 40.774 45.5085 41.134 45.2685 40.0007M45.1085 40.614C45.5085 41.2807 46.9752 41.3473 46.8285 40.3473M46.4952 41.0407C46.8018 41.494 48.2552 41.7607 48.2018 40.8407M40.6418 35.4007C40.8418 35.934 41.5485 36.1207 42.3218 35.8007M40.1885 35.774C40.6818 36.0807 39.9752 37.494 39.2418 36.9207M40.2018 36.654C40.7352 36.9073 41.3885 36.7207 41.5752 35.9607M39.9218 36.9607C40.6152 37.5473 39.6152 38.7473 39.1618 38.2007M40.1752 37.4007C40.5085 37.6407 41.3485 37.5073 41.4285 36.8673M41.0552 37.4007C41.1218 37.814 41.4552 37.974 41.9085 37.9873M39.9885 37.974C40.3352 38.454 41.1885 38.5873 41.5752 37.9607M41.1885 38.3207C41.1618 38.774 41.6685 39.1607 42.2018 39.054M39.3352 39.334C39.7752 39.5607 40.2685 38.7073 39.8818 38.134M39.8552 40.2273C40.3885 40.254 40.4552 39.454 39.9485 39.0007M41.0685 40.9607C41.5218 40.854 41.3752 39.8807 40.2952 39.8007M42.4285 41.6807C42.8552 41.5607 42.5085 40.4807 41.3218 40.5473M44.0552 42.0673C44.3485 41.614 43.3885 40.8673 42.5885 41.2673M44.8552 42.6807C45.3885 42.8407 45.7618 41.4273 44.0685 41.654M45.8418 42.6807C46.3085 42.5473 46.6418 41.7207 45.2818 41.9873M46.8818 42.7473C47.2818 42.9607 47.4685 41.7473 46.2152 42.0807M39.9485 39.014C40.4685 39.294 41.2818 38.9607 41.2018 38.3073M41.0018 38.8673C41.1752 39.174 41.1085 39.774 40.7752 39.934M41.0418 39.5873C41.3885 39.7207 41.8552 39.6007 42.1352 39.054M41.6552 39.5873C41.7485 39.8273 41.7885 40.3073 41.5618 40.5473M41.7352 40.0007C42.1218 40.214 42.5618 39.934 42.7485 39.534M42.5085 39.8807C42.7752 40.054 43.0285 40.854 42.5618 41.1873M42.8285 40.814C43.1485 40.814 43.6285 40.814 43.9352 40.414M43.7085 40.6407C44.0018 40.7207 44.3485 41.2007 44.2285 41.6273M44.2418 41.4807C44.5752 41.4407 45.1352 41.214 45.2952 40.814M45.1352 41.0807C45.2831 41.1678 45.4023 41.2962 45.4781 41.4502C45.5539 41.6042 45.583 41.777 45.5618 41.9473M45.5618 41.6673C45.8952 41.654 46.1885 41.4807 46.2685 41.1207M46.1885 41.3607C46.4285 41.4407 46.7218 41.7207 46.7352 42.0407M46.6952 41.8407C46.9352 41.8007 47.1085 41.654 47.2685 41.414M47.9218 41.374C48.2285 41.6807 47.8152 42.7073 47.1752 42.5207M41.3218 20.5607C40.6952 20.9473 38.8818 20.8273 39.7752 19.334M41.5085 19.5473C40.2418 20.054 38.7085 19.0807 40.3085 18.0407M39.8818 17.694C38.8418 17.694 38.1352 19.374 39.5352 19.9607M35.8152 18.4007C35.5485 18.934 36.5218 19.5207 37.1885 18.9873C37.7085 18.574 37.6685 17.454 37.3618 17.0273M35.2818 19.6673C34.9352 20.8007 37.4685 20.8673 37.0685 19.0673M35.1485 21.3607C35.2285 22.214 37.5618 21.934 36.8152 20.2007M37.0818 19.7207C37.2685 19.9873 37.7885 20.4273 38.6685 20.334M37.4685 18.534C37.5485 18.8407 38.0685 19.0673 38.7352 18.8407M14.0552 44.6407C13.4552 45.054 14.3752 45.7207 14.7085 44.9873M13.5885 44.9607C13.0018 45.3873 13.9085 46.054 14.2418 45.3207M13.0952 45.2807C12.5085 45.7073 13.4152 46.3607 13.7618 45.6407M12.5885 45.574C12.0152 45.8807 12.6818 46.614 13.2552 45.974M12.0285 45.854C11.4552 46.1607 12.1218 46.894 12.6952 46.254M14.9085 44.974C14.8952 45.414 15.7218 45.5873 16.0285 44.934M15.4285 45.374C15.1618 45.7073 15.6418 46.1073 15.8952 45.9607M14.3218 45.3207C14.2952 45.694 15.0152 45.9073 15.3618 45.494M14.7085 45.7073C14.4818 46.0007 14.9352 46.414 15.2418 46.294M13.8418 45.654C13.8685 45.9473 14.2818 46.2807 14.7218 46.094M14.1085 46.054C13.9352 46.2007 14.0152 46.5607 14.2552 46.6807M13.2152 46.014C13.1485 46.2807 13.6018 46.7607 14.0685 46.454M13.3085 46.3207C13.0418 46.5473 13.0685 46.8673 13.4152 46.9207M12.6418 46.294C12.6152 46.4807 12.8418 46.774 13.1352 46.734M11.1752 46.2807C10.9085 46.4273 11.6018 47.174 12.0418 46.4807M10.4952 46.5873C10.1485 46.7473 11.0018 47.574 11.3885 46.734M12.7218 46.5607C12.4552 46.614 12.2818 47.0007 12.5085 47.1607M11.8418 46.694C11.8152 46.854 12.1485 47.094 12.4152 47.014M11.6285 46.7607C11.3618 46.9207 11.5085 47.374 11.8152 47.3073M10.7085 47.0673C10.4685 47.2407 10.6418 47.6007 10.9752 47.5207M11.1485 47.0407C11.1485 47.134 11.3752 47.2807 11.5485 47.214M9.88185 46.8807C9.57518 47.014 9.60185 47.7607 10.6152 47.3607M9.20185 47.1873C8.77518 47.3873 8.92185 47.9607 9.84185 47.414M9.90851 47.454C9.80185 47.5473 9.68185 47.9207 10.1085 47.774M9.14851 47.6407C8.97518 47.7873 9.08185 48.1073 9.45518 47.9873M8.25518 47.694C7.94851 47.8673 8.62851 48.1073 9.08185 47.6273M8.46851 47.9073C8.33518 48.0407 8.33518 48.454 8.68185 48.3073M7.58851 48.0807C7.38851 48.2273 7.72185 48.4407 8.38851 48.1473M7.85518 48.294C7.60185 48.494 7.62851 48.7473 7.98851 48.6673M7.13518 48.4007C6.86851 48.654 7.25518 48.814 7.72185 48.614M7.13518 48.6807C6.68185 48.8807 6.88185 49.2673 7.16185 49.1207M22.3352 49.9873C22.2285 50.214 22.5752 50.4007 22.9085 50.3473C23.2152 50.3073 23.5218 50.0407 23.2818 49.6807M23.2952 50.134C23.6152 50.374 24.1618 50.094 24.1618 49.734" stroke="black" stroke-width="0.0533333"/>
<path d="M42.2392 13.7343C40.8659 13.0676 38.0126 11.7876 37.1992 12.8143C37.9459 12.5076 40.1059 12.8276 41.8926 14.481L42.2392 13.7343Z" fill="white" stroke="black" stroke-width="0.0533333"/>
<path d="M43.0663 13.6653C41.4796 11.812 40.533 12.2253 39.3996 11.5986C38.333 10.9986 36.6263 10.8786 36.293 11.8253C37.853 11.0653 39.293 12.2253 40.1863 12.3853C41.3863 12.572 42.0796 13.5186 42.4396 13.9453L43.0663 13.6786V13.6653ZM49.053 13.4253C48.2263 11.5453 46.4663 12.0386 45.693 11.2386C44.5596 10.0653 41.693 8.97196 40.493 9.78529C43.1063 9.65196 44.2263 11.5853 45.613 12.2653C46.613 12.7453 47.6796 13.772 49.053 13.4253Z" fill="white" stroke="black" stroke-width="0.0533333"/>
<path d="M45.9586 13.2283C44.5586 11.4816 42.3853 9.93492 41.3986 10.5083C42.7053 10.5883 43.1186 11.4949 44.0386 12.0816C44.9719 12.6549 44.5586 13.5083 45.9586 13.2283ZM39.2653 16.3216C37.7986 15.7749 34.9053 15.4949 33.5586 17.1749C35.7986 17.5616 39.1586 17.3483 39.2653 16.3216Z" fill="white" stroke="black" stroke-width="0.0533333"/>
<path d="M38.9859 16.9739C37.5192 16.2805 36.3592 17.2405 34.9726 17.1072C32.3326 16.8405 30.4392 17.0005 30.1992 18.2805C31.7059 16.9205 34.2526 18.0405 35.2792 17.7605C36.3059 17.4939 40.1192 17.7205 41.3192 18.2405C40.7059 17.4805 39.7459 17.2805 38.9859 16.9739ZM43.6259 13.0405C43.2792 11.9072 43.3059 10.7072 44.9992 10.7872C44.5726 10.2539 42.9992 9.9872 42.7326 11.9739C40.8659 10.6005 38.8126 10.3605 38.4392 11.5472C39.3992 10.7205 40.8926 11.3205 42.6792 13.3472C42.9767 13.1958 43.2962 13.0923 43.6259 13.0405Z" fill="white" stroke="black" stroke-width="0.0533333"/>
<path d="M41.0535 14.5998C39.9869 13.9065 38.5469 12.7998 41.0669 12.3465C40.0002 11.7731 38.4002 12.0265 38.5735 14.0131C35.6935 12.8531 33.6269 13.2398 33.1869 14.3998C32.7069 15.6665 34.4935 16.3731 34.8002 15.5598C34.4802 15.6931 33.3602 15.3198 33.9469 14.5998C34.5335 13.8798 37.5202 14.4265 40.3602 15.9065C41.1602 16.3065 43.8669 16.2531 41.0535 14.5998Z" fill="white" stroke="black" stroke-width="0.0533333"/>
<path d="M40.2916 16.4936C39.4783 14.8136 36.8116 16.3336 36.2783 14.7069C35.5316 17.0936 40.0649 15.7736 40.2916 16.4936ZM57.2383 18.3069C57.7983 18.5869 58.2783 18.1469 57.4249 17.8136C57.9849 18.0803 58.4783 17.6669 57.6249 17.3203C58.1849 17.5869 58.6649 17.1736 57.8116 16.8269C57.5849 17.0536 57.2649 17.8936 57.2383 18.3069ZM57.5316 15.0803C58.7716 13.7736 57.4383 13.3336 58.9449 11.9869C60.1849 10.8936 59.1849 10.1603 60.3449 9.32026C60.7316 9.04026 61.5449 8.49359 61.6249 7.93359C62.1183 9.17359 60.0783 9.34693 60.2116 11.3336C60.3049 12.6003 59.4383 12.4936 59.1183 14.6403C59.0516 15.0803 58.7316 16.0803 57.5316 15.0803Z" fill="white" stroke="black" stroke-width="0.0533333"/>
<path d="M58.0781 15.6665C58.7715 14.1998 59.5581 14.2132 59.9448 13.6398C60.6648 12.5332 62.1848 13.8265 63.4781 12.8398C63.2515 14.2398 61.5181 13.7465 60.7581 14.6398C60.0115 15.5332 59.3848 15.9332 58.0915 15.6665H58.0781Z" fill="white" stroke="black" stroke-width="0.0533333"/>
<path d="M58.2669 16.1456C59.4669 15.1856 60.3469 15.8256 61.1736 15.3189C63.2669 14.0523 64.1069 15.5856 65.9736 14.9723C65.4936 16.1723 62.7202 15.1456 61.5202 16.0389C60.3202 16.9323 56.0936 17.7989 58.2536 16.1456H58.2669ZM54.7602 22.9989C54.7336 22.4523 54.2269 21.7456 53.5069 21.6656C52.7869 21.5723 52.4669 20.8123 51.9202 20.7856C51.3736 20.7456 51.0136 19.6523 50.2536 19.6656C49.5069 19.6789 49.1869 20.6656 50.9602 21.5589C52.7336 22.4523 54.6936 23.4789 54.7602 22.9989ZM52.5202 23.4656C51.7736 23.4923 51.6669 24.5989 50.9469 24.6256C51.9336 25.1589 52.6669 24.3856 53.1736 23.6923L52.5336 23.4656H52.5202Z" fill="white" stroke="black" stroke-width="0.0533333"/>
<path d="M53.1448 23.6016C52.4781 24.1482 52.2914 25.2949 53.2381 25.6282C52.6781 24.8416 54.2381 24.4949 53.7581 23.7616L53.1448 23.6016Z" fill="white" stroke="black" stroke-width="0.0533333"/>
<path d="M53.7853 23.6418C53.2786 24.6285 54.5986 24.7485 54.2519 25.5085C55.0119 25.3352 55.1319 23.9085 54.4386 23.5352L53.7853 23.6285V23.6418Z" fill="white" stroke="black" stroke-width="0.0533333"/>
<path d="M48.7461 21.5073C49.9861 21.4406 51.1061 22.1073 51.8661 23.1873C52.3461 23.8673 53.9594 24.1473 54.5194 23.5873C55.0528 23.054 54.7594 21.8806 53.3861 22.254C53.0394 21.6806 52.0528 21.8806 51.5594 21.4006C51.0794 20.9206 49.2261 19.5473 48.7461 21.5073Z" fill="white" stroke="black" stroke-width="0.0533333"/>
<path d="M53.387 22.2653C53.0537 22.3319 52.947 22.8919 53.1604 23.1853ZM54.0937 22.5986C54.187 22.7719 54.1204 23.0119 54.067 23.1319ZM50.707 21.5586C51.3337 21.5853 51.4537 22.0519 52.147 22.2253Z" fill="white"/>
<path d="M53.387 22.2653C53.0537 22.3319 52.947 22.8919 53.1604 23.1853M54.0937 22.5986C54.187 22.7719 54.1204 23.0119 54.067 23.1319M50.707 21.5586C51.3337 21.5853 51.4537 22.0519 52.147 22.2253" stroke="black" stroke-width="0.0533333" stroke-linecap="round"/>
<path d="M50.2811 20.0004C52.0133 20.3389 53.6971 20.8897 55.2945 21.6404C56.3745 22.2537 58.0545 22.4404 59.5078 22.0137C60.9745 21.6137 63.8011 21.227 63.6545 23.0537C64.4278 22.1337 63.4545 21.1604 61.4945 20.987C61.5345 20.0937 60.5745 19.2937 59.8945 19.827C60.5211 19.7337 61.0678 20.9204 59.8145 21.4004C59.8708 21.1937 59.8667 20.9753 59.8026 20.7709C59.7385 20.5665 59.6172 20.3848 59.453 20.2473C59.2889 20.1098 59.0887 20.0222 58.8763 19.995C58.6638 19.9678 58.448 20.002 58.2545 20.0937C58.8411 20.267 59.4545 21.267 58.1211 21.6404C57.2811 21.8804 56.0678 21.5737 55.1611 21.027C54.2545 20.4804 49.1611 18.4937 50.2811 19.987V20.0004Z" fill="white" stroke="black" stroke-width="0.0533333"/>
<path d="M55.8141 19.1077C55.1341 19.4144 55.5741 20.1344 54.5207 20.5477C53.4541 20.9477 52.7074 21.8944 52.9474 22.7077C53.6674 21.1211 54.9474 21.2011 55.3874 20.5744C55.8407 19.9611 56.4941 19.0544 55.8141 19.1077Z" fill="white" stroke="black" stroke-width="0.0533333"/>
<path d="M56.0011 19.2013C55.9745 20.4547 54.9878 20.0013 55.3745 21.7613C55.4945 22.308 55.7211 23.2013 55.3345 24.0947C56.4411 23.2947 55.7345 21.6013 56.2278 20.9613C56.4678 20.6413 56.7878 20.1613 56.8945 19.7613C56.6411 20.468 56.6678 21.8147 57.3611 22.1613C56.8011 20.828 58.8945 19.7213 57.4545 18.1613C57.2411 18.5613 56.5878 19.228 56.0145 19.2013H56.0011ZM52.5078 17.948C52.6811 18.2147 52.8545 18.8547 52.6945 19.228C53.0411 19.0147 53.5345 18.4813 53.6945 18.1213C54.4011 18.228 54.6678 19.0947 54.0011 19.4813C54.4011 19.4813 55.1211 19.4813 55.5078 19.0147C55.0278 18.4813 53.5345 17.6547 52.5078 17.948Z" fill="white" stroke="black" stroke-width="0.0533333"/>
<path d="M41.8256 15.4786C41.6395 15.3348 41.4187 15.2428 41.1856 15.2119C40.1456 14.9986 40.6923 14.0653 41.5723 14.0786C43.4656 12.0119 44.519 13.5986 46.8256 12.9586C47.6256 12.7186 48.1856 12.7853 48.6123 12.9853C49.6523 12.2919 50.8523 12.4786 51.7323 13.2919C51.8209 13.139 51.9636 13.0248 52.1323 12.9719C52.9456 12.7453 53.599 13.4253 53.8256 14.3186C54.4523 14.2119 55.1723 14.5186 55.6523 14.9453C56.3056 14.6119 56.7456 14.5986 56.919 14.9453C57.5056 14.6786 58.2523 14.4919 58.639 15.4253C59.0256 16.3586 57.7456 16.0786 57.5323 18.0386C57.399 19.2386 56.0656 19.7186 54.999 18.9986C53.2923 17.8386 51.6256 17.6653 50.799 19.3986C49.9856 21.1586 49.3323 22.1719 47.3323 21.5986C46.917 21.5043 46.4831 21.5365 46.0862 21.691C45.6894 21.8454 45.3479 22.1151 45.1056 22.4653C44.519 23.2653 43.639 22.5186 42.5723 22.5986C43.9056 22.3986 43.3856 22.0653 44.559 21.9853C45.6256 21.9186 45.3456 20.9186 46.0256 20.7853C43.359 21.4653 43.4523 20.4653 41.2523 21.1586C42.2123 19.9186 43.7323 20.6119 44.479 19.8919C42.4923 19.8519 41.599 18.5586 40.7056 19.0919C39.3056 19.9586 39.9056 22.3986 36.239 22.1853C34.4523 22.0919 33.319 22.3186 32.2656 23.3853C34.119 19.5453 36.639 21.6519 37.8656 20.4386C38.5021 19.866 39.0542 19.2061 39.5056 18.4786C39.5583 18.3731 39.6332 18.2802 39.7253 18.2066C39.8174 18.1329 39.9244 18.0801 40.039 18.0519C36.9856 17.0919 38.839 15.5853 41.8256 15.4786Z" fill="white" stroke="black" stroke-width="0.0533333"/>
<path d="M56.9174 14.9336C56.9574 15.0403 56.9841 15.1736 56.9841 15.3336C56.9841 16.0803 55.8507 16.1069 55.7841 17.2269C55.7441 17.8136 55.6774 18.1336 55.2908 18.0669C54.8908 18.0003 54.5441 17.3869 54.9174 16.6669" fill="white"/>
<path d="M56.9174 14.9336C56.9574 15.0403 56.9841 15.1736 56.9841 15.3336C56.9841 16.0803 55.8507 16.1069 55.7841 17.2269C55.7441 17.8136 55.6774 18.1336 55.2908 18.0669C54.8908 18.0003 54.5441 17.3869 54.9174 16.6669" stroke="black" stroke-width="0.0533333" stroke-linecap="round"/>
<path d="M42.4009 14.3593C42.1605 14.1835 41.872 14.0858 41.5742 14.0793ZM48.6142 12.9727C49.5209 13.3727 49.9609 14.306 51.2809 14.3593C52.5609 14.3993 53.3476 16.2527 55.4809 15.0393C55.5337 15.0117 55.5871 14.985 55.6409 14.9593M51.7342 13.2927C51.551 13.6258 51.4853 14.0109 51.5476 14.386ZM47.5742 17.186C45.9742 17.186 45.5476 17.9993 45.5476 18.786C45.5476 19.586 46.3076 20.6127 47.6409 20.6127C48.9742 20.6127 49.7076 19.786 49.7076 18.8927C49.7076 17.9993 48.8809 17.1727 47.5742 17.1727V17.186Z" fill="white"/>
<path d="M42.4009 14.3593C42.1605 14.1835 41.872 14.0858 41.5742 14.0793M48.6142 12.9727C49.5209 13.3727 49.9609 14.306 51.2809 14.3593C52.5609 14.3993 53.3476 16.2527 55.4809 15.0393C55.5337 15.0117 55.5871 14.985 55.6409 14.9593M51.7342 13.2927C51.551 13.6258 51.4853 14.0109 51.5476 14.386M47.5742 17.186C45.9742 17.186 45.5476 17.9993 45.5476 18.786C45.5476 19.586 46.3076 20.6127 47.6409 20.6127C48.9742 20.6127 49.7076 19.786 49.7076 18.8927C49.7076 17.9993 48.8809 17.1727 47.5742 17.1727V17.186Z" stroke="black" stroke-width="0.0533333"/>
<path d="M47.8678 20.5749C47.8412 20.1349 47.0278 20.2016 47.0678 19.8549C47.0945 19.5083 47.5078 19.3749 47.5078 18.8949C47.5078 18.4149 48.2278 18.3749 48.4678 18.7616C48.7078 19.1349 49.4278 19.8683 49.5878 19.4949M48.4678 18.7616C48.2476 18.9962 48.1206 19.3032 48.1108 19.6248C48.1009 19.9465 48.209 20.2606 48.4145 20.5083M48.9878 19.3349C48.8545 19.6016 48.8278 20.0016 48.9745 20.2416Z" fill="white"/>
<path d="M47.8678 20.5749C47.8412 20.1349 47.0278 20.2016 47.0678 19.8549C47.0945 19.5083 47.5078 19.3749 47.5078 18.8949C47.5078 18.4149 48.2278 18.3749 48.4678 18.7616M48.4678 18.7616C48.7078 19.1349 49.4278 19.8683 49.5878 19.4949M48.4678 18.7616C48.2476 18.9962 48.1206 19.3032 48.1108 19.6248C48.1009 19.9465 48.209 20.2606 48.4145 20.5083M48.9878 19.3349C48.8545 19.6016 48.8278 20.0016 48.9745 20.2416" stroke="black" stroke-width="0.0533333"/>
<path d="M55.3978 18.081C56.6644 18.1877 56.8644 16.7877 55.9311 16.7077M53.8378 14.3344C53.4111 13.7744 52.3978 13.5877 52.3711 14.761" stroke="black" stroke-width="0.0533333"/>
<path d="M52.2671 16.1056C51.8405 15.0389 50.7338 14.8922 50.1605 15.4256C49.6671 15.8656 49.6538 17.0256 50.6938 17.2656C51.0671 16.8256 51.7605 16.2656 52.2671 16.1056ZM51.8005 15.4389C51.1738 14.8922 50.2671 15.9322 51.0938 16.8789ZM40.0271 18.0389C40.4538 17.9456 41.0538 18.1456 41.9871 18.5722C42.5605 18.8522 44.3205 19.4389 45.4138 18.8522C44.2805 19.2656 43.4138 17.5589 42.5605 17.7589C41.7071 17.9722 40.1338 18.2922 39.4805 17.6522C41.0805 17.7589 41.9471 16.4789 43.8005 17.5856C44.3243 17.9105 44.9308 18.0771 45.5471 18.0656C44.0405 16.2522 42.0538 17.4122 41.8405 15.9322C42.7471 16.9189 44.9738 15.7189 46.1071 17.5456M42.1738 16.2122C41.9605 15.9456 42.0405 15.6789 41.8271 15.4789Z" fill="white"/>
<path d="M51.8005 15.4389C51.1738 14.8922 50.2671 15.9322 51.0938 16.8789M40.0271 18.0389C40.4538 17.9456 41.0538 18.1456 41.9871 18.5722C42.5605 18.8522 44.3205 19.4389 45.4138 18.8522C44.2805 19.2656 43.4138 17.5589 42.5605 17.7589C41.7071 17.9722 40.1338 18.2922 39.4805 17.6522C41.0805 17.7589 41.9471 16.4789 43.8005 17.5856C44.3243 17.9105 44.9308 18.0771 45.5471 18.0656C44.0405 16.2522 42.0538 17.4122 41.8405 15.9322C42.7471 16.9189 44.9738 15.7189 46.1071 17.5456M42.1738 16.2122C41.9605 15.9456 42.0405 15.6789 41.8271 15.4789M52.2671 16.1056C51.8405 15.0389 50.7338 14.8922 50.1605 15.4256C49.6671 15.8656 49.6538 17.0256 50.6938 17.2656C51.0671 16.8256 51.7605 16.2656 52.2671 16.1056Z" stroke="black" stroke-width="0.0533333"/>
<path d="M53.8407 14.3348C53.4673 13.9348 52.6407 14.2415 52.8807 15.0548C52.9679 14.863 53.1012 14.6957 53.2687 14.5678C53.4362 14.4398 53.6326 14.3552 53.8407 14.3215V14.3348ZM51.5073 16.5348C51.737 16.354 51.9934 16.21 52.2673 16.1081C52.1625 15.8364 51.9877 15.5972 51.7607 15.4148C51.5607 15.2815 51.0007 16.0415 51.5073 16.5215V16.5348Z" fill="black"/>
<path d="M50.4951 15.1336C49.8817 14.7203 49.3084 14.7603 49.1217 15.0936C48.6817 15.0936 48.3084 15.4136 48.2951 16.0536M49.2417 16.3336C48.5084 15.827 47.4951 16.0136 47.5617 17.147M47.1084 17.8003C47.4684 17.507 47.9884 17.2936 48.3884 17.8003M52.6284 16.6803C52.4951 16.867 52.3884 17.1603 52.6151 17.6136C52.3484 17.2403 51.6551 17.2403 50.9084 18.2003M54.2551 16.627C53.3617 16.7336 53.3884 17.3203 54.1084 17.5603M47.9084 14.4403C47.1484 14.2936 46.6017 14.7336 47.6417 15.107M49.3484 13.9336C48.2817 13.667 47.8551 13.947 48.3351 14.2003M46.2684 18.2003C46.2417 18.587 46.4417 19.0803 47.0684 18.5203M46.4817 19.3336C46.4817 19.4403 46.4684 19.5603 46.3884 19.6536M44.0017 14.3203C43.3484 14.1203 43.2284 13.5203 44.0017 13.5736M43.7884 15.707C43.0684 15.4536 43.0684 14.7603 43.6551 14.827M45.1217 15.3336C44.2817 15.1336 44.2551 14.547 44.8817 14.6403M45.2284 13.547C44.7751 13.5203 44.0951 14.0136 45.2417 14.307M46.4817 14.547C45.4284 14.4003 45.4551 14.8136 46.0684 15.0936M47.2684 13.547C46.4684 13.4003 46.1884 13.8803 46.7351 14.0803M44.7351 16.5203C44.5351 16.3603 44.3751 15.587 45.3084 15.8136M46.6817 16.2803C46.0551 16.107 45.4551 16.7336 46.0284 17.0803M47.5217 15.547C46.8551 15.4136 46.2951 15.6136 46.6551 15.8536" stroke="black" stroke-width="0.0533333" stroke-linecap="round"/>
<path d="M53.8122 14.332C53.6104 14.3685 53.4202 14.4529 53.2578 14.5782C53.0953 14.7035 52.9654 14.866 52.8789 15.052" fill="white"/>
<path d="M53.8122 14.332C53.6104 14.3685 53.4202 14.4529 53.2578 14.5782C53.0953 14.7035 52.9654 14.866 52.8789 15.052" stroke="black" stroke-width="0.0533333"/>
</g>
</g>
</g>
<defs>
<clipPath id="clip0_423_7111">
<rect width="64" height="64" rx="32" fill="white"/>
</clipPath>
<clipPath id="clip1_423_7111">
<rect width="64" height="64" fill="white"/>
</clipPath>
<clipPath id="clip2_423_7111">
<rect width="85.3333" height="64" fill="white" transform="translate(-10.668)"/>
</clipPath>
</defs>
</svg>
