<svg width="32" height="32" viewBox="0 0 32 32" fill="none" xmlns="http://www.w3.org/2000/svg">
<rect width="32" height="32" rx="16" fill="#B529AC"/>
<path fill-rule="evenodd" clip-rule="evenodd" d="M15.2016 10.8011C14.0346 10.8011 12.9155 11.2647 12.0903 12.0898C11.2651 12.915 10.8016 14.0341 10.8016 15.2011C10.8016 16.368 11.2651 17.4872 12.0903 18.3124C12.9155 19.1375 14.0346 19.6011 15.2016 19.6011C16.3685 19.6011 17.4877 19.1375 18.3128 18.3124C19.138 17.4872 19.6016 16.368 19.6016 15.2011C19.6016 14.0341 19.138 12.915 18.3128 12.0898C17.4877 11.2647 16.3685 10.8011 15.2016 10.8011ZM9.60156 15.2011C9.60164 14.3056 9.81645 13.4232 10.228 12.6279C10.6395 11.8326 11.2358 11.1476 11.9667 10.6304C12.6977 10.1131 13.542 9.77867 14.4289 9.65512C15.3158 9.53157 16.2194 9.62251 17.0639 9.92031C17.9084 10.2181 18.6692 10.7141 19.2824 11.3666C19.8956 12.0192 20.3434 12.8093 20.5882 13.6706C20.833 14.532 20.8677 15.4395 20.6894 16.317C20.511 17.1945 20.1248 18.0165 19.5632 18.7139L22.2256 21.3771C22.2845 21.432 22.3318 21.4983 22.3646 21.5719C22.3974 21.6455 22.415 21.7249 22.4164 21.8055C22.4179 21.886 22.403 21.9661 22.3729 22.0408C22.3427 22.1155 22.2978 22.1833 22.2408 22.2403C22.1838 22.2973 22.116 22.3422 22.0412 22.3724C21.9665 22.4026 21.8865 22.4174 21.8059 22.416C21.7254 22.4145 21.6459 22.3969 21.5723 22.3641C21.4987 22.3313 21.4325 22.284 21.3776 22.2251L18.7144 19.5627C17.8916 20.2254 16.8982 20.6418 15.8488 20.7639C14.7994 20.886 13.7369 20.7088 12.7839 20.2527C11.831 19.7966 11.0265 19.0803 10.4634 18.1864C9.90027 17.2925 9.60149 16.2576 9.60156 15.2011Z" fill="white"/>
</svg>
