<svg width="64" height="64" viewBox="0 0 64 64" fill="none" xmlns="http://www.w3.org/2000/svg">
<g clip-path="url(#clip0_423_3082)">
<g clip-path="url(#clip1_423_3082)">
<g clip-path="url(#clip2_423_3082)">
<path d="M9.34537 0H54.6387V64H9.33203L9.34537 0Z" fill="white"/>
<path d="M-13.293 0H9.34703V64H-13.293V0ZM54.6404 0H77.2804V64H54.6537L54.6404 0ZM16.1337 30.9333L14.3604 31.52L22.547 38.72C23.1737 40.5467 22.3337 41.0933 21.8004 42.0533L30.6804 40.9333L30.467 49.8667L32.3204 49.8267L31.907 40.9467L40.8004 42.0133C40.2537 40.8533 39.7604 40.24 40.267 38.3867L48.4404 31.5867L47.0137 31.0533C45.8404 30.1467 47.5204 26.7067 47.7604 24.5333C47.7604 24.5333 43.0004 26.1733 42.6937 25.3067L41.467 22.9733L37.1204 27.7467C36.6537 27.8667 36.4537 27.68 36.3337 27.28L38.3337 17.3067L35.1604 19.0933C34.8937 19.2133 34.627 19.1067 34.467 18.8L31.4004 12.6667L28.2537 19.04C28.0137 19.2667 27.7737 19.2933 27.587 19.1333L24.5337 17.44L26.3604 27.32C26.2137 27.72 25.867 27.8267 25.467 27.6133L21.307 22.9067C20.7737 23.7733 20.4004 25.1867 19.6804 25.5067C18.9604 25.8133 16.547 24.9067 14.9337 24.5733C15.4937 26.5467 17.2004 29.8533 16.1337 30.9333Z" fill="#D52B1E"/>
</g>
</g>
</g>
<defs>
<clipPath id="clip0_423_3082">
<rect width="64" height="64" rx="32" fill="white"/>
</clipPath>
<clipPath id="clip1_423_3082">
<rect width="64" height="64" fill="white"/>
</clipPath>
<clipPath id="clip2_423_3082">
<rect width="85.3333" height="64" fill="white" transform="translate(-10.668)"/>
</clipPath>
</defs>
</svg>
