<svg width="48" height="40" viewBox="0 0 48 40" fill="none" xmlns="http://www.w3.org/2000/svg">
<g clip-path="url(#clip0_423_23987)">
<g clip-path="url(#clip1_423_23987)">
<g clip-path="url(#clip2_423_23987)">
<path d="M22.5928 29.7647C22.5928 27.3743 22.572 24.9862 22.6053 22.5959C22.6137 21.9365 22.468 21.562 21.8065 21.252C19.5493 20.189 18.4155 17.8028 18.9585 15.4895C19.5036 13.17 21.638 11.4974 24.0345 11.5079C26.3915 11.5203 28.4698 13.1555 29.0356 15.448C29.6035 17.7488 28.4822 20.1827 26.2396 21.2312C25.524 21.5641 25.4013 21.9739 25.4054 22.6562C25.4262 27.1934 25.4158 31.7306 25.4158 36.2656C25.4158 36.5423 25.4179 36.8189 25.4158 37.0977C25.3992 38.3355 24.8978 38.9846 23.9763 38.9659C23.0921 38.9471 22.6053 38.3168 22.599 37.1414C22.5887 35.2358 22.597 33.3324 22.5949 31.4268C22.5949 30.8735 22.5949 30.318 22.5949 29.7647H22.5928ZM23.9596 14.335C22.6698 14.36 21.6609 15.3876 21.6754 16.6628C21.69 17.9402 22.7176 18.9575 23.997 18.9637C25.318 18.9678 26.3727 17.8882 26.3312 16.5755C26.2917 15.2919 25.2535 14.3121 23.9617 14.335H23.9596Z" fill="white"/>
<path d="M45.1733 17.0973C45.1275 11.8612 43.2678 7.39057 39.8311 3.54409C39.6002 3.28612 39.3526 3.04273 39.1279 2.77853C38.4976 2.04002 38.4789 1.19542 39.0738 0.650373C39.6771 0.0990909 40.476 0.182304 41.1957 0.875045C49.0406 8.39121 50.2701 20.8107 44.0166 29.6977C43.2012 30.8565 42.263 31.932 41.3247 32.995C40.555 33.8667 39.7104 33.9561 39.0614 33.3508C38.4331 32.7641 38.4976 31.9029 39.284 31.0749C43.0161 27.1411 45.0963 22.5207 45.1733 17.0973Z" fill="white"/>
<path d="M8.00468 0.0976562C8.4582 0.434666 9.01567 0.640617 9.14677 1.00051C9.3111 1.44986 9.25905 2.09267 9.05107 2.53162C8.80972 3.0413 8.2938 3.41991 7.90275 3.86093C1.19164 11.4187 1.16044 22.5005 7.82783 30.0729C8.1711 30.4639 8.53515 30.8363 8.87423 31.2295C9.51285 31.968 9.53573 32.8084 8.94495 33.3555C8.33955 33.9172 7.52618 33.8631 6.82304 33.1434C3.20331 29.4404 0.846323 25.0822 0.195184 19.9084C-0.728473 12.5712 1.65763 6.33443 6.68366 1.02963C7.02067 0.673902 7.49708 0.449228 8.00468 0.0976562Z" fill="white"/>
<path d="M6.23047 16.6056C6.28247 12.5094 7.8115 8.57352 10.9153 5.26582C11.7412 4.38584 12.4838 4.25894 13.1641 4.85391C13.8797 5.48217 13.8132 6.25396 12.9623 7.19218C7.73035 12.9609 7.70957 20.9929 12.9228 26.7783C13.4283 27.3399 13.9088 27.8767 13.5095 28.7005C13.031 29.6845 11.9035 29.7615 11.0172 28.8669C8.01332 25.838 6.23671 21.4423 6.23255 16.6035L6.23047 16.6056Z" fill="white"/>
<path d="M39.1354 16.9968C38.9066 13.3583 37.7001 10.1962 35.3181 7.48557C35.135 7.27754 34.9332 7.08615 34.7564 6.87396C34.2051 6.21658 34.1947 5.54672 34.7856 4.92055C35.3514 4.31934 36.1585 4.32974 36.8139 4.9788C38.7132 6.86564 40.1423 9.07909 40.91 11.6358C42.8217 18.0161 41.5881 23.739 37.1196 28.7235C36.9137 28.9523 36.689 29.1978 36.4206 29.3309C35.7529 29.6658 35.1204 29.5473 34.6586 28.9481C34.1593 28.299 34.2717 27.65 34.8209 27.0759C36.402 25.4241 37.648 23.5581 38.2534 21.3425C38.6424 19.9196 38.8484 18.4446 39.1375 16.9926L39.1354 16.9968Z" fill="white"/>
<path d="M35.7685 17.523C35.7478 19.9196 34.7617 22.4429 32.7916 24.5711C32.0302 25.3949 31.1648 25.4885 30.5303 24.8686C29.9291 24.2819 29.9998 23.4873 30.7217 22.6718C33.7236 19.2872 33.7236 14.7125 30.7217 11.3445C29.9998 10.5332 29.9291 9.72601 30.5344 9.14979C31.1606 8.55271 32.0448 8.67339 32.8124 9.45976C34.6722 11.3653 35.7727 14.1758 35.7685 17.5251V17.523Z" fill="white"/>
<path d="M12.2305 17.1545C12.2533 14.1484 13.2145 11.6916 15.0805 9.59051C15.8793 8.69178 16.7468 8.52746 17.4187 9.09746C18.1032 9.67788 18.0262 10.5162 17.2045 11.4357C14.3212 14.6519 14.3212 19.3513 17.2087 22.5862C17.2773 22.6632 17.3521 22.736 17.4229 22.8129C18.0199 23.4724 18.1032 24.1734 17.4916 24.8517C16.934 25.4674 16.0561 25.432 15.3863 24.7434C13.2873 22.5841 12.2492 19.9837 12.2326 17.1587L12.2305 17.1545Z" fill="white"/>
</g>
</g>
</g>
<defs>
<clipPath id="clip0_423_23987">
<rect width="48" height="39" fill="white" transform="translate(0 0.03125)"/>
</clipPath>
<clipPath id="clip1_423_23987">
<rect width="48" height="39" fill="white" transform="translate(0 0.03125)"/>
</clipPath>
<clipPath id="clip2_423_23987">
<rect width="48" height="39" fill="white" transform="translate(0 0.03125)"/>
</clipPath>
</defs>
</svg>
