<svg width="48" height="46" viewBox="0 0 48 46" fill="none" xmlns="http://www.w3.org/2000/svg">
<g clip-path="url(#clip0_423_23957)">
<g clip-path="url(#clip1_423_23957)">
<g clip-path="url(#clip2_423_23957)">
<path d="M42.2866 33.7452C42.2866 36.2732 42.2887 38.556 42.2866 40.8409C42.2824 43.7677 41.1068 44.9538 38.2154 44.9559C35.2034 44.9559 32.1935 44.9392 29.1816 44.9621C27.4346 44.9767 26.2008 44.2995 25.5277 42.6232C25.426 42.3676 24.9129 42.1392 24.5868 42.1351C21.5416 42.0976 18.4944 42.1351 15.4492 42.0893C14.9755 42.0831 14.3794 41.9044 14.074 41.5825C13.8082 41.302 13.6753 40.6021 13.8456 40.2801C14.0637 39.8688 14.6162 39.4783 15.0815 39.391C15.8459 39.2456 16.6581 39.3516 17.5264 39.3516V33.7452C17.1026 33.7452 16.7288 33.7452 16.3569 33.7452C11.9948 33.7452 7.63477 33.7494 3.27263 33.7452C1.11857 33.7432 0.00519301 32.6339 0.0031158 30.4923C-0.0010386 21.4565 -0.0010386 12.4207 0.0031158 3.38275C0.0031158 1.22246 1.10611 0.100772 3.24355 0.100772C17.0881 0.0966177 30.9327 0.0966177 44.7772 0.100772C46.8648 0.100772 47.9948 1.22869 47.9969 3.30174C48.0011 12.3729 48.0011 21.444 47.9969 30.5152C47.9969 32.609 46.8814 33.7307 44.8084 33.7473C43.9879 33.7535 43.1674 33.7473 42.2825 33.7473L42.2866 33.7452ZM45.1012 3.01509H2.91536V25.2515H25.4052C25.4052 23.6749 25.3969 22.1607 25.4073 20.6485C25.426 18.2098 26.7076 16.9198 29.1214 16.9157C32.2018 16.9095 35.2823 16.9136 38.3628 16.9157C41.0548 16.9157 42.2742 18.1433 42.2866 20.8582C42.2929 22.3019 42.2866 23.7456 42.2866 25.2536H45.1012V3.01509ZM28.2759 36.4144H39.4118V25.399H28.2759V36.4144ZM2.88004 30.8164H25.3408V28.1991H2.88004V30.8164ZM28.3361 22.4328H39.4658C39.4658 21.8927 39.4222 21.4378 39.4741 20.9974C39.5967 19.9713 39.1438 19.6971 38.1655 19.7179C35.6416 19.774 33.1179 19.7365 30.5941 19.7365C28.8755 19.7365 28.1007 20.5903 28.2697 22.2977C28.2718 22.3289 28.2967 22.3559 28.3361 22.4328ZM28.2281 39.4139C28.2281 40.0869 28.2406 40.6997 28.224 41.3104C28.2094 41.8774 28.4567 42.1143 29.03 42.1122C32.2392 42.0997 35.4506 42.1184 38.6599 42.0852C38.9216 42.0831 39.3827 41.8048 39.4055 41.6116C39.4948 40.8846 39.4408 40.1389 39.4408 39.4139H28.2281ZM25.345 33.8034H20.476V39.2851H25.345V33.8034ZM45.0991 30.8455V28.1991H42.349V30.8455H45.0991Z" fill="white"/>
</g>
</g>
</g>
<defs>
<clipPath id="clip0_423_23957">
<rect width="48" height="45" fill="white" transform="translate(0 0.03125)"/>
</clipPath>
<clipPath id="clip1_423_23957">
<rect width="48" height="45" fill="white" transform="translate(0 0.03125)"/>
</clipPath>
<clipPath id="clip2_423_23957">
<rect width="48" height="45" fill="white" transform="translate(0 0.03125)"/>
</clipPath>
</defs>
</svg>
