<svg width="64" height="64" viewBox="0 0 64 64" fill="none" xmlns="http://www.w3.org/2000/svg">
<g clip-path="url(#clip0_423_6532)">
<g clip-path="url(#clip1_423_6532)">
<g clip-path="url(#clip2_423_6532)">
<path d="M32 0H74.6667V64H32V0Z" fill="white"/>
<path d="M-10.668 0H31.9987V64H-10.668V0Z" fill="#006233"/>
<path d="M45.8642 24C44.1031 20.9497 41.3848 18.5658 38.1307 17.2179C34.8767 15.8701 31.2688 15.6336 27.8667 16.5452C24.4646 17.4568 21.4583 19.4655 19.3142 22.2598C17.17 25.0541 16.0078 28.4779 16.0078 32C16.0078 35.5222 17.17 38.9459 19.3142 41.7402C21.4583 44.5345 24.4646 46.5432 27.8667 47.4548C31.2688 48.3664 34.8767 48.1299 38.1307 46.7821C41.3848 45.4342 44.1031 43.0503 45.8642 40C44.2068 42.0702 41.9472 43.5744 39.3979 44.3049C36.8485 45.0353 34.1352 44.9559 31.633 44.0776C29.1307 43.1993 26.963 41.5655 25.4295 39.4019C23.8959 37.2384 23.0722 34.6519 23.0722 32C23.0722 29.3481 23.8959 26.7616 25.4295 24.5981C26.963 22.4345 29.1307 20.8007 31.633 19.9224C34.1352 19.0441 36.8485 18.9647 39.3979 19.6951C41.9472 20.4256 44.2068 21.9298 45.8642 24ZM46.3976 32L31.9976 27.3067L40.9576 39.5733V24.4267L31.9976 36.6933L46.3976 32Z" fill="#D21034"/>
</g>
</g>
</g>
<defs>
<clipPath id="clip0_423_6532">
<rect width="64" height="64" rx="32" fill="white"/>
</clipPath>
<clipPath id="clip1_423_6532">
<rect width="64" height="64" fill="white"/>
</clipPath>
<clipPath id="clip2_423_6532">
<rect width="85.3333" height="64" fill="white" transform="translate(-10.668)"/>
</clipPath>
</defs>
</svg>
