<svg width="48" height="55" viewBox="0 0 48 55" fill="none" xmlns="http://www.w3.org/2000/svg">
<g clip-path="url(#clip0_423_23970)">
<g clip-path="url(#clip1_423_23970)">
<g clip-path="url(#clip2_423_23970)">
<path d="M18.658 23.4884C19.5471 22.5397 20.2026 21.7984 20.9033 21.0999C25.542 16.4708 30.183 11.8441 34.8383 7.23175C36.3543 5.73003 38.1778 5.24138 40.2015 5.99223C42.1514 6.71448 43.2979 8.16852 43.5292 10.2566C43.7007 11.8084 43.1835 13.1576 42.0894 14.2659C40.7236 15.6509 39.3363 17.0168 37.9609 18.3944C37.6319 18.7258 37.315 19.0715 36.9336 19.4719C39.0884 20.7066 40.0609 22.4658 39.8559 24.8566C39.8392 25.0497 40.0633 25.3715 40.254 25.4549C42.8164 26.5919 43.8033 28.599 43.5053 31.3211C43.6769 31.4141 43.8104 31.4927 43.951 31.5595C47.66 33.3448 48.3513 37.204 45.4433 40.1478C42.3445 43.2848 39.2028 46.3764 36.0778 49.4871C34.9814 50.5787 33.8681 51.6586 32.786 52.7646C31.3462 54.2377 29.6038 54.9432 27.5538 54.9409C22.827 54.9361 18.1001 54.9791 13.3758 54.898C12.6368 54.8861 11.7334 54.5071 11.1971 53.9922C7.98864 50.9125 4.86127 47.7469 1.71959 44.5982C0.430027 43.3062 0.439561 42.6841 1.70291 41.4112C2.87805 40.2289 4.11041 39.0966 5.21882 37.8548C5.61689 37.4066 5.93392 36.7035 5.93869 36.1147C5.98636 30.0363 5.98636 23.9604 5.93869 17.8819C5.92915 16.7092 6.36536 15.9464 7.29499 15.3052C11.1876 12.6236 16.4483 14.5663 17.6354 19.1548C17.9714 20.4563 18.2528 21.7698 18.6556 23.4812L18.658 23.4884ZM20.0763 26.5562C20.3527 26.8946 20.603 27.195 20.8462 27.4977C24.0093 31.4356 23.728 37.5472 20.2336 40.9082C19.5041 41.6091 18.7223 41.783 17.8904 41.1442C17.1848 40.6007 17.1634 39.6234 17.7855 38.8058C20.758 34.9062 20.5362 31.724 17.1443 28.239C16.5985 27.6764 16.1813 26.8827 15.9716 26.1223C15.421 24.1344 15.0515 22.0987 14.5485 20.0964C14.0503 18.106 12.2911 17.0215 10.4176 17.4148C9.50466 17.6078 9.11375 18.0107 9.12327 19.0237C9.17811 25.0616 9.14237 31.0994 9.18051 37.1373C9.18762 38.1289 8.90399 38.8821 8.1698 39.552C6.97797 40.6365 5.84573 41.7878 4.68488 42.9129C7.30215 45.5516 9.805 47.9853 12.1934 50.5287C13.0682 51.4607 13.9669 51.7802 15.2088 51.754C18.6627 51.6824 22.1262 51.587 25.5706 51.7754C28.1688 51.916 30.1329 51.1699 31.8634 49.2058C33.6369 47.1963 35.6797 45.4229 37.7059 43.4468C35.9538 42.4338 34.9598 41.1728 34.6524 39.3994C34.6143 39.1729 34.1875 38.9155 33.8967 38.8463C31.6633 38.3005 30.3093 36.937 29.8111 34.6845C29.7516 34.4199 29.4584 34.0766 29.2033 34.0028C24.4908 32.625 23.3728 28.3678 26.8434 24.9067C30.0495 21.7101 33.2674 18.5232 36.4735 15.3291C37.5986 14.2088 38.7475 13.1075 39.8202 11.9371C40.5353 11.1576 40.4614 10.1589 39.7773 9.4652C39.1027 8.78116 38.1111 8.73343 37.2911 9.36032C37.0718 9.52724 36.8787 9.7322 36.6833 9.93005C31.3367 15.2552 25.9901 20.5803 20.6459 25.9078C20.4553 26.0985 20.2883 26.313 20.0739 26.5562H20.0763ZM36.9121 24.0009C36.4258 23.4527 36.0587 22.678 35.5153 22.5229C34.9122 22.349 33.9516 22.5158 33.4868 22.921C31.8754 24.3298 30.4023 25.8983 28.8982 27.4262C27.9566 28.3821 27.8708 29.5 28.6288 30.2676C29.4035 31.0542 30.4953 30.985 31.4701 30.0363C32.9767 28.5679 34.476 27.0877 35.9372 25.5741C36.3019 25.1951 36.5093 24.6635 36.9121 24.0009ZM34.5904 35.8191C35.1887 35.5855 35.6369 35.5354 35.8967 35.2876C37.2744 33.9765 38.6569 32.6631 39.9298 31.252C40.5996 30.5106 40.4566 29.5882 39.7248 28.8993C38.9931 28.2105 38.0754 28.1508 37.3483 28.8111C35.9705 30.0625 34.6262 31.3664 33.4152 32.7751C33.072 33.1732 33.0219 34.0957 33.2317 34.6201C33.4391 35.1349 34.1446 35.4496 34.5904 35.8167V35.8191ZM42.4207 34.3579C41.8844 34.52 41.5054 34.5248 41.3005 34.7154C40.2087 35.7357 39.0645 36.7249 38.1301 37.881C37.5652 38.577 37.8012 39.4875 38.5282 40.1049C39.2481 40.7176 40.0847 40.7914 40.7975 40.1669C41.7747 39.3112 42.7497 38.4173 43.5387 37.3947C43.8724 36.9609 43.9487 36.0742 43.7437 35.5474C43.5411 35.0301 42.8379 34.7059 42.4231 34.3579H42.4207Z" fill="white"/>
<path d="M19.5697 5.13306C19.5697 6.20333 19.5935 7.2736 19.565 8.34148C19.534 9.49044 18.9238 10.1674 17.9537 10.1388C16.8833 10.1078 16.3589 9.44751 16.3399 8.4559C16.297 6.2367 16.2994 4.0175 16.3399 1.80069C16.3589 0.80432 16.9 0.151195 17.956 0.110673C18.9047 0.0749177 19.5292 0.780484 19.5626 1.92227C19.5935 2.99015 19.5697 4.0628 19.5697 5.13068V5.13306Z" fill="white"/>
<path d="M11.3444 10.1566C9.97373 10.1161 7.62346 7.83491 7.74265 6.86237C7.80223 6.37849 8.14787 5.70153 8.53878 5.54183C9.037 5.33683 9.84743 5.36781 10.2837 5.65862C11.0607 6.17588 11.7567 6.89337 12.2907 7.66329C12.5672 8.06375 12.6077 8.84319 12.4075 9.29374C12.2073 9.73949 11.5685 9.98978 11.3468 10.1566H11.3444Z" fill="white"/>
<path d="M26.5596 5.27973C27.8873 5.32264 28.6739 6.67656 27.9301 7.67532C27.3008 8.52152 26.519 9.32247 25.6418 9.88261C25.2247 10.1495 24.2617 10.0184 23.8421 9.68956C23.4775 9.40345 23.2201 8.35943 23.4512 8.04718C24.1878 7.05318 25.1675 6.2332 26.0757 5.3727C26.1949 5.26066 26.4547 5.29642 26.562 5.27734L26.5596 5.27973Z" fill="white"/>
</g>
</g>
</g>
<defs>
<clipPath id="clip0_423_23970">
<rect width="48" height="54.84" fill="white" transform="translate(0 0.109375)"/>
</clipPath>
<clipPath id="clip1_423_23970">
<rect width="48" height="54.84" fill="white" transform="translate(0 0.109375)"/>
</clipPath>
<clipPath id="clip2_423_23970">
<rect width="47.985" height="54.84" fill="white" transform="translate(0.0078125 0.109375)"/>
</clipPath>
</defs>
</svg>
