<svg width="64" height="64" viewBox="0 0 64 64" fill="none" xmlns="http://www.w3.org/2000/svg">
<g clip-path="url(#clip0_423_3092)">
<g clip-path="url(#clip1_423_3092)">
<g clip-path="url(#clip2_423_3092)">
<path d="M-10.668 42.668H74.6654V64.0013H-10.668V42.668Z" fill="#000001"/>
<path d="M-10.668 21.332H74.6654V42.6654H-10.668V21.332Z" fill="white"/>
<path d="M-10.668 0H74.6654V21.3333H-10.668V0Z" fill="#CE1126"/>
<path d="M32.0828 32.2553L39.3895 39.0393L38.8668 26.7193C38.7921 24.8526 37.1708 25.2793 35.9868 25.9513C34.8028 26.7193 33.4268 26.7193 31.9975 26.218C30.5575 26.7193 29.1921 26.7193 28.0081 25.9513C26.8348 25.2793 25.2028 24.8526 25.1281 26.7193L24.6055 39.0393L32.0828 32.2553Z" fill="white" stroke="#C09300" stroke-width="0.138667" stroke-linejoin="round"/>
<path d="M25.9708 26.293L25.4588 38.2716L24.6055 39.0396L25.1281 26.7196C25.3801 26.5264 25.6659 26.3817 25.9708 26.293ZM26.9948 27.1463L26.5681 37.173L25.7148 38.0476L26.2268 26.4743C26.3975 26.645 26.8988 27.061 26.9948 27.1463ZM27.9228 27.9143L27.5921 36.277L26.8988 36.949L27.3255 27.413C27.4961 27.573 27.8375 27.8183 27.9228 27.9143ZM28.9361 28.341L28.6055 35.4663L27.9335 36.0103L28.2641 28.085C28.4348 28.1596 28.7655 28.341 28.9361 28.341ZM29.8748 28.341L29.6295 34.2823L28.9361 34.9543L29.2028 28.4156C29.3628 28.4156 29.8001 28.4156 29.8748 28.341Z" fill="#C09300"/>
<path d="M38.0253 26.293L38.5373 38.2716L39.3906 39.0396L38.868 26.7196C38.616 26.5264 38.3302 26.3817 38.0253 26.293ZM37.0013 27.1463L37.428 37.173L38.2813 38.0476L37.7693 26.4743C37.5986 26.645 37.0973 27.061 37.0013 27.1463ZM36.0733 27.9143L36.404 36.277L37.0973 36.949L36.6706 27.413C36.5 27.573 36.1586 27.8183 36.0733 27.9143ZM35.06 28.341L35.3906 35.4663L36.0626 36.0103L35.732 28.085C35.5613 28.1596 35.2306 28.341 35.06 28.341ZM34.1213 28.341L34.3666 34.2823L35.06 34.9543L34.7933 28.4156C34.6333 28.4156 34.196 28.4156 34.1213 28.341Z" fill="#C09300"/>
<path d="M32.3395 33.5977L33.3635 38.2697L33.0221 38.611L32.6701 38.3443L32.0941 34.1843L32.3395 38.3443L31.9981 38.771L31.6675 38.3443L31.9128 34.1843L31.3261 38.3443L30.9741 38.611L30.6328 38.2697L31.6568 33.6083H32.3395V33.5977Z" fill="#C09300" stroke="#C09300" stroke-width="0.117333"/>
<path d="M29.7053 31.5508L27.668 38.7721L30.4733 39.1988L31.6573 33.7694L29.7053 31.5508Z" fill="white" stroke="#C09300" stroke-width="0.128" stroke-linejoin="round"/>
<path d="M29.0352 34.0236L29.2805 34.6102L30.6032 33.3516" stroke="#C09300" stroke-width="0.138667" stroke-linejoin="round"/>
<path d="M29.949 32.5312L30.2263 35.1232L31.069 34.0139M30.7277 34.4406L31.1863 36.0406M31.3677 35.4539L30.4397 36.8619M30.7277 38.2699L30.429 36.8619M30.429 36.8619L30.173 35.4326L29.5437 36.2753L29.277 35.3046L28.4023 36.2006L28.8397 37.8219L29.4583 36.8193L29.789 37.8432L30.429 36.8619Z" stroke="#C09300" stroke-width="0.138667" stroke-linejoin="round"/>
<path d="M28.2656 38.6125L28.831 37.8125L29.1936 39.0392L29.7056 38.1858L30.0363 39.2098" stroke="#C09300" stroke-width="0.138667" stroke-linejoin="round"/>
<path d="M34.2908 31.5508L36.3281 38.7721L33.5228 39.1988L32.3388 33.7694L34.2908 31.5508Z" fill="white" stroke="#C09300" stroke-width="0.128" stroke-linejoin="round"/>
<path d="M34.9609 34.0236L34.7156 34.6102L33.3929 33.3516" stroke="#C09300" stroke-width="0.138667" stroke-linejoin="round"/>
<path d="M34.0471 32.5312L33.7697 35.1232L32.9271 34.0139M33.2684 34.4406L32.8097 36.0406M32.6284 35.4539L33.5564 36.8619M33.2684 38.2699L33.5671 36.8619M33.5671 36.8619L33.8231 35.4326L34.4524 36.2753L34.7191 35.3046L35.5938 36.2006L35.1564 37.8219L34.5377 36.8193L34.2071 37.8432L33.5671 36.8619Z" stroke="#C09300" stroke-width="0.138667" stroke-linejoin="round"/>
<path d="M35.7305 38.6125L35.1651 37.8125L34.8025 39.0392L34.2905 38.1858L33.9598 39.2098" stroke="#C09300" stroke-width="0.138667" stroke-linejoin="round"/>
<path d="M31.9963 42.006C34.1296 42.006 36.1563 41.8353 37.351 41.5047C37.8523 41.4087 37.8523 41.1527 37.8523 40.8113C38.3643 40.6407 38.1083 40.0433 38.4603 40.0433C38.0976 40.15 38.0336 39.4567 37.607 39.542C37.607 38.9447 36.999 38.87 36.4976 39.0407C35.4843 39.3713 33.6923 39.4567 31.9963 39.4567C30.2896 39.3713 28.519 39.3713 27.495 39.03C26.9936 38.87 26.3963 38.9447 26.3963 39.542C25.9696 39.4567 25.895 40.1393 25.543 40.0433C25.895 40.0433 25.6283 40.6513 26.1403 40.8113C26.1403 41.1527 26.1403 41.4087 26.6523 41.5047C27.8256 41.8353 29.8736 42.006 31.9963 42.006Z" fill="white" stroke="#C09300" stroke-width="0.256" stroke-linecap="round" stroke-linejoin="round"/>
<path d="M29.1056 38.7722C29.7883 38.8682 30.5563 38.9429 31.1536 38.8682C31.495 38.8682 31.7403 39.4549 31.0576 39.5402C30.471 39.6149 29.5323 39.5402 29.031 39.4549C28.3712 39.3394 27.7164 39.197 27.0683 39.0282C26.471 38.7722 26.8976 38.2815 27.239 38.3455C27.8479 38.5406 28.4724 38.6834 29.1056 38.7722ZM34.887 38.7722C34.2043 38.8682 33.4363 38.9429 32.8603 38.8682C32.4976 38.8682 32.2523 39.4549 32.935 39.5402C33.5323 39.6149 34.4603 39.5402 34.9616 39.4549C35.3883 39.3695 36.327 39.2095 36.9243 39.0282C37.5216 38.7722 37.095 38.2815 36.7536 38.3455C36.1447 38.5407 35.5202 38.6834 34.887 38.7722Z" fill="white" stroke="#C09300" stroke-width="0.138667" stroke-linecap="round" stroke-linejoin="round"/>
<path d="M26.984 38.44C26.472 38.344 26.2373 38.9413 26.3973 39.2827C26.472 39.112 26.824 39.112 26.8987 38.9413C26.9947 38.6853 26.824 38.6853 26.9947 38.44H26.984ZM29.032 40.008C29.032 39.6667 29.3627 39.7093 29.3627 39.368C29.3627 39.208 29.2773 38.9413 29.1067 38.9413C29.0178 38.9464 28.9339 38.984 28.871 39.047C28.808 39.1099 28.7704 39.1938 28.7653 39.2827C28.6907 39.6133 29.032 39.6667 29.032 40.008ZM31.4533 39.0373C31.9547 39.0373 31.9013 39.7093 31.6667 40.0507C31.6667 39.8053 31.24 39.7093 31.24 39.5387C31.24 39.2827 31.624 39.2827 31.4533 39.0373ZM37 38.44C37.5227 38.344 37.768 38.9413 37.5973 39.2827C37.5227 39.112 37.1707 39.112 37.096 38.9413C37 38.6853 37.1707 38.6853 37 38.44ZM34.984 39.9973C34.984 39.656 34.6427 39.6987 34.6427 39.3573C34.6427 39.1973 34.728 38.9307 34.8987 38.9307C34.9875 38.9358 35.0714 38.9733 35.1344 39.0363C35.1973 39.0992 35.2349 39.1831 35.24 39.272C35.3147 39.6027 34.9733 39.656 34.9733 39.9973H34.984ZM32.5307 39.0373C32.0293 39.0373 32.0827 39.7093 32.3173 40.0507C32.3173 39.8053 32.744 39.7093 32.744 39.5387C32.744 39.2827 32.36 39.2827 32.5307 39.0373Z" fill="white" stroke="#C09300" stroke-width="0.138667" stroke-linecap="round" stroke-linejoin="round"/>
<path d="M27.1641 38.6133C27.3347 38.6133 27.5907 38.6879 27.6654 38.7839L27.1641 38.6133ZM28.0067 38.8693C28.0921 38.8693 28.4334 38.9439 28.5934 39.0399L28.0067 38.8693ZM31.0574 39.2106C30.8974 39.2106 30.5561 39.2106 30.4707 39.2853L31.0574 39.1999V39.2106ZM30.1294 39.2106C30.0334 39.1146 29.7027 39.1146 29.5321 39.2106H30.1294ZM36.8281 38.6133C36.6471 38.6156 36.4715 38.6753 36.3267 38.7839L36.8281 38.6133ZM35.9961 38.8693C35.8894 38.8693 35.5694 38.9439 35.3987 39.0399L35.9961 38.8693ZM32.9347 39.2106C33.0947 39.2106 33.4361 39.2106 33.5321 39.2853L32.9347 39.1999V39.2106ZM33.8627 39.2106C33.9587 39.1146 34.2894 39.1146 34.4601 39.2106H33.8627Z" fill="white" stroke="#C09300" stroke-width="0.096" stroke-linecap="round" stroke-linejoin="round"/>
<path d="M27.0121 39.9563C26.9588 39.9456 26.9268 39.8923 26.9481 39.8496C26.9588 39.775 27.0121 39.743 27.0548 39.7643C27.0974 39.7643 27.1508 39.8283 27.1508 39.8496L27.1081 39.9243L27.0868 39.935C27.0868 39.9563 27.0441 39.9563 27.0121 39.9563ZM32.8788 40.3723C32.8574 40.3723 32.8148 40.319 32.8148 40.2976C32.8148 40.255 32.8788 40.191 32.9214 40.191L33.0068 40.2336C33.0388 40.2656 33.0388 40.3296 32.9961 40.3616C32.9748 40.383 32.9108 40.383 32.8788 40.3616V40.3723ZM32.9108 40.639C32.8681 40.6176 32.8574 40.5963 32.8468 40.5536C32.8468 40.5003 32.8468 40.4896 32.9001 40.4576L32.9428 40.4363L32.9854 40.4576C33.0281 40.479 33.0601 40.5003 33.0601 40.543C33.0601 40.575 33.0281 40.607 32.9854 40.6283C32.9534 40.6496 32.9428 40.6496 32.9108 40.6283V40.639Z" fill="#C09300"/>
<path d="M27.4931 39.4648C27.4504 39.4648 27.3971 39.5075 27.3651 39.5288C27.3011 39.5395 27.2157 39.5822 27.1517 39.5288C27.0877 39.5182 27.0024 39.5288 26.9917 39.6142C27.0024 39.6888 27.0984 39.7208 27.1624 39.6782C27.2051 39.6248 27.3224 39.5822 27.3437 39.6782C27.2904 39.7635 27.3011 39.8595 27.2584 39.9342C27.2584 39.9875 27.2264 40.0302 27.2051 40.0728C27.1517 40.0728 27.0984 40.0728 27.0557 40.1048C27.0226 40.1048 26.9899 40.1126 26.9603 40.1274C26.9307 40.1422 26.9049 40.1637 26.8851 40.1902C26.8424 40.2542 26.7997 40.3182 26.7891 40.4035C26.7997 40.4675 26.8957 40.4888 26.9597 40.4995L27.1731 40.5635L27.5144 40.6595C27.6851 40.7128 27.8557 40.7342 28.0264 40.7768L28.0797 40.7875C28.1544 40.8088 28.1864 40.7342 28.1864 40.6808L28.2931 40.2968C28.3144 40.2435 28.3464 40.1368 28.2504 40.1582C28.1971 40.1902 28.1437 40.2435 28.0797 40.2435C27.9837 40.2435 28.0371 40.3502 28.0797 40.3822C28.0797 40.4462 28.0584 40.5208 28.0264 40.5742C27.9624 40.6062 27.8984 40.5742 27.8344 40.5528C27.7811 40.5528 27.6531 40.5208 27.7064 40.4462L27.7597 40.2542C27.7917 40.1902 27.7917 40.1155 27.8131 40.0408C27.7704 39.9662 27.7064 40.0728 27.6531 40.0835C27.6104 40.1048 27.4824 40.1155 27.5464 40.1902C27.6104 40.2328 27.5677 40.3075 27.5464 40.3715C27.5464 40.4462 27.4611 40.4782 27.3971 40.4462C27.3331 40.4462 27.2371 40.3928 27.2904 40.3288L27.3437 40.1368L27.4184 39.9235C27.4184 39.8488 27.4504 39.7955 27.4824 39.7315C27.4824 39.6568 27.5357 39.5928 27.5357 39.5182C27.5357 39.4862 27.5144 39.4755 27.4931 39.4755V39.4648ZM27.0984 40.2435C27.1033 40.2407 27.1088 40.2392 27.1144 40.2392C27.12 40.2392 27.1255 40.2407 27.1304 40.2435C27.1517 40.2648 27.1517 40.2862 27.1304 40.3075L27.0984 40.3288C27.0451 40.3288 27.0344 40.3182 27.0344 40.2968C27.0344 40.2862 27.0344 40.2755 27.0664 40.2648C27.0794 40.2555 27.0938 40.2483 27.1091 40.2435H27.0984ZM26.9917 40.7768C26.9384 40.7342 26.9491 40.7022 27.0237 40.6382C27.0664 40.6168 27.0771 40.6168 27.1197 40.6488C27.1837 40.7022 27.1837 40.7342 27.1197 40.7875C27.0984 40.8088 27.0877 40.8088 27.0664 40.8088C27.0344 40.8088 27.0237 40.8088 26.9917 40.7875V40.7768ZM27.3117 40.8835C27.2879 40.8761 27.2679 40.8597 27.256 40.8378C27.244 40.8159 27.2411 40.7902 27.2477 40.7662C27.2691 40.7235 27.2797 40.7128 27.3437 40.7128C27.4184 40.7128 27.4291 40.7235 27.4397 40.7875C27.4397 40.8302 27.4397 40.8408 27.4077 40.8622C27.3958 40.8716 27.3821 40.8784 27.3674 40.882C27.3526 40.8857 27.3373 40.8862 27.3224 40.8835H27.3117ZM36.8264 40.8835C36.8051 40.8728 36.7944 40.8622 36.7944 40.8302C36.7944 40.7875 36.8157 40.7555 36.8797 40.7342C36.9437 40.7022 36.9864 40.7022 37.0077 40.7555C37.0397 40.8195 37.0397 40.8408 36.9971 40.8835C36.9757 40.9155 36.9651 40.9155 36.9117 40.9155C36.8584 40.9155 36.8477 40.9155 36.8264 40.8942V40.8835ZM27.7597 41.0115C27.7171 41.0115 27.6957 40.9688 27.6957 40.9262C27.6957 40.8942 27.6957 40.8835 27.7171 40.8622L27.7811 40.8408L27.8451 40.8515C27.8984 40.8942 27.9091 40.9368 27.8771 40.9795C27.8451 41.0222 27.8131 41.0222 27.7491 41.0115H27.7597ZM30.0851 41.1182L30.0637 41.0862C30.0637 41.0222 30.0637 40.9688 30.0851 40.9048C30.0957 40.8515 30.0851 40.7982 30.1064 40.7448L30.1491 40.4462C30.1491 40.3928 30.1491 40.3395 30.1704 40.2968C30.1811 40.2115 30.1704 40.1368 30.1917 40.0622C30.1917 40.0302 30.2237 39.9555 30.2557 39.9982C30.2984 40.0622 30.3517 40.1048 30.4051 40.1582C30.4477 40.1902 30.4051 40.2328 30.3731 40.2435C30.3304 40.2542 30.3197 40.3075 30.3197 40.3502L30.2984 40.4782C30.2984 40.5528 30.2984 40.6168 30.2771 40.6915L30.2664 40.8835L30.2451 41.0115C30.2451 41.0542 30.2451 41.1075 30.2024 41.1288C30.1704 41.1502 30.1171 41.1502 30.0957 41.1182H30.0851ZM33.2531 40.0728L33.1144 40.2008C33.0504 40.2542 33.1677 40.2755 33.1784 40.3182C33.1997 40.3822 33.1997 40.4462 33.1997 40.5102C33.2211 40.5742 33.2317 40.6275 33.2211 40.6915C33.2211 40.7662 33.1357 40.7448 33.0931 40.7875C33.0397 40.8088 33.0184 40.8622 32.9864 40.8942C32.961 40.9477 32.9465 41.0057 32.9437 41.0648C32.9437 41.1182 32.9117 41.1715 32.9437 41.2142L32.9544 41.2355H33.0077L33.1677 41.2248C33.2957 41.2035 33.4344 41.2035 33.5624 41.1928L33.7971 41.1715C33.8611 41.1822 33.8931 41.1182 33.8931 41.0648C33.8504 40.9902 33.8824 40.9155 33.8504 40.8515C33.8291 40.7662 33.8397 40.6915 33.8291 40.6168C33.8291 40.5528 33.7544 40.5315 33.7224 40.5742C33.6797 40.6168 33.6157 40.6275 33.5944 40.6702C33.5624 40.7342 33.6584 40.7342 33.6797 40.7768L33.6904 40.9368C33.7011 41.0008 33.6371 41.0008 33.5837 41.0115C33.5304 41.0328 33.4557 41.0435 33.4237 40.9795C33.4024 40.9262 33.4024 40.8728 33.4024 40.8195C33.4024 40.7128 33.3704 40.6275 33.3704 40.5315C33.3704 40.4248 33.3384 40.3075 33.3384 40.1902C33.3384 40.1368 33.3277 40.0622 33.2531 40.0728ZM33.1891 40.9475H33.2211V41.0328L33.1891 41.0435C33.1751 41.048 33.1608 41.0515 33.1464 41.0542C33.1393 41.0545 33.1322 41.0545 33.1251 41.0542C33.1037 41.0328 33.1037 41.0008 33.1357 40.9688L33.1891 40.9475ZM29.9891 39.9662C29.9571 39.9662 29.9037 40.0408 29.8611 40.0302C29.7651 40.0408 29.7757 40.1368 29.8504 40.1688V40.2542C29.8611 40.3395 29.8077 40.4142 29.8184 40.4995C29.8184 40.5848 29.7864 40.6808 29.7864 40.7768C29.7544 40.8728 29.7544 40.9688 29.7437 41.0648C29.7331 41.1502 29.6691 41.1182 29.6157 41.0968V40.9902C29.6264 40.8942 29.5624 40.8728 29.4877 40.8622C29.4131 40.8622 29.3811 40.8088 29.4024 40.7448C29.4344 40.7022 29.5091 40.7128 29.5624 40.7128C29.6691 40.7342 29.6584 40.5955 29.6051 40.5422C29.5624 40.4782 29.4771 40.4355 29.4557 40.3715C29.4557 40.2862 29.4024 40.1902 29.3277 40.1475C29.2104 40.1368 29.1144 40.2328 29.0824 40.3395C29.0291 40.3395 28.9757 40.3608 28.9331 40.3822C28.8584 40.4035 28.7517 40.5315 28.8584 40.5848C28.9117 40.5955 29.0931 40.6382 29.0077 40.7128C28.9651 40.7982 28.8797 40.7982 28.8051 40.7768C28.7304 40.7768 28.6451 40.7342 28.6451 40.6488C28.6344 40.5635 28.6344 40.4782 28.6024 40.4035C28.5811 40.3182 28.4851 40.3395 28.4744 40.4248C28.3997 40.4782 28.4104 40.5742 28.4637 40.6382C28.4957 40.7128 28.4637 40.8088 28.4317 40.8728C28.4104 40.9795 28.3037 40.9795 28.2291 41.0008C28.1971 41.0222 28.0584 41.0008 28.1117 41.0755C28.1917 41.1123 28.2811 41.1235 28.3677 41.1075C28.4531 41.1075 28.5277 41.0328 28.5811 40.9582C28.6344 40.9048 28.7304 40.9368 28.8157 40.9368C28.8904 40.9368 28.9757 40.9902 29.0611 40.9475C29.0824 40.8942 29.1891 40.7875 29.2211 40.8942C29.2211 40.9902 29.2957 41.0328 29.3811 41.0222C29.4771 41.0222 29.4344 41.0862 29.4344 41.1502C29.4344 41.2462 29.5091 41.2995 29.5944 41.3422H29.6797C29.7544 41.3102 29.8397 41.2782 29.8717 41.1928C29.9037 41.1182 29.9037 41.0328 29.9251 40.9582C29.9464 40.8408 29.9677 40.7128 29.9677 40.5955C29.9997 40.4888 29.9891 40.3715 30.0104 40.2542L30.0424 40.0088C30.0424 39.9555 30.0211 39.9555 29.9891 39.9662ZM29.2744 40.4035C29.2851 40.4035 29.2957 40.4248 29.2957 40.4568C29.2957 40.4995 29.3171 40.5315 29.3491 40.5422V40.5742L29.2637 40.5955C29.2104 40.5955 29.1677 40.5742 29.1357 40.5422L29.1144 40.5208L29.1464 40.4995L29.1997 40.4462C29.2317 40.4142 29.2531 40.4035 29.2744 40.4035ZM36.3144 39.5608C36.253 39.5653 36.1922 39.576 36.1331 39.5928C36.0264 39.5928 35.9731 39.6995 36.0797 39.7635C36.1437 39.9235 36.2397 39.7208 36.3464 39.7422C36.4957 39.7635 36.5064 39.9342 36.5384 40.0622C36.5384 40.1795 36.5811 40.2968 36.6131 40.4142C36.7197 40.5315 36.5384 40.6062 36.4637 40.5208C36.3997 40.4462 36.2504 40.3608 36.1757 40.4568C36.0797 40.4995 36.0691 40.6275 35.9944 40.6702C35.8664 40.7022 35.8557 40.5422 35.7811 40.4782C35.7171 40.3822 35.5997 40.3715 35.5037 40.3502C35.4611 40.2542 35.4824 40.0942 35.3971 40.0302C35.3117 40.0622 35.1624 40.2115 35.2904 40.2862C35.3971 40.3928 35.2371 40.4355 35.1837 40.4995C35.0984 40.5955 35.0771 40.7128 35.0771 40.8195C34.9384 40.8942 34.9171 40.7342 34.8957 40.6382C34.8957 40.5208 34.7891 40.5528 34.7144 40.5955C34.6077 40.6382 34.5651 40.7342 34.5011 40.8088V41.0222C34.5224 41.1182 34.6291 41.0755 34.6931 41.0648C34.7997 41.0222 34.8424 41.1395 34.7571 41.2035C34.6931 41.2675 34.5224 41.2355 34.5437 41.3528H34.7144C34.8211 41.3208 34.9491 41.2355 34.9597 41.1075C34.9811 41.0008 35.1411 41.0115 35.2264 40.9902C35.3331 40.9582 35.4717 40.9475 35.5037 41.0968C35.5784 41.1715 35.7384 41.2568 35.8237 41.1502C35.8644 41.1244 35.8969 41.0878 35.9177 41.0444C35.9384 41.001 35.9465 40.9526 35.9411 40.9048C35.9304 40.8195 36.0797 40.8195 36.1224 40.8728C36.1757 40.9582 36.3464 40.9368 36.4317 40.8728C36.5171 40.8195 36.5384 40.7022 36.6664 40.7022L37.2424 40.5422C37.3917 40.5102 37.2211 40.4142 37.1784 40.3502C37.0717 40.2968 36.9651 40.5315 36.8371 40.4142C36.7304 40.3395 36.7411 40.2008 36.7091 40.0835C36.6771 39.9342 36.6877 39.7635 36.5811 39.6568C36.5171 39.5822 36.4104 39.5608 36.3144 39.5608ZM35.5891 40.5742C35.5997 40.5742 35.6211 40.5742 35.6424 40.5955C35.6851 40.6168 35.7171 40.6595 35.7171 40.7022C35.7171 40.7235 35.7171 40.7235 35.6851 40.7342L35.6317 40.7555C35.6104 40.7555 35.5571 40.7235 35.5571 40.7022V40.6595C35.5357 40.6168 35.5357 40.6168 35.5571 40.5955L35.5891 40.5742ZM36.2824 40.6168C36.3251 40.6168 36.3464 40.6168 36.3677 40.6488C36.3784 40.6915 36.3677 40.7128 36.3251 40.7342L36.2717 40.7555L36.2291 40.7235C36.2077 40.7128 36.1971 40.7022 36.1971 40.6808C36.1971 40.6488 36.2397 40.6168 36.2824 40.6062V40.6168ZM35.3224 40.6168C35.3437 40.6168 35.3544 40.6168 35.3651 40.6382C35.3864 40.6595 35.3971 40.6702 35.3971 40.7022V40.7662C35.3971 40.7982 35.3971 40.7875 35.3331 40.7875C35.2691 40.7875 35.2584 40.7875 35.2584 40.7235C35.2584 40.6808 35.2584 40.6702 35.2904 40.6488C35.3011 40.6275 35.3224 40.6275 35.3331 40.6275L35.3224 40.6168ZM34.7464 40.7768C34.7565 40.7799 34.7656 40.7854 34.7731 40.7928C34.7805 40.8003 34.786 40.8094 34.7891 40.8195C34.7891 40.8515 34.7891 40.8728 34.7677 40.8835C34.7357 40.8942 34.6824 40.9048 34.6611 40.8835C34.6608 40.88 34.6608 40.8764 34.6611 40.8728C34.6397 40.8622 34.6397 40.8515 34.6611 40.8408V40.8302L34.6824 40.7982C34.689 40.7878 34.6989 40.78 34.7106 40.7761C34.7223 40.7722 34.7349 40.7725 34.7464 40.7768ZM35.7277 40.9048L35.7811 40.9155V40.9795H35.6531L35.6424 40.9582C35.6424 40.9368 35.6424 40.9262 35.6637 40.9155L35.7277 40.9048ZM33.9037 41.4168C33.8931 41.4168 33.8717 41.4062 33.8931 41.3955C33.9037 41.3635 33.9464 41.3528 33.9784 41.3315C34.0365 41.3093 34.0879 41.2726 34.1277 41.2248C34.1277 41.1822 34.1704 41.1608 34.1704 41.1182L34.1597 40.9688C34.1453 40.924 34.115 40.8861 34.0744 40.8622C34.0424 40.8515 33.9997 40.8408 33.9891 40.7982C33.9891 40.7662 34.0211 40.7342 34.0317 40.7022L34.0957 40.5742C34.1277 40.5422 34.1704 40.5742 34.1811 40.5955L34.2344 40.7022C34.2664 40.7342 34.2877 40.7662 34.2984 40.8088C34.3197 40.8515 34.3411 40.8835 34.3411 40.9155L34.3624 41.0542C34.3624 41.1075 34.3624 41.1715 34.3411 41.2248L34.2771 41.3102C34.2451 41.3422 34.2131 41.3742 34.1704 41.3848C34.1384 41.3955 34.1171 41.4275 34.0744 41.4275H33.9144L33.9037 41.4168ZM33.1677 41.4595C33.1464 41.4382 33.1357 41.4275 33.1357 41.3955C33.1357 41.3635 33.1357 41.3635 33.1677 41.3315C33.2104 41.2888 33.2317 41.2888 33.3171 41.3315C33.3917 41.3742 33.4237 41.3742 33.4237 41.3422C33.4344 41.3208 33.4771 41.2888 33.5304 41.2888C33.5501 41.2896 33.5689 41.2971 33.5837 41.3102C33.6051 41.3315 33.6157 41.3422 33.6157 41.3848C33.6157 41.4382 33.6157 41.4382 33.5837 41.4702C33.5517 41.4915 33.5517 41.4915 33.5091 41.4915C33.4901 41.4905 33.4719 41.4838 33.4567 41.4725C33.4415 41.4611 33.43 41.4454 33.4237 41.4275C33.4237 41.4062 33.4237 41.3955 33.4024 41.4168L33.3811 41.4275C33.3597 41.4275 33.3171 41.4595 33.2957 41.4808L33.2424 41.4915C33.1997 41.4915 33.1997 41.4915 33.1677 41.4595ZM31.0557 40.5102C30.9811 40.5102 30.9064 40.5742 30.8957 40.6488C30.9171 40.7235 30.9811 40.8088 30.9384 40.8835C30.9704 40.9902 30.8531 41.0328 30.7784 40.9795C30.7357 40.8728 30.7144 40.7662 30.6397 40.6595C30.5544 40.6382 30.5224 40.7768 30.4584 40.8302C30.4904 40.9048 30.5757 40.9795 30.5864 41.0755C30.6077 41.1822 30.5437 41.2888 30.4691 41.3315C30.3944 41.4062 30.2877 41.3848 30.2024 41.3955C30.0957 41.4595 30.2771 41.4808 30.3304 41.4808C30.4371 41.4915 30.5544 41.4808 30.6504 41.3955C30.7251 41.3635 30.7144 41.2142 30.8104 41.2035L31.3224 41.2355C31.4077 41.2568 31.5464 41.2248 31.6104 41.2888C31.6104 41.3955 31.7171 41.4808 31.8131 41.5235C31.8664 41.5448 31.9197 41.4702 31.9731 41.4595C32.0797 41.4275 32.0477 41.2995 32.1117 41.2462H32.6451C32.6664 41.2462 32.6771 41.1928 32.7091 41.1715L32.6877 40.9688C32.6557 40.8835 32.6877 40.7768 32.6344 40.7022C32.5384 40.6808 32.4637 40.7555 32.3784 40.7662C32.2717 40.8088 32.1971 40.9048 32.1864 41.0115C32.1331 41.1075 32.0371 40.9902 32.0797 40.9048L32.0691 40.7982C32.0157 40.7448 31.9197 40.7662 31.8451 40.7555L31.5251 40.7342C31.4184 40.7342 31.3224 40.7448 31.2371 40.7235C31.1304 40.7235 31.1304 40.6168 31.1304 40.5315C31.1091 40.5153 31.0824 40.5077 31.0557 40.5102ZM31.2691 40.9048L31.3757 40.9155H31.5144C31.6211 40.9368 31.7277 40.9368 31.8344 40.9368C31.8557 40.9368 31.8771 40.9582 31.8984 40.9795V41.1928C31.8984 41.2248 31.8984 41.2675 31.8771 41.2782C31.8715 41.2867 31.8642 41.2939 31.8557 41.2995C31.8401 41.2967 31.8253 41.2905 31.8124 41.2813C31.7994 41.2721 31.7888 41.2601 31.7811 41.2462V41.0968C31.7599 41.079 31.7339 41.0678 31.7064 41.0648L31.4291 41.0542L31.2157 41.0435C31.1837 41.0328 31.1411 41.0435 31.1197 41.0008C31.0984 40.9795 31.1304 40.9368 31.1624 40.9262C31.1959 40.9112 31.2324 40.9039 31.2691 40.9048ZM32.4744 40.9368C32.4851 40.9368 32.4957 40.9368 32.4957 40.9688L32.5171 41.0222C32.5171 41.0328 32.5171 41.0435 32.4957 41.0435C32.4424 41.0648 32.3891 41.0648 32.3677 41.0435C32.3677 41.0328 32.3677 40.9902 32.3891 40.9795L32.4744 40.9368Z" fill="#C09300"/>
<path d="M31.9982 34.8989C35.4755 32.2322 35.1769 28.3069 35.1769 28.3069L34.9102 28.3282C34.1742 28.3282 32.4355 27.9016 32.0302 27.3789C31.6035 27.8589 29.8115 28.3389 29.0862 28.3389L28.8195 28.3069C28.8195 28.3069 28.5102 32.2216 31.9982 34.8989Z" fill="white" stroke="#C09300" stroke-width="0.117333"/>
<path d="M34.9003 28.5849H34.815C34.1537 28.5849 32.6177 28.2542 32.0203 27.7422C31.4017 28.2115 29.8337 28.5955 29.183 28.5955C29.1543 28.5944 29.1257 28.5908 29.0977 28.5849C29.1035 29.2589 29.1967 29.9294 29.375 30.5795C29.8028 32.1458 30.7227 33.5331 31.999 34.5369C33.276 33.5293 34.1958 32.1384 34.623 30.5689C34.8004 29.9222 34.8936 29.2554 34.9003 28.5849Z" fill="white" stroke="#C09300" stroke-width="0.096"/>
<path d="M30.8683 28.2646C30.2954 28.4512 29.6997 28.5588 29.0977 28.5846L29.1083 29.0219C29.1447 29.5451 29.2341 30.0633 29.375 30.5686C29.6617 31.6176 30.1711 32.5926 30.8683 33.4272V28.2646ZM33.0657 28.2646V33.5126C33.7965 32.6588 34.3284 31.6532 34.623 30.5686C34.7637 30.0633 34.8531 29.5451 34.8897 29.0219L34.9003 28.5952H34.815C34.4097 28.5952 33.7057 28.4672 33.0657 28.2539V28.2646Z" fill="#C09300"/>
<path d="M33.3097 26.9861C33.3843 26.9968 33.2137 26.6128 33.2137 26.6128C33.4057 26.8048 34.1097 26.8581 34.1097 26.8581C33.683 26.6661 33.2563 25.2474 33.3097 24.1061C33.3523 22.9754 33.1497 22.5274 32.9897 22.3568C32.7763 22.1434 32.083 21.9514 31.635 21.9301C31.3683 21.9194 31.4217 22.1221 31.4217 22.1221C30.9417 22.0048 30.4617 21.9514 30.2483 22.1008C30.0563 22.2288 30.0137 22.9008 30.163 22.7834C30.515 22.4954 30.8243 22.7621 31.0377 23.0714C31.2297 23.3381 31.219 24.1061 30.9417 25.0128C30.6961 25.6982 30.3354 26.3367 29.875 26.9008C30.3017 26.9008 30.899 26.5274 30.899 26.5274L30.7603 27.1141C31.2083 26.9008 31.5603 26.5701 31.5603 26.5701L31.987 27.0181C32.1257 26.8261 32.4137 26.5701 32.4137 26.5701C32.4137 26.5701 32.7657 26.9434 33.3097 26.9968V26.9861Z" fill="white" stroke="#C09300" stroke-width="0.128"/>
<path d="M31.5811 24.276C31.5811 24.276 31.3464 26.0253 30.8984 26.516M31.9651 24.2227C31.9651 24.2227 31.8584 26.004 31.5598 26.5693M32.2958 24.2973C32.2958 24.2973 32.2958 26.2387 32.4024 26.5693M32.7224 24.3933C32.7224 24.3933 32.8078 26.0253 33.2131 26.612" stroke="#C09300" stroke-width="0.138667"/>
<path d="M31.1454 23.4229C31.1359 23.2992 31.0995 23.1791 31.0387 23.0709C30.8254 22.7509 30.5161 22.4949 30.1641 22.7829C30.1641 22.7829 30.2814 22.4096 30.5481 22.3989C30.7401 22.3883 31.1987 22.5483 31.6041 23.2309C31.6041 23.2309 31.3054 23.1669 31.2307 23.2309C31.1027 23.3376 31.1561 23.4229 31.1561 23.4229H31.1454Z" fill="#C09300" stroke="#C09300" stroke-width="0.032"/>
<path d="M30.1211 22.3248C30.1531 22.2181 30.1958 22.1328 30.2598 22.1008C30.4731 21.9514 30.9424 21.9941 31.4224 22.1221C31.4224 22.1221 31.3798 21.9194 31.6358 21.9301C32.0838 21.9514 32.7664 22.1434 32.9798 22.3568C33.0481 22.4318 33.1023 22.5185 33.1398 22.6128C33.0331 22.4634 32.7344 22.4741 32.6598 22.4848C32.5531 22.4954 32.4784 22.4848 32.3291 22.5274C32.2544 22.5488 32.1478 22.5701 32.0838 22.6128C32.0411 22.6554 31.9984 22.7834 31.9344 22.7834C31.8278 22.7834 31.8278 22.7621 31.7958 22.7301C31.7638 22.6768 31.7424 22.6128 31.6998 22.6234C31.5931 22.6341 31.4011 22.5488 31.1664 22.3568C30.9211 22.1648 30.8251 22.1221 30.5264 22.1434C30.2064 22.1648 30.1211 22.3461 30.1211 22.3461V22.3248Z" fill="#C09300" stroke="#C09300" stroke-width="0.032"/>
<path d="M31.8702 22.6037C31.9409 22.6037 31.9982 22.5463 31.9982 22.4757C31.9982 22.405 31.9409 22.3477 31.8702 22.3477C31.7995 22.3477 31.7422 22.405 31.7422 22.4757C31.7422 22.5463 31.7995 22.6037 31.8702 22.6037Z" fill="white"/>
</g>
</g>
</g>
<defs>
<clipPath id="clip0_423_3092">
<rect width="64" height="64" rx="32" fill="white"/>
</clipPath>
<clipPath id="clip1_423_3092">
<rect width="64" height="64" fill="white"/>
</clipPath>
<clipPath id="clip2_423_3092">
<rect width="85.3333" height="64" fill="white" transform="translate(-10.668)"/>
</clipPath>
</defs>
</svg>
