<svg width="8" height="30" viewBox="0 0 8 30" fill="none" xmlns="http://www.w3.org/2000/svg">
<path d="M4.01219 28.3285C4.01219 28.3285 3.39779 28.8533 3.18659 28.5909C2.85379 28.1749 4.22339 26.0949 4.22339 25.3653C4.22339 24.1621 3.41699 23.8357 2.43139 23.6693C1.76579 23.5541 0.684188 23.7141 0.684188 23.7141C0.888988 23.9893 1.02339 24.0725 1.36259 24.0917C0.978587 24.2837 0.594587 24.7189 0.594587 25.3909C0.594587 26.4213 1.01699 26.8501 1.01699 28.0149C1.01699 28.6485 0.492188 29.4805 0.492188 29.4805C1.42659 29.3845 1.88739 28.5205 1.62499 27.8293C1.69701 27.8149 1.77146 27.8185 1.84177 27.8397C1.91208 27.8609 1.97609 27.8991 2.02819 27.9509C2.09219 27.7589 1.98979 27.5349 1.84259 27.3429C1.95779 27.2789 2.04739 27.3173 2.22659 27.3557C2.21379 27.1637 2.09859 26.9461 1.80419 26.7477C2.64899 26.9653 3.16099 26.3829 3.16099 25.7685C3.16099 25.3013 2.84099 24.9685 2.52099 24.9685C2.41859 24.9685 2.26499 25.0133 2.18179 25.0773C2.11779 24.9493 2.15619 24.7765 2.21379 24.6485C1.98339 24.7125 1.82979 24.8533 1.93859 25.1413C1.75939 25.1541 1.61859 25.2181 1.52259 25.3333C1.61859 25.4613 1.76579 25.5253 1.93859 25.5253C1.81059 25.7941 1.95779 25.9413 2.16899 26.0629C2.16899 26.0629 2.03459 25.5253 2.37379 25.5253C2.52739 25.5253 2.66819 25.5701 2.66819 25.8005C2.66819 25.9989 2.49539 26.2741 2.09219 26.2549C1.69539 26.2357 1.36899 25.9797 1.36899 25.3397C1.36899 24.7509 1.84899 24.4565 2.47619 24.4437C3.03939 24.4181 3.46819 24.7253 3.46819 25.3077C3.46819 26.0885 2.34819 27.8549 2.34819 28.5461C2.34819 29.0645 2.80899 29.3589 3.26979 29.3589C3.85859 29.3589 4.35779 28.7701 4.35779 28.7701L4.01219 28.3349V28.3285Z" fill="#FFEC2D"/>
<path d="M4.13988 14.3062C4.13988 13.007 2.97508 12.3414 2.05988 12.3414C0.831075 12.3414 0.171875 13.0774 0.171875 14.0438C0.171875 14.5878 0.274275 14.9334 0.523875 15.4518L3.35267 21.3206C3.45516 21.5675 3.49897 21.8348 3.48067 22.1014C3.48067 22.6262 2.96868 23.055 2.43748 23.0614C1.95108 23.0806 1.41348 22.6134 1.41348 22.0822C1.41348 21.4358 1.75267 21.1478 2.09827 21.1478C2.52068 21.1478 2.68708 21.3206 2.68708 21.6214C2.68708 21.8262 2.59108 21.9158 2.44388 21.9158C2.07908 21.9158 2.18788 21.4294 2.18788 21.4294C2.13971 21.4384 2.0941 21.4578 2.0543 21.4864C2.01451 21.5149 1.98152 21.5519 1.95767 21.5947C1.93383 21.6375 1.91973 21.685 1.91638 21.7339C1.91302 21.7828 1.9205 21.8318 1.93827 21.8774C1.80128 21.9082 1.67785 21.9822 1.58627 22.0886C1.68227 22.1846 1.79747 22.255 1.93827 22.2806C1.85507 22.5622 1.97028 22.6966 2.21348 22.7606C2.16972 22.6644 2.15848 22.5566 2.18148 22.4534C2.56548 22.5686 3.16067 22.3894 3.16067 21.7238C3.16067 21.0582 2.69988 20.5014 1.83588 20.6358C2.04068 20.5398 2.14307 20.3414 2.16867 20.1174C2.00867 20.1814 1.83588 20.1814 1.83588 20.1814C1.93828 20.0086 2.07907 19.8614 2.07267 19.503C1.91267 19.5798 1.75907 19.7142 1.56067 19.631C1.88067 18.991 1.48387 18.1206 0.472675 17.9158C0.843875 18.351 1.02308 18.8118 1.02308 19.279C1.02308 20.783 0.607075 21.0326 0.607075 22.0822C0.613661 22.3257 0.67803 22.564 0.794871 22.7777C0.911712 22.9913 1.07768 23.1742 1.27908 23.311V23.2918C1.15523 23.3173 1.03816 23.3686 0.935581 23.4425C0.832997 23.5164 0.747216 23.6112 0.683875 23.7206C1.39683 23.9171 2.1505 23.9105 2.85988 23.7014C3.09715 23.6679 3.32386 23.5814 3.52325 23.4485C3.72264 23.3156 3.88963 23.1396 4.01188 22.9334C4.13965 22.6419 4.20562 22.327 4.20562 22.0086C4.20562 21.6903 4.13965 21.3754 4.01188 21.0838C3.60868 20.2518 1.72707 16.2454 1.13827 14.991C1.01027 14.7222 0.939875 14.4406 0.939875 14.1334C0.939875 13.3654 1.64387 13.0966 2.04067 13.0966C2.52067 13.0966 3.01348 13.4614 3.01348 13.9158C3.01348 14.2038 2.85348 14.383 2.62948 14.383C2.08548 14.383 2.11747 13.9222 2.22627 13.6278C1.88707 13.7814 1.69507 14.0502 1.74627 14.3318C1.53626 14.3671 1.34567 14.476 1.20867 14.639C1.33667 14.8054 1.50307 14.9334 1.74627 14.9398C1.63747 15.3814 1.93827 15.567 2.22627 15.6694C2.13667 15.3494 2.07268 14.9718 2.62948 14.9718C3.03268 14.9718 3.34628 14.9078 3.53188 14.639L3.57667 16.367C3.60227 16.8854 2.88547 16.879 2.42467 16.719C2.59747 17.3142 2.94947 17.6406 3.76867 17.5574C3.64317 17.6057 3.53605 17.6923 3.46253 17.8049C3.389 17.9174 3.35281 18.0503 3.35908 18.1846C3.35908 18.671 3.75588 19.2086 4.01188 19.3686L4.13988 14.3126V14.3062Z" fill="#FFEC2D"/>
<path d="M4.13988 10.4164C4.13988 11.7156 2.97508 12.3812 2.05988 12.3812C0.831075 12.3812 0.171875 11.6452 0.171875 10.6788C0.171875 10.1348 0.274275 9.78921 0.523875 9.27081L3.35267 3.40201C3.45516 3.15515 3.49897 2.88787 3.48067 2.62121C3.48067 2.09641 2.96868 1.66761 2.43748 1.66121C1.95108 1.64201 1.41348 2.10921 1.41348 2.64041C1.41348 3.28681 1.75267 3.57481 2.09827 3.57481C2.52068 3.57481 2.68708 3.40201 2.68708 3.10121C2.68708 2.89641 2.59108 2.80681 2.44388 2.80681C2.07908 2.80681 2.18788 3.29321 2.18788 3.29321C2.13971 3.2843 2.0941 3.26487 2.0543 3.2363C2.01451 3.20773 1.98152 3.17073 1.95767 3.12793C1.93383 3.08514 1.91973 3.03761 1.91638 2.98874C1.91302 2.93987 1.9205 2.89086 1.93827 2.84521C1.80128 2.81449 1.67785 2.74043 1.58627 2.63401C1.68227 2.53801 1.79747 2.46761 1.93827 2.44201C1.85507 2.16041 1.97028 2.02601 2.21348 1.96201C2.16972 2.05821 2.15848 2.16605 2.18148 2.26921C2.56548 2.15401 3.16067 2.33321 3.16067 2.99881C3.16067 3.66441 2.69988 4.22121 1.83588 4.08681C2.04068 4.18281 2.14307 4.38121 2.16867 4.60521C2.00867 4.54121 1.83588 4.54121 1.83588 4.54121C1.93828 4.71401 2.07907 4.86121 2.07267 5.21961C1.91267 5.14281 1.75907 5.00841 1.56067 5.09161C1.88067 5.73161 1.48387 6.60201 0.472675 6.80681C0.843875 6.37161 1.02308 5.91081 1.02308 5.44361C1.02308 3.93961 0.607075 3.69001 0.607075 2.64041C0.613661 2.39699 0.67803 2.15861 0.794871 1.94496C0.911712 1.73131 1.07768 1.5485 1.27908 1.41161V1.43081C1.15523 1.40538 1.03816 1.35402 0.935581 1.28012C0.832997 1.20621 0.747216 1.11143 0.683875 1.00201C1.39683 0.80551 2.1505 0.812161 2.85988 1.02121C3.09715 1.05478 3.32386 1.14122 3.52325 1.27415C3.72264 1.40708 3.88963 1.5831 4.01188 1.78921C4.13965 2.08078 4.20562 2.39567 4.20562 2.71401C4.20562 3.03235 4.13965 3.34724 4.01188 3.63881C3.60868 4.47081 1.72707 8.47721 1.13827 9.73161C1.01027 10.0004 0.939875 10.282 0.939875 10.5892C0.939875 11.3572 1.64387 11.626 2.04067 11.626C2.52067 11.626 3.01348 11.2612 3.01348 10.8068C3.01348 10.5188 2.85348 10.3396 2.62948 10.3396C2.08548 10.3396 2.11747 10.8004 2.22627 11.0948C1.88707 10.9412 1.69507 10.6724 1.74627 10.3908C1.53626 10.3556 1.34567 10.2466 1.20867 10.0836C1.33667 9.91721 1.50307 9.78921 1.74627 9.78281C1.63747 9.34121 1.93827 9.15561 2.22627 9.05321C2.13667 9.37321 2.07268 9.75081 2.62948 9.75081C3.03268 9.75081 3.34628 9.81481 3.53188 10.0836L3.57667 8.35561C3.60227 7.83721 2.88547 7.84361 2.42467 8.00361C2.59747 7.40841 2.94947 7.08201 3.76867 7.16521C3.64317 7.11695 3.53605 7.03038 3.46253 6.9178C3.389 6.80521 3.35281 6.67233 3.35908 6.53801C3.35908 6.05161 3.75588 5.51401 4.01188 5.35401L4.13988 10.41V10.4164Z" fill="#FFEC2D"/>
<path d="M4.01125 28.3285C4.01125 28.3285 4.62565 28.8533 4.83685 28.5909C5.16965 28.1749 3.80005 26.0949 3.80005 25.3653C3.80005 24.1621 4.60645 23.8357 5.59205 23.6693C6.25765 23.5541 7.33925 23.7141 7.33925 23.7141C7.13445 23.9893 7.00005 24.0725 6.66085 24.0917C7.04485 24.2837 7.42885 24.7189 7.42885 25.3909C7.42885 26.4213 7.00645 26.8501 7.00645 28.0149C7.00645 28.6485 7.53125 29.4805 7.53125 29.4805C6.59685 29.3845 6.13605 28.5205 6.39845 27.8293C6.32642 27.8149 6.25198 27.8185 6.18167 27.8397C6.11136 27.8609 6.04734 27.8991 5.99525 27.9509C5.93125 27.7589 6.03365 27.5349 6.18085 27.3429C6.06565 27.2789 5.97605 27.3173 5.79685 27.3557C5.80965 27.1637 5.92485 26.9461 6.21925 26.7477C5.37445 26.9653 4.86245 26.3829 4.86245 25.7685C4.86245 25.3013 5.18245 24.9685 5.50245 24.9685C5.60485 24.9685 5.75845 25.0133 5.84165 25.0773C5.90565 24.9493 5.86725 24.7765 5.80965 24.6485C6.04005 24.7125 6.19365 24.8533 6.08485 25.1413C6.26405 25.1541 6.40485 25.2181 6.50085 25.3333C6.40485 25.4613 6.25765 25.5253 6.08485 25.5253C6.21285 25.7941 6.06565 25.9413 5.85445 26.0629C5.85445 26.0629 5.98885 25.5253 5.64965 25.5253C5.49605 25.5253 5.35525 25.5701 5.35525 25.8005C5.35525 25.9989 5.52805 26.2741 5.93125 26.2549C6.32805 26.2357 6.65445 25.9797 6.65445 25.3397C6.65445 24.7509 6.17445 24.4565 5.54725 24.4437C4.98405 24.4181 4.55525 24.7253 4.55525 25.3077C4.55525 26.0885 5.67525 27.8549 5.67525 28.5461C5.67525 29.0645 5.21445 29.3589 4.75365 29.3589C4.16485 29.3589 3.66565 28.7701 3.66565 28.7701L4.01125 28.3349V28.3285Z" fill="#FFEC2D"/>
<path d="M3.88356 14.3062C3.88356 13.007 5.04836 12.3414 5.96356 12.3414C7.19236 12.3414 7.85156 13.0774 7.85156 14.0438C7.85156 14.5878 7.74916 14.9334 7.49956 15.4518L4.67076 21.3206C4.56828 21.5675 4.52447 21.8348 4.54276 22.1014C4.54276 22.6262 5.05476 23.055 5.58596 23.0614C6.07236 23.0806 6.60996 22.6134 6.60996 22.0822C6.60996 21.4358 6.27076 21.1478 5.92516 21.1478C5.50276 21.1478 5.33636 21.3206 5.33636 21.6214C5.33636 21.8262 5.43236 21.9158 5.57956 21.9158C5.94436 21.9158 5.83556 21.4294 5.83556 21.4294C5.88373 21.4384 5.92934 21.4578 5.96913 21.4864C6.00893 21.5149 6.04192 21.5519 6.06576 21.5947C6.08961 21.6375 6.10371 21.685 6.10706 21.7339C6.11041 21.7828 6.10294 21.8318 6.08516 21.8774C6.22215 21.9082 6.34559 21.9822 6.43716 22.0886C6.34116 22.1846 6.22596 22.255 6.08516 22.2806C6.16836 22.5622 6.05316 22.6966 5.80996 22.7606C5.85372 22.6644 5.86495 22.5566 5.84196 22.4534C5.45796 22.5686 4.86276 22.3894 4.86276 21.7238C4.86276 21.0582 5.32356 20.5014 6.18756 20.6358C5.98276 20.5398 5.88036 20.3414 5.85476 20.1174C6.01476 20.1814 6.18756 20.1814 6.18756 20.1814C6.08516 20.0086 5.94436 19.8614 5.95076 19.503C6.11076 19.5798 6.26436 19.7142 6.46276 19.631C6.14276 18.991 6.53956 18.1206 7.55076 17.9158C7.17956 18.351 7.00036 18.8118 7.00036 19.279C7.00036 20.783 7.41636 21.0326 7.41636 22.0822C7.40978 22.3257 7.34541 22.564 7.22857 22.7777C7.11173 22.9913 6.94576 23.1742 6.74436 23.311V23.2918C6.86821 23.3173 6.98527 23.3686 7.08786 23.4425C7.19044 23.5164 7.27622 23.6112 7.33956 23.7206C6.62661 23.9171 5.87293 23.9105 5.16356 23.7014C4.92629 23.6679 4.69958 23.5814 4.50019 23.4485C4.3008 23.3156 4.13381 23.1396 4.01156 22.9334C3.88378 22.6419 3.81781 22.327 3.81781 22.0086C3.81781 21.6903 3.88378 21.3754 4.01156 21.0838C4.41476 20.2518 6.29636 16.2454 6.88516 14.991C7.01316 14.7222 7.08356 14.4406 7.08356 14.1334C7.08356 13.3654 6.37956 13.0966 5.98276 13.0966C5.50276 13.0966 5.00996 13.4614 5.00996 13.9158C5.00996 14.2038 5.16996 14.383 5.39396 14.383C5.93796 14.383 5.90596 13.9222 5.79716 13.6278C6.13636 13.7814 6.32836 14.0502 6.27716 14.3318C6.48717 14.3671 6.67776 14.476 6.81476 14.639C6.68676 14.8054 6.52036 14.9334 6.27716 14.9398C6.38596 15.3814 6.08516 15.567 5.79716 15.6694C5.88676 15.3494 5.95076 14.9718 5.39396 14.9718C4.99076 14.9718 4.67716 14.9078 4.49156 14.639L4.44676 16.367C4.42116 16.8854 5.13796 16.879 5.59876 16.719C5.42596 17.3142 5.07396 17.6406 4.25476 17.5574C4.38027 17.6057 4.48739 17.6923 4.56091 17.8049C4.63444 17.9174 4.67063 18.0503 4.66436 18.1846C4.66436 18.671 4.26756 19.2086 4.01156 19.3686L3.88356 14.3126V14.3062Z" fill="#FFEC2D"/>
<path d="M3.88356 10.4164C3.88356 11.7156 5.04836 12.3812 5.96356 12.3812C7.19236 12.3812 7.85156 11.6452 7.85156 10.6788C7.85156 10.1348 7.74916 9.78921 7.49956 9.27081L4.67076 3.40201C4.56828 3.15515 4.52447 2.88787 4.54276 2.62121C4.54276 2.09641 5.05476 1.66761 5.58596 1.66121C6.07236 1.64201 6.60996 2.10921 6.60996 2.64041C6.60996 3.28681 6.27076 3.57481 5.92516 3.57481C5.50276 3.57481 5.33636 3.40201 5.33636 3.10121C5.33636 2.89641 5.43236 2.80681 5.57956 2.80681C5.94436 2.80681 5.83556 3.29321 5.83556 3.29321C5.88373 3.2843 5.92934 3.26487 5.96913 3.2363C6.00893 3.20773 6.04192 3.17073 6.06576 3.12793C6.08961 3.08514 6.10371 3.03761 6.10706 2.98874C6.11041 2.93987 6.10294 2.89086 6.08516 2.84521C6.22215 2.81449 6.34559 2.74043 6.43716 2.63401C6.34116 2.53801 6.22596 2.46761 6.08516 2.44201C6.16836 2.16041 6.05316 2.02601 5.80996 1.96201C5.85372 2.05821 5.86495 2.16605 5.84196 2.26921C5.45796 2.15401 4.86276 2.33321 4.86276 2.99881C4.86276 3.66441 5.32356 4.22121 6.18756 4.08681C5.98276 4.18281 5.88036 4.38121 5.85476 4.60521C6.01476 4.54121 6.18756 4.54121 6.18756 4.54121C6.08516 4.71401 5.94436 4.86121 5.95076 5.21961C6.11076 5.14281 6.26436 5.00841 6.46276 5.09161C6.14276 5.73161 6.53956 6.60201 7.55076 6.80681C7.17956 6.37161 7.00036 5.91081 7.00036 5.44361C7.00036 3.93961 7.41636 3.69001 7.41636 2.64041C7.40978 2.39699 7.34541 2.15861 7.22857 1.94496C7.11173 1.73131 6.94576 1.5485 6.74436 1.41161V1.43081C6.86821 1.40538 6.98527 1.35402 7.08786 1.28012C7.19044 1.20621 7.27622 1.11143 7.33956 1.00201C6.62661 0.80551 5.87293 0.812161 5.16356 1.02121C4.92629 1.05478 4.69958 1.14122 4.50019 1.27415C4.3008 1.40708 4.13381 1.5831 4.01156 1.78921C3.88378 2.08078 3.81781 2.39567 3.81781 2.71401C3.81781 3.03235 3.88378 3.34724 4.01156 3.63881C4.41476 4.47081 6.29636 8.47721 6.88516 9.73161C7.01316 10.0004 7.08356 10.282 7.08356 10.5892C7.08356 11.3572 6.37956 11.626 5.98276 11.626C5.50276 11.626 5.00996 11.2612 5.00996 10.8068C5.00996 10.5188 5.16996 10.3396 5.39396 10.3396C5.93796 10.3396 5.90596 10.8004 5.79716 11.0948C6.13636 10.9412 6.32836 10.6724 6.27716 10.3908C6.48717 10.3556 6.67776 10.2466 6.81476 10.0836C6.68676 9.91721 6.52036 9.78921 6.27716 9.78281C6.38596 9.34121 6.08516 9.15561 5.79716 9.05321C5.88676 9.37321 5.95076 9.75081 5.39396 9.75081C4.99076 9.75081 4.67716 9.81481 4.49156 10.0836L4.44676 8.35561C4.42116 7.83721 5.13796 7.84361 5.59876 8.00361C5.42596 7.40841 5.07396 7.08201 4.25476 7.16521C4.38027 7.11695 4.48739 7.03038 4.56091 6.9178C4.63444 6.80521 4.67063 6.67233 4.66436 6.53801C4.66436 6.05161 4.26756 5.51401 4.01156 5.35401L3.88356 10.41V10.4164Z" fill="#FFEC2D"/>
</svg>
