<svg width="8" height="30" viewBox="0 0 8 30" fill="none" xmlns="http://www.w3.org/2000/svg">
<path d="M4.01219 1.67153C4.01219 1.67153 3.39779 1.14673 3.18659 1.40913C2.85379 1.82513 4.22339 3.90513 4.22339 4.63473C4.22339 5.83793 3.41699 6.16433 2.43139 6.33073C1.76579 6.44593 0.684188 6.28593 0.684188 6.28593C0.888988 6.01073 1.02339 5.92753 1.36259 5.90833C0.978587 5.71633 0.594587 5.28113 0.594587 4.60913C0.594587 3.57873 1.01699 3.14993 1.01699 1.98513C1.01699 1.35153 0.492188 0.519531 0.492188 0.519531C1.42659 0.615531 1.88739 1.47953 1.62499 2.17073C1.69701 2.18506 1.77146 2.18147 1.84177 2.16026C1.91208 2.13906 1.97609 2.10089 2.02819 2.04913C2.09219 2.24113 1.98979 2.46513 1.84259 2.65713C1.95779 2.72113 2.04739 2.68273 2.22659 2.64433C2.21379 2.83633 2.09859 3.05393 1.80419 3.25233C2.64899 3.03473 3.16099 3.61713 3.16099 4.23153C3.16099 4.69873 2.84099 5.03153 2.52099 5.03153C2.41859 5.03153 2.26499 4.98673 2.18179 4.92273C2.11779 5.05073 2.15619 5.22353 2.21379 5.35153C1.98339 5.28753 1.82979 5.14673 1.93859 4.85873C1.75939 4.84593 1.61859 4.78193 1.52259 4.66673C1.61859 4.53873 1.76579 4.47473 1.93859 4.47473C1.81059 4.20593 1.95779 4.05873 2.16899 3.93713C2.16899 3.93713 2.03459 4.47473 2.37379 4.47473C2.52739 4.47473 2.66819 4.42993 2.66819 4.19953C2.66819 4.00113 2.49539 3.72593 2.09219 3.74513C1.69539 3.76433 1.36899 4.02033 1.36899 4.66033C1.36899 5.24913 1.84899 5.54353 2.47619 5.55633C3.03939 5.58193 3.46819 5.27473 3.46819 4.69233C3.46819 3.91153 2.34819 2.14513 2.34819 1.45393C2.34819 0.935531 2.80899 0.641131 3.26979 0.641131C3.85859 0.641131 4.35779 1.22993 4.35779 1.22993L4.01219 1.66513V1.67153Z" fill="#FFEC2D"/>
<path d="M4.13988 15.6938C4.13988 16.993 2.97508 17.6586 2.05988 17.6586C0.831075 17.6586 0.171875 16.9226 0.171875 15.9562C0.171875 15.4122 0.274275 15.0666 0.523875 14.5482L3.35267 8.67935C3.45516 8.43249 3.49897 8.16522 3.48067 7.89856C3.48067 7.37376 2.96868 6.94495 2.43748 6.93855C1.95108 6.91935 1.41348 7.38656 1.41348 7.91776C1.41348 8.56416 1.75267 8.85215 2.09827 8.85215C2.52068 8.85215 2.68708 8.67936 2.68708 8.37856C2.68708 8.17376 2.59108 8.08415 2.44388 8.08415C2.07908 8.08415 2.18788 8.57056 2.18788 8.57056C2.13971 8.56165 2.0941 8.54221 2.0543 8.51364C2.01451 8.48507 1.98152 8.44807 1.95767 8.40528C1.93383 8.36249 1.91973 8.31496 1.91638 8.26608C1.91302 8.21721 1.9205 8.1682 1.93827 8.12256C1.80128 8.09184 1.67785 8.01777 1.58627 7.91135C1.68227 7.81535 1.79747 7.74495 1.93827 7.71935C1.85507 7.43775 1.97028 7.30335 2.21348 7.23935C2.16972 7.33556 2.15848 7.4434 2.18148 7.54655C2.56548 7.43135 3.16067 7.61055 3.16067 8.27615C3.16067 8.94175 2.69988 9.49855 1.83588 9.36415C2.04068 9.46015 2.14307 9.65856 2.16867 9.88256C2.00867 9.81856 1.83588 9.81856 1.83588 9.81856C1.93828 9.99136 2.07907 10.1386 2.07267 10.497C1.91267 10.4202 1.75907 10.2858 1.56067 10.369C1.88067 11.009 1.48387 11.8794 0.472675 12.0842C0.843875 11.649 1.02308 11.1882 1.02308 10.721C1.02308 9.21695 0.607075 8.96736 0.607075 7.91776C0.613661 7.67433 0.67803 7.43596 0.794871 7.22231C0.911712 7.00865 1.07768 6.82584 1.27908 6.68895V6.70815C1.15523 6.68272 1.03816 6.63136 0.935581 6.55746C0.832997 6.48356 0.747216 6.38878 0.683875 6.27935C1.39683 6.08285 2.1505 6.0895 2.85988 6.29855C3.09715 6.33213 3.32386 6.41857 3.52325 6.5515C3.72264 6.68442 3.88963 6.86044 4.01188 7.06655C4.13965 7.35813 4.20562 7.67301 4.20562 7.99135C4.20562 8.3097 4.13965 8.62458 4.01188 8.91615C3.60868 9.74815 1.72707 13.7546 1.13827 15.009C1.01027 15.2778 0.939875 15.5594 0.939875 15.8666C0.939875 16.6346 1.64387 16.9034 2.04067 16.9034C2.52067 16.9034 3.01348 16.5386 3.01348 16.0842C3.01348 15.7962 2.85348 15.617 2.62948 15.617C2.08548 15.617 2.11747 16.0778 2.22627 16.3722C1.88707 16.2186 1.69507 15.9498 1.74627 15.6682C1.53626 15.6329 1.34567 15.524 1.20867 15.361C1.33667 15.1946 1.50307 15.0666 1.74627 15.0602C1.63747 14.6186 1.93827 14.433 2.22627 14.3306C2.13667 14.6506 2.07268 15.0282 2.62948 15.0282C3.03268 15.0282 3.34628 15.0922 3.53188 15.361L3.57667 13.633C3.60227 13.1146 2.88547 13.121 2.42467 13.281C2.59747 12.6858 2.94947 12.3594 3.76867 12.4426C3.64317 12.3943 3.53605 12.3077 3.46253 12.1951C3.389 12.0826 3.35281 11.9497 3.35908 11.8154C3.35908 11.329 3.75588 10.7914 4.01188 10.6314L4.13988 15.6874V15.6938Z" fill="#FFEC2D"/>
<path d="M4.13988 19.5836C4.13988 18.2844 2.97508 17.6188 2.05988 17.6188C0.831075 17.6188 0.171875 18.3548 0.171875 19.3212C0.171875 19.8652 0.274275 20.2108 0.523875 20.7292L3.35267 26.598C3.45516 26.8449 3.49897 27.1121 3.48067 27.3788C3.48067 27.9036 2.96868 28.3324 2.43748 28.3388C1.95108 28.358 1.41348 27.8908 1.41348 27.3596C1.41348 26.7132 1.75267 26.4252 2.09827 26.4252C2.52068 26.4252 2.68708 26.598 2.68708 26.8988C2.68708 27.1036 2.59108 27.1932 2.44388 27.1932C2.07908 27.1932 2.18788 26.7068 2.18788 26.7068C2.13971 26.7157 2.0941 26.7351 2.0543 26.7637C2.01451 26.7923 1.98152 26.8293 1.95767 26.8721C1.93383 26.9149 1.91973 26.9624 1.91638 27.0113C1.91302 27.0601 1.9205 27.1091 1.93827 27.1548C1.80128 27.1855 1.67785 27.2596 1.58627 27.366C1.68227 27.462 1.79747 27.5324 1.93827 27.558C1.85507 27.8396 1.97028 27.974 2.21348 28.038C2.16972 27.9418 2.15848 27.8339 2.18148 27.7308C2.56548 27.846 3.16067 27.6668 3.16067 27.0012C3.16067 26.3356 2.69988 25.7788 1.83588 25.9132C2.04068 25.8172 2.14307 25.6188 2.16867 25.3948C2.00867 25.4588 1.83588 25.4588 1.83588 25.4588C1.93828 25.286 2.07907 25.1388 2.07267 24.7804C1.91267 24.8572 1.75907 24.9916 1.56067 24.9084C1.88067 24.2684 1.48387 23.398 0.472675 23.1932C0.843875 23.6284 1.02308 24.0892 1.02308 24.5564C1.02308 26.0604 0.607075 26.31 0.607075 27.3596C0.613661 27.603 0.67803 27.8414 0.794871 28.055C0.911712 28.2687 1.07768 28.4515 1.27908 28.5884V28.5692C1.15523 28.5946 1.03816 28.646 0.935581 28.7199C0.832997 28.7938 0.747216 28.8886 0.683875 28.998C1.39683 29.1945 2.1505 29.1878 2.85988 28.9788C3.09715 28.9452 3.32386 28.8588 3.52325 28.7258C3.72264 28.5929 3.88963 28.4169 4.01188 28.2108C4.13965 27.9192 4.20562 27.6043 4.20562 27.286C4.20562 26.9676 4.13965 26.6528 4.01188 26.3612C3.60868 25.5292 1.72707 21.5228 1.13827 20.2684C1.01027 19.9996 0.939875 19.718 0.939875 19.4108C0.939875 18.6428 1.64387 18.374 2.04067 18.374C2.52067 18.374 3.01348 18.7388 3.01348 19.1932C3.01348 19.4812 2.85348 19.6604 2.62948 19.6604C2.08548 19.6604 2.11747 19.1996 2.22627 18.9052C1.88707 19.0588 1.69507 19.3276 1.74627 19.6092C1.53626 19.6444 1.34567 19.7534 1.20867 19.9164C1.33667 20.0828 1.50307 20.2108 1.74627 20.2172C1.63747 20.6588 1.93827 20.8444 2.22627 20.9468C2.13667 20.6268 2.07268 20.2492 2.62948 20.2492C3.03268 20.2492 3.34628 20.1852 3.53188 19.9164L3.57667 21.6444C3.60227 22.1628 2.88547 22.1564 2.42467 21.9964C2.59747 22.5916 2.94947 22.918 3.76867 22.8348C3.64317 22.883 3.53605 22.9696 3.46253 23.0822C3.389 23.1948 3.35281 23.3277 3.35908 23.462C3.35908 23.9484 3.75588 24.486 4.01188 24.646L4.13988 19.59V19.5836Z" fill="#FFEC2D"/>
<path d="M4.01125 1.67153C4.01125 1.67153 4.62565 1.14673 4.83685 1.40913C5.16965 1.82513 3.80005 3.90513 3.80005 4.63473C3.80005 5.83793 4.60645 6.16433 5.59205 6.33073C6.25765 6.44593 7.33925 6.28593 7.33925 6.28593C7.13445 6.01073 7.00005 5.92753 6.66085 5.90833C7.04485 5.71633 7.42885 5.28113 7.42885 4.60913C7.42885 3.57873 7.00645 3.14993 7.00645 1.98513C7.00645 1.35153 7.53125 0.519531 7.53125 0.519531C6.59685 0.615531 6.13605 1.47953 6.39845 2.17073C6.32642 2.18506 6.25198 2.18147 6.18167 2.16026C6.11136 2.13906 6.04734 2.10089 5.99525 2.04913C5.93125 2.24113 6.03365 2.46513 6.18085 2.65713C6.06565 2.72113 5.97605 2.68273 5.79685 2.64433C5.80965 2.83633 5.92485 3.05393 6.21925 3.25233C5.37445 3.03473 4.86245 3.61713 4.86245 4.23153C4.86245 4.69873 5.18245 5.03153 5.50245 5.03153C5.60485 5.03153 5.75845 4.98673 5.84165 4.92273C5.90565 5.05073 5.86725 5.22353 5.80965 5.35153C6.04005 5.28753 6.19365 5.14673 6.08485 4.85873C6.26405 4.84593 6.40485 4.78193 6.50085 4.66673C6.40485 4.53873 6.25765 4.47473 6.08485 4.47473C6.21285 4.20593 6.06565 4.05873 5.85445 3.93713C5.85445 3.93713 5.98885 4.47473 5.64965 4.47473C5.49605 4.47473 5.35525 4.42993 5.35525 4.19953C5.35525 4.00113 5.52805 3.72593 5.93125 3.74513C6.32805 3.76433 6.65445 4.02033 6.65445 4.66033C6.65445 5.24913 6.17445 5.54353 5.54725 5.55633C4.98405 5.58193 4.55525 5.27473 4.55525 4.69233C4.55525 3.91153 5.67525 2.14513 5.67525 1.45393C5.67525 0.935531 5.21445 0.641131 4.75365 0.641131C4.16485 0.641131 3.66565 1.22993 3.66565 1.22993L4.01125 1.66513V1.67153Z" fill="#FFEC2D"/>
<path d="M3.88356 15.6938C3.88356 16.993 5.04836 17.6586 5.96356 17.6586C7.19236 17.6586 7.85156 16.9226 7.85156 15.9562C7.85156 15.4122 7.74916 15.0666 7.49956 14.5482L4.67076 8.67935C4.56828 8.43249 4.52447 8.16522 4.54276 7.89856C4.54276 7.37376 5.05476 6.94495 5.58596 6.93855C6.07236 6.91935 6.60996 7.38656 6.60996 7.91776C6.60996 8.56416 6.27076 8.85215 5.92516 8.85215C5.50276 8.85215 5.33636 8.67936 5.33636 8.37856C5.33636 8.17376 5.43236 8.08415 5.57956 8.08415C5.94436 8.08415 5.83556 8.57056 5.83556 8.57056C5.88373 8.56165 5.92934 8.54221 5.96913 8.51364C6.00893 8.48507 6.04192 8.44807 6.06576 8.40528C6.08961 8.36249 6.10371 8.31496 6.10706 8.26608C6.11041 8.21721 6.10294 8.1682 6.08516 8.12256C6.22215 8.09184 6.34559 8.01777 6.43716 7.91135C6.34116 7.81535 6.22596 7.74495 6.08516 7.71935C6.16836 7.43775 6.05316 7.30335 5.80996 7.23935C5.85372 7.33556 5.86495 7.4434 5.84196 7.54655C5.45796 7.43135 4.86276 7.61055 4.86276 8.27615C4.86276 8.94175 5.32356 9.49855 6.18756 9.36415C5.98276 9.46015 5.88036 9.65856 5.85476 9.88256C6.01476 9.81856 6.18756 9.81856 6.18756 9.81856C6.08516 9.99136 5.94436 10.1386 5.95076 10.497C6.11076 10.4202 6.26436 10.2858 6.46276 10.369C6.14276 11.009 6.53956 11.8794 7.55076 12.0842C7.17956 11.649 7.00036 11.1882 7.00036 10.721C7.00036 9.21695 7.41636 8.96736 7.41636 7.91776C7.40978 7.67433 7.34541 7.43596 7.22857 7.22231C7.11173 7.00865 6.94576 6.82584 6.74436 6.68895V6.70815C6.86821 6.68272 6.98527 6.63136 7.08786 6.55746C7.19044 6.48356 7.27622 6.38878 7.33956 6.27935C6.62661 6.08285 5.87293 6.0895 5.16356 6.29855C4.92629 6.33213 4.69958 6.41857 4.50019 6.5515C4.3008 6.68442 4.13381 6.86044 4.01156 7.06655C3.88378 7.35813 3.81781 7.67301 3.81781 7.99135C3.81781 8.3097 3.88378 8.62458 4.01156 8.91615C4.41476 9.74815 6.29636 13.7546 6.88516 15.009C7.01316 15.2778 7.08356 15.5594 7.08356 15.8666C7.08356 16.6346 6.37956 16.9034 5.98276 16.9034C5.50276 16.9034 5.00996 16.5386 5.00996 16.0842C5.00996 15.7962 5.16996 15.617 5.39396 15.617C5.93796 15.617 5.90596 16.0778 5.79716 16.3722C6.13636 16.2186 6.32836 15.9498 6.27716 15.6682C6.48717 15.6329 6.67776 15.524 6.81476 15.361C6.68676 15.1946 6.52036 15.0666 6.27716 15.0602C6.38596 14.6186 6.08516 14.433 5.79716 14.3306C5.88676 14.6506 5.95076 15.0282 5.39396 15.0282C4.99076 15.0282 4.67716 15.0922 4.49156 15.361L4.44676 13.633C4.42116 13.1146 5.13796 13.121 5.59876 13.281C5.42596 12.6858 5.07396 12.3594 4.25476 12.4426C4.38027 12.3943 4.48739 12.3077 4.56091 12.1951C4.63444 12.0826 4.67063 11.9497 4.66436 11.8154C4.66436 11.329 4.26756 10.7914 4.01156 10.6314L3.88356 15.6874V15.6938Z" fill="#FFEC2D"/>
<path d="M3.88356 19.5836C3.88356 18.2844 5.04836 17.6188 5.96356 17.6188C7.19236 17.6188 7.85156 18.3548 7.85156 19.3212C7.85156 19.8652 7.74916 20.2108 7.49956 20.7292L4.67076 26.598C4.56828 26.8449 4.52447 27.1121 4.54276 27.3788C4.54276 27.9036 5.05476 28.3324 5.58596 28.3388C6.07236 28.358 6.60996 27.8908 6.60996 27.3596C6.60996 26.7132 6.27076 26.4252 5.92516 26.4252C5.50276 26.4252 5.33636 26.598 5.33636 26.8988C5.33636 27.1036 5.43236 27.1932 5.57956 27.1932C5.94436 27.1932 5.83556 26.7068 5.83556 26.7068C5.88373 26.7157 5.92934 26.7351 5.96913 26.7637C6.00893 26.7923 6.04192 26.8293 6.06576 26.8721C6.08961 26.9149 6.10371 26.9624 6.10706 27.0113C6.11041 27.0601 6.10294 27.1091 6.08516 27.1548C6.22215 27.1855 6.34559 27.2596 6.43716 27.366C6.34116 27.462 6.22596 27.5324 6.08516 27.558C6.16836 27.8396 6.05316 27.974 5.80996 28.038C5.85372 27.9418 5.86495 27.8339 5.84196 27.7308C5.45796 27.846 4.86276 27.6668 4.86276 27.0012C4.86276 26.3356 5.32356 25.7788 6.18756 25.9132C5.98276 25.8172 5.88036 25.6188 5.85476 25.3948C6.01476 25.4588 6.18756 25.4588 6.18756 25.4588C6.08516 25.286 5.94436 25.1388 5.95076 24.7804C6.11076 24.8572 6.26436 24.9916 6.46276 24.9084C6.14276 24.2684 6.53956 23.398 7.55076 23.1932C7.17956 23.6284 7.00036 24.0892 7.00036 24.5564C7.00036 26.0604 7.41636 26.31 7.41636 27.3596C7.40978 27.603 7.34541 27.8414 7.22857 28.055C7.11173 28.2687 6.94576 28.4515 6.74436 28.5884V28.5692C6.86821 28.5946 6.98527 28.646 7.08786 28.7199C7.19044 28.7938 7.27622 28.8886 7.33956 28.998C6.62661 29.1945 5.87293 29.1878 5.16356 28.9788C4.92629 28.9452 4.69958 28.8588 4.50019 28.7258C4.3008 28.5929 4.13381 28.4169 4.01156 28.2108C3.88378 27.9192 3.81781 27.6043 3.81781 27.286C3.81781 26.9676 3.88378 26.6528 4.01156 26.3612C4.41476 25.5292 6.29636 21.5228 6.88516 20.2684C7.01316 19.9996 7.08356 19.718 7.08356 19.4108C7.08356 18.6428 6.37956 18.374 5.98276 18.374C5.50276 18.374 5.00996 18.7388 5.00996 19.1932C5.00996 19.4812 5.16996 19.6604 5.39396 19.6604C5.93796 19.6604 5.90596 19.1996 5.79716 18.9052C6.13636 19.0588 6.32836 19.3276 6.27716 19.6092C6.48717 19.6444 6.67776 19.7534 6.81476 19.9164C6.68676 20.0828 6.52036 20.2108 6.27716 20.2172C6.38596 20.6588 6.08516 20.8444 5.79716 20.9468C5.88676 20.6268 5.95076 20.2492 5.39396 20.2492C4.99076 20.2492 4.67716 20.1852 4.49156 19.9164L4.44676 21.6444C4.42116 22.1628 5.13796 22.1564 5.59876 21.9964C5.42596 22.5916 5.07396 22.918 4.25476 22.8348C4.38027 22.883 4.48739 22.9696 4.56091 23.0822C4.63444 23.1948 4.67063 23.3277 4.66436 23.462C4.66436 23.9484 4.26756 24.486 4.01156 24.646L3.88356 19.59V19.5836Z" fill="#FFEC2D"/>
</svg>
