<svg width="48" height="49" viewBox="0 0 48 49" fill="none" xmlns="http://www.w3.org/2000/svg">
<g clip-path="url(#clip0_423_23943)">
<g clip-path="url(#clip1_423_23943)">
<g clip-path="url(#clip2_423_23943)">
<path d="M38.112 8.64136C40.423 6.28681 42.5761 4.09003 44.7314 1.89532C44.9971 1.62331 45.2588 1.34509 45.5453 1.09592C46.2471 0.489629 47.03 0.473019 47.576 1.07931C48.1989 1.77074 48.1076 2.47877 47.4846 3.10791C45.6824 4.92679 43.8698 6.73322 42.0446 8.53133C41.43 9.13553 40.7718 9.69203 39.9122 10.4707C40.8548 11.3219 41.6356 12.0383 42.4287 12.7401C43.8323 13.9797 44.1957 15.4601 43.5935 17.2375C42.7505 19.727 42.0342 22.2602 41.1227 24.7248C40.751 25.7339 40.1696 26.7617 39.4201 27.5196C32.7446 34.2512 26.0152 40.9287 19.292 47.6125C18.179 48.7171 17.6287 48.6942 16.5013 47.573C11.3499 42.4486 6.19844 37.3241 1.05532 32.1914C-0.358678 30.7815 -0.348292 30.3746 1.06571 28.9647C7.58542 22.4678 14.0761 15.9419 20.654 9.50723C21.6278 8.55421 22.9442 7.83784 24.2274 7.33744C26.5758 6.42385 29.0217 5.76772 31.422 4.98286C33.11 4.43055 34.549 4.75654 35.7491 6.0937C36.4841 6.91179 37.2441 7.70911 38.112 8.64136ZM17.9423 44.9049C18.0565 44.8218 18.1748 44.7554 18.2683 44.662C24.6448 38.3166 31.0254 31.9713 37.3832 25.6073C37.811 25.1795 38.1929 24.6272 38.3903 24.0604C39.2934 21.4463 40.1385 18.8114 40.9586 16.1702C41.0542 15.863 40.9982 15.3667 40.8029 15.1362C39.9973 14.1935 39.1128 13.3194 38.0539 12.2086C37.6178 12.7692 37.3541 13.2426 36.97 13.5748C36.2931 14.1624 36.0024 14.6981 36.2785 15.6927C36.7375 17.3517 35.7844 19.1664 34.2915 20.0073C32.6201 20.9521 30.5458 20.6884 29.2086 19.3658C27.9047 18.0743 27.5807 16.0851 28.4134 14.4842C29.3124 12.7547 31.1832 11.9138 33.1495 12.2978C33.5398 12.3747 34.0569 12.3788 34.3642 12.1816C35.0245 11.758 35.5871 11.1808 36.4384 10.4561C35.3836 9.51968 34.5282 8.81993 33.7496 8.04548C33.272 7.56999 32.8401 7.43918 32.184 7.66135C29.7298 8.49608 27.2423 9.23731 24.7985 10.099C24.0738 10.3544 23.3366 10.7821 22.7926 11.3178C16.5158 17.5199 10.2743 23.7572 4.02658 29.9884C3.83971 30.1752 3.68606 30.3932 3.66944 30.412C8.46585 35.2789 13.1937 40.0794 17.9465 44.9028L17.9423 44.9049ZM32.1487 14.9888C31.4178 15.0033 30.7804 15.6533 30.7783 16.3862C30.7762 17.1627 31.4739 17.8292 32.2463 17.7857C32.9938 17.7441 33.5814 17.0942 33.5544 16.3405C33.5274 15.5868 32.89 14.9743 32.1508 14.9888H32.1487Z" fill="white"/>
</g>
</g>
</g>
<defs>
<clipPath id="clip0_423_23943">
<rect width="48" height="48" fill="white" transform="translate(0 0.53125)"/>
</clipPath>
<clipPath id="clip1_423_23943">
<rect width="48" height="48" fill="white" transform="translate(0 0.53125)"/>
</clipPath>
<clipPath id="clip2_423_23943">
<rect width="48" height="48" fill="white" transform="translate(0 0.53125)"/>
</clipPath>
</defs>
</svg>
