<svg width="16" height="16" viewBox="0 0 16 16" fill="none" xmlns="http://www.w3.org/2000/svg">
<g clip-path="url(#clip0_423_31535)">
<path d="M9.69052 6.31328L6.31719 9.68661C5.88385 9.25328 5.61719 8.65995 5.61719 7.99995C5.61719 6.67995 6.68385 5.61328 8.00385 5.61328C8.66385 5.61328 9.25719 5.87995 9.69052 6.31328Z" stroke="#171717" stroke-linecap="round" stroke-linejoin="round"/>
<path d="M11.8799 3.84828C10.7132 2.96828 9.3799 2.48828 7.9999 2.48828C5.64656 2.48828 3.45323 3.87495 1.92656 6.27495C1.32656 7.21495 1.32656 8.79495 1.92656 9.73495C2.45323 10.5616 3.06656 11.2749 3.73323 11.8483" stroke="#171717" stroke-linecap="round" stroke-linejoin="round"/>
<path d="M5.61719 13.0185C6.37719 13.3385 7.18385 13.5118 8.00385 13.5118C10.3572 13.5118 12.5505 12.1252 14.0772 9.72516C14.6772 8.78516 14.6772 7.20516 14.0772 6.26516C13.8572 5.91849 13.6172 5.59182 13.3705 5.28516" stroke="#171717" stroke-linecap="round" stroke-linejoin="round"/>
<path d="M10.3409 8.46484C10.1676 9.40484 9.40094 10.1715 8.46094 10.3448" stroke="#171717" stroke-linecap="round" stroke-linejoin="round"/>
<path d="M6.31594 9.6875L1.33594 14.6675" stroke="#171717" stroke-linecap="round" stroke-linejoin="round"/>
<path d="M14.6675 1.33203L9.6875 6.31203" stroke="#171717" stroke-linecap="round" stroke-linejoin="round"/>
</g>
<defs>
<clipPath id="clip0_423_31535">
<rect width="16" height="16" fill="white"/>
</clipPath>
</defs>
</svg>
