<svg width="64" height="64" viewBox="0 0 64 64" fill="none" xmlns="http://www.w3.org/2000/svg">
<g clip-path="url(#clip0_423_10019)">
<g clip-path="url(#clip1_423_10019)">
<g clip-path="url(#clip2_423_10019)">
<path d="M-10.668 0H74.6654V64H-10.668V0Z" fill="#CE1126"/>
<path d="M-1.70703 8.96094H65.7063V55.0409H-1.70703V8.96094Z" fill="#007A5E"/>
<path d="M-1.70703 8.97266H65.7063L-1.70703 55.0527H65.7063L-1.70703 8.97266Z" fill="#FCD116"/>
<path d="M31.9847 39.692C36.2262 39.692 39.6647 36.2536 39.6647 32.012C39.6647 27.7705 36.2262 24.332 31.9847 24.332C27.7431 24.332 24.3047 27.7705 24.3047 32.012C24.3047 36.2536 27.7431 39.692 31.9847 39.692Z" fill="#CE1126"/>
<path d="M32 24.9609L29.8245 31.6564L33.1722 32.7441" fill="#FCD116"/>
<path d="M32 24.9609L34.1755 31.6564L30.8278 32.7441" fill="#FCD116"/>
<path d="M38.6953 29.8242H31.6553V33.3442" fill="#FCD116"/>
<path d="M38.6953 29.8242L32.9998 33.9622L30.9308 31.1145" fill="#FCD116"/>
<path d="M36.1406 37.6992L33.9651 31.0038L30.6174 32.0915" fill="#FCD116"/>
<path d="M36.1406 37.6992L30.4451 33.5612L32.5141 30.7135" fill="#FCD116"/>
<path d="M27.8633 37.6953L33.5588 33.5573L31.4898 30.7096" fill="#FCD116"/>
<path d="M27.8633 37.6953L30.0388 30.9999L33.3865 32.0876" fill="#FCD116"/>
<path d="M25.3047 29.8242L31.0002 33.9622L33.0692 31.1145" fill="#FCD116"/>
<path d="M25.3047 29.8242H32.3447V33.3442" fill="#FCD116"/>
<path d="M14.625 0.320312L13.3395 4.27671L15.3177 4.91946" fill="#FCD116"/>
<path d="M14.625 0.320312L15.9105 4.27671L13.9323 4.91946" fill="#FCD116"/>
<path d="M18.582 3.19531H14.422V5.27531" fill="#FCD116"/>
<path d="M18.582 3.19531L15.2165 5.6405L13.9939 3.95774" fill="#FCD116"/>
<path d="M17.0703 7.84766L15.7848 3.89126L13.8066 4.53402" fill="#FCD116"/>
<path d="M17.0703 7.84766L13.7048 5.40247L14.9274 3.71971" fill="#FCD116"/>
<path d="M12.1797 7.84375L15.5452 5.39856L14.3226 3.71581" fill="#FCD116"/>
<path d="M12.1797 7.84375L13.4652 3.88735L15.4434 4.53011" fill="#FCD116"/>
<path d="M10.668 3.19531L14.0335 5.6405L15.2561 3.95774" fill="#FCD116"/>
<path d="M10.668 3.19531H14.828V5.27531" fill="#FCD116"/>
<path d="M31.9961 0.320312L30.7106 4.27671L32.6888 4.91946" fill="#FCD116"/>
<path d="M31.9961 0.320312L33.2816 4.27671L31.3034 4.91946" fill="#FCD116"/>
<path d="M35.9531 3.19531H31.7931V5.27531" fill="#FCD116"/>
<path d="M35.9531 3.19531L32.5876 5.6405L31.365 3.95774" fill="#FCD116"/>
<path d="M34.4414 7.84766L33.1559 3.89126L31.1777 4.53402" fill="#FCD116"/>
<path d="M34.4414 7.84766L31.0759 5.40247L32.2985 3.71971" fill="#FCD116"/>
<path d="M29.5508 7.84375L32.9163 5.39856L31.6937 3.71581" fill="#FCD116"/>
<path d="M29.5508 7.84375L30.8363 3.88735L32.8145 4.53011" fill="#FCD116"/>
<path d="M28.0391 3.19531L31.4046 5.6405L32.6272 3.95774" fill="#FCD116"/>
<path d="M28.0391 3.19531H32.1991V5.27531" fill="#FCD116"/>
<path d="M49.3711 0.320312L48.0856 4.27671L50.0638 4.91946" fill="#FCD116"/>
<path d="M49.3711 0.320312L50.6566 4.27671L48.6784 4.91946" fill="#FCD116"/>
<path d="M53.3281 3.19531H49.1681V5.27531" fill="#FCD116"/>
<path d="M53.3281 3.19531L49.9626 5.6405L48.74 3.95774" fill="#FCD116"/>
<path d="M51.8164 7.84766L50.5309 3.89126L48.5527 4.53402" fill="#FCD116"/>
<path d="M51.8164 7.84766L48.4509 5.40247L49.6735 3.71971" fill="#FCD116"/>
<path d="M46.9258 7.84375L50.2913 5.39856L49.0687 3.71581" fill="#FCD116"/>
<path d="M46.9258 7.84375L48.2113 3.88735L50.1895 4.53011" fill="#FCD116"/>
<path d="M45.4141 3.19531L48.7796 5.6405L50.0022 3.95774" fill="#FCD116"/>
<path d="M45.4141 3.19531H49.5741V5.27531" fill="#FCD116"/>
<path d="M2.97266 32.0929C3.98554 33.9818 5.54138 35.5237 7.43932 36.5195C7.36537 34.4357 6.85193 32.3911 5.93266 30.5195L2.97266 32.0929Z" fill="#CE1126"/>
<path d="M1.34584 25.9609C2.7325 28.8543 -2.2675 35.7876 6.07917 37.4143C4.95209 35.7812 4.43743 33.8029 4.62584 31.8276C6.48094 32.6851 8.0033 34.1279 8.95917 35.9343C11.1458 28.0009 3.35917 28.4943 1.34584 25.9609Z" fill="#FCD116"/>
<path d="M14.625 55.6016L13.3395 59.558L15.3177 60.2007" fill="#FCD116"/>
<path d="M14.625 55.6016L15.9105 59.558L13.9323 60.2007" fill="#FCD116"/>
<path d="M18.582 58.4766H14.422V60.5566" fill="#FCD116"/>
<path d="M18.582 58.4766L15.2165 60.9217L13.9939 59.239" fill="#FCD116"/>
<path d="M17.0703 63.1289L15.7848 59.1725L13.8066 59.8153" fill="#FCD116"/>
<path d="M17.0703 63.1289L13.7048 60.6837L14.9274 59.001" fill="#FCD116"/>
<path d="M12.1797 63.125L15.5452 60.6798L14.3226 58.9971" fill="#FCD116"/>
<path d="M12.1797 63.125L13.4652 59.1686L15.4434 59.8114" fill="#FCD116"/>
<path d="M10.668 58.4766L14.0335 60.9217L15.2561 59.239" fill="#FCD116"/>
<path d="M10.668 58.4766H14.828V60.5566" fill="#FCD116"/>
<path d="M31.9961 55.6016L30.7106 59.558L32.6888 60.2007" fill="#FCD116"/>
<path d="M31.9961 55.6016L33.2816 59.558L31.3034 60.2007" fill="#FCD116"/>
<path d="M35.9531 58.4766H31.7931V60.5566" fill="#FCD116"/>
<path d="M35.9531 58.4766L32.5876 60.9217L31.365 59.239" fill="#FCD116"/>
<path d="M34.4414 63.1289L33.1559 59.1725L31.1777 59.8153" fill="#FCD116"/>
<path d="M34.4414 63.1289L31.0759 60.6837L32.2985 59.001" fill="#FCD116"/>
<path d="M29.5508 63.125L32.9163 60.6798L31.6937 58.9971" fill="#FCD116"/>
<path d="M29.5508 63.125L30.8363 59.1686L32.8145 59.8114" fill="#FCD116"/>
<path d="M28.0391 58.4766L31.4046 60.9217L32.6272 59.239" fill="#FCD116"/>
<path d="M28.0391 58.4766H32.1991V60.5566" fill="#FCD116"/>
<path d="M49.3711 55.6016L48.0856 59.558L50.0638 60.2007" fill="#FCD116"/>
<path d="M49.3711 55.6016L50.6566 59.558L48.6784 60.2007" fill="#FCD116"/>
<path d="M53.3281 58.4766H49.1681V60.5566" fill="#FCD116"/>
<path d="M53.3281 58.4766L49.9626 60.9217L48.74 59.239" fill="#FCD116"/>
<path d="M51.8164 63.1289L50.5309 59.1725L48.5527 59.8153" fill="#FCD116"/>
<path d="M51.8164 63.1289L48.4509 60.6837L49.6735 59.001" fill="#FCD116"/>
<path d="M46.9258 63.125L50.2913 60.6798L49.0687 58.9971" fill="#FCD116"/>
<path d="M46.9258 63.125L48.2113 59.1686L50.1895 59.8114" fill="#FCD116"/>
<path d="M45.4141 58.4766L48.7796 60.9217L50.0022 59.239" fill="#FCD116"/>
<path d="M45.4141 58.4766H49.5741V60.5566" fill="#FCD116"/>
</g>
</g>
</g>
<defs>
<clipPath id="clip0_423_10019">
<rect width="64" height="64" rx="32" fill="white"/>
</clipPath>
<clipPath id="clip1_423_10019">
<rect width="64" height="64" fill="white"/>
</clipPath>
<clipPath id="clip2_423_10019">
<rect width="85.3333" height="64" fill="white" transform="translate(-10.668)"/>
</clipPath>
</defs>
</svg>
