<svg width="64" height="64" viewBox="0 0 64 64" fill="none" xmlns="http://www.w3.org/2000/svg">
<g clip-path="url(#clip0_423_9925)">
<g clip-path="url(#clip1_423_9925)">
<g clip-path="url(#clip2_423_9925)">
<path d="M-10.668 0H74.6654V64H-10.668V0Z" fill="white"/>
<path d="M25.5977 0H38.3977V64H25.5977V0Z" fill="#FF0000"/>
<path d="M-10.668 25.6016H74.6654V38.4016H-10.668V25.6016Z" fill="#FF0000"/>
<path fill-rule="evenodd" clip-rule="evenodd" d="M8.90719 49.7459C9.04052 47.5059 9.44052 45.5992 9.44052 45.5992C9.44052 45.5992 8.13385 45.7325 7.46719 45.7325C6.81385 45.7325 5.49385 45.5992 5.49385 45.5992C5.49385 45.5992 5.89385 47.5059 6.02719 49.7592C3.77385 49.6259 1.86719 49.2259 1.86719 49.2259C1.86719 49.2259 2.00052 50.2125 2.00052 51.1992C2.00052 52.1859 1.86719 53.1725 1.86719 53.1725C1.86719 53.1725 3.77385 52.7725 6.02719 52.6392C5.89385 54.8925 5.49385 56.7992 5.49385 56.7992C5.49385 56.7992 6.48052 56.6659 7.46719 56.6659C8.45385 56.6659 9.44052 56.7992 9.44052 56.7992C9.44052 56.7992 9.04052 54.8925 8.90719 52.6392C11.1605 52.7725 13.0672 53.1725 13.0672 53.1725C13.0672 53.1725 12.9339 51.8659 12.9339 51.1992C12.9339 50.5459 13.0672 49.2259 13.0672 49.2259C13.0672 49.2259 11.1605 49.6259 8.92052 49.7592L8.90719 49.7459ZM57.9738 11.3459C58.1072 9.10589 58.5072 7.19922 58.5072 7.19922C58.5072 7.19922 57.2005 7.33255 56.5339 7.33255C55.8805 7.33255 54.5605 7.19922 54.5605 7.19922C54.5605 7.19922 54.9605 9.10589 55.0939 11.3459C52.8405 11.2126 50.9339 10.8259 50.9339 10.8259C50.9339 10.8259 51.0672 11.8126 51.0672 12.7992C51.0672 13.7859 50.9339 14.7726 50.9339 14.7726C50.9339 14.7726 52.8405 14.3726 55.0939 14.2392C54.9605 16.4926 54.5605 18.3992 54.5605 18.3992C54.5605 18.3992 55.5472 18.2659 56.5339 18.2659C57.5205 18.2659 58.5072 18.3992 58.5072 18.3992C58.5072 18.3992 58.1072 16.4926 57.9738 14.2526C60.2272 14.3859 62.1339 14.7859 62.1339 14.7859C62.1339 14.7859 62.0005 13.4526 62.0005 12.7992C62.0005 12.1459 62.1339 10.8259 62.1339 10.8259C62.1339 10.8259 60.2272 11.2259 57.9738 11.3592V11.3459ZM8.90719 11.3459C9.04052 9.10589 9.44052 7.19922 9.44052 7.19922C9.44052 7.19922 8.13385 7.33255 7.46719 7.33255C6.81385 7.33255 5.49385 7.19922 5.49385 7.19922C5.49385 7.19922 5.89385 9.10588 6.02719 11.3592C3.77385 11.2259 1.86719 10.8259 1.86719 10.8259C1.86719 10.8259 2.00052 11.8126 2.00052 12.7992C2.00052 13.7859 1.86719 14.7726 1.86719 14.7726C1.86719 14.7726 3.77385 14.3726 6.02719 14.2392C5.89385 16.4926 5.49385 18.3992 5.49385 18.3992C5.49385 18.3992 6.48052 18.2659 7.46719 18.2659C8.45385 18.2659 9.44052 18.3992 9.44052 18.3992C9.44052 18.3992 9.04052 16.4926 8.90719 14.2392C11.1605 14.3726 13.0672 14.7726 13.0672 14.7726C13.0672 14.7726 12.9339 13.4659 12.9339 12.7992C12.9339 12.1459 13.0672 10.8259 13.0672 10.8259C13.0672 10.8259 11.1605 11.2259 8.92052 11.3592L8.90719 11.3459ZM57.9738 49.7459C58.1072 47.5059 58.5072 45.5992 58.5072 45.5992C58.5072 45.5992 57.2005 45.7325 56.5339 45.7325C55.8805 45.7325 54.5605 45.5992 54.5605 45.5992C54.5605 45.5992 54.9605 47.5059 55.0939 49.7592C52.8405 49.6259 50.9339 49.2259 50.9339 49.2259C50.9339 49.2259 51.0672 50.2125 51.0672 51.1992C51.0672 52.1859 50.9339 53.1725 50.9339 53.1725C50.9339 53.1725 52.8405 52.7725 55.0939 52.6392C54.9605 54.8925 54.5605 56.7992 54.5605 56.7992C54.5605 56.7992 55.5472 56.6659 56.5339 56.6659C57.5205 56.6659 58.5072 56.7992 58.5072 56.7992C58.5072 56.7992 58.1072 54.8925 57.9738 52.6392C60.2272 52.7725 62.1339 53.1725 62.1339 53.1725C62.1339 53.1725 62.0005 51.8659 62.0005 51.1992C62.0005 50.5459 62.1339 49.2259 62.1339 49.2259C62.1339 49.2259 60.2272 49.6259 57.9738 49.7592V49.7459Z" fill="#FF0000"/>
</g>
</g>
</g>
<defs>
<clipPath id="clip0_423_9925">
<rect width="64" height="64" rx="32" fill="white"/>
</clipPath>
<clipPath id="clip1_423_9925">
<rect width="64" height="64" fill="white"/>
</clipPath>
<clipPath id="clip2_423_9925">
<rect width="85.3333" height="64" fill="white" transform="translate(-10.668)"/>
</clipPath>
</defs>
</svg>
