<svg width="45" height="46" viewBox="0 0 45 46" fill="none" xmlns="http://www.w3.org/2000/svg">
<path d="M22.4386 31.4944C27.1962 31.4944 31.053 27.6376 31.053 22.88C31.053 18.1224 27.1962 14.2656 22.4386 14.2656C17.681 14.2656 13.8242 18.1224 13.8242 22.88C13.8242 27.6376 17.681 31.4944 22.4386 31.4944Z" fill="#FFEC2D"/>
<path d="M22.4423 13.0983C22.9543 13.0919 23.1463 12.7719 23.1463 12.3879C23.1463 11.8759 22.4423 9.4375 22.4423 9.4375C22.4423 9.4375 21.7383 11.8759 21.7383 12.3879C21.7383 12.7719 21.9303 13.0983 22.4423 13.0983Z" fill="#FFEC2D"/>
<path d="M32.2298 22.8837C32.2362 23.3957 32.5562 23.5877 32.9402 23.5877C33.4522 23.5877 35.8906 22.8837 35.8906 22.8837C35.8906 22.8837 33.4522 22.1797 32.9402 22.1797C32.5562 22.1797 32.2298 22.3717 32.2298 22.8837Z" fill="#FFEC2D"/>
<path d="M22.4444 32.6712C21.9324 32.6776 21.7404 32.9976 21.7404 33.3816C21.7404 33.8936 22.4444 36.332 22.4444 36.332C22.4444 36.332 23.1484 33.8936 23.1484 33.3816C23.1484 32.9976 22.9564 32.6712 22.4444 32.6712Z" fill="#FFEC2D"/>
<path d="M12.6569 22.8858C12.6505 22.3738 12.3305 22.1818 11.9465 22.1818C11.4345 22.1818 8.99609 22.8858 8.99609 22.8858C8.99609 22.8858 11.4345 23.5898 11.9465 23.5898C12.3305 23.5898 12.6569 23.3978 12.6569 22.8858Z" fill="#FFEC2D"/>
<path d="M26.187 13.843C26.6625 14.033 26.9623 13.8108 27.1093 13.456C27.3052 12.983 27.5879 10.4608 27.5879 10.4608C27.5879 10.4608 26.0044 12.4442 25.8084 12.9172C25.6615 13.272 25.714 13.647 26.187 13.843Z" fill="#FFEC2D"/>
<path d="M31.4813 26.6284C31.2912 27.1039 31.5134 27.4037 31.8682 27.5507C32.3412 27.7466 34.8634 28.0293 34.8634 28.0293C34.8634 28.0293 32.88 26.4458 32.407 26.2498C32.0522 26.1029 31.6772 26.1554 31.4813 26.6284Z" fill="#FFEC2D"/>
<path d="M18.6958 31.9266C18.2204 31.7366 17.9205 31.9587 17.7736 32.3135C17.5776 32.7865 17.2949 35.3087 17.2949 35.3087C17.2949 35.3087 18.8784 33.3253 19.0744 32.8523C19.2213 32.4975 19.1689 32.1225 18.6958 31.9266Z" fill="#FFEC2D"/>
<path d="M13.4015 19.1411C13.5916 18.6657 13.3694 18.3658 13.0146 18.2189C12.5416 18.0229 10.0194 17.7402 10.0194 17.7402C10.0194 17.7402 12.0028 19.3238 12.4758 19.5197C12.8306 19.6666 13.2056 19.6142 13.4015 19.1411Z" fill="#FFEC2D"/>
<path d="M29.3624 15.9653C29.7289 16.3228 30.091 16.2323 30.3625 15.9608C30.7245 15.5987 31.9509 13.3767 31.9509 13.3767C31.9509 13.3767 29.7289 14.6031 29.3669 14.9652C29.0953 15.2367 29.0003 15.6032 29.3624 15.9653Z" fill="#FFEC2D"/>
<path d="M29.3589 29.8038C29.0014 30.1703 29.0919 30.5324 29.3635 30.8039C29.7255 31.1659 31.9475 32.3923 31.9475 32.3923C31.9475 32.3923 30.7211 30.1703 30.3591 29.8083C30.0875 29.5368 29.721 29.4417 29.3589 29.8038Z" fill="#FFEC2D"/>
<path d="M15.5205 29.8042C15.1539 29.4467 14.7919 29.5372 14.5203 29.8088C14.1583 30.1708 12.9319 32.3928 12.9319 32.3928C12.9319 32.3928 15.1539 31.1664 15.5159 30.8044C15.7875 30.5328 15.8825 30.1663 15.5205 29.8042Z" fill="#FFEC2D"/>
<path d="M15.5239 15.9619C15.8814 15.5953 15.7909 15.2333 15.5194 14.9617C15.1573 14.5997 12.9353 13.3733 12.9353 13.3733C12.9353 13.3733 14.1617 15.5953 14.5237 15.9573C14.7953 16.2289 15.1618 16.3239 15.5239 15.9619Z" fill="#FFEC2D"/>
<path d="M31.481 19.1412C31.6829 19.6118 32.052 19.6667 32.4068 19.5197C32.8798 19.3238 34.8632 17.7403 34.8632 17.7403C34.8632 17.7403 32.341 18.023 31.8679 18.2189C31.5132 18.3659 31.2851 18.6682 31.481 19.1412Z" fill="#FFEC2D"/>
<path d="M26.1869 31.9263C25.7164 32.1282 25.6614 32.4973 25.8084 32.8521C26.0043 33.3251 27.5879 35.3085 27.5879 35.3085C27.5879 35.3085 27.3051 32.7863 27.1092 32.3132C26.9623 31.9585 26.66 31.7304 26.1869 31.9263Z" fill="#FFEC2D"/>
<path d="M13.4018 26.6283C13.1999 26.1578 12.8308 26.1028 12.4761 26.2498C12.003 26.4457 10.0197 28.0293 10.0197 28.0293C10.0197 28.0293 12.5419 27.7466 13.0149 27.5506C13.3696 27.4037 13.5977 27.1014 13.4018 26.6283Z" fill="#FFEC2D"/>
<path d="M18.6959 13.8432C19.1664 13.6414 19.2214 13.2722 19.0744 12.9175C18.8785 12.4444 17.2949 10.4611 17.2949 10.4611C17.2949 10.4611 17.5777 12.9833 17.7736 13.4563C17.9206 13.8111 18.2228 14.0391 18.6959 13.8432Z" fill="#FFEC2D"/>
<path d="M24.3598 13.2864C24.8631 13.3804 25.1141 13.1042 25.1893 12.7277C25.2896 12.2256 25.0771 9.69654 25.0771 9.69654C25.0771 9.69654 23.9089 11.9497 23.8086 12.4518C23.7334 12.8284 23.8577 13.1861 24.3598 13.2864Z" fill="#FFEC2D"/>
<path d="M32.0378 24.8012C31.9438 25.3045 32.22 25.5555 32.5965 25.6307C33.0986 25.731 35.6277 25.5185 35.6277 25.5185C35.6277 25.5185 33.3745 24.3503 32.8724 24.25C32.4959 24.1748 32.1382 24.2991 32.0378 24.8012Z" fill="#FFEC2D"/>
<path d="M20.5231 32.4793C20.0197 32.3852 19.7688 32.6614 19.6935 33.0379C19.5932 33.54 19.8057 36.0691 19.8057 36.0691C19.8057 36.0691 20.9739 33.8159 21.0742 33.3138C21.1495 32.9373 21.0251 32.5796 20.5231 32.4793Z" fill="#FFEC2D"/>
<path d="M12.845 20.9645C12.939 20.4611 12.6628 20.2102 12.2863 20.1349C11.7842 20.0346 9.25513 20.2471 9.25513 20.2471C9.25513 20.2471 11.5083 21.4153 12.0104 21.5156C12.3869 21.5909 12.7446 21.4665 12.845 20.9645Z" fill="#FFEC2D"/>
<path d="M27.8845 14.7501C28.3135 15.0296 28.6511 14.8705 28.8647 14.5514C29.1495 14.1259 29.921 11.708 29.921 11.708C29.921 11.708 27.9795 13.3427 27.6946 13.7681C27.481 14.0872 27.459 14.4653 27.8845 14.7501Z" fill="#FFEC2D"/>
<path d="M30.5702 28.3259C30.2907 28.7549 30.4498 29.0925 30.7689 29.3061C31.1944 29.5909 33.6123 30.3624 33.6123 30.3624C33.6123 30.3624 31.9776 28.4209 31.5522 28.136C31.2331 27.9224 30.855 27.9004 30.5702 28.3259Z" fill="#FFEC2D"/>
<path d="M16.9944 31.0116C16.5654 30.7321 16.2279 30.8912 16.0142 31.2103C15.7294 31.6358 14.958 34.0537 14.958 34.0537C14.958 34.0537 16.8994 32.419 17.1843 31.9936C17.3979 31.6745 17.4199 31.2964 16.9944 31.0116Z" fill="#FFEC2D"/>
<path d="M14.3087 17.4358C14.5882 17.0068 14.4291 16.6693 14.11 16.4556C13.6845 16.1708 11.2666 15.3994 11.2666 15.3994C11.2666 15.3994 12.9013 17.3408 13.3267 17.6257C13.6458 17.8393 14.0239 17.8613 14.3087 17.4358Z" fill="#FFEC2D"/>
<path d="M30.5833 17.4528C30.8727 17.8752 31.2454 17.8574 31.5649 17.6443C31.9909 17.3603 33.6289 15.4216 33.6289 15.4216C33.6289 15.4216 31.2096 16.1889 30.7837 16.473C30.4642 16.686 30.2992 17.0268 30.5833 17.4528Z" fill="#FFEC2D"/>
<path d="M27.8714 31.0247C27.449 31.3141 27.4668 31.6868 27.6799 32.0063C27.964 32.4323 29.9026 34.0703 29.9026 34.0703C29.9026 34.0703 29.1353 31.6511 28.8513 31.2251C28.6382 30.9056 28.2974 30.7406 27.8714 31.0247Z" fill="#FFEC2D"/>
<path d="M14.2995 28.3128C14.0101 27.8904 13.6374 27.9082 13.3179 28.1213C12.8919 28.4054 11.2539 30.344 11.2539 30.344C11.2539 30.344 13.6732 29.5768 14.0991 29.2927C14.4186 29.0796 14.5836 28.7388 14.2995 28.3128Z" fill="#FFEC2D"/>
<path d="M17.0114 14.7409C17.4338 14.4515 17.416 14.0788 17.2029 13.7593C16.9189 13.3334 14.9802 11.6953 14.9802 11.6953C14.9802 11.6953 15.7475 14.1146 16.0315 14.5405C16.2446 14.86 16.5854 15.025 17.0114 14.7409Z" fill="#FFEC2D"/>
<path d="M32.0418 20.9798C32.1475 21.4808 32.4987 21.607 32.8754 21.5324C33.3776 21.4329 35.6328 20.2687 35.6328 20.2687C35.6328 20.2687 33.1041 20.0517 32.6019 20.1512C32.2252 20.2258 31.9423 20.4775 32.0418 20.9798Z" fill="#FFEC2D"/>
<path d="M24.3405 32.4793C23.8395 32.585 23.7133 32.9362 23.7879 33.3129C23.8874 33.8151 25.0516 36.0703 25.0516 36.0703C25.0516 36.0703 25.2686 33.5416 25.1691 33.0394C25.0945 32.6627 24.8428 32.3798 24.3405 32.4793Z" fill="#FFEC2D"/>
<path d="M12.8411 24.7819C12.7353 24.2809 12.3841 24.1548 12.0074 24.2293C11.5052 24.3288 9.24998 25.493 9.24998 25.493C9.24998 25.493 11.7787 25.71 12.2809 25.6105C12.6576 25.5359 12.9405 25.2842 12.8411 24.7819Z" fill="#FFEC2D"/>
<path d="M20.5384 13.2825C21.0394 13.1767 21.1656 12.8255 21.091 12.4489C20.9915 11.9466 19.8273 9.69138 19.8273 9.69138C19.8273 9.69138 19.6103 12.2201 19.7098 12.7223C19.7844 13.099 20.0361 13.3819 20.5384 13.2825Z" fill="#FFEC2D"/>
</svg>
