<svg width="41" height="22" viewBox="0 0 41 22" fill="none" xmlns="http://www.w3.org/2000/svg">
<path d="M20.1438 13.9202C19.9198 14.3234 19.7854 14.7906 19.5038 15.1554C18.6334 14.3682 17.379 14.3874 16.2782 14.3426C15.3694 14.2914 14.3838 14.2082 13.6798 13.5618C12.9438 12.9538 12.3358 12.173 11.5166 11.6802C10.7467 11.5144 10.0232 11.18 9.39817 10.701C8.10537 9.64497 7.36296 8.07697 6.09576 6.98897C5.85896 6.75857 5.57097 6.57297 5.30217 6.37457C5.04617 6.43857 5.16136 6.98897 4.84776 6.70737C4.67496 6.57937 4.24616 6.57297 4.20776 6.74577C4.59176 7.25777 4.98216 7.83377 5.03976 8.48657C4.77096 8.51217 4.30376 8.42897 4.17576 8.52497C4.52748 9.05256 4.96944 9.51402 5.48137 9.88817C5.23817 9.92657 4.75817 9.90737 4.66217 10.0034C5.14133 10.4622 5.73291 10.7867 6.37737 10.9442C6.50537 11.1234 6.17896 11.469 6.46056 11.6226C6.62056 11.6866 7.15816 11.8018 6.78696 11.9874C6.53096 12.1538 6.62697 12.557 6.95337 12.5442C7.15817 12.653 7.61897 12.6722 7.65737 12.8642C7.47177 13.0434 6.90856 13.261 7.38856 13.4402C7.84108 13.6967 8.34742 13.8435 8.86696 13.869C8.61096 14.0866 8.29096 14.2082 8.02856 14.413C9.21256 15.1106 10.5246 15.565 11.8302 16.013C12.3422 16.1794 12.8734 16.3394 13.411 16.4418C11.8494 16.3522 10.339 15.8914 8.91817 15.2578C8.18217 14.9378 7.44616 14.6242 6.69096 14.349C7.01736 14.1762 7.40136 14.1314 7.74696 13.9842C7.03016 13.8434 6.25576 13.7922 5.63496 13.4082C5.72456 13.229 6.08296 13.2226 6.28776 13.133C6.67176 13.0434 6.90216 12.941 6.37096 12.9026C5.83336 12.7554 5.21896 12.8194 4.73896 12.4994C4.77096 12.3074 5.27016 12.3714 5.46856 12.2882C5.72456 12.2434 6.00616 12.205 6.21096 12.0322C5.37896 11.693 4.29097 11.9362 3.63817 11.2002C3.49097 10.9186 4.10537 11.1426 4.27817 11.0978C4.72617 11.0978 5.20616 11.2386 5.63496 11.0594C4.41896 10.5282 3.11977 10.0354 2.19817 9.04977C2.09577 8.88977 1.78857 8.45457 2.03817 8.40337C2.75497 8.49937 3.27336 9.28017 4.04776 9.15857C4.15016 9.02417 3.59976 8.80017 3.45896 8.60177C2.30122 7.67153 1.29133 6.571 0.463764 5.33777C0.412564 4.90897 1.07176 4.84497 1.24456 5.17137C2.10216 6.00337 2.87657 6.96337 3.94537 7.52657C4.32937 7.71217 3.72776 7.30897 3.65096 7.16177C2.63443 6.03485 1.75571 4.79089 1.03337 3.45617C0.905365 3.21297 0.706966 2.77137 1.07817 2.64337C1.44297 2.45777 1.81416 2.70737 1.99976 3.02737C2.72296 3.94257 3.26056 5.03057 4.16296 5.79217C3.39496 4.30097 2.56937 2.72017 2.55017 1.00497C2.56937 0.672169 2.58856 0.172967 3.04296 0.179367C3.42696 0.121767 3.36296 0.608169 3.49096 0.838569C3.86216 2.10577 4.02216 3.47537 4.77096 4.58897C4.61096 3.65457 4.36136 2.68817 4.52776 1.73457C4.56616 1.41457 4.91176 1.32497 5.14856 1.51697C5.33416 1.96497 5.37256 2.53457 5.53896 3.02097C6.53641 6.33399 8.63655 9.20644 11.491 11.1618C13.8282 12.7611 16.5554 13.6967 19.3822 13.869C19.6382 13.8946 19.8942 13.901 20.1438 13.9138M28.8734 19.7442C28.4126 20.0258 28.0542 19.5266 27.6702 19.3794C27.3886 19.533 27.363 20.0322 27.107 20.2754C26.7998 20.6274 26.4158 20.173 26.4478 19.8274C26.0766 20.141 25.891 20.8514 25.2958 20.749C25.0078 20.5186 24.7966 20.0322 24.579 20.589C24.4062 20.8578 23.939 21.2418 23.6894 20.8322C23.6126 20.4738 23.4334 20.0514 23.2414 20.621C23.1006 21.0306 22.6654 21.325 22.2558 21.1458C22.0254 20.9602 22.435 20.269 22.147 20.3138C21.7118 20.6082 21.4558 21.3186 20.8478 21.261C20.611 21.005 20.995 20.5506 20.7326 20.2562C20.4318 20.6466 20.0926 21.2226 19.5614 21.261C19.3054 21.0562 19.5742 20.461 19.4078 20.3778C18.8702 20.6978 18.2942 21.2802 17.6158 21.101C17.8782 20.077 18.9918 19.725 19.9198 19.6482C21.5262 19.4498 23.2158 19.8146 24.7646 19.2322C25.0142 19.0786 25.6158 18.8674 25.4046 18.5154C25.2126 18.2338 25.8974 18.3426 25.9614 18.0162C25.923 17.6066 26.2814 17.6642 26.627 17.6322C28.1886 17.5618 29.731 17.8882 31.2862 17.9458C31.4014 18.701 30.563 19.2322 29.8782 19.0018C29.5582 19.053 29.0782 18.2594 29.1742 18.8354C29.1102 19.1426 29.1486 19.5394 28.8734 19.7442ZM15.5998 18.1954C15.9582 18.5218 16.2142 18.1314 16.5534 17.9842C17.661 17.5505 18.7017 16.9623 19.6446 16.237C20.2334 15.7506 20.7454 15.117 21.539 14.957C23.0878 14.4898 24.7326 14.5474 26.2814 14.1122C27.4654 12.4994 29.4686 11.917 31.1518 10.989C31.5294 10.8738 31.6766 10.5602 31.7918 10.221C32.4318 9.20337 33.3086 8.30737 34.3454 7.69297C34.8347 7.40395 35.4113 7.29953 35.971 7.39857C35.8938 8.05145 35.5822 8.65411 35.0942 9.09457C35.4718 9.08817 35.7982 8.85137 36.1694 8.86417C36.2974 9.54257 35.5678 9.89457 35.1774 10.317C35.395 10.3682 36.227 10.4322 35.7726 10.6498C35.1966 11.0466 34.5374 11.3218 34.0062 11.789C34.499 11.8786 34.5566 11.981 34.0574 12.1602C33.7822 12.3394 33.2638 12.4034 33.2126 12.7618C33.5838 12.9922 33.0462 13.2098 32.835 13.2866C32.4382 13.3826 32.0158 13.5554 32.547 13.8626C32.3486 14.1634 31.9134 14.2274 31.5614 14.1954C31.6702 14.541 31.8238 14.925 31.3822 15.0786C30.3916 15.8616 29.205 16.3575 27.9518 16.5122C29.5198 16.6274 31.139 16.3394 32.4766 15.4882C32.6558 15.277 33.5838 15.0466 33.0654 14.8738C32.8222 14.7714 32.2974 14.6562 32.259 14.4706C32.9886 14.0226 33.9038 14.1826 34.6846 13.9202C34.7038 13.6642 34.0894 13.7346 33.859 13.677C33.315 13.6322 33.347 13.4914 33.8718 13.4402C34.5374 13.261 35.2926 13.229 35.8558 12.8002C35.4014 12.5826 34.8254 12.7682 34.339 12.5954C35.1646 12.237 36.1374 12.1986 36.8798 11.6546C37.219 11.277 36.4446 11.3986 36.2206 11.405C35.7662 11.4882 35.555 11.2642 36.0734 11.0786C36.963 10.4194 38.083 9.99697 38.7102 9.04977C38.8574 8.83857 39.0558 8.19857 38.5822 8.42257C37.9678 8.63377 37.4238 9.32497 36.7134 9.11377C38.1086 8.03217 39.427 6.80977 40.3806 5.31857C40.4318 4.88337 39.7534 4.83857 39.5806 5.17777C38.6846 6.03537 37.8782 7.05297 36.7326 7.59697C37.8124 6.5173 38.7501 5.30431 39.523 3.98737C39.6958 3.60337 40.1502 3.13617 39.907 2.70737C39.5038 2.37457 39.0046 2.68177 38.7998 3.07217C38.1022 3.98097 37.5774 5.03697 36.6878 5.77937C37.4622 4.28817 38.275 2.69457 38.2878 0.979368C38.2878 0.620968 38.2238 0.0961686 37.7374 0.166569C37.3534 0.230569 37.4494 0.806569 37.2894 1.09457C36.9438 2.27217 36.7774 3.54577 36.0734 4.56977C36.2334 3.61617 36.5086 2.61777 36.2974 1.65777C36.195 1.22257 35.4974 1.40817 35.5934 1.83697C34.7614 6.05457 31.9262 9.74097 28.2334 11.8722C26.5374 12.8322 24.6494 13.4466 22.7166 13.7282C22.2046 13.837 21.6414 13.773 21.1486 13.9522C19.9454 14.8674 19.2222 16.4098 17.7054 16.8898C17.0206 17.229 16.1374 17.2994 15.651 17.9266C15.6115 18.0104 15.5939 18.1029 15.5998 18.1954ZM18.9086 17.5362C18.6782 17.549 18.4542 17.5746 18.2302 17.645C17.9294 17.6898 17.6414 17.7922 17.347 17.837L17.2254 17.8626L17.027 17.8818C17.0528 17.989 17.0528 18.1009 17.027 18.2082C17.0062 18.2565 16.9757 18.3001 16.9374 18.3362C16.899 18.3874 16.8542 18.4258 16.7966 18.4514C16.7445 18.4769 16.688 18.4921 16.6302 18.4962C16.5726 18.4962 16.515 18.4962 16.4574 18.4706C16.3998 18.4514 16.3486 18.4194 16.2974 18.3746L16.1182 18.4066H15.9518L15.7726 18.3426C15.7147 18.3199 15.659 18.2921 15.6062 18.2594C15.3886 18.3874 15.1454 18.509 15.011 18.733C14.9485 18.8355 14.9132 18.9522 14.9086 19.0722C14.8958 19.2258 14.9342 19.3794 14.9982 19.5202C15.0238 19.5586 15.043 19.373 15.1134 19.3474C15.235 19.245 15.3886 19.1746 15.5422 19.1362C15.6702 19.0722 15.651 19.1362 15.5998 19.2386C15.587 19.2962 15.5166 19.4946 15.6126 19.3922C16.0551 19.2268 16.5226 19.1381 16.995 19.1298C17.6734 19.0594 18.3518 19.0402 19.0302 19.0338L20.9502 19.0722C21.2574 19.085 21.5646 19.149 21.8654 19.0978C21.9358 19.0786 22.051 19.0786 22.0958 19.0338C21.955 18.957 21.795 18.9506 21.6478 18.9314H20.4254C20.0862 18.8994 19.7342 18.893 19.4142 18.765C19.3246 18.733 19.2478 18.6498 19.1646 18.7394C19.0427 18.7829 18.9158 18.8109 18.787 18.8226C18.563 18.8354 18.339 18.7906 18.1342 18.7074C18.2814 18.5026 18.4606 18.3234 18.627 18.1314L18.2302 18.0482C18.467 17.8882 18.6782 17.7026 18.9086 17.5362Z" fill="#FFEC2D"/>
<path d="M16.5716 18.2916C16.6564 18.2916 16.7252 18.2228 16.7252 18.138C16.7252 18.0531 16.6564 17.9844 16.5716 17.9844C16.4867 17.9844 16.418 18.0531 16.418 18.138C16.418 18.2228 16.4867 18.2916 16.5716 18.2916Z" fill="#FFEC2D"/>
<path d="M16.5601 18.1749C16.5954 18.1749 16.6241 18.1462 16.6241 18.1109C16.6241 18.0755 16.5954 18.0469 16.5601 18.0469C16.5247 18.0469 16.4961 18.0755 16.4961 18.1109C16.4961 18.1462 16.5247 18.1749 16.5601 18.1749Z" fill="#FFEC2D" stroke="#FFEC2D" stroke-width="0.0256"/>
</svg>
