<svg width="64" height="64" viewBox="0 0 64 64" fill="none" xmlns="http://www.w3.org/2000/svg">
<g clip-path="url(#clip0_423_10174)">
<g clip-path="url(#clip1_423_10174)">
<g clip-path="url(#clip2_423_10174)">
<path d="M-10.668 0H74.6654V64H-10.668V0Z" fill="#4997D0"/>
<path d="M17.7734 0H46.2268V64H17.7734V0Z" fill="white"/>
<path d="M28.9822 40.5284C29.2743 40.4843 29.4366 40.3962 29.6313 40.3301M29.8801 39.8783C30.0238 40.025 30.1345 40.2017 30.2046 40.3962M29.3284 39.8342C29.4659 39.9648 29.5762 40.1222 29.6529 40.297M24.2981 25.2455C24.19 25.4218 23.9736 25.543 23.7789 25.6201M23.7464 25.5981C23.7464 25.4438 23.7248 25.2675 23.7464 25.1133M23.5409 25.6642C23.5409 25.7083 23.5842 25.8185 23.6058 25.8846M23.833 25.9948L23.6166 26.0278M23.1839 25.9287C23.1839 26.2151 23.2164 26.5457 23.238 26.7991M23.0433 26.6889C23.0974 26.7771 23.1515 26.8542 23.2164 26.8983M22.7188 27.6145C22.7729 27.7137 22.8269 27.8349 22.8594 28.0553M23.2596 27.5374L23.0433 27.7027M23.2272 28.1875C23.119 28.2867 22.9892 28.3528 22.8486 28.4189M22.4375 32.8704C22.5474 33.07 22.6943 33.2459 22.8702 33.3883M22.9351 33.5756C22.8208 33.5612 22.7105 33.5238 22.6106 33.4654M23.0866 34.402L23.2705 34.5122M23.2272 34.8868C23.357 34.975 23.4976 35.1403 23.6275 35.3166M23.476 35.6251C23.6275 35.6581 23.7464 35.7022 23.8222 35.7353M23.714 36.0107H23.9303M24.071 35.4268L24.0169 35.8895M24.1251 36.0658L24.1683 35.8895M24.6768 36.5507L24.666 36.9033M28.9065 39.9775L28.7767 40.1538M28.5171 39.724L28.4413 39.5257" stroke="#24420E" stroke-width="0.043671"/>
<path d="M32.6637 41.3559C32.5742 41.2249 32.4506 41.1218 32.3068 41.0584C31.4738 40.6176 30.6408 40.4083 29.7105 40.254C29.4833 40.2209 29.267 40.0116 29.0398 39.9014C28.4989 39.648 27.9039 39.5488 27.3847 39.2733C27.3522 39.2623 27.2224 39.1852 27.1683 39.1081C26.952 38.8657 26.5734 38.7885 26.3462 38.5571C25.4375 37.6977 24.4855 36.9043 23.9879 35.7474C23.3821 34.348 22.6357 32.9046 22.7331 31.3179C22.798 30.3041 22.6573 29.2904 22.8953 28.3428C23.2631 26.9104 23.7175 25.511 24.5613 24.332L24.4206 24.4202C23.6195 25.6328 23.054 26.9905 22.7547 28.42C22.5059 29.3786 22.6465 30.4033 22.5924 31.395C22.4843 32.9927 23.2415 34.4361 23.8365 35.8355C24.3341 36.9815 25.2969 37.7858 26.1947 38.6563C26.4327 38.8767 26.8005 38.9538 27.0169 39.2072C27.0819 39.2713 27.1546 39.3269 27.2332 39.3725C27.7633 39.637 28.3583 39.7361 28.8992 40.0006C29.1155 40.1108 29.3319 40.3091 29.5482 40.3532C30.458 40.4681 31.3427 40.7362 32.1661 41.1465C32.3094 41.211 32.4327 41.3138 32.5231 41.444L32.6637 41.3449" fill="#406325"/>
<path d="M32.6637 41.3559C32.5742 41.2249 32.4506 41.1218 32.3068 41.0584C31.4738 40.6176 30.6408 40.4083 29.7105 40.254C29.4833 40.2209 29.267 40.0116 29.0398 39.9014C28.4989 39.648 27.9039 39.5488 27.3847 39.2733C27.3522 39.2623 27.2224 39.1852 27.1683 39.1081C26.952 38.8657 26.5734 38.7885 26.3462 38.5571C25.4375 37.6977 24.4855 36.9043 23.9879 35.7474C23.3821 34.348 22.6357 32.9046 22.7331 31.3179C22.798 30.3041 22.6573 29.2904 22.8953 28.3428C23.2631 26.9104 23.7175 25.511 24.5613 24.332L24.4206 24.4202C23.6195 25.6328 23.054 26.9905 22.7547 28.42C22.5059 29.3786 22.6465 30.4033 22.5924 31.395C22.4843 32.9927 23.2415 34.4361 23.8365 35.8355C24.3341 36.9815 25.2969 37.7858 26.1947 38.6563C26.4327 38.8767 26.8005 38.9538 27.0169 39.2072C27.0819 39.2713 27.1546 39.3269 27.2332 39.3725C27.7633 39.637 28.3583 39.7361 28.8992 40.0006C29.1155 40.1108 29.3319 40.3091 29.5482 40.3532C30.458 40.4681 31.3427 40.7362 32.1661 41.1465C32.3094 41.211 32.4327 41.3138 32.5231 41.444L32.6637 41.3449" stroke="#24420E" stroke-width="0.0218355"/>
<path d="M24.0283 35.4722C23.8054 34.6249 23.798 33.7338 24.0066 32.8828C24.7314 34.3152 24.4934 35.4942 24.0283 35.4722ZM28.9936 40.4747C28.1116 40.6806 27.296 41.113 26.6245 41.7308C28.258 41.7418 29.2208 40.9264 28.9936 40.4747ZM29.805 40.0009C29.0661 39.1734 28.5451 38.1689 28.2905 37.0809C29.9131 38.282 30.335 39.7585 29.805 40.0009Z" fill="#67923D" stroke="#24420E" stroke-width="0.0218355"/>
<path d="M29.2556 40.0115C28.477 39.3389 27.881 38.4738 27.5248 37.4992C29.1799 38.4028 29.7208 39.725 29.2556 40.0115ZM27.5681 39.2622C27.6763 38.4028 26.9623 36.5957 26.7568 36.3974C26.4322 38.2155 27.0813 39.4385 27.5681 39.2622ZM24.6148 36.5847C24.4402 35.8212 24.4588 35.025 24.6689 34.2708C25.2639 35.56 25.0259 36.6067 24.6148 36.5847ZM23.1328 28.1224C23.725 27.3418 24.5085 26.7338 25.4045 26.3594C24.6689 27.9681 23.4573 28.5521 23.1328 28.1224Z" fill="#67923D" stroke="#24420E" stroke-width="0.0218355"/>
<path d="M23.2074 27.5045C23.6366 26.6161 24.2852 25.8566 25.0897 25.3008C24.6895 27.0307 23.6077 27.8571 23.2074 27.5045ZM26.2256 38.435C25.7257 37.5487 25.4541 36.5481 25.4359 35.5261C26.6475 36.9034 26.734 38.3138 26.2148 38.435H26.2256ZM23.1209 34.4132C22.3636 34.5344 20.8059 33.9064 20.6328 33.719C22.2122 33.3664 23.2723 33.9394 23.1209 34.4132ZM22.8829 33.3444C22.9694 32.7384 23.8132 31.6035 23.9971 31.5153C23.889 32.8376 23.1966 33.5648 22.8829 33.3444ZM28.4324 39.8013C27.3787 40.0405 26.4051 40.5572 25.609 41.2999C27.5562 41.3109 28.7137 40.3413 28.4324 39.8013Z" fill="#67923D" stroke="#24420E" stroke-width="0.0218355"/>
<path d="M24.0401 35.4615C24.4944 35.4835 24.7324 34.3155 24.0076 32.8831C24.1442 33.7361 24.1552 34.6052 24.0401 35.4615ZM25.2517 37.6652C24.5845 37.0579 23.7768 36.6332 22.9042 36.4311C23.867 37.7644 25.057 38.0949 25.2517 37.6652ZM22.6122 31.8253C22.3052 30.8208 21.7545 29.9113 21.0111 29.1808C21.1734 31.0761 22.1578 32.1228 22.6122 31.8253ZM23.5208 35.6047C22.98 35.197 21.4655 35.0097 21.2491 35.0758C22.3525 36.0014 23.4343 36.0124 23.5208 35.6047ZM22.504 32.8721C22.0367 32.21 21.406 31.6855 20.6758 31.3515C21.2708 32.7178 22.2552 33.2247 22.504 32.8611V32.8721ZM22.8069 27.6272C22.8934 26.7898 22.2011 25.0488 22.0064 24.8505C21.6927 26.6135 22.3201 27.7925 22.7961 27.6272H22.8069ZM23.2829 25.9854C23.5749 25.2692 23.3694 23.5172 23.2288 23.2969C22.5364 24.7844 22.8177 26.0075 23.2829 25.9854Z" fill="#406325" stroke="#24420E" stroke-width="0.0218355"/>
<path d="M23.8228 25.1363C24.1208 24.4666 24.2509 23.7321 24.2014 22.9986C23.4225 24.0674 23.4442 25.0812 23.8228 25.1363ZM24.4719 24.4641C24.9521 23.9204 25.2873 23.2603 25.4455 22.5469C24.3961 23.3182 24.1257 24.2878 24.4719 24.4641ZM22.7302 29.2242C22.741 29.3234 22.622 28.3207 21.6484 27.2078C21.6917 28.8385 22.3191 29.4556 22.7302 29.2242ZM26.2568 38.6782C25.3964 38.2208 24.4361 37.9933 23.4658 38.0171C24.8289 39.163 26.1594 39.1851 26.2568 38.6782ZM27.5657 39.2622C27.0681 39.4275 26.4299 38.2154 26.7436 36.3973C26.884 37.3856 27.157 38.3496 27.5549 39.2622H27.5657ZM29.0045 40.4742C29.2209 40.926 28.2689 41.7414 26.6462 41.7304C27.9444 41.1794 28.9396 40.6395 29.0045 40.4853V40.4742ZM29.7942 39.9894C30.3243 39.736 29.9132 38.2815 28.2797 37.0805C29.21 38.535 29.8483 39.7911 29.7942 39.9894Z" fill="#406325" stroke="#24420E" stroke-width="0.0218355"/>
<path d="M29.2557 40.0012C29.71 39.7037 29.1799 38.4035 27.5248 37.4999C28.5525 38.734 29.2773 39.8139 29.2557 40.0012ZM24.6257 36.5854C25.0259 36.6074 25.2747 35.5607 24.6797 34.2715C24.7555 35.4835 24.723 36.4752 24.6257 36.5854ZM23.1328 28.1341C23.4573 28.5528 24.6473 27.9798 25.3937 26.3711C24.7284 27.0677 23.9667 27.6617 23.1328 28.1341Z" fill="#406325" stroke="#24420E" stroke-width="0.0218355"/>
<path d="M23.2291 27.5045C23.6185 27.8571 24.6895 27.0307 25.0897 25.3008C24.2243 26.5459 23.4022 27.4825 23.2291 27.5045ZM26.2256 38.424C26.734 38.3028 26.6583 36.9034 25.4359 35.5261C25.9768 37.0136 26.3013 38.2587 26.2256 38.424ZM23.0993 34.4132C23.2507 33.9394 22.2014 33.3775 20.6328 33.719C21.9634 33.9615 23.0127 34.27 23.0993 34.4132ZM22.8937 33.3554C23.2074 33.5538 23.8781 32.8376 24.0079 31.5153C23.725 32.1799 23.3498 32.7996 22.8937 33.3554ZM28.4324 39.8124C28.7028 40.3633 27.567 41.3219 25.6198 41.3109C27.1559 40.6608 28.3567 40.0107 28.4324 39.8124Z" fill="#406325" stroke="#24420E" stroke-width="0.0218355"/>
<path d="M23.2843 34.8894C22.8313 34.1553 22.1972 33.555 21.4453 33.1484C21.9862 34.647 22.9814 35.253 23.2843 34.8894Z" fill="#406325" stroke="#24420E" stroke-width="0.0218355"/>
<path d="M22.5256 29.1257C22.9583 28.6078 24.4187 28.112 24.6459 28.134C23.7805 29.291 22.6987 29.5224 22.5256 29.1257ZM25.2409 37.6652C25.0461 38.1059 23.867 37.7754 22.8934 36.4421C23.6137 36.9633 24.4044 37.3753 25.2409 37.6652ZM22.6013 31.8253C22.147 32.1228 21.1842 31.076 21.0111 29.1808C21.7251 30.6463 22.4174 31.7702 22.6013 31.8253ZM23.51 35.6047C23.4343 36.0124 22.3525 36.0014 21.2599 35.0868C21.9815 35.3692 22.7394 35.5436 23.51 35.6047ZM22.4823 32.861C22.2335 33.2136 21.2708 32.7178 20.6758 31.3515C21.5628 32.233 22.3525 32.861 22.4932 32.861H22.4823ZM22.7852 27.6162C22.3093 27.7925 21.6926 26.6245 21.9955 24.8615C22.2876 26.349 22.6446 27.528 22.7852 27.6162ZM23.272 25.9744C22.8069 26.0074 22.5256 24.7844 23.2179 23.2968C23.1314 24.7072 23.1639 25.8642 23.272 25.9744ZM23.8129 25.137C23.4451 25.0709 23.4127 24.0682 24.2024 22.9993C23.9684 23.6881 23.8372 24.4086 23.8129 25.137ZM24.462 24.4648C24.1266 24.2775 24.3863 23.3189 25.4356 22.5586C25.0204 23.1416 24.6924 23.7839 24.462 24.4648Z" fill="#67923D" stroke="#24420E" stroke-width="0.0218355"/>
<path d="M22.7317 29.2234C22.3098 29.4548 21.6932 28.8378 21.6499 27.207C22.1908 28.4962 22.5803 29.1684 22.7317 29.2234ZM26.2475 38.6775C26.1501 39.1843 24.8304 39.1623 23.4673 38.0274C24.8953 38.5012 26.096 38.7656 26.2475 38.6775ZM25.3604 37.6307C24.9521 36.9976 24.7066 36.2701 24.6465 35.5151C25.6201 36.4737 25.7499 37.5095 25.3821 37.6307H25.3604ZM23.5431 34.876C23.1536 34.2369 23.1103 32.5731 23.2185 32.3417C24.1164 33.653 24.0082 34.843 23.5431 34.876ZM23.251 34.887C22.9589 35.2507 21.9637 34.6556 21.4336 33.1461C21.9505 33.8157 22.5631 34.4026 23.251 34.887Z" fill="#67923D" stroke="#24420E" stroke-width="0.0218355"/>
<path d="M22.5234 29.1252C22.6965 29.5219 23.7567 29.2905 24.6329 28.1445C23.3348 28.8938 22.8263 29.2244 22.5234 29.1252ZM23.5295 34.8549C23.9947 34.8218 24.1028 33.6428 23.205 32.3426C23.4444 33.1607 23.554 34.0126 23.5295 34.8659V34.8549ZM25.3685 37.6316C25.7363 37.5214 25.6065 36.4746 24.6437 35.516C25.1197 36.5848 25.4226 37.4994 25.3685 37.6316Z" fill="#406325" stroke="#24420E" stroke-width="0.0218355"/>
<path d="M22.72 31.0864C22.9363 30.1608 22.5361 28.5962 22.2548 28.2656C21.7464 29.9625 22.2332 31.1966 22.72 31.0864Z" fill="#406325" stroke="#24420E" stroke-width="0.0218355"/>
<path d="M22.6983 31.3064C22.0492 31.4496 21.7571 29.9841 22.2547 28.3203C22.3629 29.8078 22.5576 31.1962 22.6875 31.2954L22.6983 31.3064Z" fill="#67923D" stroke="#24420E" stroke-width="0.0218355"/>
<path d="M22.5586 31.2958C22.6536 30.3197 22.9884 29.3837 23.5322 28.5742C23.7485 30.3152 23.0454 31.4721 22.5586 31.2958Z" fill="#67923D" stroke="#24420E" stroke-width="0.0218355"/>
<path d="M22.5703 31.2848C23.0571 31.4611 23.7494 30.3152 23.5331 28.5742C23.1545 30.0397 22.7218 31.1967 22.5703 31.2848Z" fill="#406325" stroke="#24420E" stroke-width="0.0218355"/>
<path d="M22.7109 32.3536C22.8608 31.3955 23.2563 30.4946 23.8576 29.7422C23.9442 31.5272 23.1761 32.596 22.7109 32.3536Z" fill="#67923D" stroke="#24420E" stroke-width="0.0218355"/>
<path d="M22.7188 32.3628C23.1731 32.6052 23.9412 31.5474 23.8546 29.7734C23.3786 31.1838 22.881 32.2967 22.7188 32.3628Z" fill="#406325" stroke="#24420E" stroke-width="0.0218355"/>
<path d="M23.0018 26.7463C23.0675 26.7463 23.1208 26.6921 23.1208 26.6251C23.1208 26.5582 23.0675 26.5039 23.0018 26.5039C22.9361 26.5039 22.8828 26.5582 22.8828 26.6251C22.8828 26.6921 22.9361 26.7463 23.0018 26.7463Z" fill="#BA1F3E" stroke="#511124" stroke-width="0.0218355"/>
<path d="M23.9081 26.0627C23.9738 26.0627 24.0271 26.0085 24.0271 25.9415C24.0271 25.8746 23.9738 25.8203 23.9081 25.8203C23.8423 25.8203 23.7891 25.8746 23.7891 25.9415C23.7891 26.0085 23.8423 26.0627 23.9081 26.0627Z" fill="#BA1F3E" stroke="#511124" stroke-width="0.0218355"/>
<path d="M23.5213 25.6877C23.5871 25.6877 23.6403 25.6335 23.6403 25.5665C23.6403 25.4996 23.5871 25.4453 23.5213 25.4453C23.4556 25.4453 23.4023 25.4996 23.4023 25.5665C23.4023 25.6335 23.4556 25.6877 23.5213 25.6877Z" fill="#BA1F3E" stroke="#511124" stroke-width="0.0218355"/>
<path d="M22.5352 33.5755C22.6128 33.5755 22.6758 33.5114 22.6758 33.4323C22.6758 33.3532 22.6128 33.2891 22.5352 33.2891C22.4575 33.2891 22.3945 33.3532 22.3945 33.4323C22.3945 33.5114 22.4575 33.5755 22.5352 33.5755Z" fill="#BA1F3E" stroke="#511124" stroke-width="0.0218355"/>
<path d="M22.8047 31.8138C22.8824 31.8138 22.9453 31.7497 22.9453 31.6706C22.9453 31.5915 22.8824 31.5273 22.8047 31.5273C22.727 31.5273 22.6641 31.5915 22.6641 31.6706C22.6641 31.7497 22.727 31.8138 22.8047 31.8138Z" fill="#BA1F3E" stroke="#511124" stroke-width="0.0218355"/>
<path d="M24.2344 35.9349C24.3121 35.9349 24.375 35.8708 24.375 35.7917C24.375 35.7126 24.3121 35.6484 24.2344 35.6484C24.1567 35.6484 24.0938 35.7126 24.0938 35.7917C24.0938 35.8708 24.1567 35.9349 24.2344 35.9349Z" fill="#BA1F3E" stroke="#511124" stroke-width="0.0218355"/>
<path d="M23.6055 36.1459C23.6831 36.1459 23.7461 36.0817 23.7461 36.0026C23.7461 35.9235 23.6831 35.8594 23.6055 35.8594C23.5278 35.8594 23.4648 35.9235 23.4648 36.0026C23.4648 36.0817 23.5278 36.1459 23.6055 36.1459Z" fill="#BA1F3E" stroke="#511124" stroke-width="0.0218355"/>
<path d="M28.3984 39.5834C28.4761 39.5834 28.5391 39.5192 28.5391 39.4401C28.5391 39.361 28.4761 39.2969 28.3984 39.2969C28.3208 39.2969 28.2578 39.361 28.2578 39.4401C28.2578 39.5192 28.3208 39.5834 28.3984 39.5834Z" fill="#BA1F3E" stroke="#511124" stroke-width="0.0218355"/>
<path d="M28.7109 40.3646C28.7886 40.3646 28.8516 40.3005 28.8516 40.2214C28.8516 40.1423 28.7886 40.0781 28.7109 40.0781C28.6333 40.0781 28.5703 40.1423 28.5703 40.2214C28.5703 40.3005 28.6333 40.3646 28.7109 40.3646Z" fill="#BA1F3E" stroke="#511124" stroke-width="0.0218355"/>
<path d="M40.7725 27.471C40.8482 27.5371 40.9023 27.5591 41.0213 27.6803M40.3074 25.5978C40.3074 25.4435 40.2424 25.1901 40.21 25.0469M40.5886 25.3774C40.5886 25.5868 40.5562 25.7851 40.4696 25.9724M40.0153 25.9173C40.21 26.0936 40.3939 26.2479 40.5886 26.3471M40.9997 26.4793C41.0105 26.6997 40.9889 26.92 40.924 27.1404M40.9672 27.3057L41.1079 27.0523M40.9023 28.3965C41.0538 28.4296 41.2052 28.6169 41.2809 28.7822M41.335 28.639L41.5081 28.3965M41.692 31.7903C41.6163 31.9226 41.5294 32.0479 41.4324 32.1649M40.9997 32.1649C41.0862 32.3192 41.1728 32.4955 41.2809 32.6057M41.5514 33.2558C41.4246 33.4389 41.258 33.5898 41.0646 33.6965M41.0862 34.1924C40.9672 34.2805 40.8158 34.5229 40.686 34.7102M41.5947 32.4845L41.3675 32.5836M41.216 31.7683L41.3459 31.8784M40.3398 35.9994H40.1234M39.8963 35.8011L39.9612 35.9774M39.139 36.5393C39.1066 36.7487 39.1282 36.947 39.1499 37.1564M39.615 36.1647L39.7232 36.4071M40.1451 36.3961L39.8746 36.4292M36.5428 39.2169L36.4346 39.4152M37.7219 38.9745C37.5597 38.9965 37.419 38.9745 37.2784 38.9524M36.6834 39.6136C36.5752 39.5585 36.4671 39.5364 36.3589 39.5034M34.7687 39.8009C34.6713 39.878 34.5523 40.0653 34.4441 40.2416M34.3792 39.7458C34.1196 39.889 34.0331 40.1535 33.9033 40.3849M34.2062 40.6934C34.0331 40.6493 33.8383 40.5612 33.6328 40.473M35.4394 40.3959C35.1906 40.2637 34.9309 40.2857 34.6713 40.2416M35.8396 40.1975C35.4394 40.1204 35.0824 40.1314 34.7254 40.1865M35.5692 39.9L35.4177 39.8339M34.8119 40.44L34.5631 40.2967M40.8266 34.8755C40.6968 34.9637 40.5562 35.129 40.4264 35.3053M40.6211 26.5344L40.3831 26.4462" stroke="#24420E" stroke-width="0.043671"/>
<path d="M31.3945 41.3442C31.4811 41.2009 31.6217 41.1238 31.7515 41.0467C32.5845 40.6059 33.4174 40.4076 34.3478 40.2533C34.5749 40.2092 34.7913 39.9999 35.0185 39.9007C35.5594 39.6363 36.1543 39.5371 36.6736 39.2726C36.706 39.2506 36.8359 39.1735 36.8899 39.0963C37.1063 38.8539 37.4849 38.7768 37.7121 38.5454C38.6208 37.686 39.5727 36.8926 40.0704 35.7357C40.6761 34.3363 41.4226 32.8928 41.3252 31.3061C41.2603 30.2924 41.4009 29.2787 41.1629 28.3311C40.8629 26.8985 40.2975 25.5373 39.497 24.3203L39.6376 24.4085C40.44 25.6244 41.0056 26.986 41.3036 28.4193C41.5524 29.3669 41.4118 30.3916 41.4658 31.3943C41.574 32.981 40.8168 34.4244 40.2218 35.8348C39.7242 36.9808 38.7614 37.7741 37.8635 38.6446C37.6255 38.865 37.2577 38.9421 37.0414 39.1955C36.9763 39.2596 36.9037 39.3151 36.825 39.3608C36.295 39.6252 35.7 39.7354 35.1591 39.9889C34.9427 40.099 34.7264 40.2974 34.51 40.3415C33.6003 40.4564 32.7156 40.7245 31.8921 41.1348C31.7489 41.1992 31.6255 41.3021 31.5352 41.4323L31.3945 41.3442Z" fill="#406325" stroke="#24420E" stroke-width="0.0218355"/>
<path d="M39.9632 35.8032C40.2661 34.9878 39.9632 33.0705 39.8117 32.8281C39.0869 34.525 39.4439 35.8693 39.9632 35.8032Z" fill="#406325" stroke="#24420E" stroke-width="0.0218355"/>
<path d="M39.195 36.5743C39.4439 35.9573 39.2708 34.4477 39.1518 34.2604C38.5568 35.5496 38.7948 36.6074 39.195 36.5743ZM41.0232 28.4095C40.4775 27.6965 39.7575 27.1418 38.9354 26.8008C39.6061 28.2663 40.7204 28.8062 41.0232 28.4095Z" fill="#406325" stroke="#24420E" stroke-width="0.0218355"/>
<path d="M40.8498 27.5276C40.4922 26.7863 39.9517 26.1522 39.2812 25.6875C39.6166 27.1199 40.5145 27.8141 40.8498 27.5276ZM41.3583 29.1694C40.9796 28.7287 39.714 28.2989 39.5192 28.321C40.2765 29.3126 41.2068 29.522 41.3583 29.1694ZM41.0554 34.2821C41.8293 34.2765 42.5877 34.0596 43.2514 33.654C41.8559 33.3455 40.9255 33.8633 41.0554 34.2821ZM41.0337 33.654C41.0337 33.037 40.3522 31.8029 40.1683 31.6706C40.1142 32.9929 40.6984 33.8193 41.0337 33.654Z" fill="#406325" stroke="#24420E" stroke-width="0.0218355"/>
<path d="M41.0889 32.1434C40.9372 31.1891 40.5418 30.2923 39.9422 29.543C39.8556 31.328 40.6237 32.3858 41.0889 32.1434ZM35.3555 40.4404C36.0372 41.0529 36.8657 41.471 37.757 41.6525C36.805 40.2972 35.5826 39.9887 35.3663 40.4404H35.3555Z" fill="#406325" stroke="#24420E" stroke-width="0.0218355"/>
<path d="M39.9622 35.7815C39.4321 35.8476 39.086 34.5254 39.8107 32.8285C39.7567 34.3932 39.8324 35.6603 39.9622 35.7815ZM34.1855 40.5857C35.067 40.7993 35.8816 41.235 36.5546 41.8528C34.9211 41.8638 33.9584 41.0484 34.1747 40.5967L34.1855 40.5857ZM34.1855 39.7152C34.4019 38.8337 35.8082 37.3792 36.0786 37.2801C35.6892 39.1643 34.5966 40.0898 34.1855 39.7152ZM36.4897 39.2634C36.5171 38.2538 36.7963 37.2679 37.301 36.3986C37.6256 38.2056 36.9765 39.4287 36.4897 39.2634ZM38.8155 37.6547C39.4796 37.049 40.2835 36.6244 41.1521 36.4206C40.1894 37.7539 39.0102 38.0844 38.8047 37.6547H38.8155ZM41.5957 31.7817C41.7039 31.0876 42.645 29.8094 42.8505 29.6992C42.7207 31.1978 41.9527 32.0131 41.5957 31.7928V31.7817Z" fill="#67923D" stroke="#24420E" stroke-width="0.0218355"/>
<path d="M40.3281 35.977C41.1442 35.5527 42.0518 35.3443 42.9677 35.3709C41.6912 36.4398 40.4255 36.4508 40.3281 35.977ZM41.4424 33.2774C41.9325 32.5862 42.593 32.0389 43.3571 31.6907C42.7297 33.1231 41.702 33.652 41.4424 33.2774ZM41.2801 28.2529C41.2801 27.4155 42.1455 25.7516 42.3619 25.5864C42.4809 27.3604 41.7452 28.4733 41.2801 28.2529ZM40.5337 25.399C40.3488 24.677 40.3451 23.9192 40.5228 23.1953C41.1178 24.3963 40.9231 25.399 40.5228 25.399H40.5337Z" fill="#67923D" stroke="#24420E" stroke-width="0.0218355"/>
<path d="M40.0716 25.1578C39.5036 24.454 39.1169 23.617 38.9466 22.7227C40.2231 23.7474 40.5043 24.9705 40.0716 25.1578ZM41.3373 28.9592C41.3048 29.0584 41.6618 28.1108 42.8734 27.2734C42.4407 28.849 41.6834 29.2898 41.3373 28.9592ZM37.6484 38.865C38.6247 38.3553 39.7104 38.1016 40.8072 38.1268C39.2711 39.427 37.7566 39.449 37.6484 38.865ZM39.1954 36.5731C38.7951 36.5952 38.5463 35.5484 39.1413 34.2592C39.0656 35.4713 39.098 36.4629 39.1954 36.5731ZM41.0236 28.4083C40.7315 28.805 39.6173 28.2761 38.9466 26.7996C39.5537 27.4412 40.2543 27.9838 41.0236 28.4083ZM40.8397 27.5268C40.5043 27.8133 39.6173 27.1301 39.2819 25.6867C40.0067 26.7224 40.6882 27.5048 40.8397 27.5268ZM41.3589 29.1796C41.2075 29.5212 40.288 29.3228 39.5307 28.3312C40.6558 28.9813 41.0993 29.2567 41.3697 29.1796H41.3589ZM41.0777 34.2702C40.937 33.8515 41.8673 33.3557 43.2628 33.6642C42.5084 33.7518 41.7716 33.9562 41.0777 34.2702ZM41.0344 33.6532C40.6882 33.8185 40.1149 33.0031 40.169 31.6808C40.3624 32.3809 40.6539 33.0488 41.0344 33.6642V33.6532Z" fill="#67923D" stroke="#24420E" stroke-width="0.0218355"/>
<path d="M41.0759 32.1675C40.6108 32.4099 39.8535 31.3521 39.9401 29.5781C40.4161 30.9885 40.9137 32.1014 41.0759 32.1675ZM35.375 40.4425C35.5914 39.9797 36.7921 40.2883 37.7549 41.6325C36.565 40.8943 35.5373 40.3874 35.375 40.4425Z" fill="#67923D" stroke="#24420E" stroke-width="0.0218355"/>
<path d="M36.4922 39.2406C36.9898 39.4169 37.628 38.2048 37.3143 36.3867C37.0114 37.9293 36.6436 39.1524 36.4922 39.2516V39.2406Z" fill="#406325" stroke="#24420E" stroke-width="0.0218355"/>
<path d="M37.6045 38.6667C38.014 37.7336 38.1852 36.7102 38.1021 35.6916C37.0203 37.1902 37.0852 38.5895 37.6045 38.6667ZM34.1753 40.5949C33.9589 41.0467 34.9 41.8621 36.5335 41.84C35.2354 41.3111 34.2402 40.7602 34.1753 40.5949ZM34.1969 39.7024C34.608 40.0771 35.6897 39.1625 36.0792 37.2783C35.2029 38.6446 34.3808 39.6804 34.1969 39.7024ZM38.8161 37.653C39.0108 38.0937 40.1899 37.7631 41.1635 36.4299C40.4432 36.9511 39.6525 37.3631 38.8161 37.653ZM41.607 31.78C41.964 32.0114 42.7213 31.196 42.8511 29.7085C42.5391 30.4578 42.1199 31.1559 41.607 31.78ZM40.3305 35.9781C40.4387 36.4629 41.6828 36.4409 42.9701 35.3721C41.6179 35.8128 40.482 36.0552 40.3414 35.9781H40.3305ZM41.4556 33.2675C41.726 33.6422 42.7429 33.1133 43.3703 31.6808C42.8153 32.3061 42.1695 32.8412 41.4556 33.2675ZM41.3041 28.243C41.7585 28.4634 42.4941 27.3615 42.3643 25.5985C41.9316 27.031 41.4556 28.1659 41.2933 28.243H41.3041ZM40.5469 25.3892C40.9255 25.4002 41.1311 24.3975 40.5253 23.1854C40.6334 24.3424 40.6334 25.29 40.5469 25.3892ZM40.0817 25.1468C40.5144 24.9594 40.2332 23.7474 38.9567 22.7227C39.4484 23.469 39.8276 24.2861 40.0817 25.1468ZM41.3366 28.9702C41.6828 29.3008 42.44 28.8601 42.8727 27.2734C42.0289 28.3863 41.4989 28.9482 41.3366 28.9702ZM37.6586 38.876C37.7667 39.449 39.2704 39.427 40.7957 38.1378C39.1839 38.6667 37.8316 38.9752 37.6586 38.876Z" fill="#406325" stroke="#24420E" stroke-width="0.0218355"/>
<path d="M38.3946 38.0287C38.7057 37.3357 38.8397 36.5738 38.7841 35.8139C37.9727 36.9158 38.0052 37.9626 38.3946 38.0177V38.0287ZM40.5149 34.8663C40.9044 34.2383 40.9476 32.5634 40.8394 32.332C39.9416 33.6433 40.0497 34.8333 40.5149 34.8663Z" fill="#406325" stroke="#24420E" stroke-width="0.0218355"/>
<path d="M37.6047 38.6554C37.0854 38.5893 37.0313 37.1899 38.0915 35.7024C37.702 37.223 37.5073 38.5012 37.6047 38.6554ZM41.4125 31.1297C41.3043 30.2702 41.8452 28.9149 42.1265 28.6505C42.4078 30.2372 41.8344 31.2949 41.4125 31.1297ZM38.3944 38.0163C38.0049 37.9612 37.9725 36.9145 38.7838 35.8126C38.5454 36.5229 38.4141 37.2659 38.3944 38.0163ZM40.9257 26.5349C40.6877 25.8738 40.9257 24.3311 41.0555 24.1328C41.6289 25.4771 41.3368 26.5679 40.9257 26.5349ZM34.6406 39.7683C34.9111 38.8868 36.3931 37.4544 36.6744 37.3442C36.2092 39.2725 35.0517 40.165 34.6406 39.7683ZM40.5471 35.1845C40.9971 34.4518 41.6274 33.8517 42.3753 33.4436C41.8344 34.9421 40.8392 35.5482 40.5363 35.1845H40.5471ZM40.5255 34.854C40.0603 34.8099 39.9521 33.6419 40.85 32.3307C40.6105 33.1488 40.501 34.0006 40.5255 34.854Z" fill="#67923D" stroke="#24420E" stroke-width="0.0218355"/>
<path d="M41.4102 31.3288C41.9727 31.5381 42.3837 30.2489 42.1241 28.6953C41.9975 29.6041 41.7575 30.4928 41.4102 31.3398V31.3288Z" fill="#406325" stroke="#24420E" stroke-width="0.0218355"/>
<path d="M41.5 31.2839C41.5541 30.4575 40.7427 28.7496 40.5264 28.5623C40.31 30.3033 41.0132 31.4602 41.5 31.2839ZM40.9266 26.5239C41.3485 26.5679 41.6298 25.4881 41.0564 24.1328C41.0997 25.4 41.0348 26.4247 40.9266 26.5239ZM34.6523 39.7573C35.0634 40.165 36.2101 39.2725 36.6753 37.3552C35.7233 38.7105 34.8362 39.7352 34.6523 39.7573ZM40.5588 35.1845C40.8617 35.5482 41.857 34.9531 42.3978 33.4436C41.8743 34.1149 41.2544 34.7018 40.5588 35.1845Z" fill="#406325" stroke="#24420E" stroke-width="0.0218355"/>
<path d="M41.4879 31.2738C41.0011 31.4611 40.3088 30.3152 40.5251 28.5742C40.9038 30.0287 41.3365 31.1856 41.4879 31.2738Z" fill="#67923D" stroke="#24420E" stroke-width="0.0218355"/>
<path d="M41.1502 27.1408C41.216 27.1408 41.2692 27.0866 41.2692 27.0196C41.2692 26.9527 41.216 26.8984 41.1502 26.8984C41.0845 26.8984 41.0312 26.9527 41.0312 27.0196C41.0312 27.0866 41.0845 27.1408 41.1502 27.1408Z" fill="#BA1F3E" stroke="#511124" stroke-width="0.0218355"/>
<path d="M41.5604 28.4533C41.6261 28.4533 41.6794 28.3991 41.6794 28.3321C41.6794 28.2652 41.6261 28.2109 41.5604 28.2109C41.4947 28.2109 41.4414 28.2652 41.4414 28.3321C41.4414 28.3991 41.4947 28.4533 41.5604 28.4533Z" fill="#BA1F3E" stroke="#511124" stroke-width="0.0218355"/>
<path d="M41.7148 32.6068C41.7925 32.6068 41.8555 32.5427 41.8555 32.4636C41.8555 32.3844 41.7925 32.3203 41.7148 32.3203C41.6372 32.3203 41.5742 32.3844 41.5742 32.4636C41.5742 32.5427 41.6372 32.6068 41.7148 32.6068Z" fill="#BA1F3E" stroke="#511124" stroke-width="0.0218355"/>
<path d="M41.1523 31.8334C41.23 31.8334 41.293 31.7692 41.293 31.6901C41.293 31.611 41.23 31.5469 41.1523 31.5469C41.0747 31.5469 41.0117 31.611 41.0117 31.6901C41.0117 31.7692 41.0747 31.8334 41.1523 31.8334Z" fill="#BA1F3E" stroke="#511124" stroke-width="0.0218355"/>
<path d="M39.5625 36.2318C39.6402 36.2318 39.7031 36.1677 39.7031 36.0886C39.7031 36.0094 39.6402 35.9453 39.5625 35.9453C39.4848 35.9453 39.4219 36.0094 39.4219 36.0886C39.4219 36.1677 39.4848 36.2318 39.5625 36.2318Z" fill="#BA1F3E" stroke="#511124" stroke-width="0.0218355"/>
<path d="M40.2422 36.5287C40.3199 36.5287 40.3828 36.4645 40.3828 36.3854C40.3828 36.3063 40.3199 36.2422 40.2422 36.2422C40.1645 36.2422 40.1016 36.3063 40.1016 36.3854C40.1016 36.4645 40.1645 36.5287 40.2422 36.5287Z" fill="#BA1F3E" stroke="#511124" stroke-width="0.0218355"/>
<path d="M35.6563 40.099C35.7339 40.099 35.7969 40.0349 35.7969 39.9557C35.7969 39.8766 35.7339 39.8125 35.6563 39.8125C35.5786 39.8125 35.5156 39.8766 35.5156 39.9557C35.5156 40.0349 35.5786 40.099 35.6563 40.099Z" fill="#BA1F3E" stroke="#511124" stroke-width="0.0218355"/>
<path d="M34.8984 40.6498C34.9761 40.6498 35.0391 40.5856 35.0391 40.5065C35.0391 40.4274 34.9761 40.3633 34.8984 40.3633C34.8208 40.3633 34.7578 40.4274 34.7578 40.5065C34.7578 40.5856 34.8208 40.6498 34.8984 40.6498Z" fill="#BA1F3E" stroke="#511124" stroke-width="0.0218355"/>
<path d="M40.3416 26.5237C40.4074 26.5237 40.4606 26.4694 40.4606 26.4025C40.4606 26.3355 40.4074 26.2812 40.3416 26.2812C40.2759 26.2812 40.2227 26.3355 40.2227 26.4025C40.2227 26.4694 40.2759 26.5237 40.3416 26.5237Z" fill="#BA1F3E" stroke="#511124" stroke-width="0.0218355"/>
<path d="M27.0614 35.9905C27.0397 36.1007 27.1479 36.2439 27.2777 36.2109C27.3318 36.2109 27.3534 36.1558 27.2994 36.1558C27.2561 36.1778 27.202 36.1558 27.1695 36.1227C27.1436 36.0933 27.1259 36.0573 27.1183 36.0186C27.1106 35.9798 27.1134 35.9397 27.1263 35.9023L27.0614 35.9905Z" fill="#8C959D" stroke="#485654" stroke-width="0.0109177"/>
<path d="M27.3738 36.2118C27.2656 36.344 27.1034 36.3991 27.006 36.311C26.9411 36.2448 26.9195 36.1787 26.9519 36.0906L26.8438 36.2338C26.8438 36.2338 26.9087 36.3771 27.0168 36.4322C27.1575 36.4873 27.3414 36.3991 27.4495 36.2559C27.5361 36.1457 27.6226 35.9914 27.5577 35.8592C27.5083 35.7737 27.4321 35.7077 27.3414 35.6719L27.2332 35.7821C27.2873 35.76 27.363 35.7821 27.4171 35.8261C27.5577 35.9363 27.482 36.1016 27.3738 36.2118Z" fill="#8C959D"/>
<path d="M27.3729 36.2111C27.3404 36.2551 27.3 36.2924 27.2539 36.3213C27.1998 36.3433 27.1457 36.3654 27.0917 36.3543C27.0631 36.3539 27.0359 36.342 27.0159 36.3213C27.003 36.3145 26.9916 36.3052 26.9823 36.2938C26.973 36.2825 26.966 36.2693 26.9618 36.2552C26.9402 36.2331 26.9402 36.2111 26.9294 36.178C26.9294 36.145 26.9294 36.1229 26.951 36.0899L26.9618 36.1009L26.8428 36.2441V36.2331L26.951 36.3764L27.0267 36.4204L27.1133 36.4315C27.175 36.4302 27.235 36.4111 27.2864 36.3764C27.3405 36.3543 27.3946 36.3103 27.427 36.2662L27.5352 36.1119C27.5568 36.0568 27.5785 36.0017 27.5676 35.9356C27.5676 35.9026 27.5676 35.8805 27.546 35.8475C27.4965 35.7689 27.4249 35.7075 27.3405 35.6712H27.3513L27.2431 35.7924H27.2323C27.2539 35.7703 27.2864 35.7703 27.308 35.7703L27.3946 35.7924C27.4378 35.8254 27.4811 35.8695 27.4919 35.9246C27.5027 35.9797 27.4919 36.0348 27.4703 36.0789C27.4486 36.134 27.4162 36.178 27.3729 36.2111ZM27.3729 36.2111C27.4162 36.178 27.4378 36.134 27.4595 36.0789C27.4811 36.0348 27.4919 35.9687 27.4811 35.9246C27.4703 35.8695 27.427 35.8365 27.3837 35.8144C27.3405 35.7814 27.2756 35.7703 27.2431 35.7924H27.2323L27.3405 35.6602C27.4304 35.6974 27.5062 35.7631 27.5568 35.8475C27.5785 35.8695 27.5893 35.9026 27.5893 35.9356C27.5893 36.0017 27.5785 36.0678 27.546 36.1229C27.5244 36.178 27.4919 36.2331 27.4378 36.2772C27.4054 36.3323 27.3513 36.3654 27.2972 36.3984C27.2431 36.4315 27.189 36.4535 27.1133 36.4535C27.0816 36.4548 27.0499 36.4496 27.0202 36.4383C26.9905 36.4269 26.9633 36.4096 26.9402 36.3874C26.8957 36.3427 26.8591 36.2905 26.832 36.2331L26.9402 36.0899H26.9618L26.951 36.178C26.951 36.2001 26.951 36.2331 26.9727 36.2552L27.0267 36.3103C27.0376 36.3323 27.07 36.3433 27.0917 36.3433C27.1457 36.3543 27.1998 36.3433 27.2539 36.3213L27.3729 36.2111Z" fill="#485654"/>
<path d="M35.8111 26.4062L31.4732 30.7586L27.0271 35.0779L26.5295 35.6729C26.3132 35.9264 26.0535 36.2569 25.7506 36.5544C25.6965 36.6316 25.6316 36.5985 25.5667 36.6426C25.372 36.7528 25.1665 36.9511 25.0258 37.1164L23.6953 38.6039C23.6195 38.7031 23.5871 38.7582 23.652 38.8243L24.366 39.7939C24.4958 39.9262 24.6472 39.9923 24.7121 39.8821C25.0475 39.2761 25.9021 38.3615 26.2266 37.6453C26.4105 37.2045 26.6485 36.4222 26.8216 36.2349C27.0379 35.9925 27.5896 35.3754 28.0981 34.8355L28.2063 34.7253C28.2279 34.6813 28.2603 34.6482 28.3036 34.6152C30.8458 31.9707 33.7882 28.7642 35.9301 26.5054L35.8111 26.4062Z" fill="#6C301E" stroke="#351710" stroke-width="0.0218355" stroke-linejoin="round"/>
<path d="M26.7981 35.0879C26.6683 35.0879 26.5817 35.0107 26.4844 34.9336C26.6142 34.9777 26.744 35.0217 26.863 34.9666L26.7981 35.0879Z" fill="#8C959D" stroke="#485654" stroke-width="0.0109177"/>
<path d="M40.3335 23.1875L36.8934 26.0744C36.861 26.1185 36.8285 26.1074 36.7961 26.0744L36.4824 25.8099V25.7438L36.6338 25.5896C36.6555 25.5675 36.6338 25.5565 36.623 25.5235L36.5581 25.4573C36.5256 25.4463 36.504 25.4573 36.4824 25.4794L36.3309 25.6447C36.2552 25.6447 36.1903 25.7108 36.1795 25.7989C34.1025 27.8594 32.3067 29.6995 30.2405 31.727L27.7957 34.107C27.7092 34.2172 27.3306 34.4265 27.0818 34.5918C26.9952 34.6469 26.9195 34.702 26.887 34.7571L26.6923 35.3631C26.6274 35.4954 26.4219 35.8039 26.4219 35.8259L26.833 36.2336L28.0337 34.9224L28.1311 34.8122C28.0516 34.7 27.9569 34.5998 27.8498 34.5147L27.7741 34.4596C27.7633 34.4376 27.8065 34.4045 27.8282 34.3825C30.6841 31.5617 33.7779 28.4654 36.2876 25.9422C36.3225 25.9557 36.361 25.9557 36.3958 25.9422L36.7095 26.2837C36.7744 26.3609 36.8394 26.3609 36.8934 26.3278L40.3443 23.1875H40.3335Z" fill="#B2B6BA" stroke="#485654" stroke-width="0.0218355"/>
<path d="M26.7031 35.3418H26.768L26.8221 35.3308L26.8978 35.0663L26.9844 34.8019L26.9087 35.0663L26.8329 35.3308L26.768 35.3528L26.7031 35.3418Z" fill="#485654"/>
<path d="M27.4829 35.1557C27.5187 35.1557 27.5478 35.1261 27.5478 35.0896C27.5478 35.053 27.5187 35.0234 27.4829 35.0234C27.447 35.0234 27.418 35.053 27.418 35.0896C27.418 35.1261 27.447 35.1557 27.4829 35.1557Z" stroke="#485654" stroke-width="0.0218355"/>
<path d="M27.0688 35.5736C27.1047 35.5736 27.1337 35.544 27.1337 35.5075C27.1337 35.471 27.1047 35.4414 27.0688 35.4414C27.033 35.4414 27.0039 35.471 27.0039 35.5075C27.0039 35.544 27.033 35.5736 27.0688 35.5736Z" stroke="#485654" stroke-width="0.0218355"/>
<path d="M27.7846 34.4615C27.7139 34.4097 27.6486 34.3506 27.5898 34.2852C27.6606 34.3369 27.7258 34.396 27.7846 34.4615Z" fill="#485654"/>
<path d="M34.4062 27.4731L34.7849 27.8587L34.8498 27.7926L34.4712 27.418L34.4062 27.4841V27.4731Z" fill="#8C959D" stroke="#485654" stroke-width="0.0109177"/>
<path d="M35.161 36.1387C35.1773 36.2498 35.0624 36.3875 34.9343 36.348C34.8803 36.3453 34.8613 36.2892 34.9153 36.2919C34.9575 36.3161 35.0126 36.2968 35.0466 36.2654C35.0739 36.2373 35.0933 36.2022 35.1028 36.1639C35.1123 36.1256 35.1114 36.0853 35.1004 36.0474L35.161 36.1387Z" fill="#8C959D" stroke="#485654" stroke-width="0.0109177"/>
<path d="M34.8392 36.3449C34.9409 36.4824 35.1003 36.5455 35.2018 36.4623C35.2698 36.3995 35.2946 36.3345 35.2664 36.2449L35.3676 36.3933C35.3676 36.3933 35.2959 36.5332 35.1852 36.5828C35.0421 36.6308 34.8626 36.5336 34.7615 36.3852C34.6803 36.2708 34.6013 36.1124 34.6724 35.9836C34.7258 35.9007 34.8051 35.8386 34.8975 35.8073L35.0003 35.9227C34.9473 35.898 34.8706 35.9162 34.8145 35.9576C34.6687 36.0606 34.7364 36.2295 34.8392 36.3449Z" fill="#8C959D"/>
<path d="M34.8396 36.3437C34.87 36.3892 34.9085 36.4286 34.9532 36.4597C35.0061 36.4844 35.0591 36.5091 35.1136 36.5007C35.1422 36.5017 35.1699 36.4912 35.1909 36.4715C35.2041 36.4654 35.216 36.4566 35.2258 36.4457C35.2356 36.4349 35.2432 36.4221 35.2481 36.4082C35.2707 36.3872 35.2718 36.3652 35.2842 36.3327C35.2858 36.2997 35.2868 36.2777 35.2668 36.2436L35.2555 36.2541L35.3674 36.4031L35.368 36.3921L35.2531 36.5297L35.1753 36.57L35.0883 36.5767C35.0268 36.5724 34.9678 36.5503 34.9181 36.5131C34.8651 36.4884 34.8132 36.4416 34.7829 36.396L34.6823 36.2366C34.6633 36.1804 34.6443 36.1243 34.6583 36.0588C34.6599 36.0258 34.661 36.0038 34.6842 35.9719C34.7374 35.8959 34.8119 35.8381 34.8979 35.806L34.8871 35.8055L34.9893 35.9319L35.0001 35.9325C34.9796 35.9094 34.9472 35.9078 34.9256 35.9067L34.8381 35.9244C34.7933 35.9553 34.7479 35.9971 34.7345 36.0516C34.721 36.1061 34.7292 36.1617 34.7487 36.2068C34.7677 36.2629 34.798 36.3085 34.8396 36.3437ZM34.8396 36.3437C34.798 36.3085 34.7785 36.2634 34.7595 36.2073C34.74 36.1622 34.7324 36.0956 34.7453 36.0522C34.7587 35.9977 34.8035 35.9668 34.8478 35.9469C34.8926 35.9161 34.958 35.9083 34.9893 35.9319L35.0001 35.9325L34.8984 35.795C34.8068 35.8278 34.728 35.8896 34.6733 35.9713C34.6507 35.9923 34.6383 36.0248 34.6367 36.0578C34.6335 36.1238 34.6412 36.1904 34.6709 36.247C34.6899 36.3031 34.7197 36.3598 34.7716 36.4065C34.8014 36.4631 34.8538 36.4988 34.9062 36.5345C34.9587 36.5702 35.0116 36.5949 35.0873 36.5987C35.1189 36.6016 35.1508 36.598 35.181 36.5881C35.2112 36.5783 35.2392 36.5623 35.2633 36.5413C35.31 36.4989 35.349 36.4486 35.3788 36.3926L35.2776 36.2441L35.256 36.2431L35.2626 36.3317C35.2615 36.3537 35.2599 36.3867 35.2373 36.4076L35.1806 36.46C35.1687 36.4814 35.1358 36.4908 35.1142 36.4897C35.0596 36.4981 35.0061 36.4844 34.9532 36.4597L34.8396 36.3437Z" fill="#485654"/>
<path d="M26.8792 26.1315L31.0032 30.6946L35.2368 35.23L35.7053 35.849C35.9093 36.1129 36.1527 36.456 36.441 36.7682C36.4913 36.8479 36.5577 36.8181 36.6205 36.8654C36.8097 36.9851 37.0054 37.1935 37.138 37.3655L38.3956 38.9175C38.4665 39.0203 38.4963 39.077 38.4283 39.1398L37.6687 40.0727C37.5327 40.1983 37.3782 40.2568 37.3187 40.1435C37.0128 39.5216 36.2031 38.5656 35.9133 37.8341C35.7507 37.3847 35.5505 36.5915 35.3866 36.3958C35.1822 36.1429 34.6607 35.4991 34.1788 34.9345L34.076 34.8191C34.0565 34.774 34.0257 34.7394 33.9841 34.7042C31.5718 31.9364 28.7866 28.5874 26.7556 26.2247L26.8792 26.1315Z" fill="#6C301E" stroke="#351710" stroke-width="0.0218355" stroke-linejoin="round"/>
<path d="M35.4644 35.2517C35.5941 35.2582 35.6842 35.1855 35.7852 35.1133C35.6534 35.1508 35.5216 35.1884 35.4054 35.1275L35.4644 35.2517Z" fill="#8C959D" stroke="#485654" stroke-width="0.0109177"/>
<path d="M22.5191 22.6906L25.8165 25.7452C25.8468 25.7909 25.8798 25.7815 25.9138 25.7501L26.2398 25.5015L26.243 25.4355L26.0991 25.2739C26.0786 25.2508 26.1007 25.2409 26.1131 25.2084L26.1811 25.1456C26.214 25.1362 26.2351 25.1483 26.2557 25.1714L26.399 25.344C26.4746 25.3478 26.5363 25.417 26.5429 25.5056C28.5186 27.667 30.2239 29.5943 32.1904 31.7221L34.5182 34.2209C34.5993 34.3353 34.9674 34.5632 35.208 34.7407C35.2918 34.8 35.3648 34.8588 35.3946 34.9155L35.56 35.5304C35.6185 35.6657 35.809 35.9841 35.8079 36.0061L35.3778 36.3929L34.2414 35.0235L34.1494 34.9086C34.2342 34.8005 34.3336 34.7051 34.4446 34.6254L34.5229 34.5742C34.5347 34.5527 34.4931 34.5175 34.4725 34.4944C31.7553 31.5349 28.8137 28.2884 26.428 25.6433C26.3925 25.6551 26.354 25.6532 26.3199 25.6379L25.9902 25.9635C25.9217 26.0373 25.8568 26.0341 25.8044 25.9983L22.5083 22.6901L22.5191 22.6906Z" fill="#B2B6BA" stroke="#485654" stroke-width="0.0218355"/>
<path d="M35.5501 35.5091L35.4853 35.5058L35.4318 35.4921L35.3688 35.2242L35.2951 34.9558L35.358 35.2237L35.421 35.4916L35.4848 35.5168L35.5501 35.5091Z" fill="#485654"/>
<path d="M34.7804 35.2851C34.7446 35.2833 34.717 35.2523 34.7187 35.2158C34.7205 35.1794 34.7509 35.1512 34.7867 35.153C34.8225 35.1548 34.8501 35.1858 34.8484 35.2223C34.8466 35.2588 34.8162 35.2869 34.7804 35.2851Z" stroke="#485654" stroke-width="0.0218355"/>
<path d="M35.171 35.7226C35.1352 35.7208 35.1076 35.6898 35.1094 35.6533C35.1111 35.6169 35.1416 35.5887 35.1774 35.5905C35.2132 35.5923 35.2408 35.6233 35.239 35.6598C35.2373 35.6963 35.2068 35.7244 35.171 35.7226Z" stroke="#485654" stroke-width="0.0218355"/>
<path d="M34.5119 34.5766C34.585 34.5283 34.653 34.4726 34.7148 34.4102C34.6417 34.4583 34.5737 34.5141 34.5119 34.5766Z" fill="#485654"/>
<path d="M28.2356 27.266L27.839 27.6323L27.7773 27.5631L28.1735 27.2077L28.2351 27.277L28.2356 27.266Z" fill="#8C959D" stroke="#485654" stroke-width="0.0109177"/>
<path d="M27.0251 39.1965C25.9787 38.9412 24.8844 38.9754 23.8555 39.2956C25.6188 40.1771 27.0467 39.8025 27.0142 39.1854L27.0251 39.1965ZM36.6528 39.5601C37.4966 39.1965 39.552 39.4829 39.8008 39.6703C38.0483 40.5407 36.6096 40.1661 36.642 39.5601H36.6528Z" fill="#67923D" stroke="#24420E" stroke-width="0.0218355"/>
<path d="M27.0034 39.2063C27.0359 39.8124 25.6188 40.187 23.8555 39.3055C25.5106 39.4157 26.8628 39.3496 26.9926 39.1953L27.0034 39.2063ZM36.6528 39.5699C36.6312 40.176 38.0483 40.5506 39.8116 39.6691C38.1565 39.7793 36.8043 39.7132 36.6637 39.5589L36.6528 39.5699Z" fill="#406325" stroke="#24420E" stroke-width="0.0218355"/>
<path d="M35.0878 38.5989C32.9091 35.5233 30.1002 32.9667 26.8555 31.1062C27.2341 31.0842 28.0887 31.536 28.4457 31.7674C31.0311 33.4642 33.2379 35.712 35.5421 38.3565C35.4123 38.4888 35.3258 38.5769 35.1743 38.6871L35.0878 38.5989Z" fill="#B2B6BA" stroke="#485654" stroke-width="0.0218355"/>
<path d="M35.314 38.58L35.141 38.7123C32.6529 35.4507 29.1912 32.3324 26.8438 31.1094C30.0999 32.63 32.8368 35.7042 35.2816 38.558H35.2924L35.314 38.58Z" fill="#8C959D"/>
<path d="M35.314 38.5786L35.141 38.7109C33.9913 37.207 32.7174 35.8062 31.3331 34.5238C30.2981 33.556 29.1993 32.6614 28.0445 31.8462C27.6551 31.5818 27.2548 31.3283 26.8438 31.108V31.0859C27.7092 31.4936 28.5097 31.9895 29.2777 32.5514C30.035 33.1024 30.749 33.7304 31.4413 34.3805C32.1251 35.0355 32.7854 35.7154 33.4209 36.419C34.07 37.1242 34.6758 37.8514 35.3032 38.5676L35.314 38.5786ZM35.314 38.5786C34.6866 37.8514 34.07 37.1462 33.4209 36.441C32.7857 35.7371 32.1254 35.0572 31.4413 34.4026C30.749 33.7525 30.035 33.1354 29.2777 32.5735C28.5205 32.0225 27.7092 31.5157 26.8546 31.119V31.097C27.6704 31.5688 28.4546 32.0951 29.202 32.6726C30.6921 33.8311 32.0753 35.1257 33.3344 36.5402C33.9695 37.2416 34.5758 37.9694 35.1518 38.7219L35.314 38.5786Z" fill="#485654"/>
<path d="M36.0624 38.0508C35.846 38.1169 35.6621 38.194 35.4891 38.3042C35.4674 38.4585 35.2727 38.6348 35.1104 38.6678L35.0455 38.5797H35.0239L34.959 38.6127C34.8941 38.6127 34.8184 38.6348 34.7859 38.7229C34.7426 38.8331 34.8184 38.9764 34.9157 39.0645C35.0239 39.1416 35.0672 39.1747 35.1753 39.1747C35.2943 39.1416 35.3592 39.0314 35.3917 38.9984C35.7919 39.4942 36.0948 39.7697 36.6033 40.1664C36.8305 40.1664 36.9494 40.0231 36.8737 39.8578C36.8521 39.8027 36.7872 39.7697 36.7331 39.7917V39.7366C36.9927 39.4942 37.1117 39.1857 36.8304 38.6568C36.5925 38.2161 36.322 38.0618 36.0732 38.0618H36.0624V38.0508ZM36.7331 38.5576C36.7872 38.6348 36.8088 38.7119 36.8413 38.778C37.0144 39.1086 36.8737 39.5163 36.5925 39.6375H36.5708C36.6141 39.5603 36.4843 39.3951 36.4194 39.4502C36.4518 39.373 36.3437 39.2298 36.2571 39.2628C36.3004 39.1857 36.203 39.0535 36.1057 39.0976C36.1489 39.0204 36.0732 38.8992 35.965 38.9213C35.9975 38.8331 35.9218 38.7229 35.8244 38.745C35.8244 38.6568 35.8028 38.6127 35.7703 38.5797C35.8785 38.4915 36.0191 38.3483 36.1381 38.2822C36.4302 38.1499 36.6141 38.3924 36.7331 38.5576Z" fill="#FAB81C" stroke="#6C301E" stroke-width="0.0218355"/>
<path d="M36.8647 38.9086C36.8106 38.8755 36.7781 38.8204 36.7997 38.7874C36.8214 38.7433 36.8755 38.7323 36.9296 38.7653C36.9836 38.7874 37.0161 38.8424 37.0053 38.8755C36.9836 38.9196 36.9187 38.9306 36.8647 38.9086Z" fill="#FAB81C" stroke="#6C301E" stroke-width="0.0109177"/>
<path d="M36.8295 38.7999C36.7754 38.7669 36.743 38.7118 36.7646 38.6677C36.7862 38.6346 36.8403 38.6236 36.8944 38.6567C36.9485 38.6787 36.9809 38.7338 36.9701 38.7669C36.9485 38.8109 36.8836 38.822 36.8295 38.7999Z" fill="#FAB81C" stroke="#6C301E" stroke-width="0.0109177"/>
<path d="M36.767 38.666C36.7129 38.6439 36.6805 38.5889 36.7021 38.5558C36.7237 38.5117 36.7778 38.5007 36.8319 38.5227C36.886 38.5558 36.9184 38.6109 36.8968 38.6439C36.886 38.688 36.8211 38.699 36.767 38.666Z" fill="#FAB81C" stroke="#6C301E" stroke-width="0.0109177"/>
<path d="M36.6772 38.5571C36.6231 38.524 36.5906 38.4689 36.6122 38.4358C36.6339 38.4028 36.688 38.3918 36.7421 38.4138C36.7961 38.4469 36.8286 38.502 36.8178 38.535C36.7961 38.5681 36.7312 38.5901 36.6772 38.5571Z" fill="#FAB81C" stroke="#6C301E" stroke-width="0.0109177"/>
<path d="M36.5691 38.4469C36.5042 38.4249 36.4826 38.3588 36.5042 38.3368V38.3147C36.5258 38.3257 36.5799 38.3368 36.5691 38.3037C36.5691 38.2817 36.5583 38.2706 36.5691 38.2817L36.634 38.3037C36.6881 38.3368 36.7206 38.3919 36.6989 38.4249C36.6881 38.469 36.6232 38.48 36.5691 38.4469Z" fill="#FAB81C" stroke="#6C301E" stroke-width="0.0109177"/>
<path d="M35.3906 38.9968C35.4663 38.7985 35.607 38.6222 35.7692 38.5781ZM35.4123 39.0299C35.5529 39.0519 35.7692 38.8866 35.8233 38.7434ZM35.5421 39.1842C35.7152 39.2282 35.8991 39.0519 35.9748 38.9197ZM35.7043 39.3605C35.9207 39.3605 36.0397 39.2172 36.1046 39.096ZM35.8666 39.5257C36.0505 39.5257 36.2128 39.3825 36.256 39.2613ZM36.0181 39.68C36.2236 39.68 36.3534 39.5808 36.4183 39.4596ZM36.202 39.8343C36.3859 39.8453 36.5265 39.7351 36.5698 39.6359ZM36.3967 39.9995C36.5698 39.9995 36.6888 39.8893 36.732 39.7792Z" fill="#FAB81C"/>
<path d="M35.3906 38.9968C35.4387 38.8575 35.5251 38.7351 35.6394 38.6442C35.6719 38.6112 35.7152 38.5891 35.7692 38.5781C35.7226 38.5926 35.6787 38.6149 35.6394 38.6442C35.5992 38.6765 35.5629 38.7135 35.5313 38.7544C35.4719 38.827 35.4244 38.9089 35.3906 38.9968ZM35.4123 39.0299C35.4555 39.0299 35.4988 39.0299 35.5421 39.0079L35.6503 38.9417L35.7584 38.8536L35.8233 38.7434C35.8129 38.7859 35.7903 38.8242 35.7584 38.8536C35.6991 38.9215 35.625 38.9743 35.5421 39.0079C35.4988 39.0299 35.4555 39.0409 35.4123 39.0299ZM35.5421 39.1842H35.6719L35.7801 39.118C35.8551 39.0667 35.918 38.999 35.964 38.9197L35.8882 39.0299L35.7909 39.1291L35.6827 39.1842H35.5421ZM35.7043 39.3605C35.7476 39.3605 35.7909 39.3605 35.8233 39.3384L35.9315 39.2833L36.0397 39.1952L36.1046 39.085C36.073 39.1702 36.0164 39.2433 35.9423 39.2943L35.8342 39.3494L35.7043 39.3605ZM35.8666 39.5257C35.9531 39.5257 36.0289 39.4927 36.0938 39.4376C36.1596 39.3912 36.2149 39.3311 36.256 39.2613C36.2452 39.2943 36.2236 39.3384 36.1911 39.3715L36.1046 39.4486L35.9964 39.5147C35.9543 39.5273 35.9102 39.531 35.8666 39.5257ZM36.0181 39.68C36.0613 39.68 36.1046 39.68 36.1371 39.658C36.217 39.6399 36.2913 39.6021 36.3534 39.5478L36.4183 39.4486L36.3534 39.5588C36.321 39.5808 36.2885 39.6139 36.2452 39.6249C36.1803 39.669 36.1046 39.68 36.0289 39.68H36.0181ZM36.202 39.8343C36.2773 39.8332 36.3513 39.8143 36.4183 39.7792L36.5049 39.7241C36.5265 39.691 36.5589 39.669 36.5698 39.6359C36.5698 39.669 36.5373 39.702 36.5157 39.7241C36.4734 39.7664 36.4222 39.7983 36.3659 39.8174C36.3097 39.8365 36.2499 39.8423 36.1911 39.8343H36.202ZM36.3967 39.9995L36.5049 39.9885L36.5914 39.9444L36.6671 39.8783L36.732 39.7902C36.7063 39.8577 36.6596 39.9147 36.599 39.9525C36.5385 39.9903 36.4674 40.0068 36.3967 39.9995Z" fill="#6C301E"/>
<path d="M28.5295 38.3111C30.8834 35.3725 33.8362 32.9901 37.1835 31.3289C36.8069 31.284 35.9275 31.6834 35.5576 31.8928C32.878 33.4305 30.5441 35.541 28.0901 38.0417C28.2119 38.1815 28.2932 38.2747 28.438 38.3939L28.5295 38.3111Z" fill="#B2B6BA" stroke="#485654" stroke-width="0.0218355"/>
<path d="M28.305 38.2779L28.47 38.4203C31.1436 35.3148 34.7808 32.4111 37.1953 31.332C33.8564 32.6532 30.9453 35.5567 28.3386 38.2578L28.3278 38.2572L28.305 38.2779Z" fill="#8C959D"/>
<path d="M28.3037 38.2764L28.4688 38.4189C29.7039 36.9871 31.0572 35.6657 32.5137 34.4692C33.6032 33.5656 34.7521 32.739 35.9524 31.995C36.3565 31.7546 36.7708 31.5257 37.194 31.3306L37.1953 31.3086C36.3077 31.6633 35.4797 32.1099 34.6803 32.6245C33.8923 33.1287 33.143 33.7125 32.414 34.3197C31.6933 34.9322 30.9946 35.571 30.3192 36.2349C29.6302 36.8997 28.9831 37.589 28.3151 38.2661L28.3037 38.2764ZM28.3037 38.2764C28.9723 37.5884 29.6289 36.9217 30.3179 36.2569C30.993 35.5926 31.6917 34.9538 32.4128 34.3416C33.1417 33.7345 33.8904 33.1617 34.679 32.6465C35.467 32.1422 36.3064 31.6853 37.1826 31.3409L37.1839 31.3189C36.342 31.7406 35.5286 32.2187 34.7488 32.75C33.1939 33.8165 31.7378 35.0252 30.3985 36.3611C29.7237 37.0229 29.0761 37.7129 28.4573 38.4292L28.3037 38.2764Z" fill="#485654"/>
<path d="M27.5883 37.7034C27.8004 37.7825 27.9795 37.8706 28.1459 37.991C28.1585 38.1463 28.3426 38.3341 28.5027 38.3769L28.5726 38.2928L28.5942 38.2941L28.6571 38.331C28.7219 38.3349 28.7962 38.3615 28.8234 38.4515C28.8602 38.5641 28.7763 38.7025 28.674 38.7846C28.5615 38.855 28.5164 38.8854 28.4084 38.8789C28.2915 38.8387 28.2331 38.7248 28.2027 38.6898C27.7742 39.1606 27.4558 39.4173 26.9252 39.7826C26.6984 39.7689 26.588 39.6187 26.6732 39.4583C26.698 39.4046 26.7647 39.3755 26.8174 39.4008L26.8206 39.3458C26.5756 39.0881 26.4748 38.7729 26.7863 38.262C27.0496 37.8364 27.3285 37.6987 27.5769 37.7137L27.5877 37.7144L27.5883 37.7034ZM26.8893 38.1688C26.8308 38.2426 26.8047 38.3183 26.7685 38.3823C26.5764 38.7018 26.6931 39.1173 26.9668 39.2553L26.9884 39.2566C26.9497 39.177 27.0889 39.0198 27.1505 39.0787C27.1226 38.9998 27.2389 38.8633 27.3234 38.9015C27.2847 38.8219 27.3895 38.6958 27.4842 38.7457C27.4455 38.6661 27.5281 38.5497 27.6348 38.5782C27.6076 38.4883 27.6896 38.3828 27.7855 38.4107C27.7906 38.3227 27.8148 38.28 27.8491 38.249C27.7462 38.1545 27.6142 38.003 27.4992 37.9298C27.2154 37.7802 27.0177 38.011 26.8893 38.1688Z" fill="#FAB81C" stroke="#6C301E" stroke-width="0.0218355"/>
<path d="M26.7393 38.5133C26.7952 38.4836 26.8308 38.4305 26.8111 38.3962C26.7921 38.3509 26.7388 38.3367 26.6828 38.3664C26.6276 38.3851 26.592 38.4382 26.6008 38.4718C26.6199 38.5171 26.684 38.532 26.7393 38.5133Z" fill="#FAB81C" stroke="#6C301E" stroke-width="0.0109178"/>
<path d="M26.7783 38.4047C26.8342 38.3749 26.8698 38.3219 26.8508 38.2766C26.8311 38.2423 26.7778 38.228 26.7219 38.2578C26.6666 38.2765 26.631 38.3295 26.6399 38.3632C26.6589 38.4085 26.723 38.4234 26.7783 38.4047Z" fill="#FAB81C" stroke="#6C301E" stroke-width="0.0109178"/>
<path d="M26.8492 38.2786C26.9044 38.2598 26.94 38.2068 26.9204 38.1725C26.9013 38.1272 26.848 38.1129 26.7927 38.1317C26.7368 38.1614 26.7012 38.2144 26.7208 38.2487C26.7291 38.2934 26.7932 38.3083 26.8492 38.2786Z" fill="#FAB81C" stroke="#6C301E" stroke-width="0.0109178"/>
<path d="M26.9429 38.1735C26.9988 38.1438 27.0344 38.0908 27.0147 38.0565C26.995 38.0222 26.9417 38.0079 26.8864 38.0266C26.8305 38.0564 26.7949 38.1094 26.8038 38.143C26.8234 38.1774 26.887 38.2033 26.9429 38.1735Z" fill="#FAB81C" stroke="#6C301E" stroke-width="0.0109178"/>
<path d="M27.0579 38.0672C27.1239 38.0492 27.1494 37.9845 27.1291 37.9612L27.1304 37.9392C27.1081 37.9489 27.0535 37.9566 27.0662 37.9242C27.0675 37.9022 27.0789 37.8919 27.0675 37.9022L27.0014 37.9203C26.9455 37.9501 26.9099 38.0031 26.9296 38.0374C26.9378 38.082 27.0019 38.097 27.0579 38.0672Z" fill="#FAB81C" stroke="#6C301E" stroke-width="0.0109178"/>
<path d="M28.2022 38.6914C28.1381 38.4889 28.008 38.3044 27.8486 38.2506ZM28.1787 38.7231C28.037 38.7366 27.8306 38.5585 27.785 38.4123ZM28.0401 38.8692C27.8647 38.9028 27.6914 38.7157 27.6235 38.5791ZM27.8678 39.0354C27.6519 39.0224 27.5414 38.8722 27.4837 38.7473ZM27.6962 39.1906C27.5127 39.1795 27.359 39.0267 27.3229 38.9031ZM27.5361 39.3355C27.3309 39.323 27.2071 39.2162 27.1494 39.0913ZM27.3435 39.4783C27.1593 39.4782 27.0253 39.3597 26.9879 39.2581ZM27.1395 39.6316C26.9667 39.6211 26.8544 39.5039 26.8176 39.3913Z" fill="#FAB81C"/>
<path d="M28.2022 38.6914C28.1623 38.5494 28.0832 38.422 27.9743 38.3244C27.9439 38.2894 27.902 38.2648 27.8486 38.2506C27.8943 38.2678 27.9368 38.2928 27.9743 38.3244C28.0126 38.359 28.0467 38.3981 28.0759 38.4409C28.1309 38.517 28.1735 38.6016 28.2022 38.6914ZM28.1787 38.7231C28.1355 38.7205 28.0923 38.7179 28.0504 38.6933L27.9462 38.6207L27.8434 38.5262L27.785 38.4123C27.7929 38.4553 27.8132 38.495 27.8434 38.5262C27.8987 38.5975 27.9695 38.6547 28.0504 38.6933C28.0923 38.7179 28.1348 38.7315 28.1787 38.7231ZM28.0401 38.8692L27.9105 38.8614L27.8064 38.7889C27.7344 38.7331 27.6757 38.6617 27.6343 38.5798L27.7035 38.6943L27.7949 38.7992L27.8997 38.8608L28.0401 38.8692ZM27.8678 39.0354C27.8247 39.0328 27.7815 39.0302 27.7503 39.0063L27.6456 38.9447L27.5427 38.8502L27.4843 38.7363C27.5109 38.8232 27.5632 38.8996 27.6341 38.9551L27.7389 39.0166L27.8678 39.0354ZM27.6962 39.1906C27.6099 39.1854 27.5362 39.1478 27.4746 39.0889C27.4116 39.0387 27.3599 38.9753 27.3229 38.9031C27.3318 38.9368 27.3508 38.9821 27.3813 39.017L27.4632 39.0993L27.5673 39.1718C27.6086 39.1869 27.6525 39.1933 27.6962 39.1906ZM27.5361 39.3355C27.4929 39.3328 27.4497 39.3302 27.4186 39.3063C27.3399 39.2834 27.2679 39.2412 27.209 39.1832L27.15 39.0803L27.2084 39.1942C27.2395 39.2182 27.27 39.2531 27.3125 39.2667C27.3747 39.3147 27.4497 39.3302 27.5253 39.3348L27.5361 39.3355ZM27.3435 39.4783C27.2684 39.4727 27.1956 39.4494 27.1308 39.4103L27.0476 39.3501C27.0279 39.3158 26.9968 39.2918 26.9879 39.2581C26.986 39.2911 27.0165 39.3261 27.0368 39.3494C27.0765 39.3942 27.1258 39.4292 27.1808 39.4516C27.2359 39.4741 27.2952 39.4834 27.3543 39.479L27.3435 39.4783ZM27.1395 39.6316L27.0322 39.614L26.9484 39.5648L26.8766 39.4942L26.817 39.4023C26.8387 39.4712 26.882 39.531 26.9403 39.5724C26.9985 39.6138 27.0685 39.6346 27.1395 39.6316Z" fill="#6C301E"/>
<path d="M24.3431 25.3786C25.2004 24.9159 25.9267 24.2367 26.4526 23.4062C24.765 23.869 23.997 24.9819 24.3431 25.3896V25.3786ZM40.1154 25.8965C39.7466 25.0304 39.1655 24.2753 38.4278 23.7038C38.7307 25.3786 39.7259 26.216 40.1154 25.9075V25.8965Z" fill="#406325" stroke="#24420E" stroke-width="0.0218355"/>
<path d="M24.3436 25.3793C23.9866 24.9826 24.7547 23.8808 26.4422 23.418C25.2523 24.3435 24.3652 25.203 24.3436 25.3793ZM40.1159 25.8972C39.7156 26.2277 38.742 25.3903 38.4391 23.7265C39.218 24.9385 39.9536 25.8751 40.1159 25.8972Z" fill="#67923D" stroke="#24420E" stroke-width="0.0218355"/>
<path d="M28.9956 33.9856C28.9956 33.9856 28.3357 34.0627 28.141 33.1261C27.9463 32.1234 28.7143 32.0242 28.7143 32.0242C28.7143 32.0242 29.5906 31.9251 30.1423 31.9141L30.3803 33.8974L28.9956 33.9856Z" fill="url(#paint0_radial_423_10174)" stroke="#999270" stroke-width="0.0218355"/>
<path d="M29.0831 33.6907C29.0831 33.6907 28.6503 33.7678 28.5638 33.0737C28.4989 32.5778 28.8018 32.5117 28.8018 32.5117L29.797 32.688V33.5915L29.0831 33.6907Z" fill="url(#paint1_radial_423_10174)" stroke="#999270" stroke-width="0.0218355"/>
<path d="M28.8008 32.51C28.8008 32.51 29.4498 32.4659 29.7744 32.4219L29.915 33.0499L29.147 33.094C29.147 33.094 29.0929 32.5321 28.8008 32.51Z" fill="url(#paint2_radial_423_10174)" stroke="#999270" stroke-width="0.0218355"/>
<path d="M28.6719 32.0364C28.6719 32.0364 29.4832 31.827 29.5914 32.7416C29.613 32.984 29.4832 33.5349 29.0829 33.6892L30.5866 33.5239L30.446 31.8711L29.9484 31.9152C29.9484 31.9152 28.8666 31.9482 28.6719 32.0254V32.0364Z" fill="url(#paint3_radial_423_10174)" stroke="#999270" stroke-width="0.0218355"/>
<path d="M28.995 33.9853C28.995 33.9853 34.6094 33.5996 35.1828 33.6217C36.892 32.6741 35.1828 28.9387 33.744 26.8452C33.9063 26.3714 30.5095 25.3136 28.9842 25.4128C28.7787 25.4128 28.5948 25.4348 28.4217 25.4458C27.5887 25.534 27.5779 26.6248 27.9133 27.319C28.2378 27.9801 31.2019 33.3793 29.1249 33.9633L28.995 33.9853Z" fill="#F9F0AA" stroke="#999270" stroke-width="0.0218355"/>
<path d="M35.0097 29.0489C34.6311 28.2446 34.1767 27.4733 33.744 26.8452C33.9063 26.3714 30.5095 25.3136 28.9842 25.4128C28.7787 25.4128 28.5948 25.4348 28.4217 25.4458C27.5887 25.534 27.5779 26.6248 27.9133 27.319C28.0214 27.5173 28.3784 28.2005 28.7679 29.0489" fill="url(#paint4_linear_423_10174)"/>
<path d="M35.0097 29.0489C34.6311 28.2446 34.1767 27.4733 33.744 26.8452C33.9063 26.3714 30.5095 25.3136 28.9842 25.4128C28.7787 25.4128 28.5948 25.4348 28.4217 25.4458C27.5887 25.534 27.5779 26.6248 27.9133 27.319C28.0214 27.5173 28.3784 28.2005 28.7679 29.0489" stroke="#999270" stroke-width="0.0218355"/>
<path d="M29.299 30.3384C29.9048 31.9472 30.2401 33.644 29.1259 33.9636L28.9961 33.9856C28.9961 33.9856 34.6213 33.6 35.1838 33.622C36.1142 33.1041 36.0276 31.7709 35.53 30.3164" fill="url(#paint5_linear_423_10174)"/>
<path d="M29.299 30.3384C29.9048 31.9472 30.2401 33.644 29.1259 33.9636L28.9961 33.9856C28.9961 33.9856 34.6213 33.6 35.1838 33.622C36.1142 33.1041 36.0276 31.7709 35.53 30.3164" stroke="#999270" stroke-width="0.0218355"/>
<path d="M28.4749 25.766C28.0746 25.766 27.9665 26.1627 27.9773 26.4051C27.9881 27.0662 28.4749 27.0883 28.4749 27.0883L29.124 27.0552L29.4269 25.7109L28.4749 25.766Z" fill="url(#paint6_radial_423_10174)" stroke="#999270" stroke-width="0.0218355"/>
<path d="M28.4766 25.766L29.4285 25.7109L29.5367 26.7136L28.6929 26.7577C28.6929 26.7577 28.9634 25.9533 28.4766 25.766Z" fill="url(#paint7_linear_423_10174)" stroke="#999270" stroke-width="0.0218355"/>
<path d="M33.7448 26.8464C34.4696 26.7362 34.4588 25.7446 33.9612 25.3369C32.2844 25.2708 30.0884 25.3259 28.4874 25.4471C28.6713 25.4471 29.1797 25.4911 29.2338 26.1633C29.245 26.309 29.2213 26.4553 29.1648 26.5896C29.1083 26.724 29.0206 26.8423 28.9093 26.9346C28.7841 27.0303 28.633 27.0842 28.4766 27.0888H28.866L29.1905 27.0448C31.4623 26.7473 33.734 26.8464 33.734 26.8464H33.7448Z" fill="url(#paint8_linear_423_10174)" stroke="#999270" stroke-width="0.0218355"/>
<path d="M29.6775 28.3992C29.6559 28.3662 29.6342 28.3221 29.591 28.3111C29.5693 28.3111 29.526 28.3111 29.5369 28.267H29.6234L29.7965 28.245C29.8398 28.256 29.8289 28.3001 29.7965 28.3001C29.7424 28.3001 29.7749 28.3552 29.7857 28.3882L29.9263 28.7188C29.9371 28.7628 29.9696 28.7959 30.002 28.7959L30.121 28.7849C30.1535 28.7628 30.1427 28.7188 30.1427 28.6747C30.1318 28.6416 30.1967 28.6527 30.1967 28.6747L30.24 28.829C30.24 28.851 30.2184 28.84 30.1967 28.84L29.8722 28.862C29.8398 28.862 29.7857 28.8951 29.764 28.862C29.764 28.8179 29.8289 28.84 29.8289 28.8069L29.7965 28.6967L29.6775 28.3992ZM30.1967 28.3552C30.1859 28.3331 30.1643 28.289 30.121 28.278C30.0994 28.278 30.0561 28.278 30.0561 28.234C30.0777 28.2119 30.1102 28.234 30.1318 28.234L30.3157 28.2119C30.3482 28.2119 30.359 28.267 30.3157 28.256C30.2833 28.256 30.2833 28.3001 30.2941 28.3331L30.4564 28.7078C30.4564 28.7298 30.478 28.7628 30.5105 28.7739C30.5321 28.7739 30.5754 28.7739 30.5862 28.8069C30.5862 28.84 30.5429 28.8179 30.5213 28.8179C30.4672 28.8179 30.4131 28.8179 30.3482 28.84C30.3266 28.84 30.2941 28.84 30.2941 28.8069C30.2941 28.7739 30.3482 28.8069 30.359 28.7628C30.359 28.7298 30.3374 28.6967 30.3157 28.6527L30.1967 28.3662V28.3552ZM30.6835 28.4433C30.6835 28.4653 30.7268 28.4433 30.7376 28.4433C30.7701 28.4433 30.8025 28.4323 30.8025 28.3992C30.8025 28.3441 30.7701 28.289 30.7268 28.267C30.6944 28.234 30.6511 28.245 30.6078 28.245L30.6186 28.3001L30.6835 28.4433ZM30.7484 28.6196C30.7701 28.6527 30.7809 28.6967 30.8134 28.7298C30.835 28.7518 30.8783 28.7408 30.8999 28.7298C30.9323 28.7298 30.954 28.6967 30.9432 28.6747C30.9324 28.5976 30.8891 28.5315 30.8134 28.5094H30.7052L30.7268 28.5645L30.7484 28.6196ZM30.5321 28.3552C30.5105 28.3221 30.4996 28.267 30.4564 28.245C30.4347 28.245 30.3915 28.256 30.3806 28.2229C30.3806 28.1899 30.4456 28.2119 30.4672 28.2009C30.5645 28.2009 30.6619 28.1678 30.7484 28.2009C30.8242 28.2229 30.8999 28.289 30.9107 28.3772C30.9107 28.4213 30.8783 28.4543 30.8458 28.4653L30.8999 28.4764C30.9648 28.4984 31.0189 28.5425 31.0513 28.6086C31.073 28.6527 31.0838 28.7078 31.0513 28.7518C31.0081 28.7959 30.9432 28.7959 30.8999 28.7959C30.8134 28.7959 30.7376 28.7959 30.6511 28.8179C30.6186 28.8179 30.6078 28.7628 30.6511 28.7628C30.6835 28.7628 30.6835 28.7188 30.6727 28.6967L30.5321 28.3662V28.3552ZM31.3326 28.1458C31.3651 28.1458 31.3759 28.1789 31.3867 28.2009L31.4191 28.3001C31.3867 28.3221 31.3651 28.278 31.3542 28.256C31.3326 28.234 31.311 28.2009 31.2785 28.2119H31.1487C31.1271 28.234 31.1487 28.256 31.1595 28.278L31.2244 28.4323C31.2461 28.4323 31.2893 28.4323 31.311 28.3992C31.311 28.3772 31.2785 28.3221 31.3326 28.3331C31.3651 28.3552 31.3542 28.3992 31.3759 28.4323L31.43 28.5535C31.3975 28.5865 31.3759 28.5425 31.3651 28.5094C31.3434 28.4764 31.2893 28.4764 31.2569 28.4764C31.2352 28.4764 31.2569 28.4984 31.2569 28.5094L31.3218 28.6747C31.3434 28.7078 31.3975 28.7078 31.43 28.7078C31.4624 28.7078 31.5165 28.7078 31.5381 28.6637C31.5598 28.6416 31.5057 28.5865 31.5381 28.5755C31.5814 28.5755 31.5814 28.6196 31.5922 28.6416C31.5922 28.6747 31.6139 28.7078 31.6247 28.7298C31.6247 28.7518 31.5922 28.7518 31.5814 28.7518L31.2569 28.7739C31.2136 28.7739 31.1595 28.7959 31.1487 28.7518C31.1487 28.7188 31.2244 28.7408 31.2136 28.6967L31.1703 28.5866L31.0513 28.289C31.0297 28.256 31.0081 28.2119 30.9648 28.2119C30.9432 28.2119 30.8999 28.2119 30.9215 28.1678H31.0297L31.3326 28.1458ZM31.5814 28.289C31.5706 28.256 31.549 28.2119 31.5057 28.1899C31.4841 28.1899 31.43 28.1899 31.43 28.1458C31.4624 28.1238 31.5057 28.1458 31.5381 28.1458C31.6247 28.1458 31.7112 28.1127 31.7978 28.1458C31.8843 28.1568 31.96 28.245 31.9709 28.3441C31.9709 28.3882 31.9384 28.4213 31.8951 28.4323C31.8627 28.4323 31.9168 28.4433 31.9276 28.4543C32.0033 28.4874 32.0358 28.5535 32.079 28.6196C32.0898 28.6416 32.1331 28.6967 32.1439 28.6416C32.1439 28.5866 32.2088 28.6416 32.198 28.6747C32.198 28.7188 32.1548 28.7408 32.1223 28.7408C32.079 28.7408 32.0249 28.7188 32.0033 28.6747C31.96 28.6086 31.9276 28.5315 31.8627 28.4874C31.8516 28.4761 31.8377 28.468 31.8224 28.4641C31.8072 28.4602 31.7912 28.4607 31.7761 28.4653V28.5204L31.841 28.6527C31.8627 28.6857 31.9059 28.6857 31.9492 28.6857C31.9817 28.6967 31.9709 28.7518 31.9276 28.7408H31.7437C31.7112 28.7628 31.6463 28.7408 31.668 28.7078C31.7004 28.7078 31.7437 28.6857 31.722 28.6527L31.6139 28.3662L31.5814 28.289ZM31.7329 28.3992C31.7545 28.4213 31.7978 28.3992 31.8302 28.3992C31.8627 28.3992 31.8627 28.3441 31.8519 28.3221C31.841 28.267 31.8086 28.2119 31.7545 28.1899C31.7329 28.1899 31.668 28.1678 31.6571 28.2009L31.7329 28.3772V28.3992ZM32.5117 28.5755C32.5226 28.6086 32.5442 28.6416 32.5766 28.6527C32.5983 28.6527 32.6416 28.6527 32.6524 28.6857C32.6524 28.7188 32.6091 28.6967 32.5875 28.7078H32.4144C32.3819 28.7188 32.3495 28.7078 32.3495 28.6747C32.3711 28.6527 32.4252 28.6747 32.4252 28.6306L32.3711 28.5094L32.2521 28.1899C32.2413 28.1568 32.198 28.1568 32.1764 28.1568C32.1439 28.1568 32.1007 28.1568 32.1007 28.2009C32.1007 28.234 32.1223 28.267 32.1007 28.289C32.0682 28.289 32.0574 28.256 32.0466 28.234C32.0466 28.2009 32.0249 28.1678 32.0033 28.1238C32.0033 28.1017 32.0466 28.1127 32.0574 28.1127L32.5117 28.0907C32.5442 28.0907 32.5658 28.1127 32.5658 28.1458L32.6091 28.256C32.5983 28.289 32.555 28.256 32.5442 28.2229C32.5334 28.1899 32.4901 28.1458 32.4468 28.1458C32.4252 28.1458 32.3819 28.1458 32.3603 28.1678L32.3819 28.245L32.5117 28.5755ZM32.9228 28.4764C32.9012 28.4764 32.912 28.5094 32.912 28.5204V28.6086C32.9228 28.6527 32.9661 28.6416 32.9985 28.6527C33.0202 28.6527 33.0094 28.7078 32.9769 28.6967H32.8471C32.8146 28.7078 32.7605 28.6857 32.793 28.6527C32.8146 28.6527 32.8363 28.6416 32.8471 28.6196V28.0687C32.8687 28.0356 32.9012 28.0687 32.912 28.0907L33.3014 28.5866C33.3231 28.6086 33.3555 28.6306 33.388 28.6306C33.4204 28.6306 33.4312 28.6857 33.388 28.6747H33.2257C33.2041 28.6747 33.1716 28.6967 33.15 28.6747C33.1284 28.6637 33.15 28.6306 33.1716 28.6306C33.2041 28.6306 33.1716 28.5865 33.1608 28.5645L33.0959 28.4764H32.9228ZM33.0418 28.4213C33.0634 28.4213 33.0418 28.4103 33.0418 28.3992L32.9012 28.2119V28.4323H33.0418V28.4213ZM33.3772 28.2229C33.3663 28.1789 33.3447 28.1127 33.2906 28.1127C33.2582 28.1127 33.2149 28.0907 33.2365 28.0687H33.4204C33.4962 28.0577 33.5719 28.0577 33.6368 28.0797C33.799 28.1348 33.9289 28.278 33.9613 28.4543C33.9613 28.5204 33.9505 28.5976 33.8964 28.6306C33.8099 28.6857 33.7125 28.6747 33.626 28.6637L33.4745 28.6747C33.4421 28.6747 33.4312 28.6196 33.4745 28.6306C33.5178 28.6306 33.5178 28.5755 33.4962 28.5535L33.3772 28.2229ZM33.5935 28.4984C33.6043 28.5315 33.6151 28.5755 33.6476 28.6086H33.7558C33.8099 28.6086 33.8315 28.5535 33.8315 28.5094C33.8269 28.4284 33.8047 28.3493 33.7666 28.278C33.7233 28.2009 33.6584 28.1458 33.5719 28.1238C33.5361 28.1176 33.4995 28.1176 33.4637 28.1238C33.4529 28.1238 33.4637 28.1458 33.4637 28.1678L33.5935 28.4984ZM31.311 29.8647C31.311 29.8978 31.3542 29.9308 31.3975 29.9308C31.4191 29.9308 31.4732 29.9308 31.4732 29.9749C31.4516 29.9969 31.4083 29.9749 31.3867 29.9749L31.2244 29.9969H31.1271C31.1054 29.9969 31.1054 29.9529 31.1379 29.9529C31.1703 29.9529 31.2028 29.9418 31.2028 29.9088L31.1812 29.8206L31.0513 29.5121C31.0513 29.4791 31.0081 29.4791 30.9756 29.4791C30.954 29.4791 30.9107 29.4901 30.8999 29.457C30.8999 29.424 30.954 29.435 30.9756 29.413L31.0838 29.3799C31.1054 29.3799 31.1163 29.3909 31.1163 29.413L31.311 29.8647ZM31.3867 29.3689H31.603C31.6463 29.3689 31.6247 29.3138 31.6463 29.3138C31.6896 29.3138 31.6896 29.3689 31.6896 29.3909C31.6896 29.435 31.6571 29.468 31.6247 29.457H31.4624L31.5165 29.5892L31.5814 29.5672C31.6896 29.5672 31.8194 29.6333 31.8627 29.7435C31.8843 29.7986 31.8951 29.8537 31.8627 29.9088C31.8194 29.9639 31.7545 29.9749 31.6896 29.9749C31.6355 29.9749 31.5814 29.9639 31.5381 29.9088C31.5273 29.8868 31.5273 29.8317 31.5598 29.8427C31.603 29.8427 31.6355 29.8647 31.6355 29.9088C31.6463 29.9308 31.6896 29.9198 31.7112 29.9198C31.7437 29.9198 31.7761 29.8978 31.7761 29.8647C31.7761 29.8096 31.7545 29.7545 31.722 29.7105C31.7004 29.6664 31.6463 29.6333 31.5814 29.6333L31.4949 29.6443C31.4624 29.6443 31.4624 29.6113 31.4516 29.5892L31.3759 29.3799L31.3975 29.3689H31.3867ZM32.1331 29.4791C32.1115 29.435 32.0898 29.3799 32.0358 29.3689C32.0141 29.3689 31.96 29.3579 31.9925 29.3248H32.1656C32.2413 29.3028 32.3278 29.3138 32.3927 29.3358C32.555 29.3909 32.6848 29.5342 32.7173 29.7105C32.7173 29.7766 32.7065 29.8427 32.6416 29.8868C32.5658 29.9308 32.4685 29.9198 32.3819 29.9198L32.2413 29.9418C32.2088 29.9418 32.198 29.8868 32.2413 29.8868C32.2738 29.8868 32.2737 29.8427 32.2629 29.8096L32.1331 29.4791ZM32.3495 29.7545C32.3603 29.7876 32.3819 29.8317 32.4144 29.8647H32.5226C32.5658 29.8537 32.5875 29.7986 32.5875 29.7545C32.5875 29.6774 32.555 29.6003 32.5117 29.5231C32.4685 29.446 32.4036 29.3909 32.317 29.3799C32.2812 29.3737 32.2446 29.3737 32.2088 29.3799V29.424L32.3495 29.7545ZM33.0418 29.2807C33.0743 29.2807 33.0851 29.3138 33.0959 29.3358C33.0959 29.3689 33.1175 29.3909 33.1283 29.424C33.1067 29.457 33.0743 29.424 33.0634 29.3909C33.0526 29.3689 33.031 29.3358 32.9985 29.3358H32.8579C32.8363 29.3579 32.8579 29.3909 32.8579 29.4019L32.9228 29.5562C32.9553 29.5562 32.9877 29.5562 33.0094 29.5342C33.031 29.5121 32.9769 29.457 33.031 29.468C33.0634 29.468 33.0634 29.5231 33.0743 29.5562L33.1283 29.6774C33.1175 29.7215 33.0743 29.6774 33.0634 29.6443C33.0526 29.6113 33.0094 29.6113 32.9769 29.6113C32.9553 29.6113 32.9336 29.6113 32.9553 29.6333L33.0202 29.7986C33.0418 29.8427 33.0959 29.8317 33.1283 29.8317C33.1716 29.8317 33.2149 29.8317 33.2365 29.7986C33.2582 29.7766 33.2149 29.7325 33.2365 29.7105C33.2798 29.7105 33.2906 29.7435 33.2906 29.7655L33.3231 29.8757C33.3231 29.8868 33.2906 29.8757 33.2798 29.8757L32.9444 29.8978C32.912 29.8978 32.8687 29.9198 32.8471 29.8868C32.8255 29.8427 32.9012 29.8647 32.912 29.8317L32.8795 29.7325L32.7605 29.413C32.7389 29.3799 32.7173 29.3468 32.674 29.3358C32.6524 29.3358 32.6091 29.3358 32.6307 29.2917H32.7389L33.0418 29.2807ZM30.0994 30.8564C30.1102 30.9115 30.1643 30.9335 30.2076 30.9445C30.2941 30.9666 30.3915 30.9996 30.4456 31.0658C30.478 31.1098 30.4996 31.1649 30.4996 31.22C30.4996 31.2751 30.4456 31.3192 30.3915 31.3302C30.3374 31.3522 30.2725 31.3412 30.2076 31.3192C30.1859 31.3082 30.1967 31.3633 30.1535 31.3522C30.1318 31.3302 30.1427 31.2861 30.1318 31.2531C30.1196 31.2155 30.1051 31.1787 30.0886 31.1429C30.0886 31.1098 30.1318 31.1429 30.1427 31.1649C30.1751 31.231 30.24 31.2751 30.3157 31.2861C30.359 31.2861 30.4023 31.2641 30.4023 31.22C30.4023 31.1649 30.359 31.1098 30.3157 31.0878C30.24 31.0547 30.1643 31.0437 30.0994 30.9996C30.0685 30.9816 30.0425 30.9561 30.0236 30.9253C30.0047 30.8945 29.9936 30.8595 29.9912 30.8233C29.9912 30.7793 30.0345 30.7352 30.0778 30.7242C30.1318 30.7021 30.1859 30.7021 30.2508 30.7242C30.2725 30.7242 30.2833 30.6911 30.3157 30.7132C30.3157 30.7352 30.3157 30.7572 30.3374 30.7793L30.3698 30.8784C30.3482 30.9005 30.3157 30.8784 30.3157 30.8564C30.2833 30.8123 30.2617 30.7682 30.2076 30.7682C30.1643 30.7682 30.121 30.7682 30.0994 30.8013V30.8564ZM30.8134 30.6691C30.8566 30.6691 30.8566 30.7021 30.8674 30.7242L30.8891 30.8123C30.8891 30.8454 30.8458 30.8123 30.835 30.7903C30.8242 30.7682 30.8025 30.7352 30.7593 30.7352H30.6295C30.6078 30.7572 30.6295 30.7903 30.6295 30.8013L30.6835 30.9556C30.716 30.9556 30.7484 30.9556 30.7701 30.9335C30.7917 30.9115 30.7485 30.8674 30.7809 30.8564C30.8242 30.8564 30.8242 30.9115 30.835 30.9335C30.835 30.9776 30.8674 31.0217 30.8783 31.0768C30.8674 31.1098 30.8242 31.0768 30.8242 31.0437C30.8134 31.0107 30.7701 30.9996 30.7376 31.0107C30.716 31.0107 30.6944 31.0107 30.7052 31.0327L30.7701 31.198C30.7809 31.231 30.8134 31.231 30.8458 31.231C30.8891 31.231 30.9432 31.231 30.9756 31.198C30.9973 31.1759 30.9756 31.1319 30.9756 31.1098C31.0081 31.0878 31.0405 31.1098 31.0405 31.1429L31.0622 31.2531C31.0622 31.2751 31.0297 31.2751 31.0189 31.2751L30.6944 31.2971C30.6511 31.2971 30.6078 31.3302 30.5862 31.2971C30.5862 31.2531 30.6403 31.2641 30.6511 31.231C30.6511 31.209 30.6511 31.1759 30.6295 31.1429L30.5213 30.8123C30.5213 30.7793 30.4888 30.7462 30.4456 30.7462C30.4239 30.7462 30.3806 30.7352 30.4023 30.7021H30.5105L30.8134 30.6691ZM31.2677 31.1319C31.2785 31.1649 31.3002 31.198 31.3326 31.209C31.3651 31.209 31.4083 31.198 31.4191 31.231C31.4191 31.2751 31.3651 31.2531 31.3434 31.2531C31.2785 31.2531 31.2352 31.2531 31.1703 31.2751C31.1487 31.2751 31.1163 31.2751 31.1054 31.2531C31.1054 31.209 31.1595 31.231 31.1703 31.209L31.1595 31.1208L31.0513 30.7903C31.0297 30.7572 31.0189 30.7132 30.9756 30.7132C30.954 30.7132 30.9107 30.7132 30.9215 30.6691C30.9324 30.647 30.9648 30.6691 30.9973 30.6691C31.073 30.6691 31.1487 30.636 31.2352 30.647C31.2749 30.6498 31.313 30.6636 31.3454 30.6869C31.3778 30.7102 31.4034 30.7422 31.4191 30.7793C31.4408 30.8233 31.4408 30.8894 31.4191 30.9225C31.3651 30.9666 31.3002 30.9776 31.2352 30.9886C31.2136 30.9886 31.2352 31.0107 31.2352 31.0217L31.2677 31.1319ZM31.2028 30.9335H31.2785C31.311 30.9225 31.3326 30.8895 31.3218 30.8564C31.3218 30.8013 31.3002 30.7572 31.2677 30.7242C31.2352 30.6911 31.1812 30.6911 31.1487 30.7021C31.1271 30.7132 31.1487 30.7352 31.1487 30.7572L31.2028 30.9335ZM31.8735 31.0988C31.8735 31.1208 31.8951 31.1649 31.9276 31.1649C31.9492 31.1649 32.0033 31.1649 32.0033 31.198C32.0033 31.231 31.9492 31.22 31.9276 31.22L31.7545 31.231C31.7329 31.231 31.7004 31.231 31.7004 31.198C31.722 31.1759 31.7761 31.198 31.7761 31.1539L31.7437 31.0217L31.6355 30.7021C31.6355 30.6691 31.5922 30.6801 31.5598 30.6801C31.5381 30.6801 31.4949 30.6801 31.4841 30.7132V30.8013C31.4624 30.8233 31.43 30.8013 31.4408 30.7682L31.3975 30.6581C31.3975 30.625 31.43 30.636 31.4516 30.625L31.8951 30.603C31.9276 30.603 31.9492 30.625 31.9492 30.6581L31.9925 30.7682C31.9817 30.7903 31.9384 30.7682 31.9384 30.7462C31.9168 30.7132 31.8843 30.6691 31.8302 30.6691C31.8086 30.6691 31.7761 30.6581 31.7437 30.6691L31.7653 30.7462L31.8735 31.0988ZM32.1007 30.7352C32.0898 30.7021 32.079 30.6581 32.0358 30.647C32.0141 30.647 31.9709 30.647 31.9709 30.603C31.9817 30.5809 32.0141 30.603 32.0358 30.603L32.2305 30.5809C32.2629 30.5699 32.2846 30.625 32.2521 30.625C32.2197 30.625 32.1872 30.647 32.198 30.6801L32.2521 30.8564L32.3278 31.0988C32.3278 31.1208 32.3603 31.1429 32.3819 31.1429C32.4144 31.1429 32.4577 31.1429 32.4468 31.187H32.3711L32.198 31.209C32.1764 31.209 32.1331 31.187 32.1548 31.1649C32.1764 31.1539 32.2197 31.1649 32.2197 31.1208L32.1872 30.9886L32.1007 30.7352ZM32.7281 30.5589C32.7605 30.5589 32.7605 30.5919 32.7714 30.614L32.793 30.7021C32.7822 30.7352 32.7389 30.7021 32.7389 30.6801C32.7281 30.647 32.7065 30.614 32.6632 30.614H32.5442C32.5226 30.636 32.5442 30.6691 32.5442 30.6911L32.5983 30.8344C32.6199 30.8344 32.6524 30.8344 32.6848 30.8123C32.7065 30.8013 32.6632 30.7462 32.6956 30.7462C32.7389 30.7462 32.7389 30.7903 32.7497 30.8123C32.7497 30.8674 32.7822 30.9115 32.793 30.9556C32.7822 30.9886 32.7389 30.9556 32.7389 30.9335C32.7281 30.9005 32.6848 30.8895 32.6524 30.8895C32.6416 30.8895 32.5983 30.8895 32.6199 30.9115L32.674 31.0768C32.6848 31.1098 32.7281 31.1208 32.7497 31.1208C32.793 31.1208 32.8471 31.1208 32.8795 31.0878C32.9012 31.0657 32.8795 31.0217 32.8904 30.9886C32.9228 30.9776 32.9444 30.9996 32.9444 31.0327L32.9661 31.1429C32.9661 31.1649 32.9444 31.1649 32.9228 31.1649L32.5983 31.1759C32.555 31.1759 32.5226 31.198 32.4901 31.1759C32.4793 31.1319 32.5442 31.1429 32.555 31.1208C32.5593 31.1062 32.5606 31.0908 32.5587 31.0756C32.5568 31.0604 32.5519 31.0458 32.5442 31.0327L32.436 30.7021C32.436 30.6691 32.4036 30.625 32.3603 30.625C32.3387 30.625 32.2954 30.603 32.317 30.5809H32.4252L32.7389 30.5589H32.7281ZM32.9444 30.6691C32.9336 30.625 32.9012 30.5919 32.8579 30.5919C32.8255 30.603 32.8038 30.5258 32.8579 30.5479H33.0202L33.0959 30.647L33.3339 30.9666C33.3122 30.9666 33.3339 30.9445 33.3231 30.9335L33.3663 30.5369C33.388 30.5148 33.4421 30.5369 33.4745 30.5148C33.507 30.5148 33.5827 30.5148 33.5611 30.5589C33.5178 30.5589 33.4745 30.5809 33.4962 30.625L33.626 31.0217C33.626 31.0658 33.6692 31.0878 33.7125 31.0768C33.745 31.0768 33.745 31.1429 33.7125 31.1319H33.5178C33.4853 31.1429 33.4312 31.1429 33.4421 31.0988C33.4745 31.0988 33.5286 31.0768 33.507 31.0327L33.3988 30.6801C33.4096 30.6911 33.3988 30.7132 33.3988 30.7242L33.3772 31.0547L33.3663 31.1429C33.3339 31.1539 33.3231 31.1319 33.3123 31.1098L32.9985 30.7021L33.0202 30.7352C33.0526 30.8454 33.0743 30.9556 33.1175 31.0547C33.1175 31.0988 33.1716 31.1098 33.2041 31.1098C33.2473 31.1319 33.2149 31.1649 33.1824 31.1539H33.0202C32.9877 31.1539 32.9877 31.1098 33.0202 31.1098C33.0743 31.1098 33.0634 31.0547 33.0418 31.0217L32.9444 30.6691ZM33.8856 30.7572C33.8856 30.7793 33.9289 30.7572 33.9397 30.7572C33.9721 30.7572 34.0046 30.7572 34.0154 30.7132C34.0154 30.6691 33.9938 30.603 33.9613 30.5809C33.918 30.5479 33.8748 30.5589 33.8315 30.5589V30.614L33.8856 30.7572ZM33.9397 30.9335L33.9829 31.0437C34.0154 31.0657 34.0479 31.0547 34.0803 31.0547C34.1019 31.0547 34.1344 31.0327 34.1236 30.9996C34.1236 30.9335 34.0911 30.8564 34.0262 30.8344H33.918V30.8674L33.9397 30.9335ZM33.7341 30.6691C33.7233 30.625 33.7125 30.5809 33.6692 30.5589C33.6476 30.5589 33.6043 30.5589 33.6043 30.5258C33.6043 30.4928 33.6584 30.5258 33.6801 30.5148C33.7882 30.5148 33.8748 30.4928 33.9721 30.5148C34.0479 30.5369 34.1128 30.614 34.1128 30.6911C34.1128 30.7352 34.0695 30.7682 34.037 30.7903C34.037 30.7682 34.0803 30.7903 34.0911 30.7903C34.1452 30.8123 34.1993 30.8564 34.2209 30.9225C34.2426 30.9666 34.2534 31.0217 34.2209 31.0658C34.1777 31.1098 34.1128 31.1098 34.0587 31.1098L33.8099 31.1208C33.7774 31.1208 33.7666 31.0658 33.8099 31.0768C33.8423 31.0768 33.8531 31.0327 33.8315 30.9996L33.7341 30.6691ZM34.2858 30.647C34.2858 30.614 34.2642 30.5589 34.2209 30.5369C34.1993 30.5369 34.156 30.5369 34.156 30.5038C34.1777 30.4707 34.2209 30.5038 34.2642 30.4928H34.4806C34.5671 30.4928 34.6428 30.5589 34.6645 30.647C34.6753 30.6911 34.6645 30.7572 34.6212 30.7793L34.5779 30.8013C34.6428 30.8233 34.6969 30.8784 34.7294 30.9335L34.7835 31.0217C34.8051 31.0437 34.8159 31.0107 34.8159 30.9886C34.8592 30.9666 34.8808 31.0217 34.8592 31.0547C34.8484 31.0988 34.7835 31.1098 34.751 31.0988C34.7318 31.0977 34.7133 31.0909 34.6979 31.0791C34.6825 31.0674 34.6709 31.0512 34.6645 31.0327L34.5563 30.8454C34.5238 30.8344 34.4914 30.8123 34.4589 30.8344V30.8784L34.513 31.0107C34.5238 31.0437 34.5671 31.0547 34.5996 31.0547C34.6428 31.0547 34.6428 31.1098 34.5996 31.0988H34.4048C34.3832 31.0988 34.3399 31.1208 34.3291 31.0988C34.3075 31.0437 34.3724 31.0657 34.394 31.0437L34.3724 30.9445L34.2858 30.647ZM34.4265 30.7572C34.4373 30.7903 34.4914 30.7572 34.513 30.7572C34.5455 30.7572 34.5671 30.7242 34.5563 30.7021C34.5563 30.647 34.5347 30.5919 34.5022 30.5589C34.4697 30.5369 34.4265 30.5369 34.394 30.5479C34.3724 30.5479 34.3832 30.5809 34.394 30.603L34.4265 30.7462V30.7572ZM35.1729 30.4707C35.2054 30.4707 35.2054 30.5038 35.2162 30.5258C35.2162 30.5589 35.2378 30.5919 35.2486 30.614C35.227 30.647 35.1945 30.614 35.1837 30.5919C35.1837 30.5699 35.1621 30.5258 35.1188 30.5258H34.9782C34.9565 30.5369 34.9782 30.5699 34.9782 30.5919L35.0215 30.7462C35.0539 30.7462 35.0864 30.7462 35.108 30.7242C35.1404 30.7132 35.0972 30.6691 35.1296 30.647C35.1729 30.647 35.1729 30.6911 35.1729 30.7242C35.1729 30.7793 35.2054 30.8233 35.2162 30.8674C35.2054 30.9005 35.1621 30.8674 35.1621 30.8454C35.1621 30.8123 35.1188 30.7903 35.0864 30.8013C35.0755 30.8013 35.0323 30.7793 35.0431 30.8013L35.0972 30.9886C35.108 31.0217 35.1404 31.0217 35.1729 31.0217C35.2162 31.0217 35.2703 31.0217 35.3027 30.9996C35.3243 30.9776 35.3027 30.9335 35.3135 30.9115C35.346 30.8895 35.3784 30.9115 35.3676 30.9445L35.3893 31.0547C35.3893 31.0768 35.3568 31.0768 35.346 31.0768H35.0106C34.9782 31.0768 34.9457 31.0988 34.9241 31.0768C34.8916 31.0327 34.9457 31.0437 34.9674 31.0217C34.989 30.9996 34.9674 30.9666 34.9674 30.9445L34.87 30.603C34.87 30.5699 34.8376 30.5258 34.8051 30.5258C34.7726 30.5258 34.7402 30.5148 34.751 30.4818H34.8592L35.1729 30.4707ZM31.6247 31.9142C31.6247 31.8811 31.603 31.826 31.5598 31.804C31.5273 31.804 31.4841 31.804 31.5057 31.7709L31.6139 31.7599C31.7004 31.7599 31.7869 31.7379 31.8735 31.7599C32.0033 31.782 32.1223 31.8922 32.1548 32.0134C32.1764 32.1015 32.1872 32.1897 32.1331 32.2668C32.079 32.3329 31.9817 32.3549 31.8951 32.3549C31.8194 32.3549 31.7545 32.3549 31.6896 32.377C31.668 32.388 31.6247 32.366 31.6463 32.3329C31.6788 32.3329 31.722 32.3219 31.7112 32.2778L31.668 32.1125L31.6247 31.9142ZM31.7978 32.1897C31.8086 32.2227 31.8194 32.2668 31.841 32.2888C31.8735 32.3109 31.9168 32.2998 31.9492 32.2888C31.9925 32.2888 32.0358 32.2447 32.0466 32.1897C32.0551 32.1063 32.0401 32.0222 32.0033 31.9472C31.9893 31.9131 31.9671 31.8831 31.9388 31.86C31.9104 31.8369 31.8768 31.8214 31.841 31.815C31.8017 31.8075 31.7614 31.8075 31.722 31.815C31.7112 31.815 31.722 31.8371 31.722 31.8591L31.7978 32.1897ZM32.5658 31.6938C32.5983 31.6938 32.5983 31.7269 32.6091 31.7489L32.6307 31.8481C32.6091 31.8701 32.5766 31.8481 32.5766 31.826C32.5658 31.793 32.5442 31.7599 32.5117 31.7599H32.3711C32.3495 31.7709 32.3711 31.804 32.3711 31.826C32.3711 31.8811 32.3927 31.9362 32.4036 31.9803C32.436 31.9803 32.4685 31.9803 32.4901 31.9583C32.5117 31.9362 32.4793 31.8921 32.5117 31.8811C32.555 31.8811 32.5442 31.9362 32.555 31.9583L32.5875 32.1015C32.5875 32.1346 32.5334 32.1015 32.5334 32.0795C32.5334 32.0464 32.4901 32.0244 32.4577 32.0354C32.4468 32.0354 32.4036 32.0244 32.4252 32.0464C32.4252 32.1015 32.4468 32.1566 32.4685 32.2227C32.4685 32.2558 32.5117 32.2558 32.5442 32.2558C32.5875 32.2558 32.6416 32.2558 32.674 32.2227C32.6956 32.2007 32.674 32.1566 32.6956 32.1346C32.7173 32.1125 32.7389 32.1456 32.7389 32.1786C32.7389 32.2117 32.7389 32.2447 32.7605 32.2888C32.7497 32.3109 32.7281 32.2998 32.7065 32.2998L32.3819 32.3219C32.3495 32.3219 32.317 32.3439 32.2846 32.3219C32.2629 32.2998 32.2954 32.2778 32.3278 32.2778C32.3603 32.2668 32.3495 32.2227 32.3387 32.2007L32.2629 31.8481C32.2521 31.815 32.2305 31.7709 32.198 31.7709C32.1656 31.7709 32.1331 31.7599 32.1439 31.7269H32.2521L32.5658 31.6938ZM33.269 32.1456C33.269 32.1786 33.3014 32.2117 33.3339 32.2227C33.3555 32.2227 33.3988 32.2227 33.4096 32.2447C33.4204 32.2778 33.3663 32.2668 33.3447 32.2668L33.1608 32.2778C33.1284 32.2778 33.0959 32.2888 33.0743 32.2778C33.0418 32.2778 33.0526 32.2337 33.0851 32.2337C33.1175 32.2337 33.15 32.2227 33.1608 32.1897L33.15 32.1015L33.0743 31.793C33.0743 31.7599 33.0418 31.7599 33.0094 31.7599C32.9877 31.7599 32.9444 31.782 32.9336 31.7489C32.9336 31.7048 32.9877 31.7159 33.0094 31.7048L33.1283 31.6608C33.15 31.6608 33.1608 31.6718 33.1608 31.6938L33.269 32.1456ZM33.6692 31.782C33.6692 31.7379 33.6368 31.6938 33.5935 31.6938C33.5611 31.6938 33.5178 31.6938 33.507 31.7269C33.4962 31.7709 33.507 31.815 33.5502 31.8371L33.6476 31.8922L33.6692 31.826V31.782ZM33.7558 32.1015C33.7558 32.0464 33.6909 32.0134 33.6476 31.9913C33.626 31.9913 33.6043 31.9693 33.5935 31.9803C33.5767 31.9925 33.5637 32.0094 33.5561 32.029C33.5484 32.0485 33.5464 32.0698 33.5502 32.0905C33.5719 32.1566 33.6043 32.2007 33.6584 32.2007C33.7017 32.2117 33.745 32.2007 33.7666 32.1566V32.1015H33.7558ZM33.864 32.0795C33.864 32.1346 33.8423 32.1897 33.799 32.2227C33.745 32.2668 33.6584 32.2668 33.5827 32.2447C33.5178 32.2337 33.4745 32.1786 33.4529 32.1125C33.4529 32.0574 33.4637 32.0023 33.507 31.9583C33.5178 31.9583 33.5611 31.9472 33.5286 31.9362C33.4745 31.9142 33.4204 31.8701 33.4204 31.804C33.3988 31.7489 33.4204 31.6938 33.4745 31.6608C33.5224 31.6356 33.5778 31.6296 33.6298 31.6439C33.6818 31.6582 33.7267 31.6917 33.7558 31.7379C33.7774 31.782 33.7774 31.8371 33.7558 31.8701L33.6909 31.9252C33.745 31.9252 33.799 31.9693 33.8207 32.0134C33.8423 32.0244 33.8531 32.0574 33.8531 32.0795H33.864ZM34.2101 32.1456C34.2318 32.1456 34.2642 32.1235 34.2642 32.1015C34.275 32.0795 34.2642 32.0244 34.2967 32.0354C34.3291 32.0354 34.3183 32.0684 34.3291 32.1015C34.3291 32.1456 34.3291 32.1897 34.2858 32.2227C34.2642 32.2447 34.2318 32.2337 34.1993 32.2337H34.0154C33.9938 32.2337 33.9613 32.2558 33.9397 32.2337C33.918 32.2117 33.9397 32.1786 33.9397 32.1566C33.9613 32.0795 34.0046 32.0244 34.0479 31.9803C34.0911 31.9472 34.1344 31.9142 34.1344 31.8591C34.1344 31.815 34.1344 31.7709 34.1128 31.7269C34.1051 31.7144 34.095 31.7037 34.0832 31.6953C34.0714 31.6868 34.058 31.6809 34.0439 31.6778C34.0298 31.6747 34.0152 31.6746 34.001 31.6773C33.9868 31.6801 33.9733 31.6857 33.9613 31.6938C33.9289 31.7048 33.9072 31.7489 33.9289 31.7709C33.9505 31.793 33.9938 31.7709 34.0046 31.815C34.0262 31.8371 34.0046 31.8811 33.9721 31.8811C33.9289 31.8811 33.8856 31.8481 33.864 31.804C33.8531 31.7489 33.8748 31.6828 33.9289 31.6497C33.9829 31.6167 34.0479 31.6167 34.1128 31.6277C34.1669 31.6497 34.2209 31.6938 34.2426 31.7599C34.2534 31.804 34.2534 31.8591 34.2318 31.9032C34.1885 31.9803 34.1019 32.0134 34.0479 32.0905C34.037 32.1015 34.0262 32.1235 34.037 32.1566C34.037 32.1235 34.0803 32.1346 34.0911 32.1346L34.2101 32.1456ZM34.632 32.1015C34.632 32.1235 34.6645 32.1566 34.6969 32.1676C34.7186 32.1676 34.7618 32.1676 34.7726 32.1897C34.7943 32.2227 34.7402 32.2227 34.7186 32.2227H34.4265C34.4048 32.2117 34.4265 32.1676 34.4481 32.1786C34.4806 32.1786 34.513 32.1676 34.5238 32.1346V32.0464L34.4481 31.7379C34.4481 31.7048 34.4157 31.7048 34.394 31.7048C34.3616 31.7048 34.3291 31.7269 34.3183 31.7048C34.2967 31.6608 34.3508 31.6608 34.3724 31.6497L34.5022 31.6057C34.5347 31.6057 34.5347 31.6167 34.5455 31.6387L34.632 32.1015Z" fill="#B07E09"/>
<path d="M31.5487 23.1094L31.1376 23.6162C31.0078 24.1892 31.3323 24.63 31.9706 25.0046C32.479 25.3351 33.431 25.4123 33.7339 25.1478L32.2518 23.7154L31.5487 23.1094Z" fill="url(#paint9_radial_423_10174)" stroke="#4C0505" stroke-width="0.0218355"/>
<path d="M34.5545 37.9742L34.3382 37.6987C33.3979 38.9985 32.1908 40.074 30.8008 40.85C32.4343 40.3872 33.5052 39.1752 34.5545 37.9742ZM32.8778 41.9078C33.4864 40.6948 34.1432 39.5074 34.8466 38.3488L34.6194 38.0513C33.8189 39.3956 32.8886 40.9933 32.8886 41.9078H32.8778ZM37.3996 29.2914C37.2969 28.7979 37.1409 28.3175 36.9344 27.859C35.7746 25.8674 34.1462 24.2013 32.1963 23.0108V22.9777H32.2395L32.2287 22.9667H32.272L32.2504 22.9337H32.2936L32.2612 22.8896H32.3044L32.272 22.8565H32.3261L32.2936 22.8125H32.3369L32.2936 22.7794L32.3585 22.7684L32.3044 22.7353L32.3585 22.7243L32.3153 22.6913L32.3802 22.6692L32.3261 22.6362L32.391 22.6031L32.3261 22.559L32.4018 22.537L32.3153 22.5039L32.391 22.4599H32.3044L32.3585 22.3827H32.2828L32.3153 22.3276H32.2504L32.2828 22.2726L32.2071 22.2836L32.2395 22.2175L32.1746 22.2615L32.1963 22.1844L32.1205 22.2285L32.1314 22.1513L32.0665 22.2064L32.0773 22.1293L32.0232 22.1844V22.1073L31.9691 22.1734V22.0963L31.9258 22.1513L31.9042 22.0852L31.8609 22.1513L31.8501 22.0742L31.8176 22.1513L31.796 22.0742L31.7636 22.1513L31.7419 22.0852L31.7203 22.1513L31.6987 22.0852L31.677 22.1734L31.6554 22.0963L31.6229 22.1844L31.5905 22.1073V22.1954L31.5472 22.1183V22.2064L31.4931 22.1403V22.2285L31.4498 22.1624V22.2395L31.4066 22.2064L31.4282 22.2836L31.3741 22.2505L31.3958 22.3166L31.3525 22.2946L31.3633 22.3607H31.32L31.3417 22.4048H31.3092L31.3308 22.4489C31.2916 22.5732 31.2769 22.7043 31.2876 22.8345C31.2876 22.8565 31.3525 22.8786 31.3633 22.9006C31.3958 22.9447 31.3849 22.9667 31.3849 22.9667C31.2119 23.2532 31.0604 23.4736 31.0496 23.8041C31.1794 23.6279 31.3309 23.4075 31.5256 23.4075C31.4282 23.5728 31.3849 24.0796 31.4931 24.1567L31.5797 24.0135C31.5797 24.1237 31.5905 24.2118 31.6229 24.2669C31.6554 24.2008 31.6878 24.1237 31.7311 24.0796C31.7311 24.2449 31.7527 24.3771 31.796 24.4432C31.8501 24.3551 31.9042 24.311 31.9691 24.2669C31.9475 24.3661 31.915 24.4543 31.9366 24.5644C32.0015 24.4543 32.0665 24.3771 32.1422 24.289C32.0989 24.4653 32.1422 24.5975 32.1855 24.7848C32.2287 24.5644 32.2504 24.5314 32.3477 24.4432C32.3585 24.6526 32.3261 24.8399 32.3694 24.9611C32.4559 24.7738 32.5208 24.7958 32.5857 24.6746C32.5641 24.8509 32.5316 25.0382 32.5857 25.1925C32.6172 25.0745 32.6904 24.9724 32.7912 24.906C32.7912 25.1484 32.8453 25.1044 32.7047 25.3137C32.7696 25.3357 32.9751 25.2696 33.0941 25.2145C33.0401 25.3468 33.0509 25.4459 32.9968 25.5451C33.105 25.479 33.2131 25.3798 33.3105 25.2807C33.2672 25.4349 33.1482 25.5892 33.2023 25.7324C33.2348 25.5892 33.3429 25.479 33.4511 25.4569C33.4295 25.5341 33.4187 25.6994 33.3105 25.7765C33.5701 25.7985 33.6783 25.6222 33.8081 25.479C33.7973 25.6222 33.8081 25.7434 33.9812 25.9528C33.9487 25.6883 34.0028 25.7434 34.1218 25.5892C34.1867 25.8206 34.2516 26.074 34.4896 26.2503C34.3815 25.9969 34.3815 25.8646 34.4247 25.7104C34.4572 25.8757 34.6086 26.074 34.6411 26.2172C34.6735 26.052 34.6952 25.8867 34.7493 25.7765C34.8288 25.9736 34.8798 26.1815 34.9007 26.3935C34.9548 26.2833 34.9981 26.1732 35.0197 26.063C37.1616 28.3218 37.6376 31.2087 35.2901 34.2609C36.1339 33.6879 36.3503 32.7733 36.8154 31.991C36.3611 33.0158 36.1664 34.1617 35.355 35.0101C36.1339 34.327 36.2962 33.6989 36.7614 33.0378C36.2746 34.4151 35.5714 35.9247 34.6194 37.313L35.1387 37.886L35.5714 37.1257C36.5883 35.4288 38.2434 32.9937 37.4104 29.2914H37.3996Z" fill="#448127" stroke="#34541F" stroke-width="0.0218355"/>
<path d="M31.2653 22.658C31.1572 22.68 31.1139 22.7241 31.0273 22.8122C31.1355 22.8343 31.2112 22.8453 31.3086 22.8453C31.3302 22.8453 31.3411 22.8012 31.3411 22.7792L31.3194 22.669C31.3194 22.6469 31.2545 22.658 31.2329 22.669L31.2653 22.658Z" fill="#EAC102" stroke="#A08307" stroke-width="0.0218355"/>
<path d="M31.0273 22.8129C31.1044 22.7854 31.1842 22.7669 31.2653 22.7578C31.1884 22.7854 31.1085 22.8039 31.0273 22.8129Z" fill="#A08307"/>
<path d="M31.7545 22.7583C31.8023 22.7583 31.8411 22.7189 31.8411 22.6702C31.8411 22.6215 31.8023 22.582 31.7545 22.582C31.7067 22.582 31.668 22.6215 31.668 22.6702C31.668 22.7189 31.7067 22.7583 31.7545 22.7583Z" fill="black" stroke="black" stroke-width="0.0109177"/>
<path d="M31.7746 22.7014C31.7926 22.7014 31.8071 22.6817 31.8071 22.6574C31.8071 22.633 31.7926 22.6133 31.7746 22.6133C31.7567 22.6133 31.7422 22.633 31.7422 22.6574C31.7422 22.6817 31.7567 22.7014 31.7746 22.7014Z" fill="url(#paint10_radial_423_10174)"/>
<path d="M32.8883 41.8759C33.0845 41.2156 33.353 40.5799 33.6888 39.9807C33.9292 39.5236 34.1854 39.0752 34.4569 38.6365L34.7381 38.1957L34.4677 38.6365C34.2076 39.0837 33.9551 39.5355 33.7104 39.9918C33.394 40.5959 33.1193 41.2218 32.8883 41.8649V41.8759ZM30.8438 40.8292C32.1077 40.2693 33.2127 39.3939 34.0566 38.2839C33.6305 38.6951 33.226 39.1291 32.845 39.5841C32.2455 40.1024 31.5703 40.5225 30.8438 40.8292ZM34.8788 37.6007C34.9653 37.4905 35.041 37.3583 35.1168 37.2371C35.349 36.8722 35.5656 36.4972 35.7658 36.1132C35.9173 35.8597 36.0471 35.5953 36.1769 35.3419L36.5771 34.5706L36.3932 34.9562L36.1985 35.3529C35.9363 35.8684 35.6585 36.3755 35.3656 36.8735C35.2135 37.1228 35.0511 37.3654 34.8788 37.6007ZM35.517 34.835C35.888 34.3878 36.1974 33.891 36.4365 33.3585C36.7881 32.5558 37.0074 31.6996 37.0856 30.8242C37.0767 30.9709 37.073 31.118 37.0748 31.265C36.9837 31.994 36.7715 32.702 36.4473 33.3585C36.2031 33.8907 35.8902 34.3872 35.517 34.835Z" fill="#34541F"/>
<path d="M35.3438 34.1942C35.7221 33.7847 36.0392 33.3206 36.2849 32.8169C36.4659 32.4412 36.6248 32.0549 36.7609 31.66L36.7933 31.5608L36.8258 31.4616L36.8907 31.2633C37.0015 30.704 37.0089 30.1285 36.9123 29.5664C36.919 29.8506 36.9443 30.1341 36.988 30.4148C36.988 30.7013 36.9664 30.9878 36.9123 31.2633C36.8799 31.3294 36.869 31.4065 36.8474 31.4726L36.815 31.5718L36.7717 31.671C36.6226 32.0643 36.4639 32.4537 36.2957 32.839C36.1765 33.0913 36.0391 33.3344 35.8846 33.5662C35.7272 33.7982 35.5458 34.0124 35.3438 34.2053V34.1942Z" fill="#34541F"/>
<path d="M34.707 37.4151C34.8477 37.2388 34.9667 37.0515 35.0965 36.8642L35.2912 36.5887L35.4751 36.3132L35.7996 35.7182L36.0809 35.1122C36.2756 34.7045 36.4595 34.2968 36.6218 33.8671C36.9453 33.0285 37.1387 32.1438 37.1951 31.2446C37.2863 30.3455 37.1904 29.437 36.9139 28.5781C37.2191 29.4304 37.3228 30.3439 37.2167 31.2446C37.1594 32.1472 36.966 33.0354 36.6434 33.8781C36.4811 34.2968 36.2972 34.7045 36.1025 35.1122L35.7996 35.7182C35.7023 35.9276 35.6049 36.1259 35.4859 36.3132C35.4318 36.4234 35.3669 36.5005 35.302 36.5997L35.1073 36.8752L34.7178 37.4261L34.707 37.4151Z" fill="#34541F"/>
<path d="M35.0073 37.7552C35.5163 36.9073 35.9997 36.0437 36.4569 35.1658C37.1176 33.8279 37.4411 32.3435 37.3981 30.8465C37.3981 30.3506 37.3548 29.8548 37.2682 29.37C37.2718 29.37 37.2754 29.37 37.2791 29.37C37.3764 29.8548 37.4089 30.3616 37.4089 30.8465C37.4062 31.8403 37.2753 32.8294 37.0194 33.7884C36.8771 34.2656 36.6962 34.73 36.4785 35.1768C36.0176 36.0512 35.5306 36.911 35.0181 37.7552H35.0073ZM32 23.2656H32.1514C32.3055 23.2903 32.4551 23.3386 32.595 23.4089C32.9563 23.6047 33.285 23.8575 33.5686 24.1581C33.2812 23.868 32.953 23.6229 32.595 23.4309C32.4059 23.3456 32.2054 23.2899 32 23.2656Z" fill="#34541F"/>
<path d="M33.775 24.4556C33.775 24.4556 34.0995 24.654 34.2834 24.9405C34.2834 24.9405 33.775 24.8413 33.418 24.4336" fill="#448127"/>
<path d="M33.778 24.4556C33.9851 24.5747 34.1627 24.7406 34.2972 24.9405L34.308 24.9625H34.2864C34.1181 24.9235 33.9573 24.8565 33.8104 24.7642C33.659 24.676 33.5292 24.5658 33.4102 24.4336C33.5879 24.622 33.8065 24.7654 34.0484 24.8523L34.2864 24.9294V24.9515C34.2211 24.848 34.1409 24.7551 34.0484 24.676C33.965 24.5944 33.8745 24.5206 33.778 24.4556Z" fill="#34541F"/>
<path d="M33.0391 24.3555C33.0391 24.3555 33.8179 24.8623 33.9369 24.9064C33.9369 24.9064 33.753 24.5207 33.3852 24.3555" fill="#448127"/>
<path d="M33.0391 24.3548L33.4826 24.6302C33.5936 24.6976 33.7054 24.7638 33.8179 24.8286L33.9261 24.8947V24.9057C33.8685 24.7869 33.7918 24.6789 33.6989 24.5862C33.6079 24.4916 33.5018 24.4134 33.3852 24.3548C33.5078 24.4034 33.6185 24.4786 33.7098 24.5751C33.8031 24.6716 33.8799 24.7834 33.9369 24.9057L33.9586 24.9277L33.9261 24.9167L33.6989 24.7845C33.4756 24.6429 33.2556 24.496 33.0391 24.3438V24.3548Z" fill="#34541F"/>
<path d="M33.3561 24.1016C33.3561 24.1016 33.7563 24.2779 33.8537 24.5754C33.8537 24.5754 33.1181 24.2668 32.9883 24.1016" fill="#448127"/>
<path d="M33.3561 24.1016C33.4652 24.1444 33.5673 24.2038 33.659 24.2779L33.778 24.4101L33.8645 24.5754V24.5974H33.8429C33.5838 24.4748 33.331 24.3387 33.0856 24.1897L32.9883 24.1016L33.0856 24.1787L33.1938 24.2448C33.403 24.3759 33.624 24.4866 33.8537 24.5754H33.8429C33.8212 24.5313 33.7996 24.4652 33.7563 24.4321C33.7292 24.3812 33.6924 24.3363 33.6482 24.2999C33.5612 24.2192 33.4627 24.1523 33.3561 24.1016Z" fill="#34541F"/>
<path d="M32.7383 24.4219C32.7383 24.4219 33.4523 24.9398 33.6686 24.9398C33.6686 24.9398 33.4523 24.5761 33.0845 24.4219" fill="#448127"/>
<path d="M32.7383 24.4219C32.9997 24.5891 33.2667 24.7472 33.5388 24.8957L33.6686 24.9287L33.6578 24.9508C33.5901 24.8361 33.5063 24.7321 33.409 24.6422C33.3114 24.5538 33.2022 24.4796 33.0845 24.4219C33.2703 24.4957 33.4342 24.6171 33.5604 24.7745L33.6686 24.9398L33.6902 24.9508H33.6686C33.6145 24.9508 33.5712 24.9398 33.528 24.9177L33.4198 24.8626C33.1771 24.7422 32.9485 24.5943 32.7383 24.4219Z" fill="#34541F"/>
<path d="M32.7383 24.5772C32.7383 24.5772 33.1061 24.9078 33.3224 24.9078C33.3224 24.9078 33.1061 24.5442 32.7383 24.3789" fill="#448127"/>
<path d="M32.7383 24.574C32.8757 24.6766 33.0203 24.7686 33.171 24.8495L33.2359 24.8715L33.3224 24.8936L33.3116 24.9046C33.2431 24.7938 33.1593 24.6936 33.0628 24.6071C32.9652 24.5186 32.856 24.4445 32.7383 24.3867C32.9229 24.4574 33.0868 24.575 33.2143 24.7283L33.3224 24.8936L33.3441 24.9156H33.3224C33.2624 24.9133 33.2034 24.8983 33.1494 24.8715C33.0477 24.8223 32.9531 24.7593 32.8681 24.6842C32.8181 24.6565 32.774 24.6191 32.7383 24.574Z" fill="#34541F"/>
<path d="M32.543 23.8594C32.543 23.8594 33.3218 24.4213 33.4084 24.7299C33.4084 24.7299 32.7161 24.3993 32.5862 24.234" fill="#448127"/>
<path d="M32.543 23.8594C32.8359 24.0745 33.1076 24.318 33.3543 24.5866L33.43 24.7188V24.7519L33.4084 24.7409C33.1564 24.61 32.9109 24.4666 32.6728 24.3111L32.781 24.3773C32.9871 24.5071 33.2044 24.6177 33.43 24.7078L33.4084 24.7299L33.3327 24.5976C33.1749 24.3924 32.9932 24.2074 32.7918 24.0467L32.543 23.8594Z" fill="#34541F"/>
<path d="M28.2146 39.7378C27.5344 40.1003 26.7754 40.2822 26.0078 40.2667C27.0896 39.3632 28.1389 39.3411 28.2146 39.7378ZM35.7654 40.2336C36.3279 40.7515 38.0371 41.1151 38.3076 41.049C37.1609 39.87 35.9169 39.7488 35.7654 40.2336Z" fill="#406325" stroke="#24420E" stroke-width="0.0218355"/>
<path d="M28.2146 39.7387C28.1389 39.331 27.0788 39.364 26.0078 40.2676C26.713 39.9788 27.457 39.8005 28.2146 39.7387ZM35.7762 40.2235C35.9277 39.7387 37.1609 39.8599 38.3076 41.0499C37.5081 40.6495 36.6552 40.3711 35.7762 40.2235Z" fill="#67923D" stroke="#24420E" stroke-width="0.0218355"/>
</g>
</g>
</g>
<defs>
<radialGradient id="paint0_radial_423_10174" cx="0" cy="0" r="1" gradientUnits="userSpaceOnUse" gradientTransform="translate(28.4764 32.9057) scale(1.78493 1.81808)">
<stop offset="0.2" stop-color="#F9F0AA"/>
<stop offset="1" stop-color="#B07E09"/>
</radialGradient>
<radialGradient id="paint1_radial_423_10174" cx="0" cy="0" r="1" gradientUnits="userSpaceOnUse" gradientTransform="translate(28.9316 33.4263) scale(1.17913 1.20103)">
<stop offset="0.2" stop-color="#F9F0AA"/>
<stop offset="1" stop-color="#B07E09"/>
</radialGradient>
<radialGradient id="paint2_radial_423_10174" cx="0" cy="0" r="1" gradientUnits="userSpaceOnUse" gradientTransform="translate(29.201 32.9398) scale(1.06014 1.07983)">
<stop offset="0.2" stop-color="#F9F0AA"/>
<stop offset="1" stop-color="#B07E09"/>
</radialGradient>
<radialGradient id="paint3_radial_423_10174" cx="0" cy="0" r="1" gradientUnits="userSpaceOnUse" gradientTransform="translate(29.6671 32.7746) scale(1.88228 1.91725)">
<stop offset="0.2" stop-color="#F9F0AA"/>
<stop offset="1" stop-color="#B07E09"/>
</radialGradient>
<linearGradient id="paint4_linear_423_10174" x1="31.3425" y1="27.4953" x2="31.1742" y2="24.4986" gradientUnits="userSpaceOnUse">
<stop offset="0.2" stop-color="#B07E09" stop-opacity="0"/>
<stop offset="1" stop-color="#B07E09"/>
</linearGradient>
<linearGradient id="paint5_linear_423_10174" x1="32.3388" y1="31.6276" x2="32.6081" y2="34.9214" gradientUnits="userSpaceOnUse">
<stop offset="0.2" stop-color="#B07E09" stop-opacity="0"/>
<stop offset="1" stop-color="#B07E09"/>
</linearGradient>
<radialGradient id="paint6_radial_423_10174" cx="0" cy="0" r="1" gradientUnits="userSpaceOnUse" gradientTransform="translate(28.3235 26.7467) scale(1.40631 1.43243)">
<stop offset="0.2" stop-color="#F9F0AA"/>
<stop offset="1" stop-color="#B07E09"/>
</radialGradient>
<linearGradient id="paint7_linear_423_10174" x1="28.9201" y1="26.4272" x2="29.3552" y2="25.4524" gradientUnits="userSpaceOnUse">
<stop offset="0.2" stop-color="#F9F0AA"/>
<stop offset="1" stop-color="#B07E09"/>
</linearGradient>
<linearGradient id="paint8_linear_423_10174" x1="31.2784" y1="25.0724" x2="31.5701" y2="28.7298" gradientUnits="userSpaceOnUse">
<stop offset="0.2" stop-color="#F9F0AA"/>
<stop offset="1" stop-color="#B07E09"/>
</linearGradient>
<radialGradient id="paint9_radial_423_10174" cx="0" cy="0" r="1" gradientUnits="userSpaceOnUse" gradientTransform="translate(31.7759 22.6576) scale(0.0324532 0.033056)">
<stop offset="0.3" stop-color="#A50A0A"/>
<stop offset="1" stop-color="#4C0505"/>
</radialGradient>
<radialGradient id="paint10_radial_423_10174" cx="0" cy="0" r="1" gradientUnits="userSpaceOnUse" gradientTransform="translate(31.773 22.65) scale(0.0317094 0.0338316)">
<stop stop-color="white"/>
<stop offset="1" stop-color="white" stop-opacity="0"/>
</radialGradient>
<clipPath id="clip0_423_10174">
<rect width="64" height="64" rx="32" fill="white"/>
</clipPath>
<clipPath id="clip1_423_10174">
<rect width="64" height="64" fill="white"/>
</clipPath>
<clipPath id="clip2_423_10174">
<rect width="85.3333" height="64" fill="white" transform="translate(-10.668)"/>
</clipPath>
</defs>
</svg>
