<svg width="64" height="64" viewBox="0 0 64 64" fill="none" xmlns="http://www.w3.org/2000/svg">
<g clip-path="url(#clip0_423_10438)">
<g clip-path="url(#clip1_423_10438)">
<g clip-path="url(#clip2_423_10438)">
<path d="M-10.668 0H74.6654V64H-10.668" fill="#EC1B2E"/>
<path d="M35.5067 13.7468C24.9334 13.0668 20.08 26.9202 30.08 32.0402C26.6134 29.0535 27.3334 24.6668 28.7334 22.3868L28.9867 22.5335C27.1467 25.6668 27.4934 29.5602 30.4667 32.0002C28.7734 30.3602 29.2 26.8002 32.08 25.4802C34.96 24.1602 35.2267 20.2402 34.2667 18.9335C32.96 16.6579 33.3734 14.929 35.5067 13.7468ZM30.3867 21.8668L29.76 22.8535L29.52 21.7068L28.3734 21.4002L29.4134 20.8268L29.3334 19.6402L30.2 20.4535L31.3067 20.0135L30.8134 21.0935L31.56 22.0002L30.3867 21.8668Z" fill="white"/>
<path d="M50.1948 30.9693C47.5742 20.7033 32.8991 20.3684 31.1199 31.4612C32.8891 27.2413 37.2836 26.5705 39.8846 27.1974L39.8234 27.4836C36.2749 26.7019 32.6792 28.2348 31.2774 31.8166C32.3139 29.6993 35.8315 29.005 37.9769 31.3361C40.1222 33.6673 43.9328 32.7096 44.8788 31.3928C46.6392 29.4469 48.4112 29.3057 50.1948 30.9693ZM40.8901 28.6091L39.7581 28.318L40.7744 27.7354L40.7118 26.5501L41.5784 27.362L42.6823 26.9192L42.1766 27.9948L42.937 28.9114L41.7574 28.7759L41.1259 29.7662L40.8901 28.6091Z" fill="white"/>
<path d="M38.3564 50.2623C47.3101 44.5976 43.0938 30.5373 31.9941 32.273C36.5542 32.6516 38.5502 36.6237 38.7577 39.2912L38.4665 39.3214C38.1134 35.705 35.5445 32.759 31.7048 32.5327C34.0387 32.8641 35.7861 35.995 34.232 38.7557C32.6779 41.5165 34.7663 44.8446 36.311 45.3374C38.7056 46.4103 39.3874 48.052 38.3564 50.2623ZM37.7258 40.6837L37.6528 39.5171L38.521 40.3037L39.6289 39.8778L39.1245 40.9529L39.8867 41.8659L38.7075 41.7174L38.0708 42.7238L37.8351 41.5601L36.6982 41.2655L37.7258 40.6837Z" fill="white"/>
<path d="M16.3497 44.9642C24.504 51.7292 36.5732 43.3743 31.4925 33.3543C32.5416 37.8082 29.3807 40.9339 26.9079 41.9555L26.7891 41.688C30.1195 40.2346 32.1274 36.881 31.1562 33.1593C31.5621 35.4815 29.1244 38.1108 26.0186 37.4858C22.9127 36.8609 20.3929 39.8755 20.4015 41.4969C20.1211 44.1059 18.7705 45.2617 16.3497 44.9642ZM25.2647 41.4044L26.3516 40.9745L25.8718 42.0433L26.6192 42.9654L25.4408 42.8179L24.808 43.825L24.5849 42.6575L23.431 42.363L24.4649 41.7793L24.3938 40.6069L25.2647 41.4044Z" fill="white"/>
<path d="M14.5885 22.3972C10.6744 32.2429 22.3499 41.1396 30.3095 33.2112C26.3978 35.5853 22.4483 33.545 20.7125 31.5089L20.9303 31.3133C23.3417 34.0315 27.1516 34.9049 30.391 32.8311C28.308 33.9348 25.0541 32.4289 24.6886 29.282C24.3232 26.135 20.6775 24.67 19.1381 25.1793C16.5701 25.7188 15.0536 24.7915 14.5885 22.3972ZM20.7289 29.7758L21.4736 30.6767L20.3089 30.5506L19.6629 31.5464L19.439 30.3801L18.2857 30.0895L19.327 29.5166L19.2505 28.3281L20.1252 29.1311L21.2183 28.7011L20.7289 29.7758Z" fill="white"/>
</g>
</g>
</g>
<defs>
<clipPath id="clip0_423_10438">
<rect width="64" height="64" rx="32" fill="white"/>
</clipPath>
<clipPath id="clip1_423_10438">
<rect width="64" height="64" fill="white"/>
</clipPath>
<clipPath id="clip2_423_10438">
<rect width="85.3333" height="64" fill="white" transform="translate(-10.668)"/>
</clipPath>
</defs>
</svg>
