<svg width="64" height="64" viewBox="0 0 64 64" fill="none" xmlns="http://www.w3.org/2000/svg">
<g clip-path="url(#clip0_423_10348)">
<g clip-path="url(#clip1_423_10348)">
<g clip-path="url(#clip2_423_10348)">
<path d="M-10.668 0H74.6654V64H-10.668V0Z" fill="#18C3DF"/>
<path d="M-10.668 21.332H74.6654V42.6654H-10.668V21.332Z" fill="white"/>
<path d="M30.9336 32.0009L32.7114 32.3564L32.0003 28.4453L30.9336 32.0009Z" fill="#18C3DF"/>
<path d="M33.0664 32.0009L31.2886 32.3564L31.9997 28.4453L33.0664 32.0009Z" fill="#18C3DF"/>
<path d="M31.6692 30.9854L31.8805 32.7861L35.3804 30.9012L31.6692 30.9854Z" fill="#18C3DF"/>
<path d="M32.3294 33.0128L31.4419 31.4319L35.3813 30.8996L32.3294 33.0128Z" fill="#18C3DF"/>
<path d="M31.6706 33.0167L32.5581 31.4358L28.6187 30.9035L31.6706 33.0167Z" fill="#18C3DF"/>
<path d="M32.3308 30.9894L32.1195 32.79L28.6196 30.9051L32.3308 30.9894Z" fill="#18C3DF"/>
<path d="M32.8632 31.3735L31.216 32.1308L34.0902 34.877L32.8632 31.3735Z" fill="#18C3DF"/>
<path d="M31.1367 32.6274L32.3659 31.2948L34.0895 34.8769L31.1367 32.6274Z" fill="#18C3DF"/>
<path d="M32.8633 32.6274L31.6341 31.2948L29.9105 34.8769L32.8633 32.6274Z" fill="#18C3DF"/>
<path d="M31.1368 31.3735L32.784 32.1308L29.9098 34.877L31.1368 31.3735Z" fill="#18C3DF"/>
<path d="M48.707 26.3056L50.4848 26.6611L49.7737 22.75L48.707 26.3056Z" fill="#18C3DF"/>
<path d="M50.8398 26.3056L49.0621 26.6611L49.7732 22.75L50.8398 26.3056Z" fill="#18C3DF"/>
<path d="M49.4427 25.2901L49.6539 27.0908L53.1538 25.2059L49.4427 25.2901Z" fill="#18C3DF"/>
<path d="M50.1028 27.3175L49.2153 25.7366L53.1548 25.2043L50.1028 27.3175Z" fill="#18C3DF"/>
<path d="M49.444 27.3214L50.3315 25.7405L46.3921 25.2082L49.444 27.3214Z" fill="#18C3DF"/>
<path d="M50.1042 25.294L49.893 27.0947L46.393 25.2098L50.1042 25.294Z" fill="#18C3DF"/>
<path d="M50.6367 25.6782L48.9894 26.4355L51.8636 29.1817L50.6367 25.6782Z" fill="#18C3DF"/>
<path d="M48.9101 26.9321L50.1394 25.5995L51.863 29.1816L48.9101 26.9321Z" fill="#18C3DF"/>
<path d="M50.6368 26.9321L49.4075 25.5995L47.6839 29.1816L50.6368 26.9321Z" fill="#18C3DF"/>
<path d="M48.9102 25.6782L50.5575 26.4355L47.6833 29.1817L48.9102 25.6782Z" fill="#18C3DF"/>
<path d="M48.707 36.9735L50.4848 37.3291L49.7737 33.418L48.707 36.9735Z" fill="#18C3DF"/>
<path d="M50.8398 36.9735L49.0621 37.3291L49.7732 33.418L50.8398 36.9735Z" fill="#18C3DF"/>
<path d="M49.4427 35.9581L49.6539 37.7587L53.1538 35.8738L49.4427 35.9581Z" fill="#18C3DF"/>
<path d="M50.1028 37.9854L49.2153 36.4046L53.1548 35.8723L50.1028 37.9854Z" fill="#18C3DF"/>
<path d="M49.444 37.9894L50.3315 36.4085L46.3921 35.8762L49.444 37.9894Z" fill="#18C3DF"/>
<path d="M50.1042 35.962L49.893 37.7626L46.393 35.8777L50.1042 35.962Z" fill="#18C3DF"/>
<path d="M50.6367 36.3462L48.9894 37.1035L51.8636 39.8496L50.6367 36.3462Z" fill="#18C3DF"/>
<path d="M48.9101 37.6001L50.1394 36.2675L51.863 39.8496L48.9101 37.6001Z" fill="#18C3DF"/>
<path d="M50.6368 37.6001L49.4075 36.2675L47.6839 39.8496L50.6368 37.6001Z" fill="#18C3DF"/>
<path d="M48.9102 36.3462L50.5575 37.1035L47.6833 39.8496L48.9102 36.3462Z" fill="#18C3DF"/>
<path d="M13.1602 26.3056L14.9379 26.6611L14.2268 22.75L13.1602 26.3056Z" fill="#18C3DF"/>
<path d="M15.293 26.3056L13.5152 26.6611L14.2263 22.75L15.293 26.3056Z" fill="#18C3DF"/>
<path d="M13.8958 25.2901L14.107 27.0908L17.607 25.2059L13.8958 25.2901Z" fill="#18C3DF"/>
<path d="M14.556 27.3175L13.6685 25.7366L17.6079 25.2043L14.556 27.3175Z" fill="#18C3DF"/>
<path d="M13.8972 27.3214L14.7847 25.7405L10.8452 25.2082L13.8972 27.3214Z" fill="#18C3DF"/>
<path d="M14.5573 25.294L14.3461 27.0947L10.8462 25.2098L14.5573 25.294Z" fill="#18C3DF"/>
<path d="M15.0898 25.6782L13.4425 26.4355L16.3167 29.1817L15.0898 25.6782Z" fill="#18C3DF"/>
<path d="M13.3632 26.9321L14.5925 25.5995L16.3161 29.1816L13.3632 26.9321Z" fill="#18C3DF"/>
<path d="M15.0899 26.9321L13.8606 25.5995L12.137 29.1816L15.0899 26.9321Z" fill="#18C3DF"/>
<path d="M13.3633 25.6782L15.0106 26.4355L12.1364 29.1817L13.3633 25.6782Z" fill="#18C3DF"/>
<path d="M13.1602 36.9735L14.9379 37.3291L14.2268 33.418L13.1602 36.9735Z" fill="#18C3DF"/>
<path d="M15.293 36.9735L13.5152 37.3291L14.2263 33.418L15.293 36.9735Z" fill="#18C3DF"/>
<path d="M13.8958 35.9581L14.107 37.7587L17.607 35.8738L13.8958 35.9581Z" fill="#18C3DF"/>
<path d="M14.556 37.9854L13.6685 36.4046L17.6079 35.8723L14.556 37.9854Z" fill="#18C3DF"/>
<path d="M13.8972 37.9894L14.7847 36.4085L10.8452 35.8762L13.8972 37.9894Z" fill="#18C3DF"/>
<path d="M14.5573 35.962L14.3461 37.7626L10.8462 35.8777L14.5573 35.962Z" fill="#18C3DF"/>
<path d="M15.0898 36.3462L13.4425 37.1035L16.3167 39.8496L15.0898 36.3462Z" fill="#18C3DF"/>
<path d="M13.3632 37.6001L14.5925 36.2675L16.3161 39.8496L13.3632 37.6001Z" fill="#18C3DF"/>
<path d="M15.0899 37.6001L13.8606 36.2675L12.137 39.8496L15.0899 37.6001Z" fill="#18C3DF"/>
<path d="M13.3633 36.3462L15.0106 37.1035L12.1364 39.8496L13.3633 36.3462Z" fill="#18C3DF"/>
</g>
</g>
</g>
<defs>
<clipPath id="clip0_423_10348">
<rect width="64" height="64" rx="32" fill="white"/>
</clipPath>
<clipPath id="clip1_423_10348">
<rect width="64" height="64" fill="white"/>
</clipPath>
<clipPath id="clip2_423_10348">
<rect width="85.3333" height="64" fill="white" transform="translate(-10.668)"/>
</clipPath>
</defs>
</svg>
