<svg width="16" height="16" viewBox="0 0 16 16" fill="none" xmlns="http://www.w3.org/2000/svg">
<path d="M12.6641 7.33464H8.66406V3.33464C8.66406 3.15782 8.59382 2.98826 8.4688 2.86323C8.34378 2.73821 8.17421 2.66797 7.9974 2.66797C7.82058 2.66797 7.65102 2.73821 7.52599 2.86323C7.40097 2.98826 7.33073 3.15782 7.33073 3.33464V7.33464H3.33073C3.15392 7.33464 2.98435 7.40487 2.85932 7.5299C2.7343 7.65492 2.66406 7.82449 2.66406 8.0013C2.66406 8.17811 2.7343 8.34768 2.85932 8.47271C2.98435 8.59773 3.15392 8.66797 3.33073 8.66797H7.33073V12.668C7.33073 12.8448 7.40097 13.0143 7.52599 13.1394C7.65102 13.2644 7.82058 13.3346 7.9974 13.3346C8.17421 13.3346 8.34378 13.2644 8.4688 13.1394C8.59382 13.0143 8.66406 12.8448 8.66406 12.668V8.66797H12.6641C12.8409 8.66797 13.0104 8.59773 13.1355 8.47271C13.2605 8.34768 13.3307 8.17811 13.3307 8.0013C13.3307 7.82449 13.2605 7.65492 13.1355 7.5299C13.0104 7.40487 12.8409 7.33464 12.6641 7.33464Z" fill="white"/>
</svg>
