<svg width="60" height="61" viewBox="0 0 60 61" fill="none" xmlns="http://www.w3.org/2000/svg">
<rect y="0.941406" width="60" height="60" rx="8" fill="#B12CAB"/>
<g clip-path="url(#clip0_423_24188)">
<path d="M41.25 15.9414H18.75C16.6816 15.9414 15 17.623 15 19.6914V36.5664C15 38.6348 16.6816 40.3164 18.75 40.3164H24.375V45.2383C24.375 45.6543 24.7148 45.9414 25.0781 45.9414C25.2188 45.9414 25.3652 45.9004 25.4941 45.8008L32.8125 40.3164H41.25C43.3184 40.3164 45 38.6348 45 36.5664V19.6914C45 17.623 43.3184 15.9414 41.25 15.9414ZM43.125 36.5664C43.125 37.5977 42.2813 38.4414 41.25 38.4414H32.1855L31.6875 38.8164L26.25 42.8945V38.4414H18.75C17.7187 38.4414 16.875 37.5977 16.875 36.5664V19.6914C16.875 18.6602 17.7187 17.8164 18.75 17.8164H41.25C42.2813 17.8164 43.125 18.6602 43.125 19.6914V36.5664ZM31.4062 30.0039H22.9688C22.7109 30.0039 22.5 30.2148 22.5 30.4727V31.4102C22.5 31.668 22.7109 31.8789 22.9688 31.8789H31.4062C31.6641 31.8789 31.875 31.668 31.875 31.4102V30.4727C31.875 30.2148 31.6641 30.0039 31.4062 30.0039ZM37.0312 24.3789H22.9688C22.7109 24.3789 22.5 24.5898 22.5 24.8477V25.7852C22.5 26.043 22.7109 26.2539 22.9688 26.2539H37.0312C37.2891 26.2539 37.5 26.043 37.5 25.7852V24.8477C37.5 24.5898 37.2891 24.3789 37.0312 24.3789Z" fill="white"/>
</g>
<defs>
<clipPath id="clip0_423_24188">
<rect width="30" height="30" fill="white" transform="translate(15 15.9414)"/>
</clipPath>
</defs>
</svg>
