<svg width="60" height="60" viewBox="0 0 60 60" fill="none" xmlns="http://www.w3.org/2000/svg">
<rect width="60" height="60" rx="8" fill="#B12CAB"/>
<g clip-path="url(#clip0_423_4685)">
<path d="M41.25 15H18.75C16.6816 15 15 16.6816 15 18.75V35.625C15 37.6934 16.6816 39.375 18.75 39.375H24.375V44.2969C24.375 44.7129 24.7148 45 25.0781 45C25.2188 45 25.3652 44.959 25.4941 44.8594L32.8125 39.375H41.25C43.3184 39.375 45 37.6934 45 35.625V18.75C45 16.6816 43.3184 15 41.25 15ZM43.125 35.625C43.125 36.6563 42.2813 37.5 41.25 37.5H32.1855L31.6875 37.875L26.25 41.9531V37.5H18.75C17.7187 37.5 16.875 36.6563 16.875 35.625V18.75C16.875 17.7187 17.7187 16.875 18.75 16.875H41.25C42.2813 16.875 43.125 17.7187 43.125 18.75V35.625ZM31.4062 29.0625H22.9688C22.7109 29.0625 22.5 29.2734 22.5 29.5312V30.4688C22.5 30.7266 22.7109 30.9375 22.9688 30.9375H31.4062C31.6641 30.9375 31.875 30.7266 31.875 30.4688V29.5312C31.875 29.2734 31.6641 29.0625 31.4062 29.0625ZM37.0312 23.4375H22.9688C22.7109 23.4375 22.5 23.6484 22.5 23.9062V24.8438C22.5 25.1016 22.7109 25.3125 22.9688 25.3125H37.0312C37.2891 25.3125 37.5 25.1016 37.5 24.8438V23.9062C37.5 23.6484 37.2891 23.4375 37.0312 23.4375Z" fill="white"/>
</g>
<defs>
<clipPath id="clip0_423_4685">
<rect width="30" height="30" fill="white" transform="translate(15 15)"/>
</clipPath>
</defs>
</svg>
