<svg width="64" height="64" viewBox="0 0 64 64" fill="none" xmlns="http://www.w3.org/2000/svg">
<g clip-path="url(#clip0_423_3157)">
<g clip-path="url(#clip1_423_3157)">
<g clip-path="url(#clip2_423_3157)">
<path d="M-10.668 0H74.6654V21.3333H-10.668V0Z" fill="#FF9933"/>
<path d="M-10.668 21.332H74.6654V42.6654H-10.668V21.332Z" fill="white"/>
<path d="M-10.668 42.668H74.6654V64.0013H-10.668V42.668Z" fill="#128807"/>
<path d="M31.9982 40.5315C36.711 40.5315 40.5315 36.711 40.5315 31.9982C40.5315 27.2853 36.711 23.4648 31.9982 23.4648C27.2853 23.4648 23.4648 27.2853 23.4648 31.9982C23.4648 36.711 27.2853 40.5315 31.9982 40.5315Z" fill="#000088"/>
<path d="M31.9979 39.4646C36.1216 39.4646 39.4646 36.1216 39.4646 31.9979C39.4646 27.8742 36.1216 24.5312 31.9979 24.5312C27.8742 24.5312 24.5312 27.8742 24.5312 31.9979C24.5312 36.1216 27.8742 39.4646 31.9979 39.4646Z" fill="white"/>
<path d="M32.0011 33.4945C32.8259 33.4945 33.4945 32.8259 33.4945 32.0011C33.4945 31.1764 32.8259 30.5078 32.0011 30.5078C31.1764 30.5078 30.5078 31.1764 30.5078 32.0011C30.5078 32.8259 31.1764 33.4945 32.0011 33.4945Z" fill="#000088"/>
<path d="M39.3508 33.3584C39.561 33.3861 39.7539 33.2381 39.7816 33.0278C39.8093 32.8176 39.6613 32.6247 39.451 32.597C39.2408 32.5693 39.0479 32.7173 39.0202 32.9276C38.9925 33.1379 39.1405 33.3307 39.3508 33.3584Z" fill="#000088"/>
<path d="M31.9982 39.4688L32.2542 34.9888L31.9982 32.8555L31.7422 34.9888L31.9982 39.4688Z" fill="#000088"/>
<path d="M38.7523 35.2159C38.9482 35.297 39.1728 35.204 39.254 35.008C39.3352 34.8121 39.2421 34.5875 39.0462 34.5063C38.8502 34.4252 38.6256 34.5182 38.5445 34.7141C38.4633 34.9101 38.5563 35.1347 38.7523 35.2159Z" fill="#000088"/>
<path d="M30.0708 39.2121L31.4776 34.951L31.7824 32.8241L30.983 34.8185L30.0708 39.2121Z" fill="#000088"/>
<path d="M37.6926 36.8509C37.8608 36.98 38.1019 36.9482 38.231 36.78C38.3601 36.6117 38.3284 36.3707 38.1601 36.2416C37.9919 36.1125 37.7508 36.1442 37.6217 36.3125C37.4926 36.4807 37.5243 36.7218 37.6926 36.8509Z" fill="#000088"/>
<path d="M28.2705 38.4647L30.7322 34.7129L31.5772 32.7374L30.2888 34.4569L28.2705 38.4647Z" fill="#000088"/>
<path d="M36.2417 38.1589C36.3708 38.3271 36.6118 38.3589 36.7801 38.2298C36.9483 38.1007 36.9801 37.8596 36.851 37.6914C36.7218 37.5231 36.4808 37.4914 36.3125 37.6205C36.1443 37.7496 36.1126 37.9906 36.2417 38.1589Z" fill="#000088"/>
<path d="M26.7195 37.2792L30.0684 34.2924L31.3959 32.6029L29.7063 33.9304L26.7195 37.2792Z" fill="#000088"/>
<path d="M34.4999 39.0471C34.5811 39.243 34.8057 39.3361 35.0016 39.2549C35.1976 39.1738 35.2906 38.9491 35.2095 38.7532C35.1283 38.5573 34.9037 38.4642 34.7077 38.5454C34.5118 38.6265 34.4188 38.8512 34.4999 39.0471Z" fill="#000088"/>
<path d="M25.5335 35.7315L29.5413 33.7132L31.2608 32.4248L29.2853 33.2698L25.5335 35.7315Z" fill="#000088"/>
<path d="M32.5934 39.4536C32.6211 39.6639 32.814 39.8119 33.0242 39.7842C33.2345 39.7565 33.3825 39.5636 33.3548 39.3534C33.3271 39.1431 33.1342 38.9951 32.924 39.0228C32.7137 39.0505 32.5657 39.2434 32.5934 39.4536Z" fill="#000088"/>
<path d="M24.7876 33.9316L29.1812 33.0194L31.1756 32.2199L29.0487 32.5248L24.7876 33.9316Z" fill="#000088"/>
<path d="M30.6416 39.3508C30.6139 39.561 30.7619 39.7539 30.9722 39.7816C31.1824 39.8093 31.3753 39.6613 31.403 39.451C31.4307 39.2408 31.2827 39.0479 31.0724 39.0202C30.8621 38.9925 30.6693 39.1405 30.6416 39.3508Z" fill="#000088"/>
<path d="M24.5312 31.9982L29.0112 32.2542L31.1445 31.9982L29.0112 31.7422L24.5312 31.9982Z" fill="#000088"/>
<path d="M28.7841 38.7523C28.703 38.9482 28.796 39.1728 28.992 39.254C29.1879 39.3352 29.4125 39.2421 29.4937 39.0462C29.5748 38.8502 29.4818 38.6256 29.2859 38.5445C29.0899 38.4633 28.8653 38.5563 28.7841 38.7523Z" fill="#000088"/>
<path d="M24.7879 30.0708L29.049 31.4776L31.1759 31.7824L29.1815 30.983L24.7879 30.0708Z" fill="#000088"/>
<path d="M27.1491 37.6926C27.02 37.8608 27.0518 38.1019 27.22 38.231C27.3883 38.3601 27.6293 38.3284 27.7584 38.1601C27.8875 37.9919 27.8558 37.7508 27.6875 37.6217C27.5193 37.4926 27.2782 37.5243 27.1491 37.6926Z" fill="#000088"/>
<path d="M25.5353 28.2705L29.2871 30.7322L31.2626 31.5772L29.5431 30.2888L25.5353 28.2705Z" fill="#000088"/>
<path d="M25.8411 36.2417C25.6729 36.3708 25.6411 36.6118 25.7702 36.7801C25.8993 36.9483 26.1404 36.9801 26.3086 36.851C26.4769 36.7218 26.5086 36.4808 26.3795 36.3125C26.2504 36.1443 26.0094 36.1126 25.8411 36.2417Z" fill="#000088"/>
<path d="M26.7208 26.7195L29.7076 30.0684L31.3971 31.3959L30.0696 29.7063L26.7208 26.7195Z" fill="#000088"/>
<path d="M24.9529 34.4999C24.757 34.5811 24.6639 34.8057 24.7451 35.0016C24.8262 35.1976 25.0509 35.2906 25.2468 35.2095C25.4427 35.1283 25.5358 34.9037 25.4546 34.7077C25.3735 34.5118 25.1488 34.4188 24.9529 34.4999Z" fill="#000088"/>
<path d="M28.2685 25.5335L30.2868 29.5413L31.5752 31.2608L30.7302 29.2853L28.2685 25.5335Z" fill="#000088"/>
<path d="M24.5464 32.5934C24.3361 32.6211 24.1881 32.814 24.2158 33.0242C24.2435 33.2345 24.4364 33.3825 24.6466 33.3548C24.8569 33.3271 25.0049 33.1342 24.9772 32.924C24.9495 32.7137 24.7566 32.5657 24.5464 32.5934Z" fill="#000088"/>
<path d="M30.0684 24.7876L30.9806 29.1812L31.7801 31.1756L31.4752 29.0487L30.0684 24.7876Z" fill="#000088"/>
<path d="M24.6492 30.6416C24.439 30.6139 24.2461 30.7619 24.2184 30.9722C24.1907 31.1824 24.3387 31.3753 24.549 31.403C24.7592 31.4307 24.9521 31.2827 24.9798 31.0724C25.0075 30.8621 24.8595 30.6693 24.6492 30.6416Z" fill="#000088"/>
<path d="M32.0018 24.5312L31.7458 29.0112L32.0018 31.1445L32.2578 29.0112L32.0018 24.5312Z" fill="#000088"/>
<path d="M25.2477 28.7841C25.0518 28.703 24.8272 28.796 24.746 28.992C24.6648 29.1879 24.7579 29.4125 24.9538 29.4937C25.1498 29.5748 25.3744 29.4818 25.4555 29.2859C25.5367 29.0899 25.4437 28.8653 25.2477 28.7841Z" fill="#000088"/>
<path d="M33.9292 24.7879L32.5224 29.049L32.2176 31.1759L33.017 29.1815L33.9292 24.7879Z" fill="#000088"/>
<path d="M26.3074 27.1491C26.1392 27.02 25.8981 27.0518 25.769 27.22C25.6399 27.3883 25.6716 27.6293 25.8399 27.7584C26.0081 27.8875 26.2492 27.8558 26.3783 27.6875C26.5074 27.5193 26.4757 27.2782 26.3074 27.1491Z" fill="#000088"/>
<path d="M35.7295 25.5353L33.2678 29.2871L32.4228 31.2626L33.7112 29.5431L35.7295 25.5353Z" fill="#000088"/>
<path d="M27.7583 25.8411C27.6292 25.6729 27.3882 25.6411 27.2199 25.7702C27.0517 25.8993 27.0199 26.1404 27.149 26.3086C27.2782 26.4769 27.5192 26.5086 27.6875 26.3795C27.8557 26.2504 27.8874 26.0094 27.7583 25.8411Z" fill="#000088"/>
<path d="M37.2805 26.7208L33.9316 29.7076L32.6041 31.3971L34.2937 30.0696L37.2805 26.7208Z" fill="#000088"/>
<path d="M29.5001 24.9529C29.4189 24.757 29.1943 24.6639 28.9984 24.7451C28.8024 24.8262 28.7094 25.0509 28.7905 25.2468C28.8717 25.4427 29.0963 25.5358 29.2923 25.4546C29.4882 25.3735 29.5812 25.1488 29.5001 24.9529Z" fill="#000088"/>
<path d="M38.4665 28.2685L34.4587 30.2868L32.7392 31.5752L34.7147 30.7302L38.4665 28.2685Z" fill="#000088"/>
<path d="M31.4066 24.5464C31.3789 24.3361 31.186 24.1881 30.9758 24.2158C30.7655 24.2435 30.6175 24.4364 30.6452 24.6466C30.6729 24.8569 30.8658 25.0049 31.076 24.9772C31.2863 24.9495 31.4343 24.7566 31.4066 24.5464Z" fill="#000088"/>
<path d="M39.2124 30.0684L34.8188 30.9806L32.8244 31.7801L34.9513 31.4752L39.2124 30.0684Z" fill="#000088"/>
<path d="M33.3584 24.6492C33.3861 24.439 33.2381 24.2461 33.0278 24.2184C32.8176 24.1907 32.6247 24.3387 32.597 24.549C32.5693 24.7592 32.7173 24.9521 32.9276 24.9798C33.1379 25.0075 33.3307 24.8595 33.3584 24.6492Z" fill="#000088"/>
<path d="M39.4688 32.0018L34.9888 31.7458L32.8555 32.0018L34.9888 32.2578L39.4688 32.0018Z" fill="#000088"/>
<path d="M35.2159 25.2477C35.297 25.0518 35.204 24.8272 35.008 24.746C34.8121 24.6648 34.5875 24.7579 34.5063 24.9538C34.4252 25.1498 34.5182 25.3744 34.7141 25.4555C34.9101 25.5367 35.1347 25.4437 35.2159 25.2477Z" fill="#000088"/>
<path d="M39.2121 33.9292L34.951 32.5224L32.8241 32.2176L34.8185 33.017L39.2121 33.9292Z" fill="#000088"/>
<path d="M36.8509 26.3074C36.98 26.1392 36.9482 25.8981 36.78 25.769C36.6117 25.6399 36.3707 25.6716 36.2416 25.8399C36.1125 26.0081 36.1442 26.2492 36.3125 26.3783C36.4807 26.5074 36.7218 26.4757 36.8509 26.3074Z" fill="#000088"/>
<path d="M38.4647 35.7295L34.7129 33.2678L32.7374 32.4228L34.4569 33.7112L38.4647 35.7295Z" fill="#000088"/>
<path d="M38.1589 27.7583C38.3271 27.6292 38.3589 27.3882 38.2298 27.2199C38.1007 27.0517 37.8596 27.0199 37.6914 27.149C37.5231 27.2782 37.4914 27.5192 37.6205 27.6875C37.7496 27.8557 37.9906 27.8874 38.1589 27.7583Z" fill="#000088"/>
<path d="M37.2792 37.2805L34.2924 33.9316L32.6029 32.6041L33.9304 34.2937L37.2792 37.2805Z" fill="#000088"/>
<path d="M39.0471 29.5001C39.243 29.4189 39.3361 29.1943 39.2549 28.9984C39.1738 28.8024 38.9491 28.7094 38.7532 28.7905C38.5573 28.8717 38.4642 29.0963 38.5454 29.2923C38.6265 29.4882 38.8512 29.5812 39.0471 29.5001Z" fill="#000088"/>
<path d="M35.7315 38.4665L33.7132 34.4587L32.4248 32.7392L33.2698 34.7147L35.7315 38.4665Z" fill="#000088"/>
<path d="M39.4536 31.4066C39.6639 31.3789 39.8119 31.186 39.7842 30.9758C39.7565 30.7655 39.5636 30.6175 39.3534 30.6452C39.1431 30.6729 38.9951 30.8658 39.0228 31.076C39.0505 31.2863 39.2434 31.4343 39.4536 31.4066Z" fill="#000088"/>
<path d="M33.9316 39.2124L33.0194 34.8188L32.2199 32.8244L32.5248 34.9513L33.9316 39.2124Z" fill="#000088"/>
</g>
</g>
</g>
<defs>
<clipPath id="clip0_423_3157">
<rect width="64" height="64" rx="32" fill="white"/>
</clipPath>
<clipPath id="clip1_423_3157">
<rect width="64" height="64" fill="white"/>
</clipPath>
<clipPath id="clip2_423_3157">
<rect width="85.3333" height="64" fill="white" transform="translate(-10.668)"/>
</clipPath>
</defs>
</svg>
