<svg width="64" height="64" viewBox="0 0 64 64" fill="none" xmlns="http://www.w3.org/2000/svg">
<g clip-path="url(#clip0_423_7996)">
<g clip-path="url(#clip1_423_7996)">
<g clip-path="url(#clip2_423_7996)">
<path d="M-10.668 0H74.6654V64H-10.668V0Z" fill="#032EA1"/>
<path d="M-10.668 16H74.6654V48H-10.668V16Z" fill="#E00025"/>
<path d="M22.9844 30.1602H41.1924V37.1682H22.9844V30.1602Z" fill="white" stroke="black" stroke-width="0.16" stroke-linejoin="bevel"/>
<path d="M40.2644 34.0176H40.8244V36.6576H40.2644V34.0176ZM22.9844 32.7216H41.1924V33.5216H22.9844V32.7216ZM22.9844 31.6016H41.1924V32.3376H22.9844V31.6016Z" fill="white" stroke="black" stroke-width="0.16" stroke-linejoin="bevel"/>
<path d="M22.9844 30.5117H41.1924V31.1997H22.9844V30.5117Z" fill="white" stroke="black" stroke-width="0.144" stroke-linejoin="bevel"/>
<path d="M27.7845 34.0156H28.3605V36.6556H27.7845V34.0156ZM35.6245 34.0156H36.2005V36.6556H35.6245V34.0156ZM23.1445 34.0156H23.7045V36.6556H23.1445V34.0156ZM24.2645 34.0156H24.8245V36.6556H24.2645V34.0156ZM25.4645 34.0156H26.0245V36.6556H25.4645V34.0156ZM26.6645 34.0156H27.2245V36.6556H26.6645V34.0156ZM36.7125 34.0156H37.2885V36.6556H36.7125V34.0156ZM37.9125 34.0156H38.4885V36.6556H37.9125V34.0156ZM39.1125 34.0156H39.6885V36.6556H39.1125V34.0156Z" fill="white" stroke="black" stroke-width="0.16" stroke-linejoin="bevel"/>
<path d="M15.8633 37.5199C16.1978 37.3377 16.4498 37.0342 16.5673 36.6719H47.4633C47.5808 37.0342 47.8327 37.3377 48.1673 37.5199H15.8633Z" fill="white" stroke="black" stroke-width="0.16"/>
<path d="M31.623 19.4884C31.623 19.4884 31.607 18.8324 31.991 18.8164C32.359 18.8164 32.343 19.4884 32.343 19.4884H31.623ZM29.623 28.2084V27.3284C29.623 26.8804 29.175 26.8484 29.175 26.5284C29.175 26.5284 29.111 26.0484 29.239 25.8244C29.415 26.4644 29.719 26.3524 29.719 26.0804C29.719 25.8564 29.559 25.6324 29.191 25.0724C29.063 24.8964 29.143 24.3364 29.303 24.1284C29.367 24.6084 29.447 24.8484 29.655 24.8484C29.783 24.8484 29.879 24.7684 29.879 24.5284C29.879 24.2084 29.671 24.0484 29.559 23.7604C29.5038 23.6171 29.4911 23.4609 29.5223 23.3105C29.5535 23.1602 29.6273 23.022 29.735 22.9124C29.815 23.3924 29.799 23.5844 30.007 23.5844C30.439 23.4404 30.007 22.8164 29.911 22.6564C29.815 22.4804 30.071 22.1124 30.071 22.1124C30.199 22.5444 30.231 22.5764 30.391 22.5284C30.583 22.4804 30.551 22.2084 30.327 21.9844C30.183 21.8244 30.199 21.6164 30.359 21.4564C30.519 21.7604 30.711 21.7444 30.727 21.5524L30.599 20.8484H33.383L33.239 21.5364C33.207 21.7284 33.463 21.7764 33.623 21.4564C33.783 21.6164 33.799 21.8404 33.655 21.9844C33.431 22.2084 33.399 22.4804 33.591 22.5284C33.751 22.5764 33.783 22.5284 33.911 22.1124C33.911 22.1124 34.151 22.3524 34.071 22.6564C33.975 22.8164 33.543 23.4564 33.975 23.5844C34.183 23.5844 34.167 23.3924 34.247 22.9124C34.3519 23.0237 34.4228 23.1627 34.4511 23.313C34.4795 23.4633 34.4642 23.6186 34.407 23.7604C34.311 24.0484 34.087 24.2084 34.087 24.5284C34.087 24.7684 34.199 24.8484 34.327 24.8484C34.535 24.8484 34.615 24.6244 34.679 24.1284C34.839 24.3364 34.919 24.8964 34.791 25.0884C34.423 25.6324 34.247 25.8564 34.247 26.0804C34.247 26.3524 34.567 26.4644 34.727 25.8244C34.871 26.0484 34.807 26.5284 34.807 26.5284C34.807 26.8484 34.375 26.8804 34.359 27.3284V28.2084H29.623ZM30.775 20.8484L30.711 20.3524H33.255L33.191 20.8484H30.775ZM30.935 20.3364L30.903 19.9364H33.063L33.015 20.3364H30.935ZM31.303 19.9204L31.255 19.5044H32.695L32.679 19.9204H31.303ZM36.583 37.5204C36.263 37.4084 35.783 37.0564 35.783 36.7204V32.8324L36.199 32.2884H27.783L28.183 32.8324V36.7204C28.183 37.0564 27.863 37.4084 27.543 37.5204H36.583Z" fill="white" stroke="black" stroke-width="0.16"/>
<path d="M29.2578 34.0156H29.8338V36.6556H29.2578V34.0156ZM34.1218 34.0156H34.6978V36.6556H34.1218V34.0156Z" fill="white" stroke="black" stroke-width="0.16" stroke-linejoin="bevel"/>
<path d="M27.6254 27.8711V32.2871H36.2654V27.8711C36.1656 27.9076 36.0758 27.9672 36.0035 28.045C35.9312 28.1229 35.8784 28.2168 35.8494 28.3191V30.2071H28.0574V28.3191C28.0574 28.3191 27.9614 27.9991 27.6094 27.8711H27.6254Z" fill="white" stroke="black" stroke-width="0.16"/>
<path d="M35.0804 37.5202C34.7924 37.4082 34.1844 37.0562 34.1844 36.7202V32.3682C34.2484 32.1282 34.5684 31.9842 34.7764 31.8242H29.0644C29.3364 31.9842 29.6404 32.0962 29.7524 32.3682V36.7202C29.7524 37.0562 29.2724 37.4082 28.9844 37.5202H35.0804Z" fill="white" stroke="black" stroke-width="0.16"/>
<path d="M35.8467 31.8736V28.7376H35.0627V28.4336H28.8547V28.7536H28.0547V31.8736H35.8467ZM33.8627 37.5216C33.5747 37.4096 33.1747 37.0576 33.1747 36.7216V33.0096L33.3987 32.6736H30.5667L30.8067 32.9936V36.7216C30.8067 37.0576 30.3907 37.4096 30.1187 37.5216H33.8627Z" fill="white" stroke="black" stroke-width="0.16"/>
<path d="M31.2578 32.6719H32.6978V37.5199H31.2578V32.6719Z" fill="white" stroke="black" stroke-width="0.16"/>
<path d="M33.4497 31.6002C33.4497 31.2802 34.3777 31.2642 34.8577 30.9922H29.0977C29.5777 31.2642 30.4897 31.2802 30.4897 31.6002L30.6817 32.2242L33.0817 32.3202L33.4497 31.6002Z" fill="white" stroke="black" stroke-width="0.16" stroke-linejoin="bevel"/>
<path d="M34.5693 28.2065C34.5693 27.4225 34.6013 27.1345 34.8413 27.1345V29.5985C34.2493 29.8225 33.8333 30.5585 33.8333 30.5585H30.1213C30.1213 30.5585 29.7053 29.8225 29.1133 29.5985V27.1185C29.4013 27.1185 29.4013 27.4385 29.4013 28.1905L34.5693 28.2065ZM34.8413 27.8865C34.8413 26.9905 35.6253 26.8945 35.6253 26.8945V27.6945C35.3213 27.6785 35.1773 27.9505 35.1773 28.3345C35.1773 28.7345 35.4173 28.7345 35.4173 28.7345V31.0065H34.8413V27.8865Z" fill="white" stroke="black" stroke-width="0.16"/>
<path d="M29.1121 27.8865C29.1121 26.9905 28.3281 26.8945 28.3281 26.8945V27.6945C28.6321 27.6785 28.7761 27.9505 28.7761 28.3345C28.7761 28.7345 28.5361 28.7345 28.5361 28.7345V31.0065H29.1121V27.8865Z" fill="white" stroke="black" stroke-width="0.16"/>
<path d="M30.631 21.6953H33.383M30.311 22.5593H33.671M29.991 23.5993H33.975M29.655 24.8633H34.375M29.543 26.3033H34.407" stroke="black" stroke-width="0.128"/>
<path d="M28.0703 31.0391H35.8463M30.5343 31.0391H33.4143V32.0951H30.5343V31.0391Z" stroke="black" stroke-width="0.16"/>
<path d="M30.1836 28.6716C30.6636 29.2476 30.5996 30.2236 30.5996 30.7996H33.3836C33.3836 30.2236 33.3196 29.2476 33.7996 28.6716H30.1836ZM31.7356 22.1116L31.3516 21.9036V21.3436C31.5116 21.3916 31.6716 21.4076 31.7036 21.6636C31.7516 21.2956 31.8636 21.3276 32.0076 21.1836C32.1676 21.3276 32.2476 21.2956 32.3116 21.6636C32.3116 21.4076 32.5036 21.3916 32.6476 21.3436V21.9036L32.2796 22.0956L31.7356 22.1116Z" fill="white" stroke="black" stroke-width="0.16"/>
<path d="M31.7025 23.0237L31.0625 22.5757V22.0797C31.3025 22.1277 31.5425 22.1597 31.5745 22.4317C31.6385 22.0317 31.7825 21.8397 32.0065 21.6797C32.2145 21.8397 32.3585 22.0317 32.4385 22.4317C32.4545 22.1597 32.7105 22.1277 32.9185 22.0797V22.5917L32.2945 23.0237H31.7025Z" fill="white" stroke="black" stroke-width="0.16"/>
<path d="M31.6544 24.4488L30.9344 23.8088V23.0568C31.1904 23.1208 31.4784 23.1528 31.5104 23.5528C31.5904 22.9928 31.7504 22.6888 31.9904 22.4648C32.2464 22.6888 32.4064 22.9928 32.5024 23.5528C32.5344 23.1528 32.8224 23.1208 33.0784 23.0568V23.8088L32.3424 24.4488H31.6544ZM32.9984 25.2968L32.3584 26.2088H31.6064L30.9504 25.2968H32.9984ZM30.5664 26.8168C30.8864 26.9928 31.0144 27.3608 31.0464 28.0328H32.9024C32.9344 27.3608 33.0624 26.9928 33.3824 26.8168H30.5664Z" fill="white" stroke="black" stroke-width="0.16"/>
<path d="M33.4152 25.2788V24.3828C33.2774 24.4121 33.1494 24.476 33.043 24.5683C32.9367 24.6607 32.8555 24.7785 32.8072 24.9108C32.8072 24.5908 32.4072 23.9028 31.9752 23.5508C31.5432 23.9348 31.1272 24.5748 31.1432 24.8948C31.0632 24.6548 30.8552 24.4628 30.5352 24.3828V25.2948L33.4152 25.2788Z" fill="white" stroke="black" stroke-width="0.16" stroke-linejoin="bevel"/>
<path d="M33.5423 26.8178V25.9218C33.2063 26.0178 32.9823 26.1938 32.8863 26.4498C32.8863 26.1298 32.4543 25.4418 31.9743 25.0898C31.4943 25.4898 31.0463 26.1138 31.0623 26.4498C30.9823 26.2098 30.7423 26.0178 30.4062 25.9218V26.8338L33.5423 26.8178Z" fill="white" stroke="black" stroke-width="0.16" stroke-linejoin="bevel"/>
<path d="M33.9278 28.6873V27.6313C33.5946 27.7354 33.3068 27.9498 33.1118 28.2393C33.1118 27.6793 32.4718 26.7993 31.9758 26.5273C31.4638 26.8153 30.8398 27.7113 30.8398 28.2393C30.6398 27.9478 30.3463 27.7333 30.0078 27.6313V28.6873H33.9278Z" fill="white" stroke="black" stroke-width="0.16" stroke-linejoin="bevel"/>
<path d="M33.7021 31.0409V29.9529C33.3181 30.0969 33.2221 30.4489 33.0941 30.7049C33.1421 29.6009 32.4861 28.4329 31.9741 28.1289C31.4621 28.4329 30.7901 29.6329 30.8541 30.6889C30.7261 30.4649 30.6141 30.0969 30.2461 29.9529V31.0249L33.7021 31.0409Z" fill="white" stroke="black" stroke-width="0.16" stroke-linejoin="bevel"/>
<path d="M33.4479 32.6712V31.5832C33.0479 31.6792 33.0319 31.8232 32.9039 32.0632C32.9519 31.4072 32.4879 30.6552 31.9759 30.3672C31.4639 30.6552 31.0159 31.4072 31.0479 32.0632C30.9199 31.8232 30.9039 31.6792 30.5039 31.5832V32.6712H33.4479Z" fill="white" stroke="black" stroke-width="0.16"/>
<path d="M16.5837 36.6721V33.4081C16.4717 32.9921 16.1037 32.6081 15.8477 32.5441V29.6641L16.4397 29.9841L17.1277 33.0081V36.6881L16.5837 36.6721Z" fill="white" stroke="black" stroke-width="0.16"/>
<path d="M16.5837 36.6887V33.4087C16.4717 32.9927 16.1037 32.6087 15.8477 32.5447V29.4727C16.2477 29.4727 16.4397 29.9847 16.4397 29.9847L17.1277 33.0087V36.6727L16.5837 36.6887Z" fill="white" stroke="black" stroke-width="0.16"/>
<path d="M16.1523 37.5207C16.4243 37.4087 16.8243 37.0567 16.8243 36.7207V32.6247L16.6323 32.3047H23.6243L23.3523 32.6247V36.7207C23.3641 36.8903 23.4206 37.0537 23.5162 37.1942C23.6118 37.3348 23.743 37.4474 23.8963 37.5207H16.1523Z" fill="white" stroke="black" stroke-width="0.16"/>
<path d="M22.471 37.5211C22.199 37.4091 21.799 37.0571 21.799 36.7211V32.8331L22.375 32.2891H17.639L18.215 32.8331V36.7211C18.215 37.0571 17.815 37.4091 17.543 37.5211H22.471Z" fill="white" stroke="black" stroke-width="0.16"/>
<path d="M21.8152 37.5199C21.5432 37.4079 21.1272 37.0559 21.1272 36.7199V33.1999L21.5112 32.6719H18.5032L18.8872 33.1999V36.7199C18.8872 37.0559 18.4872 37.4079 18.1992 37.5199H21.8152Z" fill="white" stroke="black" stroke-width="0.16"/>
<path d="M19.3051 32.6719H20.7291V37.5359H19.2891L19.3051 32.6719Z" fill="white" stroke="black" stroke-width="0.16"/>
<path d="M17.3358 34.0186H17.9118V36.6586H17.3358V34.0186ZM22.2638 34.0186H22.8238V36.6586H22.2478L22.2638 34.0186ZM16.8398 29.5706H17.5438V32.2906H16.8398V29.5706ZM16.8398 29.0586H17.5278V29.5706H16.8398V29.0586ZM22.5358 30.1626H23.5118V32.2426H22.5358V30.1626Z" fill="white"/>
<path d="M16.8398 29.5706H17.5438V32.2906H16.8398V29.5706ZM16.8398 29.5706H17.5278V29.0586H16.8398V29.5706ZM17.3358 34.0186H17.9118V36.6586H17.3358V34.0186ZM22.2638 34.0186H22.8238V36.6586H22.2478L22.2638 34.0186ZM22.5358 30.1626H23.5118V32.2426H22.5358V30.1626Z" stroke="black" stroke-width="0.16" stroke-linejoin="bevel"/>
<path d="M17.5259 32.257V27.617C17.7179 27.617 17.7499 28.305 18.1979 28.305C18.4379 28.305 18.4219 28.017 18.2779 27.793C18.1659 27.585 18.0219 27.313 18.2139 26.785C18.3579 27.185 18.7099 27.313 18.6459 27.073C18.5339 26.641 18.1979 26.561 18.4539 25.905C18.5339 26.449 18.8859 26.433 18.8059 26.113C18.7099 25.745 18.5019 25.585 18.7579 25.073C18.9019 25.665 19.0779 25.633 19.0779 25.265C19.0779 24.721 19.0779 24.145 19.7499 23.937C19.7499 23.937 19.7979 23.457 20.0539 23.457C20.2939 23.457 20.3419 23.937 20.3419 23.937C21.0299 24.145 21.0139 24.737 21.0139 25.265C21.0139 25.633 21.1899 25.665 21.3339 25.073C21.5899 25.585 21.3819 25.745 21.2859 26.113C21.2059 26.433 21.5579 26.449 21.6379 25.905C21.8939 26.561 21.5579 26.641 21.4459 27.073C21.3819 27.313 21.7339 27.185 21.8779 26.785C22.0699 27.313 21.9259 27.585 21.8139 27.793C21.6859 28.017 21.6539 28.305 21.8939 28.305C22.3419 28.305 22.3739 27.633 22.5659 27.633V32.257H17.5259ZM16.4219 28.753V32.289H16.8219V28.753C16.6779 28.673 16.5499 28.673 16.4219 28.753Z" fill="white" stroke="black" stroke-width="0.16"/>
<path d="M16.457 31.0396C16.953 31.2956 17.449 31.5996 17.577 32.2876H16.457V31.0396ZM23.369 29.9836V32.2876H23.689V29.9836C23.593 29.9356 23.449 29.9196 23.369 29.9836Z" fill="white" stroke="black" stroke-width="0.16"/>
<path d="M23.6868 31.0415C23.1908 31.2815 22.6948 31.5695 22.5668 32.2735H23.6868V31.0415ZM20.3908 25.6495L20.6788 25.4095V25.0895C20.5828 25.0895 20.5188 25.1375 20.4388 25.2495C20.4078 25.1468 20.3563 25.0513 20.2876 24.9689C20.2189 24.8864 20.1343 24.8186 20.0388 24.7695C19.942 24.8151 19.8552 24.8797 19.7838 24.9594C19.7123 25.0391 19.6576 25.1323 19.6228 25.2335C19.5428 25.1215 19.4948 25.1055 19.3828 25.0735V25.3935L19.6708 25.6495H20.3908Z" fill="white" stroke="black" stroke-width="0.16"/>
<path d="M20.5508 26.4342L20.6788 26.1302V25.7302C20.5828 25.7302 20.5188 25.7782 20.4388 25.8902C20.4078 25.7874 20.3563 25.692 20.2876 25.6095C20.2189 25.527 20.1343 25.4592 20.0388 25.4102C19.942 25.4557 19.8552 25.5203 19.7838 25.6C19.7123 25.6797 19.6576 25.7729 19.6228 25.8742C19.5428 25.7622 19.4948 25.7462 19.3828 25.7302V26.1302L19.5108 26.4342H20.5508Z" fill="white" stroke="black" stroke-width="0.16"/>
<path d="M20.5825 27.4897L20.9985 26.9617V26.4497C20.8385 26.4497 20.7585 26.5297 20.6465 26.7057C20.5345 26.3377 20.3265 26.2737 20.0385 26.0977C19.7345 26.2577 19.5265 26.3377 19.4305 26.6897C19.3025 26.5137 19.2225 26.4657 19.0625 26.4497V26.9617L19.4945 27.4897H20.5825Z" fill="white" stroke="black" stroke-width="0.16"/>
<path d="M20.6958 28.5288C20.6958 28.5288 21.2078 28.0968 21.2238 27.8568V27.2968C21.0318 27.3128 20.8558 27.3608 20.7118 27.6008C20.5838 27.1368 20.3918 27.0088 20.0398 26.8008C19.6718 27.0088 19.4798 27.1368 19.3678 27.6008C19.2078 27.3608 19.0478 27.3128 18.8398 27.2808V27.8568C18.9742 28.1106 19.1531 28.3382 19.3678 28.5288H20.6958Z" fill="white" stroke="black" stroke-width="0.16"/>
<path d="M20.905 30.4472C20.905 30.4472 21.609 29.6952 21.625 29.3912V28.5272C21.369 28.5592 21.113 28.7352 20.921 29.1032C20.761 28.3832 20.505 27.8872 20.041 27.5352C19.561 27.8872 19.305 28.3832 19.145 29.1032C18.953 28.7352 18.713 28.5592 18.457 28.5272V29.3912C18.505 29.6952 19.161 30.4472 19.161 30.4472H20.905Z" fill="white" stroke="black" stroke-width="0.16"/>
<path d="M20.905 31.5849C20.905 31.5849 21.497 30.9929 21.625 30.7369V29.8729C21.369 29.9049 21.113 30.0809 20.921 30.4329C20.8782 30.1418 20.7785 29.862 20.6275 29.6094C20.4765 29.3568 20.2772 29.1365 20.041 28.9609C19.561 29.3129 19.305 29.7129 19.145 30.4329C18.953 30.0809 18.713 29.9049 18.457 29.8729V30.7369C18.617 30.9929 19.161 31.5849 19.161 31.5849H20.905Z" fill="white" stroke="black" stroke-width="0.16"/>
<path d="M21.1435 32.2587C20.9835 31.5067 20.8235 30.9467 20.0075 30.3867C19.1755 30.9467 19.0315 31.5067 18.8555 32.2587H21.1435Z" fill="white" stroke="black" stroke-width="0.16"/>
<path d="M21.577 32.6729V31.5849C21.193 31.7449 20.857 31.9529 20.729 32.1929C20.601 31.5849 20.329 31.3289 19.993 30.9609C19.657 31.3289 19.433 31.6009 19.289 32.1929C19.161 31.9529 18.825 31.7289 18.457 31.5849V32.6729H21.577Z" fill="white" stroke="black" stroke-width="0.16"/>
<path d="M47.4163 36.6721V33.4081C47.5283 32.9921 47.8963 32.6081 48.1523 32.5441V29.6641L47.5603 29.9841L46.8723 33.0081V36.6881L47.4163 36.6721Z" fill="white" stroke="black" stroke-width="0.16"/>
<path d="M47.4163 36.6887V33.4087C47.5283 32.9927 47.8963 32.6087 48.1523 32.5447V29.4727C47.7523 29.4727 47.5603 29.9847 47.5603 29.9847L46.8723 33.0087V36.6727L47.4163 36.6887Z" fill="white" stroke="black" stroke-width="0.16"/>
<path d="M47.8477 37.5207C47.5757 37.4087 47.1757 37.0567 47.1757 36.7207V32.6247L47.3677 32.3047H40.3757L40.6477 32.6247V36.7207C40.6359 36.8903 40.5794 37.0537 40.4838 37.1942C40.3882 37.3348 40.257 37.4474 40.1037 37.5207H47.8477Z" fill="white" stroke="black" stroke-width="0.16"/>
<path d="M41.529 37.5211C41.801 37.4091 42.201 37.0571 42.201 36.7211V32.8331L41.625 32.2891H46.361L45.785 32.8331V36.7211C45.785 37.0571 46.185 37.4091 46.457 37.5211H41.529Z" fill="white" stroke="black" stroke-width="0.16"/>
<path d="M42.1848 37.5199C42.4568 37.4079 42.8728 37.0559 42.8728 36.7199V33.1999L42.4888 32.6719H45.4968L45.1128 33.1999V36.7199C45.1128 37.0559 45.5128 37.4079 45.8008 37.5199H42.1848Z" fill="white" stroke="black" stroke-width="0.16"/>
<path d="M44.6949 32.6719H43.2709V37.5359H44.7109L44.6949 32.6719Z" fill="white" stroke="black" stroke-width="0.16"/>
<path d="M46.6642 34.0186H46.0882V36.6586H46.6642V34.0186ZM41.7362 34.0186H41.1762V36.6586H41.7522L41.7362 34.0186ZM47.1602 29.5706H46.4562V32.2906H47.1602V29.5706ZM47.1602 29.0586H46.4722V29.5706H47.1602V29.0586ZM41.4642 30.1626H40.4882V32.2426H41.4642V30.1626Z" fill="white"/>
<path d="M47.1602 29.5706H46.4562V32.2906H47.1602V29.5706ZM47.1602 29.5706H46.4722V29.0586H47.1602V29.5706ZM46.6642 34.0186H46.0882V36.6586H46.6642V34.0186ZM41.7362 34.0186H41.1762V36.6586H41.7522L41.7362 34.0186ZM41.4642 30.1626H40.4882V32.2426H41.4642V30.1626Z" stroke="black" stroke-width="0.16" stroke-linejoin="bevel"/>
<path d="M46.4741 32.257V27.617C46.2821 27.617 46.2501 28.305 45.8021 28.305C45.5621 28.305 45.5781 28.017 45.7221 27.793C45.8341 27.585 45.9781 27.313 45.7861 26.785C45.6421 27.185 45.2901 27.313 45.3541 27.073C45.4661 26.641 45.8021 26.561 45.5461 25.905C45.4661 26.449 45.1141 26.433 45.1941 26.113C45.2901 25.745 45.4981 25.585 45.2421 25.073C45.0981 25.665 44.9221 25.633 44.9221 25.265C44.9221 24.721 44.9221 24.145 44.2501 23.937C44.2501 23.937 44.2021 23.457 43.9461 23.457C43.7061 23.457 43.6581 23.937 43.6581 23.937C42.9701 24.145 42.9861 24.737 42.9861 25.265C42.9861 25.633 42.8101 25.665 42.6661 25.073C42.4101 25.585 42.6181 25.745 42.7141 26.113C42.7941 26.433 42.4421 26.449 42.3621 25.905C42.1061 26.561 42.4421 26.641 42.5541 27.073C42.6181 27.313 42.2661 27.185 42.1221 26.785C41.9301 27.313 42.0741 27.585 42.1861 27.793C42.3141 28.017 42.3461 28.305 42.1061 28.305C41.6581 28.305 41.6261 27.633 41.4341 27.633V32.257H46.4741ZM47.5781 28.753V32.289H47.1781V28.753C47.3221 28.673 47.4501 28.673 47.5781 28.753Z" fill="white" stroke="black" stroke-width="0.16"/>
<path d="M47.543 31.0396C47.047 31.2956 46.551 31.5996 46.423 32.2876H47.543V31.0396ZM40.631 29.9836V32.2876H40.311V29.9836C40.407 29.9356 40.551 29.9196 40.631 29.9836Z" fill="white" stroke="black" stroke-width="0.16"/>
<path d="M40.3132 31.0415C40.8092 31.2815 41.3052 31.5695 41.4332 32.2735H40.3132V31.0415ZM43.6092 25.6495L43.3212 25.4095V25.0895C43.4172 25.0895 43.4812 25.1375 43.5612 25.2495C43.5922 25.1468 43.6437 25.0513 43.7124 24.9689C43.7811 24.8864 43.8657 24.8186 43.9612 24.7695C44.058 24.8151 44.1448 24.8797 44.2162 24.9594C44.2877 25.0391 44.3424 25.1323 44.3772 25.2335C44.4572 25.1215 44.5052 25.1055 44.6172 25.0735V25.3935L44.3292 25.6495H43.6092Z" fill="white" stroke="black" stroke-width="0.16"/>
<path d="M43.4492 26.4342L43.3212 26.1302V25.7302C43.4172 25.7302 43.4812 25.7782 43.5612 25.8902C43.5922 25.7874 43.6437 25.692 43.7124 25.6095C43.7811 25.527 43.8657 25.4592 43.9612 25.4102C44.058 25.4557 44.1448 25.5203 44.2162 25.6C44.2877 25.6797 44.3424 25.7729 44.3772 25.8742C44.4572 25.7622 44.5052 25.7462 44.6172 25.7302V26.1302L44.4892 26.4342H43.4492Z" fill="white" stroke="black" stroke-width="0.16"/>
<path d="M43.4175 27.4897L43.0015 26.9617V26.4497C43.1615 26.4497 43.2415 26.5297 43.3535 26.7057C43.4655 26.3377 43.6735 26.2737 43.9615 26.0977C44.2655 26.2577 44.4735 26.3377 44.5695 26.6897C44.6975 26.5137 44.7775 26.4657 44.9375 26.4497V26.9617L44.5055 27.4897H43.4175Z" fill="white" stroke="black" stroke-width="0.16"/>
<path d="M43.3042 28.5288C43.3042 28.5288 42.7922 28.0968 42.7762 27.8568V27.2968C42.9682 27.3128 43.1442 27.3608 43.2882 27.6008C43.4162 27.1368 43.6082 27.0088 43.9602 26.8008C44.3282 27.0088 44.5202 27.1368 44.6322 27.6008C44.7922 27.3608 44.9522 27.3128 45.1602 27.2808V27.8568C45.0258 28.1106 44.8469 28.3382 44.6322 28.5288H43.3042Z" fill="white" stroke="black" stroke-width="0.16"/>
<path d="M43.095 30.4472C43.095 30.4472 42.391 29.6952 42.375 29.3912V28.5272C42.631 28.5592 42.887 28.7352 43.079 29.1032C43.239 28.3832 43.495 27.8872 43.959 27.5352C44.439 27.8872 44.695 28.3832 44.855 29.1032C45.047 28.7352 45.287 28.5592 45.543 28.5272V29.3912C45.495 29.6952 44.839 30.4472 44.839 30.4472H43.095Z" fill="white" stroke="black" stroke-width="0.16"/>
<path d="M43.095 31.5849C43.095 31.5849 42.503 30.9929 42.375 30.7369V29.8729C42.631 29.9049 42.887 30.0809 43.079 30.4329C43.1218 30.1418 43.2215 29.862 43.3725 29.6094C43.5235 29.3568 43.7228 29.1365 43.959 28.9609C44.439 29.3129 44.695 29.7129 44.855 30.4329C45.047 30.0809 45.287 29.9049 45.543 29.8729V30.7369C45.383 30.9929 44.839 31.5849 44.839 31.5849H43.095Z" fill="white" stroke="black" stroke-width="0.16"/>
<path d="M42.8565 32.2587C43.0165 31.5067 43.1765 30.9467 43.9925 30.3867C44.8245 30.9467 44.9685 31.5067 45.1445 32.2587H42.8565Z" fill="white" stroke="black" stroke-width="0.16"/>
<path d="M42.423 32.6729V31.5849C42.807 31.7449 43.143 31.9529 43.271 32.1929C43.399 31.5849 43.671 31.3289 44.007 30.9609C44.343 31.3289 44.567 31.6009 44.711 32.1929C44.839 31.9529 45.175 31.7289 45.543 31.5849V32.6729H42.423Z" fill="white" stroke="black" stroke-width="0.16"/>
<path d="M12.3759 41.4885H51.6239V43.4885H12.3759V41.4885ZM11.3359 43.4885H52.6639V45.4885H11.3359V43.4885ZM14.4399 38.4805H49.5439V39.7765H14.4399V38.4805Z" fill="white" stroke="black" stroke-width="0.16"/>
<path d="M13.4141 39.7763H50.5981V41.4723H13.4141V39.7763ZM15.0461 37.4883H48.9661V38.4803H15.0461V37.4883Z" fill="white" stroke="black" stroke-width="0.16"/>
<path d="M18.7266 37.4883H21.2866V45.4883H18.7266V37.4883Z" fill="white" stroke="black" stroke-width="0.16"/>
<path d="M19.3051 37.4883H20.7291V45.4883H19.2891L19.3051 37.4883ZM30.6651 37.4883H33.2251V45.4883H30.6651V37.4883Z" fill="white" stroke="black" stroke-width="0.16"/>
<path d="M31.2578 37.4883H32.6978V45.4883H31.2578V37.4883ZM42.6978 37.4883H45.2578V45.4883H42.6978V37.4883Z" fill="white" stroke="black" stroke-width="0.16"/>
<path d="M43.2578 37.4883H44.6978V45.4883H43.2578V37.4883Z" fill="white" stroke="black" stroke-width="0.16"/>
<path d="M16.582 36.6719H47.462M19.27 44.4799H20.742M19.27 43.4719H20.742M19.27 42.4799H20.742M19.27 41.4719H20.742M19.27 40.4799H20.742M19.27 39.4719H20.742M19.27 38.4799H20.742M31.27 44.4799H32.646M31.27 43.4719H32.646M31.27 42.4799H32.646M31.27 41.4719H32.646M31.27 40.4799H32.646M31.27 39.4719H32.646M31.27 38.4799H32.646M43.238 44.4799H44.71M43.238 43.4719H44.71M43.238 42.4799H44.71M43.238 41.4719H44.71M43.238 40.4799H44.71M43.238 39.4719H44.71M43.238 38.4799H44.71" stroke="black" stroke-width="0.16"/>
</g>
</g>
</g>
<defs>
<clipPath id="clip0_423_7996">
<rect width="64" height="64" rx="32" fill="white"/>
</clipPath>
<clipPath id="clip1_423_7996">
<rect width="64" height="64" fill="white"/>
</clipPath>
<clipPath id="clip2_423_7996">
<rect width="85.3333" height="64" fill="white" transform="translate(-10.668)"/>
</clipPath>
</defs>
</svg>
