<svg width="64" height="64" viewBox="0 0 64 64" fill="none" xmlns="http://www.w3.org/2000/svg">
<g clip-path="url(#clip0_423_8086)">
<g clip-path="url(#clip1_423_8086)">
<g clip-path="url(#clip2_423_8086)">
<path d="M-10.668 0H74.6654V64H-10.668V0Z" fill="#000066"/>
<path d="M-10.668 0H31.9987V32H-10.668V0Z" fill="#012169"/>
<path d="M-5.66797 0L10.5987 12.0667L26.7987 0H31.9987V4.13333L15.9987 16.0667L31.9987 27.9333V32H26.6654L10.6654 20.0667L-5.26797 32H-10.668V28L5.26537 16.1333L-10.668 4.26667V0H-5.66797Z" fill="white"/>
<path d="M17.5987 18.7333L31.9987 29.3333V32L13.932 18.7333H17.5987ZM5.33203 20.0667L5.73203 22.4L-7.06797 32H-10.668L5.33203 20.0667ZM31.9987 0V0.2L15.3987 12.7333L15.532 9.8L28.6654 0H31.9987ZM-10.668 0L5.26537 11.7333H1.26537L-10.668 2.8V0Z" fill="#C8102E"/>
<path d="M5.3987 0V32H16.0654V0H5.3987ZM-10.668 10.6667V21.3333H31.9987V10.6667H-10.668Z" fill="white"/>
<path d="M-10.668 12.8667V19.2667H31.9987V12.8667H-10.668ZM7.53203 0V32H13.932V0H7.53203Z" fill="#C8102E"/>
<path d="M63.4091 24.2421V35.0934C63.4091 44.5041 58.9594 47.734 52.9993 50.2899C47.0392 47.734 42.543 44.5041 42.543 35.0934V24.2305H63.4091V24.2421Z" fill="white" stroke="white" stroke-width="1.11534" stroke-linejoin="round"/>
<path d="M36.0709 49.4057C36.4078 50.2887 38.8011 51.4621 41.5895 49.9634C43.4832 48.8945 44.7031 47.4074 45.8766 44.7352C46.2019 44.0614 46.3762 43.2249 45.5977 42.7253C44.982 42.2722 43.9712 41.7726 43.5297 41.3311C43.309 41.0987 43.0882 40.9361 42.9256 40.7734C43.0418 40.8896 43.1463 40.9942 43.2509 41.1568C44.3662 42.4929 43.2044 44.4448 41.9729 45.6182C41.0783 46.4547 39.475 48.5111 37.1281 46.5593C36.6285 46.1178 35.4551 47.9534 36.0825 49.4057H36.0709ZM69.9261 49.4057C69.5311 50.2887 67.1378 51.4621 64.4075 49.9634C62.5254 48.8945 61.2938 47.4074 60.0739 44.7352C59.7951 44.0614 59.6208 43.2249 60.3992 42.7253C61.015 42.2722 62.0258 41.7726 62.4673 41.3311C62.688 41.0987 62.8507 40.9361 63.0714 40.7734C62.9552 40.8896 62.8507 40.9942 62.7461 41.1568C61.6308 42.4929 62.7926 44.4448 63.966 45.6182C64.8606 46.4547 66.522 48.5111 68.8689 46.5593C69.3684 46.1178 70.4838 47.9534 69.9145 49.4057H69.9261Z" fill="#FCEA83" stroke="white" stroke-width="1.11534" stroke-linejoin="round"/>
<path d="M52.9973 54.1937C57.447 54.1937 64.3017 52.1838 67.9847 45.1664C68.5888 44.0046 67.9847 43.3888 67.2527 43.0054C66.4253 42.5887 65.6718 42.0393 65.0221 41.3789C65.9167 42.2735 65.7424 42.8893 65.1382 43.8884C62.2918 48.6286 58.3997 51.022 52.9973 51.022C47.5949 51.022 43.7028 48.6286 40.8563 43.8884C40.2522 42.8893 40.0779 42.2735 40.9144 41.3905C40.2744 42.059 39.5187 42.6062 38.6838 43.0054C37.9634 43.3888 37.3477 44.0046 37.9634 45.1664C41.6348 52.1838 48.5359 54.1937 52.9973 54.1937Z" fill="#FCEA83" stroke="white" stroke-width="1.11534" stroke-linejoin="round"/>
<path d="M42.6942 44.7848C42.578 44.2272 41.8693 44.4479 41.6486 45.1218C41.3479 44.7364 41.0835 44.3242 40.8586 43.8902C40.1963 42.8911 40.0801 42.2172 41.0328 41.2762C41.4743 40.8347 42.3689 40.3235 42.9731 40.8811C44.2511 41.9384 43.5888 43.6695 42.6942 44.7848ZM63.2467 44.7848C63.3629 44.2272 64.1413 44.4479 64.362 45.1218C64.6409 44.7267 64.9197 44.3433 65.1405 43.8902C65.8027 42.8911 65.9189 42.2172 64.9081 41.2762C64.5247 40.8347 63.6301 40.3235 62.9679 40.8811C61.7363 41.9384 62.3521 43.6695 63.2467 44.7848ZM36.0719 49.4088C35.5142 48.5723 35.0727 46.3881 34.9565 45.8421C34.7939 45.3425 34.7358 44.8894 35.3516 44.6803C35.9673 44.4479 36.5134 45.2263 36.7922 45.9002C37.071 46.5624 37.5242 47.5616 38.0237 48.7931C36.7922 48.0728 35.7931 48.5607 36.0719 49.4088ZM69.9271 49.4088C70.4267 48.5723 70.8682 46.3881 71.0425 45.8421C71.1587 45.3425 71.2632 44.8894 70.6475 44.6803C70.0317 44.4479 69.4856 45.2263 69.2068 45.9002C68.928 46.5624 68.4749 47.5616 67.9753 48.7931C69.2068 48.0728 70.1479 48.5607 69.9271 49.4088Z" fill="#C8102E" stroke="white" stroke-width="1.11534" stroke-linejoin="round"/>
<path d="M48.7114 24.1843C47.991 24.3469 47.4915 24.405 46.8176 23.7893C46.3761 23.3478 46.4807 22.5694 46.9338 22.2789C47.4334 21.9536 47.8748 21.7329 48.4906 21.8955C49.1064 22.0698 50.7213 23.5685 50.3263 23.6266C49.9313 23.6266 49.3271 24.01 48.7114 24.1843ZM50.4308 21.5121C50.6632 21.3378 50.942 21.2333 51.6624 21.1636C52.3362 21.1171 52.8242 21.1171 52.9984 21.6283C53.2308 22.2324 53.3935 22.9528 53.8349 23.2897C53.5561 23.4523 52.1619 23.6266 51.6624 23.3478C51.0001 23.0109 50.8259 21.7212 50.4425 21.5121H50.4308ZM55.2291 21.5702C55.4499 21.3959 55.7287 21.3959 56.449 21.454C57.1694 21.5121 57.4482 21.5702 57.6108 22.0698C57.7851 22.6275 57.6108 23.3478 57.9594 23.8474C57.6108 23.9635 56.5071 23.9635 56.1121 23.5685C55.508 23.127 55.5544 21.8374 55.2291 21.5586V21.5702Z" fill="white" stroke="white" stroke-width="1.11534" stroke-linejoin="round"/>
<path d="M58.5617 21.8956C58.0621 21.7794 57.7252 21.7329 57.5161 21.8956C57.7833 22.2325 57.5625 23.5686 58.1202 24.0101C58.5036 24.2889 59.5144 24.3586 59.7351 23.7313C60.0139 23.1736 60.0139 22.3371 58.5733 21.8956H58.5617ZM52.8339 21.3379C52.9966 21.1753 53.3335 21.1172 53.9958 21.1172C54.7277 21.1172 55.1576 21.2334 55.3899 21.6749C55.6223 22.2325 55.5526 22.9529 55.9476 23.406C55.785 23.6267 54.2746 23.6267 53.8331 23.2898C53.2173 22.8948 53.1593 21.6168 52.8339 21.3379ZM48.1054 21.8375C48.1054 21.5587 48.4888 21.5122 49.4995 21.4541C50.4871 21.3379 50.5452 21.396 50.8821 22.1163C51.0448 22.5114 51.2655 23.1736 51.7186 23.3943C50.4871 23.6848 50.0921 23.8474 49.4298 23.4524C48.9462 23.1499 48.5466 22.7304 48.268 22.2325C48.2099 22.0699 48.2099 21.8956 48.0938 21.8375H48.1054Z" fill="#073163" stroke="white" stroke-width="1.11534" stroke-linejoin="round"/>
<path d="M48.2123 16.8879C47.8172 16.8879 47.4919 16.7252 47.2596 16.4464C46.8762 15.9352 45.8189 15.7145 45.3658 16.1676C45.2032 16.2837 44.9824 16.2837 44.8198 16.3302C44.5409 16.3302 44.204 16.6091 44.3086 17.1667C44.5409 16.9924 44.5874 17.1667 44.7617 17.1667C44.8779 17.1086 44.8198 17.2248 44.8198 17.3294C44.8198 17.6082 45.4239 18.1659 45.9816 18.1078C46.5973 18.1078 46.8762 18.3402 46.9807 18.4563C47.155 18.6074 47.0388 18.5609 47.155 18.8397C47.3177 19.0024 47.3757 19.0605 47.0969 19.2812C46.9701 19.387 46.868 19.5193 46.798 19.6689C46.728 19.8185 46.6917 19.9816 46.6917 20.1468C46.6917 20.3119 46.728 20.4751 46.798 20.6246C46.868 20.7742 46.9701 20.9066 47.0969 21.0123C47.8172 21.5584 49.6529 22.4065 51.7209 20.78C53.7192 19.2231 56.8329 20.1177 57.0653 20.6638C57.3441 21.2331 57.4487 21.5584 57.5068 21.8372C57.5649 22.0696 57.8437 22.2903 58.2387 22.2322C58.6221 22.2322 59.0636 22.3949 59.2843 22.5692C59.5748 22.7318 59.9582 22.6853 59.8536 22.1741C59.6213 20.6173 58.6802 20.3966 58.5756 19.6762C59.1217 19.7227 59.5051 19.7227 59.7374 19.502C59.9001 19.2812 60.1208 18.8862 60.3532 18.7816C60.5159 18.6655 60.5159 18.5493 60.2951 18.6074C60.0163 18.6655 59.8536 18.7816 59.3424 18.7236C56.7864 18.4447 49.6064 16.4929 48.2123 16.8879Z" fill="#059334" stroke="white" stroke-width="1.11534" stroke-linejoin="round"/>
<path d="M59.574 18.7822C59.1494 19.0818 58.7864 19.4605 58.5052 19.8975C57.9591 20.6178 56.2861 21.3382 54.2181 21.3382C52.2197 21.3382 50.9998 21.0129 50.1052 20.2925C49.7233 19.9871 49.3106 19.7224 48.8737 19.5025C48.2696 19.2237 48.1534 18.6079 48.3161 18.1083C48.1534 18.3872 48.0488 18.666 47.7119 18.6079C47.4795 18.6079 47.0381 18.6079 47.1542 18.8403C47.0961 18.7241 47.0961 18.5614 47.0381 18.4917L46.9219 18.3872C47.0961 18.5033 47.4912 18.1664 47.77 18.1664C47.9907 18.2245 48.2696 17.9457 48.2115 17.6087L48.0488 16.8884C48.4903 16.6561 54.3342 17.7249 55.5077 17.8295C56.6695 17.8876 60.0155 18.3872 59.574 18.7822Z" fill="#000001" stroke="white" stroke-width="1.11534" stroke-linejoin="round"/>
<path d="M48.9918 16.6671C49.5495 16.1095 50.2118 15.8306 50.8856 15.9933H51.0483C51.3968 15.7144 52.1636 15.6564 52.6167 15.8771H52.8375C53.4997 15.6564 54.7777 15.8771 55.2308 16.3302L55.3934 16.4464C56.9038 16.3302 57.7868 16.9924 58.844 18.0613C58.9602 18.1775 59.1229 18.3866 59.4017 18.4447C59.7386 18.5028 59.7967 18.6771 59.5179 18.8397C59.0712 19.116 58.6777 19.4701 58.3561 19.8854C57.8449 20.5592 56.2299 21.2331 54.22 21.2331C52.2798 21.2331 51.1063 20.8845 50.2118 20.2223C49.7122 19.8389 49.3288 19.6181 49.0499 19.4439C48.713 19.3277 48.2715 18.8862 48.4342 18.4447C48.5504 18.0032 48.2715 17.4455 48.0508 16.8879C48.2134 16.7717 48.6549 16.609 48.8757 16.7252L48.9918 16.6671Z" fill="#059334" stroke="white" stroke-width="1.11534" stroke-linejoin="round"/>
<path d="M58.8444 18.0613C57.7987 16.9924 56.9041 16.3302 55.3938 16.4348C55.3938 16.4929 55.3938 16.6671 55.3357 16.7833C56.3883 17.2557 57.3214 17.9584 58.066 18.8397C58.2983 18.6074 58.6817 18.3401 58.8444 18.0613ZM55.2311 16.3302C54.778 15.8887 53.5 15.6564 52.8378 15.8887C52.8378 16.1095 52.8378 16.4464 52.7216 16.6671C53.1166 16.8298 53.4419 17.2248 53.7789 17.6082C54.0112 17.5501 54.5573 17.3875 54.8361 17.3294C55.0025 17.0111 55.1349 16.6762 55.2311 16.3302ZM52.617 15.8771C52.1639 15.6564 51.3855 15.7144 51.0486 15.9933C50.9324 16.2256 50.8859 16.6671 50.8859 16.8879C51.1183 16.8879 51.4436 17.0505 51.5482 17.1667C51.8967 17.0505 52.3382 16.8298 52.5009 16.6671C52.559 16.4348 52.6635 16.1095 52.617 15.8887V15.8771ZM48.9922 16.6671C49.5499 16.1095 50.2121 15.8306 50.8859 15.9933C50.7698 16.1676 50.7233 16.4929 50.7233 16.8298C50.1075 16.7717 49.3291 16.946 48.9922 17.1667V16.6671Z" fill="#00493D" stroke="white" stroke-width="1.11534" stroke-linejoin="round"/>
<path d="M57.8442 18.9436C57.1443 18.1149 56.272 17.4488 55.2882 16.9918C55.2882 17.0499 55.172 17.2706 55.1139 17.4449C55.4509 17.9445 56.1131 19.0598 56.3919 19.6756C56.6708 19.5594 57.4492 19.2225 57.8442 18.9436ZM53.6152 20.1752C53.7115 19.4158 53.7658 18.6517 53.7779 17.8864C54.0567 17.8283 54.6144 17.6656 54.8351 17.6075C55.1139 18.0607 55.7878 19.2341 56.0666 19.7801C55.3928 19.9428 54.2774 20.2216 53.6152 20.1752ZM51.6634 17.503C51.9422 17.3868 52.3372 17.1544 52.6044 16.9453C52.8368 17.108 53.2783 17.503 53.4409 17.7237C53.4409 18.2233 53.2783 19.6756 53.2202 20.1635C52.7787 20.1635 52.0584 20.059 51.6634 19.8382C51.7214 19.0017 51.7795 18.0607 51.6634 17.503ZM48.875 18.1652C48.9331 18.049 48.9912 17.6656 48.9912 17.503C49.4327 17.2241 50.548 16.9453 51.3845 17.3868C51.4426 17.9445 51.3845 19.3386 51.3264 19.6756C50.5813 19.0696 49.7613 18.562 48.8866 18.1652H48.875Z" fill="#00493D" stroke="white" stroke-width="1.11534" stroke-linejoin="round"/>
<path d="M46.0996 17.1573C45.9835 17.1573 45.9254 16.832 45.7046 16.832C45.6465 16.832 45.4839 16.8901 45.4258 16.832C45.4258 16.9482 45.4839 17.0644 45.542 17.1109C45.6001 17.2735 45.8789 17.169 46.0996 17.169V17.1573Z" fill="#000001"/>
<path d="M46.0983 18.1082C46.7605 18.1082 46.8767 17.2717 47.2136 17.2252M46.4817 18.1663C46.9813 18.3986 47.3763 17.2252 47.7597 17.2717M45.4825 16.7256C45.6452 16.7256 45.7614 16.4933 46.0402 16.7721C46.1564 16.8883 46.319 16.9464 46.4352 16.9464M46.319 17.5505C46.0867 17.8991 45.7033 18.1082 45.4825 18.0036M45.3664 16.168C45.2037 16.2842 45.0991 16.4933 44.983 16.6675M44.8203 16.9929V17.2717" stroke="white" stroke-width="1.11534" stroke-linejoin="round"/>
<path d="M50.7792 16.1711C49.6058 15.2765 48.2116 14.44 46.9336 14.2773C48.2671 15.1664 49.533 16.1527 50.7211 17.2284" fill="black"/>
<path d="M50.7792 16.1711C49.6058 15.2765 48.2116 14.44 46.9336 14.2773C48.2671 15.1664 49.533 16.1527 50.7211 17.2284" stroke="white" stroke-width="1.11534" stroke-linejoin="round"/>
<path d="M51.4409 15.333C50.0467 14.3803 48.4318 13.3231 46.875 13.2185C48.3319 14.0628 49.6296 15.156 50.709 16.4484M53.2185 13.7762C53.8475 12.3465 54.779 11.0702 55.9488 10.0352C55.3911 11.2086 54.7869 13.6019 54.4965 14.5546" fill="black"/>
<path d="M51.4409 15.333C50.0467 14.3803 48.4318 13.3231 46.875 13.2185C48.3319 14.0628 49.6296 15.156 50.709 16.4484M53.2185 13.7762C53.8475 12.3465 54.779 11.0702 55.9488 10.0352C55.3911 11.2086 54.7869 13.6019 54.4965 14.5546" stroke="white" stroke-width="1.11534" stroke-linejoin="round"/>
<path d="M54.4492 13.4978C54.9876 12.1886 55.9999 11.1307 57.284 10.5352C56.3193 11.7388 55.6008 13.1205 55.1695 14.6015" fill="black"/>
<path d="M54.4492 13.4978C54.9876 12.1886 55.9999 11.1307 57.284 10.5352C56.3193 11.7388 55.6008 13.1205 55.1695 14.6015" stroke="white" stroke-width="1.11534" stroke-linejoin="round"/>
<path d="M54.9492 14.601C56.0159 12.9682 57.5448 11.6901 59.3409 10.9297C57.9467 12.3239 55.8903 14.8799 55.3907 15.8906M55.7276 15.8325C56.7268 15.2749 58.7367 14.3803 60.1774 14.6707C59.2944 14.996 56.6222 16.2159 55.4488 17.3429" fill="black"/>
<path d="M54.9492 14.601C56.0159 12.9682 57.5448 11.6901 59.3409 10.9297C57.9467 12.3239 55.8903 14.8799 55.3907 15.8906M55.7276 15.8325C56.7268 15.2749 58.7367 14.3803 60.1774 14.6707C59.2944 14.996 56.6222 16.2159 55.4488 17.3429" stroke="white" stroke-width="1.11534" stroke-linejoin="round"/>
<path d="M55.5063 15.4391C56.4474 14.4399 58.1785 12.9412 60.0141 12.3254C58.678 13.6034 55.8316 16.508 55.4482 16.9495M52.8341 14.835C52.1603 12.7669 51.1611 10.8267 49.6624 10.2109C50.8561 11.9176 51.6865 13.8514 52.1022 15.8922M51.5445 14.7769C50.4408 13.4408 48.9304 12.1047 47.2109 11.8259C48.8959 12.9284 50.2271 14.4936 51.0449 16.3337" fill="black"/>
<path d="M55.5063 15.4391C56.4474 14.4399 58.1785 12.9412 60.0141 12.3254C58.678 13.6034 55.8316 16.508 55.4482 16.9495M52.8341 14.835C52.1603 12.7669 51.1611 10.8267 49.6624 10.2109C50.8561 11.9176 51.6865 13.8514 52.1022 15.8922M51.5445 14.7769C50.4408 13.4408 48.9304 12.1047 47.2109 11.8259C48.8959 12.9284 50.2271 14.4936 51.0449 16.3337" stroke="white" stroke-width="1.11534" stroke-linejoin="round"/>
<path d="M52.1727 14.7162C50.7785 12.2067 49.7096 11.7652 49.1055 11.2656C49.605 12.2067 50.825 14.7162 51.5453 15.7735" fill="black"/>
<path d="M52.1727 14.7162C50.7785 12.2067 49.7096 11.7652 49.1055 11.2656C49.605 12.2067 50.825 14.7162 51.5453 15.7735" stroke="white" stroke-width="1.11534" stroke-linejoin="round"/>
<path d="M49.3828 14.5547C50.1774 15.0544 50.8582 15.7154 51.3811 16.4949" stroke="white" stroke-width="1.11534" stroke-linejoin="round"/>
<path d="M49.3828 15.7157C49.7081 15.9945 50.3239 16.3315 50.8816 16.831ZM56.0051 16.5522C56.5628 16.1107 57.7827 15.3904 58.3985 15.158ZM55.6101 16.1688C56.1678 15.4369 57.2831 14.4377 57.6782 14.1008ZM57.167 12.7066C56.4183 13.5456 55.7126 14.422 55.0525 15.3323ZM55.7263 12.207C55.199 12.987 54.7329 13.8066 54.3321 14.6585ZM51.323 12.3232C51.66 13.2178 52.2757 14.7165 52.4849 15.3323ZM50.8235 13.2643C51.0558 13.6128 51.4973 14.3796 51.66 14.9373Z" fill="black"/>
<path d="M49.3828 15.7157C49.7081 15.9945 50.3239 16.3315 50.8816 16.831M56.0051 16.5522C56.5628 16.1107 57.7827 15.3904 58.3985 15.158M55.6101 16.1688C56.1678 15.4369 57.2831 14.4377 57.6782 14.1008M57.167 12.7066C56.4183 13.5456 55.7126 14.422 55.0525 15.3323M55.7263 12.207C55.199 12.987 54.7329 13.8066 54.3321 14.6585M51.323 12.3232C51.66 13.2178 52.2757 14.7165 52.4849 15.3323M50.8235 13.2643C51.0558 13.6128 51.4973 14.3796 51.66 14.9373" stroke="white" stroke-width="1.11534" stroke-linejoin="round"/>
<path d="M52.7227 12.9831C52.7227 12.4836 53.0596 11.9375 53.3965 11.9375C53.7799 11.9375 54.0587 12.5997 54.0587 12.9831C54.0587 13.4362 53.7218 13.8196 53.3965 13.8196C53.048 13.8196 52.7227 13.4943 52.7227 12.9831Z" fill="black" stroke="white" stroke-width="1.11534" stroke-linejoin="round"/>
<path d="M51.9999 13.4365C52.058 12.8788 52.4414 12.4374 52.7783 12.4838C53.1153 12.5419 53.2779 13.2158 53.2198 13.5992C53.1617 14.0407 52.7783 14.3776 52.4995 14.3195C52.2207 14.3195 51.9418 13.9361 51.9999 13.4365ZM53.4987 13.5992C53.3825 13.0996 53.6148 12.5535 53.9518 12.4838C54.2771 12.4374 54.614 12.9834 54.6721 13.4365C54.7883 13.878 54.4978 14.3195 54.219 14.3195C53.9518 14.3776 53.5568 14.0987 53.4987 13.5992Z" fill="black" stroke="white" stroke-width="1.11534" stroke-linejoin="round"/>
<path d="M52.6641 14.0417C52.6641 13.4957 53.001 12.9961 53.3379 12.9961C53.7213 12.9961 54.0001 13.6002 54.0001 14.0417C54.0001 14.4948 53.6748 14.8782 53.3379 14.8782C53.001 14.8782 52.6641 14.5529 52.6641 14.0417Z" fill="black" stroke="white" stroke-width="1.11534" stroke-linejoin="round"/>
<path d="M51.6641 14.3211C51.6641 13.8215 52.0591 13.2754 52.3844 13.2754C52.7329 13.2754 53.0582 13.9377 53.0582 14.3211C53.0582 14.7742 52.6632 15.1576 52.3844 15.1576C52.0591 15.1576 51.6641 14.8323 51.6641 14.3211ZM53.7205 14.1003C53.7205 13.6007 54.069 13.0547 54.3943 13.0547C54.7777 13.0547 55.0566 13.7169 55.0566 14.1003C55.0566 14.5534 54.7312 14.9368 54.3943 14.9368C54.0574 14.9368 53.7205 14.5999 53.7205 14.1003Z" fill="black" stroke="white" stroke-width="1.11534" stroke-linejoin="round"/>
<path d="M53.5 14.5533C53.5 13.9957 53.895 13.4961 54.2203 13.4961C54.5689 13.4961 54.8942 14.1002 54.8942 14.5417C54.8942 14.9948 54.5572 15.3898 54.2203 15.3898C53.895 15.3898 53.5 15.0413 53.5 14.5533Z" fill="black" stroke="white" stroke-width="1.11534" stroke-linejoin="round"/>
<path d="M52.6168 15.0528C52.6168 14.4952 52.9421 13.9956 53.2791 13.9956C53.6741 13.9956 53.9529 14.6578 53.9529 15.0412C53.9529 15.5059 53.6044 15.8893 53.2791 15.8893C52.9421 15.8893 52.6052 15.5408 52.6052 15.0528H52.6168ZM51.2227 15.0528C51.2227 14.4952 51.5015 13.9956 51.7803 13.9956C52.0592 13.9956 52.2799 14.6578 52.2799 15.0412C52.2799 15.5059 52.0011 15.8893 51.7803 15.8893C51.5015 15.8893 51.2227 15.5408 51.2227 15.0528ZM54.3363 14.9483C54.3363 14.4371 54.6152 13.9375 54.894 13.9375C55.1728 13.9375 55.4517 14.5533 55.4517 14.9367C55.4517 15.4362 55.1147 15.7732 54.894 15.7732C54.6152 15.7732 54.3363 15.4362 54.3363 14.9367V14.9483Z" fill="black" stroke="white" stroke-width="1.11534" stroke-linejoin="round"/>
<path d="M54.6733 15.878C54.7895 15.3319 55.1148 14.8788 55.3355 14.9485C55.5679 14.995 55.6144 15.6572 55.5098 16.0522C55.4517 16.5518 55.1148 16.8306 54.894 16.7726C54.6617 16.7261 54.5571 16.3311 54.6617 15.8896L54.6733 15.878Z" fill="black" stroke="white" stroke-width="1.11534" stroke-linejoin="round"/>
<path d="M53.6154 15.7152C53.6735 15.2156 53.9988 14.7161 54.2777 14.7742C54.6146 14.7742 54.7772 15.4364 54.7308 15.8198C54.6727 16.331 54.3822 16.6679 54.115 16.6098C53.8362 16.6098 53.5573 16.2148 53.6154 15.7152ZM52.0586 15.8779C51.8843 15.3318 51.5474 14.9484 51.3267 14.9949C51.1059 15.053 51.0478 15.7152 51.164 16.1102C51.2802 16.5517 51.6055 16.8306 51.8262 16.7725C52.0005 16.726 52.1748 16.331 52.0586 15.8895V15.8779Z" fill="black" stroke="white" stroke-width="1.11534" stroke-linejoin="round"/>
<path d="M51.6641 15.7726C51.6641 15.273 51.9429 14.7734 52.2217 14.7734C52.5587 14.7734 52.7794 15.3892 52.7794 15.7726C52.7794 16.2722 52.5006 16.6091 52.2217 16.6091C51.9894 16.6091 51.6641 16.2722 51.6641 15.7726Z" fill="black" stroke="white" stroke-width="1.11534" stroke-linejoin="round"/>
<path d="M52.5007 15.9933C52.5007 15.4357 52.8376 14.9477 53.1629 14.9477C53.5579 14.9477 53.8367 15.5519 53.8367 15.9933C53.8367 16.4465 53.4998 16.8299 53.1629 16.8299C52.8376 16.8299 52.5007 16.4929 52.5007 15.9933ZM52.7795 9.87059C52.6633 10.3121 52.2799 10.7071 52.5471 11.3229C52.0592 11.1486 51.6177 11.0905 51.2227 11.5436C51.7222 11.4855 52.1637 11.6598 52.3845 11.9851C51.943 11.927 51.7222 12.1594 51.6061 12.4382C52.0011 12.322 52.3845 12.2058 52.5587 12.2639C52.3845 12.4382 52.1056 12.7054 52.0592 12.9378C52.3845 12.6589 52.7795 12.7054 53.0002 12.5428C52.8376 12.9378 53.1629 13.3212 53.4417 13.7046C53.3953 13.1585 53.7206 12.7751 53.5579 12.4847C54.0575 12.6009 54.1156 13.0423 54.8359 13.0423C54.5571 12.8797 54.3944 12.322 54.0575 12.322C54.2201 12.2639 54.894 12.2058 55.0102 12.322C54.894 12.0897 54.499 11.8805 54.2782 11.8805C54.5106 11.6482 54.894 11.2067 55.1728 11.0905C54.7778 11.1486 54.1737 11.2067 53.9529 11.5436C54.499 11.0905 54.3944 10.2656 54.9985 10.1494C54.6732 10.0913 54.1737 10.3121 53.7786 10.7071C53.9529 10.3702 53.9529 9.92868 54.1737 9.8125C53.7206 9.92868 53.221 10.4864 53.0583 10.7652C53.0342 10.4497 52.9389 10.1439 52.7795 9.87059Z" fill="black" stroke="white" stroke-width="1.11534" stroke-linejoin="round"/>
<path d="M53.0581 10.7651C53.0581 10.9278 53.0581 11.2647 53 11.3693ZM53.7784 10.707C53.6622 10.8232 53.4415 11.2066 53.4415 11.5435Z" fill="black"/>
<path d="M53.0581 10.7651C53.0581 10.9278 53.0581 11.2647 53 11.3693M53.7784 10.707C53.6622 10.8232 53.4415 11.2066 53.4415 11.5435" stroke="white" stroke-width="1.11534" stroke-linejoin="round"/>
<path d="M54.1138 11.3711C53.9222 11.4855 53.7811 11.6681 53.7188 11.8823" stroke="white" stroke-width="1.11534" stroke-linejoin="round"/>
<path d="M36.0709 49.4096C36.4078 50.2926 38.8011 51.466 41.5895 49.9673C43.4832 48.8984 44.7031 47.4113 45.8766 44.7391C46.2019 44.0653 46.3762 43.2288 45.5977 42.7292C44.982 42.2761 43.9712 41.7765 43.5297 41.335C43.309 41.1027 43.0882 40.94 42.9256 40.7773C43.0418 40.8935 43.1463 40.9981 43.2509 41.1607C44.3662 42.4968 43.2044 44.4487 41.9729 45.6221C41.0783 46.4586 39.475 48.515 37.1281 46.5632C36.6285 46.1217 35.4551 47.9574 36.0825 49.4096H36.0709ZM69.9261 49.4096C69.5311 50.2926 67.1378 51.466 64.4075 49.9673C62.5254 48.8984 61.2938 47.4113 60.0739 44.7391C59.7951 44.0653 59.6208 43.2288 60.3992 42.7292C61.015 42.2761 62.0258 41.7765 62.4673 41.335C62.688 41.1027 62.8507 40.94 63.0714 40.7773C62.9552 40.8935 62.8507 40.9981 62.7461 41.1607C61.6308 42.4968 62.7926 44.4487 63.966 45.6221C64.8606 46.4586 66.522 48.515 68.8689 46.5632C69.3684 46.1217 70.4838 47.9574 69.9145 49.4096H69.9261Z" fill="#FCEA83" stroke="black" stroke-width="0.162654"/>
<path d="M52.9973 54.1976C57.447 54.1976 64.3017 52.1877 67.9847 45.1703C68.5888 44.0085 67.9847 43.3927 67.2527 43.0094C66.4253 42.5926 65.6718 42.0432 65.0221 41.3828C65.9167 42.2774 65.7424 42.8932 65.1382 43.8923C62.2918 48.6325 58.3997 51.0259 52.9973 51.0259C47.5949 51.0259 43.7028 48.6325 40.8563 43.8923C40.2522 42.8932 40.0779 42.2774 40.9144 41.3944C40.2744 42.0629 39.5187 42.6101 38.6838 43.0094C37.9634 43.3927 37.3477 44.0085 37.9634 45.1703C41.6348 52.1877 48.5359 54.1976 52.9973 54.1976Z" fill="#FCEA83" stroke="black" stroke-width="0.162654"/>
<path d="M42.6942 44.7848C42.578 44.2272 41.8693 44.4479 41.6486 45.1218C41.3479 44.7364 41.0835 44.3242 40.8586 43.8902C40.1963 42.8911 40.0801 42.2172 41.0328 41.2762C41.4743 40.8347 42.3689 40.3235 42.9731 40.8811C44.2511 41.9384 43.5888 43.6695 42.6942 44.7848ZM63.2467 44.7848C63.3629 44.2272 64.1413 44.4479 64.362 45.1218C64.6409 44.7267 64.9197 44.3433 65.1405 43.8902C65.8027 42.8911 65.9189 42.2172 64.9081 41.2762C64.5247 40.8347 63.6301 40.3235 62.9679 40.8811C61.7363 41.9384 62.3521 43.6695 63.2467 44.7848ZM36.0719 49.4088C35.5142 48.5723 35.0727 46.3881 34.9565 45.8421C34.7939 45.3425 34.7358 44.8894 35.3516 44.6803C35.9673 44.4479 36.5134 45.2263 36.7922 45.9002C37.071 46.5624 37.5242 47.5616 38.0237 48.7931C36.7922 48.0728 35.7931 48.5607 36.0719 49.4088ZM69.9271 49.4088C70.4267 48.5723 70.8682 46.3881 71.0425 45.8421C71.1587 45.3425 71.2632 44.8894 70.6475 44.6803C70.0317 44.4479 69.4856 45.2263 69.2068 45.9002C68.928 46.5624 68.4749 47.5616 67.9753 48.7931C69.2068 48.0728 70.1479 48.5607 69.9271 49.4088Z" fill="#C8102E" stroke="black" stroke-width="0.162654"/>
<path d="M39.3014 44.3922L38.8599 44.6246C38.7437 44.671 38.7437 44.7872 38.7437 44.8453H38.6856L38.4648 44.3457H38.5229C38.5229 44.3922 38.581 44.4619 38.6856 44.3922L39.6383 43.8926C39.7545 43.8345 39.7545 43.7764 39.6964 43.73L39.7428 43.6719L40.0217 44.2295H39.9752C39.9171 44.1715 39.859 44.1134 39.7428 44.1715L39.3594 44.4038L39.5221 44.7291L39.9752 44.5665C40.0914 44.5084 40.0217 44.3922 40.0217 44.3341H40.0798L40.3121 44.8453C40.254 44.7872 40.1959 44.7291 40.0798 44.7872L39.1387 45.2868C39.0225 45.3449 39.0225 45.403 39.0806 45.4494L39.0225 45.5075L38.7437 45.008L38.8018 44.9499C38.8599 45.008 38.918 45.0661 39.0341 45.008L39.4756 44.7756L39.3014 44.3922ZM40.254 45.1241C40.3702 45.0661 40.3702 45.008 40.3005 44.8918H40.3586L40.9163 45.7283L40.5329 46.0071V45.9606C40.7536 45.7864 40.7536 45.5656 40.6955 45.5075C40.6374 45.4494 40.5793 45.3914 40.5793 45.3449C40.5329 45.3449 40.5329 45.2868 40.4167 45.403L40.0217 45.6818C40.0798 45.7283 40.1379 45.9026 40.4167 45.7283H40.4748L39.859 46.1814V46.1233C40.1379 45.8909 40.0217 45.7283 39.9752 45.6818L39.5802 45.9606C39.464 46.0071 39.464 46.0768 39.464 46.1233C39.5221 46.1233 39.5221 46.1814 39.5802 46.2395C39.6383 46.3557 39.8126 46.4602 40.0798 46.3557L40.1379 46.4021L39.6964 46.5648L39.1387 45.6818H39.1968C39.2433 45.7283 39.313 45.798 39.4175 45.7283L40.254 45.1241ZM41.137 47.2386L40.7536 47.5639C40.6955 47.622 40.6955 47.7382 40.7536 47.7963H40.6955L40.3005 47.4013L40.3586 47.3432C40.4167 47.4013 40.4748 47.4594 40.591 47.3432L41.3113 46.6229C41.4275 46.5648 41.4275 46.5067 41.3578 46.3905L41.7528 46.8552C41.6947 46.7855 41.5901 46.7855 41.5204 46.8552L41.1951 47.1805L41.4739 47.4594L41.8109 47.1805C41.927 47.0644 41.869 47.0179 41.8109 46.9482L41.869 46.9017L42.2524 47.3432H42.1943C42.1478 47.3432 42.0781 47.2967 41.9735 47.4013L41.2532 48.0751C41.137 48.1913 41.137 48.2378 41.1951 48.2959V48.354L40.8117 47.9009C40.8582 47.9009 40.9744 47.959 41.0324 47.9009L41.4159 47.5175L41.137 47.2386ZM41.9735 48.4121L42.1478 48.5747L42.3685 48.0751C42.3685 48.0751 42.1943 48.1216 41.9154 48.2959L41.9735 48.4121ZM41.9735 48.4121L41.9154 48.4585L41.7992 48.3424C41.7528 48.4005 41.6947 48.4005 41.6366 48.4585C41.4739 48.5747 41.5204 48.6328 41.5901 48.6909V48.7374L41.3113 48.4585H41.3578L41.5901 48.4005L42.6938 47.7963L42.7519 47.8428C42.7519 47.8428 42.6938 47.9009 42.1943 49.0162C42.1943 49.1324 42.1478 49.1789 42.1943 49.2951L41.7528 48.9117L41.8109 48.8536C41.869 48.9697 41.9735 48.9697 42.0316 48.8536C42.0316 48.7955 42.0897 48.6793 42.0897 48.6212L41.9154 48.4585L41.9735 48.4005V48.4121ZM42.415 49.5158L42.4731 49.4577C42.5312 49.5158 42.5893 49.5158 42.7055 49.4577L43.4258 48.5166L43.3677 48.4585C43.2515 48.4005 43.0889 48.4005 42.9262 48.5747V48.5166L43.147 48.2378L43.9835 48.8536L43.7046 49.1789H43.6465C43.8092 49.0162 43.7627 48.7955 43.6465 48.7374V48.6793L42.9262 49.632C42.81 49.6901 42.8681 49.7946 42.9262 49.8527H42.8681L42.415 49.5158Z" fill="#00493D"/>
<path d="M43.8688 49.7345L43.5899 50.1296C43.5318 50.2457 43.5899 50.2922 43.648 50.3619L43.5899 50.4084L43.1484 50.0715V50.0134C43.2646 50.0715 43.3111 50.0715 43.3692 49.9669L43.9849 49.1304C44.0314 49.0142 43.9849 48.9561 43.9269 48.898L43.9849 48.8516L44.4264 49.1769V49.235C44.3103 49.1769 44.2638 49.1769 44.1941 49.2931L43.9269 49.6881L44.2638 49.9088L44.5426 49.5138C44.5891 49.3976 44.5426 49.3511 44.4845 49.2931L44.5426 49.235L44.9841 49.5719V49.63C44.926 49.5719 44.8214 49.5719 44.7517 49.6881L44.2057 50.571C44.0895 50.6291 44.1476 50.6872 44.2057 50.7453V50.7918L43.7061 50.4665H43.7642C43.8107 50.4665 43.8804 50.4665 43.9269 50.4084L44.2057 49.9669L43.8688 49.7345ZM44.9841 51.303L45.0422 51.2449C45.1003 51.303 45.2048 51.303 45.2629 51.1868L45.7044 50.2457C45.7625 50.1296 45.7044 50.0715 45.6463 50.0134L46.599 50.4665L46.3667 50.908L46.3202 50.8499C46.4828 50.6291 46.3202 50.4084 46.2621 50.3503C46.204 50.3503 46.1459 50.2922 46.0994 50.2922C46.0414 50.2922 46.0414 50.2922 45.9833 50.4084C45.9252 50.4665 45.7625 50.7918 45.7625 50.7918C45.8206 50.8499 45.9252 50.9661 46.1575 50.6756H46.204L45.8787 51.3495L45.8206 51.303C45.9833 50.9544 45.7625 50.908 45.7044 50.908L45.4837 51.3495C45.4256 51.4656 45.4837 51.5237 45.5418 51.5237V51.5818L44.9841 51.303ZM46.599 52.0814C46.4364 51.9652 46.4364 51.6283 46.599 51.303C46.7152 50.9544 46.9359 50.6872 47.1567 50.7918C47.3193 50.8499 47.2729 51.1868 47.1567 51.5237C46.9824 51.9071 46.7617 52.1279 46.599 52.0814H46.5409C46.936 52.2441 47.2148 52.0233 47.3774 51.6283C47.5401 51.303 47.4936 50.908 47.1451 50.7453C46.8198 50.571 46.4828 50.7918 46.3202 51.1868C46.1575 51.5818 46.204 51.9652 46.5525 52.0814H46.599ZM48.3185 52.186L48.5509 51.5237C48.5973 51.4076 48.5509 51.3495 48.4928 51.2914L48.7716 51.3495V51.4076C48.7135 51.4076 48.6554 51.4076 48.5973 51.5237L48.3766 52.186C48.2604 52.4648 48.0978 52.6855 47.7725 52.581C47.5401 52.5229 47.3774 52.2441 47.4936 51.9652L47.7725 51.2449C47.8189 51.1287 47.7725 51.0706 47.7144 51.0125V50.9661L48.2139 51.1868V51.2449C48.1559 51.1868 48.0513 51.1868 48.0513 51.303L47.7608 52.0117C47.7027 52.2324 47.7027 52.4532 47.877 52.5113C48.0397 52.5694 48.2023 52.4532 48.3069 52.1743L48.3185 52.186ZM48.8297 51.4656C48.8297 51.4076 48.8297 51.4076 48.7716 51.4076L49.155 51.4656L49.5036 52.5229L49.6662 51.849C49.7127 51.7329 49.6662 51.6864 49.6081 51.6283L49.9334 51.6864L49.887 51.7445C49.8289 51.7445 49.7708 51.7445 49.7127 51.8607L49.4339 53.0806H49.3874L48.9343 51.7445L48.6554 52.6391C48.6554 52.8017 48.7135 52.8017 48.7716 52.8598V52.9179L48.4347 52.8017V52.7436C48.4928 52.8017 48.5973 52.7436 48.5973 52.6275L48.8762 51.6283L48.8297 51.4656ZM50.7235 52.581C50.6073 53.0806 50.3749 53.1967 50.2704 53.1967H50.1542C50.1542 53.1967 50.1077 53.1387 50.1542 53.0806L50.3284 51.9652C50.3865 51.9071 50.3865 51.849 50.4446 51.9071H50.5608C50.6654 51.9071 50.7699 52.1395 50.7235 52.581L50.8861 52.6391C51.0023 52.0814 50.7699 51.849 50.4911 51.8026C50.2704 51.7445 49.9334 51.6864 49.9334 51.6864V51.7445C49.9915 51.8026 50.1077 51.8026 50.0496 51.9768L49.887 52.9644C49.8289 53.0806 49.7708 53.1387 49.7127 53.1387H49.6662L50.2123 53.2548C50.4911 53.3013 50.7699 53.2548 50.8861 52.6391L50.7235 52.581ZM51.223 52.1279C51.223 52.0117 51.1069 51.9652 51.0488 51.9652V51.9071L52.0595 52.0233L52.0015 52.4648C52.0015 52.186 51.8272 52.0814 51.7226 52.0814C51.6645 52.0233 51.6064 52.0233 51.5483 52.0233C51.5019 52.0233 51.5019 52.0233 51.5019 52.186L51.4438 52.6391C51.5019 52.6391 51.6645 52.6855 51.7807 52.3602L51.7226 53.0806H51.6645C51.6645 52.7436 51.5019 52.7436 51.4322 52.7436L51.3857 53.2432C51.3857 53.3594 51.3857 53.3594 51.4438 53.3594L51.56 53.4175C51.7226 53.4175 51.8853 53.3594 52.0015 53.0225H52.0595L51.9434 53.464L50.8861 53.3478C51.0023 53.3478 51.0488 53.3013 51.1185 53.1967L51.223 52.1279ZM53.0587 52.8017C53.0587 53.3013 52.8844 53.464 52.7218 53.464C52.6637 53.4175 52.6637 53.4175 52.6056 53.4175L52.5591 53.3594L52.6172 52.1976C52.6172 52.1279 52.6172 52.1279 52.6637 52.1279H52.7799C52.8961 52.1279 53.0587 52.3021 53.0587 52.8017H53.2795C53.2795 52.2441 53.0006 52.0814 52.7218 52.0814C52.4894 52.0233 52.1641 52.0233 52.1641 52.0233V52.0814C52.2222 52.0814 52.3384 52.1279 52.3384 52.2441L52.2803 53.3013C52.2803 53.4175 52.2222 53.464 52.1641 53.464V53.5221H52.6637C52.9425 53.5221 53.2214 53.4059 53.2795 52.8017H53.0471H53.0587ZM54.6736 53.2432C54.6736 53.3594 54.7317 53.3594 54.8363 53.3594V53.4175L54.2205 53.464C54.2786 53.4175 54.3948 53.3478 54.3948 53.2432L54.2786 52.1976C54.2205 52.0814 54.1624 52.0814 54.0579 52.0814V52.0233L54.6736 51.9652C54.6155 52.0233 54.4994 52.0814 54.5574 52.1976L54.6736 53.2432ZM55.2313 53.3594V53.3013C55.2894 53.3013 55.3475 53.2432 55.3475 53.1387L55.1151 51.9768H55.057C54.9408 52.0233 54.8363 52.1279 54.8944 52.3602H54.8363L54.7782 51.9652L55.789 51.8026L55.8354 52.186H55.789C55.789 51.9652 55.6147 51.9071 55.4404 51.9071H55.394L55.6263 53.0689C55.6263 53.1851 55.6728 53.2432 55.789 53.2432V53.3013L55.2313 53.3594ZM57.6246 52.2441L57.3923 51.5818C57.3923 51.4656 57.2877 51.4656 57.2296 51.4656V51.4076L57.5085 51.2914V51.3495C57.4504 51.4076 57.4504 51.4076 57.4504 51.5237L57.6827 52.2441C57.7292 52.4764 57.7292 52.8017 57.4039 52.9179C57.1715 52.9644 56.9043 52.8598 56.8462 52.5229L56.6139 51.8026C56.5674 51.6864 56.5093 51.6864 56.4512 51.6864L56.3931 51.6283L56.9508 51.4656V51.5237C56.9043 51.5818 56.8346 51.6399 56.9043 51.7445L57.067 52.4648C57.125 52.6972 57.2993 52.8017 57.4504 52.8017C57.6246 52.7436 57.6827 52.5229 57.6246 52.2441ZM58.2404 51.849C58.5076 51.7329 58.4611 51.5818 58.403 51.4076C58.345 51.2449 58.2404 51.1287 58.1242 51.1868C58.0661 51.1868 58.008 51.2449 58.0661 51.303L58.2404 51.849ZM58.2869 51.9071L58.403 52.3602C58.4611 52.4764 58.5657 52.4764 58.6354 52.4067V52.4648L58.1242 52.6972L58.0661 52.6391C58.1823 52.581 58.1823 52.5229 58.1823 52.4067L57.7873 51.4656C57.7292 51.303 57.6711 51.3495 57.5665 51.3495V51.303L58.1242 51.0706C58.3566 51.0242 58.5657 51.0706 58.6819 51.303C58.74 51.5818 58.6238 51.7445 58.403 51.8607C58.345 51.8607 58.2869 51.9071 58.2869 51.9071Z" fill="#00493D"/>
<path d="M59.6198 52.0126C59.4572 52.0823 59.2365 51.8499 59.0622 51.4665C58.8995 51.1296 58.8995 50.7927 59.0622 50.7462C59.2365 50.6881 59.4572 50.9089 59.6198 51.2458C59.7941 51.5827 59.7941 51.908 59.6198 52.0242C59.9684 51.908 60.073 51.5246 59.8987 51.1296C59.736 50.7927 59.3991 50.572 59.0622 50.6881C58.984 50.7273 58.9145 50.7819 58.8579 50.8486C58.8012 50.9152 58.7586 50.9926 58.7326 51.0762C58.7066 51.1597 58.6976 51.2476 58.7064 51.3346C58.7151 51.4216 58.7413 51.506 58.7833 51.5827C58.9576 51.9661 59.2945 52.1869 59.6198 52.0242V52.0126ZM59.6779 50.4674H59.5734L59.8987 50.235L60.9095 50.7927L60.5609 50.1886C60.5144 50.0724 60.3983 50.0724 60.3518 50.0724V50.0143L60.6306 49.8981C60.5725 49.9678 60.5144 50.0143 60.6306 50.1305L61.1883 51.2458L61.1302 51.3039L59.8987 50.63L60.3518 51.4665C60.3983 51.5827 60.5144 51.5827 60.5725 51.5246V51.5827L60.2937 51.7454V51.6873C60.3518 51.6292 60.3518 51.5711 60.2937 51.4665L59.8522 50.572L59.6779 50.4674ZM62.1875 50.63V50.572C62.1875 50.5139 62.2455 50.4558 62.1875 50.3512L61.5136 49.4101H61.4555C61.3393 49.4566 61.2929 49.689 61.4555 49.8516L61.409 49.9097L61.1767 49.5147L62.0132 48.957L62.2455 49.3056C62.0713 49.1313 61.897 49.1313 61.7924 49.1894L61.7343 49.2359L62.4082 50.1886C62.4663 50.3047 62.5709 50.3047 62.6406 50.2466V50.2931L62.1875 50.63Z" fill="#00493D"/>
<path d="M62.8057 49.2936L63.131 49.6887C63.1891 49.7351 63.3052 49.7351 63.3633 49.6887V49.7351L62.9102 50.1301V50.0721C62.9683 50.014 62.9683 49.9559 62.9102 49.8513L62.248 49.0148C62.1899 48.8986 62.1318 48.9567 62.0156 48.9567L62.4687 48.5733V48.6314C62.4687 48.6779 62.4106 48.7476 62.4687 48.8522L62.7476 49.1775L63.0729 48.9567L62.8057 48.5733C62.7476 48.4571 62.6314 48.5152 62.5733 48.5152L63.0264 48.1202V48.1783C62.9683 48.2364 62.9683 48.2945 63.0264 48.4107L63.6886 49.2356C63.7467 49.2936 63.8048 49.2936 63.8629 49.2356L63.9094 49.2936L63.4679 49.6887L63.4098 49.6306C63.4679 49.5725 63.526 49.5144 63.4679 49.3982L63.131 49.0148L62.8057 49.2936ZM63.3052 48.1202C63.2471 48.0737 63.131 48.0737 63.0729 48.1202V48.0737L63.8048 47.3999L64.1417 47.7368H64.0837C63.9094 47.5045 63.6886 47.6206 63.5841 47.6787C63.5841 47.7368 63.526 47.7368 63.4679 47.7949C63.4679 47.7949 63.4679 47.8414 63.526 47.9576L63.8629 48.2945C63.9094 48.2364 64.0836 48.1202 63.8629 47.8414H63.9094L64.3625 48.3526V48.399C64.0837 48.1202 63.9675 48.2829 63.9094 48.3526L64.2579 48.6779C64.3044 48.7941 64.3625 48.7941 64.3625 48.7941L64.5251 48.6314C64.5832 48.5733 64.6413 48.399 64.5251 48.0737H64.5832L64.804 48.4571L64.0837 49.1775L64.0256 49.131C64.0837 49.0729 64.1417 49.0148 64.0256 48.8986L63.3052 48.1202ZM64.6413 46.5634C64.5832 46.6215 64.5832 46.7377 64.6878 46.7957C64.804 46.9003 64.9202 46.9003 65.1409 46.7957C65.2571 46.7377 65.4662 46.6796 65.6405 46.8422C65.9193 47.1211 65.8031 47.3418 65.7567 47.458C65.6986 47.5161 65.5824 47.5742 65.5243 47.6206C65.4662 47.6206 65.4662 47.6206 65.4662 47.6787V47.7368L65.0828 47.3999H65.1409C65.3616 47.5161 65.5824 47.5625 65.6986 47.3999C65.8148 47.2837 65.6986 47.1675 65.6405 47.1211C65.5243 47.0049 65.4081 47.0049 65.2455 47.1211C65.0828 47.1791 64.8621 47.1791 64.6878 47.063C64.4671 46.8422 64.4671 46.6796 64.5716 46.5053L64.804 46.3426C64.8621 46.3426 64.8621 46.3426 64.804 46.2265L65.199 46.5053H65.1409C64.8621 46.3891 64.6878 46.4588 64.6413 46.5634ZM65.1409 46.1219C65.0247 46.0638 64.9666 46.1219 64.9085 46.18H64.8621L65.4778 45.2854L65.8612 45.5642L65.8031 45.6223C65.7336 45.5626 65.645 45.5298 65.5533 45.5298C65.4617 45.5298 65.3731 45.5626 65.3036 45.6223C65.3036 45.6804 65.2455 45.7385 65.2455 45.785C65.199 45.785 65.199 45.8431 65.3036 45.9011C65.3616 45.9592 65.6986 46.18 65.6986 46.18C65.7567 46.1219 65.8612 46.0057 65.6405 45.785V45.7269L66.1982 46.18C65.8612 46.0057 65.8031 46.18 65.7567 46.2265L66.1401 46.5053C66.2562 46.5634 66.3027 46.5634 66.3027 46.5634C66.3027 46.5053 66.3608 46.4472 66.4189 46.4007C66.477 46.2845 66.5351 46.1219 66.3027 45.9011L66.3608 45.8431L66.6396 46.18L66.082 47.0165H66.0239C66.082 46.9003 66.082 46.8422 65.9774 46.7377L65.1409 46.1219ZM66.6396 45.1227L66.477 45.4016C66.2446 45.1692 66.1401 45.0066 66.1401 45.0066L66.6396 45.1227ZM66.7558 45.1227C66.8139 45.1227 66.9185 45.1692 66.9766 45.1692C67.1392 45.2273 67.0928 45.2854 67.0347 45.4016H67.0928L67.3716 44.8904C67.2554 45.0066 67.1973 44.9485 67.0928 44.9485C65.9193 44.7277 65.8148 44.6696 65.8148 44.6696V44.7277L66.6977 45.7269C66.7558 45.785 66.7558 45.9011 66.7558 45.9592H66.8139L66.9766 45.6804L66.9185 45.6223C66.8604 45.7385 66.8023 45.785 66.6977 45.6223L66.5815 45.5061L66.7558 45.1227ZM66.3027 43.8912C66.2562 43.9493 66.2562 44.0655 66.4189 44.1236C66.5815 44.17 66.6513 44.1236 66.8139 44.0074C66.9766 43.8912 67.1392 43.775 67.36 43.8912C67.7085 44.0655 67.6388 44.3443 67.5923 44.4489L67.418 44.6812V44.7858L66.9766 44.5534C67.2554 44.6115 67.4761 44.5534 67.5342 44.3908C67.5923 44.2746 67.4761 44.17 67.418 44.112C67.3019 44.0655 67.1973 44.112 67.0347 44.2281C66.8604 44.3908 66.6861 44.4605 66.477 44.3443C66.2446 44.2281 66.1401 44.0655 66.2446 43.8912C66.2446 43.775 66.3608 43.7286 66.4189 43.6705C66.4189 43.6124 66.4189 43.6124 66.3608 43.5543V43.5078L66.8139 43.7286H66.7558C66.477 43.6705 66.3027 43.7866 66.3027 43.8912Z" fill="#00493D"/>
<path d="M48.7114 24.1843C47.991 24.3469 47.4915 24.405 46.8176 23.7893C46.3761 23.3478 46.4807 22.5694 46.9338 22.2789C47.4334 21.9536 47.8748 21.7329 48.4906 21.8955C49.1064 22.0698 50.7213 23.5685 50.3263 23.6266C49.9313 23.6266 49.3271 24.01 48.7114 24.1843ZM50.4308 21.5121C50.6632 21.3378 50.942 21.2333 51.6624 21.1636C52.3362 21.1171 52.8242 21.1171 52.9984 21.6283C53.2308 22.2324 53.3935 22.9528 53.8349 23.2897C53.5561 23.4523 52.1619 23.6266 51.6624 23.3478C51.0001 23.0109 50.8259 21.7212 50.4425 21.5121H50.4308ZM55.2291 21.5702C55.4499 21.3959 55.7287 21.3959 56.449 21.454C57.1694 21.5121 57.4482 21.5702 57.6108 22.0698C57.7851 22.6275 57.6108 23.3478 57.9594 23.8474C57.6108 23.9635 56.5071 23.9635 56.1121 23.5685C55.508 23.127 55.5544 21.8374 55.2291 21.5586V21.5702Z" fill="white" stroke="black" stroke-width="0.162654"/>
<path d="M58.5617 21.8956C58.0621 21.7794 57.7252 21.7329 57.5161 21.8956C57.7833 22.2325 57.5625 23.5686 58.1202 24.0101C58.5036 24.2889 59.5144 24.3586 59.7351 23.7313C60.0139 23.1736 60.0139 22.3371 58.5733 21.8956H58.5617ZM52.8339 21.3379C52.9966 21.1753 53.3335 21.1172 53.9958 21.1172C54.7277 21.1172 55.1576 21.2334 55.3899 21.6749C55.6223 22.2325 55.5526 22.9529 55.9476 23.406C55.785 23.6267 54.2746 23.6267 53.8331 23.2898C53.2173 22.8948 53.1593 21.6168 52.8339 21.3379ZM48.1054 21.8375C48.1054 21.5587 48.4888 21.5122 49.4995 21.4541C50.4871 21.3379 50.5452 21.396 50.8821 22.1163C51.0448 22.5114 51.2655 23.1736 51.7186 23.3943C50.4871 23.6848 50.0921 23.8474 49.4298 23.4524C48.9462 23.1499 48.5466 22.7304 48.268 22.2325C48.2099 22.0699 48.2099 21.8956 48.0938 21.8375H48.1054Z" fill="#073163" stroke="black" stroke-width="0.162654"/>
<path d="M50.7792 16.1711C49.6058 15.2765 48.2116 14.44 46.9336 14.2773C48.2671 15.1664 49.533 16.1527 50.7211 17.2284" fill="#F9D050"/>
<path d="M50.7792 16.1711C49.6058 15.2765 48.2116 14.44 46.9336 14.2773C48.2671 15.1664 49.533 16.1527 50.7211 17.2284" stroke="black" stroke-width="0.0697088"/>
<path d="M51.4409 15.333C50.0467 14.3803 48.4318 13.3231 46.875 13.2185C48.3319 14.0628 49.6296 15.156 50.709 16.4484M53.2185 13.7762C53.8475 12.3465 54.779 11.0702 55.9488 10.0352C55.3911 11.2086 54.7869 13.6019 54.4965 14.5546" fill="#F9D050"/>
<path d="M51.4409 15.333C50.0467 14.3803 48.4318 13.3231 46.875 13.2185C48.3319 14.0628 49.6296 15.156 50.709 16.4484M53.2185 13.7762C53.8475 12.3465 54.779 11.0702 55.9488 10.0352C55.3911 11.2086 54.7869 13.6019 54.4965 14.5546" stroke="black" stroke-width="0.0697088"/>
<path d="M54.4492 13.4978C54.9876 12.1886 55.9999 11.1307 57.284 10.5352C56.3193 11.7388 55.6008 13.1205 55.1695 14.6015" fill="#F9D050"/>
<path d="M54.4492 13.4978C54.9876 12.1886 55.9999 11.1307 57.284 10.5352C56.3193 11.7388 55.6008 13.1205 55.1695 14.6015" stroke="black" stroke-width="0.0697088"/>
<path d="M54.9492 14.601C56.0159 12.9682 57.5448 11.6901 59.3409 10.9297C57.9467 12.3239 55.8903 14.8799 55.3907 15.8906M55.7276 15.8325C56.7268 15.2749 58.7367 14.3803 60.1774 14.6707C59.2944 14.996 56.6222 16.2159 55.4488 17.3429" fill="#F9D050"/>
<path d="M54.9492 14.601C56.0159 12.9682 57.5448 11.6901 59.3409 10.9297C57.9467 12.3239 55.8903 14.8799 55.3907 15.8906M55.7276 15.8325C56.7268 15.2749 58.7367 14.3803 60.1774 14.6707C59.2944 14.996 56.6222 16.2159 55.4488 17.3429" stroke="black" stroke-width="0.0697088"/>
<path d="M55.5063 15.4391C56.4474 14.4399 58.1785 12.9412 60.0141 12.3254C58.678 13.6034 55.8316 16.508 55.4482 16.9495M52.8341 14.835C52.1603 12.7669 51.1611 10.8267 49.6624 10.2109C50.8561 11.9176 51.6865 13.8514 52.1022 15.8922M51.5445 14.7769C50.4408 13.4408 48.9304 12.1047 47.2109 11.8259C48.8959 12.9284 50.2271 14.4936 51.0449 16.3337" fill="#F9D050"/>
<path d="M55.5063 15.4391C56.4474 14.4399 58.1785 12.9412 60.0141 12.3254C58.678 13.6034 55.8316 16.508 55.4482 16.9495M52.8341 14.835C52.1603 12.7669 51.1611 10.8267 49.6624 10.2109C50.8561 11.9176 51.6865 13.8514 52.1022 15.8922M51.5445 14.7769C50.4408 13.4408 48.9304 12.1047 47.2109 11.8259C48.8959 12.9284 50.2271 14.4936 51.0449 16.3337" stroke="black" stroke-width="0.0697088"/>
<path d="M52.1727 14.7162C50.7785 12.2067 49.7096 11.7652 49.1055 11.2656C49.605 12.2067 50.825 14.7162 51.5453 15.7735" fill="#F9D050"/>
<path d="M52.1727 14.7162C50.7785 12.2067 49.7096 11.7652 49.1055 11.2656C49.605 12.2067 50.825 14.7162 51.5453 15.7735" stroke="black" stroke-width="0.0697088"/>
<path d="M49.3828 14.5547C50.1774 15.0544 50.8582 15.7154 51.3811 16.4949" stroke="black" stroke-width="0.0697088"/>
<path d="M49.3828 15.7157C49.7081 15.9945 50.3239 16.3315 50.8816 16.831ZM56.0051 16.5522C56.5628 16.1107 57.7827 15.3904 58.3985 15.158ZM55.6101 16.1688C56.1678 15.4369 57.2831 14.4377 57.6782 14.1008ZM57.167 12.7066C56.4183 13.5456 55.7126 14.422 55.0525 15.3323ZM55.7263 12.207C55.199 12.987 54.7329 13.8066 54.3321 14.6585ZM51.323 12.3232C51.66 13.2178 52.2757 14.7165 52.4849 15.3323ZM50.8235 13.2643C51.0558 13.6128 51.4973 14.3796 51.66 14.9373Z" fill="#F9D050"/>
<path d="M49.3828 15.7157C49.7081 15.9945 50.3239 16.3315 50.8816 16.831M56.0051 16.5522C56.5628 16.1107 57.7827 15.3904 58.3985 15.158M55.6101 16.1688C56.1678 15.4369 57.2831 14.4377 57.6782 14.1008M57.167 12.7066C56.4183 13.5456 55.7126 14.422 55.0525 15.3323M55.7263 12.207C55.199 12.987 54.7329 13.8066 54.3321 14.6585M51.323 12.3232C51.66 13.2178 52.2757 14.7165 52.4849 15.3323M50.8235 13.2643C51.0558 13.6128 51.4973 14.3796 51.66 14.9373" stroke="black" stroke-width="0.0697088"/>
<path d="M52.7227 12.9831C52.7227 12.4836 53.0596 11.9375 53.3965 11.9375C53.7799 11.9375 54.0587 12.5997 54.0587 12.9831C54.0587 13.4362 53.7218 13.8196 53.3965 13.8196C53.048 13.8196 52.7227 13.4943 52.7227 12.9831Z" fill="#F9D050" stroke="black" stroke-width="0.0697088"/>
<path d="M51.9999 13.4365C52.058 12.8788 52.4414 12.4374 52.7783 12.4838C53.1153 12.5419 53.2779 13.2158 53.2198 13.5992C53.1617 14.0407 52.7783 14.3776 52.4995 14.3195C52.2207 14.3195 51.9418 13.9361 51.9999 13.4365ZM53.4987 13.5992C53.3825 13.0996 53.6148 12.5535 53.9518 12.4838C54.2771 12.4374 54.614 12.9834 54.6721 13.4365C54.7883 13.878 54.4978 14.3195 54.219 14.3195C53.9518 14.3776 53.5568 14.0987 53.4987 13.5992Z" fill="#F9D050" stroke="black" stroke-width="0.0697088"/>
<path d="M52.6641 14.0417C52.6641 13.4957 53.001 12.9961 53.3379 12.9961C53.7213 12.9961 54.0001 13.6002 54.0001 14.0417C54.0001 14.4948 53.6748 14.8782 53.3379 14.8782C53.001 14.8782 52.6641 14.5529 52.6641 14.0417Z" fill="#F9D050" stroke="black" stroke-width="0.0697088"/>
<path d="M51.6641 14.3211C51.6641 13.8215 52.0591 13.2754 52.3844 13.2754C52.7329 13.2754 53.0582 13.9377 53.0582 14.3211C53.0582 14.7742 52.6632 15.1576 52.3844 15.1576C52.0591 15.1576 51.6641 14.8323 51.6641 14.3211ZM53.7205 14.1003C53.7205 13.6007 54.069 13.0547 54.3943 13.0547C54.7777 13.0547 55.0566 13.7169 55.0566 14.1003C55.0566 14.5534 54.7312 14.9368 54.3943 14.9368C54.0574 14.9368 53.7205 14.5999 53.7205 14.1003Z" fill="#F9D050" stroke="black" stroke-width="0.0697088"/>
<path d="M53.5 14.5533C53.5 13.9957 53.895 13.4961 54.2203 13.4961C54.5689 13.4961 54.8942 14.1002 54.8942 14.5417C54.8942 14.9948 54.5572 15.3898 54.2203 15.3898C53.895 15.3898 53.5 15.0413 53.5 14.5533Z" fill="#F9D050" stroke="black" stroke-width="0.0697088"/>
<path d="M52.6168 15.0528C52.6168 14.4952 52.9421 13.9956 53.2791 13.9956C53.6741 13.9956 53.9529 14.6578 53.9529 15.0412C53.9529 15.5059 53.6044 15.8893 53.2791 15.8893C52.9421 15.8893 52.6052 15.5408 52.6052 15.0528H52.6168ZM51.2227 15.0528C51.2227 14.4952 51.5015 13.9956 51.7803 13.9956C52.0592 13.9956 52.2799 14.6578 52.2799 15.0412C52.2799 15.5059 52.0011 15.8893 51.7803 15.8893C51.5015 15.8893 51.2227 15.5408 51.2227 15.0528ZM54.3363 14.9483C54.3363 14.4371 54.6152 13.9375 54.894 13.9375C55.1728 13.9375 55.4517 14.5533 55.4517 14.9367C55.4517 15.4362 55.1147 15.7732 54.894 15.7732C54.6152 15.7732 54.3363 15.4362 54.3363 14.9367V14.9483Z" fill="#F9D050" stroke="black" stroke-width="0.0697088"/>
<path d="M54.6733 15.878C54.7895 15.3319 55.1148 14.8788 55.3355 14.9485C55.5679 14.995 55.6144 15.6572 55.5098 16.0522C55.4517 16.5518 55.1148 16.8306 54.894 16.7726C54.6617 16.7261 54.5571 16.3311 54.6617 15.8896L54.6733 15.878Z" fill="#F9D050" stroke="black" stroke-width="0.0697088"/>
<path d="M53.6154 15.7152C53.6735 15.2156 53.9988 14.7161 54.2777 14.7742C54.6146 14.7742 54.7772 15.4364 54.7308 15.8198C54.6727 16.331 54.3822 16.6679 54.115 16.6098C53.8362 16.6098 53.5573 16.2148 53.6154 15.7152ZM52.0586 15.8779C51.8843 15.3318 51.5474 14.9484 51.3267 14.9949C51.1059 15.053 51.0478 15.7152 51.164 16.1102C51.2802 16.5517 51.6055 16.8306 51.8262 16.7725C52.0005 16.726 52.1748 16.331 52.0586 15.8895V15.8779Z" fill="#F9D050" stroke="black" stroke-width="0.0697088"/>
<path d="M51.6641 15.7726C51.6641 15.273 51.9429 14.7734 52.2217 14.7734C52.5587 14.7734 52.7794 15.3892 52.7794 15.7726C52.7794 16.2722 52.5006 16.6091 52.2217 16.6091C51.9894 16.6091 51.6641 16.2722 51.6641 15.7726Z" fill="#F9D050" stroke="black" stroke-width="0.0697088"/>
<path d="M52.5007 15.9933C52.5007 15.4357 52.8376 14.9477 53.1629 14.9477C53.5579 14.9477 53.8367 15.5519 53.8367 15.9933C53.8367 16.4465 53.4998 16.8299 53.1629 16.8299C52.8376 16.8299 52.5007 16.4929 52.5007 15.9933ZM52.7795 9.87059C52.6633 10.3121 52.2799 10.7071 52.5471 11.3229C52.0592 11.1486 51.6177 11.0905 51.2227 11.5436C51.7222 11.4855 52.1637 11.6598 52.3845 11.9851C51.943 11.927 51.7222 12.1594 51.6061 12.4382C52.0011 12.322 52.3845 12.2058 52.5587 12.2639C52.3845 12.4382 52.1056 12.7054 52.0592 12.9378C52.3845 12.6589 52.7795 12.7054 53.0002 12.5428C52.8376 12.9378 53.1629 13.3212 53.4417 13.7046C53.3953 13.1585 53.7206 12.7751 53.5579 12.4847C54.0575 12.6009 54.1156 13.0423 54.8359 13.0423C54.5571 12.8797 54.3944 12.322 54.0575 12.322C54.2201 12.2639 54.894 12.2058 55.0102 12.322C54.894 12.0897 54.499 11.8805 54.2782 11.8805C54.5106 11.6482 54.894 11.2067 55.1728 11.0905C54.7778 11.1486 54.1737 11.2067 53.9529 11.5436C54.499 11.0905 54.3944 10.2656 54.9985 10.1494C54.6732 10.0913 54.1737 10.3121 53.7786 10.7071C53.9529 10.3702 53.9529 9.92868 54.1737 9.8125C53.7206 9.92868 53.221 10.4864 53.0583 10.7652C53.0342 10.4497 52.9389 10.1439 52.7795 9.87059Z" fill="#F9D050" stroke="black" stroke-width="0.0697088"/>
<path d="M53.0581 10.7651C53.0581 10.9278 53.0581 11.2647 53 11.3693ZM53.7784 10.707C53.6622 10.8232 53.4415 11.2066 53.4415 11.5435Z" fill="#F9D050"/>
<path d="M53.0581 10.7651C53.0581 10.9278 53.0581 11.2647 53 11.3693M53.7784 10.707C53.6622 10.8232 53.4415 11.2066 53.4415 11.5435" stroke="black" stroke-width="0.0697088"/>
<path d="M54.1138 11.3711C53.9222 11.4855 53.7811 11.6681 53.7188 11.8823" stroke="black" stroke-width="0.0697088"/>
<path d="M48.2123 16.8879C47.8172 16.8879 47.4919 16.7252 47.2596 16.4464C46.8762 15.9352 45.8189 15.7145 45.3658 16.1676C45.2032 16.2837 44.9824 16.2837 44.8198 16.3302C44.5409 16.3302 44.204 16.6091 44.3086 17.1667C44.5409 16.9924 44.5874 17.1667 44.7617 17.1667C44.8779 17.1086 44.8198 17.2248 44.8198 17.3294C44.8198 17.6082 45.4239 18.1659 45.9816 18.1078C46.5973 18.1078 46.8762 18.3402 46.9807 18.4563C47.155 18.6074 47.0388 18.5609 47.155 18.8397C47.3177 19.0024 47.3757 19.0605 47.0969 19.2812C46.9701 19.387 46.868 19.5193 46.798 19.6689C46.728 19.8185 46.6917 19.9816 46.6917 20.1468C46.6917 20.3119 46.728 20.4751 46.798 20.6246C46.868 20.7742 46.9701 20.9066 47.0969 21.0123C47.8172 21.5584 49.6529 22.4065 51.7209 20.78C53.7192 19.2231 56.8329 20.1177 57.0653 20.6638C57.3441 21.2331 57.4487 21.5584 57.5068 21.8372C57.5649 22.0696 57.8437 22.2903 58.2387 22.2322C58.6221 22.2322 59.0636 22.3949 59.2843 22.5692C59.5748 22.7318 59.9582 22.6853 59.8536 22.1741C59.6213 20.6173 58.6802 20.3966 58.5756 19.6762C59.1217 19.7227 59.5051 19.7227 59.7374 19.502C59.9001 19.2812 60.1208 18.8862 60.3532 18.7816C60.5159 18.6655 60.5159 18.5493 60.2951 18.6074C60.0163 18.6655 59.8536 18.7816 59.3424 18.7236C56.7864 18.4447 49.6064 16.4929 48.2123 16.8879Z" fill="#059334" stroke="black" stroke-width="0.162654"/>
<path d="M59.574 18.7822C59.1494 19.0818 58.7864 19.4605 58.5052 19.8975C57.9591 20.6178 56.2861 21.3382 54.2181 21.3382C52.2197 21.3382 50.9998 21.0129 50.1052 20.2925C49.7233 19.9871 49.3106 19.7224 48.8737 19.5025C48.2696 19.2237 48.1534 18.6079 48.3161 18.1083C48.1534 18.3872 48.0488 18.666 47.7119 18.6079C47.4795 18.6079 47.0381 18.6079 47.1542 18.8403C47.0961 18.7241 47.0961 18.5614 47.0381 18.4917L46.9219 18.3872C47.0961 18.5033 47.4912 18.1664 47.77 18.1664C47.9907 18.2245 48.2696 17.9457 48.2115 17.6087L48.0488 16.8884C48.4903 16.6561 54.3342 17.7249 55.5077 17.8295C56.6695 17.8876 60.0155 18.3872 59.574 18.7822Z" fill="#000001" stroke="black" stroke-width="0.162654"/>
<path d="M48.9918 16.6671C49.5495 16.1095 50.2118 15.8306 50.8856 15.9933H51.0483C51.3968 15.7144 52.1636 15.6564 52.6167 15.8771H52.8375C53.4997 15.6564 54.7777 15.8771 55.2308 16.3302L55.3934 16.4464C56.9038 16.3302 57.7868 16.9924 58.844 18.0613C58.9602 18.1775 59.1229 18.3866 59.4017 18.4447C59.7386 18.5028 59.7967 18.6771 59.5179 18.8397C59.0712 19.116 58.6777 19.4701 58.3561 19.8854C57.8449 20.5592 56.2299 21.2331 54.22 21.2331C52.2798 21.2331 51.1063 20.8845 50.2118 20.2223C49.7122 19.8389 49.3288 19.6181 49.0499 19.4439C48.713 19.3277 48.2715 18.8862 48.4342 18.4447C48.5504 18.0032 48.2715 17.4455 48.0508 16.8879C48.2134 16.7717 48.6549 16.609 48.8757 16.7252L48.9918 16.6671Z" fill="#059334" stroke="black" stroke-width="0.162654"/>
<path d="M58.8444 18.0613C57.7987 16.9924 56.9041 16.3302 55.3938 16.4348C55.3938 16.4929 55.3938 16.6671 55.3357 16.7833C56.3883 17.2557 57.3214 17.9584 58.066 18.8397C58.2983 18.6074 58.6817 18.3401 58.8444 18.0613ZM55.2311 16.3302C54.778 15.8887 53.5 15.6564 52.8378 15.8887C52.8378 16.1095 52.8378 16.4464 52.7216 16.6671C53.1166 16.8298 53.4419 17.2248 53.7789 17.6082C54.0112 17.5501 54.5573 17.3875 54.8361 17.3294C55.0025 17.0111 55.1349 16.6762 55.2311 16.3302ZM52.617 15.8771C52.1639 15.6564 51.3855 15.7144 51.0486 15.9933C50.9324 16.2256 50.8859 16.6671 50.8859 16.8879C51.1183 16.8879 51.4436 17.0505 51.5482 17.1667C51.8967 17.0505 52.3382 16.8298 52.5009 16.6671C52.559 16.4348 52.6635 16.1095 52.617 15.8887V15.8771ZM48.9922 16.6671C49.5499 16.1095 50.2121 15.8306 50.8859 15.9933C50.7698 16.1676 50.7233 16.4929 50.7233 16.8298C50.1075 16.7717 49.3291 16.946 48.9922 17.1667V16.6671Z" fill="#00493D" stroke="black" stroke-width="0.162654"/>
<path d="M57.8442 18.9436C57.1443 18.1149 56.272 17.4488 55.2882 16.9918C55.2882 17.0499 55.172 17.2706 55.1139 17.4449C55.4509 17.9445 56.1131 19.0598 56.3919 19.6756C56.6708 19.5594 57.4492 19.2225 57.8442 18.9436ZM53.6152 20.1752C53.7115 19.4158 53.7658 18.6517 53.7779 17.8864C54.0567 17.8283 54.6144 17.6656 54.8351 17.6075C55.1139 18.0607 55.7878 19.2341 56.0666 19.7801C55.3928 19.9428 54.2774 20.2216 53.6152 20.1752ZM51.6634 17.503C51.9422 17.3868 52.3372 17.1544 52.6044 16.9453C52.8368 17.108 53.2783 17.503 53.4409 17.7237C53.4409 18.2233 53.2783 19.6756 53.2202 20.1635C52.7787 20.1635 52.0584 20.059 51.6634 19.8382C51.7214 19.0017 51.7795 18.0607 51.6634 17.503ZM48.875 18.1652C48.9331 18.049 48.9912 17.6656 48.9912 17.503C49.4327 17.2241 50.548 16.9453 51.3845 17.3868C51.4426 17.9445 51.3845 19.3386 51.3264 19.6756C50.5813 19.0696 49.7613 18.562 48.8866 18.1652H48.875Z" fill="#00493D" stroke="black" stroke-width="0.162654"/>
<path d="M46.0996 17.1573C45.9835 17.1573 45.9254 16.832 45.7046 16.832C45.6465 16.832 45.4839 16.8901 45.4258 16.832C45.4258 16.9482 45.4839 17.0644 45.542 17.1109C45.6001 17.2735 45.8789 17.169 46.0996 17.169V17.1573Z" fill="#000001"/>
<path d="M46.0983 18.1082C46.7605 18.1082 46.8767 17.2717 47.2136 17.2252M46.4817 18.1663C46.9813 18.3986 47.3763 17.2252 47.7597 17.2717M45.4825 16.7256C45.6452 16.7256 45.7614 16.4933 46.0402 16.7721C46.1564 16.8883 46.319 16.9464 46.4352 16.9464M46.319 17.5505C46.0867 17.8991 45.7033 18.1082 45.4825 18.0036M45.3664 16.168C45.2037 16.2842 45.0991 16.4933 44.983 16.6675M44.8203 16.9929V17.2717" stroke="black" stroke-width="0.162654"/>
<path d="M63.4091 24.2421V35.0934C63.4091 44.5041 58.9594 47.734 52.9993 50.2899C47.0392 47.734 42.543 44.5041 42.543 35.0934V24.2305H63.4091V24.2421Z" fill="white"/>
<path d="M52.9992 33.4205C53.4988 33.4205 54.2772 32.979 54.951 32.3052C55.6714 31.5268 56.9029 31.2595 58.1809 32.3052C59.4589 33.3624 60.2373 32.9209 60.9111 32.3052C61.5734 31.701 62.131 31.4687 63.409 31.4687V24.2422H42.5312V31.4803C43.8092 31.4803 44.3669 31.7126 45.0408 32.3168C45.703 32.9326 46.4814 33.374 47.771 32.3168C49.1071 31.2712 50.2689 31.5384 51.0473 32.3168C51.6631 32.9906 52.4415 33.4321 52.9992 33.4321V33.4205Z" fill="#C8102E"/>
<path d="M52.9992 38.9953C53.673 38.9953 55.0091 38.2634 55.3344 38.1007C56.566 37.3688 57.4489 38.0426 58.1809 38.3796C58.9593 38.7049 60.3999 39.0999 61.2945 38.3796C62.1891 37.6476 62.6887 37.7057 63.3045 37.7057C63.4207 36.8692 63.4207 36.0327 63.4207 35.0916V34.4178C62.6306 34.2551 62.2472 34.4759 61.4107 35.2078C60.5742 35.9281 59.6215 35.7655 58.39 35.324C57.2282 34.8128 56.0664 33.9298 54.8929 35.324C54.4063 35.8679 53.7271 36.2012 52.9992 36.2534C52.1627 36.2534 51.4424 35.7074 51.1054 35.324C49.8855 33.9298 48.7702 34.8128 47.5968 35.324C46.3768 35.7655 45.3661 35.9281 44.5412 35.2078C43.7628 34.4759 43.3678 34.2551 42.5312 34.4178V35.0916C42.5312 36.0327 42.5893 36.8692 42.6939 37.7057C43.3097 37.7057 43.7628 37.6476 44.6458 38.3796C45.5403 39.0999 47.0391 38.7049 47.771 38.3796C48.5494 38.0426 49.4324 37.3688 50.6639 38.1007C51.0009 38.2634 52.2789 38.9837 52.9992 38.9837V38.9953ZM52.9992 41.3887C53.9639 41.3366 54.9012 41.0494 55.7294 40.5522C56.8448 39.9364 57.6232 40.2036 58.7385 40.7729C59.9004 41.3306 60.853 41.1563 61.5269 40.7729C61.8522 40.5405 62.131 40.099 62.8514 40.2733C62.5261 41.6675 62.0149 42.8874 61.4107 43.8866C60.9361 44.0439 60.4349 44.1054 59.9363 44.0675C59.4377 44.0297 58.9516 43.8931 58.5062 43.6658C57.3444 43.1081 55.8921 42.7712 55.1137 43.2708C54.4824 43.6817 53.7518 43.9145 52.9992 43.9447C52.3834 43.9447 51.605 43.7123 50.8847 43.2708C50.1063 42.7712 48.654 43.1081 47.4922 43.6658C47.0476 43.895 46.5619 44.0336 46.0632 44.0735C45.5646 44.1133 45.0631 44.0538 44.5877 43.8982C43.9835 42.8874 43.4839 41.6559 43.147 40.2733C43.8673 40.099 44.1462 40.5522 44.4831 40.7729C44.8996 41.0081 45.3699 41.1316 45.8482 41.1316C46.3266 41.1316 46.7968 41.0081 47.2134 40.7729C48.3752 40.2152 49.1536 39.9364 50.2689 40.5405C51.0961 41.0419 52.0335 41.333 52.9992 41.3887ZM52.9992 50.2882C55.1526 49.4536 57.1633 48.2895 58.9593 46.8376C58.5062 46.6749 58.239 46.7795 57.8439 46.5006C57.4489 46.2218 56.2871 46.1172 55.288 46.6749C54.595 47.0791 53.8072 47.2921 53.005 47.2921C52.2028 47.2921 51.415 47.0791 50.722 46.6749C49.7113 46.1172 48.5494 46.2218 48.166 46.5006C47.771 46.7795 47.4922 46.6749 47.0391 46.8492C48.8279 48.3087 50.8404 49.4699 52.9992 50.2882Z" fill="#0B50A0"/>
<path d="M51.5449 26.9602C51.6029 27.0764 51.4984 27.3553 51.5449 27.4598C51.661 27.6922 51.661 27.8084 51.8237 27.9129H52.2187C53.4386 27.9129 54.8909 27.4134 56.1108 27.4134C57.2842 27.4134 58.0045 27.7968 58.6668 27.7968C59.0618 27.7968 59.3987 27.5179 59.3987 27.2391C59.3987 26.9602 58.9572 26.7976 58.0045 26.7976C56.6685 26.7976 55.9481 27.1345 54.8328 27.1345C53.1598 27.1345 52.8809 26.5188 52.8809 26.2399C52.8809 25.9611 53.1598 25.5777 54.0544 25.5777C54.3332 25.5777 54.554 25.5196 54.6701 25.4034C54.7282 25.2872 54.8909 25.0665 55.2278 24.9038C55.6112 24.6715 56.3896 24.9038 56.7846 24.625C56.7846 24.8574 56.4477 25.1827 56.1689 25.2989C56.7265 25.1246 57.3307 25.1246 57.4469 25.5777C57.168 25.4034 56.7265 25.5196 56.5639 25.5777C56.3315 25.6242 56.227 25.6939 56.0062 25.7403C56.227 25.6822 56.3431 26.1237 56.6685 26.1237C56.3431 26.4026 55.7855 26.4026 55.2278 26.1818C55.0535 26.1237 54.612 25.9611 54.3332 25.9611C53.7755 25.9611 53.4386 26.0773 53.4386 26.298C53.4386 26.5768 53.7872 26.7395 54.7747 26.7395C55.7855 26.7395 56.3431 26.4607 57.8419 26.4607C57.7257 26.298 57.9 26.1237 57.6792 25.9611C58.2369 25.9611 58.841 26.1237 59.0734 26.5188C59.0153 26.1237 59.3406 25.7984 59.2361 25.4615C59.573 25.5196 59.8518 25.8449 59.8983 26.1237C59.8983 25.9611 60.1307 25.9611 60.1307 25.7984C60.286 25.8824 60.4118 26.0123 60.4908 26.1702C60.5698 26.3282 60.5982 26.5067 60.5721 26.6814C60.7348 26.4026 60.9091 26.5188 61.0136 26.1818C61.1298 26.4142 61.0717 27.0764 60.6767 27.2972C61.0253 27.0648 61.5132 27.0648 61.8501 27.4598C61.5132 27.4134 61.3506 27.576 61.1879 27.6341C60.3772 28.0484 59.4713 28.2408 58.5622 28.1918C57.6792 28.1337 57.563 27.9594 57.0054 27.9594C57.3423 28.0175 58.0045 28.6913 58.6319 28.6913C59.0153 28.6913 59.2942 28.6913 59.4568 28.6333C59.6195 28.5752 59.8983 28.6333 60.119 28.7494C60.2933 28.9121 60.6302 29.0747 60.851 29.0283C60.7929 29.249 60.6767 29.3536 60.5141 29.4117C60.7929 29.5859 60.6302 29.6905 60.9091 29.9112C60.7929 29.9112 60.6767 30.0274 60.5141 29.9693C60.6767 30.132 60.6767 30.3644 60.851 30.4689C60.7929 30.4689 60.6186 30.527 60.5141 30.4689C60.6767 30.7013 60.5141 30.9685 60.6767 31.0847C60.851 31.317 60.5141 31.5843 60.2352 31.3635C60.2933 31.5262 60.119 31.7004 59.9564 31.6424C59.7937 31.5843 59.6776 31.41 59.724 31.3635C59.724 31.3054 59.724 31.3054 59.7937 31.2473C59.6775 31.4216 59.4568 31.4216 59.3406 31.3635C59.2942 31.3054 59.2244 31.2473 59.2244 31.2009C58.841 31.317 58.6784 30.9685 58.7365 30.8058C58.783 30.6432 59.1199 30.5735 59.2361 30.6432C59.3522 30.6897 59.4568 30.7594 59.573 30.6432C59.6892 30.5851 59.7356 30.4689 59.7356 30.3644C59.7356 30.1901 59.573 29.6905 58.841 29.7486C58.0045 29.8067 56.6685 29.5859 56.0062 29.3536C55.9481 29.3071 55.89 29.3071 55.832 29.2374C55.832 29.4698 55.6112 29.5859 55.6112 29.8067C55.6112 30.0855 55.7274 30.3063 56.0643 30.4108C55.89 30.6897 55.6112 30.6432 55.5066 30.4689C55.5066 30.6432 55.2743 30.7478 55.2743 30.9685C55.2278 30.8523 55.1581 30.8058 55.1116 30.6897C54.949 31.0847 54.4959 31.3054 54.2751 31.2009C53.9963 31.4216 53.671 31.3635 53.5548 31.1428C53.3921 31.259 53.1598 31.259 53.0552 31.1428C53.0552 31.3054 52.939 31.259 52.8809 31.4797C52.8809 31.5959 52.6602 31.6424 52.5556 31.5959C52.4395 31.5262 52.3814 31.3054 52.4975 31.2009C52.3349 31.317 52.1606 31.317 52.0561 31.2009C52.0561 31.0847 52.0561 30.922 52.1722 30.8523H52.2768C52.1606 30.8058 51.998 30.8523 51.8818 30.8058C51.7656 30.6897 51.7656 30.5735 51.8237 30.4689C51.8818 30.4108 52.0561 30.3063 52.1722 30.4108L52.2187 30.4689C52.2187 30.3527 52.2768 30.2482 52.3349 30.2482C52.4511 30.1901 52.6021 30.1901 52.7764 30.3644C52.8926 30.527 52.9971 30.527 53.3341 30.4805C53.6129 30.4805 54.0544 30.1901 54.3797 29.9112C53.4502 29.7486 53.9963 29.1328 54.2751 28.9121C54.0544 28.854 53.7175 28.854 53.4967 28.9702C52.3349 29.5859 51.1034 30.3063 50.325 30.0855C50.3358 30.202 50.3757 30.3139 50.4411 30.4108C50.2669 30.4108 49.9299 30.4108 49.8254 30.2482C49.7673 30.3644 49.6627 30.6432 49.7673 30.8639C49.6511 30.7478 49.3258 30.6316 49.1515 30.5851C49.2677 30.7013 49.1515 30.922 49.2096 31.0847C49.047 30.922 48.7681 30.8058 48.6519 30.922C48.5358 31.0382 48.315 31.0847 48.1524 31.0382C48.0441 31.1913 47.8892 31.3054 47.7109 31.3635C47.7109 31.2473 47.7109 31.0847 47.6528 31.0266C47.5947 31.2009 47.4204 31.4216 47.2113 31.5262C47.2113 31.41 47.2113 31.2473 47.1532 31.1428C47.1532 31.3635 46.7117 31.4797 46.6536 31.6424C46.7117 31.4797 46.7117 31.3054 46.7117 31.2009C46.6501 31.2996 46.5687 31.3846 46.4728 31.4506C46.3768 31.5166 46.2683 31.5621 46.154 31.5843C46.2005 31.4681 46.2702 31.3519 46.2005 31.2473C46.154 31.4797 45.8171 31.5959 45.5383 31.5262C45.5383 31.6424 45.3059 31.805 45.0387 31.6424C44.8644 31.5843 44.7599 31.41 44.8644 31.3054C44.6437 31.3054 44.4229 31.0847 44.5391 30.922C44.5391 30.8639 44.5856 30.8058 44.5856 30.7478C44.4229 30.6316 44.3649 30.4108 44.5391 30.2482C44.5856 30.1901 44.7599 30.1901 44.8644 30.1901C44.8644 29.7486 45.2595 29.7486 45.4221 30.0739C45.5383 30.2482 45.8752 30.527 46.154 30.4689C46.2702 30.4689 46.3167 30.4108 46.4329 30.4108C46.9326 30.2457 47.4032 30.0026 47.8271 29.6905C47.8735 29.5279 47.8735 29.4117 47.8735 29.3071C47.6528 29.4233 47.432 29.5279 47.3159 29.6905V29.5279C47.1532 29.5279 46.8744 29.4698 46.7582 29.4698C46.8163 29.4117 46.8744 29.1328 46.9906 29.0747C46.7117 29.1328 46.4329 29.0747 46.2005 29.0283C46.3167 28.9121 46.3167 28.7494 46.3748 28.5752C46.2586 28.6333 45.9798 28.5287 45.759 28.5752C45.8171 28.4125 45.8752 28.1918 46.0379 28.1337C45.8055 28.1918 45.5383 28.1337 45.2595 28.0175C45.4918 28.0175 45.5964 27.7387 45.759 27.7387C45.3175 27.7387 45.2014 27.5179 44.9806 27.4134C45.1433 27.4598 45.2595 27.2972 45.4221 27.2972C45.2595 27.2391 44.9806 26.9602 45.0968 26.7976C45.0387 26.8557 44.9806 26.9602 44.8644 27.03C44.7482 27.0764 44.5391 27.03 44.3649 26.8557C44.2487 26.6233 44.3068 26.3561 44.5391 26.298C44.4881 26.2947 44.4392 26.2769 44.398 26.2466C44.3568 26.2164 44.3252 26.175 44.3069 26.1273C44.2885 26.0796 44.2842 26.0276 44.2945 25.9776C44.3048 25.9276 44.3292 25.8815 44.3649 25.8449C44.4229 25.7287 44.6437 25.5777 44.7599 25.7287L44.9225 25.9611C44.8644 25.8449 44.8644 25.6242 44.8644 25.4615C44.9225 25.2989 45.0387 25.2989 45.213 25.2291C45.364 25.2291 45.4802 25.4034 45.4802 25.5777C45.4802 25.7403 45.5383 25.8449 45.5964 26.0773L45.6428 25.8449C45.6428 25.6242 45.9217 25.6823 46.096 25.7287C46.2586 25.7984 46.3167 26.1237 46.096 26.298C45.9798 26.4142 46.0379 26.5768 46.154 26.6814C46.5374 27.2972 47.1997 27.7968 47.769 27.8548C47.769 27.6225 47.8851 27.4134 48.0478 27.2391C48.0478 27.1229 48.0943 26.9602 48.164 26.8557C48.2105 26.5188 48.3731 26.3561 48.5939 26.4607C48.5474 26.4026 48.4777 26.3445 48.4777 26.298C48.315 26.1237 48.1524 25.8449 48.2685 25.6242C48.3847 25.4034 48.71 25.4615 48.8262 25.5777C48.7681 25.2291 49.1515 24.9619 49.1515 24.7877C49.2096 24.9619 49.3258 25.1827 49.2677 25.3453C49.3258 25.1246 49.7092 24.8457 49.988 24.7412C49.8719 24.9038 50.2204 25.1827 50.1623 25.3453C50.2785 25.0665 50.72 24.9038 51.0453 24.9038C50.9291 25.02 50.9291 25.2408 50.9291 25.3453C51.1034 25.3453 51.3938 25.2989 51.4984 25.1246C51.4984 25.3569 51.3822 25.5777 51.266 25.6822C51.3241 25.6242 51.5449 25.6242 51.7191 25.6242C51.5449 25.7984 51.603 25.9727 51.4403 26.0773C51.661 25.9611 51.9399 25.9611 51.998 26.1934C52.1141 26.3561 51.9399 26.6349 51.8237 26.7976C51.7075 26.8557 51.6029 26.9602 51.5449 26.9602Z" fill="#F9D050" stroke="black" stroke-width="0.162654"/>
<path d="M48.1044 27.6328C47.7094 27.7955 47.5932 28.1905 47.5352 28.4112" stroke="black" stroke-width="0.162654"/>
<path d="M48.0468 28.0156C47.4891 28.3642 47.2567 28.6314 47.3729 29.2471M48.314 29.7003C48.6625 29.5841 48.8716 29.4679 49.1505 28.9683" stroke="black" stroke-width="0.162654"/>
<path d="M48.9869 29.1914C48.8707 29.4238 48.9869 29.8072 48.8242 29.9698C48.9737 29.8955 49.1026 29.7856 49.1998 29.6499C49.297 29.5142 49.3595 29.3568 49.3819 29.1914" stroke="black" stroke-width="0.162654"/>
<path d="M49.1055 29.8082C49.3262 29.6921 49.6631 29.3551 49.8258 28.9717C49.7677 29.1344 49.8258 29.4132 49.7096 29.5875C49.9884 29.3087 50.1046 29.1344 50.1627 28.8556L50.2092 29.0879C50.3254 28.9717 50.4416 28.8556 50.4416 28.6348M50.4299 28.7975V29.0763C50.6623 28.9136 50.7204 28.6929 50.7204 28.4141" stroke="black" stroke-width="0.162654"/>
<path d="M50.6612 28.7494C50.9981 28.517 51.0446 28.1917 51.0446 27.6921M51.0446 28.2498C51.277 28.0755 51.3234 27.971 51.3234 27.4598M50.6031 25.961C50.4869 25.961 50.3708 26.0191 50.3708 26.1934C50.3708 26.2979 50.2081 26.4606 50.2081 26.6349C50.1616 26.8556 50.0454 26.9137 49.8828 26.8556C49.7085 26.7394 49.7085 26.7394 49.7085 26.5768C49.7085 26.3444 49.9874 26.2979 49.9874 26.0772C50.0454 25.961 50.1035 25.7984 50.1616 25.7984C49.8828 25.961 49.4878 25.8448 49.4297 25.5195" stroke="black" stroke-width="0.162654"/>
<path d="M51.1036 26.1218C50.9875 26.1799 50.8713 26.0056 50.7202 26.0753C50.6622 26.0753 50.4879 26.1218 50.4414 26.0753" stroke="black" stroke-width="0.162654"/>
<path d="M50.3229 26.4039C50.381 26.462 50.6599 26.5782 50.9387 26.462C50.7063 26.5201 50.5437 26.2413 50.7644 26.0786M49.8234 25.8462C49.591 25.8462 49.4283 26.0205 49.4864 26.1948C49.5445 26.3574 49.7653 26.3574 49.9279 26.2413M49.4283 28.6346C49.4864 28.5765 49.5445 28.4719 49.5445 28.4022C49.6607 28.4022 49.7769 28.3558 49.8234 28.2977C50.0441 28.2977 50.2068 28.135 50.2648 27.9724C50.381 27.9724 50.4391 27.6935 50.4972 27.5774C50.5437 27.6354 50.6599 27.5774 50.718 27.345C50.8341 27.4147 50.9968 27.345 51.0433 27.1823M48.7661 26.7989C48.7661 26.857 48.6499 26.9616 48.5338 27.0313C48.5918 27.1359 48.5337 27.4147 48.4292 27.4612C48.4873 27.5774 48.4292 27.74 48.3711 27.8562C48.3711 27.9143 48.4292 28.0885 48.4292 28.135M48.9869 25.6836C48.8707 25.9624 48.9288 26.2994 49.1495 26.3574" stroke="black" stroke-width="0.162654"/>
<path d="M49.105 26.5671C49.0469 26.8575 49.0469 27.2409 48.9888 27.4152C48.9307 27.5314 48.8262 27.9148 49.2676 28.0193C49.7672 28.1355 50.0461 28.0774 50.3249 27.2409M51.1614 29.4135C51.1614 29.4716 51.1033 29.5878 50.9987 29.5878M51.5448 29.309C51.5448 29.4251 51.4286 29.5878 51.3821 29.6343M51.9398 29.1928C51.9398 29.309 51.9398 29.4716 51.8236 29.5297M48.5473 25.7422C48.5938 25.7422 48.6635 25.8584 48.71 25.9629C48.5473 25.8468 48.373 26.1256 48.4776 26.2999M48.373 26.6833L48.1523 26.8575M48.2104 27.1828C48.1523 27.1828 48.0942 27.2409 48.0477 27.2409M45.5382 26.1837C45.5382 26.1256 45.5382 26.1256 45.5963 26.0675M45.0386 26.021C44.9806 26.021 44.9806 26.021 44.9225 25.9629M45.0851 26.7994H45.2013M44.8644 26.4625C44.7761 26.3749 44.6621 26.3179 44.5391 26.2999M47.9316 28.5305C47.5365 28.8558 47.3739 29.1347 47.3158 29.5297M48.315 28.7978C48.2163 29.0047 48.0638 29.1812 47.8735 29.309M46.154 30.4708C45.968 30.5307 45.7708 30.5472 45.5774 30.519C45.3841 30.4908 45.1997 30.4187 45.0386 30.3081C44.9806 30.25 44.9225 30.25 44.8644 30.1919M47.8154 29.704C47.7689 29.9131 47.6992 30.1919 47.5946 30.25C48.0477 30.0177 48.4311 29.6924 48.4892 29.1928M44.5855 30.7496C44.7598 30.6915 44.9341 30.8077 45.0386 30.6915M54.2751 28.9139C54.3912 28.972 54.5539 29.0301 54.612 29.0766C54.6701 28.9604 54.8908 28.7978 55.0535 28.7513M50.3249 30.0874C50.2668 29.855 50.383 29.5878 50.7199 29.4716M48.1523 31.0284C48.2104 30.9123 48.2104 30.7496 48.2685 30.645M45.7009 31.2027C45.6428 31.3189 45.5382 31.4235 45.5382 31.528M44.8644 31.3073C44.8644 31.3073 44.8644 31.2492 44.9225 31.2492C45.0386 31.2027 45.2013 31.0865 45.2594 30.9703M52.4394 30.5289C52.3232 30.587 52.2767 30.5289 52.2187 30.4708M52.3813 30.8077C52.3813 30.8077 52.3348 30.8658 52.2651 30.8658M52.6601 31.0865C52.6021 31.1446 52.544 31.2027 52.4975 31.2027M54.2751 31.2027C54.3912 31.1446 54.4493 31.0284 54.5074 30.8077M53.5547 31.1446C53.7174 31.0865 53.8336 30.9703 53.9962 30.8077M55.1116 30.6915C55.1116 30.5753 55.1116 30.4708 55.1697 30.3662M59.236 31.2027C59.1198 31.0865 59.1198 30.9239 59.2941 30.8077C59.4103 30.7496 59.4567 30.6915 59.5729 30.645" stroke="black" stroke-width="0.162654"/>
<path d="M55.8317 29.2392C54.9487 28.8558 55.0068 28.3563 54.2749 28.4144M59.7935 30.982C59.8516 31.0284 59.7935 31.2027 59.7935 31.2492M60.2931 30.982C60.235 31.1446 60.235 31.2027 60.235 31.3654M56.006 25.7422H55.5413M51.3239 27.6359C51.3239 27.7521 51.4982 27.9729 51.9396 27.9729C51.8816 27.9729 51.8235 27.9148 51.8235 27.9148M51.5446 26.9621C51.4982 27.0202 51.4284 26.9621 51.4284 26.9621C51.3239 26.8459 51.4982 26.6368 51.6608 26.5206C51.4982 26.5787 51.382 26.5787 51.2658 26.5787C51.1496 26.9156 50.8243 27.0783 50.6036 26.8575C50.5455 27.0783 50.2666 27.3571 50.0459 27.299C49.8135 27.1828 49.7671 27.0202 49.8135 26.8575C49.5463 27.1828 49.2094 26.9737 49.1048 26.8575C49.0467 26.7413 49.1048 26.4625 49.221 26.1256" stroke="black" stroke-width="0.162654"/>
<path d="M55.1123 29.0742C54.9496 29.1904 54.7753 29.0742 54.6127 29.2485C54.4965 29.3647 54.6708 29.4111 54.7753 29.4111C54.7289 29.5854 54.7289 29.6435 55.0077 29.6435C54.8915 29.8062 55.2284 29.8642 55.1703 30.085C55.2403 30.0125 55.2884 29.9216 55.3089 29.8229C55.3295 29.7243 55.3217 29.6218 55.2865 29.5273C55.2284 29.3531 54.938 29.2485 55.1123 29.0742Z" fill="black"/>
<path d="M50.0475 27.2961C49.8152 27.1799 49.7687 27.0172 49.8152 26.8546C49.7687 26.9708 49.6641 27.0172 49.548 27.0172C49.3156 27.5168 49.0484 27.9699 48.7114 27.9699C48.3164 28.0164 48.3745 28.4114 48.6534 28.4114C49.2691 28.5276 49.548 28.2952 50.0475 27.2961ZM44.5405 25.96C44.7032 25.7973 44.587 25.6231 44.4824 25.5766C44.3082 25.5185 43.9829 25.5766 43.8086 25.8438C43.9829 25.7973 44.1571 25.7973 44.2036 25.9019C44.2617 26.0181 44.3663 26.1343 44.5405 25.96ZM44.8194 24.9608C45.2028 24.9608 45.319 25.0189 45.3654 25.1816C45.4235 25.2978 45.319 25.4604 45.2028 25.4604C45.0401 25.4604 44.8658 25.3442 44.9239 25.2978C44.982 25.1816 44.982 25.0189 44.8078 24.9492L44.8194 24.9608ZM45.9231 25.8438C46.2019 25.9019 46.3181 25.7276 46.1555 25.5185C46.0974 25.3442 45.9231 25.2397 45.6443 25.2861C45.9231 25.4604 45.6443 25.7393 45.9231 25.8438ZM43.8667 26.7965C43.9167 26.8953 44.0004 26.9731 44.1026 27.0157C44.2049 27.0583 44.319 27.0629 44.4244 27.0289C44.587 26.9592 44.6567 26.7965 44.587 26.6803C44.4708 26.5177 44.3082 26.4596 44.2617 26.6803C44.1455 26.9127 43.9829 26.8546 43.8667 26.7965ZM44.7032 30.189C44.587 29.9683 44.2617 29.9683 43.9829 30.189C44.099 30.1309 44.3082 30.189 44.3663 30.3052C44.4244 30.4214 44.5405 30.4214 44.5986 30.4214C44.6451 30.3633 44.7613 30.3052 44.7032 30.189ZM45.1447 29.8637C45.1447 29.5849 44.7613 29.5151 44.5405 29.6313C44.6567 29.6313 44.8194 29.7475 44.8194 29.8637C44.8658 29.9799 44.982 30.0263 45.0401 30.0263C45.1563 29.9683 45.2028 29.9102 45.1563 29.8637H45.1447ZM44.587 30.8628C44.2617 30.8048 44.0874 31.1998 44.0874 31.467C44.1455 31.3043 44.3198 31.1998 44.4824 31.2462C44.6451 31.2462 44.7032 31.1998 44.7032 31.0836C44.7613 30.9674 44.7032 30.9209 44.587 30.8512V30.8628ZM44.6451 31.8039C44.7613 31.862 44.8775 31.7458 44.9239 31.5832C44.9239 31.467 45.1563 31.467 45.2028 31.5251C45.319 31.5832 45.319 31.8039 45.1447 31.9201C45.0285 31.9782 44.7613 32.0363 44.6451 31.8039ZM52.3828 30.1309C52.2666 30.0844 51.9994 29.9683 51.7786 30.1309C51.9413 30.0844 52.0575 30.189 52.1039 30.3052C52.1039 30.4214 52.2782 30.4678 52.3363 30.3633C52.3828 30.3052 52.4525 30.189 52.3828 30.1309ZM51.8832 30.5259C51.6625 30.4097 51.3836 30.6886 51.3255 30.9209C51.4391 30.8283 51.5756 30.7681 51.7205 30.7467C51.8367 30.8048 51.9413 30.7467 51.9413 30.6305C51.9994 30.584 51.9994 30.5259 51.8832 30.5259ZM52.1736 30.979C51.9994 30.979 51.7786 31.1998 51.7786 31.4205C51.8251 31.3043 51.9413 31.2462 52.0575 31.3043C52.1736 31.3043 52.3363 31.2462 52.3363 31.1417C52.3363 31.0255 52.2782 30.9674 52.162 30.9674L52.1736 30.979ZM52.6616 31.4205C52.5454 31.3624 52.3828 31.4205 52.3828 31.5832C52.3828 31.7458 52.3828 31.9201 52.3363 31.9782C52.4525 31.862 52.557 31.8039 52.6616 31.7458C52.7197 31.6994 52.7778 31.5251 52.6616 31.4205ZM58.9586 30.9209C58.8425 30.8048 58.6798 30.8628 58.6217 30.9674C58.5636 31.0836 58.5055 31.3624 58.6217 31.5832C58.6217 31.467 58.7379 31.3043 58.8541 31.3043C59.0167 31.2462 59.0632 31.0255 58.9586 30.9209ZM59.2956 31.1417C59.0632 31.2579 59.0632 31.6413 59.2375 31.862C59.2375 31.7458 59.2956 31.5832 59.4001 31.5251C59.5744 31.5251 59.6325 31.3043 59.5744 31.1998C59.4582 31.0836 59.342 31.1417 59.2956 31.1417ZM59.9578 31.3624C59.8416 31.3043 59.7254 31.4205 59.7254 31.5251C59.679 31.6994 59.7951 31.9201 59.9578 32.0247C59.9578 31.9085 60.0159 31.8039 60.074 31.7458C60.2366 31.6296 60.1902 31.4205 59.9578 31.3624ZM60.4574 31.3043C60.3412 31.3043 60.2366 31.467 60.3412 31.6413C60.3993 31.7574 60.5155 31.8039 60.7362 31.7574C60.6781 31.7574 60.5736 31.5832 60.62 31.5251C60.6781 31.4089 60.62 31.3043 60.4574 31.3043Z" fill="#073163"/>
<path d="M44.9811 41.7148L47.7694 33.1406L50.5578 41.7148L43.25 36.4286H52.2889L44.9811 41.7148Z" fill="#F9D050"/>
<path d="M45.5392 40.9373L51.325 36.7083H44.2031L49.9309 40.9373L47.7699 34.1523L45.5392 40.9373Z" fill="#024919"/>
<path d="M55.4498 41.7148L58.2382 33.1406L61.0266 41.7148L53.7188 36.4286H62.7577L55.4498 41.7148Z" fill="#F9D050"/>
<path d="M56.008 40.9373L61.7938 36.7083H54.6719L60.3996 40.9373L58.2386 34.1523L56.008 40.9373Z" fill="#024919"/>
<path d="M50.2116 47.7812L52.9999 39.207L55.7883 47.7812L48.4805 42.495H57.5194L50.2116 47.7812Z" fill="#F9D050"/>
<path d="M50.7697 47.0037L56.5555 42.7747H49.4336L55.1613 47.0037L53.0004 40.2188L50.7697 47.0037Z" fill="#024919"/>
<path d="M63.4091 24.2421V35.0934C63.4091 44.5041 58.9594 47.734 52.9993 50.2899C47.0392 47.734 42.543 44.5041 42.543 35.0934V24.2305H63.4091V24.2421Z" stroke="black" stroke-width="0.162654"/>
</g>
</g>
</g>
<defs>
<clipPath id="clip0_423_8086">
<rect width="64" height="64" rx="32" fill="white"/>
</clipPath>
<clipPath id="clip1_423_8086">
<rect width="64" height="64" fill="white"/>
</clipPath>
<clipPath id="clip2_423_8086">
<rect width="85.3333" height="64" fill="white" transform="translate(-10.668)"/>
</clipPath>
</defs>
</svg>
