<svg width="64" height="64" viewBox="0 0 64 64" fill="none" xmlns="http://www.w3.org/2000/svg">
<g clip-path="url(#clip0_423_11140)">
<g clip-path="url(#clip1_423_11140)">
<g clip-path="url(#clip2_423_11140)">
<path d="M-10.668 0H74.6654V32H-10.668V0Z" fill="#002B7F"/>
<path d="M-10.668 32H74.6654V64H-10.668V32Z" fill="#CE1126"/>
<path d="M12.4175 13.0438L12.2148 19.7105H5.45217C4.62017 18.0892 3.9375 16.7238 3.9375 14.8572C3.9375 13.2998 5.16417 12.0625 6.92417 12.0625C8.79083 12.0625 10.8495 12.6918 12.4175 13.0438Z" fill="#FFD83D"/>
<path d="M4.74609 13.3514V17.1914ZM5.27943 12.9567V18.0767ZM5.83409 12.69V18.7914ZM6.36743 12.562V17.3514ZM6.91143 12.5407V17.3727ZM7.45543 12.3594V17.3727ZM7.99943 12.3594V17.3727ZM8.54343 12.4127V17.426ZM9.08743 12.466V17.4687ZM9.63143 12.7754V17.7887ZM10.1648 12.8287V18.4714ZM10.7194 12.8287V17.842ZM11.2528 12.8287V17.842Z" fill="#FFD83D"/>
<path d="M4.74609 13.3514V17.1914M5.27943 12.9567V18.0767M5.83409 12.69V18.7914M6.36743 12.562V17.3514M6.91143 12.5407V17.3727M7.45543 12.3594V17.3727M7.99943 12.3594V17.3727M8.54343 12.4127V17.426M9.08743 12.466V17.4687M9.63143 12.7754V17.7887M10.1648 12.8287V18.4714M10.7194 12.8287V17.842M11.2528 12.8287V17.842" stroke="black" stroke-width="0.16" stroke-linecap="round" stroke-linejoin="round"/>
<path d="M8.14754 12.582C9.29954 12.7634 11.8169 13.9474 11.5289 15.5367C11.1235 17.798 9.80087 16.8914 8.05154 16.5714L6.72888 17.0087C6.24888 17.4887 5.55554 17.9367 5.08621 17.35H4.29688V20.422H12.9795V13.0087L8.14754 12.582Z" fill="#000001" stroke="black" stroke-width="0.16" stroke-linecap="round" stroke-linejoin="round"/>
<path d="M12.0305 12.5727C12.3191 12.5727 12.5531 12.3387 12.5531 12.05C12.5531 11.7613 12.3191 11.5273 12.0305 11.5273C11.7418 11.5273 11.5078 11.7613 11.5078 12.05C11.5078 12.3387 11.7418 12.5727 12.0305 12.5727Z" fill="#FFD83D" stroke="black" stroke-width="0.213333" stroke-linecap="round" stroke-linejoin="round"/>
<path d="M10.8469 12.2836C11.1355 12.2836 11.3696 12.0496 11.3696 11.7609C11.3696 11.4723 11.1355 11.2383 10.8469 11.2383C10.5582 11.2383 10.3242 11.4723 10.3242 11.7609C10.3242 12.0496 10.5582 12.2836 10.8469 12.2836Z" fill="#FFD83D" stroke="black" stroke-width="0.213333" stroke-linecap="round" stroke-linejoin="round"/>
<path d="M9.64376 11.9867C9.93242 11.9867 10.1664 11.7527 10.1664 11.4641C10.1664 11.1754 9.93242 10.9414 9.64376 10.9414C9.3551 10.9414 9.12109 11.1754 9.12109 11.4641C9.12109 11.7527 9.3551 11.9867 9.64376 11.9867Z" fill="#FFD83D" stroke="black" stroke-width="0.213333" stroke-linecap="round" stroke-linejoin="round"/>
<path d="M8.43673 11.7836C8.72539 11.7836 8.9594 11.5496 8.9594 11.2609C8.9594 10.9723 8.72539 10.7383 8.43673 10.7383C8.14807 10.7383 7.91406 10.9723 7.91406 11.2609C7.91406 11.5496 8.14807 11.7836 8.43673 11.7836Z" fill="#FFD83D" stroke="black" stroke-width="0.213333" stroke-linecap="round" stroke-linejoin="round"/>
<path d="M7.23361 11.6664C7.52227 11.6664 7.75627 11.4324 7.75627 11.1438C7.75627 10.8551 7.52227 10.6211 7.23361 10.6211C6.94494 10.6211 6.71094 10.8551 6.71094 11.1438C6.71094 11.4324 6.94494 11.6664 7.23361 11.6664Z" fill="#FFD83D" stroke="black" stroke-width="0.213333" stroke-linecap="round" stroke-linejoin="round"/>
<path d="M6.05782 11.7289C6.34648 11.7289 6.58049 11.4949 6.58049 11.2063C6.58049 10.9176 6.34648 10.6836 6.05782 10.6836C5.76916 10.6836 5.53516 10.9176 5.53516 11.2063C5.53516 11.4949 5.76916 11.7289 6.05782 11.7289Z" fill="#FFD83D" stroke="black" stroke-width="0.213333" stroke-linecap="round" stroke-linejoin="round"/>
<path d="M4.92892 12.1156C5.21758 12.1156 5.45158 11.8816 5.45158 11.593C5.45158 11.3043 5.21758 11.0703 4.92892 11.0703C4.64026 11.0703 4.40625 11.3043 4.40625 11.593C4.40625 11.8816 4.64026 12.1156 4.92892 12.1156Z" fill="#FFD83D" stroke="black" stroke-width="0.213333" stroke-linecap="round" stroke-linejoin="round"/>
<path d="M3.9797 12.8188C4.26836 12.8188 4.50236 12.5848 4.50236 12.2961C4.50236 12.0074 4.26836 11.7734 3.9797 11.7734C3.69104 11.7734 3.45703 12.0074 3.45703 12.2961C3.45703 12.5848 3.69104 12.8188 3.9797 12.8188Z" fill="#FFD83D" stroke="black" stroke-width="0.213333" stroke-linecap="round" stroke-linejoin="round"/>
<path d="M3.30782 13.7875C3.59648 13.7875 3.83049 13.5535 3.83049 13.2649C3.83049 12.9762 3.59648 12.7422 3.30782 12.7422C3.01916 12.7422 2.78516 12.9762 2.78516 13.2649C2.78516 13.5535 3.01916 13.7875 3.30782 13.7875Z" fill="#FFD83D" stroke="black" stroke-width="0.213333" stroke-linecap="round" stroke-linejoin="round"/>
<path d="M2.97579 14.9399C3.26445 14.9399 3.49846 14.7059 3.49846 14.4172C3.49846 14.1285 3.26445 13.8945 2.97579 13.8945C2.68713 13.8945 2.45312 14.1285 2.45312 14.4172C2.45312 14.7059 2.68713 14.9399 2.97579 14.9399Z" fill="#FFD83D" stroke="black" stroke-width="0.213333" stroke-linecap="round" stroke-linejoin="round"/>
<path d="M2.98751 16.1235C3.27617 16.1235 3.51018 15.8895 3.51018 15.6008C3.51018 15.3121 3.27617 15.0781 2.98751 15.0781C2.69885 15.0781 2.46484 15.3121 2.46484 15.6008C2.46484 15.8895 2.69885 16.1235 2.98751 16.1235Z" fill="#FFD83D" stroke="black" stroke-width="0.213333" stroke-linecap="round" stroke-linejoin="round"/>
<path d="M3.22188 17.2875C3.51055 17.2875 3.74455 17.0535 3.74455 16.7649C3.74455 16.4762 3.51055 16.2422 3.22188 16.2422C2.93322 16.2422 2.69922 16.4762 2.69922 16.7649C2.69922 17.0535 2.93322 17.2875 3.22188 17.2875Z" fill="#FFD83D" stroke="black" stroke-width="0.213333" stroke-linecap="round" stroke-linejoin="round"/>
<path d="M12.2647 12.7431L12.2114 13.4364C10.8994 13.2231 9.04336 12.4977 7.3047 12.4977C5.7047 12.4977 4.46736 13.1377 4.46736 14.7591C4.46736 16.3484 5.13936 17.7991 6.03536 19.2711L5.10736 19.6977C4.27536 18.0977 3.58203 16.7111 3.58203 14.8551C3.58203 13.2977 4.8087 11.7617 6.9207 11.7617C8.78736 11.7617 10.6967 12.4017 12.2647 12.7431Z" fill="#FFD83D" stroke="black" stroke-width="0.213333" stroke-linecap="round" stroke-linejoin="round"/>
<path d="M13.6059 13.0438L13.8086 19.7105H20.5713C21.4033 18.0892 22.0859 16.7238 22.0859 14.8572C22.0859 13.2998 20.8593 12.0625 19.0993 12.0625C17.2326 12.0625 15.1739 12.6918 13.6059 13.0438Z" fill="#FFD83D"/>
<path d="M21.2773 13.3514V17.1914ZM20.744 12.9567V18.0767ZM20.1893 12.69V18.7914ZM19.656 12.562V17.3514ZM19.112 12.5407V17.3727ZM18.568 12.3594V17.3727ZM18.024 12.3594V17.3727ZM17.48 12.4127V17.426ZM16.936 12.466V17.4687ZM16.392 12.7754V17.7887ZM15.8587 12.8287V18.4714ZM15.304 12.8287V17.842ZM14.7707 12.8287V17.842Z" fill="#FFD83D"/>
<path d="M21.2773 13.3514V17.1914M20.744 12.9567V18.0767M20.1893 12.69V18.7914M19.656 12.562V17.3514M19.112 12.5407V17.3727M18.568 12.3594V17.3727M18.024 12.3594V17.3727M17.48 12.4127V17.426M16.936 12.466V17.4687M16.392 12.7754V17.7887M15.8587 12.8287V18.4714M15.304 12.8287V17.842M14.7707 12.8287V17.842" stroke="black" stroke-width="0.16" stroke-linecap="round" stroke-linejoin="round"/>
<path d="M17.8759 12.582C16.7239 12.7634 14.2066 13.9474 14.4946 15.5367C14.8999 17.798 16.2226 16.8914 17.9719 16.5714L19.2946 17.0087C19.7746 17.4887 20.4679 17.9367 20.9372 17.35H21.7266V20.422H13.0439V13.0087L17.8759 12.582Z" fill="#000001" stroke="black" stroke-width="0.16" stroke-linecap="round" stroke-linejoin="round"/>
<path d="M13.993 12.5727C13.7043 12.5727 13.4703 12.3387 13.4703 12.05C13.4703 11.7613 13.7043 11.5273 13.993 11.5273C14.2816 11.5273 14.5156 11.7613 14.5156 12.05C14.5156 12.3387 14.2816 12.5727 13.993 12.5727Z" fill="#FFD83D" stroke="black" stroke-width="0.213333" stroke-linecap="round" stroke-linejoin="round"/>
<path d="M15.1766 12.2836C14.8879 12.2836 14.6539 12.0496 14.6539 11.7609C14.6539 11.4723 14.8879 11.2383 15.1766 11.2383C15.4652 11.2383 15.6992 11.4723 15.6992 11.7609C15.6992 12.0496 15.4652 12.2836 15.1766 12.2836Z" fill="#FFD83D" stroke="black" stroke-width="0.213333" stroke-linecap="round" stroke-linejoin="round"/>
<path d="M16.3797 11.9867C16.091 11.9867 15.857 11.7527 15.857 11.4641C15.857 11.1754 16.091 10.9414 16.3797 10.9414C16.6683 10.9414 16.9023 11.1754 16.9023 11.4641C16.9023 11.7527 16.6683 11.9867 16.3797 11.9867Z" fill="#FFD83D" stroke="black" stroke-width="0.213333" stroke-linecap="round" stroke-linejoin="round"/>
<path d="M17.5867 11.7836C17.298 11.7836 17.064 11.5496 17.064 11.2609C17.064 10.9723 17.298 10.7383 17.5867 10.7383C17.8754 10.7383 18.1094 10.9723 18.1094 11.2609C18.1094 11.5496 17.8754 11.7836 17.5867 11.7836Z" fill="#FFD83D" stroke="black" stroke-width="0.213333" stroke-linecap="round" stroke-linejoin="round"/>
<path d="M18.7898 11.6664C18.5012 11.6664 18.2672 11.4324 18.2672 11.1438C18.2672 10.8551 18.5012 10.6211 18.7898 10.6211C19.0785 10.6211 19.3125 10.8551 19.3125 11.1438C19.3125 11.4324 19.0785 11.6664 18.7898 11.6664Z" fill="#FFD83D" stroke="black" stroke-width="0.213333" stroke-linecap="round" stroke-linejoin="round"/>
<path d="M19.9656 11.7289C19.677 11.7289 19.4429 11.4949 19.4429 11.2063C19.4429 10.9176 19.677 10.6836 19.9656 10.6836C20.2543 10.6836 20.4883 10.9176 20.4883 11.2063C20.4883 11.4949 20.2543 11.7289 19.9656 11.7289Z" fill="#FFD83D" stroke="black" stroke-width="0.213333" stroke-linecap="round" stroke-linejoin="round"/>
<path d="M21.0945 12.1156C20.8059 12.1156 20.5719 11.8816 20.5719 11.593C20.5719 11.3043 20.8059 11.0703 21.0945 11.0703C21.3832 11.0703 21.6172 11.3043 21.6172 11.593C21.6172 11.8816 21.3832 12.1156 21.0945 12.1156Z" fill="#FFD83D" stroke="black" stroke-width="0.213333" stroke-linecap="round" stroke-linejoin="round"/>
<path d="M22.0437 12.8188C21.7551 12.8188 21.5211 12.5848 21.5211 12.2961C21.5211 12.0074 21.7551 11.7734 22.0437 11.7734C22.3324 11.7734 22.5664 12.0074 22.5664 12.2961C22.5664 12.5848 22.3324 12.8188 22.0437 12.8188Z" fill="#FFD83D" stroke="black" stroke-width="0.213333" stroke-linecap="round" stroke-linejoin="round"/>
<path d="M22.7156 13.7875C22.427 13.7875 22.1929 13.5535 22.1929 13.2649C22.1929 12.9762 22.427 12.7422 22.7156 12.7422C23.0043 12.7422 23.2383 12.9762 23.2383 13.2649C23.2383 13.5535 23.0043 13.7875 22.7156 13.7875Z" fill="#FFD83D" stroke="black" stroke-width="0.213333" stroke-linecap="round" stroke-linejoin="round"/>
<path d="M23.0476 14.9399C22.759 14.9399 22.525 14.7059 22.525 14.4172C22.525 14.1285 22.759 13.8945 23.0476 13.8945C23.3363 13.8945 23.5703 14.1285 23.5703 14.4172C23.5703 14.7059 23.3363 14.9399 23.0476 14.9399Z" fill="#FFD83D" stroke="black" stroke-width="0.213333" stroke-linecap="round" stroke-linejoin="round"/>
<path d="M23.0359 16.1235C22.7473 16.1235 22.5133 15.8895 22.5133 15.6008C22.5133 15.3121 22.7473 15.0781 23.0359 15.0781C23.3246 15.0781 23.5586 15.3121 23.5586 15.6008C23.5586 15.8895 23.3246 16.1235 23.0359 16.1235Z" fill="#FFD83D" stroke="black" stroke-width="0.213333" stroke-linecap="round" stroke-linejoin="round"/>
<path d="M22.8016 17.2875C22.5129 17.2875 22.2789 17.0535 22.2789 16.7649C22.2789 16.4762 22.5129 16.2422 22.8016 16.2422C23.0902 16.2422 23.3242 16.4762 23.3242 16.7649C23.3242 17.0535 23.0902 17.2875 22.8016 17.2875Z" fill="#FFD83D" stroke="black" stroke-width="0.213333" stroke-linecap="round" stroke-linejoin="round"/>
<path d="M13.7587 12.7431L13.8121 13.4364C15.1241 13.2231 16.9801 12.4977 18.7187 12.4977C20.3187 12.4977 21.5561 13.1377 21.5561 14.7591C21.5561 16.3484 20.8841 17.7991 19.9881 19.2711L20.9161 19.6977C21.7481 18.0977 22.4414 16.7111 22.4414 14.8551C22.4414 13.2977 21.2147 11.7617 19.1027 11.7617C17.2361 11.7617 15.3267 12.4017 13.7587 12.7431Z" fill="#FFD83D" stroke="black" stroke-width="0.213333" stroke-linecap="round" stroke-linejoin="round"/>
<path d="M13.0134 5.66301L12.4588 6.69768L13.0134 7.72168L13.5574 6.69768L13.0134 5.65234V5.66301ZM13.0134 8.26568L12.4588 9.28968L13.0134 10.3243L13.5468 9.27901L13.0134 8.26568ZM11.0508 7.99901L11.9148 8.54301L12.7788 7.99901L11.9254 7.44434L11.0508 7.99901ZM13.2374 7.99901L14.1014 8.54301L14.9761 7.99901L14.1014 7.44434L13.2374 7.99901Z" fill="#FFD83D" stroke="black" stroke-width="0.213333" stroke-linecap="round" stroke-linejoin="round"/>
<path d="M13.0137 8.42575C13.2434 8.42575 13.4297 8.2395 13.4297 8.00975C13.4297 7.78 13.2434 7.59375 13.0137 7.59375C12.7839 7.59375 12.5977 7.78 12.5977 8.00975C12.5977 8.2395 12.7839 8.42575 13.0137 8.42575Z" fill="#FFD83D" stroke="black" stroke-width="0.213333" stroke-linecap="round" stroke-linejoin="round"/>
<path d="M13.0106 11.7869C13.6292 11.7869 14.1306 11.2854 14.1306 10.6669C14.1306 10.0483 13.6292 9.54688 13.0106 9.54688C12.3921 9.54688 11.8906 10.0483 11.8906 10.6669C11.8906 11.2854 12.3921 11.7869 13.0106 11.7869Z" fill="#FFD83D" stroke="black" stroke-width="0.213333" stroke-linecap="round" stroke-linejoin="round"/>
<path d="M12.7219 9.58984V10.2938C12.4573 10.3066 12.1937 10.3351 11.9325 10.3792M14.0872 10.3792C13.8225 10.3345 13.5554 10.3061 13.2872 10.2938V9.58984M11.9219 10.9445C12.2812 10.8823 12.6452 10.8502 13.0099 10.8485C13.3725 10.8485 13.7352 10.8805 14.0765 10.9445" stroke="black" stroke-width="0.16" stroke-linecap="round" stroke-linejoin="round"/>
<path d="M11.9253 12.5547C11.8186 14.368 11.6053 16.2347 10.8906 17.5787L12.0426 17.1094C12.448 15.584 12.5333 13.6107 12.6506 12.672L11.9253 12.5547ZM14.1013 12.5547L13.3653 12.672C13.4933 13.6107 13.5786 15.584 13.9733 17.1094L15.1253 17.5787C14.4213 16.2347 14.208 14.3787 14.1013 12.5547Z" fill="#FFD83D" stroke="black" stroke-width="0.213333" stroke-linecap="round" stroke-linejoin="round"/>
<path d="M13.0118 16.5C11.6251 16.5 10.6118 17.14 10.5584 18.804C10.2171 18.2067 8.79843 16.3507 7.46509 16.596C6.67576 16.7453 5.97176 17.844 6.09976 19.092C5.43843 17.2147 3.52909 16.9053 2.12109 18.0253C3.36909 19.0387 3.92376 22.0573 4.96909 23.3587H21.0438C22.0891 22.0573 22.6438 19.0387 23.8918 18.0253C22.4944 16.9053 20.5744 17.2147 19.9238 19.092C20.0304 17.844 19.3371 16.7453 18.5371 16.596C17.2144 16.3507 15.7958 18.2067 15.4544 18.804C15.4011 17.1507 14.3878 16.5 13.0011 16.5H13.0118Z" fill="#FFD83D" stroke="black" stroke-width="0.213333" stroke-linecap="round" stroke-linejoin="round"/>
<path d="M21.0242 23.3598C21.0242 23.9571 17.4402 24.6078 13.0135 24.6078C8.58685 24.6078 4.99219 23.9678 4.99219 23.3598C4.99219 22.7731 8.58685 22.4531 13.0135 22.4531C17.4295 22.4531 21.0242 22.7731 21.0242 23.3598Z" fill="#000001" stroke="black" stroke-width="0.16" stroke-linecap="round" stroke-linejoin="round"/>
<path d="M13.0101 12.5748C13.2162 12.5748 13.3834 12.4076 13.3834 12.2015C13.3834 11.9953 13.2162 11.8281 13.0101 11.8281C12.8039 11.8281 12.6367 11.9953 12.6367 12.2015C12.6367 12.4076 12.8039 12.5748 13.0101 12.5748Z" fill="#FFD83D" stroke="black" stroke-width="0.16" stroke-linecap="round" stroke-linejoin="round"/>
<path d="M13.0119 13.4065C13.2298 13.4065 13.4065 13.2298 13.4065 13.0119C13.4065 12.7939 13.2298 12.6172 13.0119 12.6172C12.7939 12.6172 12.6172 12.7939 12.6172 13.0119C12.6172 13.2298 12.7939 13.4065 13.0119 13.4065Z" fill="#FFD83D" stroke="black" stroke-width="0.16" stroke-linecap="round" stroke-linejoin="round"/>
<path d="M13.0116 14.3239C13.2531 14.3239 13.4489 14.1281 13.4489 13.8866C13.4489 13.645 13.2531 13.4492 13.0116 13.4492C12.77 13.4492 12.5742 13.645 12.5742 13.8866C12.5742 14.1281 12.77 14.3239 13.0116 14.3239Z" fill="#FFD83D" stroke="black" stroke-width="0.16" stroke-linecap="round" stroke-linejoin="round"/>
<path d="M13.0131 15.3581C13.2899 15.3581 13.5144 15.1337 13.5144 14.8568C13.5144 14.5799 13.2899 14.3555 13.0131 14.3555C12.7362 14.3555 12.5117 14.5799 12.5117 14.8568C12.5117 15.1337 12.7362 15.3581 13.0131 15.3581Z" fill="#FFD83D" stroke="black" stroke-width="0.16" stroke-linecap="round" stroke-linejoin="round"/>
<path d="M13.0128 16.4786C13.3132 16.4786 13.5568 16.2351 13.5568 15.9346C13.5568 15.6342 13.3132 15.3906 13.0128 15.3906C12.7123 15.3906 12.4688 15.6342 12.4688 15.9346C12.4688 16.2351 12.7123 16.4786 13.0128 16.4786Z" fill="#FFD83D" stroke="black" stroke-width="0.16" stroke-linecap="round" stroke-linejoin="round"/>
<path d="M12.7987 16.9805C12.7347 16.9805 12.6813 17.0338 12.692 17.1298L12.756 17.5885C12.7773 17.7485 12.8627 17.6951 12.8947 17.5885C12.916 17.4605 12.9053 17.3751 12.916 17.1511C12.916 17.0338 12.852 16.9805 12.788 16.9805H12.7987ZM13.2253 16.9805C13.1613 16.9805 13.108 17.0338 13.108 17.1511C13.108 17.3751 13.108 17.4605 13.1293 17.5778C13.1507 17.7058 13.236 17.7485 13.268 17.5778L13.3213 17.1298C13.3427 17.0231 13.2787 16.9805 13.2253 16.9805ZM12.404 17.0445C12.3757 17.0445 12.3486 17.0557 12.3286 17.0757C12.3086 17.0957 12.2973 17.1228 12.2973 17.1511C12.2973 17.2578 12.3293 17.3965 12.34 17.5565C12.3613 17.7165 12.4787 17.6631 12.4893 17.5565C12.4893 17.4711 12.5107 17.3218 12.4893 17.1405C12.4893 17.0765 12.468 17.0445 12.4253 17.0338C12.4182 17.0329 12.4111 17.0329 12.404 17.0338V17.0445ZM13.588 17.0445C13.556 17.0445 13.524 17.0765 13.5133 17.1511C13.5076 17.2866 13.5147 17.4223 13.5347 17.5565C13.5347 17.6631 13.6627 17.7165 13.6733 17.5565C13.6733 17.3965 13.716 17.2685 13.716 17.1618C13.716 17.0978 13.6627 17.0551 13.6093 17.0445C13.6022 17.0436 13.5951 17.0436 13.588 17.0445ZM11.9453 17.2258C11.892 17.2365 11.8387 17.3005 11.86 17.3645C11.892 17.5031 11.924 17.6525 11.924 17.7911C11.924 17.9085 12.02 17.8658 12.0307 17.7911C12.039 17.6491 12.0425 17.5068 12.0413 17.3645C12.0413 17.2578 11.988 17.2151 11.9347 17.2258H11.9453ZM14.036 17.2258C14.004 17.2365 13.972 17.2791 13.972 17.3645L13.9933 17.7911C13.9933 17.8658 14.1 17.9085 14.1 17.7911C14.1 17.6525 14.1213 17.5031 14.1533 17.3645C14.1747 17.3005 14.1213 17.2365 14.0787 17.2258C14.0682 17.2231 14.0572 17.2231 14.0467 17.2258H14.036ZM7.74266 17.2471C7.67866 17.2471 7.63599 17.3218 7.67866 17.4071C7.74266 17.5565 7.81733 17.6418 7.88133 17.7911C7.93466 17.9298 8.03066 17.8445 7.99866 17.7485L7.84933 17.3538C7.81733 17.2791 7.77466 17.2471 7.74266 17.2471ZM18.2813 17.2471C18.2387 17.2471 18.2067 17.2791 18.1747 17.3538C18.0787 17.5565 18.0467 17.6525 18.0147 17.7485C17.9933 17.8551 18.0787 17.9298 18.1427 17.7911L18.3347 17.4071C18.3773 17.3218 18.3347 17.2471 18.2813 17.2471ZM8.16933 17.2471C8.11599 17.2685 8.09466 17.3218 8.11599 17.3858C8.17999 17.5138 8.25466 17.6525 8.30799 17.7911C8.35066 17.9085 8.45733 17.8765 8.41466 17.7698L8.30799 17.3751C8.26533 17.2685 8.20133 17.2365 8.16933 17.2471ZM17.8227 17.2471C17.78 17.2578 17.7373 17.3005 17.716 17.3751C17.6413 17.5885 17.6307 17.6525 17.5987 17.7698C17.556 17.8765 17.6627 17.9085 17.7053 17.7911L17.8973 17.3858C17.9187 17.3218 17.8973 17.2685 17.8547 17.2471C17.8442 17.2444 17.8332 17.2444 17.8227 17.2471ZM8.70266 17.3538C8.63866 17.3645 8.59599 17.4498 8.63866 17.5565C8.68133 17.6845 8.74533 17.8018 8.80933 17.9511C8.87333 18.1005 8.96933 18.0685 8.94799 17.9725C8.91599 17.8765 8.89466 17.7271 8.81999 17.4925C8.78799 17.3858 8.74533 17.3431 8.70266 17.3538ZM17.3213 17.3538C17.2787 17.3538 17.2253 17.3858 17.1933 17.4925C17.1293 17.7271 17.0867 17.8765 17.076 17.9725C17.044 18.0791 17.1507 18.1005 17.204 17.9511C17.268 17.8018 17.332 17.6845 17.3747 17.5565C17.4173 17.4498 17.3747 17.3645 17.3213 17.3538ZM7.37999 17.4285C7.31599 17.4285 7.27333 17.5351 7.30533 17.6098C7.35866 17.7165 7.40133 17.7591 7.45466 17.8871C7.51866 18.0151 7.58266 17.9191 7.56133 17.8338C7.52933 17.7485 7.49733 17.6525 7.47599 17.5351C7.45466 17.4498 7.41199 17.4285 7.36933 17.4285H7.37999ZM18.644 17.4285C18.6013 17.4285 18.5693 17.4498 18.5373 17.5351L18.4627 17.8338C18.4413 17.9191 18.5053 18.0151 18.5693 17.8871C18.6227 17.7591 18.6547 17.7271 18.7187 17.6098C18.7507 17.5351 18.6973 17.4391 18.644 17.4285ZM11.4973 17.7271C11.4227 17.7271 11.3587 17.8125 11.3907 17.8871C11.412 18.0151 11.476 18.1218 11.508 18.2818C11.5507 18.4205 11.6467 18.3565 11.636 18.2605C11.6282 18.1172 11.6104 17.9746 11.5827 17.8338C11.5613 17.7591 11.5293 17.7271 11.4867 17.7271H11.4973ZM14.5267 17.7271C14.4947 17.7271 14.452 17.7591 14.4413 17.8338C14.41 17.9743 14.3886 18.1169 14.3773 18.2605C14.3773 18.3565 14.4733 18.4205 14.5053 18.2818L14.6333 17.8871C14.6547 17.8125 14.5907 17.7271 14.5267 17.7271ZM13.012 17.8551C12.9267 17.8551 12.916 17.9618 12.916 18.0365C12.9095 18.2794 12.8356 18.5157 12.7027 18.7191C12.596 18.8471 12.4573 18.8151 12.3293 18.7405C12.2053 18.6729 12.0875 18.5943 11.9773 18.5058C11.828 18.3991 11.7213 18.4631 11.892 18.7085C12.3827 19.4125 12.916 20.0098 12.916 21.1618C12.916 21.3005 12.948 21.3431 13.012 21.3431C13.076 21.3431 13.0973 21.3005 13.0973 21.1511C13.0973 20.0098 13.6307 19.4125 14.1213 18.6978C14.292 18.4631 14.1853 18.3991 14.0467 18.5058C13.937 18.595 13.8191 18.6735 13.6947 18.7405C13.556 18.8151 13.4173 18.8471 13.3213 18.7191C13.1884 18.5157 13.1145 18.2794 13.108 18.0365C13.0973 17.9618 13.0867 17.8551 13.0013 17.8551H13.012ZM9.24666 17.6845C9.2396 17.6833 9.23239 17.6833 9.22533 17.6845C9.19333 17.6951 9.18266 17.7271 9.19333 17.7911L9.31066 18.2071C9.34266 18.3138 9.45999 18.2818 9.43866 18.1538L9.37466 17.8231C9.35333 17.7378 9.28933 17.6845 9.24666 17.6845ZM16.7773 17.6845C16.724 17.6845 16.6707 17.7378 16.6493 17.8231C16.6067 17.9725 16.6067 18.0151 16.5853 18.1431C16.5533 18.2818 16.6813 18.3031 16.7027 18.2071L16.8307 17.7805C16.8307 17.7271 16.82 17.6951 16.788 17.6845C16.7809 17.6833 16.7737 17.6833 16.7667 17.6845H16.7773ZM7.00666 17.7271C6.94266 17.7271 6.89999 17.8125 6.96399 17.9191C7.02799 18.0471 7.14533 18.1965 7.19866 18.2925C7.25199 18.3778 7.34799 18.3138 7.28399 18.2071C7.21999 18.1005 7.19866 17.9618 7.11333 17.8018C7.10629 17.7793 7.092 17.7598 7.07271 17.7463C7.05341 17.7328 7.03019 17.7261 7.00666 17.7271ZM19.0067 17.7271C18.9747 17.7271 18.932 17.7485 18.9 17.8018C18.8253 17.9618 18.7933 18.0898 18.74 18.2071C18.676 18.3138 18.7613 18.3778 18.8147 18.2925C18.868 18.1965 18.9853 18.0471 19.0493 17.9191C19.1133 17.8125 19.0707 17.7271 19.0067 17.7271ZM3.62533 18.0791C3.56133 18.0791 3.53999 18.2071 3.60399 18.2925C3.68682 18.3973 3.77971 18.4937 3.88133 18.5805C3.96666 18.6658 3.98799 18.5591 3.94533 18.4738L3.75333 18.1858C3.69999 18.1111 3.65733 18.0791 3.62533 18.0791ZM22.388 18.0791C22.356 18.0791 22.3133 18.1111 22.2707 18.1858L22.068 18.4738C22.0253 18.5591 22.0467 18.6658 22.1427 18.5805C22.2444 18.4938 22.3373 18.3974 22.42 18.2925C22.484 18.2071 22.4627 18.0791 22.388 18.0791ZM4.16933 18.1858C4.10533 18.1858 4.06266 18.2285 4.11599 18.3245L4.31866 18.7298C4.37199 18.8365 4.53199 18.8685 4.46799 18.7085L4.32933 18.3031C4.29733 18.2285 4.22266 18.1965 4.16933 18.1965V18.1858ZM21.8547 18.1858C21.7907 18.1858 21.716 18.2285 21.684 18.3031L21.556 18.7085C21.492 18.8685 21.652 18.8365 21.7053 18.7298C21.7587 18.6231 21.844 18.4631 21.8973 18.3245C21.9507 18.2285 21.908 18.1858 21.8547 18.1858ZM3.12399 18.2285C3.03866 18.2285 3.03866 18.3031 3.11333 18.3565C3.20933 18.4311 3.32666 18.5058 3.43333 18.6018C3.57199 18.7085 3.61466 18.6018 3.53999 18.5165C3.47599 18.4311 3.41199 18.3458 3.23066 18.2498C3.18799 18.2285 3.15599 18.2285 3.12399 18.2285ZM22.8893 18.2285C22.868 18.2285 22.8253 18.2285 22.7827 18.2498C22.612 18.3458 22.5373 18.4311 22.4627 18.5165C22.3987 18.6125 22.452 18.7085 22.58 18.6018C22.6867 18.5058 22.8147 18.4311 22.9 18.3565C22.9853 18.3031 22.9747 18.2285 22.9 18.2285H22.8893ZM11.1987 18.3031C11.1453 18.3031 11.1133 18.3565 11.124 18.4311L11.2307 18.8151C11.252 18.9325 11.3907 18.9325 11.3693 18.8151C11.348 18.7085 11.3373 18.5698 11.2947 18.3991C11.284 18.3351 11.252 18.3031 11.2093 18.2925C11.2058 18.2922 11.2022 18.2922 11.1987 18.2925V18.3031ZM14.804 18.3031C14.772 18.3031 14.74 18.3351 14.7187 18.4098C14.676 18.5698 14.6653 18.7085 14.644 18.8258C14.6227 18.9325 14.7613 18.9325 14.7827 18.8151L14.8893 18.4311C14.9107 18.3565 14.868 18.3031 14.8253 18.3031C14.8183 18.3019 14.8111 18.3019 14.804 18.3031ZM7.97733 18.0898C7.94533 18.0898 7.92399 18.1645 7.95599 18.2711C8.06913 18.5785 8.12691 18.9036 8.12666 19.2311C8.09466 19.3591 8.01999 19.3698 7.92399 19.3378C7.81935 19.2862 7.71942 19.2255 7.62533 19.1565C7.53999 19.1031 7.44399 19.1671 7.57199 19.2738C8.21199 19.8071 8.67066 20.4151 8.85199 21.1511C8.87333 21.3005 8.96933 21.3218 8.94799 21.1511C8.79866 20.2231 8.76666 19.4551 8.99066 18.9858C9.07599 18.8045 8.99066 18.6338 8.86266 18.9218C8.76666 19.1138 8.62799 19.1885 8.51066 19.0285C8.34388 18.7682 8.20108 18.4933 8.08399 18.2071C8.06266 18.1325 8.03066 18.1005 7.99866 18.0898C7.99513 18.0892 7.99152 18.0892 7.98799 18.0898H7.97733ZM18.0147 18.0898C17.9827 18.0898 17.9507 18.1325 17.9293 18.1965C17.8547 18.4098 17.62 18.8578 17.5027 19.0285C17.3853 19.1991 17.2467 19.1138 17.1613 18.9218C17.0227 18.6338 16.948 18.8045 17.0227 18.9858C17.2467 19.4551 17.2147 20.2231 17.076 21.1511C17.044 21.3218 17.14 21.3005 17.1827 21.1511C17.3799 20.402 17.8232 19.7408 18.4413 19.2738C18.5693 19.1671 18.4733 19.1031 18.388 19.1671C18.2933 19.2292 18.1934 19.2827 18.0893 19.3271C17.9827 19.3698 17.9187 19.3591 17.8867 19.2205C17.8653 19.0925 17.908 18.8045 18.068 18.2605C18.0893 18.1751 18.068 18.1005 18.036 18.0898C18.0291 18.0874 18.0216 18.0874 18.0147 18.0898ZM4.73466 18.3458C4.68133 18.3458 4.62799 18.3885 4.65999 18.4738C4.70266 18.6231 4.78799 18.7725 4.81999 18.8578C4.85199 18.9538 4.94799 18.9111 4.92666 18.7831L4.87333 18.4525C4.87333 18.3885 4.79866 18.3458 4.73466 18.3458ZM21.2787 18.3458C21.2147 18.3458 21.1507 18.3885 21.14 18.4525L21.0973 18.7831C21.076 18.9111 21.172 18.9538 21.204 18.8578C21.2253 18.7725 21.3107 18.6231 21.3533 18.4738C21.3853 18.3885 21.3427 18.3458 21.2787 18.3458ZM6.73999 18.1645C6.67599 18.1538 6.66533 18.3245 6.71866 18.3991L7.01733 18.7298C7.10266 18.8365 7.15599 18.7405 7.10266 18.6551L6.82533 18.2498C6.79333 18.1965 6.76133 18.1645 6.73999 18.1645ZM19.2733 18.1645C19.252 18.1645 19.22 18.1965 19.188 18.2498L18.9107 18.6551C18.8573 18.7405 18.9107 18.8365 19.0067 18.7298L19.2947 18.3991C19.348 18.3245 19.348 18.1538 19.2733 18.1645ZM5.19333 18.5911C5.15066 18.5911 5.11866 18.6125 5.13999 18.6978C5.16133 18.8258 5.19333 18.9111 5.22533 19.0285C5.25733 19.1351 5.33199 19.1245 5.33199 19.0178L5.29999 18.6765C5.29534 18.6509 5.28235 18.6276 5.26305 18.6103C5.24375 18.5929 5.21922 18.5824 5.19333 18.5805V18.5911ZM20.82 18.5911C20.795 18.5906 20.7707 18.5989 20.7512 18.6145C20.7317 18.6301 20.7183 18.652 20.7133 18.6765L20.6813 19.0178C20.6813 19.1245 20.7667 19.1458 20.788 19.0285L20.884 18.7085C20.9053 18.6125 20.8627 18.5805 20.82 18.5805V18.5911ZM6.59066 18.7405C6.52666 18.7405 6.47333 18.8151 6.54799 18.9111C6.66533 19.0711 6.80399 19.1778 6.85733 19.2311C6.89999 19.2951 7.01733 19.2738 6.94266 19.1565L6.69733 18.7831C6.67599 18.7405 6.63333 18.7298 6.59066 18.7405ZM19.3907 18.7405C19.3693 18.7405 19.3373 18.7511 19.3267 18.7831L19.0707 19.1565C18.996 19.2738 19.1133 19.2951 19.1667 19.2418C19.2093 19.1778 19.348 19.0711 19.476 18.9111C19.5507 18.8045 19.4867 18.7405 19.4227 18.7405C19.4156 18.7397 19.4084 18.7397 19.4013 18.7405H19.3907ZM4.38266 19.1778C4.33999 19.1778 4.31866 19.2205 4.38266 19.3165C4.54739 19.5163 4.66742 19.7491 4.73466 19.9991C4.74533 20.1485 4.68133 20.1485 4.61733 20.1485C4.41466 20.1485 4.31866 19.9991 4.14799 19.9565C3.96666 19.9245 3.93466 20.0098 4.06266 20.1058C4.67406 20.4924 5.20621 20.992 5.63066 21.5778C5.73733 21.7805 5.87599 21.8445 5.80133 21.6631C5.59408 21.2472 5.5055 20.7822 5.54533 20.3191C5.59866 20.0205 5.67333 19.8285 5.66266 19.6578C5.66266 19.4978 5.55599 19.5085 5.52399 19.6578L5.41733 19.9565C5.37466 20.0098 5.22533 20.0418 5.09733 19.8605C4.91592 19.6379 4.7161 19.4309 4.49999 19.2418C4.46799 19.2098 4.42533 19.1885 4.39333 19.1778H4.38266ZM21.6307 19.1778C21.5987 19.1778 21.556 19.1991 21.5133 19.2418C21.301 19.4314 21.1048 19.6384 20.9267 19.8605C20.788 20.0418 20.6387 20.0098 20.6067 19.9671C20.558 19.869 20.5222 19.7651 20.5 19.6578C20.4573 19.5085 20.3613 19.4978 20.3507 19.6578C20.3507 19.8285 20.4147 20.0205 20.468 20.3191C20.5213 20.6178 20.468 21.0871 20.2227 21.6631C20.1373 21.8445 20.2867 21.7698 20.3933 21.5778C20.8138 20.9923 21.3425 20.4927 21.9507 20.1058C22.0787 20.0098 22.0573 19.9245 21.876 19.9565C21.6947 19.9991 21.5987 20.1485 21.4067 20.1485C21.3427 20.1485 21.268 20.1485 21.2787 19.9991C21.2893 19.8605 21.4707 19.5298 21.6307 19.3165C21.6947 19.2098 21.684 19.1778 21.6307 19.1778Z" fill="#000001"/>
<path d="M5.34375 22.686L5.55708 23.3366ZM5.77042 22.558L5.96242 23.2193ZM6.23975 22.4726L6.36775 23.1553ZM6.66642 22.398L6.80508 23.07ZM7.21042 22.3446L7.31708 23.0273ZM7.79708 22.3446L7.91442 23.0166ZM8.37308 22.1526L8.45842 22.8353ZM8.90642 22.1846L8.99175 22.8673ZM9.42908 22.1206L9.51442 22.8033ZM9.94108 22.0566L9.99442 22.75ZM10.5064 22.0566L10.5491 22.75ZM11.0184 22.0246L11.0504 22.718ZM11.5731 21.9926L11.6051 22.6753ZM12.2131 21.9713L12.2451 22.6646ZM20.6717 22.686L20.4584 23.3366ZM20.2451 22.558L20.0638 23.2193ZM19.7864 22.4726L19.6584 23.1553ZM19.3597 22.398L19.2211 23.07ZM18.7944 22.3446L18.6878 23.0273ZM18.2184 22.3446L18.1011 23.0273ZM17.6531 22.1526L17.5678 22.8353ZM17.1091 22.1846L17.0238 22.8673ZM16.5971 22.1206L16.5011 22.8033ZM16.0744 22.0566L16.0211 22.75ZM15.5091 22.0566L15.4664 22.75ZM15.0077 22.0246L14.9757 22.718ZM14.4424 21.9926L14.4211 22.6753ZM13.8024 21.9713L13.7811 22.6646ZM13.0131 21.918V22.686Z" fill="#FFD83D"/>
<path d="M5.34375 22.686L5.55708 23.3366M5.77042 22.558L5.96242 23.2193M6.23975 22.4726L6.36775 23.1553M6.66642 22.398L6.80508 23.07M7.21042 22.3446L7.31708 23.0273M7.79708 22.3446L7.91442 23.0166M8.37308 22.1526L8.45842 22.8353M8.90642 22.1846L8.99175 22.8673M9.42908 22.1206L9.51442 22.8033M9.94108 22.0566L9.99442 22.75M10.5064 22.0566L10.5491 22.75M11.0184 22.0246L11.0504 22.718M11.5731 21.9926L11.6051 22.6753M12.2131 21.9713L12.2451 22.6646M20.6717 22.686L20.4584 23.3366M20.2451 22.558L20.0638 23.2193M19.7864 22.4726L19.6584 23.1553M19.3597 22.398L19.2211 23.07M18.7944 22.3446L18.6878 23.0273M18.2184 22.3446L18.1011 23.0273M17.6531 22.1526L17.5678 22.8353M17.1091 22.1846L17.0238 22.8673M16.5971 22.1206L16.5011 22.8033M16.0744 22.0566L16.0211 22.75M15.5091 22.0566L15.4664 22.75M15.0077 22.0246L14.9757 22.718M14.4424 21.9926L14.4211 22.6753M13.8024 21.9713L13.7811 22.6646M13.0131 21.918V22.686" stroke="black" stroke-width="0.16" stroke-linecap="round" stroke-linejoin="round"/>
</g>
</g>
</g>
<defs>
<clipPath id="clip0_423_11140">
<rect width="64" height="64" rx="32" fill="white"/>
</clipPath>
<clipPath id="clip1_423_11140">
<rect width="64" height="64" fill="white"/>
</clipPath>
<clipPath id="clip2_423_11140">
<rect width="85.3333" height="64" fill="white" transform="translate(-10.668)"/>
</clipPath>
</defs>
</svg>
