<svg width="64" height="64" viewBox="0 0 64 64" fill="none" xmlns="http://www.w3.org/2000/svg">
<g clip-path="url(#clip0_423_14169)">
<g clip-path="url(#clip1_423_14169)">
<g clip-path="url(#clip2_423_14169)">
<path d="M-10.668 0H74.6654V64H-10.668V0Z" fill="#FFB700"/>
<path d="M-7.10938 31.9986L4.62396 3.55859H16.3573V60.4386H4.62396L-7.10938 31.9986Z" fill="#FF5B00"/>
<path d="M-7.10938 3.55859H4.62396V60.4386H-7.10938V3.55859Z" fill="#005641"/>
<path d="M19.9062 3.55859H71.4662V60.4386H19.9062V3.55859Z" fill="#8D2029"/>
<path d="M24.7969 54.4805C24.7969 54.4805 24.3169 55.4538 23.7835 55.8671C22.9835 56.4538 21.3835 56.4005 20.6769 57.1071C19.8635 57.9205 20.7435 59.0005 20.7435 59.1071L20.6902 59.6671C20.6902 59.6671 21.2502 59.6671 21.4902 59.7071C21.8369 59.7605 21.9702 60.0538 22.6369 60.0138C24.2769 59.9071 24.2102 58.4138 24.3035 57.1471C24.3835 56.6671 24.5702 56.0271 24.6902 55.5471C24.7835 55.1471 24.7969 54.4805 24.7969 54.4805Z" fill="#FFB700" stroke="black" stroke-width="0.146667"/>
<path d="M24.8125 9.51953C24.8125 9.51953 24.3325 8.5462 23.7992 8.13287C22.9992 7.5462 21.3992 7.59953 20.6925 6.89287C19.8792 6.07953 20.7592 4.99953 20.7592 4.89287L20.7058 4.33287C20.7058 4.33287 21.2658 4.33287 21.5058 4.29287C21.8525 4.23953 21.9858 3.9462 22.6525 3.9862C24.2925 4.09286 24.2258 5.5862 24.3192 6.85286C24.3992 7.33286 24.5858 7.97286 24.7058 8.45286C24.7992 8.85286 24.8125 9.51953 24.8125 9.51953Z" fill="#FFB700" stroke="black" stroke-width="0.146667"/>
<path d="M37.8002 45.3031L38.1068 45.1164L38.2402 45.3031C38.4135 45.5431 38.9068 45.5298 39.2268 45.3031L39.4802 45.1031L39.6935 45.2898C39.9602 45.5431 40.4668 45.5431 40.8002 45.2898C41.0268 45.1298 41.0668 45.1164 41.2002 45.2498C41.2935 45.3298 41.5602 45.4098 41.7868 45.4498C42.2135 45.5031 42.2135 45.5031 42.4535 45.1298C42.6668 44.8231 42.6935 44.7031 42.6535 44.3964C42.6163 44.1622 42.5896 43.9264 42.5735 43.6898C42.5468 43.3431 42.5602 43.3431 43.0535 43.1564C43.2984 43.0813 43.5388 42.9923 43.7735 42.8898C43.9735 42.7698 44.5335 42.1164 44.5335 41.9831C44.5335 41.9564 44.3202 41.9031 44.0535 41.8764C42.9868 41.7431 42.8135 41.1831 43.5068 40.1431C44.6135 38.4098 45.2935 36.7431 45.2935 35.6898C45.2935 35.2098 45.3335 35.0498 45.3868 35.1564C45.6402 35.5698 45.1868 37.3431 44.5202 38.6231L44.2535 39.1298L44.5068 39.0764C44.6402 39.0364 45.4935 38.6764 46.3735 38.2764C48.8002 37.1831 49.6268 36.9698 51.2002 37.0364C52.5202 37.0898 53.0668 37.3431 54.0002 38.3164C54.4935 38.8498 54.9735 39.2098 55.8402 39.7564C57.6802 40.9031 57.7602 41.0098 57.8535 42.3698C57.9468 43.7431 57.8935 43.8231 56.8535 44.0498C55.9602 44.2498 55.4002 44.6631 55.2535 45.2498C55.1735 45.5431 55.3468 45.5564 55.7868 45.2631L56.1202 45.0498L56.2668 45.2631C56.4668 45.5431 56.8668 45.5431 57.2002 45.2631L57.4668 45.0631L57.7335 45.2631C58.1335 45.5964 58.6668 45.5164 58.8268 45.1031C58.8535 45.0364 58.9335 45.0498 59.0935 45.1964C59.4002 45.4631 60.1602 45.5698 60.2402 45.3564C60.2668 45.2764 60.2135 45.0898 60.1068 44.9298C59.6668 44.2631 59.5202 43.9564 59.5202 43.5964C59.5202 43.0898 59.6535 42.8364 60.2402 42.4364C60.9335 41.9298 61.1468 41.2898 60.6135 41.2898C60.2935 41.2898 59.9602 40.9964 59.7468 40.5298C59.3202 39.5698 59.4135 38.5031 60.0535 36.7164C60.5442 35.6652 60.7903 34.5164 60.7735 33.3564C60.7735 32.3698 60.7468 32.2098 60.5335 31.6631C60.3666 31.283 60.1611 30.9211 59.9202 30.5831L59.5468 30.0898L60.0135 29.6898C61.4535 28.5031 61.1602 26.5564 59.4268 25.8098C58.8935 25.5698 58.7602 25.5564 57.8268 25.5564C57.2935 25.5564 56.4268 25.6364 55.9602 25.7298C55.3338 25.8289 54.701 25.8824 54.0668 25.8898C53.1602 25.8898 53.0002 25.8631 52.6535 25.6764C52.2935 25.4898 52.2268 25.3964 52.1602 24.9431C52.1537 24.9004 52.137 24.8599 52.1115 24.825C52.0859 24.7902 52.0523 24.7621 52.0135 24.7431C51.8802 24.7031 51.3202 25.1964 51.2402 25.4098C51.1868 25.5298 51.1602 25.5164 51.0402 25.3698C50.9271 25.2245 50.8371 25.0626 50.7735 24.8898C50.6402 24.4498 50.8135 24.1298 51.3335 23.8764L51.7335 23.6898L51.4935 23.5431C51.0135 23.2364 50.1868 23.4498 49.8935 23.9431C49.8002 24.0764 49.7068 24.2098 49.6802 24.2098C49.6535 24.2098 49.4935 24.0764 49.3335 23.9031C48.7068 23.2898 48.9202 22.3831 49.7602 22.1164C50.2002 21.9698 50.6002 22.0764 50.6802 22.3831C50.8135 22.8231 51.1868 22.2364 51.1202 21.6898C51.0802 21.3298 51.0802 21.3164 51.3335 21.3164C51.6802 21.3164 52.4002 21.7698 52.6402 22.1164C52.9068 22.5298 52.8802 23.1831 52.5868 23.6631L52.3602 24.0364L52.6668 23.9831C53.0935 23.8898 53.5202 23.6231 53.7335 23.2898C53.8459 23.0775 53.9091 22.8426 53.9183 22.6025C53.9275 22.3625 53.8826 22.1234 53.7868 21.9031C53.5868 21.5431 53.6135 21.4898 53.9068 21.6098C54.3868 21.8098 54.6535 22.0364 54.8402 22.4231C55.0268 22.7698 55.0402 22.8498 54.9468 23.2231C54.883 23.4504 54.784 23.6664 54.6535 23.8631C54.4935 24.0764 54.4802 24.1164 54.6135 24.1164C54.8535 24.1164 55.3335 23.8898 55.5068 23.7164C55.6002 23.6098 55.7335 23.3831 55.8002 23.1831L55.9335 22.8498L56.0668 23.1164C56.2668 23.4764 56.6668 23.8098 57.1468 24.0231C57.6668 24.2364 57.8802 24.2498 57.6135 24.0498C57.4268 23.9164 57.0802 22.9164 57.2002 22.8231C57.7756 23.1453 58.3011 23.5496 58.7602 24.0231C59.5202 24.7031 60.0002 24.9298 60.6935 24.9298C61.5868 24.9298 62.1068 24.1564 61.7068 23.4231C61.4802 22.9964 60.9602 22.9298 60.6402 23.2898C60.5068 23.4631 60.4668 23.5964 60.5068 23.7831C60.5602 23.9964 60.5468 24.0231 60.3468 24.0231C60.0802 24.0231 59.5735 23.6898 58.6668 22.9298C57.4048 21.8437 55.9541 20.9985 54.3868 20.4364C53.3251 20.191 52.2287 20.1324 51.1468 20.2631C50.2935 20.4231 49.2802 20.9164 48.7202 21.4364C47.7468 22.3698 47.7335 23.6098 48.6802 24.7431L48.9468 25.0631L48.7735 25.3564C48.6431 25.5665 48.5785 25.8108 48.588 26.0579C48.5975 26.305 48.6807 26.5436 48.8268 26.7431C48.9602 26.9298 49.0935 27.0764 49.1335 27.0764C49.1602 27.0764 49.1868 26.9564 49.2002 26.8098C49.2268 26.4498 49.3868 26.2098 49.6535 26.1164C49.8935 26.0231 50.0535 26.0764 51.1468 26.5164C52.3068 26.9698 54.2135 26.9964 56.2402 26.5964C57.1186 26.3936 58.0326 26.4027 58.9068 26.6231C59.8668 27.0231 60.0802 28.0498 59.3868 28.8231C59.0802 29.1698 58.8002 29.3031 57.8268 29.5698C56.9794 29.7933 56.0985 29.861 55.2268 29.7698C53.7868 29.7564 53.2668 29.7831 52.6935 29.9031C52.0402 30.0364 51.6535 30.0498 49.7868 30.0098L47.6135 29.9564L47.8535 30.1431C47.982 30.2572 48.1203 30.3599 48.2668 30.4498C48.4402 30.5431 48.4268 30.5564 48.1868 30.6498C48.0535 30.7031 47.7335 30.7431 47.4802 30.7431H47.0402L46.9868 31.1164C46.9509 31.2924 46.9509 31.4738 46.9868 31.6498C47.0402 31.7831 47.0135 31.8098 46.8802 31.7564C46.7868 31.7164 46.5335 31.6498 46.3068 31.6098C46.0781 31.5607 45.8548 31.4893 45.6402 31.3964C45.3868 31.2631 45.3602 31.2631 45.2668 31.4364C45.1868 31.5698 44.4402 32.1298 44.3335 32.1298C44.2853 31.7839 44.1865 31.4469 44.0402 31.1298C43.9068 30.8498 43.7868 30.5298 43.7468 30.4364C43.7068 30.2898 43.6802 30.2764 43.6135 30.3964C43.5735 30.4631 43.5202 30.6631 43.4802 30.8231C43.4335 31.0391 43.3524 31.2461 43.2402 31.4364L43.0402 31.7298L42.9068 31.4764C42.7735 31.2098 42.5602 30.9164 42.4802 30.9164C42.4535 30.9164 42.4135 30.9964 42.3868 31.1164C42.3202 31.3298 41.8002 31.9564 41.6668 31.9564C41.6268 31.9564 41.5868 31.7831 41.5868 31.5564C41.5868 31.3564 41.5468 31.1698 41.4935 31.1698C41.4402 31.1698 41.4002 31.2364 41.4002 31.3031C41.4002 31.4631 40.9602 31.9698 40.8002 31.9698C40.7468 31.9698 40.6402 32.0231 40.5735 32.1031C40.4135 32.2764 40.2802 32.2498 40.3468 32.0498C40.3655 31.879 40.3473 31.7062 40.2935 31.5431L40.1602 31.1164C40.1335 31.0498 39.9735 31.0764 39.6268 31.1831C39.0935 31.3564 38.9068 31.3164 39.1868 31.1031C39.2935 31.0231 39.4535 30.7431 39.5335 30.4898C39.6268 30.2231 39.7602 29.9964 39.8268 29.9698C39.9202 29.9431 39.9202 29.9698 39.8002 30.1298C39.723 30.2312 39.6725 30.3504 39.6535 30.4764C39.6535 30.5431 39.5868 30.7164 39.5202 30.8631C39.4402 30.9964 39.3868 31.1298 39.4002 31.1431C39.4135 31.1564 39.6268 31.0764 39.8668 30.9698L40.2935 30.7564V30.9431C40.2935 31.0498 40.3468 31.3164 40.4135 31.5431L40.5335 31.9431L40.8268 31.8098C41.1202 31.6764 41.4002 31.1964 41.4002 30.8098C41.4002 30.6231 41.5068 30.6498 41.5602 30.8498C41.5602 30.9031 41.6402 31.1298 41.6935 31.3431L41.8268 31.7164L42.0268 31.4764C42.1468 31.3431 42.2802 31.0764 42.3335 30.9031C42.4402 30.5831 42.6002 30.4364 42.6002 30.6764C42.6002 30.8364 43.0535 31.4498 43.1335 31.3964C43.1868 31.3698 43.2668 31.1431 43.3335 30.8898C43.4668 30.3564 43.6668 30.0098 43.8002 30.0898C43.8535 30.1164 43.8668 30.1698 43.8402 30.2231C43.8135 30.2498 43.9202 30.5964 44.0802 30.9698C44.1961 31.2496 44.3116 31.5296 44.4268 31.8098C44.4802 31.9431 44.5335 31.9431 44.8668 31.6364C45.0668 31.4498 45.2668 31.2498 45.2802 31.1831C45.3202 31.0764 45.3602 31.0898 45.5468 31.2098C45.9399 31.4174 46.3706 31.5444 46.8135 31.5831C46.8402 31.5564 46.8668 31.3164 46.8668 31.0498L46.8802 30.5564L47.1468 30.6098C47.2802 30.6498 47.5868 30.6498 47.8135 30.6098L48.2135 30.5564L47.8535 30.2898C47.6535 30.1564 47.4535 29.9831 47.4002 29.9031C47.3602 29.8231 47.1735 29.7431 46.9735 29.7298C46.4268 29.6764 45.4535 29.1431 45.4535 28.8764C45.4535 28.8231 45.5868 28.9164 45.7468 29.0631C46.1202 29.3964 46.6268 29.5964 47.0802 29.5964H47.4002L47.2002 29.3298C47.0577 29.123 46.9663 28.8854 46.9335 28.6364C46.9068 28.2364 46.8668 28.1831 46.4535 27.9031C46.2138 27.7333 45.9906 27.5413 45.7868 27.3298L45.5602 27.0764L45.4402 27.3831C45.3735 27.5564 45.3068 27.6898 45.2668 27.6898C45.2402 27.6898 45.1068 27.5831 45.0002 27.4631C44.9251 27.3762 44.8347 27.3039 44.7335 27.2498C44.6935 27.2498 44.6002 27.4098 44.4935 27.6098L44.3068 27.9698L44.1735 27.7698C44.0549 27.6063 43.9209 27.4545 43.7735 27.3164C43.6135 27.1831 43.5468 27.0764 43.6002 27.0764C43.6535 27.0764 43.8268 27.2098 44.0002 27.3831L44.2935 27.6898L44.4268 27.4631C44.5038 27.306 44.5273 27.1281 44.4935 26.9564C44.4402 26.7164 44.4535 26.7031 44.5335 26.8631C44.6485 27.0136 44.783 27.1481 44.9335 27.2631L45.2268 27.5031L45.4268 27.1431C45.6268 26.7698 45.6268 26.7698 45.7068 26.9964C45.8402 27.2764 46.7068 27.9964 47.4402 28.4098C47.5735 28.4764 47.5202 28.2631 47.3068 27.7431C47.2428 27.5722 47.2067 27.3921 47.2002 27.2098C47.2002 26.9698 47.1335 26.8631 46.8268 26.6231C46.6362 26.5012 46.4766 26.3365 46.3609 26.142C46.2452 25.9476 46.1764 25.7288 46.1602 25.5031C46.1202 25.2764 46.0402 25.0364 45.9735 24.9564C45.8935 24.8231 45.8668 24.9031 45.8935 25.3031C45.9202 25.5831 45.8802 25.9298 45.8135 26.0764L45.7068 26.3431L45.6268 26.1164C45.5735 25.9964 45.3602 25.7831 45.1602 25.6498C44.9602 25.5164 44.8135 25.3831 44.8402 25.3564C44.8668 25.3298 45.0802 25.4498 45.3068 25.6231C45.6668 25.9031 45.7335 25.9298 45.7868 25.8098C45.8402 25.6764 45.7868 25.0631 45.6802 24.6364C45.6268 24.4231 45.6268 24.4231 45.8935 24.6898C46.0802 24.8764 46.1868 25.1164 46.2802 25.5164C46.3868 26.0231 46.4402 26.1164 46.9068 26.5298C47.1868 26.7831 47.4402 26.9698 47.4535 26.9564C47.4802 26.9298 47.5068 26.2898 47.5335 25.5164C47.5868 24.0364 47.5335 23.6764 47.1735 23.2231L46.9868 22.9831L47.2802 22.6764C47.6088 22.3621 47.8283 21.951 47.9068 21.5031L47.9602 21.1431L47.6402 21.4498C47.3735 21.7031 47.2402 21.7564 46.9335 21.7564C46.6268 21.7564 46.5068 21.7031 46.3068 21.4898C45.9953 21.1899 45.6155 20.9702 45.2002 20.8498C45.0402 20.7964 44.9868 20.8231 44.9868 20.9298C44.9868 21.0098 44.9068 21.2231 44.8002 21.4231L44.6135 21.7698L44.2135 21.3698C43.9602 21.1431 43.6802 20.9431 43.4535 20.8898C42.9068 20.7564 42.8802 20.7564 42.8802 21.1698C42.8802 21.7964 42.6135 21.9164 42.1335 21.5031C41.7602 21.1831 41.4668 21.1031 40.7602 21.1964L40.2268 21.2498L40.3202 21.4898C40.4002 21.6898 40.3868 21.7831 40.2135 22.0098C39.9335 22.3831 39.5735 22.5431 39.0135 22.5431C38.7468 22.5431 38.4268 22.5964 38.2935 22.6631C38.1602 22.7298 37.8135 22.7964 37.5335 22.8231C37.2668 22.8498 36.9602 22.9031 36.8668 22.9298C36.7335 22.9831 36.7335 22.9298 36.7735 22.6364C36.8402 22.1831 36.5068 21.8364 36.0135 21.8364C35.3602 21.8364 35.0668 22.4231 35.3202 23.1964C35.372 23.3633 35.4165 23.5323 35.4535 23.7031C35.6286 24.0365 35.8636 24.3348 36.1468 24.5831C36.4935 24.9298 36.8135 25.2898 36.8668 25.3831C36.9742 25.5222 37.1107 25.6359 37.2668 25.7164L37.5602 25.8764L37.5202 25.5564C37.4802 25.2098 37.5468 25.1564 37.7335 25.4098C37.8002 25.4898 37.9735 25.6364 38.1068 25.7164C38.3335 25.8498 38.3735 25.8498 38.3735 25.7431C38.3735 25.6631 38.4135 25.4898 38.4668 25.3564L38.5602 25.1164L38.7335 25.4498C38.8268 25.6364 39.1335 26.0498 39.4135 26.3831C39.9602 27.0098 40.3068 27.7164 40.1335 27.8764C40.0535 27.9431 39.8668 27.9431 39.4668 27.8631C39.1735 27.8098 38.8002 27.7698 38.6402 27.7964C38.3335 27.8364 38.3068 27.7964 38.5068 27.5564C38.7068 27.2898 38.6668 27.2498 38.2668 27.2498C37.8002 27.2498 36.6402 27.0231 36.1868 26.8498C35.7602 26.6764 35.6535 26.7164 35.5202 27.1298L35.2935 27.8764L35.1602 28.2764L35.6402 28.2364C35.8876 28.2105 36.1328 28.166 36.3735 28.1031C36.4679 28.0716 36.5674 28.0581 36.6668 28.0631C36.6935 28.0764 36.6268 28.2364 36.5335 28.4231L36.3468 28.7431L36.6402 28.6898C36.8002 28.6498 37.0402 28.5698 37.1735 28.5031C37.4135 28.3964 37.4402 28.3964 37.6268 28.7031C37.8535 29.0631 38.0268 29.0498 38.0668 28.6631C38.1068 28.2631 38.2402 28.3164 38.4935 28.8498C38.7335 29.3564 38.9735 29.5431 39.0268 29.2498C39.0402 29.1431 39.1602 28.9831 39.3068 28.8764C39.6002 28.6764 39.8135 28.7431 39.9335 29.0498C40.0668 29.3831 39.7735 29.7164 38.9468 30.2231C38.1813 30.6458 37.5225 31.238 37.021 31.9544C36.5196 32.6708 36.1886 33.4924 36.0535 34.3564C35.8002 35.9298 36.5868 37.5564 38.1335 38.7431C38.8802 39.3031 40.0668 39.8898 39.9868 39.6764C39.6668 38.7031 39.6802 36.8764 40.0002 36.5698C40.0535 36.5164 40.0402 36.7031 39.9602 36.9831C39.6935 38.0364 39.8268 38.8631 40.4935 40.8098C41.0802 42.5698 41.0002 43.3298 40.1468 43.8231C39.8802 43.9831 39.7068 44.0098 38.9735 43.9964C38.1735 43.9964 38.0802 43.9964 37.8268 44.2098C37.5205 44.5226 37.32 44.9237 37.2535 45.3564C37.2535 45.5298 37.4402 45.5031 37.7868 45.3031H37.8002Z" fill="#FFB700" stroke="black" stroke-width="0.746667"/>
<path d="M50.7331 45.2652L51.0664 45.0519L51.2931 45.2652C51.5864 45.5452 51.9464 45.5319 52.2264 45.2519C52.3598 45.1185 52.4664 45.0385 52.4798 45.0519L52.5998 45.2652C52.6664 45.3852 52.8131 45.4385 53.0798 45.4652C53.3864 45.4785 53.4798 45.4652 53.6131 45.2785L53.7464 45.0519L54.0798 45.2652C54.9864 45.8519 55.4664 45.2385 55.0531 44.0252C54.8531 43.4119 54.9731 43.0652 55.6264 42.2919C55.9064 41.9585 56.1331 41.5985 56.1331 41.4919C56.1331 41.3452 56.0798 41.3185 55.7064 41.3319C55.3598 41.3319 55.2531 41.2919 55.0664 41.0919C54.7598 40.7585 54.7864 40.3719 55.1198 39.9452L55.3864 39.6119L54.9064 39.2919C54.5233 39.0089 54.1663 38.692 53.8398 38.3452C53.5487 38.0017 53.1929 37.7189 52.7925 37.513C52.3921 37.3071 51.9551 37.1821 51.5064 37.1452L50.8798 37.0785V37.5585C50.8798 38.1585 51.1731 38.7452 51.9464 39.7319C52.8264 40.8519 52.8798 41.0252 52.9198 42.4919L52.9598 43.7319L52.6931 43.9719C52.4664 44.1852 52.3731 44.2252 51.6264 44.2652C50.9198 44.3052 50.7598 44.3452 50.5598 44.5319C50.3257 44.7026 50.164 44.9546 50.1064 45.2385C50.0664 45.4385 50.0798 45.4785 50.2264 45.4785C50.3198 45.4785 50.5464 45.3852 50.7331 45.2652ZM31.7731 42.0652C31.8537 41.9468 31.8999 41.8083 31.9064 41.6652C31.9064 41.5319 31.9864 41.4785 32.3331 41.4252L32.7464 41.3719L32.4798 41.1452C32.1464 40.8785 32.1064 40.6785 32.3998 40.6785C32.6931 40.6785 33.1731 40.3852 33.2531 40.1585C33.2931 40.0519 33.2531 39.9185 33.1998 39.8519C33.0398 39.6652 32.7331 39.6919 32.6798 39.9052C32.6131 40.1185 32.5198 40.1185 32.2798 39.9052C31.9464 39.5719 31.9331 38.8919 32.2798 38.4919C32.4264 38.3052 32.4264 38.3052 32.2264 38.1052C32.0131 37.8919 31.8531 37.4919 31.9598 37.3852C31.9864 37.3585 32.1598 37.3852 32.3331 37.4519C32.5998 37.5319 32.6931 37.5319 32.7998 37.4519C33.1064 37.1985 32.7731 36.8785 32.2664 36.9585C32.0531 36.9852 31.9731 36.9585 31.9464 36.8519C31.9198 36.7719 31.7464 36.6652 31.5464 36.6119C31.1864 36.5185 31.1864 36.5185 31.1864 36.7719C31.1864 37.0385 31.0264 37.0919 30.7331 36.9185C30.4931 36.7852 30.2664 36.8919 30.2664 37.1452C30.2664 37.3852 30.4931 37.4919 30.9331 37.4652C31.2531 37.4519 31.2664 37.6919 30.9598 38.0385L30.7331 38.3052L30.9064 38.5585C31.1731 38.9319 31.1464 39.5585 30.8664 39.8785L30.6398 40.1185L30.4931 39.9185C30.2798 39.6519 29.9998 39.6652 29.9198 39.9585C29.8798 40.1452 29.9198 40.2252 30.1598 40.4385C30.3198 40.5719 30.5598 40.6785 30.6798 40.6785C30.9864 40.6785 30.9731 40.9319 30.6531 41.1719L30.3864 41.3719L30.7864 41.4252C30.9998 41.4652 31.1864 41.5185 31.1864 41.5585C31.1864 41.7319 31.4531 42.2519 31.5331 42.2519C31.5864 42.2519 31.6931 42.1585 31.7731 42.0519V42.0652Z" fill="#FFB700" stroke="black" stroke-width="0.746667"/>
<path d="M36.8663 39.8502C37.2263 39.7168 37.9996 39.0502 37.9996 38.9035C37.9996 38.8502 37.7863 38.6102 37.5196 38.3702C36.9863 37.8902 36.3863 37.0502 36.2263 36.5702C36.1463 36.3035 35.7596 35.8768 34.6663 34.8102L33.2129 33.4102L32.7996 33.5168C32.5596 33.5702 32.2796 33.6235 32.1729 33.6235C31.9729 33.6235 31.9729 33.6235 32.2396 33.8368L32.5063 34.0502L32.9063 33.8368C33.2663 33.6235 33.2796 33.6235 33.3196 33.7968C33.3463 33.8902 33.2929 34.0635 33.1863 34.1835C33.0929 34.3035 33.0396 34.4502 33.0529 34.4902C33.0929 34.5302 32.9996 34.6235 32.8529 34.7035C32.5863 34.8368 32.3863 35.2768 32.5996 35.2768C32.7996 35.2768 33.2263 34.7435 33.1729 34.5702C33.1463 34.4768 33.1729 34.3835 33.1996 34.3568C33.3729 34.2635 33.3596 34.6768 33.1996 34.8902C33.0929 34.9968 33.0396 35.1302 33.0663 35.1835C33.0929 35.2235 32.9996 35.3168 32.8529 35.3968C32.5863 35.5302 32.3863 35.9702 32.5996 35.9702C32.8129 35.9702 33.2263 35.4635 33.1863 35.2768C33.1596 35.1835 33.1596 35.0768 33.1996 35.0502C33.3196 34.9968 33.3729 35.3168 33.2796 35.4768C33.2551 35.5218 33.2422 35.5722 33.2422 35.6235C33.2422 35.6747 33.2551 35.7252 33.2796 35.7702C33.3729 35.9435 33.2796 36.2635 33.1063 36.3702C33.0396 36.4102 33.0796 36.5035 33.2663 36.6368C33.5329 36.8235 33.5329 36.8502 33.5329 37.7035C33.5329 38.4235 33.5596 38.6102 33.6929 38.7302C33.8263 38.8635 33.8529 38.8635 33.8529 38.7302C33.8529 38.5968 34.1196 38.4102 34.3196 38.4102C34.3863 38.4102 34.7729 38.7435 35.1863 39.1435C35.5996 39.5435 36.0396 39.9035 36.1596 39.9168L36.4529 39.9702C36.4929 39.9702 36.6796 39.9302 36.8663 39.8368V39.8502ZM32.4263 36.3702C32.4263 36.1435 31.9463 35.8902 31.3729 35.8368C30.9062 35.7702 30.9062 35.7835 30.9062 36.0102C30.9062 36.1968 30.9729 36.2768 31.3063 36.4102C31.8129 36.6368 32.4263 36.6102 32.4263 36.3702Z" fill="#FFB700" stroke="black" stroke-width="0.746667"/>
<path d="M32.9465 36.3455C33.1865 36.1321 33.2932 35.8921 33.1465 35.8921C32.9865 35.8921 32.5598 36.2655 32.5598 36.4255C32.5598 36.6388 32.6398 36.6255 32.9598 36.3455H32.9465ZM32.4532 35.6655C32.4665 35.5321 32.3865 35.4521 32.1465 35.3321C31.6132 35.1055 30.9998 34.9855 30.8532 35.1055C30.5732 35.3321 30.7598 35.6255 31.1998 35.6788C31.3865 35.6921 31.6265 35.7455 31.7465 35.7988C32.0932 35.9321 32.4132 35.8655 32.4532 35.6655ZM32.4532 34.9588C32.4798 34.7855 32.3598 34.7188 31.3865 34.3721C30.6532 34.1055 30.3332 34.2388 30.5732 34.6788C30.6532 34.8255 30.7865 34.8921 31.0932 34.9455C31.3198 34.9721 31.6265 35.0388 31.7732 35.0921C32.1732 35.2255 32.4132 35.1721 32.4398 34.9588H32.4532ZM32.9332 34.3055C33.0798 34.1588 33.1998 33.9855 33.1998 33.9055C33.1998 33.7055 32.6265 34.0788 32.5465 34.3455C32.4665 34.6521 32.6132 34.6388 32.9465 34.3055H32.9332ZM32.4532 34.2655C32.4798 34.0521 32.1332 33.8655 31.4398 33.7188C30.9198 33.5988 30.6932 33.6655 30.7332 33.9055C30.7598 34.0388 30.9332 34.1321 31.3998 34.2788C32.1865 34.5188 32.4132 34.5188 32.4532 34.2655ZM33.1198 33.2788C34.0265 32.8788 34.0932 31.8788 33.2532 31.6121C32.9065 31.5055 32.6932 31.5721 32.5598 31.7988C32.4532 31.9855 32.5198 32.3055 32.6532 32.3055C32.7065 32.3055 32.7465 32.3721 32.7465 32.4388C32.7465 32.7988 31.3865 32.9455 30.8265 32.6655C30.6265 32.5721 30.5598 32.3055 30.7065 32.3055C30.8398 32.3055 30.9198 32.0388 30.8532 31.8655C30.7732 31.5988 30.5065 31.5188 30.1465 31.6255C29.3065 31.8388 29.3332 32.8255 30.1865 33.2255C31.1306 33.572 32.1638 33.5908 33.1198 33.2788Z" fill="#FFB700" stroke="black" stroke-width="0.746667"/>
<path d="M32.5721 32.5051C32.6254 32.4517 32.5987 32.3717 32.5187 32.3184C32.3321 32.1717 32.3454 31.9451 32.5454 31.6917C32.7054 31.5051 32.7187 31.2117 32.7721 28.3451C32.8654 23.3984 33.2387 19.6784 33.7187 18.7717C33.9187 18.4251 33.8921 18.4251 33.3854 18.7717C32.7207 19.2348 32.1841 19.8586 31.8254 20.5851C30.9988 22.1184 30.7188 24.1851 30.7188 28.6117C30.7188 31.1184 30.7321 31.4517 30.8788 31.6784C31.0121 31.9184 31.0121 31.9984 30.9321 32.2384C30.8654 32.3851 30.8388 32.5451 30.8654 32.5717C31.0521 32.7451 32.3854 32.7051 32.5721 32.5051ZM40.0521 27.7851C40.0921 27.7451 40.0254 27.5184 39.9187 27.3051C39.7587 26.9584 39.6921 26.9051 39.4654 26.9051C38.3993 26.8124 37.3595 26.5231 36.3988 26.0517C35.7188 25.7451 35.4654 25.6784 35.3988 25.7584C35.1854 25.9584 35.5321 26.4251 36.0654 26.6784C36.8503 26.9612 37.6723 27.1274 38.5054 27.1717C38.8654 27.1717 38.8788 27.1717 38.6654 27.4784L38.5321 27.6917H38.9321L39.5988 27.7717C39.9988 27.8651 39.9987 27.8651 40.0521 27.7851Z" fill="#FFB700" stroke="black" stroke-width="0.746667"/>
<path d="M44.2656 30.0119C44.2656 29.8786 43.8789 29.5453 43.5056 29.3186C43.1989 29.1453 43.1456 29.1319 43.1456 29.2786C43.1456 29.4919 42.9589 30.0386 42.8789 30.0386C42.8389 30.0386 42.7722 29.9319 42.7456 29.8119C42.7056 29.6786 42.5589 29.4119 42.4122 29.2386L42.1456 28.9053L41.9589 29.2119C41.7722 29.5053 41.4389 29.7853 41.2922 29.7853C41.2656 29.7853 41.2522 29.6253 41.2922 29.4519C41.3056 29.2386 41.2922 29.0786 41.2256 29.0519C41.1722 29.0119 41.1189 29.0253 41.1189 29.0786C41.1189 29.1853 40.6656 29.6919 40.5856 29.6919C40.5322 29.6919 40.4789 29.5586 40.4522 29.3719L40.3456 28.7319C40.3189 28.5719 40.3856 28.6786 40.4789 28.9986L40.6922 29.5453L40.9056 29.2119C41.0022 29.0742 41.0743 28.9208 41.1189 28.7586C41.1189 28.6919 41.1589 28.6653 41.2122 28.6919C41.2656 28.7186 41.3322 28.9453 41.3589 29.1853L41.4256 29.6386L41.6656 29.3719C41.7912 29.2382 41.907 29.0956 42.0122 28.9453C42.1056 28.7853 42.1189 28.7853 42.3189 28.9453C42.4256 29.0519 42.5989 29.2786 42.7056 29.4653C42.8122 29.6519 42.9056 29.7853 42.9189 29.7719L42.9989 29.3453L43.0522 28.9453C43.0656 28.8786 43.7722 29.3453 44.0389 29.5719C44.1989 29.7186 44.3589 29.8253 44.3856 29.7986C44.4122 29.7719 44.4389 29.5586 44.4389 29.3053C44.4389 28.9319 44.3989 28.8253 44.1722 28.6253C43.9056 28.3853 43.9056 28.3853 43.7989 28.5586C43.6656 28.7853 43.5189 28.7853 43.5189 28.5586C43.5189 28.3986 43.0122 27.7719 42.8922 27.7719C42.8522 27.7719 42.7456 27.9053 42.6522 28.0786C42.5589 28.2519 42.4522 28.3853 42.4256 28.3853C42.2922 28.3853 41.5856 27.5853 41.5856 27.4519C41.5856 27.3453 41.6389 27.3719 41.7589 27.5586C41.8781 27.7337 42.0168 27.8947 42.1722 28.0386C42.4389 28.2786 42.5456 28.2253 42.6522 27.7586C42.6922 27.6253 42.7456 27.5186 42.7856 27.5186C42.8922 27.5186 43.5056 28.1719 43.5856 28.3853L43.6789 28.5986L43.7456 28.3586C43.8256 28.0653 43.9189 28.0653 44.0522 28.3319C44.1056 28.4386 44.3722 28.6786 44.6389 28.8386L45.1322 29.1586L45.2256 28.8386C45.2789 28.6653 45.3589 28.5719 45.3856 28.6253C45.4389 28.6919 45.3056 29.2253 45.2122 29.3319C45.2122 29.3453 45.0389 29.2519 44.8656 29.1319L44.5322 28.8919V29.3186C44.5322 29.5453 44.5056 29.8253 44.4789 29.9319C44.4122 30.1453 44.2522 30.1986 44.2522 30.0119H44.2656ZM41.7989 26.6253C41.2122 26.1453 41.1322 26.0386 41.1322 25.7986L41.1456 25.5586L41.1856 25.7853C41.2122 25.9186 41.3722 26.1319 41.5589 26.2919L41.9056 26.5586L42.1056 26.3186C42.2256 26.1853 42.3189 26.0253 42.3189 25.9719C42.3189 25.8119 42.3456 25.8253 42.7456 26.1719C43.0922 26.4786 43.1056 26.4786 43.1456 26.2786C43.1856 26.1719 43.1722 25.9586 43.1456 25.8119C43.0122 25.4119 43.0389 25.3586 43.2122 25.5986L43.5322 25.9719C43.6656 26.1186 43.6789 26.1186 43.7322 25.9319C43.7722 25.8119 43.7989 25.6119 43.7989 25.4786V25.2253L44.1056 25.5853C44.4122 25.9319 44.4389 25.9453 44.5189 25.7719C44.5856 25.6786 44.6256 25.4519 44.6256 25.2786C44.6256 25.0386 44.6522 24.9853 44.7056 25.0653C44.8122 25.2253 44.7456 25.6253 44.5589 25.9719L44.4256 26.2386L44.2522 25.9586C44.0256 25.6119 43.9456 25.6119 43.8122 25.9853C43.6789 26.3453 43.5856 26.3719 43.4522 26.0919C43.3722 25.9186 43.3456 25.9453 43.2922 26.3186L43.2256 26.7186L42.8256 26.4119L42.4256 26.1053L42.2256 26.3053C42.1322 26.4253 42.0522 26.5719 42.0522 26.6253C42.0522 26.7586 41.9456 26.7586 41.7989 26.6253ZM46.9989 24.8119C46.7989 24.6253 46.6522 24.4386 46.6789 24.4119C46.7189 24.3719 46.7456 24.3586 46.7589 24.3853C46.888 24.5228 47.0214 24.6562 47.1589 24.7853C47.6122 25.2653 47.5189 25.2786 47.0122 24.8119H46.9989ZM40.0656 24.0919C39.8789 23.8253 39.8922 23.6653 40.1322 23.3719C40.2922 23.1719 40.3722 23.1453 40.6656 23.1853C40.8656 23.1986 41.2789 23.3719 41.5856 23.5586C42.0288 23.8234 42.536 23.9617 43.0522 23.9586L42.8256 23.5853C42.5322 23.1453 42.5322 23.0919 42.8789 23.3586C43.2256 23.6386 43.6389 23.7186 44.5722 23.6919L45.0256 23.6786L44.7589 23.4119C44.3989 23.0519 44.5056 23.0119 44.9189 23.3719C45.2922 23.7053 45.2789 23.7319 44.4656 23.8119C44.1264 23.8462 43.784 23.8236 43.4522 23.7453C42.9989 23.6119 42.9722 23.6253 43.0656 23.7719C43.1189 23.8653 43.1989 23.9319 43.2389 23.9319C43.2922 23.9319 43.3322 23.9853 43.3322 24.0386C43.3322 24.2119 42.3456 24.0519 41.8656 23.8253C40.7989 23.2786 40.6656 23.2253 40.3989 23.3053C40.3279 23.3326 40.263 23.3738 40.2081 23.4264C40.1531 23.4791 40.1092 23.5421 40.0789 23.6119C39.9056 24.0519 40.5322 24.3986 40.7856 24.0119C40.8656 23.8919 40.8522 23.8253 40.7189 23.6786C40.5322 23.4919 40.5589 23.4653 40.7989 23.5453C40.9722 23.6119 40.9856 24.0253 40.8256 24.1853C40.6522 24.3586 40.2256 24.3186 40.0656 24.0919Z" fill="#000001" stroke="black" stroke-width="0.746667"/>
<path d="M44.3206 23.011C44.1873 22.8777 44.2939 22.851 44.8939 22.8377C45.6406 22.8244 46.0939 22.7044 46.6273 22.3577C47.0539 22.091 47.1739 22.1444 46.7606 22.4244C46.4006 22.691 45.8273 22.8777 45.2539 22.931L44.5739 23.0244C44.4673 23.051 44.3473 23.0377 44.3073 23.011H44.3206Z" fill="#000001" stroke="black" stroke-width="0.746667"/>
<path d="M37.8002 45.3031L38.1068 45.1164L38.2402 45.3031C38.4135 45.5431 38.9068 45.5298 39.2268 45.3031L39.4802 45.1031L39.6935 45.2898C39.9602 45.5431 40.4668 45.5431 40.8002 45.2898C41.0268 45.1298 41.0668 45.1164 41.2002 45.2498C41.2935 45.3298 41.5602 45.4098 41.7868 45.4498C42.2135 45.5031 42.2135 45.5031 42.4535 45.1298C42.6668 44.8231 42.6935 44.7031 42.6535 44.3964C42.6163 44.1622 42.5896 43.9264 42.5735 43.6898C42.5468 43.3431 42.5602 43.3431 43.0535 43.1564C43.2984 43.0813 43.5388 42.9923 43.7735 42.8898C43.9735 42.7698 44.5335 42.1164 44.5335 41.9831C44.5335 41.9564 44.3202 41.9031 44.0535 41.8764C42.9868 41.7431 42.8135 41.1831 43.5068 40.1431C44.6135 38.4098 45.2935 36.7431 45.2935 35.6898C45.2935 35.2098 45.3335 35.0498 45.3868 35.1564C45.6402 35.5698 45.1868 37.3431 44.5202 38.6231L44.2535 39.1298L44.5068 39.0764C44.6402 39.0364 45.4935 38.6764 46.3735 38.2764C48.8002 37.1831 49.6268 36.9698 51.2002 37.0364C52.5202 37.0898 53.0668 37.3431 54.0002 38.3164C54.4935 38.8498 54.9735 39.2098 55.8402 39.7564C57.6802 40.9031 57.7602 41.0098 57.8535 42.3698C57.9468 43.7431 57.8935 43.8231 56.8535 44.0498C55.9602 44.2498 55.4002 44.6631 55.2535 45.2498C55.1735 45.5431 55.3468 45.5564 55.7868 45.2631L56.1202 45.0498L56.2668 45.2631C56.4668 45.5431 56.8668 45.5431 57.2002 45.2631L57.4668 45.0631L57.7335 45.2631C58.1335 45.5964 58.6668 45.5164 58.8268 45.1031C58.8535 45.0364 58.9335 45.0498 59.0935 45.1964C59.4002 45.4631 60.1602 45.5698 60.2402 45.3564C60.2668 45.2764 60.2135 45.0898 60.1068 44.9298C59.6668 44.2631 59.5202 43.9564 59.5202 43.5964C59.5202 43.0898 59.6535 42.8364 60.2402 42.4364C60.9335 41.9298 61.1468 41.2898 60.6135 41.2898C60.2935 41.2898 59.9602 40.9964 59.7468 40.5298C59.3202 39.5698 59.4135 38.5031 60.0535 36.7164C60.5442 35.6652 60.7903 34.5164 60.7735 33.3564C60.7735 32.3698 60.7468 32.2098 60.5335 31.6631C60.3666 31.283 60.1611 30.9211 59.9202 30.5831L59.5468 30.0898L60.0135 29.6898C61.4535 28.5031 61.1602 26.5564 59.4268 25.8098C58.8935 25.5698 58.7602 25.5564 57.8268 25.5564C57.2935 25.5564 56.4268 25.6364 55.9602 25.7298C55.3338 25.8289 54.701 25.8824 54.0668 25.8898C53.1602 25.8898 53.0002 25.8631 52.6535 25.6764C52.2935 25.4898 52.2268 25.3964 52.1602 24.9431C52.1537 24.9004 52.137 24.8599 52.1115 24.825C52.0859 24.7902 52.0523 24.7621 52.0135 24.7431C51.8802 24.7031 51.3202 25.1964 51.2402 25.4098C51.1868 25.5298 51.1602 25.5164 51.0402 25.3698C50.9271 25.2245 50.8371 25.0626 50.7735 24.8898C50.6402 24.4498 50.8135 24.1298 51.3335 23.8764L51.7335 23.6898L51.4935 23.5431C51.0135 23.2364 50.1868 23.4498 49.8935 23.9431C49.8002 24.0764 49.7068 24.2098 49.6802 24.2098C49.6535 24.2098 49.4935 24.0764 49.3335 23.9031C48.7068 23.2898 48.9202 22.3831 49.7602 22.1164C50.2002 21.9698 50.6002 22.0764 50.6802 22.3831C50.8135 22.8231 51.1868 22.2364 51.1202 21.6898C51.0802 21.3298 51.0802 21.3164 51.3335 21.3164C51.6802 21.3164 52.4002 21.7698 52.6402 22.1164C52.9068 22.5298 52.8802 23.1831 52.5868 23.6631L52.3602 24.0364L52.6668 23.9831C53.0935 23.8898 53.5202 23.6231 53.7335 23.2898C53.8459 23.0775 53.9091 22.8426 53.9183 22.6025C53.9275 22.3625 53.8826 22.1234 53.7868 21.9031C53.5868 21.5431 53.6135 21.4898 53.9068 21.6098C54.3868 21.8098 54.6535 22.0364 54.8402 22.4231C55.0268 22.7698 55.0402 22.8498 54.9468 23.2231C54.883 23.4504 54.784 23.6664 54.6535 23.8631C54.4935 24.0764 54.4802 24.1164 54.6135 24.1164C54.8535 24.1164 55.3335 23.8898 55.5068 23.7164C55.6002 23.6098 55.7335 23.3831 55.8002 23.1831L55.9335 22.8498L56.0668 23.1164C56.2668 23.4764 56.6668 23.8098 57.1468 24.0231C57.6668 24.2364 57.8802 24.2498 57.6135 24.0498C57.4268 23.9164 57.0802 22.9164 57.2002 22.8231C57.7756 23.1453 58.3011 23.5496 58.7602 24.0231C59.5202 24.7031 60.0002 24.9298 60.6935 24.9298C61.5868 24.9298 62.1068 24.1564 61.7068 23.4231C61.4802 22.9964 60.9602 22.9298 60.6402 23.2898C60.5068 23.4631 60.4668 23.5964 60.5068 23.7831C60.5602 23.9964 60.5468 24.0231 60.3468 24.0231C60.0802 24.0231 59.5735 23.6898 58.6668 22.9298C57.4048 21.8437 55.9541 20.9985 54.3868 20.4364C53.3251 20.191 52.2287 20.1324 51.1468 20.2631C50.2935 20.4231 49.2802 20.9164 48.7202 21.4364C47.7468 22.3698 47.7335 23.6098 48.6802 24.7431L48.9468 25.0631L48.7735 25.3564C48.6431 25.5665 48.5785 25.8108 48.588 26.0579C48.5975 26.305 48.6807 26.5436 48.8268 26.7431C48.9602 26.9298 49.0935 27.0764 49.1335 27.0764C49.1602 27.0764 49.1868 26.9564 49.2002 26.8098C49.2268 26.4498 49.3868 26.2098 49.6535 26.1164C49.8935 26.0231 50.0535 26.0764 51.1468 26.5164C52.3068 26.9698 54.2135 26.9964 56.2402 26.5964C57.1186 26.3936 58.0326 26.4027 58.9068 26.6231C59.8668 27.0231 60.0802 28.0498 59.3868 28.8231C59.0802 29.1698 58.8002 29.3031 57.8268 29.5698C56.9794 29.7933 56.0985 29.861 55.2268 29.7698C53.7868 29.7564 53.2668 29.7831 52.6935 29.9031C52.0402 30.0364 51.6535 30.0498 49.7868 30.0098L47.6135 29.9564L47.8535 30.1431C47.982 30.2572 48.1203 30.3599 48.2668 30.4498C48.4402 30.5431 48.4268 30.5564 48.1868 30.6498C48.0535 30.7031 47.7335 30.7431 47.4802 30.7431H47.0402L46.9868 31.1164C46.9509 31.2924 46.9509 31.4738 46.9868 31.6498C47.0402 31.7831 47.0135 31.8098 46.8802 31.7564C46.7868 31.7164 46.5335 31.6498 46.3068 31.6098C46.0781 31.5607 45.8548 31.4893 45.6402 31.3964C45.3868 31.2631 45.3602 31.2631 45.2668 31.4364C45.1868 31.5698 44.4402 32.1298 44.3335 32.1298C44.2853 31.7839 44.1865 31.4469 44.0402 31.1298C43.9068 30.8498 43.7868 30.5298 43.7468 30.4364C43.7068 30.2898 43.6802 30.2764 43.6135 30.3964C43.5735 30.4631 43.5202 30.6631 43.4802 30.8231C43.4335 31.0391 43.3524 31.2461 43.2402 31.4364L43.0402 31.7298L42.9068 31.4764C42.7735 31.2098 42.5602 30.9164 42.4802 30.9164C42.4535 30.9164 42.4135 30.9964 42.3868 31.1164C42.3202 31.3298 41.8002 31.9564 41.6668 31.9564C41.6268 31.9564 41.5868 31.7831 41.5868 31.5564C41.5868 31.3564 41.5468 31.1698 41.4935 31.1698C41.4402 31.1698 41.4002 31.2364 41.4002 31.3031C41.4002 31.4631 40.9602 31.9698 40.8002 31.9698C40.7468 31.9698 40.6402 32.0231 40.5735 32.1031C40.4135 32.2764 40.2802 32.2498 40.3468 32.0498C40.3655 31.879 40.3473 31.7062 40.2935 31.5431L40.1602 31.1164C40.1335 31.0498 39.9735 31.0764 39.6268 31.1831C39.0935 31.3564 38.9068 31.3164 39.1868 31.1031C39.2935 31.0231 39.4535 30.7431 39.5335 30.4898C39.6268 30.2231 39.7602 29.9964 39.8268 29.9698C39.9202 29.9431 39.9202 29.9698 39.8002 30.1298C39.723 30.2312 39.6725 30.3504 39.6535 30.4764C39.6535 30.5431 39.5868 30.7164 39.5202 30.8631C39.4402 30.9964 39.3868 31.1298 39.4002 31.1431C39.4135 31.1564 39.6268 31.0764 39.8668 30.9698L40.2935 30.7564V30.9431C40.2935 31.0498 40.3468 31.3164 40.4135 31.5431L40.5335 31.9431L40.8268 31.8098C41.1202 31.6764 41.4002 31.1964 41.4002 30.8098C41.4002 30.6231 41.5068 30.6498 41.5602 30.8498C41.5602 30.9031 41.6402 31.1298 41.6935 31.3431L41.8268 31.7164L42.0268 31.4764C42.1468 31.3431 42.2802 31.0764 42.3335 30.9031C42.4402 30.5831 42.6002 30.4364 42.6002 30.6764C42.6002 30.8364 43.0535 31.4498 43.1335 31.3964C43.1868 31.3698 43.2668 31.1431 43.3335 30.8898C43.4668 30.3564 43.6668 30.0098 43.8002 30.0898C43.8535 30.1164 43.8668 30.1698 43.8402 30.2231C43.8135 30.2498 43.9202 30.5964 44.0802 30.9698C44.1961 31.2496 44.3116 31.5296 44.4268 31.8098C44.4802 31.9431 44.5335 31.9431 44.8668 31.6364C45.0668 31.4498 45.2668 31.2498 45.2802 31.1831C45.3202 31.0764 45.3602 31.0898 45.5468 31.2098C45.9399 31.4174 46.3706 31.5444 46.8135 31.5831C46.8402 31.5564 46.8668 31.3164 46.8668 31.0498L46.8802 30.5564L47.1468 30.6098C47.2802 30.6498 47.5868 30.6498 47.8135 30.6098L48.2135 30.5564L47.8535 30.2898C47.6535 30.1564 47.4535 29.9831 47.4002 29.9031C47.3602 29.8231 47.1735 29.7431 46.9735 29.7298C46.4268 29.6764 45.4535 29.1431 45.4535 28.8764C45.4535 28.8231 45.5868 28.9164 45.7468 29.0631C46.1202 29.3964 46.6268 29.5964 47.0802 29.5964H47.4002L47.2002 29.3298C47.0577 29.123 46.9663 28.8854 46.9335 28.6364C46.9068 28.2364 46.8668 28.1831 46.4535 27.9031C46.2138 27.7333 45.9906 27.5413 45.7868 27.3298L45.5602 27.0764L45.4402 27.3831C45.3735 27.5564 45.3068 27.6898 45.2668 27.6898C45.2402 27.6898 45.1068 27.5831 45.0002 27.4631C44.9251 27.3762 44.8347 27.3039 44.7335 27.2498C44.6935 27.2498 44.6002 27.4098 44.4935 27.6098L44.3068 27.9698L44.1735 27.7698C44.0549 27.6063 43.9209 27.4545 43.7735 27.3164C43.6135 27.1831 43.5468 27.0764 43.6002 27.0764C43.6535 27.0764 43.8268 27.2098 44.0002 27.3831L44.2935 27.6898L44.4268 27.4631C44.5038 27.306 44.5273 27.1281 44.4935 26.9564C44.4402 26.7164 44.4535 26.7031 44.5335 26.8631C44.6485 27.0136 44.783 27.1481 44.9335 27.2631L45.2268 27.5031L45.4268 27.1431C45.6268 26.7698 45.6268 26.7698 45.7068 26.9964C45.8402 27.2764 46.7068 27.9964 47.4402 28.4098C47.5735 28.4764 47.5202 28.2631 47.3068 27.7431C47.2428 27.5722 47.2067 27.3921 47.2002 27.2098C47.2002 26.9698 47.1335 26.8631 46.8268 26.6231C46.6362 26.5012 46.4766 26.3365 46.3609 26.142C46.2452 25.9476 46.1764 25.7288 46.1602 25.5031C46.1202 25.2764 46.0402 25.0364 45.9735 24.9564C45.8935 24.8231 45.8668 24.9031 45.8935 25.3031C45.9202 25.5831 45.8802 25.9298 45.8135 26.0764L45.7068 26.3431L45.6268 26.1164C45.5735 25.9964 45.3602 25.7831 45.1602 25.6498C44.9602 25.5164 44.8135 25.3831 44.8402 25.3564C44.8668 25.3298 45.0802 25.4498 45.3068 25.6231C45.6668 25.9031 45.7335 25.9298 45.7868 25.8098C45.8402 25.6764 45.7868 25.0631 45.6802 24.6364C45.6268 24.4231 45.6268 24.4231 45.8935 24.6898C46.0802 24.8764 46.1868 25.1164 46.2802 25.5164C46.3868 26.0231 46.4402 26.1164 46.9068 26.5298C47.1868 26.7831 47.4402 26.9698 47.4535 26.9564C47.4802 26.9298 47.5068 26.2898 47.5335 25.5164C47.5868 24.0364 47.5335 23.6764 47.1735 23.2231L46.9868 22.9831L47.2802 22.6764C47.6088 22.3621 47.8283 21.951 47.9068 21.5031L47.9602 21.1431L47.6402 21.4498C47.3735 21.7031 47.2402 21.7564 46.9335 21.7564C46.6268 21.7564 46.5068 21.7031 46.3068 21.4898C45.9953 21.1899 45.6155 20.9702 45.2002 20.8498C45.0402 20.7964 44.9868 20.8231 44.9868 20.9298C44.9868 21.0098 44.9068 21.2231 44.8002 21.4231L44.6135 21.7698L44.2135 21.3698C43.9602 21.1431 43.6802 20.9431 43.4535 20.8898C42.9068 20.7564 42.8802 20.7564 42.8802 21.1698C42.8802 21.7964 42.6135 21.9164 42.1335 21.5031C41.7602 21.1831 41.4668 21.1031 40.7602 21.1964L40.2268 21.2498L40.3202 21.4898C40.4002 21.6898 40.3868 21.7831 40.2135 22.0098C39.9335 22.3831 39.5735 22.5431 39.0135 22.5431C38.7468 22.5431 38.4268 22.5964 38.2935 22.6631C38.1602 22.7298 37.8135 22.7964 37.5335 22.8231C37.2668 22.8498 36.9602 22.9031 36.8668 22.9298C36.7335 22.9831 36.7335 22.9298 36.7735 22.6364C36.8402 22.1831 36.5068 21.8364 36.0135 21.8364C35.3602 21.8364 35.0668 22.4231 35.3202 23.1964C35.372 23.3633 35.4165 23.5323 35.4535 23.7031C35.6286 24.0365 35.8636 24.3348 36.1468 24.5831C36.4935 24.9298 36.8135 25.2898 36.8668 25.3831C36.9742 25.5222 37.1107 25.6359 37.2668 25.7164L37.5602 25.8764L37.5202 25.5564C37.4802 25.2098 37.5468 25.1564 37.7335 25.4098C37.8002 25.4898 37.9735 25.6364 38.1068 25.7164C38.3335 25.8498 38.3735 25.8498 38.3735 25.7431C38.3735 25.6631 38.4135 25.4898 38.4668 25.3564L38.5602 25.1164L38.7335 25.4498C38.8268 25.6364 39.1335 26.0498 39.4135 26.3831C39.9602 27.0098 40.3068 27.7164 40.1335 27.8764C40.0535 27.9431 39.8668 27.9431 39.4668 27.8631C39.1735 27.8098 38.8002 27.7698 38.6402 27.7964C38.3335 27.8364 38.3068 27.7964 38.5068 27.5564C38.7068 27.2898 38.6668 27.2498 38.2668 27.2498C37.8002 27.2498 36.6402 27.0231 36.1868 26.8498C35.7602 26.6764 35.6535 26.7164 35.5202 27.1298L35.2935 27.8764L35.1602 28.2764L35.6402 28.2364C35.8876 28.2105 36.1328 28.166 36.3735 28.1031C36.4679 28.0716 36.5674 28.0581 36.6668 28.0631C36.6935 28.0764 36.6268 28.2364 36.5335 28.4231L36.3468 28.7431L36.6402 28.6898C36.8002 28.6498 37.0402 28.5698 37.1735 28.5031C37.4135 28.3964 37.4402 28.3964 37.6268 28.7031C37.8535 29.0631 38.0268 29.0498 38.0668 28.6631C38.1068 28.2631 38.2402 28.3164 38.4935 28.8498C38.7335 29.3564 38.9735 29.5431 39.0268 29.2498C39.0402 29.1431 39.1602 28.9831 39.3068 28.8764C39.6002 28.6764 39.8135 28.7431 39.9335 29.0498C40.0668 29.3831 39.7735 29.7164 38.9468 30.2231C38.1813 30.6458 37.5225 31.238 37.021 31.9544C36.5196 32.6708 36.1886 33.4924 36.0535 34.3564C35.8002 35.9298 36.5868 37.5564 38.1335 38.7431C38.8802 39.3031 40.0668 39.8898 39.9868 39.6764C39.6668 38.7031 39.6802 36.8764 40.0002 36.5698C40.0535 36.5164 40.0402 36.7031 39.9602 36.9831C39.6935 38.0364 39.8268 38.8631 40.4935 40.8098C41.0802 42.5698 41.0002 43.3298 40.1468 43.8231C39.8802 43.9831 39.7068 44.0098 38.9735 43.9964C38.1735 43.9964 38.0802 43.9964 37.8268 44.2098C37.5205 44.5226 37.32 44.9237 37.2535 45.3564C37.2535 45.5298 37.4402 45.5031 37.7868 45.3031H37.8002Z" fill="#FFB700"/>
<path d="M50.7331 45.2652L51.0664 45.0519L51.2931 45.2652C51.5864 45.5452 51.9464 45.5319 52.2264 45.2519C52.3598 45.1185 52.4664 45.0385 52.4798 45.0519L52.5998 45.2652C52.6664 45.3852 52.8131 45.4385 53.0798 45.4652C53.3864 45.4785 53.4798 45.4652 53.6131 45.2785L53.7464 45.0519L54.0798 45.2652C54.9864 45.8519 55.4664 45.2385 55.0531 44.0252C54.8531 43.4119 54.9731 43.0652 55.6264 42.2919C55.9064 41.9585 56.1331 41.5985 56.1331 41.4919C56.1331 41.3452 56.0798 41.3185 55.7064 41.3319C55.3598 41.3319 55.2531 41.2919 55.0664 41.0919C54.7598 40.7585 54.7864 40.3719 55.1198 39.9452L55.3864 39.6119L54.9064 39.2919C54.5233 39.0089 54.1663 38.692 53.8398 38.3452C53.5487 38.0017 53.1929 37.7189 52.7925 37.513C52.3921 37.3071 51.9551 37.1821 51.5064 37.1452L50.8798 37.0785V37.5585C50.8798 38.1585 51.1731 38.7452 51.9464 39.7319C52.8264 40.8519 52.8798 41.0252 52.9198 42.4919L52.9598 43.7319L52.6931 43.9719C52.4664 44.1852 52.3731 44.2252 51.6264 44.2652C50.9198 44.3052 50.7598 44.3452 50.5598 44.5319C50.3257 44.7026 50.164 44.9546 50.1064 45.2385C50.0664 45.4385 50.0798 45.4785 50.2264 45.4785C50.3198 45.4785 50.5464 45.3852 50.7331 45.2652ZM31.7731 42.0652C31.8537 41.9468 31.8999 41.8083 31.9064 41.6652C31.9064 41.5319 31.9864 41.4785 32.3331 41.4252L32.7464 41.3719L32.4798 41.1452C32.1464 40.8785 32.1064 40.6785 32.3998 40.6785C32.6931 40.6785 33.1731 40.3852 33.2531 40.1585C33.2931 40.0519 33.2531 39.9185 33.1998 39.8519C33.0398 39.6652 32.7331 39.6919 32.6798 39.9052C32.6131 40.1185 32.5198 40.1185 32.2798 39.9052C31.9464 39.5719 31.9331 38.8919 32.2798 38.4919C32.4264 38.3052 32.4264 38.3052 32.2264 38.1052C32.0131 37.8919 31.8531 37.4919 31.9598 37.3852C31.9864 37.3585 32.1598 37.3852 32.3331 37.4519C32.5998 37.5319 32.6931 37.5319 32.7998 37.4519C33.1064 37.1985 32.7731 36.8785 32.2664 36.9585C32.0531 36.9852 31.9731 36.9585 31.9464 36.8519C31.9198 36.7719 31.7464 36.6652 31.5464 36.6119C31.1864 36.5185 31.1864 36.5185 31.1864 36.7719C31.1864 37.0385 31.0264 37.0919 30.7331 36.9185C30.4931 36.7852 30.2664 36.8919 30.2664 37.1452C30.2664 37.3852 30.4931 37.4919 30.9331 37.4652C31.2531 37.4519 31.2664 37.6919 30.9598 38.0385L30.7331 38.3052L30.9064 38.5585C31.1731 38.9319 31.1464 39.5585 30.8664 39.8785L30.6398 40.1185L30.4931 39.9185C30.2798 39.6519 29.9998 39.6652 29.9198 39.9585C29.8798 40.1452 29.9198 40.2252 30.1598 40.4385C30.3198 40.5719 30.5598 40.6785 30.6798 40.6785C30.9864 40.6785 30.9731 40.9319 30.6531 41.1719L30.3864 41.3719L30.7864 41.4252C30.9998 41.4652 31.1864 41.5185 31.1864 41.5585C31.1864 41.7319 31.4531 42.2519 31.5331 42.2519C31.5864 42.2519 31.6931 42.1585 31.7731 42.0519V42.0652Z" fill="#FFB700"/>
<path d="M36.8663 39.8502C37.2263 39.7168 37.9996 39.0502 37.9996 38.9035C37.9996 38.8502 37.7863 38.6102 37.5196 38.3702C36.9863 37.8902 36.3863 37.0502 36.2263 36.5702C36.1463 36.3035 35.7596 35.8768 34.6663 34.8102L33.2129 33.4102L32.7996 33.5168C32.5596 33.5702 32.2796 33.6235 32.1729 33.6235C31.9729 33.6235 31.9729 33.6235 32.2396 33.8368L32.5063 34.0502L32.9063 33.8368C33.2663 33.6235 33.2796 33.6235 33.3196 33.7968C33.3463 33.8902 33.2929 34.0635 33.1863 34.1835C33.0929 34.3035 33.0396 34.4502 33.0529 34.4902C33.0929 34.5302 32.9996 34.6235 32.8529 34.7035C32.5863 34.8368 32.3863 35.2768 32.5996 35.2768C32.7996 35.2768 33.2263 34.7435 33.1729 34.5702C33.1463 34.4768 33.1729 34.3835 33.1996 34.3568C33.3729 34.2635 33.3596 34.6768 33.1996 34.8902C33.0929 34.9968 33.0396 35.1302 33.0663 35.1835C33.0929 35.2235 32.9996 35.3168 32.8529 35.3968C32.5863 35.5302 32.3863 35.9702 32.5996 35.9702C32.8129 35.9702 33.2263 35.4635 33.1863 35.2768C33.1596 35.1835 33.1596 35.0768 33.1996 35.0502C33.3196 34.9968 33.3729 35.3168 33.2796 35.4768C33.2551 35.5218 33.2422 35.5722 33.2422 35.6235C33.2422 35.6747 33.2551 35.7252 33.2796 35.7702C33.3729 35.9435 33.2796 36.2635 33.1063 36.3702C33.0396 36.4102 33.0796 36.5035 33.2663 36.6368C33.5329 36.8235 33.5329 36.8502 33.5329 37.7035C33.5329 38.4235 33.5596 38.6102 33.6929 38.7302C33.8263 38.8635 33.8529 38.8635 33.8529 38.7302C33.8529 38.5968 34.1196 38.4102 34.3196 38.4102C34.3863 38.4102 34.7729 38.7435 35.1863 39.1435C35.5996 39.5435 36.0396 39.9035 36.1596 39.9168L36.4529 39.9702C36.4929 39.9702 36.6796 39.9302 36.8663 39.8368V39.8502ZM32.4263 36.3702C32.4263 36.1435 31.9463 35.8902 31.3729 35.8368C30.9062 35.7702 30.9062 35.7835 30.9062 36.0102C30.9062 36.1968 30.9729 36.2768 31.3063 36.4102C31.8129 36.6368 32.4263 36.6102 32.4263 36.3702Z" fill="#FFB700"/>
<path d="M32.9465 36.3455C33.1865 36.1321 33.2932 35.8921 33.1465 35.8921C32.9865 35.8921 32.5598 36.2655 32.5598 36.4255C32.5598 36.6388 32.6398 36.6255 32.9598 36.3455H32.9465ZM32.4532 35.6655C32.4665 35.5321 32.3865 35.4521 32.1465 35.3321C31.6132 35.1055 30.9998 34.9855 30.8532 35.1055C30.5732 35.3321 30.7598 35.6255 31.1998 35.6788C31.3865 35.6921 31.6265 35.7455 31.7465 35.7988C32.0932 35.9321 32.4132 35.8655 32.4532 35.6655ZM32.4532 34.9588C32.4798 34.7855 32.3598 34.7188 31.3865 34.3721C30.6532 34.1055 30.3332 34.2388 30.5732 34.6788C30.6532 34.8255 30.7865 34.8921 31.0932 34.9455C31.3198 34.9721 31.6265 35.0388 31.7732 35.0921C32.1732 35.2255 32.4132 35.1721 32.4398 34.9588H32.4532ZM32.9332 34.3055C33.0798 34.1588 33.1998 33.9855 33.1998 33.9055C33.1998 33.7055 32.6265 34.0788 32.5465 34.3455C32.4665 34.6521 32.6132 34.6388 32.9465 34.3055H32.9332ZM32.4532 34.2655C32.4798 34.0521 32.1332 33.8655 31.4398 33.7188C30.9198 33.5988 30.6932 33.6655 30.7332 33.9055C30.7598 34.0388 30.9332 34.1321 31.3998 34.2788C32.1865 34.5188 32.4132 34.5188 32.4532 34.2655ZM33.1198 33.2788C34.0265 32.8788 34.0932 31.8788 33.2532 31.6121C32.9065 31.5055 32.6932 31.5721 32.5598 31.7988C32.4532 31.9855 32.5198 32.3055 32.6532 32.3055C32.7065 32.3055 32.7465 32.3721 32.7465 32.4388C32.7465 32.7988 31.3865 32.9455 30.8265 32.6655C30.6265 32.5721 30.5598 32.3055 30.7065 32.3055C30.8398 32.3055 30.9198 32.0388 30.8532 31.8655C30.7732 31.5988 30.5065 31.5188 30.1465 31.6255C29.3065 31.8388 29.3332 32.8255 30.1865 33.2255C31.1306 33.572 32.1638 33.5908 33.1198 33.2788Z" fill="#FFB700"/>
<path d="M32.5721 32.5051C32.6254 32.4517 32.5987 32.3717 32.5187 32.3184C32.3321 32.1717 32.3454 31.9451 32.5454 31.6917C32.7054 31.5051 32.7187 31.2117 32.7721 28.3451C32.8654 23.3984 33.2387 19.6784 33.7187 18.7717C33.9187 18.4251 33.8921 18.4251 33.3854 18.7717C32.7207 19.2348 32.1841 19.8586 31.8254 20.5851C30.9988 22.1184 30.7188 24.1851 30.7188 28.6117C30.7188 31.1184 30.7321 31.4517 30.8788 31.6784C31.0121 31.9184 31.0121 31.9984 30.9321 32.2384C30.8654 32.3851 30.8388 32.5451 30.8654 32.5717C31.0521 32.7451 32.3854 32.7051 32.5721 32.5051ZM40.0521 27.7851C40.0921 27.7451 40.0254 27.5184 39.9187 27.3051C39.7587 26.9584 39.6921 26.9051 39.4654 26.9051C38.3993 26.8124 37.3595 26.5231 36.3988 26.0517C35.7188 25.7451 35.4654 25.6784 35.3988 25.7584C35.1854 25.9584 35.5321 26.4251 36.0654 26.6784C36.8503 26.9612 37.6723 27.1274 38.5054 27.1717C38.8654 27.1717 38.8788 27.1717 38.6654 27.4784L38.5321 27.6917H38.9321L39.5988 27.7717C39.9988 27.8651 39.9987 27.8651 40.0521 27.7851Z" fill="#FFB700"/>
<path d="M44.2656 30.0119C44.2656 29.8786 43.8789 29.5453 43.5056 29.3186C43.1989 29.1453 43.1456 29.1319 43.1456 29.2786C43.1456 29.4919 42.9589 30.0386 42.8789 30.0386C42.8389 30.0386 42.7722 29.9319 42.7456 29.8119C42.7056 29.6786 42.5589 29.4119 42.4122 29.2386L42.1456 28.9053L41.9589 29.2119C41.7722 29.5053 41.4389 29.7853 41.2922 29.7853C41.2656 29.7853 41.2522 29.6253 41.2922 29.4519C41.3056 29.2386 41.2922 29.0786 41.2256 29.0519C41.1722 29.0119 41.1189 29.0253 41.1189 29.0786C41.1189 29.1853 40.6656 29.6919 40.5856 29.6919C40.5322 29.6919 40.4789 29.5586 40.4522 29.3719L40.3456 28.7319C40.3189 28.5719 40.3856 28.6786 40.4789 28.9986L40.6922 29.5453L40.9056 29.2119C41.0022 29.0742 41.0743 28.9208 41.1189 28.7586C41.1189 28.6919 41.1589 28.6653 41.2122 28.6919C41.2656 28.7186 41.3322 28.9453 41.3589 29.1853L41.4256 29.6386L41.6656 29.3719C41.7912 29.2382 41.907 29.0956 42.0122 28.9453C42.1056 28.7853 42.1189 28.7853 42.3189 28.9453C42.4256 29.0519 42.5989 29.2786 42.7056 29.4653C42.8122 29.6519 42.9056 29.7853 42.9189 29.7719L42.9989 29.3453L43.0522 28.9453C43.0656 28.8786 43.7722 29.3453 44.0389 29.5719C44.1989 29.7186 44.3589 29.8253 44.3856 29.7986C44.4122 29.7719 44.4389 29.5586 44.4389 29.3053C44.4389 28.9319 44.3989 28.8253 44.1722 28.6253C43.9056 28.3853 43.9056 28.3853 43.7989 28.5586C43.6656 28.7853 43.5189 28.7853 43.5189 28.5586C43.5189 28.3986 43.0122 27.7719 42.8922 27.7719C42.8522 27.7719 42.7456 27.9053 42.6522 28.0786C42.5589 28.2519 42.4522 28.3853 42.4256 28.3853C42.2922 28.3853 41.5856 27.5853 41.5856 27.4519C41.5856 27.3453 41.6389 27.3719 41.7589 27.5586C41.8781 27.7337 42.0168 27.8947 42.1722 28.0386C42.4389 28.2786 42.5456 28.2253 42.6522 27.7586C42.6922 27.6253 42.7456 27.5186 42.7856 27.5186C42.8922 27.5186 43.5056 28.1719 43.5856 28.3853L43.6789 28.5986L43.7456 28.3586C43.8256 28.0653 43.9189 28.0653 44.0522 28.3319C44.1056 28.4386 44.3722 28.6786 44.6389 28.8386L45.1322 29.1586L45.2256 28.8386C45.2789 28.6653 45.3589 28.5719 45.3856 28.6253C45.4389 28.6919 45.3056 29.2253 45.2122 29.3319C45.2122 29.3453 45.0389 29.2519 44.8656 29.1319L44.5322 28.8919V29.3186C44.5322 29.5453 44.5056 29.8253 44.4789 29.9319C44.4122 30.1453 44.2522 30.1986 44.2522 30.0119H44.2656ZM41.7989 26.6253C41.2122 26.1453 41.1322 26.0386 41.1322 25.7986L41.1456 25.5586L41.1856 25.7853C41.2122 25.9186 41.3722 26.1319 41.5589 26.2919L41.9056 26.5586L42.1056 26.3186C42.2256 26.1853 42.3189 26.0253 42.3189 25.9719C42.3189 25.8119 42.3456 25.8253 42.7456 26.1719C43.0922 26.4786 43.1056 26.4786 43.1456 26.2786C43.1856 26.1719 43.1722 25.9586 43.1456 25.8119C43.0122 25.4119 43.0389 25.3586 43.2122 25.5986L43.5322 25.9719C43.6656 26.1186 43.6789 26.1186 43.7322 25.9319C43.7722 25.8119 43.7989 25.6119 43.7989 25.4786V25.2253L44.1056 25.5853C44.4122 25.9319 44.4389 25.9453 44.5189 25.7719C44.5856 25.6786 44.6256 25.4519 44.6256 25.2786C44.6256 25.0386 44.6522 24.9853 44.7056 25.0653C44.8122 25.2253 44.7456 25.6253 44.5589 25.9719L44.4256 26.2386L44.2522 25.9586C44.0256 25.6119 43.9456 25.6119 43.8122 25.9853C43.6789 26.3453 43.5856 26.3719 43.4522 26.0919C43.3722 25.9186 43.3456 25.9453 43.2922 26.3186L43.2256 26.7186L42.8256 26.4119L42.4256 26.1053L42.2256 26.3053C42.1322 26.4253 42.0522 26.5719 42.0522 26.6253C42.0522 26.7586 41.9456 26.7586 41.7989 26.6253ZM46.9989 24.8119C46.7989 24.6253 46.6522 24.4386 46.6789 24.4119C46.7189 24.3719 46.7456 24.3586 46.7589 24.3853C46.888 24.5228 47.0214 24.6562 47.1589 24.7853C47.6122 25.2653 47.5189 25.2786 47.0122 24.8119H46.9989ZM40.0656 24.0919C39.8789 23.8253 39.8922 23.6653 40.1322 23.3719C40.2922 23.1719 40.3722 23.1453 40.6656 23.1853C40.8656 23.1986 41.2789 23.3719 41.5856 23.5586C42.0288 23.8234 42.536 23.9617 43.0522 23.9586L42.8256 23.5853C42.5322 23.1453 42.5322 23.0919 42.8789 23.3586C43.2256 23.6386 43.6389 23.7186 44.5722 23.6919L45.0256 23.6786L44.7589 23.4119C44.3989 23.0519 44.5056 23.0119 44.9189 23.3719C45.2922 23.7053 45.2789 23.7319 44.4656 23.8119C44.1264 23.8462 43.784 23.8236 43.4522 23.7453C42.9989 23.6119 42.9722 23.6253 43.0656 23.7719C43.1189 23.8653 43.1989 23.9319 43.2389 23.9319C43.2922 23.9319 43.3322 23.9853 43.3322 24.0386C43.3322 24.2119 42.3456 24.0519 41.8656 23.8253C40.7989 23.2786 40.6656 23.2253 40.3989 23.3053C40.3279 23.3326 40.263 23.3738 40.2081 23.4264C40.1531 23.4791 40.1092 23.5421 40.0789 23.6119C39.9056 24.0519 40.5322 24.3986 40.7856 24.0119C40.8656 23.8919 40.8522 23.8253 40.7189 23.6786C40.5322 23.4919 40.5589 23.4653 40.7989 23.5453C40.9722 23.6119 40.9856 24.0253 40.8256 24.1853C40.6522 24.3586 40.2256 24.3186 40.0656 24.0919Z" fill="#000001"/>
<path d="M44.3206 23.011C44.1873 22.8777 44.2939 22.851 44.8939 22.8377C45.6406 22.8244 46.0939 22.7044 46.6273 22.3577C47.0539 22.091 47.1739 22.1444 46.7606 22.4244C46.4006 22.691 45.8273 22.8777 45.2539 22.931L44.5739 23.0244C44.4673 23.051 44.3473 23.0377 44.3073 23.011H44.3206Z" fill="#000001"/>
</g>
</g>
</g>
<defs>
<clipPath id="clip0_423_14169">
<rect width="64" height="64" rx="32" fill="white"/>
</clipPath>
<clipPath id="clip1_423_14169">
<rect width="64" height="64" fill="white"/>
</clipPath>
<clipPath id="clip2_423_14169">
<rect width="85.3333" height="64" fill="white" transform="translate(-10.668)"/>
</clipPath>
</defs>
</svg>
