<svg width="64" height="64" viewBox="0 0 64 64" fill="none" xmlns="http://www.w3.org/2000/svg">
<g clip-path="url(#clip0_423_11725)">
<g clip-path="url(#clip1_423_11725)">
<g clip-path="url(#clip2_423_11725)">
<path fill-rule="evenodd" clip-rule="evenodd" d="M-10.668 0H17.772V64H-10.668V0Z" fill="#00319C"/>
<path fill-rule="evenodd" clip-rule="evenodd" d="M17.7734 0H46.2268V64H17.7734V0Z" fill="#FFDE00"/>
<path fill-rule="evenodd" clip-rule="evenodd" d="M46.2266 0H74.6666V64H46.2266V0Z" fill="#DE2110"/>
<path fill-rule="evenodd" clip-rule="evenodd" d="M37.3867 42.7195L40.6134 47.3862C40.8001 47.6529 40.9734 47.9062 40.7067 48.0795C40.4401 48.2529 40.5201 48.9329 40.7067 49.1995C41.0667 49.7195 41.5067 49.7995 41.7734 49.6262L44.2267 48.0795C44.4934 47.9195 44.5867 47.4795 44.2267 46.9595C44.0267 46.6929 43.4267 46.3595 43.1601 46.5329C42.8801 46.7062 42.6934 46.4395 42.5201 46.1862L39.2801 41.5195" fill="#FF1900"/>
<path d="M37.3867 42.7195L40.6134 47.3862C40.8001 47.6529 40.9734 47.9062 40.7067 48.0795C40.4401 48.2529 40.5201 48.9329 40.7067 49.1995C41.0667 49.7195 41.5067 49.7995 41.7734 49.6262L44.2267 48.0795C44.4934 47.9195 44.5867 47.4795 44.2267 46.9595C44.0267 46.6929 43.4267 46.3595 43.1601 46.5329C42.8801 46.7062 42.6934 46.4395 42.5201 46.1862L39.2801 41.5195" stroke="black" stroke-width="0.0933333"/>
<path fill-rule="evenodd" clip-rule="evenodd" d="M38.6502 39.4319C40.0933 41.0711 40.5953 42.9506 39.7728 43.6118C38.9502 44.273 37.0983 43.4786 35.6552 41.8394C34.2121 40.2002 33.7171 38.3151 34.5397 37.6539C35.3622 36.9926 37.2082 37.7803 38.6572 39.4262L38.6502 39.4319Z" fill="#A77B3B" stroke="black" stroke-width="0.224635"/>
<path fill-rule="evenodd" clip-rule="evenodd" d="M24.2671 40.8125L21.4004 45.7058C21.2404 45.9725 21.0804 46.2392 20.8004 46.1058C20.5204 45.9458 19.9204 46.3325 19.7604 46.6125C19.4404 47.1458 19.5604 47.5725 19.8538 47.7325L22.4138 49.0925C22.6804 49.2392 23.1338 49.1192 23.4538 48.5858C23.6004 48.2925 23.6404 47.6125 23.3604 47.4658C23.0804 47.3192 23.2271 47.0392 23.4004 46.7725L26.2538 41.8792" fill="#FF1900"/>
<path d="M24.2671 40.8125L21.4004 45.7058C21.2404 45.9725 21.0804 46.2392 20.8004 46.1058C20.5204 45.9458 19.9204 46.3325 19.7604 46.6125C19.4404 47.1458 19.5604 47.5725 19.8538 47.7325L22.4138 49.0925C22.6804 49.2392 23.1338 49.1192 23.4538 48.5858C23.6004 48.2925 23.6404 47.6125 23.3604 47.4658C23.0804 47.3192 23.2271 47.0392 23.4004 46.7725L26.2538 41.8792" stroke="black" stroke-width="0.0933333"/>
<path fill-rule="evenodd" clip-rule="evenodd" d="M33.4902 37.4142H30.8768C30.7968 37.4942 30.0502 42.1608 29.2502 43.9475C28.2768 46.1208 25.3568 48.0408 25.3568 48.0408C25.3568 48.0408 27.1035 48.5742 27.6235 48.9208C27.7568 48.8808 30.5568 48.2942 30.8768 44.8808C31.1968 48.2942 28.9302 49.8542 28.9302 49.8542C28.9302 49.8542 32.1835 50.7875 32.1835 52.9608C32.1835 50.7875 35.4368 49.8542 35.4368 49.8542C35.4368 49.8542 33.8102 48.2942 33.4768 44.8808C34.1435 48.2942 36.6102 48.8808 36.7435 48.9208C37.2635 48.5742 39.0102 48.0408 39.0102 48.0408C39.0102 48.0408 36.0902 46.1208 35.1168 43.9475C34.3168 42.1608 33.5702 37.4942 33.4902 37.4142ZM22.4235 21.8542L27.3035 23.4142C28.9168 23.4142 30.5568 21.8542 30.5568 20.2942C30.6102 16.8275 29.2502 15.6275 28.9302 15.6275L29.5702 15.0142L28.5968 14.0808C28.5968 14.0808 28.9302 12.4675 32.1835 12.5208C35.4368 12.5875 35.4368 14.0808 35.4368 15.6275C35.4368 17.1742 33.8102 17.1875 33.8102 20.2942C33.8102 21.8542 35.4368 23.4142 37.0635 23.4142L41.9435 21.8542V37.4142H22.4102L22.4235 21.8542Z" fill="#A77B3B" stroke="black" stroke-width="0.226667"/>
<path d="M29.9023 22.4766L30.2269 23.412L30.5537 22.4766L30.8782 23.412L31.5295 22.4766L31.8474 23.4619L32.1809 22.4766L32.661 23.4619L33.1567 22.4766L33.4813 23.412L33.808 22.4766" stroke="black" stroke-width="0.0186166"/>
<path d="M31.207 19.0586L30.5547 22.4824M31.5285 19.0586V22.4824M32.1808 19.0586V22.4824M32.8331 19.0586L33.1547 22.4824M33.4854 19.0586L33.807 22.4824" stroke="black" stroke-width="0.0179618"/>
<path fill-rule="evenodd" clip-rule="evenodd" d="M19.1553 12.5273C15.903 14.0812 15.903 17.1978 15.903 18.7517C16.0132 20.1651 15.903 49.8559 15.903 49.8559C15.903 49.8559 16.1143 48.1001 17.5292 46.7481L19.1461 45.1943L20.7723 43.6404C21.9666 42.6044 22.3984 40.5238 22.3984 38.9699V17.1978C22.3984 17.1978 22.3984 15.6351 19.1461 12.5273H19.1553Z" fill="#A77B3B" stroke="black" stroke-width="0.224522"/>
<path d="M22.4062 18.7531C22.3695 18.7531 20.7801 17.1992 20.7801 17.1992L19.1539 18.7531L17.5278 17.1992L15.9016 18.7531" stroke="black" stroke-width="0.224522"/>
<path d="M22.4062 20.3016C22.3695 20.3016 20.7801 21.8555 20.7801 21.8555L19.1539 20.3016L17.5278 21.8555L15.9016 20.3016" stroke="black" stroke-width="0.224522"/>
<path d="M22.4062 24.9641C22.3695 24.9641 20.7801 23.4102 20.7801 23.4102L19.1539 24.9641L17.5278 23.4102L15.9016 24.9641" stroke="black" stroke-width="0.224522"/>
<path d="M20.7629 17.1953L20.7812 43.6431" stroke="black" stroke-width="0.309246"/>
<path d="M19.1613 18.75L19.1797 45.1335" stroke="black" stroke-width="0.292973"/>
<path d="M17.5363 17.1992L17.5547 46.7547" stroke="black" stroke-width="0.310086"/>
<path fill-rule="evenodd" clip-rule="evenodd" d="M45.2041 12.5273C48.4564 14.0812 48.4564 17.1978 48.4564 18.7517C48.3461 20.1651 48.4564 49.8559 48.4564 49.8559C48.4564 49.8559 48.2451 48.1001 46.8302 46.7481L45.2133 45.1943L43.5871 43.6404C42.3927 42.6044 41.9609 40.5238 41.9609 38.9699V17.1978C41.9609 17.1978 41.9609 15.6351 45.2133 12.5273H45.2041Z" fill="#A77B3B" stroke="black" stroke-width="0.224522"/>
<path d="M41.9531 18.7531C41.9899 18.7531 43.5793 17.1992 43.5793 17.1992L45.2054 18.7531L46.8316 17.1992L48.4578 18.7531" stroke="black" stroke-width="0.224522"/>
<path d="M41.9531 20.3016C41.9899 20.3016 43.5793 21.8555 43.5793 21.8555L45.2054 20.3016L46.8316 21.8555L48.4578 20.3016" stroke="black" stroke-width="0.224522"/>
<path d="M41.9531 24.9641C41.9899 24.9641 43.5793 23.4102 43.5793 23.4102L45.2054 24.9641L46.8316 23.4102L48.4578 24.9641" stroke="black" stroke-width="0.224522"/>
<path d="M43.5965 17.1953L43.5781 43.6431" stroke="black" stroke-width="0.309246"/>
<path d="M45.2098 18.75L45.1914 45.1335" stroke="black" stroke-width="0.292973"/>
<path d="M46.8387 17.1992L46.8203 46.7547" stroke="black" stroke-width="0.310086"/>
<path fill-rule="evenodd" clip-rule="evenodd" d="M27.9028 40.3838C27.0406 42.3611 25.5233 43.6496 24.5311 43.2545C23.5388 42.8595 23.4279 40.9227 24.2901 38.9454C25.1523 36.9681 26.6781 35.683 27.6703 36.078C28.6626 36.4731 28.7771 38.4017 27.9113 40.3871L27.9028 40.3838Z" fill="#A77B3B" stroke="black" stroke-width="0.22458"/>
<path fill-rule="evenodd" clip-rule="evenodd" d="M22.4102 23.4141H41.9435V32.7474H22.4102V23.4141Z" fill="#FF0000"/>
<path fill-rule="evenodd" clip-rule="evenodd" d="M22.4118 32.7461H41.9451V37.4128C41.9451 40.5194 37.0651 40.5194 32.1851 43.6261C27.2918 40.5328 22.3984 40.5328 22.3984 37.4128L22.4118 32.7461Z" fill="#564DFF"/>
<path d="M22.418 23.4141H41.9502V37.4255C41.9502 40.5332 37.0718 40.5332 32.1841 43.6498C27.3056 40.5332 22.418 40.5332 22.418 37.4167V23.4228V23.4141Z" stroke="#FFFF00" stroke-width="0.179618"/>
<path fill-rule="evenodd" clip-rule="evenodd" d="M28.5979 24.0352C28.5979 24.0352 25.3438 26.323 25.3438 28.5119C25.3438 30.7009 28.7587 31.4346 28.7587 31.4346C28.7587 31.4346 27.6204 31.4346 27.6204 34.3532C27.6204 35.8166 31.0354 35.087 31.0354 35.8166C31.0354 36.5462 30.9903 38.3106 31.0354 39.4689C31.0354 40.1986 28.7587 39.4689 28.7587 40.1986C28.7587 40.5613 30.4694 42.3875 32.1801 42.3875C33.8908 42.3875 35.5951 40.5613 35.5951 40.1986C35.5951 39.4689 33.3184 40.1986 33.3184 39.4689V35.8166C33.3184 35.087 36.7334 35.8166 36.7334 34.3532C36.7334 31.4346 35.5951 31.4346 35.5951 31.4346C35.5951 31.4346 39.0165 30.705 39.0165 28.5119C39.0165 26.3189 35.7559 24.0352 35.7559 24.0352C35.7559 24.0352 37.5888 27.0527 37.5888 28.5119C37.5888 29.2416 36.7334 30.705 34.4568 30.705C34.4568 30.705 33.878 29.9712 33.3184 30.705C33.3184 30.705 32.6625 29.9712 32.1801 30.705C32.0129 30.9523 31.7171 29.9712 31.0354 30.705C30.7524 30.8987 30.5209 29.9712 29.897 30.705C28.7587 30.705 26.4821 29.9712 26.4821 28.5119C26.4821 27.0527 28.5979 24.0352 28.5979 24.0352Z" fill="#FFFF00" stroke="black" stroke-width="0.128722"/>
<path fill-rule="evenodd" clip-rule="evenodd" d="M28.6634 37.1023C28.4318 37.2507 28.9592 39.6293 29.1135 39.7323C29.3451 39.8766 30.7149 39.8766 30.94 39.7323C31.1008 39.6293 30.94 37.395 30.7149 37.2507C30.4834 37.1023 28.8241 37.0034 28.6569 37.1023H28.6634Z" fill="#FFFF00" stroke="black" stroke-width="0.128722"/>
<path fill-rule="evenodd" clip-rule="evenodd" d="M35.7077 37.1023C35.9393 37.2507 35.4119 39.6293 35.2575 39.7323C35.026 39.8766 33.6562 39.8766 33.4311 39.7323C33.2703 39.6293 33.4311 37.395 33.6562 37.2507C33.8877 37.1023 35.547 37.0034 35.7142 37.1023H35.7077Z" fill="#FFFF00" stroke="black" stroke-width="0.128722"/>
<path fill-rule="evenodd" clip-rule="evenodd" d="M31.0061 36.2363C31.0061 36.4544 30.8815 36.6635 30.6597 36.8177C30.4379 36.9719 30.137 37.0585 29.8233 37.0585C29.5097 37.0585 29.2088 36.9719 28.987 36.8177C28.7652 36.6635 28.6406 36.4544 28.6406 36.2363C28.6406 36.0182 28.7652 35.8091 28.987 35.6549C29.2088 35.5007 29.5097 35.4141 29.8233 35.4141C30.137 35.4141 30.4379 35.5007 30.6597 35.6549C30.8815 35.8091 31.0061 36.0182 31.0061 36.2363Z" fill="#FFFF00" stroke="black" stroke-width="0.154084"/>
<path fill-rule="evenodd" clip-rule="evenodd" d="M35.7131 36.2363C35.7131 36.4544 35.5885 36.6635 35.3667 36.8177C35.1449 36.9719 34.8441 37.0586 34.5304 37.0586C34.2167 37.0586 33.9159 36.9719 33.6941 36.8177C33.4723 36.6635 33.3477 36.4544 33.3477 36.2363C33.3477 36.0182 33.4723 35.8091 33.6941 35.6549C33.9159 35.5007 34.2167 35.4141 34.5304 35.4141C34.8441 35.4141 35.1449 35.5007 35.3667 35.6549C35.5885 35.8091 35.7131 36.0182 35.7131 36.2363Z" fill="#FFFF00" stroke="black" stroke-width="0.154087"/>
<path fill-rule="evenodd" clip-rule="evenodd" d="M34.2395 41.0006C34.2395 41.2006 33.9728 41.3606 33.6661 41.3606C33.3461 41.3606 33.0928 41.2006 33.0928 41.0006C33.0928 40.8006 33.3595 40.6406 33.6661 40.6406C33.9728 40.6406 34.2395 40.8006 34.2395 41.0006ZM31.2661 41.0006C31.2661 41.2006 31.0128 41.3606 30.7061 41.3606C30.3861 41.3606 30.1328 41.2006 30.1328 41.0006C30.1328 40.8006 30.3861 40.6406 30.7061 40.6406C31.0128 40.6406 31.2661 40.8006 31.2661 41.0006Z" fill="black"/>
<path fill-rule="evenodd" clip-rule="evenodd" d="M32.1825 29.3324L31.4834 28.4503L30.3361 28.5959L30.4974 27.4996L29.5742 26.8401L30.4974 26.172L30.3361 25.0757L31.4834 25.2298L32.1825 24.3477L32.8817 25.2298L34.02 25.0757L33.8677 26.172L34.7819 26.8401L33.8677 27.5081L34.02 28.5959L32.8727 28.4503L32.1825 29.3324Z" fill="#FFFF00" stroke="black" stroke-width="0.0963806"/>
<path fill-rule="evenodd" clip-rule="evenodd" d="M37.0625 32.747L39.0194 33.6864L40.9763 32.747L39.0194 31.8164L37.0625 32.747Z" fill="#FFFF00" stroke="black" stroke-width="0.0987897"/>
<path fill-rule="evenodd" clip-rule="evenodd" d="M23.0625 32.747L25.0194 33.6864L26.9763 32.747L25.0194 31.8164L23.0625 32.747Z" fill="#FFFF00" stroke="black" stroke-width="0.0987897"/>
<path fill-rule="evenodd" clip-rule="evenodd" d="M40.0826 38.3105C39.4834 37.9306 38.4742 38.12 37.9085 38.4304C37.3429 38.7408 36.7772 39.0512 36.7011 40.1762C36.0514 39.0952 36.5631 38.0956 37.4235 37.6235C37.8798 37.4091 38.4024 37.3614 38.8929 37.4893C39.3834 37.6172 39.8081 37.912 40.0871 38.3181L40.0826 38.3105Z" fill="#FFFF00" stroke="black" stroke-width="0.0988281"/>
<path fill-rule="evenodd" clip-rule="evenodd" d="M26.6392 36.4783C26.6392 36.6424 26.5709 36.7999 26.4495 36.9159C26.328 37.032 26.1632 37.0972 25.9915 37.0972C25.8197 37.0972 25.6549 37.032 25.5335 36.9159C25.412 36.7999 25.3438 36.6424 25.3438 36.4783C25.3438 36.3141 25.412 36.1567 25.5335 36.0407C25.6549 35.9246 25.8197 35.8594 25.9915 35.8594C26.1632 35.8594 26.328 35.9246 26.4495 36.0407C26.5709 36.1567 26.6392 36.3141 26.6392 36.4783Z" fill="#FFFF00" stroke="black" stroke-width="0.0987897"/>
<path fill-rule="evenodd" clip-rule="evenodd" d="M25.9868 38.6541C25.9868 38.8182 25.9186 38.9757 25.7971 39.0917C25.6756 39.2078 25.5109 39.273 25.3391 39.273C25.1673 39.273 25.0026 39.2078 24.8811 39.0917C24.7596 38.9757 24.6914 38.8182 24.6914 38.6541C24.6914 38.4899 24.7596 38.3325 24.8811 38.2164C25.0026 38.1004 25.1673 38.0352 25.3391 38.0352C25.5109 38.0352 25.6756 38.1004 25.7971 38.2164C25.9186 38.3325 25.9868 38.4899 25.9868 38.6541Z" fill="#FFFF00" stroke="black" stroke-width="0.0987897"/>
<path fill-rule="evenodd" clip-rule="evenodd" d="M25.6665 37.4119C25.6665 37.576 25.5983 37.7335 25.4768 37.8495C25.3553 37.9656 25.1906 38.0308 25.0188 38.0308C24.847 38.0308 24.6823 37.9656 24.5608 37.8495C24.4393 37.7335 24.3711 37.576 24.3711 37.4119C24.3711 37.2477 24.4393 37.0903 24.5608 36.9742C24.6823 36.8582 24.847 36.793 25.0188 36.793C25.1906 36.793 25.3553 36.8582 25.4768 36.9742C25.5983 37.0903 25.6665 37.2477 25.6665 37.4119Z" fill="#FFFF00" stroke="black" stroke-width="0.0987897"/>
<path fill-rule="evenodd" clip-rule="evenodd" d="M27.2954 38.6541C27.2954 38.8182 27.2272 38.9757 27.1057 39.0917C26.9842 39.2078 26.8195 39.273 26.6477 39.273C26.4759 39.273 26.3112 39.2078 26.1897 39.0917C26.0682 38.9757 26 38.8182 26 38.6541C26 38.4899 26.0682 38.3325 26.1897 38.2164C26.3112 38.1004 26.4759 38.0352 26.6477 38.0352C26.8195 38.0352 26.9842 38.1004 27.1057 38.2164C27.2272 38.3325 27.2954 38.4899 27.2954 38.6541Z" fill="#FFFF00" stroke="black" stroke-width="0.0987897"/>
<path fill-rule="evenodd" clip-rule="evenodd" d="M27.6118 37.4119C27.6118 37.576 27.5436 37.7335 27.4221 37.8495C27.3006 37.9656 27.1359 38.0308 26.9641 38.0308C26.7923 38.0308 26.6276 37.9656 26.5061 37.8495C26.3846 37.7335 26.3164 37.576 26.3164 37.4119C26.3164 37.2477 26.3846 37.0903 26.5061 36.9742C26.6276 36.8582 26.7923 36.793 26.9641 36.793C27.1359 36.793 27.3006 36.8582 27.4221 36.9742C27.5436 37.0903 27.6118 37.2477 27.6118 37.4119Z" fill="#FFFF00" stroke="black" stroke-width="0.0987897"/>
<path fill-rule="evenodd" clip-rule="evenodd" d="M26.6392 37.7205C26.6392 37.8846 26.5709 38.0421 26.4495 38.1581C26.328 38.2742 26.1632 38.3394 25.9915 38.3394C25.8197 38.3394 25.6549 38.2742 25.5335 38.1581C25.412 38.0421 25.3438 37.8846 25.3438 37.7205C25.3438 37.5563 25.412 37.3989 25.5335 37.2828C25.6549 37.1668 25.8197 37.1016 25.9915 37.1016C26.1632 37.1016 26.328 37.1668 26.4495 37.2828C26.5709 37.3989 26.6392 37.5563 26.6392 37.7205Z" fill="#FFFF00" stroke="black" stroke-width="0.0987897"/>
<path fill-rule="evenodd" clip-rule="evenodd" d="M29.0391 16.0517C27.3858 16.0517 27.1724 16.3184 26.4258 16.5717C26.4258 15.8517 28.2658 15.0117 29.8924 15.0117C29.8924 15.5317 29.4658 16.0517 29.0391 16.0517Z" fill="#DA4500"/>
<path fill-rule="evenodd" clip-rule="evenodd" d="M31.5332 14.4001C31.5332 14.7334 31.2399 15.0134 30.8799 15.0134C30.5199 15.0134 30.2266 14.7334 30.2266 14.3868C30.2266 14.0401 30.5199 13.7734 30.8799 13.7734C31.2399 13.7734 31.5332 14.0401 31.5332 14.3868V14.4001Z" fill="#CAC9C7"/>
<path fill-rule="evenodd" clip-rule="evenodd" d="M24.6953 12.2193V13.1499H26.3215V17.8115H27.3045V13.1499H28.9307V12.2193H27.3045V10.9727H26.3123V12.2193H24.6953Z" fill="#FFFF00" stroke="black" stroke-width="0.0987897"/>
<path fill-rule="evenodd" clip-rule="evenodd" d="M29.9067 15.0131C28.5833 14.9375 27.2575 15.114 26 15.5331C26 14.5731 27.12 13.4531 29.04 13.4531C29.4667 13.4531 29.9067 14.4931 29.9067 15.0131Z" fill="#DA4500"/>
<path fill-rule="evenodd" clip-rule="evenodd" d="M12.9645 31.5314C12.4959 30.5214 12.5068 30.1991 13.3403 31.3547L23.3809 50.3898L23.0736 50.4765L12.9696 31.5354L12.9645 31.5314Z" fill="#008500" stroke="black" stroke-width="0.0342439"/>
<path fill-rule="evenodd" clip-rule="evenodd" d="M19.7842 44.0538C19.8909 42.6405 17.3042 41.1205 17.1975 41.2138C17.1042 41.3205 17.3575 42.1471 17.8509 42.5605C16.9175 42.0805 15.9309 41.7871 15.9042 41.9871C15.8242 42.2805 17.3709 42.9471 17.5042 43.2138C17.5042 43.4005 16.3575 43.3738 16.3842 43.5605C16.4109 43.7471 19.6242 45.3738 19.7842 44.0538ZM17.1975 39.9471C17.3042 38.5338 14.7175 37.0138 14.6242 37.1071C14.5175 37.2005 14.7709 38.0271 15.2642 38.4538C14.3309 37.9738 13.3442 37.6671 13.3175 37.8805C13.2509 38.1605 14.7842 38.8405 14.9175 39.1071C14.9309 39.2938 13.7842 39.2671 13.7975 39.4538C13.8242 39.6405 17.0375 41.2538 17.1975 39.9471ZM15.2242 36.2138C15.3309 34.8005 12.7442 33.2805 12.6375 33.3738C12.5442 33.4671 12.7975 34.2938 13.2909 34.7205C12.3575 34.2405 11.3709 33.9338 11.3442 34.1471C11.2775 34.4271 12.8109 35.1071 12.9442 35.3738C12.9442 35.5605 11.8109 35.5338 11.8242 35.7205C11.8509 35.9071 15.0642 37.5338 15.2242 36.2138ZM13.2775 32.1605C13.3709 30.7605 10.7975 29.2271 10.6909 29.3205C10.5842 29.4271 10.8509 30.2538 11.3309 30.6805C10.3975 30.1871 9.41086 29.8938 9.39753 30.1071C9.31753 30.3871 10.8642 31.0671 10.9842 31.3205C10.9975 31.5071 9.85086 31.4938 9.87753 31.6805C9.89086 31.8671 13.1042 33.4805 13.2775 32.1605Z" fill="#008F00"/>
<path fill-rule="evenodd" clip-rule="evenodd" d="M13.9425 31.9873C15.1958 31.2273 14.9425 28.334 14.8092 28.3073C14.6625 28.294 14.1158 28.974 14.0492 29.614C13.9025 28.6006 13.5692 27.6673 13.3825 27.774C13.1025 27.8806 13.4358 29.4673 13.2892 29.7206C13.1558 29.854 12.4892 28.9473 12.3558 29.0806C12.1958 29.214 12.7292 32.6406 13.9558 31.9873H13.9425ZM15.7558 35.534C17.1958 35.214 17.9825 32.414 17.8491 32.3473C17.7158 32.2806 16.9692 32.7473 16.6892 33.334C16.9025 32.334 16.9158 31.3473 16.6892 31.3873C16.3825 31.4006 16.1558 33.0006 15.9292 33.1873C15.7558 33.2673 15.4358 32.214 15.2625 32.2806C15.0758 32.3606 14.3825 35.7606 15.7558 35.534ZM17.9158 39.1606C19.2358 38.5206 19.2491 35.614 19.1158 35.5873C18.9825 35.5473 18.3825 36.1873 18.2491 36.814C18.1958 35.7873 17.9558 34.8406 17.7558 34.934C17.4625 35.014 17.6492 36.614 17.4892 36.854C17.3292 36.974 16.7558 36.014 16.5958 36.134C16.4358 36.2406 16.6492 39.7073 17.9292 39.1606H17.9158ZM20.2625 43.9073C21.6358 43.3873 21.9692 40.5073 21.8358 40.454C21.7025 40.414 21.0358 40.9873 20.8358 41.6006C20.8892 40.574 20.7558 39.6006 20.5425 39.6806C20.2358 39.734 20.2625 41.3473 20.0758 41.574C19.9025 41.6673 19.4358 40.6673 19.2758 40.774C19.1025 40.854 18.9425 44.334 20.2625 43.9073Z" fill="#008F00"/>
<path fill-rule="evenodd" clip-rule="evenodd" d="M23.2885 48.854C22.9391 49.4519 21.8343 49.5059 20.8075 48.9581C19.7807 48.4104 19.2491 47.4832 19.5984 46.8854C19.9477 46.2875 21.0606 46.2377 22.0794 46.7812C23.0982 47.3247 23.6378 48.2561 23.2885 48.854Z" fill="#FF1900" stroke="black" stroke-width="0.0988273"/>
<path fill-rule="evenodd" clip-rule="evenodd" d="M49.8027 28.8259L49.9756 28.3798L50.4412 28.5264L50.614 28.0802L51.0797 28.2268L50.9092 28.6667L51.3881 28.8175L51.2129 29.27L50.7339 29.1192L50.303 30.2314L49.8374 30.0848L50.2683 28.9725L49.8027 28.8259ZM48.8027 32.7555L49.2683 32.9021L44.265 45.8158L43.7994 45.6691L48.8027 32.7555Z" fill="#FFFF00" stroke="black" stroke-width="0.0342769"/>
<path fill-rule="evenodd" clip-rule="evenodd" d="M43.6451 45.3746L44.5896 45.672L43.2092 49.2351L42.2646 48.9376L43.6451 45.3746ZM49.1988 30.3852L50.6156 30.8313C51.5535 31.1267 49.4266 33.2067 49.4266 33.2067L48.4888 32.9113C48.4888 32.9113 48.2543 30.0877 49.1988 30.3852ZM50.501 30.4145C50.4279 30.603 50.1633 30.6889 49.9039 30.6072C49.6445 30.5255 49.4901 30.3077 49.5607 30.1254C49.6313 29.9432 49.8983 29.851 50.1578 29.9327C50.4172 30.0144 50.5716 30.2323 50.4985 30.4208L50.501 30.4145Z" fill="#FFFF00" stroke="black" stroke-width="0.0342769"/>
<path fill-rule="evenodd" clip-rule="evenodd" d="M44.4002 47.2274C44.7959 47.7983 44.3392 48.7612 43.3588 49.3817C42.3783 50.0022 41.2723 50.0282 40.8766 49.4573C40.4809 48.8864 40.9452 47.9187 41.918 47.303C42.8908 46.6874 44.0045 46.6565 44.4002 47.2274Z" fill="#FF1900" stroke="black" stroke-width="0.0988336"/>
</g>
</g>
</g>
<defs>
<clipPath id="clip0_423_11725">
<rect width="64" height="64" rx="32" fill="white"/>
</clipPath>
<clipPath id="clip1_423_11725">
<rect width="64" height="64" fill="white"/>
</clipPath>
<clipPath id="clip2_423_11725">
<rect width="85.3333" height="64" fill="white" transform="translate(-10.668)"/>
</clipPath>
</defs>
</svg>
