<svg width="64" height="64" viewBox="0 0 64 64" fill="none" xmlns="http://www.w3.org/2000/svg">
<g clip-path="url(#clip0_423_11794)">
<g clip-path="url(#clip1_423_11794)">
<g clip-path="url(#clip2_423_11794)">
<path d="M-10.668 0H74.6654V64H-10.668V0Z" fill="#DA2032"/>
<path d="M17.7734 0H46.2268V64H17.7734V0Z" fill="#0066B3"/>
<path d="M3.5599 29.5729C6.50541 29.5729 8.89323 27.1851 8.89323 24.2396C8.89323 21.2941 6.50541 18.9062 3.5599 18.9062C0.614377 18.9062 -1.77344 21.2941 -1.77344 24.2396C-1.77344 27.1851 0.614377 29.5729 3.5599 29.5729Z" fill="#FFD900"/>
<path d="M3.55943 27.6267C6.77004 27.6267 9.37276 25.0239 9.37276 21.8133C9.37276 18.6027 6.77004 16 3.55943 16C0.348811 16 -2.25391 18.6027 -2.25391 21.8133C-2.25391 25.0239 0.348811 27.6267 3.55943 27.6267Z" fill="#DA2032"/>
<path d="M3.55969 26.6663C5.70255 26.6663 7.43969 24.9291 7.43969 22.7862C7.43969 20.6434 5.70255 18.9062 3.55969 18.9062C1.41682 18.9062 -0.320312 20.6434 -0.320312 22.7862C-0.320312 24.9291 1.41682 26.6663 3.55969 26.6663Z" fill="#FFD900"/>
<path d="M3.95729 10.1875C3.76045 10.2736 3.5914 10.4127 3.46898 10.5893C3.34656 10.7659 3.27558 10.973 3.26396 11.1875C3.23729 11.5208 3.38396 11.8942 3.39729 12.2142C3.39729 12.7742 2.82396 12.9608 2.82396 13.7475C2.82396 14.0142 3.07729 14.3208 3.07729 15.0275C3.02396 15.4008 2.81063 15.4942 2.58396 15.5208C2.51979 15.5209 2.45626 15.508 2.39714 15.4831C2.33802 15.4581 2.2845 15.4216 2.23974 15.3756C2.19499 15.3296 2.15992 15.2751 2.1366 15.2153C2.11327 15.1555 2.10218 15.0916 2.10396 15.0275C2.10361 14.9033 2.15141 14.7838 2.23729 14.6942C2.25412 14.6796 2.27194 14.6662 2.29063 14.6542C2.39729 14.5342 2.55729 14.4942 2.55729 14.2008C2.55729 14.0542 2.45063 13.9075 2.35729 13.6408C2.26396 13.3742 2.33062 12.9475 2.54396 12.6942C2.19729 12.8275 1.99729 13.1475 1.87729 13.4408C1.77062 13.8008 1.87729 14.0008 1.71729 14.3075C1.62396 14.4942 1.51729 14.5742 1.41063 14.7342C1.27729 14.9208 1.14396 15.3208 1.14396 15.5208C1.18933 16.1316 1.46398 16.7027 1.91282 17.1194C2.36166 17.5361 2.95148 17.7677 3.56396 17.7677C4.17644 17.7677 4.76626 17.5361 5.2151 17.1194C5.66394 16.7027 5.93859 16.1316 5.98396 15.5208C5.98396 15.3208 5.83729 14.9208 5.71729 14.7342C5.59729 14.5742 5.49063 14.4942 5.39729 14.3075C5.23729 14.0008 5.34396 13.8008 5.22396 13.4408C5.11729 13.1475 4.91729 12.8275 4.57063 12.6942C4.78396 12.9608 4.83729 13.3875 4.75729 13.6408C4.66396 13.9075 4.57063 14.0408 4.57063 14.2008C4.57063 14.4942 4.71729 14.5342 4.83729 14.6542C4.8514 14.6667 4.86476 14.6801 4.87729 14.6942C4.96318 14.7838 5.01097 14.9033 5.01062 15.0275C5.01241 15.0916 5.00131 15.1555 4.97799 15.2153C4.95466 15.2751 4.91959 15.3296 4.87484 15.3756C4.83009 15.4216 4.77657 15.4581 4.71745 15.4831C4.65832 15.508 4.5948 15.5209 4.53063 15.5208C4.26396 15.4808 4.06396 15.3608 4.03729 15.0275C4.03729 14.0942 4.43729 14.0408 4.43729 13.3475C4.43729 12.3608 3.55729 11.8942 3.55729 11.1742C3.55729 10.9342 3.61063 10.5075 3.95729 10.1875ZM-7.10938 30.5342H-2.26937V53.8008H-7.10938V30.5342ZM9.37063 30.5342H14.224V53.8008H9.37063V30.5342ZM-1.29604 30.5342H8.39729L3.55729 33.4408L-1.29604 30.5342ZM-1.29604 34.4008H8.39729V36.3475H-1.29604V34.4008ZM-1.29604 47.9875H8.39729V49.9342H-1.29604V47.9875ZM-1.29604 50.8942H8.39729L3.55729 53.8008L-1.29604 50.8942Z" fill="#FFD900"/>
<path d="M3.56036 47.0387C6.24079 47.0387 8.4137 44.8658 8.4137 42.1854C8.4137 39.5049 6.24079 37.332 3.56036 37.332C0.879942 37.332 -1.29297 39.5049 -1.29297 42.1854C-1.29297 44.8658 0.879942 47.0387 3.56036 47.0387Z" fill="#FFD900"/>
<path d="M3.55172 40.5761C4.08727 40.5761 4.52142 40.142 4.52142 39.6064C4.52142 39.0709 4.08727 38.6367 3.55172 38.6367C3.01618 38.6367 2.58203 39.0709 2.58203 39.6064C2.58203 40.142 3.01618 40.5761 3.55172 40.5761Z" fill="#DA2032"/>
<path d="M3.55172 45.7167C4.08727 45.7167 4.52142 45.2826 4.52142 44.747C4.52142 44.2115 4.08727 43.7773 3.55172 43.7773C3.01618 43.7773 2.58203 44.2115 2.58203 44.747C2.58203 45.2826 3.01618 45.7167 3.55172 45.7167Z" fill="#DA2032"/>
<path d="M3.552 36.7461C4.31068 36.7461 5.03828 37.0475 5.57475 37.5839C6.11121 38.1204 6.4126 38.848 6.4126 39.6067C6.4126 40.3654 6.11121 41.093 5.57475 41.6294C5.03828 42.1659 4.31068 42.4673 3.552 42.4673C2.94763 42.4673 2.36802 42.7074 1.94066 43.1347C1.51331 43.5621 1.27322 44.1417 1.27322 44.7461C1.27322 45.3504 1.51331 45.93 1.94066 46.3574C2.36802 46.7848 2.94763 47.0248 3.552 47.0248V47.6067C2.79332 47.6067 2.06572 47.3053 1.52926 46.7688C0.99279 46.2323 0.691406 45.5047 0.691406 44.7461C0.691406 43.9874 0.99279 43.2598 1.52926 42.7233C2.06572 42.1869 2.79332 41.8855 3.552 41.8855C4.15637 41.8855 4.73599 41.6454 5.16334 41.218C5.5907 40.7907 5.83078 40.2111 5.83078 39.6067C5.83078 39.0023 5.5907 38.4227 5.16334 37.9953C4.73599 37.568 4.15637 37.3279 3.552 37.3279V36.7461Z" fill="#DA2032"/>
</g>
</g>
</g>
<defs>
<clipPath id="clip0_423_11794">
<rect width="64" height="64" rx="32" fill="white"/>
</clipPath>
<clipPath id="clip1_423_11794">
<rect width="64" height="64" fill="white"/>
</clipPath>
<clipPath id="clip2_423_11794">
<rect width="85.3333" height="64" fill="white" transform="translate(-10.668)"/>
</clipPath>
</defs>
</svg>
