<svg width="64" height="64" viewBox="0 0 64 64" fill="none" xmlns="http://www.w3.org/2000/svg">
<g clip-path="url(#clip0_423_11225)">
<g clip-path="url(#clip1_423_11225)">
<g clip-path="url(#clip2_423_11225)">
<path d="M-10.668 0H74.6654V64H-10.668V0Z" fill="#00785E"/>
<path d="M28.6641 14.4931L34.0641 18.4264L31.9974 12.0664L29.9307 18.4264L35.3441 14.4931H28.6641Z" fill="#FBD116"/>
<path d="M31.9976 44.2138H18.3309C18.1587 44.0392 17.9897 43.8614 17.8242 43.6805H31.9976C32.0526 43.6999 32.1001 43.7361 32.1336 43.7839C32.1671 43.8317 32.1848 43.8888 32.1842 43.9471C32.1842 44.0538 32.1176 44.1738 31.9976 44.2138ZM31.9976 40.0405C32.1519 39.7266 32.2077 39.3733 32.1576 39.0271C32.1319 38.8507 32.0779 38.6796 31.9976 38.5205C30.7691 39.6895 29.2856 40.5568 27.6642 41.0538C26.6484 41.3625 25.5926 41.5198 24.5309 41.5205H16.1176C16.3631 41.8847 16.621 42.2405 16.8909 42.5871H25.0242C27.6909 42.5871 30.1176 41.6271 31.9976 40.0405ZM17.3842 36.7471C16.9694 36.902 16.5331 36.9919 16.0909 37.0138C17.1042 38.1657 18.3513 39.0885 19.7491 39.7207C21.1469 40.353 22.6634 40.6801 24.1976 40.6805C25.6555 40.6808 27.0983 40.3856 28.439 39.8127C29.7796 39.2398 30.9902 38.401 31.9976 37.3471C32.3723 34.7501 32.5727 32.1309 32.5976 29.5071C32.6297 26.4873 32.4291 23.4695 31.9976 20.4805C31.1176 21.2805 29.4642 22.9738 28.6909 25.5871C28.4008 26.5878 28.2571 27.6253 28.2642 28.6671C28.2638 30.8042 28.8997 32.8929 30.0909 34.6671C28.6231 32.78 27.8256 30.4579 27.8242 28.0671C27.8242 26.4138 28.1976 24.8405 28.8642 23.4405C28.4002 22.9486 28.0578 22.355 27.8642 21.7071C26.9422 23.3331 26.4597 25.1713 26.4642 27.0405C26.4642 29.4405 27.2509 31.6671 28.5842 33.4538C27.3301 32.1359 25.8069 31.1037 24.1181 30.4272C22.4293 29.7508 20.6146 29.4461 18.7976 29.5338C19.166 29.8741 19.4727 30.2756 19.7042 30.7205C21.4145 30.7225 23.1066 31.0709 24.6786 31.7446C26.2506 32.4183 27.6699 33.4034 28.8509 34.6405C26.5714 32.7294 23.6921 31.6815 20.7176 31.6805C19.038 31.6773 17.3747 32.0082 15.8242 32.6538C16.6557 34.8521 18.18 36.7202 20.1668 37.9758C22.1537 39.2314 24.4951 39.8063 26.8376 39.6138C26.2109 39.7205 25.5709 39.7871 24.9176 39.7871C22.1106 39.7922 19.4125 38.7014 17.3976 36.7471H17.3842ZM31.9976 48.5871H24.9176C27.1709 49.4805 29.5736 49.9374 31.9976 49.9338C32.1074 49.7285 32.1668 49.5 32.1709 49.2671C32.169 49.0298 32.1095 48.7964 31.9976 48.5871ZM31.9976 45.3205H19.5176C19.8546 45.608 20.2014 45.8837 20.5576 46.1471H31.9976C32.1054 46.0362 32.1673 45.8885 32.1709 45.7338C32.1737 45.6565 32.1597 45.5794 32.1297 45.508C32.0998 45.4367 32.0547 45.3727 31.9976 45.3205ZM31.9976 46.9871H21.7709C22.3899 47.3791 23.031 47.7353 23.6909 48.0538H31.9976C32.1045 47.8868 32.1602 47.6921 32.1576 47.4938C32.1509 47.3136 32.0956 47.1385 31.9976 46.9871Z" fill="white"/>
<path d="M16.0625 23.307L19.4492 26.4536L18.5558 21.9203L16.6092 26.107L20.6492 23.867L16.0625 23.307ZM20.9825 19.0403L25.6092 19.1203L21.9158 16.3203L23.2625 20.7603L24.7692 16.3736L20.9825 19.0403Z" fill="#FBD116"/>
<path d="M31.9985 44.2138H45.6652C45.8374 44.0392 46.0064 43.8614 46.1719 43.6805H31.9985C31.9435 43.6999 31.8959 43.7361 31.8625 43.7839C31.829 43.8317 31.8113 43.8888 31.8119 43.9471C31.8119 44.0538 31.8785 44.1738 31.9985 44.2138ZM31.9985 40.0405C31.8442 39.7266 31.7884 39.3733 31.8385 39.0271C31.8642 38.8507 31.9182 38.6796 31.9985 38.5205C33.227 39.6895 34.7105 40.5568 36.3319 41.0538C37.3477 41.3625 38.4035 41.5198 39.4652 41.5205H47.8785C47.633 41.8847 47.3751 42.2405 47.1052 42.5871H38.9719C36.3052 42.5871 33.8785 41.6271 31.9985 40.0405ZM46.6119 36.7471C47.0267 36.902 47.463 36.9919 47.9052 37.0138C46.8919 38.1657 45.6448 39.0885 44.247 39.7207C42.8492 40.353 41.3327 40.6801 39.7985 40.6805C38.3406 40.6808 36.8978 40.3856 35.5571 39.8127C34.2165 39.2398 33.0059 38.401 31.9985 37.3471C31.6238 34.7501 31.4234 32.1309 31.3985 29.5071C31.3664 26.4873 31.567 23.4695 31.9985 20.4805C32.8785 21.2805 34.5319 22.9738 35.3052 25.5871C35.5953 26.5878 35.739 27.6253 35.7319 28.6671C35.7323 30.8042 35.0964 32.8929 33.9052 34.6671C35.373 32.78 36.1705 30.4579 36.1719 28.0671C36.1719 26.4138 35.7985 24.8405 35.1319 23.4405C35.5959 22.9486 35.9383 22.355 36.1319 21.7071C37.0539 23.3331 37.5364 25.1713 37.5319 27.0405C37.5319 29.4405 36.7452 31.6671 35.4119 33.4538C36.666 32.1359 38.1892 31.1037 39.878 30.4272C41.5668 29.7508 43.3814 29.4461 45.1985 29.5338C44.8301 29.8741 44.5234 30.2756 44.2919 30.7205C42.5816 30.7225 40.8895 31.0709 39.3175 31.7446C37.7455 32.4183 36.3262 33.4034 35.1452 34.6405C37.4247 32.7294 40.304 31.6815 43.2785 31.6805C44.9581 31.6773 46.6214 32.0082 48.1719 32.6538C47.3404 34.8521 45.8161 36.7202 43.8293 37.9758C41.8424 39.2314 39.501 39.8063 37.1585 39.6138C37.7852 39.7205 38.4252 39.7871 39.0785 39.7871C41.8855 39.7922 44.5836 38.7014 46.5985 36.7471H46.6119ZM31.9985 48.5871H39.0785C36.8252 49.4805 34.4225 49.9374 31.9985 49.9338C31.8887 49.7285 31.8292 49.5 31.8252 49.2671C31.8271 49.0298 31.8866 48.7964 31.9985 48.5871ZM31.9985 45.3205H44.4785C44.1415 45.608 43.7947 45.8837 43.4385 46.1471H31.9985C31.8907 46.0362 31.8288 45.8885 31.8252 45.7338C31.8224 45.6565 31.8364 45.5794 31.8663 45.508C31.8963 45.4367 31.9414 45.3727 31.9985 45.3205ZM31.9985 46.9871H42.2252C41.6061 47.3791 40.9651 47.7353 40.3052 48.0538H31.9985C31.8916 47.8868 31.8359 47.6921 31.8385 47.4938C31.8452 47.3136 31.9005 47.1385 31.9985 46.9871Z" fill="white"/>
<path d="M47.9336 23.307L44.5469 26.4536L45.4403 21.9203L47.3869 26.107L43.3469 23.867L47.9336 23.307ZM43.0136 19.0403L38.3869 19.1203L42.0803 16.3203L40.7336 20.7603L39.2269 16.3736L43.0136 19.0403Z" fill="#FBD116"/>
</g>
</g>
</g>
<defs>
<clipPath id="clip0_423_11225">
<rect width="64" height="64" rx="32" fill="white"/>
</clipPath>
<clipPath id="clip1_423_11225">
<rect width="64" height="64" fill="white"/>
</clipPath>
<clipPath id="clip2_423_11225">
<rect width="85.3333" height="64" fill="white" transform="translate(-10.668)"/>
</clipPath>
</defs>
</svg>
