<svg width="64" height="64" viewBox="0 0 64 64" fill="none" xmlns="http://www.w3.org/2000/svg">
<g clip-path="url(#clip0_423_11297)">
<g clip-path="url(#clip1_423_11297)">
<g clip-path="url(#clip2_423_11297)">
<path fill-rule="evenodd" clip-rule="evenodd" d="M32 0H74.6667V64H32V0Z" fill="#CE0000"/>
<path fill-rule="evenodd" clip-rule="evenodd" d="M-10.668 0H31.9987V64H-10.668V0Z" fill="white"/>
<path fill-rule="evenodd" clip-rule="evenodd" d="M10.0166 18.9117C10.0166 19.1035 9.82482 19.2314 9.59036 19.2314C9.33458 19.2314 9.16406 19.1035 9.16406 18.933C9.16406 18.7625 9.33458 18.6133 9.59036 18.6133C9.82482 18.6133 10.0166 18.7625 10.0166 18.933V18.9117Z" fill="#F1EEEE"/>
<path fill-rule="evenodd" clip-rule="evenodd" d="M-3.64453 17.4197V25.3488H4.30584C4.30584 26.6703 5.62735 27.9918 6.94886 27.9918V35.9209H14.8992V27.9918C16.2207 27.9918 17.5422 26.6703 17.5422 25.3488H25.4713V17.4197H17.5209C17.5209 16.0982 16.1994 14.7767 14.8779 14.7767V6.84766H6.94886V14.7767C5.60603 14.7767 4.28453 16.0982 4.28453 17.4197H-3.64453Z" fill="#CC0000"/>
<path fill-rule="evenodd" clip-rule="evenodd" d="M-3.36719 17.6736V25.0911H4.56187C4.56187 26.4127 5.88338 27.7342 7.20489 27.7342V35.6632H14.6011V27.7555C15.9226 27.7555 17.2441 26.434 17.2441 25.1125H25.1945V17.695H17.2654C17.2654 16.3734 15.9439 15.0519 14.6224 15.0519V7.10156H7.20489V15.0306C5.88338 15.0306 4.56187 16.3521 4.56187 17.6736H-3.36719Z" fill="#FFE600"/>
<path fill-rule="evenodd" clip-rule="evenodd" d="M-3.11328 17.951V24.8143H4.81577C4.81577 26.1358 6.13728 27.4573 7.45879 27.4573V35.3864H14.3434V27.4573C15.6649 27.4573 16.9864 26.1358 16.9864 24.8143H24.9155V17.951H16.9864C16.9864 16.6295 15.6649 15.308 14.3434 15.308V7.37891H7.45879V15.2866C6.13728 15.2866 4.81577 16.6082 4.81577 17.9297L-3.11328 17.951Z" fill="#707070"/>
<path fill-rule="evenodd" clip-rule="evenodd" d="M-2.83415 18.2088V24.5606H5.0949C5.0949 25.8821 6.41641 27.2036 7.73792 27.2036V35.1113H14.0684V27.1823C15.3899 27.1823 16.7114 25.8608 16.7114 24.5392H24.6405V18.1875H16.7114C16.7114 16.866 15.3899 15.5445 14.0684 15.5445V7.63672H7.73792V15.5658C6.41641 15.5658 5.0949 16.8873 5.0949 18.2088H-2.85547H-2.83415Z" fill="#A0A0A0"/>
<path fill-rule="evenodd" clip-rule="evenodd" d="M7.80223 14.9061C8.24983 15.375 7.88748 16.5047 6.94964 17.4425C6.01179 18.3804 4.90343 18.7214 4.43451 18.2951C3.96559 17.8049 4.34925 16.6752 5.28709 15.7374C6.22494 14.7995 7.3333 14.4585 7.80223 14.9061Z" fill="#D0D0D0"/>
<path fill-rule="evenodd" clip-rule="evenodd" d="M7.22823 15.4617C7.69715 15.9306 7.56926 16.8045 6.95114 17.4439C6.33301 18.0834 5.45911 18.1899 4.99019 17.721C4.52127 17.2521 4.64915 16.3782 5.26728 15.7601C5.8854 15.1419 6.75931 15.0141 7.22823 15.4617Z" fill="#808080"/>
<path fill-rule="evenodd" clip-rule="evenodd" d="M4.90234 16.8684L5.07286 16.6979L5.81887 17.0602L5.45652 16.3142L5.64836 16.1224L6.39437 17.6144L4.90234 16.8684ZM6.01071 15.76L6.22385 15.5469L7.33221 16.6979L7.14038 16.8684L6.01071 15.76Z" fill="#D0D0D0"/>
<path fill-rule="evenodd" clip-rule="evenodd" d="M17.3727 18.271C16.9038 18.7399 15.7741 18.3562 14.8575 17.4184C13.941 16.4805 13.536 15.3722 14.005 14.9033C14.4739 14.4343 15.6036 14.818 16.5414 15.7558C17.4793 16.6937 17.8203 17.8021 17.394 18.271H17.3727Z" fill="#D0D0D0"/>
<path fill-rule="evenodd" clip-rule="evenodd" d="M16.8187 17.7165C16.3497 18.1854 15.4758 18.0575 14.8577 17.4394C14.2396 16.8213 14.1117 15.9474 14.5593 15.4785C15.0282 15.0095 15.9235 15.1374 16.5416 15.7556C17.1597 16.3737 17.2876 17.2476 16.8187 17.7165Z" fill="#808080"/>
<path fill-rule="evenodd" clip-rule="evenodd" d="M15.4101 15.3711L15.6019 15.5629L15.2182 16.3089L15.9643 15.9253L16.1774 16.1384L14.6641 16.8631L15.4101 15.3711ZM16.5398 16.5008L16.7103 16.6713L15.6019 17.801L15.4101 17.6091L16.5398 16.5008Z" fill="#D0D0D0"/>
<path fill-rule="evenodd" clip-rule="evenodd" d="M14.0048 27.865C13.5359 27.3961 13.9196 26.2664 14.8574 25.3285C15.7953 24.3907 16.9036 24.0283 17.3725 24.4759C17.8415 24.9449 17.4578 26.0745 16.52 27.0124C15.5821 27.9502 14.4737 28.3126 14.0048 27.865Z" fill="#D0D0D0"/>
<path fill-rule="evenodd" clip-rule="evenodd" d="M14.58 27.2907C14.1111 26.8218 14.239 25.9479 14.8571 25.3298C15.4752 24.7117 16.3491 24.5838 16.8181 25.0527C17.287 25.5216 17.1591 26.3955 16.541 27.0136C15.9229 27.6318 15.049 27.7597 14.5587 27.2907H14.58Z" fill="#808080"/>
<path fill-rule="evenodd" clip-rule="evenodd" d="M16.9047 25.8827L16.7128 26.0959L15.9668 25.7122L16.3505 26.4582L16.1586 26.6287L15.4126 25.1367L16.9047 25.8827ZM15.8176 27.0124L15.6045 27.2042L14.4961 26.0746L14.6879 25.8827L15.8176 27.0124Z" fill="#D0D0D0"/>
<path fill-rule="evenodd" clip-rule="evenodd" d="M4.43324 24.4975C4.90216 24.0286 6.03184 24.4123 6.94837 25.3288C7.8649 26.2453 8.24857 27.3963 7.80096 27.8439C7.33204 28.3129 6.20236 27.9505 5.26451 27.0127C4.32667 26.0748 3.98563 24.9451 4.41193 24.4975H4.43324Z" fill="#D0D0D0"/>
<path fill-rule="evenodd" clip-rule="evenodd" d="M4.98628 25.0527C5.4552 24.5838 6.32911 24.7117 6.94723 25.3298C7.56536 25.9479 7.69324 26.8218 7.22432 27.2907C6.77671 27.7597 5.8815 27.6318 5.26337 27.0136C4.64525 26.3955 4.51736 25.5216 4.98628 25.0527Z" fill="#808080"/>
<path fill-rule="evenodd" clip-rule="evenodd" d="M6.39395 27.3947L6.20211 27.1816L6.58578 26.4569L5.83976 26.8192L5.62662 26.6274L7.13996 25.8814L6.39395 27.3734V27.3947ZM5.26427 26.265L5.09375 26.0732L6.20211 24.9648L6.39395 25.1354L5.26427 26.265Z" fill="#D0D0D0"/>
<path d="M16.4703 21.3907C16.4703 24.4496 13.9852 26.9415 10.917 26.9415C7.84891 26.9415 5.37109 24.457 5.37109 21.3907C5.37109 18.3243 7.8562 15.8398 10.9243 15.8398C13.9924 15.8398 16.4775 18.3243 16.4775 21.3907H16.4703Z" stroke="#707070" stroke-width="0.0983164"/>
<path d="M15.1244 21.3776C15.1244 23.7082 13.231 25.6068 10.8934 25.6068C8.55581 25.6068 6.66797 23.7139 6.66797 21.3776C6.66797 19.0413 8.56136 17.1484 10.899 17.1484C13.2365 17.1484 15.1299 19.0413 15.1299 21.3776H15.1244Z" stroke="#707070" stroke-width="0.0749074"/>
<path fill-rule="evenodd" clip-rule="evenodd" d="M9.06021 25.8797C9.06021 25.9504 9.03214 26.0181 8.98217 26.0681C8.93221 26.1181 8.86444 26.1461 8.79378 26.1461C8.72311 26.1461 8.65535 26.1181 8.60538 26.0681C8.55541 26.0181 8.52734 25.9504 8.52734 25.8797C8.52734 25.8091 8.55541 25.7413 8.60538 25.6913C8.65535 25.6414 8.72311 25.6133 8.79378 25.6133C8.86444 25.6133 8.93221 25.6414 8.98217 25.6913C9.03214 25.7413 9.06021 25.8091 9.06021 25.8797ZM13.2805 25.8797C13.2805 25.9504 13.2524 26.0181 13.2025 26.0681C13.1525 26.1181 13.0847 26.1461 13.0141 26.1461C12.9434 26.1461 12.8756 26.1181 12.8257 26.0681C12.7757 26.0181 12.7476 25.9504 12.7476 25.8797C12.7476 25.8091 12.7757 25.7413 12.8257 25.6913C12.8756 25.6414 12.9434 25.6133 13.0141 25.6133C13.0847 25.6133 13.1525 25.6414 13.2025 25.6913C13.2524 25.7413 13.2805 25.8091 13.2805 25.8797ZM10.7228 25.8797V26.1568H10.3817C10.0194 26.1568 10.0194 26.4339 10.3817 26.4339H10.7228V26.6897C10.7228 26.9881 11.0425 27.0094 11.0638 26.711V26.4126H11.4261C11.7885 26.4126 11.7885 26.1568 11.4261 26.1568H11.0851V25.8797C11.0851 25.6026 10.7228 25.6026 10.7228 25.8797Z" fill="#D0D0D0"/>
<path fill-rule="evenodd" clip-rule="evenodd" d="M9.59355 21.9583V22.1288C9.59355 22.1288 9.50829 22.2354 8.97543 22.278C8.44256 22.3207 8.3573 22.278 8.3573 22.278C8.37862 22.4272 8.48519 22.683 8.44256 22.9814C8.46388 23.3438 8.3573 23.6635 8.3573 23.6635C8.3573 23.6848 8.29336 23.7061 8.18678 23.6848C8.27204 23.5995 8.27204 23.3864 8.27204 23.0454C8.27204 22.747 7.95232 22.2567 8.01627 22.1288C8.08021 22.0009 9.59355 21.9583 9.59355 21.9583ZM11.6824 21.4041L13.0678 21.3828C13.0678 21.3828 13.281 21.8091 13.2597 22.0223C13.2597 22.2354 13.1744 22.4485 13.0892 22.342C12.9826 22.2354 13.1318 22.2567 13.1531 22.0223C13.1531 21.7665 12.9826 21.532 12.9826 21.532C12.9826 21.532 12.5989 21.6812 12.0447 21.6599C11.4906 21.6173 11.7463 21.4041 11.6824 21.4041Z" fill="#D0D0D0" stroke="#707070" stroke-width="0.0213147"/>
<path fill-rule="evenodd" clip-rule="evenodd" d="M11.8501 21.81C12.3617 21.7887 12.7027 21.8526 12.7027 21.8526C12.7027 21.8526 12.9159 22.2789 12.9159 22.492C12.8946 22.7052 12.8306 22.9183 12.7241 22.8118C12.6388 22.7265 12.7667 22.7478 12.788 22.492C12.788 22.2576 12.6175 22.0018 12.6175 22.0018C12.6175 22.0018 12.2551 22.151 11.7009 22.1297C11.1468 22.0871 11.3173 22.0657 11.2533 22.0444C11.1894 22.0444 11.1681 22.2149 10.3368 22.2363C9.48422 22.2363 9.05793 22.0444 9.05793 22.0444C9.05793 22.0444 8.97267 22.1723 8.46112 22.2149H7.82168C7.84299 22.3428 7.94957 22.5986 7.92825 22.9183C7.92825 23.2594 7.82168 23.6004 7.82168 23.6004H7.67248C7.75773 23.5365 7.73642 23.302 7.75773 22.9823C7.75773 22.6626 7.4167 22.1936 7.48064 22.0444C7.5659 21.9165 7.94957 22.0444 8.01351 21.9805C8.07745 21.8952 7.67247 21.405 7.75773 20.9574C7.82168 20.5098 8.26928 20.6377 8.80215 20.6377C9.33502 20.659 10.5073 20.8082 10.8057 20.6377C11.1041 20.4885 10.9762 19.913 11.232 19.5506C11.3169 19.447 11.4245 19.3642 11.5465 19.3088C11.6684 19.2534 11.8015 19.2267 11.9354 19.2309C12.1272 19.2309 12.3617 19.8703 12.3617 20.0195L12.2978 20.1048H12.2125V20.1687C11.9994 20.1901 11.978 19.9982 11.8501 19.8703C11.8075 20.0835 12.0207 20.8082 12.0207 21.2771C12.0207 21.6608 11.8715 21.8313 11.8501 21.81Z" fill="#D0D0D0" stroke="#707070" stroke-width="0.0213147"/>
<path fill-rule="evenodd" clip-rule="evenodd" d="M10.1683 21.1284C10.1683 21.2777 9.50757 21.64 9.44362 21.7679C9.40099 21.9171 9.61414 21.981 9.55019 22.0663C9.48625 22.1516 9.42231 22.1089 9.40099 22.1302L9.14522 21.5974C9.14522 21.5974 9.78466 21.299 9.76334 21.1711C9.74203 21.0432 9.29442 20.9579 9.20916 20.6595C9.1239 20.3611 9.16653 19.743 9.10259 19.6151C9.03864 19.4872 8.25 19.3593 8.25 19.1888C8.25 18.9757 9.05996 18.4641 9.14522 18.3789C9.23047 18.2936 9.31573 18.4641 9.23047 18.5281C9.14522 18.6133 8.52709 19.1036 8.52709 19.1675C8.52709 19.2528 9.03864 19.338 9.20916 19.338C9.40099 19.338 9.48625 19.2528 9.48625 19.1675C9.48625 19.1036 9.29442 19.1036 9.29442 18.9544C9.29442 18.8051 9.40099 18.6986 9.57151 18.6986C9.65677 18.6986 9.82729 18.8051 9.82729 18.933C9.82729 19.0609 9.67808 19.0822 9.65677 19.1675C9.63545 19.2741 9.82728 19.338 9.9978 19.338C10.1683 19.338 10.7651 19.7856 10.8504 19.8709C10.957 19.9348 11.0422 19.9348 10.957 20.0201C10.8717 20.1053 10.9143 20.1906 10.8291 20.1053C10.7876 20.0643 10.7581 20.0127 10.7438 19.9561C10.7438 19.8922 10.1044 19.5725 9.9978 19.6364C9.91254 19.7217 9.9978 20.6595 9.9978 20.7448C9.9978 20.894 10.1896 20.894 10.1683 21.1284Z" fill="#D0D0D0" stroke="#707070" stroke-width="0.0213147"/>
<path fill-rule="evenodd" clip-rule="evenodd" d="M9.05859 19.3164H10.1243V20.4035H9.05859V19.3164Z" fill="#A7A7A7"/>
<path d="M12.4515 23.2378L8.95362 17.9871C8.92099 17.9381 8.87769 17.9074 8.85692 17.9185C8.83614 17.9296 8.84576 17.9783 8.87839 18.0272L12.3763 23.2779C12.4089 23.3269 12.4522 23.3576 12.473 23.3465C12.4938 23.3355 12.4842 23.2868 12.4515 23.2378Z" fill="#808080"/>
<path fill-rule="evenodd" clip-rule="evenodd" d="M9.33435 18.4651C9.33435 18.5067 9.31591 18.5465 9.2831 18.5759C9.25028 18.6052 9.20577 18.6217 9.15936 18.6217C9.11295 18.6217 9.06844 18.6052 9.03563 18.5759C9.00281 18.5465 8.98438 18.5067 8.98438 18.4651C8.98438 18.4236 9.00281 18.3838 9.03563 18.3544C9.06844 18.3251 9.11295 18.3086 9.15936 18.3086C9.20577 18.3086 9.25028 18.3251 9.2831 18.3544C9.31591 18.3838 9.33435 18.4236 9.33435 18.4651Z" fill="#D0D0D0" stroke="#707070" stroke-width="0.0310826"/>
<path fill-rule="evenodd" clip-rule="evenodd" d="M12.3845 19.8698C12.3845 19.9338 11.9582 20.019 11.5106 20.019C11.0417 20.019 10.6367 19.9338 10.6367 19.8698C10.6367 19.8059 11.0417 19.9764 11.4893 19.9764C11.9795 19.9764 12.3845 19.8059 12.3845 19.8698Z" fill="#808080"/>
<path fill-rule="evenodd" clip-rule="evenodd" d="M9.14453 20.4023H10.0184V20.7221H9.16585L9.14453 20.4023Z" fill="#A7A7A7"/>
<path fill-rule="evenodd" clip-rule="evenodd" d="M11.9791 19.6361C11.8939 19.8066 11.8299 19.9132 11.8086 19.8919C11.8086 19.8919 11.8512 19.7214 11.9365 19.5722L12.107 19.3164C12.1283 19.3377 12.0644 19.4869 11.9791 19.6361ZM12.1923 20.0624L12.0217 20.169C12.0659 20.0948 12.1238 20.0297 12.1923 19.9772C12.2988 19.8919 12.3841 19.8493 12.3841 19.8706L12.2136 20.0411L12.1923 20.0624Z" fill="#808080"/>
<path fill-rule="evenodd" clip-rule="evenodd" d="M12.1055 19.8499L12.2121 20.1056L12.0415 19.8925L11.935 19.6367L12.1055 19.8499ZM12.0202 20.5319C12.0202 20.5319 11.7645 20.5746 11.4234 20.5746C11.0824 20.5746 10.8053 20.5532 10.8053 20.5319L11.4234 20.4893C11.7645 20.4893 12.0202 20.4893 12.0202 20.5319ZM10.0166 20.4467C10.0166 20.468 9.82482 20.4893 9.59036 20.4893C9.33458 20.4893 9.16406 20.4893 9.16406 20.4467C9.16406 20.4467 9.33458 20.404 9.59036 20.404C9.82482 20.404 10.0166 20.4254 10.0166 20.4467Z" fill="#808080"/>
<path fill-rule="evenodd" clip-rule="evenodd" d="M8.10156 23.1754C8.10156 23.1754 8.25076 23.5164 8.86889 23.5164C9.4657 23.5164 9.67885 23.4098 9.44439 23.2393C9.20992 23.0688 8.71969 23.1114 8.80495 23.2606C8.84757 23.4311 8.61311 23.4738 8.57048 23.3672C8.50654 23.2606 8.29339 22.9196 8.67706 22.8983C9.08204 22.877 9.91331 22.7491 10.1265 22.9835C10.3396 23.218 9.89199 23.4098 10.233 23.4738C10.5527 23.5164 10.6167 23.4098 11.1922 23.3885C11.7677 23.3459 12.0021 23.4951 12.194 23.4738C12.4071 23.4738 12.3645 23.1114 12.194 23.0475C12.0448 22.9409 11.7464 22.9196 11.6611 22.8343C11.5972 22.7278 11.384 22.8343 11.4053 22.7064C11.4053 22.5999 11.7037 22.7704 11.7037 22.7278L11.7464 22.6851H11.6824L11.7037 22.6425L11.6611 22.6638L11.6824 22.6212C11.6824 22.6212 11.6185 22.6638 11.6185 22.6212H11.5759C11.6185 22.5786 11.5972 22.5785 11.5759 22.5572H11.5119V22.4933C11.4693 22.4933 11.4693 22.4933 11.448 22.5359V22.4293C11.448 22.408 11.4906 22.3867 11.5545 22.3867C11.7037 22.3867 11.7677 22.5572 11.8316 22.5572C11.8743 22.5572 11.9382 22.3867 12.13 22.4507L12.4498 22.5785C12.5563 22.6425 12.3858 22.7064 12.4498 22.7917C12.5137 22.877 12.8974 23.154 12.7908 23.4738C12.6842 23.7722 12.3645 23.8148 12.3645 23.9427C12.3219 24.0706 13.281 24.0279 13.5155 24.0706C13.6785 24.1001 13.8237 24.1918 13.9205 24.3264L13.4942 24.3477C13.4942 24.3477 13.281 24.2411 12.7482 24.2198C12.2153 24.2198 12.0235 24.0066 11.8103 23.964L10.9577 24.0066L10.3183 23.9427C10.1904 23.9214 9.42307 24.2837 9.42307 24.369H8.91152C8.91152 24.369 8.97546 24.1772 9.27387 24.1558C9.55096 24.1132 9.84936 23.9853 9.82805 23.9001L9.91331 23.3459C9.91331 23.218 10.0412 23.1327 10.0199 23.0901C9.99857 23.0048 9.65753 22.9409 9.33781 22.9409C9.01809 22.9409 8.67706 22.9622 8.61311 23.0262C8.57048 23.1114 8.61311 23.3459 8.67706 23.3033C8.741 23.3033 8.65574 23.1327 8.71969 23.1114C8.8578 23.069 9.00149 23.0474 9.14598 23.0475C9.3165 23.0475 9.59359 23.1967 9.59359 23.2606C9.59359 23.2819 9.67885 23.4311 9.55096 23.4951C9.33821 23.5656 9.11389 23.5945 8.8902 23.5803C8.6675 23.5687 8.44968 23.5106 8.25076 23.4098C8.16551 23.3459 8.10156 23.1967 8.10156 23.1754Z" fill="#D0D0D0" stroke="#808080" stroke-width="0.0213147"/>
<path fill-rule="evenodd" clip-rule="evenodd" d="M11.9795 22.6421C11.9795 22.6505 11.9778 22.6588 11.9746 22.6665C11.9714 22.6743 11.9667 22.6813 11.9607 22.6873C11.9548 22.6932 11.9477 22.6979 11.94 22.7011C11.9322 22.7044 11.9239 22.706 11.9155 22.706C11.9071 22.706 11.8988 22.7044 11.891 22.7011C11.8833 22.6979 11.8762 22.6932 11.8703 22.6873C11.8644 22.6813 11.8596 22.6743 11.8564 22.6665C11.8532 22.6588 11.8516 22.6505 11.8516 22.6421C11.8516 22.6251 11.8583 22.6088 11.8703 22.5969C11.8823 22.5849 11.8985 22.5781 11.9155 22.5781C11.9325 22.5781 11.9487 22.5849 11.9607 22.5969C11.9727 22.6088 11.9795 22.6251 11.9795 22.6421Z" fill="black"/>
<path d="M15.2841 21.6388L15.6251 21.7027L16.2006 21.3191L16.158 21.5322L15.8596 21.724L15.6891 21.8093L15.7957 21.9798L15.9875 22.2782L15.9449 22.4914L15.5825 21.8733L15.2415 21.8093L15.2841 21.6388ZM14.7086 19.1237L15.3481 18.8253L15.1775 18.4416L15.2628 18.399L15.6891 19.3368L15.6251 19.3794L15.4333 18.9745L14.7939 19.2942L14.7086 19.1237ZM13.6855 17.8874L14.2823 17.3332L14.4102 17.4611V18.399L14.8791 17.9727L14.9857 18.1006L14.3889 18.6547L14.261 18.5268V17.589L13.7921 18.0153L13.6855 17.8874ZM11.0425 16.8217L11.1491 16.0117H11.3196L11.213 16.7577L11.8524 16.8217V16.9282L11.0425 16.8217ZM9.7423 16.9496L9.5931 16.1396L9.76361 16.097L9.8915 16.8217L10.5309 16.6938V16.8004L9.7423 16.9496ZM7.33374 18.1219L7.2698 18.0579L7.69609 17.7169L7.90924 17.93C7.86346 18.0222 7.80616 18.1081 7.73872 18.1858C7.68341 18.2642 7.61902 18.3357 7.54689 18.399C7.45689 18.471 7.35621 18.5285 7.24848 18.5695C7.14191 18.5908 7.03533 18.6121 6.97139 18.5695C6.88984 18.5607 6.81417 18.5229 6.75824 18.4629C6.7151 18.4003 6.69273 18.3258 6.6943 18.2498C6.6943 18.1645 6.71561 18.0579 6.77956 17.9727C6.82219 17.8874 6.90745 17.8022 6.99271 17.7382C7.06371 17.678 7.14259 17.6278 7.22717 17.589L7.419 17.5464C7.46163 17.5464 7.52557 17.5464 7.5682 17.589L7.48294 17.6956C7.4426 17.6785 7.39877 17.6712 7.35506 17.6743L7.22717 17.6956C7.17286 17.7242 7.12267 17.7601 7.07796 17.8022C7.01402 17.8448 6.95008 17.8874 6.92876 17.9514C6.89283 17.9885 6.86394 18.0318 6.8435 18.0792V18.1858C6.8435 18.2498 6.86482 18.3137 6.90745 18.3563L7.05665 18.4629L7.2698 18.4416C7.46595 18.3588 7.62512 18.2072 7.7174 18.0153L7.63215 17.8874L7.33374 18.1219ZM7.31243 24.026L6.63036 24.5163L6.1188 23.7916L6.20406 23.7276L6.63036 24.3031L6.82219 24.1539L6.48115 23.6637L6.5451 23.6211L6.90745 24.1113L7.20585 23.8981L7.31243 24.026ZM6.31064 22.9603C6.41721 22.939 6.48115 22.875 6.52378 22.7685V22.4487C6.49016 22.3387 6.42311 22.2419 6.33195 22.1717C6.26801 22.1077 6.16143 22.0864 6.07618 22.1077C6.00872 22.1224 5.94846 22.1601 5.90566 22.2143C5.88434 22.2569 5.84171 22.3209 5.84171 22.3848L5.86303 22.6193C5.90566 22.7472 5.94829 22.8324 6.03355 22.9177C6.09749 22.9816 6.20406 23.0029 6.31064 22.9603ZM6.37458 23.1308C6.31212 23.1507 6.24543 23.1533 6.18162 23.1383C6.11781 23.1233 6.05927 23.0912 6.01223 23.0456C5.8985 22.9431 5.81704 22.8098 5.77777 22.6619C5.73514 22.534 5.73514 22.4487 5.73514 22.3209C5.73514 22.193 5.77777 22.1503 5.8204 22.0864C5.86894 22.0105 5.94557 21.9568 6.03355 21.9372C6.10504 21.9212 6.17978 21.9287 6.24669 21.9585C6.33195 22.0011 6.39589 22.0438 6.45984 22.129C6.59074 22.3152 6.65118 22.5418 6.63036 22.7685C6.62263 22.8527 6.59326 22.9334 6.5451 23.0029C6.50247 23.0669 6.43852 23.1095 6.37458 23.1308ZM6.43852 21.4683H5.58594V20.8715L5.62857 20.6157L5.71383 20.4665C5.73113 20.4511 5.75139 20.4393 5.77338 20.432C5.79537 20.4247 5.81862 20.4219 5.84171 20.4239C5.90566 20.4239 5.94829 20.4452 5.99092 20.5091C6.01223 20.5731 6.05486 20.6583 6.05486 20.7862C6.08298 20.6962 6.13447 20.6153 6.20406 20.5517L6.43852 20.3386V20.5517L6.26801 20.7009L6.14012 20.8288C6.11472 20.8539 6.09317 20.8827 6.07618 20.9141C6.07261 20.9424 6.07261 20.971 6.07618 20.9994V21.0846L6.05486 21.2978H6.43852V21.4683ZM5.9696 21.2764V20.9141C5.97682 20.8504 5.97682 20.786 5.9696 20.7223C5.96201 20.691 5.94744 20.6618 5.92697 20.637C5.9117 20.6153 5.8889 20.6001 5.86303 20.5944C5.8204 20.5944 5.77777 20.6157 5.75646 20.6583L5.71383 20.8715V21.2978L5.9696 21.2764ZM8.25027 17.6743V16.7151L8.42079 16.6085L9.29469 17.0348L9.12417 17.1414L8.8684 17.0135L8.42079 17.2906V17.589L8.25027 17.6743ZM8.39947 17.184L8.78314 16.9709L8.56999 16.843C8.5039 16.8115 8.43984 16.7759 8.37816 16.7364L8.39947 16.9069V17.184ZM12.364 16.9282L13.2592 16.5659L13.4084 16.6725L13.3445 17.6529L13.1953 17.5251L13.2166 17.248L12.7903 16.9282L12.5132 17.0348L12.364 16.9282ZM12.8756 16.8856L13.2379 17.1414V16.8856C13.2478 16.8138 13.262 16.7426 13.2805 16.6725C13.2351 16.7137 13.185 16.7494 13.1313 16.779L12.8756 16.8856ZM15.071 19.9336L15.8809 19.7418L16.0088 20.3173L16.0514 20.5731L16.0088 20.7223C15.9979 20.743 15.9828 20.7613 15.9644 20.776C15.9461 20.7907 15.9249 20.8014 15.9022 20.8075C15.8383 20.8075 15.7743 20.8075 15.7317 20.7649C15.6613 20.6935 15.61 20.6056 15.5825 20.5091C15.5861 20.5445 15.5861 20.5803 15.5825 20.6157L15.4973 20.7862L15.3267 21.042L15.2841 20.8288L15.412 20.6157L15.4973 20.4878C15.5261 20.4357 15.5408 20.3769 15.5399 20.3173C15.5352 20.2813 15.5281 20.2457 15.5186 20.2107L15.4759 20.0189L15.1136 20.1041L15.071 19.9336ZM15.5612 19.9976L15.6465 20.3599C15.6465 20.4239 15.6891 20.4878 15.7104 20.5304C15.7104 20.5731 15.753 20.5944 15.7743 20.6157L15.8596 20.637C15.8809 20.637 15.9236 20.5944 15.9236 20.5517C15.9407 20.4817 15.9407 20.4086 15.9236 20.3386L15.817 19.9336L15.5612 19.9976Z" fill="#D0D0D0"/>
</g>
</g>
</g>
<defs>
<clipPath id="clip0_423_11297">
<rect width="64" height="64" rx="32" fill="white"/>
</clipPath>
<clipPath id="clip1_423_11297">
<rect width="64" height="64" fill="white"/>
</clipPath>
<clipPath id="clip2_423_11297">
<rect width="85.3333" height="64" fill="white" transform="translate(-10.668)"/>
</clipPath>
</defs>
</svg>
