<svg width="64" height="64" viewBox="0 0 64 64" fill="none" xmlns="http://www.w3.org/2000/svg">
<g clip-path="url(#clip0_423_11253)">
<g clip-path="url(#clip1_423_11253)">
<g clip-path="url(#clip2_423_11253)">
<path fill-rule="evenodd" clip-rule="evenodd" d="M-10.668 0H74.6654V64H-10.668V0Z" fill="#F41408"/>
<path fill-rule="evenodd" clip-rule="evenodd" d="M-10.668 42.668H74.6654V64.0013H-10.668V42.668Z" fill="#21873B"/>
<path fill-rule="evenodd" clip-rule="evenodd" d="M-10.668 0H74.6654V21.3333H-10.668V0Z" fill="#000001"/>
<path fill-rule="evenodd" clip-rule="evenodd" d="M18.7321 18.7992C21.7054 12.2392 29.9988 9.09255 37.2388 11.7992C38.9379 12.3752 40.5008 13.2936 41.831 14.4977C43.1611 15.7017 44.2302 17.1657 44.9721 18.7992H18.7321ZM15.2654 19.6526C12.9126 19.4924 10.5763 19.1446 8.27876 18.6126C7.7321 18.4392 7.70543 18.1326 7.7721 17.9059C7.83876 17.6792 8.18543 17.4259 8.59876 17.5059C9.34543 17.6926 12.4388 18.4392 15.2654 19.6526ZM31.8788 8.19922C31.3188 5.39922 31.1854 2.33255 31.2388 1.79922C31.2921 1.27922 31.5988 1.19922 31.8654 1.19922C32.1321 1.19922 32.4921 1.43922 32.4921 1.82589C32.4921 2.53255 32.4788 5.42589 31.8788 8.22589V8.19922ZM33.4254 8.26588C33.2043 6.13 33.1909 3.97769 33.3854 1.83922C33.4921 1.31922 33.8121 1.25255 34.0654 1.27922C34.3321 1.29255 34.6654 1.55922 34.6254 1.94589C34.5588 2.65255 34.2788 5.53255 33.4254 8.26588ZM34.8121 8.43922C34.7854 5.59922 35.2121 2.53255 35.3588 2.03922C35.5054 1.51922 35.8388 1.47922 36.0921 1.51922C36.3588 1.55922 36.6654 1.85255 36.5988 2.22589C36.4654 2.93255 35.9054 5.77255 34.8121 8.43922ZM36.2788 8.73255C36.5188 5.90589 37.2521 2.89255 37.4521 2.39922C37.6521 1.90589 37.9854 1.89255 38.2254 1.94589C38.4921 2.01255 38.7588 2.31922 38.6654 2.69255C38.4521 3.37255 37.6388 6.15922 36.2921 8.73255H36.2788ZM37.7321 9.15922C38.2521 6.35922 39.2654 3.41255 39.5054 2.93255C39.7588 2.46589 40.0788 2.46589 40.3321 2.54589C40.5721 2.62589 40.8254 2.97255 40.6921 3.31922C39.889 5.35362 38.8981 7.30874 37.7321 9.15922ZM39.0788 9.66588C39.8521 6.90588 41.1454 4.06589 41.4388 3.59922C41.7321 3.14589 42.0521 3.18589 42.2921 3.29255C42.5321 3.38589 42.7454 3.74589 42.5721 4.09255C42.2388 4.73255 40.9054 7.34589 39.0788 9.66588ZM40.4121 10.2926C41.2051 8.2542 42.1872 6.29454 43.3454 4.43922C43.6654 4.01255 43.9988 4.07922 44.2254 4.19922C44.2925 4.23896 44.351 4.29168 44.3975 4.3543C44.444 4.41692 44.4775 4.48817 44.4962 4.5639C44.5148 4.63963 44.5181 4.71832 44.506 4.79535C44.4938 4.87238 44.4664 4.94622 44.4254 5.01255C44.0254 5.62588 42.4388 8.13255 40.4121 10.2926ZM41.6654 11.0259C42.9588 8.43922 44.7721 5.82589 45.1454 5.42589C45.5188 5.02589 45.8388 5.11922 46.0521 5.25255C46.1157 5.29761 46.1697 5.35489 46.211 5.42106C46.2522 5.48722 46.2798 5.56094 46.2922 5.63791C46.3046 5.71487 46.3016 5.79354 46.2832 5.86931C46.2649 5.94509 46.2317 6.01644 46.1854 6.07922C45.7188 6.66588 43.8921 9.02588 41.6521 11.0126L41.6654 11.0259ZM42.8388 11.8526C44.3854 9.37255 46.4388 6.91922 46.8521 6.55922C47.2521 6.18589 47.5721 6.29255 47.7721 6.45255C47.8304 6.5033 47.8779 6.56533 47.9116 6.63489C47.9453 6.70446 47.9647 6.78013 47.9684 6.85735C47.9721 6.93458 47.9602 7.01176 47.9334 7.08426C47.9065 7.15676 47.8652 7.22307 47.8121 7.27922C47.3054 7.82588 45.2654 10.0392 42.8388 11.8526ZM43.9454 12.7726C45.2981 10.9893 46.8062 9.32944 48.4521 7.81255C48.8921 7.47922 49.1854 7.61255 49.3721 7.77255C49.4274 7.82892 49.4704 7.89609 49.4985 7.96986C49.5266 8.04364 49.5392 8.12242 49.5355 8.20128C49.5317 8.28014 49.5117 8.35738 49.4767 8.42815C49.4417 8.49892 49.3925 8.5617 49.3321 8.61255C48.7854 9.11922 46.5321 11.1592 43.9454 12.7726ZM44.9588 13.7726C46.4698 12.1007 48.13 10.5699 49.9188 9.19922C50.3988 8.89255 50.6788 9.05255 50.8521 9.23922C51.0121 9.41255 51.0521 9.82588 50.7188 10.0659C48.9061 11.4607 46.9793 12.7006 44.9588 13.7726ZM45.8254 14.8126C47.4925 13.2607 49.2902 11.8555 51.1988 10.6126C51.6921 10.3459 51.9588 10.5326 52.1054 10.7326C52.2654 10.9192 52.2521 11.3326 51.9188 11.5459C51.2788 11.9459 48.6788 13.6259 45.8254 14.8126ZM46.6121 15.9192C48.4152 14.5124 50.333 13.2591 52.3454 12.1726C52.8788 11.9459 53.1321 12.1459 53.2654 12.3459C53.3988 12.5592 53.3454 12.9592 52.9988 13.1459C50.9445 14.243 48.804 15.1705 46.5988 15.9192H46.6121ZM47.3321 17.1992C49.2742 15.9478 51.3168 14.8596 53.4388 13.9459C53.9854 13.7592 54.2121 13.9859 54.3188 14.1992C54.4388 14.4126 54.3588 14.8126 53.9721 14.9726C53.2654 15.2659 50.3721 16.4926 47.3321 17.1992ZM47.8921 18.4259C49.9462 17.3283 52.0866 16.4008 54.2921 15.6526C54.8521 15.5192 55.0521 15.7592 55.1454 15.9859C55.2254 16.1992 55.1054 16.5992 54.7188 16.7192C53.9854 16.9726 50.9854 17.9592 47.8921 18.4259ZM48.3454 19.7326C50.4942 18.803 52.7148 18.0494 54.9854 17.4792C55.5454 17.3992 55.7321 17.6392 55.7988 17.8792C55.8654 18.1059 55.7054 18.4792 55.3054 18.5859C54.5454 18.7592 51.4654 19.5192 48.3454 19.7326ZM30.3721 8.26588C29.7396 6.20549 29.3065 4.08911 29.0788 1.94589C29.0788 1.42589 29.3854 1.30589 29.6388 1.27922C29.9054 1.26589 30.3054 1.47922 30.3321 1.85255C30.3988 2.55922 30.6788 5.43922 30.3854 8.26588H30.3721ZM28.9054 8.43922C28.0714 6.44346 27.4329 4.37154 26.9988 2.25255C26.9454 1.71922 27.2388 1.58589 27.4921 1.54589C27.7588 1.50589 28.1588 1.67922 28.2388 2.05255C28.6558 4.15657 28.879 6.29442 28.9054 8.43922ZM27.4388 8.73255C26.4148 6.80731 25.5755 4.78941 24.9321 2.70589C24.8254 2.18589 25.1054 2.02589 25.3588 1.95922C25.6121 1.90589 26.0254 2.03922 26.1454 2.41255C26.3454 3.09255 27.1721 5.87922 27.4254 8.71922L27.4388 8.73255ZM26.0388 9.13255C24.8474 7.29788 23.8297 5.35615 22.9988 3.33255C22.8521 2.82589 23.1054 2.63922 23.3454 2.55922C23.5988 2.47922 24.0254 2.58589 24.1721 2.93255C24.4388 3.59922 25.5321 6.31922 26.0388 9.11922V9.13255ZM24.6921 9.59922C23.3254 7.86875 22.1204 6.01654 21.0921 4.06589C20.9054 3.57255 21.1454 3.35922 21.3854 3.26589C21.6254 3.15922 22.0521 3.23922 22.2388 3.58589C22.5721 4.22589 23.9054 6.85255 24.6921 9.59922ZM23.3188 10.2659C21.7855 8.65244 20.4021 6.90302 19.1854 5.03922C18.9588 4.57255 19.1721 4.34589 19.3988 4.22589C19.6254 4.10589 20.0654 4.14589 20.2788 4.47922C20.6788 5.09255 22.2788 7.58588 23.3188 10.2659ZM22.0654 10.9859C20.3908 9.49363 18.8514 7.85614 17.4654 6.09255C17.1854 5.63922 17.3721 5.39922 17.5988 5.25255C17.7988 5.11922 18.2654 5.11922 18.4921 5.43922C18.9454 6.01255 20.7721 8.37255 22.0654 10.9726V10.9859ZM20.9054 11.7859C19.0928 10.4289 17.402 8.91653 15.8521 7.26589C15.5321 6.83922 15.7054 6.59922 15.9054 6.43922C16.0464 6.35189 16.2127 6.31489 16.3774 6.33426C16.542 6.35364 16.6953 6.42823 16.8121 6.54588C17.3188 7.07922 19.3721 9.30589 20.9054 11.7859ZM19.7721 12.7192C17.8361 11.5137 16.0072 10.1442 14.3054 8.62588C13.9321 8.22588 14.0788 7.95922 14.2654 7.78589C14.4003 7.68645 14.5651 7.6362 14.7325 7.64347C14.8999 7.65075 15.0597 7.71513 15.1854 7.82589C15.7454 8.31922 17.9854 10.3592 19.7721 12.7059V12.7192ZM18.7854 13.6526C16.744 12.6006 14.7949 11.3785 12.9588 9.99922C12.5588 9.62588 12.6788 9.35922 12.8521 9.17255C13.0121 8.98589 13.4521 8.89255 13.7721 9.13255C15.5715 10.4955 17.2489 12.0123 18.7854 13.6659V13.6526ZM17.8521 14.7459C15.7143 13.8607 13.6539 12.7993 11.6921 11.5726C11.2521 11.2392 11.3454 10.9459 11.4921 10.7592C11.6388 10.5592 12.0654 10.4259 12.4121 10.6392C13.0521 11.0526 15.6521 12.7059 17.8521 14.7459ZM17.0121 15.9192C14.0521 14.9859 11.0254 13.5726 10.5588 13.2659C10.0788 12.9726 10.1588 12.6792 10.2788 12.4659C10.3988 12.2526 10.8121 12.0926 11.1854 12.2792C11.8521 12.6392 14.6254 14.0792 17.0121 15.9192ZM16.3054 17.1192C13.2654 16.4126 10.1321 15.2526 9.62543 14.9859C9.13209 14.7192 9.15876 14.4259 9.27876 14.2126C9.38543 13.9992 9.77209 13.7992 10.1588 13.9459C10.8654 14.2526 13.7588 15.4659 16.3054 17.1192ZM15.7454 18.3192C13.421 17.9619 11.1292 17.4179 8.89209 16.6926C8.35876 16.4792 8.38543 16.1726 8.46543 15.9592C8.55876 15.7326 8.93209 15.5059 9.31876 15.6259C10.0654 15.8792 13.0521 16.8659 15.7454 18.3192Z" fill="#F31509"/>
<path fill-rule="evenodd" clip-rule="evenodd" d="M15.2654 19.6539C12.9126 19.4937 10.5763 19.1459 8.27876 18.6139C7.7321 18.4406 7.70543 18.1339 7.7721 17.9073C7.83876 17.6806 8.18543 17.4273 8.59876 17.5073C9.34543 17.6939 12.4388 18.4406 15.2654 19.6539Z" fill="#F31509"/>
<path fill-rule="evenodd" clip-rule="evenodd" d="M6.58594 18.8672H57.4126V20.5472H6.58594V18.8672Z" fill="black"/>
</g>
</g>
</g>
<defs>
<clipPath id="clip0_423_11253">
<rect width="64" height="64" rx="32" fill="white"/>
</clipPath>
<clipPath id="clip1_423_11253">
<rect width="64" height="64" fill="white"/>
</clipPath>
<clipPath id="clip2_423_11253">
<rect width="85.3333" height="64" fill="white" transform="translate(-10.668)"/>
</clipPath>
</defs>
</svg>
