<svg width="64" height="64" viewBox="0 0 64 64" fill="none" xmlns="http://www.w3.org/2000/svg">
<g clip-path="url(#clip0_423_12564)">
<g clip-path="url(#clip1_423_12564)">
<g clip-path="url(#clip2_423_12564)">
<path fill-rule="evenodd" clip-rule="evenodd" d="M-10.4529 0L-10.5195 64H74.8138L-10.4529 0Z" fill="#000001"/>
<path fill-rule="evenodd" clip-rule="evenodd" d="M74.7471 64L74.8138 0H-10.5195L74.7471 64Z" fill="#FF0000"/>
<path d="M42.1642 15.9279L41.0394 15.8689C40.6842 15.0431 39.7075 14.7482 39.0859 15.1021C37.9412 15.1023 36.7965 15.0826 35.6525 15.0431L37.754 15.9573C38.3164 17.4025 40.0923 17.6974 40.0923 17.6974C39.9147 20.2928 37.458 17.373 35.3861 18.8476C33.9062 19.7324 33.9062 20.7646 33.107 22.4752C32.8406 22.9471 31.8047 24.1858 31.8047 24.1858L33.551 24.0383L32.9886 24.7756L35.0605 24.4807L34.6165 24.8936C34.9125 24.9526 36.9844 24.3922 36.9844 24.3922L36.8364 25.0705L39.2043 24.2153C39.2043 24.2153 39.6779 24.5987 40.0923 24.7756L40.3883 23.5959L41.5722 23.8908L41.8682 22.7111C43.6441 25.0705 44.2361 27.4299 47.4919 28.0198L47.1959 26.8401C48.0614 27.2177 48.9199 27.611 49.771 28.0198L50.0374 27.5184C51.4581 28.5212 52.6125 28.4917 53.4116 28.6096L52.8196 27.135L53.4116 27.4299L52.5237 25.0705L53.4116 25.3655L52.2277 23.5959L52.6717 23.301L52.5237 22.4162C54.2996 23.0061 56.6675 23.8908 56.9634 25.9553C57.2594 29.1995 53.7076 30.0843 51.3397 29.7893C53.1156 31.264 56.3715 30.6741 57.8514 29.1995C58.4434 28.6096 58.7394 27.7249 59.0353 26.8401C59.3313 27.7249 59.9233 28.9046 59.9233 30.0843C59.6273 32.7386 56.0755 33.6234 53.7076 33.9183C56.3715 35.3929 61.1072 33.6234 61.4032 29.7893C61.4032 26.5452 59.3313 25.0705 58.4434 23.5959L58.1474 22.0033L59.0353 22.4162C59.0353 22.4162 58.5026 21.443 58.4434 21.2365C58.4434 21.2365 57.5258 18.7296 57.2002 18.1693L57.8514 18.2873L55.4243 15.2495L56.1051 15.1905C56.1051 15.1905 53.2932 12.9786 52.5237 12.6837L53.4116 12.3888C51.6357 11.504 49.5638 12.0938 47.7879 13.2735L48.0839 12.3888L47.5511 12.4477V11.4155L48.0839 10.6192L47.1959 10.3243L47.7879 8.84965L46.8999 9.14457L47.1959 7.66995C47.1959 7.66995 46.5448 7.96487 46.1304 7.93538C46.3004 7.60696 46.4583 7.27249 46.604 6.93263C46.308 6.49024 46.604 5.60547 46.604 5.60547C44.5321 5.90039 44.2361 6.19532 43.0521 7.96487C41.2762 11.2091 41.8682 12.6837 42.1642 15.9279Z" fill="#FFCC00" stroke="#FFCC00" stroke-width="0.325"/>
<path fill-rule="evenodd" clip-rule="evenodd" d="M53.3516 20.7617C53.4996 21.0272 55.1867 21.8234 56.4298 22.5313C56.1042 21.1746 53.6475 20.8797 53.3516 20.7617Z" fill="#FF0000" stroke="#FF0000" stroke-width="0.413637"/>
<path fill-rule="evenodd" clip-rule="evenodd" d="M12.6663 53.2014L10.7729 52.0014L8.23958 53.2147L8.81292 51.0547L6.87958 49.0414L9.10625 48.9081L10.4396 46.4547L11.2529 48.5214L14.0129 49.0281L12.2796 50.4414L12.6663 53.2014ZM17.4929 42.6681L16.6129 42.2681L15.7729 42.7481L15.9063 41.7881L15.1862 41.1347L16.1329 40.9614L16.5329 40.0814L16.9996 40.9347L17.9596 41.0414L17.2929 41.7347L17.4929 42.6681ZM21.7596 36.6414L19.8263 35.7081L17.9729 36.7481L18.2796 34.6547L16.7063 33.2147L18.7996 32.8414L19.6796 30.9214L20.6929 32.7881L22.7996 33.0281L21.3329 34.5614L21.7596 36.6414ZM12.9862 28.2414L10.7196 27.1081L8.51958 28.3214L8.89292 25.8414L7.05292 24.1081L9.54625 23.7081L10.6129 21.4414L11.7729 23.6681L14.2796 23.9747L12.5063 25.7614L12.9862 28.2414ZM4.87958 36.9614L2.61292 35.6281L0.346249 37.0014L0.919583 34.4281L-1.09375 32.6947L1.53292 32.4547L2.55958 30.0147L3.61292 32.4414L6.25292 32.6547L4.26625 34.3881L4.87958 36.9614Z" fill="white"/>
</g>
</g>
</g>
<defs>
<clipPath id="clip0_423_12564">
<rect width="64" height="64" rx="32" fill="white"/>
</clipPath>
<clipPath id="clip1_423_12564">
<rect width="64" height="64" fill="white"/>
</clipPath>
<clipPath id="clip2_423_12564">
<rect width="85.3333" height="64" fill="white" transform="translate(-10.668)"/>
</clipPath>
</defs>
</svg>
