<svg width="64" height="64" viewBox="0 0 64 64" fill="none" xmlns="http://www.w3.org/2000/svg">
<g clip-path="url(#clip0_423_12749)">
<g clip-path="url(#clip1_423_12749)">
<g clip-path="url(#clip2_423_12749)">
<path d="M-10.668 0H74.6654V32H-10.668V0Z" fill="#0038A8"/>
<path d="M-10.668 32H74.6654V64H-10.668V32Z" fill="#CE1126"/>
<path d="M44.7587 32L-10.668 64V0" fill="white"/>
<path d="M-7.10745 5.65234L-5.20078 7.33234L-2.98745 6.10568L-3.97411 8.43901L-2.10745 10.1723L-4.64078 9.95901L-5.72078 12.2523L-6.29411 9.78568L-8.80078 9.46568L-6.62745 8.13234L-7.10745 5.65234ZM36.0659 28.6257L36.1192 31.159L38.5192 31.999L36.1192 32.8257L36.0659 35.359L34.5326 33.3457L32.1059 34.079L33.5459 31.999L32.1059 29.919L34.5326 30.6523L36.0659 28.6257ZM-5.70745 51.7457L-4.64078 54.039L-2.10745 53.8257L-3.96078 55.559L-2.97411 57.8923L-5.18745 56.679L-7.10745 58.3323L-6.62745 55.839L-8.80078 54.5323L-6.28078 54.2123L-5.70745 51.7457ZM9.51922 18.5457L8.69255 19.3723L9.10589 25.639L8.70589 25.679L7.94589 19.959L7.26589 20.6257L8.27922 25.7457C7.45984 25.9069 6.68044 26.2287 5.98589 26.6923L3.09255 22.3723H2.13255L5.65255 26.9457C5.54302 27.0311 5.4363 27.12 5.33255 27.2123L1.18589 22.479H0.0125523V23.6523L4.73255 27.7857L4.46589 28.119L-0.107448 24.6123V25.559L4.22589 28.4523C3.77255 29.1457 3.43922 29.919 3.27922 30.7457L-1.82745 29.7323L-2.50745 30.399L3.21255 31.159C3.18589 31.2923 3.17255 31.439 3.17255 31.5723L-3.09411 31.1723L-3.92078 31.999L-3.09411 32.8257L3.17255 32.4123L3.21255 32.8257L-2.50745 33.5857L-1.84078 34.2523L3.27922 33.239C3.44049 34.0584 3.76222 34.8378 4.22589 35.5323L-0.107448 38.4257V39.3857L4.46589 35.879C4.55128 35.9885 4.64022 36.0953 4.73255 36.199L0.0125523 40.3323V41.5057H1.19922L5.33255 36.7857L5.66589 37.0523L2.13255 41.6257H3.09255L5.98589 37.2923C6.66589 37.7457 7.45255 38.079 8.27922 38.239L7.26589 43.359L7.93255 44.0257L8.69255 38.3057C8.82589 38.3323 8.95922 38.3457 9.10589 38.3457L8.70589 44.6123L9.51922 45.439L10.3592 44.6123L9.94589 38.3457L10.3459 38.3057L11.1059 44.039L11.7859 43.359L10.7726 38.239C11.5919 38.0777 12.3713 37.756 13.0659 37.2923L15.9592 41.6257H16.9192L13.3992 37.0523C13.5088 36.9669 13.6155 36.878 13.7192 36.7857L17.8659 41.5057H19.0392V40.3323L14.3192 36.199L14.5859 35.879L19.1592 39.3857V38.4257L14.8259 35.5323C15.2792 34.8523 15.6126 34.0657 15.7726 33.239L20.8792 34.2523L21.5592 33.5857L15.8392 32.8257C15.8659 32.6923 15.8792 32.559 15.8792 32.4123L22.1459 32.8123L22.9726 31.999L22.1459 31.1723L15.8792 31.5723L15.8392 31.1723L21.5592 30.4123L20.8926 29.7457L15.7726 30.7457C15.6113 29.9263 15.2896 29.1469 14.8259 28.4523L19.1592 25.559V24.6123L14.5859 28.119C14.5005 28.0095 14.4116 27.9028 14.3192 27.799L19.0392 23.6657V22.479H17.8659L13.7326 27.2123C13.6244 27.1198 13.5133 27.0308 13.3992 26.9457L16.9192 22.3723H15.9592L13.0659 26.6923C12.3859 26.239 11.5992 25.9057 10.7726 25.7457L11.7859 20.639L11.1192 19.9723L10.3592 25.679L9.94589 25.639L10.3459 19.3723L9.51922 18.5457Z" fill="#FCD116"/>
</g>
</g>
</g>
<defs>
<clipPath id="clip0_423_12749">
<rect width="64" height="64" rx="32" fill="white"/>
</clipPath>
<clipPath id="clip1_423_12749">
<rect width="64" height="64" fill="white"/>
</clipPath>
<clipPath id="clip2_423_12749">
<rect width="85.3333" height="64" fill="white" transform="translate(-10.668)"/>
</clipPath>
</defs>
</svg>
