<svg width="64" height="64" viewBox="0 0 64 64" fill="none" xmlns="http://www.w3.org/2000/svg">
<g clip-path="url(#clip0_423_3787)">
<g clip-path="url(#clip1_423_3787)">
<g clip-path="url(#clip2_423_3787)">
<path d="M23.4648 0H74.6648V64H23.4648V0Z" fill="#FF0000"/>
<path d="M-10.668 0H23.4654V64H-10.668V0Z" fill="#006600"/>
<path fill-rule="evenodd" clip-rule="evenodd" d="M34.5982 40.8289C30.2915 40.6956 10.5982 28.4022 10.4648 26.4289L11.5448 24.6289C13.5048 27.4689 33.6382 39.4289 35.6248 39.0022L34.5982 40.8289Z" fill="#FFFF00" stroke="black" stroke-width="0.08" stroke-linecap="round" stroke-linejoin="round"/>
<path fill-rule="evenodd" clip-rule="evenodd" d="M11.3199 24.3724C10.9332 25.4124 16.4665 28.8257 23.1065 32.8791C29.7599 36.9191 35.4932 39.4124 35.9065 39.0657L36.1065 38.6924C36.0265 38.8257 35.8399 38.8657 35.5332 38.7724C33.7332 38.2524 29.0532 36.1057 23.2532 32.5857C17.4399 29.0657 12.3999 25.8257 11.6132 24.4524C11.5519 24.3236 11.5244 24.1814 11.5332 24.0391H11.5065L11.3465 24.3324L11.3199 24.3724ZM34.6932 40.8791C34.6265 41.0124 34.4799 41.0124 34.2265 40.9857C32.6265 40.8124 27.7465 38.4391 21.9732 34.9857C15.2532 30.9591 9.70654 27.3057 10.3199 26.3457L10.4799 26.0524L10.5065 26.0657C9.97321 27.6924 21.4532 34.2524 22.1332 34.6791C28.7732 38.7857 34.3732 41.1991 34.8665 40.5724L34.6932 40.8791Z" fill="#FFFF00" stroke="black" stroke-width="0.08" stroke-linecap="round" stroke-linejoin="round"/>
<path fill-rule="evenodd" clip-rule="evenodd" d="M23.4929 27.6285C27.7863 27.5885 33.0929 27.0418 36.1596 25.8152L35.4929 24.7485C33.6929 25.7485 28.3596 26.4152 23.4529 26.5085C17.6662 26.4552 13.5729 25.9085 11.5196 24.5352L10.9062 25.6818C14.6662 27.2818 18.5329 27.6152 23.4929 27.6285Z" fill="#FFFF00" stroke="black" stroke-width="0.08" stroke-linecap="round" stroke-linejoin="round"/>
<path fill-rule="evenodd" clip-rule="evenodd" d="M36.3327 25.8407C36.226 26.0141 34.226 26.6941 31.2927 27.2007C28.7069 27.5926 26.0947 27.7843 23.4794 27.7741C20.9736 27.7835 18.4701 27.6231 15.986 27.2941C12.906 26.8141 11.3194 26.1474 10.7194 25.9074L10.866 25.6141C12.5594 26.2807 14.1594 26.6807 16.026 26.9741C18.492 27.307 20.9777 27.4719 23.466 27.4674C26.0678 27.4701 28.6662 27.2785 31.2394 26.8941C34.2394 26.4007 35.8794 25.7741 36.1194 25.4941L36.3327 25.8407ZM35.746 24.7607C35.426 25.0274 33.7994 25.6007 30.946 26.0541C28.4821 26.4105 25.9956 26.5888 23.506 26.5874C20.5727 26.5874 18.1594 26.3741 16.3327 26.1074C13.426 25.7341 11.8794 25.0407 11.3194 24.8541L11.4927 24.5607C11.9327 24.7874 13.4127 25.3874 16.3594 25.8007C18.7281 26.118 21.1162 26.2695 23.506 26.2541C25.9779 26.2548 28.4466 26.0766 30.8927 25.7207C33.7594 25.3207 35.306 24.6007 35.546 24.4141L35.746 24.7607ZM9.37271 32.8007C12.0127 34.2274 17.8927 34.9341 23.4527 34.9874C28.5194 35.0007 35.106 34.2141 37.5727 32.9074L37.506 31.4807C36.7327 32.6807 29.666 33.8407 23.3994 33.8007C17.1327 33.7474 11.306 32.7874 9.35938 31.5341V32.8007" fill="#FFFF00"/>
<path d="M9.37271 32.8007C12.0127 34.2274 17.8927 34.9341 23.4527 34.9874C28.5194 35.0007 35.106 34.2141 37.5727 32.9074L37.506 31.4807C36.7327 32.6807 29.666 33.8407 23.3994 33.8007C17.1327 33.7474 11.306 32.7874 9.35938 31.5341V32.8007M36.3327 25.8407C36.226 26.0141 34.226 26.6941 31.2927 27.2007C28.7069 27.5926 26.0947 27.7843 23.4794 27.7741C20.9736 27.7835 18.4701 27.6231 15.986 27.2941C12.906 26.8141 11.3194 26.1474 10.7194 25.9074L10.866 25.6141C12.5594 26.2807 14.1594 26.6807 16.026 26.9741C18.492 27.307 20.9777 27.4719 23.466 27.4674C26.0678 27.4701 28.6662 27.2785 31.2394 26.8941C34.2394 26.4007 35.8794 25.7741 36.1194 25.4941L36.3327 25.8407ZM35.746 24.7607C35.426 25.0274 33.7994 25.6007 30.946 26.0541C28.4821 26.4105 25.9956 26.5888 23.506 26.5874C20.5727 26.5874 18.1594 26.3741 16.3327 26.1074C13.426 25.7341 11.8794 25.0407 11.3194 24.8541L11.4927 24.5607C11.9327 24.7874 13.4127 25.3874 16.3594 25.8007C18.7281 26.118 21.1162 26.2695 23.506 26.2541C25.9779 26.2548 28.4466 26.0766 30.8927 25.7207C33.7594 25.3207 35.306 24.6007 35.546 24.4141L35.746 24.7607Z" stroke="black" stroke-width="0.08" stroke-linecap="round" stroke-linejoin="round"/>
<path fill-rule="evenodd" clip-rule="evenodd" d="M37.7059 32.601V32.9343C37.3325 33.3877 35.0125 34.0543 32.1059 34.5343C29.2182 34.9494 26.3032 35.1455 23.3859 35.121C20.6196 35.1446 17.8557 34.9529 15.1192 34.5477C13.0773 34.3117 11.082 33.7724 9.19922 32.9477V32.561C10.4926 33.4143 13.9859 34.0543 15.1592 34.241C17.2659 34.561 19.9726 34.801 23.3859 34.801C26.9726 34.801 29.8392 34.5477 32.0525 34.2143C34.1459 33.9077 37.1192 33.121 37.7059 32.601ZM37.7059 31.401V31.7343C37.3325 32.1743 35.0125 32.841 32.1059 33.321C29.2185 33.7405 26.3035 33.9411 23.3859 33.921C20.6199 33.9373 17.8565 33.7456 15.1192 33.3477C13.0773 33.1117 11.082 32.5724 9.19922 31.7477V31.3477C10.4926 32.2143 13.9992 32.841 15.1592 33.0277C17.883 33.4266 20.6331 33.6183 23.3859 33.601C26.9726 33.601 29.8526 33.3343 32.0525 33.001C34.1459 32.7077 37.1192 31.921 37.7059 31.401ZM23.4392 40.5743C17.3592 40.5477 12.1459 38.921 11.0392 38.6543L11.8392 39.9077C15.5791 41.2322 19.5256 41.8779 23.4926 41.8143C28.1192 41.681 32.1592 41.321 34.9992 39.9343L35.8259 38.6277C33.8926 39.5477 27.2926 40.5743 23.4259 40.5743" fill="#FFFF00"/>
<path d="M23.4392 40.5743C17.3592 40.5477 12.1459 38.921 11.0392 38.6543L11.8392 39.9077C15.5791 41.2322 19.5256 41.8779 23.4926 41.8143C28.1192 41.681 32.1592 41.321 34.9992 39.9343L35.8259 38.6277C33.8926 39.5477 27.2926 40.5743 23.4259 40.5743M37.7059 32.601V32.9343C37.3325 33.3877 35.0125 34.0543 32.1059 34.5343C29.2182 34.9494 26.3032 35.1455 23.3859 35.121C20.6196 35.1446 17.8557 34.9529 15.1192 34.5477C13.0773 34.3117 11.082 33.7724 9.19922 32.9477V32.561C10.4926 33.4143 13.9859 34.0543 15.1592 34.241C17.2659 34.561 19.9726 34.801 23.3859 34.801C26.9726 34.801 29.8392 34.5477 32.0525 34.2143C34.1459 33.9077 37.1192 33.121 37.7059 32.601ZM37.7059 31.401V31.7343C37.3325 32.1743 35.0125 32.841 32.1059 33.321C29.2185 33.7405 26.3035 33.9411 23.3859 33.921C20.6199 33.9373 17.8565 33.7456 15.1192 33.3477C13.0773 33.1117 11.082 32.5724 9.19922 31.7477V31.3477C10.4926 32.2143 13.9992 32.841 15.1592 33.0277C17.883 33.4266 20.6331 33.6183 23.3859 33.601C26.9726 33.601 29.8526 33.3343 32.0525 33.001C34.1459 32.7077 37.1192 31.921 37.7059 31.401Z" stroke="black" stroke-width="0.08" stroke-linecap="round" stroke-linejoin="round"/>
<path fill-rule="evenodd" clip-rule="evenodd" d="M35.3208 39.6398C35.1994 39.8197 35.0749 39.9975 34.9474 40.1731C33.6141 40.6531 31.4808 41.1598 30.6008 41.2931C28.2394 41.7331 25.8428 41.9563 23.4408 41.9598C18.0541 41.8798 13.6408 40.8265 11.5741 39.9198L11.4008 39.6398L11.4274 39.5865L11.7074 39.7065C15.5022 40.9622 19.4704 41.6146 23.4674 41.6398C25.9741 41.6398 28.4674 41.3598 30.4808 40.9998C33.5741 40.3731 34.8274 39.9065 35.2141 39.6931L35.3074 39.6398H35.3208ZM36.0274 38.4665C35.9397 38.6226 35.8508 38.7782 35.7608 38.9331C35.0408 39.1998 33.0941 39.7598 30.2541 40.1598C28.3874 40.4131 27.2274 40.6665 23.5074 40.7331C19.2549 40.6904 15.0286 40.0623 10.9474 38.8665L10.8008 38.5331C14.9472 39.6791 19.2199 40.3061 23.5208 40.3998C26.9208 40.3331 28.3741 40.0798 30.2274 39.8265C33.5341 39.3198 35.2008 38.7598 35.6941 38.6131C35.6944 38.6042 35.6944 38.5953 35.6941 38.5865L36.0408 38.4531L36.0274 38.4665Z" fill="#FFFF00" stroke="black" stroke-width="0.08" stroke-linecap="round" stroke-linejoin="round"/>
<path fill-rule="evenodd" clip-rule="evenodd" d="M36.1061 31.68C36.1194 35.68 34.0661 39.28 32.4261 40.8533C30.0039 43.2157 26.7691 44.5611 23.3861 44.6133C19.3461 44.68 15.5461 42.0533 14.5194 40.8933C12.2226 38.4577 10.9154 35.2538 10.8527 31.9067C11.0927 27.5333 12.8127 24.4933 15.2927 22.4C17.7019 20.4168 20.7324 19.3452 23.8527 19.3733C25.6742 19.4616 27.4572 19.9295 29.0874 20.7469C30.7176 21.5643 32.159 22.7132 33.3194 24.12C34.9861 26.1467 35.7194 28.3467 36.1061 31.68ZM23.4127 18C27.1427 17.9999 30.7215 19.4743 33.369 22.1018C36.0164 24.7293 37.5179 28.2968 37.5461 32.0267C37.5461 33.8774 37.1815 35.7101 36.4733 37.4199C35.765 39.1298 34.7269 40.6835 33.4182 41.9922C32.1095 43.3008 30.5559 44.339 28.846 45.0472C27.1361 45.7555 25.3035 46.12 23.4527 46.12C21.602 46.12 19.7693 45.7555 18.0594 45.0472C16.3496 44.339 14.7959 43.3008 13.4872 41.9922C12.1786 40.6835 11.1404 39.1298 10.4322 37.4199C9.72393 35.7101 9.3594 33.8774 9.3594 32.0267C9.34606 24.2933 15.6661 18 23.4127 18Z" fill="#FFFF00" stroke="black" stroke-width="0.08" stroke-linecap="round" stroke-linejoin="round"/>
<path fill-rule="evenodd" clip-rule="evenodd" d="M23.4534 17.9336C31.2134 17.9336 37.5334 24.2536 37.5334 32.0136C37.5334 39.7736 31.2134 46.0936 23.4667 46.0936C15.7201 46.0936 9.38672 39.7736 9.38672 32.0136C9.38672 24.2536 15.7067 17.9336 23.4667 17.9336H23.4534ZM9.68005 32.0003C9.68005 39.5736 15.9067 45.7736 23.4534 45.7736C31.0001 45.7736 37.2267 39.5736 37.2267 32.0003C37.2267 24.4269 31.0001 18.2269 23.4534 18.2269C15.9067 18.2269 9.68005 24.4269 9.68005 32.0003Z" fill="#FFFF00" stroke="black" stroke-width="0.08" stroke-linecap="round" stroke-linejoin="round"/>
<path fill-rule="evenodd" clip-rule="evenodd" d="M23.4676 19.1055C26.8838 19.116 30.1572 20.4778 32.5729 22.8935C34.9885 25.3092 36.3503 28.5825 36.3609 31.9988C36.3504 35.4163 34.989 38.691 32.5737 41.1089C30.1584 43.5267 26.8851 44.8914 23.4676 44.9055C16.4009 44.9055 10.5742 39.0921 10.5742 31.9988C10.5883 28.5836 11.9512 25.3123 14.3661 22.8973C16.781 20.4824 20.0524 19.1195 23.4676 19.1055ZM10.8809 31.9988C10.8809 38.9321 16.5609 44.5855 23.4676 44.5855C30.3742 44.5855 36.0542 38.9188 36.0542 31.9988C36.0542 25.0655 30.3742 19.4121 23.4676 19.4121C20.1337 19.4262 16.9404 20.7568 14.5829 23.1142C12.2255 25.4716 10.8949 28.6649 10.8809 31.9988Z" fill="#FFFF00" stroke="black" stroke-width="0.08" stroke-linecap="round" stroke-linejoin="round"/>
<path fill-rule="evenodd" clip-rule="evenodd" d="M24.0376 17.8672H22.8242V46.1739H24.0242L24.0376 17.8672Z" fill="#FFFF00" stroke="black" stroke-width="0.08" stroke-linecap="round" stroke-linejoin="round"/>
<path fill-rule="evenodd" clip-rule="evenodd" d="M23.907 17.707H24.2137V46.3337H23.9204V17.707H23.907ZM22.707 17.707H23.027V46.3337H22.7204L22.707 17.707Z" fill="#FFFF00" stroke="black" stroke-width="0.08" stroke-linecap="round" stroke-linejoin="round"/>
<path fill-rule="evenodd" clip-rule="evenodd" d="M37.547 32.561V31.521L36.6936 30.721L31.8536 29.441L24.8936 28.7344L16.4936 29.161L10.5203 30.5744L9.32031 31.4677V32.521L12.3736 31.1477L19.627 30.0144H26.6003L31.7203 30.5744L35.267 31.4277L37.547 32.561Z" fill="#FFFF00" stroke="black" stroke-width="0.08" stroke-linecap="round" stroke-linejoin="round"/>
<path fill-rule="evenodd" clip-rule="evenodd" d="M23.4659 29.8389C26.7859 29.8389 29.9992 30.1455 32.5725 30.6389C35.2125 31.1722 37.0659 31.8389 37.7059 32.5722V32.9455C36.9325 32.0122 34.4392 31.3455 32.5059 30.9455C29.9725 30.4655 26.7726 30.1455 23.4526 30.1455C19.9726 30.1455 16.7192 30.4922 14.2126 30.9722C12.2126 31.3722 9.53255 32.1722 9.19922 32.9455V32.5589C9.37255 32.0255 11.3726 31.2255 14.1726 30.6522C16.6926 30.1589 19.9459 29.8389 23.4526 29.8389H23.4659ZM23.4659 28.6255C26.5193 28.6194 29.567 28.8871 32.5725 29.4255C35.2125 29.9589 37.0659 30.6255 37.7059 31.3722V31.7322C36.9325 30.8122 34.4392 30.1322 32.5059 29.7455C29.9725 29.2522 26.7726 28.9455 23.4526 28.9455C20.3581 28.9357 17.2693 29.2125 14.2259 29.7722C12.2926 30.1322 9.50589 30.9589 9.19922 31.7322V31.3589C9.38589 30.8255 11.4126 29.9855 14.1726 29.4522C16.7059 28.9589 19.9459 28.6255 23.4659 28.6255ZM23.3859 22.4655C28.6259 22.4389 33.1992 23.1989 35.2926 24.2655L36.0525 25.5989C34.2392 24.6122 29.3059 23.5989 23.3992 23.7322C18.5859 23.7722 13.4392 24.2655 10.8659 25.6522L11.7726 24.1322C13.8926 23.0255 18.8792 22.4655 23.3859 22.4655Z" fill="#FFFF00" stroke="black" stroke-width="0.08" stroke-linecap="round" stroke-linejoin="round"/>
<path fill-rule="evenodd" clip-rule="evenodd" d="M23.4668 23.5599C26.2027 23.5137 28.9374 23.7056 31.6401 24.1332C33.7734 24.5332 35.8134 25.1199 36.1068 25.4399L36.3334 25.8399C35.6268 25.3866 33.8534 24.8666 31.5868 24.4399C29.3201 24.0132 26.4268 23.8666 23.4534 23.8799C20.0801 23.8666 17.4534 24.0399 15.2134 24.4399C13.6693 24.6563 12.1701 25.12 10.7734 25.8132L11.0001 25.3999C11.8001 24.9999 13.0401 24.5066 15.1468 24.1199C17.4801 23.6932 20.1334 23.5732 23.4668 23.5599ZM23.4668 22.3599C26.3201 22.3332 29.1468 22.4932 31.3468 22.8932C32.7721 23.1049 34.1515 23.5556 35.4268 24.2266L35.7601 24.7599C35.2001 24.1332 33.0934 23.5332 31.2134 23.2132C29.0268 22.8266 26.3201 22.6799 23.4668 22.6532C20.8107 22.6296 18.1572 22.8258 15.5334 23.2399C14.1615 23.4311 12.8291 23.8407 11.5868 24.4532L11.8801 24.0132C12.6534 23.6132 13.9068 23.2399 15.4801 22.9332C18.1211 22.5137 20.7928 22.3174 23.4668 22.3466V22.3599ZM30.4534 37.8666C28.1424 37.4665 25.7984 37.2879 23.4534 37.3332C14.7201 37.4399 11.9068 39.1332 11.5601 39.6399L10.8934 38.5732C13.1334 36.9732 17.8801 36.0666 23.5068 36.1466C26.4268 36.1999 28.9468 36.3999 31.0534 36.8132L30.4534 37.8799" fill="#FFFF00"/>
<path d="M30.4534 37.8666C28.1424 37.4665 25.7984 37.2879 23.4534 37.3332C14.7201 37.4399 11.9068 39.1332 11.5601 39.6399L10.8934 38.5732C13.1334 36.9732 17.8801 36.0666 23.5068 36.1466C26.4268 36.1999 28.9468 36.3999 31.0534 36.8132L30.4534 37.8799M23.4668 23.5599C26.2027 23.5137 28.9374 23.7056 31.6401 24.1332C33.7734 24.5332 35.8134 25.1199 36.1068 25.4399L36.3334 25.8399C35.6268 25.3866 33.8534 24.8666 31.5868 24.4399C29.3201 24.0132 26.4268 23.8666 23.4534 23.8799C20.0801 23.8666 17.4534 24.0399 15.2134 24.4399C13.6693 24.6563 12.1701 25.12 10.7734 25.8132L11.0001 25.3999C11.8001 24.9999 13.0401 24.5066 15.1468 24.1199C17.4801 23.6932 20.1334 23.5732 23.4668 23.5599ZM23.4668 22.3599C26.3201 22.3332 29.1468 22.4932 31.3468 22.8932C32.7721 23.1049 34.1515 23.5556 35.4268 24.2266L35.7601 24.7599C35.2001 24.1332 33.0934 23.5332 31.2134 23.2132C29.0268 22.8266 26.3201 22.6799 23.4668 22.6532C20.8107 22.6296 18.1572 22.8258 15.5334 23.2399C14.1615 23.4311 12.8291 23.8407 11.5868 24.4532L11.8801 24.0132C12.6534 23.6132 13.9068 23.2399 15.4801 22.9332C18.1211 22.5137 20.7928 22.3174 23.4668 22.3466V22.3599Z" stroke="black" stroke-width="0.08" stroke-linecap="round" stroke-linejoin="round"/>
<path fill-rule="evenodd" clip-rule="evenodd" d="M23.4118 37.1876C25.8385 37.2276 28.2118 37.321 30.5185 37.7476L30.3585 38.041C28.2252 37.641 25.9318 37.5076 23.4252 37.5076C20.1852 37.481 16.9318 37.7876 14.0918 38.601C13.1985 38.8543 11.7185 39.4276 11.5585 39.9076L11.3985 39.641C11.4518 39.3476 12.3318 38.761 14.0118 38.3076C17.2652 37.3743 20.3052 37.201 23.4118 37.1876ZM23.5185 35.961C26.0798 35.9583 28.6363 36.1814 31.1585 36.6276L30.9852 36.9343C28.5223 36.4825 26.0224 36.2638 23.5185 36.281C20.2918 36.281 16.8652 36.521 13.7452 37.4276C12.7452 37.721 10.9985 38.361 10.9452 38.8543L10.7852 38.561C10.8118 38.1076 12.3185 37.5076 13.6785 37.121C16.8118 36.201 20.2518 35.9743 23.5185 35.961Z" fill="#FFFF00" stroke="black" stroke-width="0.08" stroke-linecap="round" stroke-linejoin="round"/>
<path fill-rule="evenodd" clip-rule="evenodd" d="M35.9206 38.7324L34.8806 40.3724L31.854 37.6924L24.0406 32.4257L15.214 27.5857L10.6406 26.0257L11.614 24.2124L11.9473 24.0391L14.7873 24.7457L24.174 29.5857L29.5873 32.9991L34.134 36.2657L35.9873 38.3991L35.9206 38.7324Z" fill="#FFFF00" stroke="black" stroke-width="0.08" stroke-linecap="round" stroke-linejoin="round"/>
<path fill-rule="evenodd" clip-rule="evenodd" d="M10.478 26.0658C11.278 25.5325 17.1714 28.1458 23.358 31.8792C29.5047 35.6125 35.398 39.8258 34.8647 40.6125L34.6914 40.8925L34.6114 40.9592C34.6247 40.9458 34.718 40.8258 34.6114 40.5458C34.3447 39.6792 30.158 36.3458 23.238 32.1592C16.478 28.1458 10.8514 25.7192 10.3047 26.4125L10.478 26.0658ZM36.1314 38.7192C36.638 37.7058 31.1714 33.5858 24.3847 29.5725C17.4514 25.6392 12.438 23.3192 11.518 24.0125L11.3314 24.3992C11.3314 24.4125 11.3314 24.3725 11.3847 24.3325C11.5447 24.1992 11.8247 24.1992 11.9447 24.1992C13.518 24.2258 18.0114 26.2925 24.318 29.9058C27.0914 31.5058 35.998 37.2392 35.958 38.8392C35.958 38.9725 35.9714 38.9992 35.918 39.0792L36.1447 38.7325L36.1314 38.7192Z" fill="#FFFF00" stroke="black" stroke-width="0.08" stroke-linecap="round" stroke-linejoin="round"/>
<path d="M15.0156 33.5673C15.0177 34.6713 15.2388 35.764 15.666 36.782C16.0932 37.8 16.7181 38.7231 17.5045 39.498C18.2813 40.2868 19.2065 40.914 20.2268 41.3436C21.2471 41.7732 22.3424 41.9967 23.4494 42.0011C25.6899 42.001 27.8386 41.1108 29.4228 39.5264C30.2064 38.7473 30.8284 37.821 31.2531 36.8008C31.6778 35.7806 31.8967 34.6866 31.8975 33.5815V22.3175L15.0156 22.2891V33.5673Z" fill="white" stroke="black" stroke-width="0.0995559"/>
<path d="M15.3555 33.5829C15.3585 34.6419 15.5712 35.6898 15.9812 36.6662C16.3913 37.6427 16.9907 38.5282 17.7448 39.2718C19.259 40.7939 21.3152 41.6532 23.4622 41.6611C25.6054 41.6623 27.6616 40.8132 29.1795 39.3002C29.931 38.5555 30.5278 37.6694 30.9354 36.693C31.343 35.7167 31.5535 34.6693 31.5546 33.6113V22.6602H15.3555V33.5829ZM28.2977 25.9455V32.9002L28.2835 33.6255C28.2883 34.2609 28.1648 34.8907 27.9204 35.4772C27.6761 36.0637 27.3158 36.5949 26.8613 37.0389C25.9569 37.9464 24.7292 38.458 23.4479 38.4611C22.111 38.4611 20.9306 37.8922 20.0488 37.0104C19.1412 36.106 18.6297 34.8783 18.6266 33.5971V25.9171L28.2977 25.9455Z" fill="#FF0000" stroke="black" stroke-width="0.0711113"/>
<path d="M16.3789 25.5179C16.3931 24.7357 16.9478 24.5508 16.9478 24.5508C16.962 24.5508 17.5594 24.7499 17.5594 25.5321L16.3789 25.5179Z" fill="#FFFF00"/>
<path d="M15.8955 24.565L15.796 25.461H16.3933C16.3933 24.7214 16.9622 24.6077 16.9622 24.6077C16.9764 24.6077 17.5311 24.7641 17.5453 25.461H18.1426L18.0289 24.5508L15.8955 24.565ZM15.7533 25.4752H18.1711C18.2138 25.4752 18.2564 25.5179 18.2564 25.5748C18.2564 25.6459 18.2138 25.6886 18.1711 25.6886H15.7533C15.7106 25.6886 15.668 25.6459 15.668 25.5748C15.668 25.5179 15.7106 25.4752 15.7675 25.4752H15.7533Z" fill="#FFFF00" stroke="black" stroke-width="0.0711113"/>
<path d="M16.6368 25.4595C16.6368 24.9902 16.9639 24.8622 16.9639 24.8622C16.9639 24.8622 17.291 25.0044 17.291 25.4595H16.6368ZM15.8119 24.1795H18.1301C18.1728 24.1795 18.2155 24.2364 18.2155 24.2933C18.2155 24.336 18.1728 24.3787 18.1301 24.3787H15.8119C15.7692 24.3787 15.7266 24.336 15.7266 24.2791C15.7266 24.2364 15.7692 24.1938 15.8119 24.1938V24.1795ZM15.8688 24.3929H18.059C18.1017 24.3929 18.1443 24.4355 18.1443 24.4924C18.1443 24.5493 18.1017 24.592 18.059 24.592H15.8546C15.7977 24.592 15.7692 24.5493 15.7692 24.4924C15.7692 24.4355 15.7977 24.3929 15.8546 24.3929H15.8688ZM16.5799 22.8853H16.7506V22.9991H16.8786V22.8853H17.0635V23.0133H17.1915V22.8711H17.3621V23.1555C17.3621 23.2124 17.3337 23.2409 17.291 23.2409H16.6652C16.6226 23.2409 16.5799 23.2124 16.5799 23.1698V22.8853ZM17.2341 23.2693L17.2768 24.1795H16.6652L16.7079 23.2551H17.2341" fill="#FFFF00"/>
<path d="M17.2341 23.2693L17.2768 24.1795H16.6652L16.7079 23.2551H17.2341M16.6368 25.4595C16.6368 24.9902 16.9639 24.8622 16.9639 24.8622C16.9639 24.8622 17.291 25.0044 17.291 25.4595H16.6368ZM15.8119 24.1795H18.1301C18.1728 24.1795 18.2155 24.2364 18.2155 24.2933C18.2155 24.336 18.1728 24.3787 18.1301 24.3787H15.8119C15.7692 24.3787 15.7266 24.336 15.7266 24.2791C15.7266 24.2364 15.7692 24.1938 15.8119 24.1938V24.1795ZM15.8688 24.3929H18.059C18.1017 24.3929 18.1443 24.4355 18.1443 24.4924C18.1443 24.5493 18.1017 24.592 18.059 24.592H15.8546C15.7977 24.592 15.7692 24.5493 15.7692 24.4924C15.7692 24.4355 15.7977 24.3929 15.8546 24.3929H15.8688ZM16.5799 22.8853H16.7506V22.9991H16.8786V22.8853H17.0635V23.0133H17.1915V22.8711H17.3621V23.1555C17.3621 23.2124 17.3337 23.2409 17.291 23.2409H16.6652C16.6226 23.2409 16.5799 23.2124 16.5799 23.1698V22.8853Z" stroke="black" stroke-width="0.0711113"/>
<path d="M16.4947 23.6953V24.1789H15.9258V23.6953H16.4947Z" fill="#FFFF00" stroke="black" stroke-width="0.0711113"/>
<path d="M17.9986 23.6953V24.1789H17.4297V23.6953H17.9986Z" fill="#FFFF00" stroke="black" stroke-width="0.0711113"/>
<path d="M15.8242 23.3281H15.9949V23.4703H16.1229V23.3281H16.2936V23.4703H16.4216V23.3281H16.5922V23.6126C16.5922 23.6695 16.5638 23.6979 16.5211 23.6979H15.9096C15.8869 23.6979 15.8652 23.6889 15.8492 23.6729C15.8332 23.6569 15.8242 23.6352 15.8242 23.6126V23.3281Z" fill="#FFFF00" stroke="black" stroke-width="0.0711113"/>
<path d="M17.332 23.3281H17.5027V23.4703H17.6307V23.3281H17.8014V23.4703H17.9294V23.3281H18.1V23.6126C18.1 23.6695 18.0716 23.6979 18.0289 23.6979H17.4174C17.3947 23.6979 17.373 23.6889 17.357 23.6729C17.341 23.6569 17.332 23.6352 17.332 23.6126V23.3281Z" fill="#FFFF00" stroke="black" stroke-width="0.0711113"/>
<path d="M16.9062 23.5523C16.9062 23.4669 17.0343 23.4669 17.0343 23.5523V23.7798H16.9062V23.5523Z" fill="#000001"/>
<path d="M16.1523 23.8648C16.1523 23.7794 16.2661 23.7794 16.2661 23.8648V24.0354H16.1523V23.8648Z" fill="#000001"/>
<path d="M17.6602 23.8648C17.6602 23.7794 17.7739 23.7794 17.7739 23.8648V24.0354H17.6602V23.8648Z" fill="#000001"/>
<path d="M16.3789 32.1038C16.3931 31.3216 16.9478 31.1367 16.9478 31.1367C16.962 31.1367 17.5594 31.3358 17.5594 32.1181L16.3789 32.1038Z" fill="#FFFF00"/>
<path d="M15.8955 31.1509L15.796 32.0469H16.3933C16.3933 31.3074 16.9622 31.1936 16.9622 31.1936C16.9764 31.1936 17.5311 31.3501 17.5453 32.0469H18.1426L18.0289 31.1367L15.8955 31.1509ZM15.7533 32.0612H18.1711C18.2138 32.0612 18.2564 32.1038 18.2564 32.1607C18.2564 32.2318 18.2138 32.2745 18.1711 32.2745H15.7533C15.7106 32.2745 15.668 32.2318 15.668 32.1607C15.668 32.1038 15.7106 32.0612 15.7675 32.0612H15.7533Z" fill="#FFFF00" stroke="black" stroke-width="0.0711113"/>
<path d="M16.6368 32.0455C16.6368 31.5761 16.9639 31.4481 16.9639 31.4481C16.9639 31.4481 17.291 31.5904 17.291 32.0455H16.6368ZM15.8119 30.7655H18.1301C18.1728 30.7655 18.2155 30.8224 18.2155 30.8793C18.2155 30.9219 18.1728 30.9646 18.1301 30.9646H15.8119C15.7692 30.9646 15.7266 30.9219 15.7266 30.865C15.7266 30.8224 15.7692 30.7797 15.8119 30.7797V30.7655ZM15.8688 30.9788H18.059C18.1017 30.9788 18.1443 31.0215 18.1443 31.0784C18.1443 31.1353 18.1017 31.1779 18.059 31.1779H15.8546C15.7977 31.1779 15.7692 31.1353 15.7692 31.0784C15.7692 31.0215 15.7977 30.9788 15.8546 30.9788H15.8688ZM16.5799 29.4713H16.7506V29.585H16.8786V29.4713H17.0635V29.5993H17.1915V29.457H17.3621V29.7415C17.3621 29.7984 17.3337 29.8268 17.291 29.8268H16.6652C16.6226 29.8268 16.5799 29.7984 16.5799 29.7557V29.4713ZM17.2341 29.8553L17.2768 30.7655H16.6652L16.7079 29.841H17.2341" fill="#FFFF00"/>
<path d="M17.2341 29.8553L17.2768 30.7655H16.6652L16.7079 29.841H17.2341M16.6368 32.0455C16.6368 31.5761 16.9639 31.4481 16.9639 31.4481C16.9639 31.4481 17.291 31.5904 17.291 32.0455H16.6368ZM15.8119 30.7655H18.1301C18.1728 30.7655 18.2155 30.8224 18.2155 30.8793C18.2155 30.9219 18.1728 30.9646 18.1301 30.9646H15.8119C15.7692 30.9646 15.7266 30.9219 15.7266 30.865C15.7266 30.8224 15.7692 30.7797 15.8119 30.7797V30.7655ZM15.8688 30.9788H18.059C18.1017 30.9788 18.1443 31.0215 18.1443 31.0784C18.1443 31.1353 18.1017 31.1779 18.059 31.1779H15.8546C15.7977 31.1779 15.7692 31.1353 15.7692 31.0784C15.7692 31.0215 15.7977 30.9788 15.8546 30.9788H15.8688ZM16.5799 29.4713H16.7506V29.585H16.8786V29.4713H17.0635V29.5993H17.1915V29.457H17.3621V29.7415C17.3621 29.7984 17.3337 29.8268 17.291 29.8268H16.6652C16.6226 29.8268 16.5799 29.7984 16.5799 29.7557V29.4713Z" stroke="black" stroke-width="0.0711113"/>
<path d="M16.4947 30.2812V30.7648H15.9258V30.2812H16.4947Z" fill="#FFFF00" stroke="black" stroke-width="0.0711113"/>
<path d="M17.9986 30.2812V30.7648H17.4297V30.2812H17.9986Z" fill="#FFFF00" stroke="black" stroke-width="0.0711113"/>
<path d="M15.8242 29.9141H15.9949V30.0563H16.1229V29.9141H16.2936V30.0563H16.4216V29.9141H16.5922V30.1985C16.5922 30.2554 16.5638 30.2838 16.5211 30.2838H15.9096C15.8869 30.2838 15.8652 30.2749 15.8492 30.2588C15.8332 30.2428 15.8242 30.2211 15.8242 30.1985V29.9141Z" fill="#FFFF00" stroke="black" stroke-width="0.0711113"/>
<path d="M17.332 29.9141H17.5027V30.0563H17.6307V29.9141H17.8014V30.0563H17.9294V29.9141H18.1V30.1985C18.1 30.2554 18.0716 30.2838 18.0289 30.2838H17.4174C17.3947 30.2838 17.373 30.2749 17.357 30.2588C17.341 30.2428 17.332 30.2211 17.332 30.1985V29.9141Z" fill="#FFFF00" stroke="black" stroke-width="0.0711113"/>
<path d="M16.9062 30.1382C16.9062 30.0529 17.0343 30.0529 17.0343 30.1382V30.3658H16.9062V30.1382Z" fill="#000001"/>
<path d="M16.1523 30.4507C16.1523 30.3654 16.2661 30.3654 16.2661 30.4507V30.6214H16.1523V30.4507Z" fill="#000001"/>
<path d="M17.6602 30.4507C17.6602 30.3654 17.7739 30.3654 17.7739 30.4507V30.6214H17.6602V30.4507Z" fill="#000001"/>
<path d="M18.944 38.9666C18.399 38.4053 18.6587 37.8815 18.6587 37.8815C18.6687 37.8714 19.2309 37.5878 19.7859 38.139L18.944 38.9666Z" fill="#FFFF00"/>
<path d="M17.9282 38.6376L18.4939 39.3396L18.9148 38.9158C18.39 38.3946 18.7101 37.9108 18.7101 37.9108C18.7202 37.9007 19.222 37.6174 19.7265 38.0983L20.1474 37.6745L19.4214 37.1138L17.9282 38.6376ZM18.4739 39.3799L20.1776 37.6643C20.2076 37.634 20.268 37.6338 20.3083 37.6739C20.3588 37.724 20.359 37.7844 20.3289 37.8146L18.6253 39.5302C18.5952 39.5605 18.5349 39.5607 18.4844 39.5106C18.444 39.4705 18.4438 39.4102 18.4839 39.3698L18.4739 39.3799Z" fill="#FFFF00" stroke="black" stroke-width="0.0711113"/>
<path d="M19.0835 38.7444C18.7505 38.4137 18.8902 38.0914 18.8902 38.0914C18.8902 38.0914 19.2216 37.9595 19.5445 38.2802L19.0835 38.7444ZM17.594 38.4278L19.2275 36.7829C19.2576 36.7526 19.328 36.7624 19.3684 36.8025C19.3987 36.8326 19.3989 36.8929 19.3688 36.9232L17.7353 38.5681C17.7053 38.5984 17.6449 38.5986 17.6045 38.5585C17.5743 38.5285 17.5741 38.4681 17.6041 38.4379L17.594 38.4278ZM17.7855 38.5378L19.3288 36.9837C19.3589 36.9534 19.4192 36.9532 19.4596 36.9933C19.4999 37.0334 19.5002 37.0937 19.4701 37.124L17.9168 38.6882C17.8767 38.7285 17.8264 38.7187 17.786 38.6786C17.7456 38.6385 17.7354 38.5882 17.7755 38.5479L17.7855 38.5378ZM17.2168 36.9709L17.3371 36.8498L17.4178 36.93L17.508 36.8392L17.4273 36.759L17.5576 36.6278L17.6484 36.718L17.7386 36.6272L17.6377 36.527L17.7579 36.4059L17.9598 36.6063C18.0001 36.6464 18.0003 36.6866 17.9702 36.7169L17.5293 37.1609C17.4992 37.1912 17.449 37.2014 17.4187 37.1714L17.2168 36.9709ZM17.9503 36.7773L18.6262 37.3884L18.1953 37.8223L17.5694 37.1407L17.9402 36.7673" fill="#FFFF00"/>
<path d="M17.9503 36.7773L18.6262 37.3884L18.1953 37.8223L17.5694 37.1407L17.9402 36.7673M19.0835 38.7444C18.7505 38.4137 18.8902 38.0914 18.8902 38.0914C18.8902 38.0914 19.2216 37.9595 19.5445 38.2802L19.0835 38.7444ZM17.594 38.4278L19.2275 36.7829C19.2576 36.7526 19.328 36.7624 19.3684 36.8025C19.3987 36.8326 19.3989 36.8929 19.3688 36.9232L17.7353 38.5681C17.7053 38.5984 17.6449 38.5986 17.6045 38.5585C17.5743 38.5285 17.5741 38.4681 17.6041 38.4379L17.594 38.4278ZM17.7855 38.5378L19.3288 36.9837C19.3589 36.9534 19.4192 36.9532 19.4596 36.9933C19.4999 37.0334 19.5002 37.0937 19.4701 37.124L17.9168 38.6882C17.8767 38.7285 17.8264 38.7187 17.786 38.6786C17.7456 38.6385 17.7354 38.5882 17.7755 38.5479L17.7855 38.5378ZM17.2168 36.9709L17.3371 36.8498L17.4178 36.93L17.508 36.8392L17.4273 36.759L17.5576 36.6278L17.6484 36.718L17.7386 36.6272L17.6377 36.527L17.7579 36.4059L17.9598 36.6063C18.0001 36.6464 18.0003 36.6866 17.9702 36.7169L17.5293 37.1609C17.4992 37.1912 17.449 37.2014 17.4187 37.1714L17.2168 36.9709Z" stroke="black" stroke-width="0.0711113"/>
<path d="M17.7329 37.6002L18.076 37.941L17.6751 38.3446L17.332 38.0039L17.7329 37.6002Z" fill="#FFFF00" stroke="black" stroke-width="0.0711113"/>
<path d="M18.7954 36.5299L19.1385 36.8707L18.7376 37.2743L18.3945 36.9336L18.7954 36.5299Z" fill="#FFFF00" stroke="black" stroke-width="0.0711113"/>
<path d="M17 37.8164L17.1203 37.6953L17.2212 37.7955L17.3114 37.7047L17.2105 37.6045L17.3307 37.4834L17.4316 37.5836L17.5218 37.4928L17.4209 37.3926L17.5412 37.2715L17.743 37.4719C17.7834 37.512 17.7835 37.5522 17.7534 37.5825L17.3225 38.0164C17.3066 38.0325 17.2849 38.0415 17.2623 38.0416C17.2396 38.0417 17.2179 38.0328 17.2018 38.0168L17 37.8164Z" fill="#FFFF00" stroke="black" stroke-width="0.0711113"/>
<path d="M18.0625 36.7461L18.1828 36.625L18.2837 36.7252L18.3739 36.6344L18.273 36.5342L18.3932 36.4131L18.4941 36.5133L18.5843 36.4225L18.4834 36.3222L18.6037 36.2011L18.8055 36.4016C18.8459 36.4417 18.846 36.4819 18.8159 36.5122L18.385 36.9461C18.3691 36.9622 18.3474 36.9712 18.3248 36.9713C18.3021 36.9714 18.2804 36.9625 18.2643 36.9465L18.0625 36.7461Z" fill="#FFFF00" stroke="black" stroke-width="0.0711113"/>
<path d="M17.9243 37.2092C17.8638 37.149 17.954 37.0582 18.0145 37.1183L18.176 37.2787L18.0858 37.3695L17.9243 37.2092Z" fill="#000001"/>
<path d="M17.6118 37.9631C17.5513 37.9029 17.6314 37.8222 17.692 37.8823L17.8131 38.0026L17.7329 38.0833L17.6118 37.9631Z" fill="#000001"/>
<path d="M18.6743 36.8928C18.6138 36.8326 18.6939 36.7519 18.7545 36.812L18.8756 36.9323L18.7954 37.013L18.6743 36.8928Z" fill="#000001"/>
<path d="M22.8789 25.5179C22.8931 24.7357 23.4478 24.5508 23.4478 24.5508C23.462 24.5508 24.0594 24.7499 24.0594 25.5321L22.8789 25.5179Z" fill="#FFFF00"/>
<path d="M22.3955 24.565L22.296 25.461H22.8933C22.8933 24.7214 23.4622 24.6077 23.4622 24.6077C23.4764 24.6077 24.0311 24.7641 24.0453 25.461H24.6426L24.5289 24.5508L22.3955 24.565ZM22.2533 25.4752H24.6711C24.7138 25.4752 24.7564 25.5179 24.7564 25.5748C24.7564 25.6459 24.7138 25.6886 24.6711 25.6886H22.2533C22.2106 25.6886 22.168 25.6459 22.168 25.5748C22.168 25.5179 22.2106 25.4752 22.2675 25.4752H22.2533Z" fill="#FFFF00" stroke="black" stroke-width="0.0711113"/>
<path d="M23.1368 25.4595C23.1368 24.9902 23.4639 24.8622 23.4639 24.8622C23.4639 24.8622 23.791 25.0044 23.791 25.4595H23.1368ZM22.3119 24.1795H24.6301C24.6728 24.1795 24.7155 24.2364 24.7155 24.2933C24.7155 24.336 24.6728 24.3787 24.6301 24.3787H22.3119C22.2692 24.3787 22.2266 24.336 22.2266 24.2791C22.2266 24.2364 22.2692 24.1938 22.3119 24.1938V24.1795ZM22.3688 24.3929H24.559C24.6017 24.3929 24.6443 24.4355 24.6443 24.4924C24.6443 24.5493 24.6017 24.592 24.559 24.592H22.3546C22.2977 24.592 22.2692 24.5493 22.2692 24.4924C22.2692 24.4355 22.2977 24.3929 22.3546 24.3929H22.3688ZM23.0799 22.8853H23.2506V22.9991H23.3786V22.8853H23.5635V23.0133H23.6915V22.8711H23.8621V23.1555C23.8621 23.2124 23.8337 23.2409 23.791 23.2409H23.1652C23.1226 23.2409 23.0799 23.2124 23.0799 23.1698V22.8853ZM23.7341 23.2693L23.7768 24.1795H23.1652L23.2079 23.2551H23.7341" fill="#FFFF00"/>
<path d="M23.7341 23.2693L23.7768 24.1795H23.1652L23.2079 23.2551H23.7341M23.1368 25.4595C23.1368 24.9902 23.4639 24.8622 23.4639 24.8622C23.4639 24.8622 23.791 25.0044 23.791 25.4595H23.1368ZM22.3119 24.1795H24.6301C24.6728 24.1795 24.7155 24.2364 24.7155 24.2933C24.7155 24.336 24.6728 24.3787 24.6301 24.3787H22.3119C22.2692 24.3787 22.2266 24.336 22.2266 24.2791C22.2266 24.2364 22.2692 24.1938 22.3119 24.1938V24.1795ZM22.3688 24.3929H24.559C24.6017 24.3929 24.6443 24.4355 24.6443 24.4924C24.6443 24.5493 24.6017 24.592 24.559 24.592H22.3546C22.2977 24.592 22.2692 24.5493 22.2692 24.4924C22.2692 24.4355 22.2977 24.3929 22.3546 24.3929H22.3688ZM23.0799 22.8853H23.2506V22.9991H23.3786V22.8853H23.5635V23.0133H23.6915V22.8711H23.8621V23.1555C23.8621 23.2124 23.8337 23.2409 23.791 23.2409H23.1652C23.1226 23.2409 23.0799 23.2124 23.0799 23.1698V22.8853Z" stroke="black" stroke-width="0.0711113"/>
<path d="M22.9947 23.6953V24.1789H22.4258V23.6953H22.9947Z" fill="#FFFF00" stroke="black" stroke-width="0.0711113"/>
<path d="M24.4986 23.6953V24.1789H23.9297V23.6953H24.4986Z" fill="#FFFF00" stroke="black" stroke-width="0.0711113"/>
<path d="M22.3242 23.3281H22.4949V23.4703H22.6229V23.3281H22.7936V23.4703H22.9216V23.3281H23.0922V23.6126C23.0922 23.6695 23.0638 23.6979 23.0211 23.6979H22.4096C22.3869 23.6979 22.3652 23.6889 22.3492 23.6729C22.3332 23.6569 22.3242 23.6352 22.3242 23.6126V23.3281Z" fill="#FFFF00" stroke="black" stroke-width="0.0711113"/>
<path d="M23.832 23.3281H24.0027V23.4703H24.1307V23.3281H24.3014V23.4703H24.4294V23.3281H24.6V23.6126C24.6 23.6695 24.5716 23.6979 24.5289 23.6979H23.9174C23.8947 23.6979 23.873 23.6889 23.857 23.6729C23.841 23.6569 23.832 23.6352 23.832 23.6126V23.3281Z" fill="#FFFF00" stroke="black" stroke-width="0.0711113"/>
<path d="M23.4062 23.5523C23.4062 23.4669 23.5343 23.4669 23.5343 23.5523V23.7798H23.4062V23.5523Z" fill="#000001"/>
<path d="M22.6523 23.8648C22.6523 23.7794 22.7661 23.7794 22.7661 23.8648V24.0354H22.6523V23.8648Z" fill="#000001"/>
<path d="M24.1602 23.8648C24.1602 23.7794 24.2739 23.7794 24.2739 23.8648V24.0354H24.1602V23.8648Z" fill="#000001"/>
<path d="M30.5195 25.5179C30.5053 24.7357 29.9506 24.5508 29.9506 24.5508C29.9364 24.5508 29.3391 24.7499 29.3391 25.5321L30.5195 25.5179Z" fill="#FFFF00"/>
<path d="M31.0029 24.565L31.1025 25.461H30.5051C30.5051 24.7214 29.9362 24.6077 29.9362 24.6077C29.922 24.6077 29.3674 24.7641 29.3531 25.461H28.7558L28.8696 24.5508L31.0029 24.565ZM31.1451 25.4752H28.7273C28.6847 25.4752 28.642 25.5179 28.642 25.5748C28.642 25.6459 28.6847 25.6886 28.7273 25.6886H31.1451C31.1878 25.6886 31.2305 25.6459 31.2305 25.5748C31.2305 25.5179 31.1878 25.4752 31.1309 25.4752H31.1451Z" fill="#FFFF00" stroke="black" stroke-width="0.0711113"/>
<path d="M30.2617 25.4595C30.2617 24.9902 29.9345 24.8622 29.9345 24.8622C29.9345 24.8622 29.6074 25.0044 29.6074 25.4595H30.2617ZM31.0865 24.1795H28.7683C28.7256 24.1795 28.683 24.2364 28.683 24.2933C28.683 24.336 28.7256 24.3787 28.7683 24.3787H31.0865C31.1292 24.3787 31.1719 24.336 31.1719 24.2791C31.1719 24.2364 31.1292 24.1938 31.0865 24.1938V24.1795ZM31.0297 24.3929H28.8394C28.7968 24.3929 28.7541 24.4355 28.7541 24.4924C28.7541 24.5493 28.7968 24.592 28.8394 24.592H31.0439C31.1008 24.592 31.1292 24.5493 31.1292 24.4924C31.1292 24.4355 31.1008 24.3929 31.0439 24.3929H31.0297ZM30.3185 22.8853H30.1479V22.9991H30.0199V22.8853H29.835V23.0133H29.707V22.8711H29.5363V23.1555C29.5363 23.2124 29.5648 23.2409 29.6074 23.2409H30.2332C30.2759 23.2409 30.3185 23.2124 30.3185 23.1698V22.8853ZM29.6643 23.2693L29.6216 24.1795H30.2332L30.1905 23.2551H29.6643" fill="#FFFF00"/>
<path d="M29.6643 23.2693L29.6216 24.1795H30.2332L30.1905 23.2551H29.6643M30.2617 25.4595C30.2617 24.9902 29.9345 24.8622 29.9345 24.8622C29.9345 24.8622 29.6074 25.0044 29.6074 25.4595H30.2617ZM31.0865 24.1795H28.7683C28.7256 24.1795 28.683 24.2364 28.683 24.2933C28.683 24.336 28.7256 24.3787 28.7683 24.3787H31.0865C31.1292 24.3787 31.1719 24.336 31.1719 24.2791C31.1719 24.2364 31.1292 24.1938 31.0865 24.1938V24.1795ZM31.0297 24.3929H28.8394C28.7968 24.3929 28.7541 24.4355 28.7541 24.4924C28.7541 24.5493 28.7968 24.592 28.8394 24.592H31.0439C31.1008 24.592 31.1292 24.5493 31.1292 24.4924C31.1292 24.4355 31.1008 24.3929 31.0439 24.3929H31.0297ZM30.3185 22.8853H30.1479V22.9991H30.0199V22.8853H29.835V23.0133H29.707V22.8711H29.5363V23.1555C29.5363 23.2124 29.5648 23.2409 29.6074 23.2409H30.2332C30.2759 23.2409 30.3185 23.2124 30.3185 23.1698V22.8853Z" stroke="black" stroke-width="0.0711113"/>
<path d="M30.4038 23.6953V24.1789H30.9727V23.6953H30.4038Z" fill="#FFFF00" stroke="black" stroke-width="0.0711113"/>
<path d="M28.8999 23.6953V24.1789H29.4688V23.6953H28.8999Z" fill="#FFFF00" stroke="black" stroke-width="0.0711113"/>
<path d="M31.0742 23.3281H30.9036V23.4703H30.7756V23.3281H30.6049V23.4703H30.4769V23.3281H30.3062V23.6126C30.3062 23.6695 30.3347 23.6979 30.3773 23.6979H30.9889C31.0115 23.6979 31.0332 23.6889 31.0492 23.6729C31.0652 23.6569 31.0742 23.6352 31.0742 23.6126V23.3281Z" fill="#FFFF00" stroke="black" stroke-width="0.0711113"/>
<path d="M29.5664 23.3281H29.3957V23.4703H29.2677V23.3281H29.0971V23.4703H28.9691V23.3281H28.7984V23.6126C28.7984 23.6695 28.8268 23.6979 28.8695 23.6979H29.4811C29.5037 23.6979 29.5254 23.6889 29.5414 23.6729C29.5574 23.6569 29.5664 23.6352 29.5664 23.6126V23.3281Z" fill="#FFFF00" stroke="black" stroke-width="0.0711113"/>
<path d="M29.9922 23.5523C29.9922 23.4669 29.8642 23.4669 29.8642 23.5523V23.7798H29.9922V23.5523Z" fill="#000001"/>
<path d="M30.7461 23.8648C30.7461 23.7794 30.6323 23.7794 30.6323 23.8648V24.0354H30.7461V23.8648Z" fill="#000001"/>
<path d="M29.2383 23.8648C29.2383 23.7794 29.1245 23.7794 29.1245 23.8648V24.0354H29.2383V23.8648Z" fill="#000001"/>
<path d="M30.5195 32.1038C30.5053 31.3216 29.9506 31.1367 29.9506 31.1367C29.9364 31.1367 29.3391 31.3358 29.3391 32.1181L30.5195 32.1038Z" fill="#FFFF00"/>
<path d="M31.0029 31.1509L31.1025 32.0469H30.5051C30.5051 31.3074 29.9362 31.1936 29.9362 31.1936C29.922 31.1936 29.3674 31.3501 29.3531 32.0469H28.7558L28.8696 31.1367L31.0029 31.1509ZM31.1451 32.0612H28.7273C28.6847 32.0612 28.642 32.1038 28.642 32.1607C28.642 32.2318 28.6847 32.2745 28.7273 32.2745H31.1451C31.1878 32.2745 31.2305 32.2318 31.2305 32.1607C31.2305 32.1038 31.1878 32.0612 31.1309 32.0612H31.1451Z" fill="#FFFF00" stroke="black" stroke-width="0.0711113"/>
<path d="M30.2617 32.0455C30.2617 31.5761 29.9345 31.4481 29.9345 31.4481C29.9345 31.4481 29.6074 31.5904 29.6074 32.0455H30.2617ZM31.0865 30.7655H28.7683C28.7256 30.7655 28.683 30.8224 28.683 30.8793C28.683 30.9219 28.7256 30.9646 28.7683 30.9646H31.0865C31.1292 30.9646 31.1719 30.9219 31.1719 30.865C31.1719 30.8224 31.1292 30.7797 31.0865 30.7797V30.7655ZM31.0297 30.9788H28.8394C28.7968 30.9788 28.7541 31.0215 28.7541 31.0784C28.7541 31.1353 28.7968 31.1779 28.8394 31.1779H31.0439C31.1008 31.1779 31.1292 31.1353 31.1292 31.0784C31.1292 31.0215 31.1008 30.9788 31.0439 30.9788H31.0297ZM30.3185 29.4713H30.1479V29.585H30.0199V29.4713H29.835V29.5993H29.707V29.457H29.5363V29.7415C29.5363 29.7984 29.5648 29.8268 29.6074 29.8268H30.2332C30.2759 29.8268 30.3185 29.7984 30.3185 29.7557V29.4713ZM29.6643 29.8553L29.6216 30.7655H30.2332L30.1905 29.841H29.6643" fill="#FFFF00"/>
<path d="M29.6643 29.8553L29.6216 30.7655H30.2332L30.1905 29.841H29.6643M30.2617 32.0455C30.2617 31.5761 29.9345 31.4481 29.9345 31.4481C29.9345 31.4481 29.6074 31.5904 29.6074 32.0455H30.2617ZM31.0865 30.7655H28.7683C28.7256 30.7655 28.683 30.8224 28.683 30.8793C28.683 30.9219 28.7256 30.9646 28.7683 30.9646H31.0865C31.1292 30.9646 31.1719 30.9219 31.1719 30.865C31.1719 30.8224 31.1292 30.7797 31.0865 30.7797V30.7655ZM31.0297 30.9788H28.8394C28.7968 30.9788 28.7541 31.0215 28.7541 31.0784C28.7541 31.1353 28.7968 31.1779 28.8394 31.1779H31.0439C31.1008 31.1779 31.1292 31.1353 31.1292 31.0784C31.1292 31.0215 31.1008 30.9788 31.0439 30.9788H31.0297ZM30.3185 29.4713H30.1479V29.585H30.0199V29.4713H29.835V29.5993H29.707V29.457H29.5363V29.7415C29.5363 29.7984 29.5648 29.8268 29.6074 29.8268H30.2332C30.2759 29.8268 30.3185 29.7984 30.3185 29.7557V29.4713Z" stroke="black" stroke-width="0.0711113"/>
<path d="M30.4038 30.2812V30.7648H30.9727V30.2812H30.4038Z" fill="#FFFF00" stroke="black" stroke-width="0.0711113"/>
<path d="M28.8999 30.2812V30.7648H29.4688V30.2812H28.8999Z" fill="#FFFF00" stroke="black" stroke-width="0.0711113"/>
<path d="M31.0742 29.9141H30.9036V30.0563H30.7756V29.9141H30.6049V30.0563H30.4769V29.9141H30.3062V30.1985C30.3062 30.2554 30.3347 30.2838 30.3773 30.2838H30.9889C31.0115 30.2838 31.0332 30.2749 31.0492 30.2588C31.0652 30.2428 31.0742 30.2211 31.0742 30.1985V29.9141Z" fill="#FFFF00" stroke="black" stroke-width="0.0711113"/>
<path d="M29.5664 29.9141H29.3957V30.0563H29.2677V29.9141H29.0971V30.0563H28.9691V29.9141H28.7984V30.1985C28.7984 30.2554 28.8268 30.2838 28.8695 30.2838H29.4811C29.5037 30.2838 29.5254 30.2749 29.5414 30.2588C29.5574 30.2428 29.5664 30.2211 29.5664 30.1985V29.9141Z" fill="#FFFF00" stroke="black" stroke-width="0.0711113"/>
<path d="M29.9922 30.1382C29.9922 30.0529 29.8642 30.0529 29.8642 30.1382V30.3658H29.9922V30.1382Z" fill="#000001"/>
<path d="M30.7461 30.4507C30.7461 30.3654 30.6323 30.3654 30.6323 30.4507V30.6214H30.7461V30.4507Z" fill="#000001"/>
<path d="M29.2383 30.4507C29.2383 30.3654 29.1245 30.3654 29.1245 30.4507V30.6214H29.2383V30.4507Z" fill="#000001"/>
<path d="M27.9544 38.9666C28.4994 38.4053 28.2398 37.8815 28.2398 37.8815C28.2297 37.8714 27.6676 37.5878 27.1125 38.139L27.9544 38.9666Z" fill="#FFFF00"/>
<path d="M28.9702 38.6376L28.4046 39.3396L27.9837 38.9158C28.5084 38.3946 28.1883 37.9108 28.1883 37.9108C28.1783 37.9007 27.6764 37.6174 27.1719 38.0983L26.751 37.6745L27.4771 37.1138L28.9702 38.6376ZM28.4245 39.3799L26.7209 37.6643C26.6908 37.634 26.6305 37.6338 26.5901 37.6739C26.5397 37.724 26.5394 37.7844 26.5695 37.8146L28.2732 39.5302C28.3032 39.5605 28.3636 39.5607 28.414 39.5106C28.4544 39.4705 28.4546 39.4102 28.4145 39.3698L28.4245 39.3799Z" fill="#FFFF00" stroke="black" stroke-width="0.0711113"/>
<path d="M27.8149 38.7444C28.1479 38.4137 28.0083 38.0914 28.0083 38.0914C28.0083 38.0914 27.6768 37.9595 27.3539 38.2802L27.8149 38.7444ZM29.3044 38.4278L27.6709 36.7829C27.6408 36.7526 27.5704 36.7624 27.53 36.8025C27.4998 36.8326 27.4996 36.8929 27.5296 36.9232L29.1631 38.5681C29.1932 38.5984 29.2535 38.5986 29.2939 38.5585C29.3242 38.5285 29.3244 38.4681 29.2943 38.4379L29.3044 38.4278ZM29.1129 38.5378L27.5696 36.9837C27.5396 36.9534 27.4792 36.9532 27.4389 36.9933C27.3985 37.0334 27.3983 37.0937 27.4283 37.124L28.9817 38.6882C29.0218 38.7285 29.0721 38.7187 29.1125 38.6786C29.1528 38.6385 29.163 38.5882 29.123 38.5479L29.1129 38.5378ZM29.6816 36.9709L29.5613 36.8498L29.4806 36.93L29.3904 36.8392L29.4711 36.759L29.3409 36.6278L29.25 36.718L29.1598 36.6272L29.2608 36.527L29.1405 36.4059L28.9387 36.6063C28.8983 36.6464 28.8982 36.6866 28.9282 36.7169L29.3692 37.1609C29.3992 37.1912 29.4495 37.2014 29.4798 37.1714L29.6816 36.9709ZM28.9481 36.7773L28.2722 37.3884L28.7031 37.8223L29.329 37.1407L28.9582 36.7673" fill="#FFFF00"/>
<path d="M28.9481 36.7773L28.2722 37.3884L28.7031 37.8223L29.329 37.1407L28.9582 36.7673M27.8149 38.7444C28.1479 38.4137 28.0083 38.0914 28.0083 38.0914C28.0083 38.0914 27.6768 37.9595 27.3539 38.2802L27.8149 38.7444ZM29.3044 38.4278L27.6709 36.7829C27.6408 36.7526 27.5704 36.7624 27.53 36.8025C27.4998 36.8326 27.4996 36.8929 27.5296 36.9232L29.1631 38.5681C29.1932 38.5984 29.2535 38.5986 29.2939 38.5585C29.3242 38.5285 29.3244 38.4681 29.2943 38.4379L29.3044 38.4278ZM29.1129 38.5378L27.5696 36.9837C27.5396 36.9534 27.4792 36.9532 27.4389 36.9933C27.3985 37.0334 27.3983 37.0937 27.4283 37.124L28.9817 38.6882C29.0218 38.7285 29.0721 38.7187 29.1125 38.6786C29.1528 38.6385 29.163 38.5882 29.123 38.5479L29.1129 38.5378ZM29.6816 36.9709L29.5613 36.8498L29.4806 36.93L29.3904 36.8392L29.4711 36.759L29.3409 36.6278L29.25 36.718L29.1598 36.6272L29.2608 36.527L29.1405 36.4059L28.9387 36.6063C28.8983 36.6464 28.8982 36.6866 28.9282 36.7169L29.3692 37.1609C29.3992 37.1912 29.4495 37.2014 29.4798 37.1714L29.6816 36.9709Z" stroke="black" stroke-width="0.0711113"/>
<path d="M29.1655 37.6002L28.8224 37.941L29.2233 38.3446L29.5664 38.0039L29.1655 37.6002Z" fill="#FFFF00" stroke="black" stroke-width="0.0711113"/>
<path d="M28.103 36.5299L27.7599 36.8707L28.1608 37.2743L28.5039 36.9336L28.103 36.5299Z" fill="#FFFF00" stroke="black" stroke-width="0.0711113"/>
<path d="M29.8984 37.8164L29.7782 37.6953L29.6773 37.7955L29.5871 37.7047L29.688 37.6045L29.5677 37.4834L29.4668 37.5836L29.3766 37.4928L29.4775 37.3926L29.3573 37.2715L29.1554 37.4719C29.1151 37.512 29.1149 37.5522 29.145 37.5825L29.5759 38.0164C29.5919 38.0325 29.6135 38.0415 29.6362 38.0416C29.6588 38.0417 29.6805 38.0328 29.6966 38.0168L29.8984 37.8164Z" fill="#FFFF00" stroke="black" stroke-width="0.0711113"/>
<path d="M28.8359 36.7461L28.7157 36.625L28.6148 36.7252L28.5246 36.6344L28.6255 36.5342L28.5052 36.4131L28.4043 36.5133L28.3141 36.4225L28.415 36.3222L28.2948 36.2011L28.0929 36.4016C28.0526 36.4417 28.0524 36.4819 28.0825 36.5122L28.5134 36.9461C28.5294 36.9622 28.551 36.9712 28.5737 36.9713C28.5963 36.9714 28.618 36.9625 28.6341 36.9465L28.8359 36.7461Z" fill="#FFFF00" stroke="black" stroke-width="0.0711113"/>
<path d="M28.9741 37.2092C29.0347 37.149 28.9445 37.0582 28.8839 37.1183L28.7225 37.2787L28.8127 37.3695L28.9741 37.2092Z" fill="#000001"/>
<path d="M29.2866 37.9631C29.3472 37.9029 29.267 37.8222 29.2064 37.8823L29.0853 38.0026L29.1655 38.0833L29.2866 37.9631Z" fill="#000001"/>
<path d="M28.2241 36.8928C28.2847 36.8326 28.2045 36.7519 28.1439 36.812L28.0228 36.9323L28.103 37.013L28.2241 36.8928Z" fill="#000001"/>
<path d="M22.4102 32.3446C22.4076 32.6448 22.5195 32.9347 22.7231 33.1553C22.8181 33.2615 22.9342 33.3467 23.064 33.4055C23.1938 33.4642 23.3344 33.4953 23.4769 33.4966C23.7755 33.4966 24.0458 33.3544 24.2306 33.1553C24.4342 32.9347 24.5461 32.6448 24.5435 32.3446V30.8086H22.4102V32.3446Z" fill="#003399"/>
<path d="M22.9086 31.6064C23.0265 31.6064 23.122 31.5108 23.122 31.393C23.122 31.2752 23.0265 31.1797 22.9086 31.1797C22.7908 31.1797 22.6953 31.2752 22.6953 31.393C22.6953 31.5108 22.7908 31.6064 22.9086 31.6064Z" fill="white"/>
<path d="M24.0883 31.6064C24.2062 31.6064 24.3017 31.5108 24.3017 31.393C24.3017 31.2752 24.2062 31.1797 24.0883 31.1797C23.9705 31.1797 23.875 31.2752 23.875 31.393C23.875 31.5108 23.9705 31.6064 24.0883 31.6064Z" fill="white"/>
<path d="M23.4907 32.1728C23.6085 32.1728 23.704 32.0772 23.704 31.9594C23.704 31.8416 23.6085 31.7461 23.4907 31.7461C23.3729 31.7461 23.2773 31.8416 23.2773 31.9594C23.2773 32.0772 23.3729 32.1728 23.4907 32.1728Z" fill="white"/>
<path d="M22.9086 32.7704C23.0265 32.7704 23.122 32.6749 23.122 32.5571C23.122 32.4393 23.0265 32.3438 22.9086 32.3438C22.7908 32.3438 22.6953 32.4393 22.6953 32.5571C22.6953 32.6749 22.7908 32.7704 22.9086 32.7704Z" fill="white"/>
<path d="M24.0883 32.7704C24.2062 32.7704 24.3017 32.6749 24.3017 32.5571C24.3017 32.4393 24.2062 32.3438 24.0883 32.3438C23.9705 32.3438 23.875 32.4393 23.875 32.5571C23.875 32.6749 23.9705 32.7704 24.0883 32.7704Z" fill="white"/>
<path d="M22.4102 28.6454C22.4076 28.9456 22.5195 29.2354 22.7231 29.456C22.8181 29.5623 22.9342 29.6475 23.064 29.7062C23.1938 29.765 23.3344 29.7961 23.4769 29.7974C23.7755 29.7974 24.0458 29.6552 24.2306 29.456C24.4342 29.2354 24.5461 28.9456 24.5435 28.6454V27.1094H22.4102V28.6454Z" fill="#003399"/>
<path d="M22.9086 27.9071C23.0265 27.9071 23.122 27.8116 23.122 27.6938C23.122 27.576 23.0265 27.4805 22.9086 27.4805C22.7908 27.4805 22.6953 27.576 22.6953 27.6938C22.6953 27.8116 22.7908 27.9071 22.9086 27.9071Z" fill="white"/>
<path d="M24.0883 27.9071C24.2062 27.9071 24.3017 27.8116 24.3017 27.6938C24.3017 27.576 24.2062 27.4805 24.0883 27.4805C23.9705 27.4805 23.875 27.576 23.875 27.6938C23.875 27.8116 23.9705 27.9071 24.0883 27.9071Z" fill="white"/>
<path d="M23.4907 28.4735C23.6085 28.4735 23.704 28.378 23.704 28.2602C23.704 28.1424 23.6085 28.0469 23.4907 28.0469C23.3729 28.0469 23.2773 28.1424 23.2773 28.2602C23.2773 28.378 23.3729 28.4735 23.4907 28.4735Z" fill="white"/>
<path d="M22.9086 29.0712C23.0265 29.0712 23.122 28.9757 23.122 28.8579C23.122 28.74 23.0265 28.6445 22.9086 28.6445C22.7908 28.6445 22.6953 28.74 22.6953 28.8579C22.6953 28.9757 22.7908 29.0712 22.9086 29.0712Z" fill="white"/>
<path d="M24.0883 29.0712C24.2062 29.0712 24.3017 28.9757 24.3017 28.8579C24.3017 28.74 24.2062 28.6445 24.0883 28.6445C23.9705 28.6445 23.875 28.74 23.875 28.8579C23.875 28.9757 23.9705 29.0712 24.0883 29.0712Z" fill="white"/>
<path d="M19.4532 32.3446C19.4506 32.6448 19.5625 32.9347 19.7661 33.1553C19.861 33.2615 19.9771 33.3467 20.1069 33.4055C20.2367 33.4642 20.3774 33.4953 20.5198 33.4966C20.8185 33.4966 21.0887 33.3544 21.2736 33.1553C21.4772 32.9347 21.5891 32.6448 21.5865 32.3446V30.8086H19.4532V32.3446Z" fill="#003399"/>
<path d="M19.9516 31.6064C20.0694 31.6064 20.1649 31.5108 20.1649 31.393C20.1649 31.2752 20.0694 31.1797 19.9516 31.1797C19.8338 31.1797 19.7383 31.2752 19.7383 31.393C19.7383 31.5108 19.8338 31.6064 19.9516 31.6064Z" fill="white"/>
<path d="M21.1313 31.6064C21.2491 31.6064 21.3446 31.5108 21.3446 31.393C21.3446 31.2752 21.2491 31.1797 21.1313 31.1797C21.0135 31.1797 20.918 31.2752 20.918 31.393C20.918 31.5108 21.0135 31.6064 21.1313 31.6064Z" fill="white"/>
<path d="M20.5336 32.1728C20.6515 32.1728 20.747 32.0772 20.747 31.9594C20.747 31.8416 20.6515 31.7461 20.5336 31.7461C20.4158 31.7461 20.3203 31.8416 20.3203 31.9594C20.3203 32.0772 20.4158 32.1728 20.5336 32.1728Z" fill="white"/>
<path d="M19.9516 32.7704C20.0694 32.7704 20.1649 32.6749 20.1649 32.5571C20.1649 32.4393 20.0694 32.3438 19.9516 32.3438C19.8338 32.3438 19.7383 32.4393 19.7383 32.5571C19.7383 32.6749 19.8338 32.7704 19.9516 32.7704Z" fill="white"/>
<path d="M21.1313 32.7704C21.2491 32.7704 21.3446 32.6749 21.3446 32.5571C21.3446 32.4393 21.2491 32.3438 21.1313 32.3438C21.0135 32.3438 20.918 32.4393 20.918 32.5571C20.918 32.6749 21.0135 32.7704 21.1313 32.7704Z" fill="white"/>
<path d="M25.3711 32.3446C25.3686 32.6448 25.4804 32.9347 25.684 33.1553C25.779 33.2615 25.8951 33.3467 26.0249 33.4055C26.1547 33.4642 26.2953 33.4953 26.4378 33.4966C26.7365 33.4966 27.0067 33.3544 27.1916 33.1553C27.3952 32.9347 27.5071 32.6448 27.5045 32.3446V30.8086H25.3711V32.3446Z" fill="#003399"/>
<path d="M25.8696 31.6064C25.9874 31.6064 26.0829 31.5108 26.0829 31.393C26.0829 31.2752 25.9874 31.1797 25.8696 31.1797C25.7518 31.1797 25.6562 31.2752 25.6562 31.393C25.6562 31.5108 25.7518 31.6064 25.8696 31.6064Z" fill="white"/>
<path d="M27.0493 31.6064C27.1671 31.6064 27.2626 31.5108 27.2626 31.393C27.2626 31.2752 27.1671 31.1797 27.0493 31.1797C26.9315 31.1797 26.8359 31.2752 26.8359 31.393C26.8359 31.5108 26.9315 31.6064 27.0493 31.6064Z" fill="white"/>
<path d="M26.4516 32.1728C26.5694 32.1728 26.6649 32.0772 26.6649 31.9594C26.6649 31.8416 26.5694 31.7461 26.4516 31.7461C26.3338 31.7461 26.2383 31.8416 26.2383 31.9594C26.2383 32.0772 26.3338 32.1728 26.4516 32.1728Z" fill="white"/>
<path d="M25.8696 32.7704C25.9874 32.7704 26.0829 32.6749 26.0829 32.5571C26.0829 32.4393 25.9874 32.3438 25.8696 32.3438C25.7518 32.3438 25.6562 32.4393 25.6562 32.5571C25.6562 32.6749 25.7518 32.7704 25.8696 32.7704Z" fill="white"/>
<path d="M27.0493 32.7704C27.1671 32.7704 27.2626 32.6749 27.2626 32.5571C27.2626 32.4393 27.1671 32.3438 27.0493 32.3438C26.9315 32.3438 26.8359 32.4393 26.8359 32.5571C26.8359 32.6749 26.9315 32.7704 27.0493 32.7704Z" fill="white"/>
<path d="M22.4102 36.0126C22.4076 36.3127 22.5195 36.6026 22.7231 36.8232C22.8181 36.9294 22.9342 37.0147 23.064 37.0734C23.1938 37.1322 23.3344 37.1632 23.4769 37.1646C23.7755 37.1646 24.0458 37.0223 24.2306 36.8232C24.4342 36.6026 24.5461 36.3127 24.5435 36.0126V34.4766H22.4102V36.0126Z" fill="#003399"/>
<path d="M22.9086 35.2743C23.0265 35.2743 23.122 35.1788 23.122 35.061C23.122 34.9432 23.0265 34.8477 22.9086 34.8477C22.7908 34.8477 22.6953 34.9432 22.6953 35.061C22.6953 35.1788 22.7908 35.2743 22.9086 35.2743Z" fill="white"/>
<path d="M24.0883 35.2743C24.2062 35.2743 24.3017 35.1788 24.3017 35.061C24.3017 34.9432 24.2062 34.8477 24.0883 34.8477C23.9705 34.8477 23.875 34.9432 23.875 35.061C23.875 35.1788 23.9705 35.2743 24.0883 35.2743Z" fill="white"/>
<path d="M23.4907 35.8407C23.6085 35.8407 23.704 35.7452 23.704 35.6274C23.704 35.5096 23.6085 35.4141 23.4907 35.4141C23.3729 35.4141 23.2773 35.5096 23.2773 35.6274C23.2773 35.7452 23.3729 35.8407 23.4907 35.8407Z" fill="white"/>
<path d="M22.9086 36.4384C23.0265 36.4384 23.122 36.3429 23.122 36.2251C23.122 36.1072 23.0265 36.0117 22.9086 36.0117C22.7908 36.0117 22.6953 36.1072 22.6953 36.2251C22.6953 36.3429 22.7908 36.4384 22.9086 36.4384Z" fill="white"/>
<path d="M24.0883 36.4384C24.2062 36.4384 24.3017 36.3429 24.3017 36.2251C24.3017 36.1072 24.2062 36.0117 24.0883 36.0117C23.9705 36.0117 23.875 36.1072 23.875 36.2251C23.875 36.3429 23.9705 36.4384 24.0883 36.4384Z" fill="white"/>
</g>
</g>
</g>
<defs>
<clipPath id="clip0_423_3787">
<rect width="64" height="64" rx="32" fill="white"/>
</clipPath>
<clipPath id="clip1_423_3787">
<rect width="64" height="64" fill="white"/>
</clipPath>
<clipPath id="clip2_423_3787">
<rect width="85.3333" height="64" fill="white" transform="translate(-10.668)"/>
</clipPath>
</defs>
</svg>
