<svg width="64" height="64" viewBox="0 0 64 64" fill="none" xmlns="http://www.w3.org/2000/svg">
<g clip-path="url(#clip0_423_12578)">
<g clip-path="url(#clip1_423_12578)">
<g clip-path="url(#clip2_423_12578)">
<path d="M-10.668 42.625H74.6654V63.9983H-10.668V42.625Z" fill="#0038A8"/>
<path d="M-10.668 21.332H74.6654V42.6654H-10.668V21.332Z" fill="white"/>
<path d="M-10.668 0H74.6654V21.3333H-10.668V0Z" fill="#D52B1E"/>
<path d="M31.9929 40.1849C36.5129 40.1849 40.1771 36.5207 40.1771 32.0007C40.1771 27.4806 36.5129 23.8164 31.9929 23.8164C27.4728 23.8164 23.8086 27.4806 23.8086 32.0007C23.8086 36.5207 27.4728 40.1849 31.9929 40.1849Z" stroke="black" stroke-width="0.213334"/>
<path d="M31.9914 38.729C35.7082 38.729 38.7212 35.716 38.7212 31.9992C38.7212 28.2825 35.7082 25.2695 31.9914 25.2695C28.2747 25.2695 25.2617 28.2825 25.2617 31.9992C25.2617 35.716 28.2747 38.729 31.9914 38.729Z" stroke="black" stroke-width="0.09697"/>
<path d="M31.9947 37.1614C34.8439 37.1614 37.1535 34.8517 37.1535 32.0026C37.1535 29.1534 34.8439 26.8438 31.9947 26.8438C29.1456 26.8438 26.8359 29.1534 26.8359 32.0026C26.8359 34.8517 29.1456 37.1614 31.9947 37.1614Z" stroke="black" stroke-width="0.077576"/>
<path d="M27.6395 35.1582L26.6929 35.7182L26.3995 35.2248C26.3585 35.1585 26.3271 35.0867 26.3062 35.0115C26.2912 34.9539 26.2958 34.8928 26.3195 34.8382C26.3462 34.7848 26.3862 34.7448 26.4529 34.7048C26.5062 34.6782 26.5462 34.6648 26.5995 34.6648C26.6499 34.6615 26.7002 34.6707 26.7462 34.6915L26.8529 34.7715V34.5982L26.8929 34.5315L27.0929 34.2248L27.2795 34.5582L27.0929 34.8782L27.0529 34.9848L27.0662 35.0648L27.0795 35.0915L27.4795 34.8648L27.6395 35.1582ZM26.9062 35.1982L26.8262 35.0648L26.7729 34.9982C26.7641 34.9896 26.7536 34.9828 26.7422 34.9782C26.7308 34.9736 26.7185 34.9713 26.7062 34.9715C26.6831 34.9686 26.6597 34.9732 26.6395 34.9848L26.5862 35.0648C26.5862 35.0915 26.5995 35.1315 26.6395 35.1848L26.7062 35.3182L26.9062 35.1982ZM26.0129 34.4648L25.7195 33.5982L25.9462 33.5182L26.1195 34.0648L26.2929 34.0115L26.1195 33.5048L26.3329 33.4382L26.5062 33.9315L26.7062 33.8648L26.5195 33.3048L26.7595 33.2382L27.0529 34.1182L26.0129 34.4648ZM25.6262 33.1715L25.5729 32.6115C25.5462 32.4782 25.5729 32.3982 25.6262 32.3315C25.6795 32.2515 25.7595 32.2115 25.8662 32.1982C25.9729 32.1982 26.0662 32.2115 26.1329 32.2782C26.1995 32.3315 26.2395 32.4382 26.2662 32.5715L26.2795 32.7582L26.6795 32.7048L26.7329 33.0515L25.6262 33.1715ZM26.0662 32.7715L26.0529 32.6915C26.0529 32.6248 26.0262 32.5848 25.9995 32.5582C25.9872 32.5467 25.9723 32.5382 25.9561 32.5336C25.9399 32.529 25.9228 32.5283 25.9062 32.5315C25.8738 32.5387 25.8453 32.5577 25.8262 32.5848C25.7995 32.5982 25.7995 32.6515 25.7995 32.7182L25.8129 32.8115L26.0662 32.7715ZM25.5995 31.1048L25.6395 30.7582L26.2795 30.8382C26.3444 30.845 26.4076 30.863 26.4662 30.8915C26.5195 30.9182 26.5729 30.9448 26.5995 30.9982C26.6529 31.0382 26.6662 31.0915 26.6795 31.1315C26.7062 31.2115 26.7062 31.2915 26.6929 31.3848L26.6662 31.5582C26.6529 31.6248 26.6262 31.6648 26.5995 31.7048C26.5446 31.7912 26.4588 31.8532 26.3595 31.8782H26.1729L25.5195 31.8115L25.5595 31.4782L26.2262 31.5448C26.2795 31.5448 26.3329 31.5448 26.3595 31.5182C26.4129 31.4915 26.4262 31.4382 26.4395 31.3848C26.4439 31.3369 26.4296 31.2891 26.3995 31.2515C26.3729 31.1982 26.3195 31.1848 26.2662 31.1715L25.5995 31.1048ZM25.7329 30.3048L25.9595 29.6915C25.9862 29.5848 26.0395 29.5182 26.1062 29.4915C26.138 29.4725 26.1733 29.4603 26.2101 29.4557C26.2468 29.4511 26.2841 29.4542 26.3195 29.4648C26.3862 29.4915 26.4262 29.5315 26.4529 29.5848C26.4795 29.6248 26.4929 29.6648 26.4929 29.7182C26.5329 29.6515 26.5862 29.6115 26.6395 29.5848C26.6997 29.5624 26.766 29.5624 26.8262 29.5848C26.8788 29.6019 26.9254 29.6335 26.9608 29.676C26.9962 29.7185 27.0189 29.7701 27.0262 29.8248V29.9582L26.9862 30.0915L26.7862 30.6515L25.7329 30.3048ZM26.2662 30.1182L26.3195 29.9715C26.3195 29.9182 26.3329 29.8782 26.3195 29.8648C26.3195 29.8382 26.2929 29.8115 26.2662 29.7982C26.2537 29.7922 26.24 29.7892 26.2262 29.7892C26.2124 29.7892 26.1987 29.7922 26.1862 29.7982C26.1595 29.8248 26.1329 29.8515 26.1195 29.9048L26.0662 30.0382L26.2662 30.1182ZM26.6662 30.2515L26.7329 30.0915C26.7462 30.0382 26.7595 29.9982 26.7329 29.9582C26.7222 29.9345 26.7032 29.9155 26.6795 29.9048C26.6653 29.8967 26.6492 29.8923 26.6329 29.8923C26.6165 29.8923 26.6004 29.8967 26.5862 29.9048L26.5195 30.0248L26.4662 30.1848L26.6662 30.2515ZM26.2662 28.9715L26.4395 28.6782L27.1595 29.1048L27.4262 28.6515L27.6662 28.7848L27.2129 29.5315L26.2662 28.9715ZM26.9329 27.9582L27.1462 27.6915L27.9995 28.3982L27.7862 28.6648L26.9329 27.9582ZM28.4129 27.3848L28.7062 27.2515C28.7462 27.3315 28.7595 27.4115 28.7729 27.4782C28.7764 27.5471 28.7627 27.6159 28.7329 27.6782C28.6945 27.7556 28.64 27.8238 28.5729 27.8782C28.5001 27.9519 28.4074 28.0029 28.3062 28.0248C28.2192 28.0508 28.1265 28.0508 28.0395 28.0248C27.9326 27.9798 27.8403 27.9059 27.7729 27.8115C27.6395 27.6782 27.5862 27.5448 27.5995 27.3982C27.607 27.3226 27.6298 27.2494 27.6665 27.1829C27.7031 27.1165 27.753 27.0581 27.8129 27.0115C27.8991 26.9369 28.0061 26.8904 28.1195 26.8782C28.2129 26.8648 28.3195 26.8782 28.4262 26.9448L28.2395 27.1982C28.2154 27.1802 28.1884 27.1667 28.1595 27.1582C28.1289 27.1508 28.0969 27.1508 28.0662 27.1582C28.0356 27.1692 28.0081 27.1875 27.9862 27.2115C27.9574 27.2326 27.9348 27.2611 27.9207 27.2939C27.9067 27.3268 27.9017 27.3628 27.9062 27.3982C27.9062 27.4515 27.9595 27.5182 28.0129 27.5848C28.0929 27.6782 28.1595 27.7315 28.2262 27.7448C28.2795 27.7448 28.3329 27.7448 28.3862 27.6915C28.4395 27.6515 28.4662 27.6115 28.4662 27.5582C28.4662 27.5048 28.4529 27.4515 28.4129 27.3848ZM29.5862 26.9582L29.2529 27.1448L29.2929 27.3315L28.9862 27.4915L28.8262 26.3315L29.1595 26.1582L30.0395 26.9315L29.7195 27.1048L29.5862 26.9582ZM29.4129 26.7848L29.1195 26.4915L29.1995 26.8915L29.4129 26.7848ZM30.4529 25.6515L30.9595 25.5715C31.0388 25.5557 31.1203 25.5557 31.1995 25.5715C31.2662 25.5848 31.3329 25.6115 31.3729 25.6648C31.4129 25.7182 31.4662 25.7582 31.4929 25.8248C31.5195 25.8782 31.5462 25.9582 31.5462 26.0248C31.5729 26.1448 31.5729 26.2382 31.5595 26.2915C31.5473 26.359 31.52 26.4228 31.4795 26.4782C31.4459 26.5288 31.4001 26.5701 31.3462 26.5982C31.2828 26.6291 31.2155 26.6515 31.1462 26.6648L30.6529 26.7448L30.4529 25.6515ZM30.8395 25.8382L30.9462 26.4382L31.0262 26.4248C31.0929 26.4115 31.1462 26.3982 31.1595 26.3715C31.1995 26.3582 31.2129 26.3182 31.2262 26.2782V26.0915C31.1995 25.9715 31.1595 25.9048 31.1195 25.8648C31.0795 25.8248 31.0129 25.8115 30.9195 25.8248L30.8395 25.8382ZM31.8795 25.4648L32.7862 25.5048V25.7448L32.2129 25.7182L32.1995 25.8915L32.7329 25.9182L32.7195 26.1448L32.1862 26.1182V26.3315L32.7729 26.3582L32.7595 26.6115L31.8262 26.5715L31.8795 25.4648ZM33.2129 25.5715L33.5329 25.6515L33.3329 26.4515L33.8662 26.5848L33.7862 26.8515L32.9462 26.6382L33.2129 25.5715ZM34.9729 26.1582L35.4662 26.4515C35.5729 26.5048 35.6395 26.5848 35.6529 26.6648C35.6795 26.7448 35.6529 26.8382 35.6129 26.9315C35.5903 26.9754 35.5582 27.0137 35.519 27.0437C35.4798 27.0736 35.4345 27.0945 35.3862 27.1048C35.3062 27.1182 35.1995 27.1048 35.0795 27.0248L34.9195 26.9315L34.7062 27.2782L34.4129 27.1048L34.9729 26.1582ZM35.0262 26.7448L35.1062 26.7848L35.2395 26.8248C35.2561 26.8228 35.272 26.817 35.2859 26.8077C35.2998 26.7984 35.3113 26.786 35.3195 26.7715C35.3308 26.7414 35.3308 26.7083 35.3195 26.6782C35.3195 26.6382 35.2929 26.6115 35.2395 26.5715L35.1595 26.5315L35.0262 26.7448ZM35.9862 28.0248L35.7062 27.7582L35.5462 27.8515L35.2795 27.6248L36.3462 27.0915L36.6129 27.3582L36.1595 28.4382L35.8929 28.1982L35.9862 28.0248ZM36.0929 27.7982L36.2795 27.4248L35.9195 27.6382L36.0929 27.7982ZM36.2262 28.5315L37.1462 27.9048L37.4529 28.3715L37.5862 28.5982L37.5729 28.7582C37.5459 28.8205 37.499 28.8721 37.4395 28.9048C37.3995 28.9448 37.3462 28.9582 37.3062 28.9582C37.2514 28.9638 37.1962 28.9546 37.1462 28.9315C37.1195 28.9315 37.0795 28.8915 37.0395 28.8648L37.0662 28.9582L37.0395 29.0382C37.0332 29.0656 37.0243 29.0924 37.0129 29.1182L36.8395 29.4248L36.6262 29.1182L36.7995 28.7715L36.8395 28.6782C36.8427 28.6448 36.8332 28.6115 36.8129 28.5848L36.7995 28.5582L36.4262 28.8248L36.2262 28.5315ZM36.9595 28.4515L37.0529 28.5715L37.1062 28.6248C37.1329 28.6515 37.1462 28.6515 37.1729 28.6515C37.1959 28.6545 37.2194 28.6498 37.2395 28.6382C37.2516 28.6285 37.2614 28.6164 37.2683 28.6026C37.2752 28.5888 37.2791 28.5736 37.2795 28.5582C37.2795 28.5315 37.2795 28.4915 37.2395 28.4382L37.1462 28.3182L36.9595 28.4515ZM37.3062 30.1048L37.1729 29.7315L36.9729 29.7582L36.8395 29.4248L38.0262 29.4115L38.1595 29.7582L37.2929 30.5582L37.1595 30.2115L37.3062 30.1048ZM37.5062 29.9448L37.8262 29.6782L37.4129 29.7182L37.5062 29.9448ZM37.7862 31.1448L38.0129 31.1182L38.0929 31.6382L37.6262 31.7048C37.5575 31.6333 37.4992 31.5525 37.4529 31.4648C37.4126 31.3806 37.3856 31.2907 37.3729 31.1982C37.349 31.0877 37.3536 30.973 37.3862 30.8648C37.4243 30.7798 37.4841 30.7063 37.5595 30.6515C37.646 30.588 37.7467 30.5468 37.8529 30.5315C37.9601 30.5142 38.07 30.5233 38.1729 30.5582C38.2661 30.5952 38.3453 30.6605 38.3995 30.7448C38.4529 30.8248 38.4795 30.9182 38.5062 31.0382V31.3048C38.4956 31.3688 38.468 31.4287 38.4262 31.4782C38.3862 31.5315 38.3329 31.5582 38.2662 31.5982L38.1595 31.2782C38.1995 31.2648 38.2262 31.2382 38.2529 31.1982C38.2795 31.1582 38.2662 31.1182 38.2529 31.0648C38.2494 31.0331 38.2394 31.0024 38.2233 30.9749C38.2072 30.9473 38.1855 30.9234 38.1595 30.9048C38.1062 30.8648 38.0262 30.8515 37.8929 30.8782C37.8094 30.8848 37.7301 30.9174 37.6662 30.9715C37.6129 31.0248 37.5995 31.1048 37.6129 31.1715C37.6129 31.2115 37.6262 31.2515 37.6529 31.2782L37.7195 31.3848H37.8262L37.7862 31.1448ZM38.5062 32.7448L38.4795 33.0915L37.8129 33.0382C37.7526 33.0299 37.694 33.0119 37.6395 32.9848C37.5879 32.9593 37.5424 32.9229 37.5062 32.8782C37.4695 32.8355 37.4422 32.7855 37.4262 32.7315C37.4031 32.6537 37.394 32.5725 37.3995 32.4915L37.4262 32.3182L37.4929 32.1582C37.5213 32.1162 37.5575 32.08 37.5995 32.0515C37.6398 32.0246 37.6852 32.0065 37.7329 31.9982C37.7935 31.9803 37.8563 31.9713 37.9195 31.9715L38.5862 32.0382L38.5462 32.3715L37.8795 32.3182C37.8129 32.3182 37.7595 32.3182 37.7329 32.3582C37.7132 32.3746 37.6971 32.395 37.6856 32.4179C37.6742 32.4408 37.6676 32.4659 37.6662 32.4915C37.6662 32.5448 37.6662 32.5982 37.7062 32.6248C37.7329 32.6648 37.7729 32.6915 37.8395 32.6915L38.5062 32.7448ZM37.2929 33.9182L37.4129 33.5448L37.2529 33.4382L37.3595 33.1048L38.2929 33.8515L38.1595 34.1982L36.9862 34.2515L37.1062 33.9182H37.2929ZM37.5462 33.9182L37.9462 33.9315L37.6129 33.6915L37.5462 33.9182ZM37.9462 34.8248L37.7462 35.1448H37.3062L37.5062 35.5315L37.3195 35.8515L36.9862 35.1582L36.5862 34.9182L36.7729 34.6248L37.1729 34.8648L37.9462 34.8248Z" fill="black"/>
<path d="M33.0792 28.1758C33.0792 28.1758 36.1992 29.5224 35.6526 32.2958C35.1192 35.0691 33.3859 35.0424 32.6926 35.3624C32.0259 35.6558 31.5459 36.0958 31.2792 36.0291C31.0126 35.9758 30.6526 35.7624 30.6526 35.7624C30.6526 35.7624 30.6259 36.2291 31.1726 36.2958C31.7192 36.3891 32.4392 35.5891 32.7726 35.4958C33.1192 35.4158 35.2392 35.1758 35.7592 32.3624C36.3592 29.3491 33.0926 28.2691 33.0926 28.1758H33.0792Z" fill="#009B3A" stroke="black" stroke-width="0.0133333"/>
<path d="M34.649 28.7739C34.658 28.8456 34.659 28.9063 34.6518 28.9488C34.6447 28.9914 34.6297 29.014 34.6086 29.014C34.5876 29.014 34.5614 28.9914 34.5331 28.9488C34.5048 28.9063 34.4756 28.8456 34.449 28.7739C34.4256 28.7109 34.405 28.6417 34.3891 28.5725C34.3732 28.5033 34.3625 28.4364 34.3579 28.378C34.3534 28.3196 34.3552 28.2715 34.3631 28.2382C34.3711 28.2049 34.3849 28.1875 34.4034 28.1875C34.4219 28.1875 34.4444 28.2049 34.4689 28.2382C34.4933 28.2715 34.519 28.3196 34.5435 28.378C34.5679 28.4364 34.5904 28.5033 34.6089 28.5725C34.6273 28.6417 34.6411 28.7109 34.649 28.7739Z" fill="#009B3A" stroke="black" stroke-width="0.0133333"/>
<path d="M34.5437 28.8014C34.5708 28.8559 34.5952 28.9108 34.6155 28.9629C34.6358 29.015 34.6516 29.0632 34.6621 29.1049C34.6725 29.1465 34.6774 29.1808 34.6765 29.2057C34.6755 29.2307 34.6687 29.2457 34.6564 29.2501C34.6442 29.2545 34.6267 29.2481 34.605 29.2313C34.5834 29.2144 34.5579 29.1875 34.5301 29.152C34.5023 29.1165 34.4727 29.0732 34.443 29.0245C34.4133 28.9758 34.3841 28.9226 34.3571 28.868C34.3024 28.7579 34.2598 28.6487 34.2387 28.5645C34.2176 28.4804 34.2196 28.4281 34.2444 28.4193C34.2691 28.4105 34.3146 28.4458 34.3707 28.5174C34.4268 28.5891 34.4891 28.6912 34.5437 28.8014ZM34.2371 29.0014C34.3336 29.0327 34.4216 29.0714 34.4841 29.1102C34.5467 29.1489 34.5794 29.1849 34.5761 29.2113C34.5728 29.2377 34.5337 29.2527 34.4662 29.2533C34.3987 29.2539 34.3077 29.2402 34.2104 29.2147C34.1139 29.1834 34.0259 29.1447 33.9633 29.1059C33.9008 29.0672 33.868 29.0312 33.8713 29.0048C33.8746 28.9783 33.9138 28.9634 33.9812 28.9628C34.0487 28.9622 34.1398 28.9759 34.2371 29.0014Z" fill="#009B3A" stroke="black" stroke-width="0.0133333"/>
<path d="M34.2762 28.8922C34.3778 28.9606 34.4703 29.0352 34.5334 29.0998C34.5964 29.1644 34.6249 29.2136 34.6125 29.2366C34.6001 29.2595 34.5479 29.2544 34.4674 29.2224C34.3868 29.1903 34.2845 29.1339 34.1829 29.0656C34.1326 29.0317 34.084 28.996 34.0399 28.9604C33.9958 28.9247 33.957 28.8899 33.9258 28.858C33.8627 28.7934 33.8342 28.7442 33.8466 28.7212C33.859 28.6982 33.9112 28.7033 33.9918 28.7354C34.0723 28.7675 34.1747 28.8239 34.2762 28.8922Z" fill="#009B3A" stroke="black" stroke-width="0.0133333"/>
<path d="M34.409 28.8427C34.4907 28.9277 34.562 29.0162 34.6072 29.0888C34.6524 29.1614 34.6679 29.2121 34.6502 29.2298C34.6325 29.2475 34.5831 29.2306 34.5129 29.1831C34.4427 29.1355 34.3573 29.061 34.2757 28.976C34.194 28.891 34.1227 28.8025 34.0775 28.7299C34.0323 28.6573 34.0168 28.6066 34.0345 28.5889C34.0522 28.5712 34.1016 28.588 34.1718 28.6356C34.242 28.6832 34.3274 28.7577 34.409 28.8427Z" fill="#009B3A" stroke="black" stroke-width="0.0133333"/>
<path d="M34.6261 29.2291L34.4928 29.3091C34.4528 29.3091 34.4128 29.2691 34.3328 29.3091C34.2528 29.3491 34.1994 29.4291 34.1861 29.4691C34.1728 29.5091 34.2128 29.5358 34.3061 29.4824C34.3994 29.4424 34.4261 29.3624 34.4661 29.3358L34.6394 29.2424L34.7461 29.0691C34.7861 29.0158 34.9061 28.9358 34.9594 28.8291C34.9994 28.7491 34.9861 28.6824 34.9328 28.7091C34.8632 28.7495 34.8075 28.8099 34.7728 28.8824C34.7461 28.9358 34.7728 29.0158 34.7328 29.0691L34.6261 29.2291ZM35.5994 29.5491C35.6025 29.7345 35.5901 29.9089 35.5648 30.0337C35.5395 30.1586 35.5034 30.2238 35.4645 30.215C35.4256 30.2061 35.3871 30.124 35.3574 29.9866C35.3276 29.8492 35.3092 29.6679 35.3061 29.4824C35.303 29.297 35.3155 29.1227 35.3408 28.9978C35.3661 28.8729 35.4021 28.8077 35.441 28.8166C35.4799 28.8254 35.5185 28.9075 35.5482 29.0449C35.5779 29.1823 35.5963 29.3637 35.5994 29.5491Z" fill="#009B3A" stroke="black" stroke-width="0.0133333"/>
<path d="M35.4387 29.5341C35.4789 29.7216 35.502 29.9022 35.5029 30.0361C35.5038 30.1699 35.4825 30.2461 35.4436 30.2479C35.4047 30.2496 35.3514 30.1768 35.2955 30.0455C35.2396 29.9141 35.1856 29.735 35.1453 29.5474C35.1267 29.4596 35.1119 29.3727 35.1017 29.2916C35.0915 29.2105 35.0861 29.1368 35.0859 29.0747C35.0858 29.0126 35.0907 28.9634 35.1006 28.9298C35.1104 28.8962 35.125 28.8789 35.1433 28.8789C35.1617 28.8789 35.1836 28.8962 35.2077 28.9298C35.2319 28.9634 35.2577 29.0126 35.2839 29.0747C35.3101 29.1368 35.3361 29.2105 35.3603 29.2916C35.3846 29.3727 35.4067 29.4596 35.4253 29.5474L35.4387 29.5341Z" fill="#009B3A" stroke="black" stroke-width="0.0133333"/>
<path d="M34.9324 29.6949C35.0007 29.741 35.0672 29.7905 35.128 29.8405C35.1887 29.8905 35.2427 29.94 35.2867 29.9862C35.3306 30.0325 35.3638 30.0745 35.3843 30.1099C35.4048 30.1454 35.4122 30.1735 35.4061 30.1928C35.3999 30.2121 35.3804 30.2221 35.3486 30.2222C35.3168 30.2223 35.2733 30.2126 35.2207 30.1936C35.168 30.1746 35.1072 30.1467 35.0417 30.1115C34.9763 30.0762 34.9074 30.0344 34.839 29.9882C34.7707 29.9421 34.7043 29.8926 34.6435 29.8427C34.5827 29.7927 34.5288 29.7431 34.4848 29.6969C34.4408 29.6507 34.4076 29.6086 34.3871 29.5732C34.3666 29.5377 34.3592 29.5096 34.3654 29.4903C34.3715 29.4711 34.391 29.4611 34.4228 29.4609C34.4546 29.4608 34.4981 29.4705 34.5508 29.4895C34.6034 29.5085 34.6642 29.5364 34.7297 29.5717C34.7952 29.6069 34.864 29.6488 34.9324 29.6949Z" fill="#009B3A" stroke="black" stroke-width="0.0133333"/>
<path d="M35.0374 29.5484C35.1553 29.6914 35.2584 29.8398 35.3242 29.9609C35.39 30.082 35.4131 30.1659 35.3884 30.1942C35.3636 30.2225 35.2931 30.1928 35.1922 30.1117C35.0914 30.0306 34.9686 29.9047 34.8508 29.7618C34.7367 29.623 34.6371 29.4793 34.5739 29.3624C34.5107 29.2455 34.4892 29.1649 34.5139 29.1384C34.5387 29.1119 34.6077 29.1416 34.7059 29.221C34.8041 29.3004 34.9233 29.423 35.0374 29.5618V29.5484Z" fill="#009B3A" stroke="black" stroke-width="0.0133333"/>
<path d="M35.2378 29.5341C35.3257 29.6977 35.3973 29.8616 35.4369 29.9898C35.4765 30.1179 35.4808 30.1999 35.449 30.2176C35.4172 30.2352 35.3518 30.1872 35.2672 30.0841C35.1825 29.9809 35.0857 29.831 34.9978 29.6675C34.9544 29.5865 34.9144 29.5046 34.8803 29.4264C34.8461 29.3482 34.8184 29.2753 34.7988 29.2118C34.7592 29.0837 34.7549 29.0017 34.7867 28.9841C34.8185 28.9664 34.8839 29.0144 34.9685 29.1176C35.0532 29.2207 35.15 29.3706 35.2378 29.5341Z" fill="#009B3A" stroke="black" stroke-width="0.0133333"/>
<path d="M35.4097 30.1887L35.1697 30.242C35.1297 30.242 35.0897 30.1487 34.9697 30.1754C34.8497 30.202 34.743 30.282 34.703 30.3354C34.6764 30.3887 34.7164 30.442 34.863 30.4154C35.023 30.3887 35.0764 30.282 35.1564 30.282C35.223 30.2554 35.343 30.2287 35.423 30.2287C35.4497 30.1754 35.5564 30.0687 35.623 30.0154C35.6897 29.9487 35.8897 29.882 35.983 29.7754C36.0764 29.6687 36.0764 29.562 35.983 29.5754C35.881 29.6098 35.7892 29.6694 35.7164 29.7487C35.6497 29.8287 35.663 29.9487 35.5964 30.0154L35.4097 30.1887ZM36.0897 30.842C36.0599 31.0202 36.0172 31.184 35.9711 31.2975C35.925 31.411 35.8793 31.4648 35.8439 31.4471C35.8086 31.4294 35.7865 31.3417 35.7826 31.2032C35.7787 31.0647 35.7932 30.8868 35.823 30.7087C35.8378 30.6205 35.8559 30.5348 35.8762 30.4567C35.8965 30.3785 35.9188 30.3094 35.9416 30.2532C35.9644 30.197 35.9874 30.1549 36.0092 30.1292C36.031 30.1035 36.0513 30.0948 36.0688 30.1036C36.0863 30.1123 36.1007 30.1384 36.1112 30.1802C36.1218 30.2221 36.1282 30.2789 36.1301 30.3475C36.1321 30.4161 36.1295 30.495 36.1226 30.5799C36.1156 30.6647 36.1045 30.7538 36.0897 30.842Z" fill="#009B3A" stroke="black" stroke-width="0.0133333"/>
<path d="M35.9423 30.8007C35.9468 30.8937 35.9473 30.987 35.9439 31.0746C35.9405 31.1623 35.9332 31.2423 35.9226 31.3096C35.9119 31.3768 35.8981 31.4298 35.882 31.465C35.8659 31.5003 35.8479 31.517 35.8292 31.5142C35.8104 31.5114 35.7913 31.4891 35.7732 31.4487C35.755 31.4083 35.7381 31.3507 35.7237 31.2797C35.7092 31.2087 35.6975 31.1258 35.6892 31.0364C35.6809 30.947 35.6763 30.8531 35.6757 30.7607C35.6712 30.6677 35.6707 30.5744 35.6741 30.4868C35.6775 30.3991 35.6848 30.3191 35.6954 30.2518C35.7061 30.1846 35.7199 30.1316 35.736 30.0964C35.7521 30.0611 35.7701 30.0444 35.7888 30.0472C35.8076 30.05 35.8267 30.0723 35.8448 30.1127C35.863 30.1531 35.8799 30.2107 35.8943 30.2817C35.9088 30.3527 35.9205 30.4356 35.9288 30.525C35.9371 30.6144 35.9417 30.7083 35.9423 30.8007Z" fill="#009B3A" stroke="black" stroke-width="0.0133333"/>
<path d="M35.4249 30.8559C35.4937 30.9156 35.5635 30.9836 35.6288 31.0546C35.6941 31.1256 35.7532 31.1976 35.8014 31.2649C35.8496 31.3323 35.8855 31.3932 35.9065 31.4428C35.9274 31.4924 35.9327 31.5294 35.922 31.5508C35.9112 31.5723 35.8848 31.5776 35.8447 31.5664C35.8045 31.5552 35.7519 31.5278 35.6908 31.4862C35.6296 31.4447 35.5618 31.3903 35.4925 31.3272C35.4233 31.264 35.3545 31.194 35.2916 31.1225C35.2228 31.0628 35.153 30.9948 35.0876 30.9238C35.0223 30.8528 34.9632 30.7808 34.915 30.7134C34.8669 30.6461 34.8309 30.5852 34.81 30.5356C34.789 30.486 34.7837 30.449 34.7945 30.4275C34.8052 30.4061 34.8316 30.4008 34.8718 30.412C34.9119 30.4232 34.9646 30.4506 35.0257 30.4921C35.0868 30.5336 35.1546 30.5881 35.2239 30.6512C35.2932 30.7143 35.362 30.7844 35.4249 30.8559Z" fill="#009B3A" stroke="black" stroke-width="0.0133333"/>
<path d="M35.5585 30.7331C35.6027 30.8143 35.6436 30.897 35.6788 30.9764C35.7139 31.0558 35.7427 31.1303 35.7635 31.1958C35.7842 31.2613 35.7965 31.3164 35.7997 31.358C35.8029 31.3996 35.7968 31.4268 35.782 31.4382C35.7671 31.4496 35.7436 31.4449 35.713 31.4243C35.6823 31.4038 35.645 31.3678 35.6032 31.3184C35.5614 31.269 35.5159 31.2072 35.4694 31.1365C35.4228 31.0659 35.3761 30.9877 35.3318 30.9065C35.2876 30.8252 35.2468 30.7426 35.2116 30.6632C35.1764 30.5838 35.1477 30.5092 35.1269 30.4438C35.1062 30.3783 35.0938 30.3232 35.0907 30.2816C35.0875 30.24 35.0935 30.2127 35.1084 30.2014C35.1233 30.19 35.1467 30.1947 35.1774 30.2153C35.2081 30.2358 35.2454 30.2718 35.2872 30.3212C35.329 30.3706 35.3745 30.4324 35.421 30.5031C35.4676 30.5737 35.5143 30.6519 35.5585 30.7331Z" fill="#009B3A" stroke="black" stroke-width="0.0133333"/>
<path d="M35.7461 30.7625C35.7734 30.8486 35.7972 30.935 35.816 31.0169C35.8349 31.0988 35.8485 31.1745 35.8561 31.2397C35.8636 31.3049 35.865 31.3583 35.8601 31.3969C35.8551 31.4355 35.844 31.4585 35.8274 31.4646C35.8108 31.4708 35.7889 31.4599 35.7631 31.4326C35.7373 31.4053 35.708 31.3622 35.6769 31.3057C35.6459 31.2491 35.6136 31.1803 35.582 31.1031C35.5504 31.026 35.5201 30.9419 35.4928 30.8559C35.4642 30.7657 35.4394 30.6752 35.4197 30.5896C35.4001 30.504 35.3859 30.4248 35.3781 30.3568C35.3624 30.2193 35.3734 30.1351 35.4087 30.1227C35.4441 30.1103 35.5009 30.1708 35.5667 30.2908C35.6324 30.4107 35.7018 30.5804 35.7594 30.7625H35.7461Z" fill="#009B3A" stroke="black" stroke-width="0.0133333"/>
<path d="M35.7979 31.4426H35.5713C35.5313 31.4426 35.5046 31.3359 35.3846 31.3359C35.2816 31.3376 35.1826 31.3753 35.1046 31.4426C35.0513 31.4959 35.0913 31.5492 35.2379 31.5492C35.3846 31.5492 35.4646 31.4826 35.5446 31.4692H35.8113L36.0513 31.3092C36.1313 31.2559 36.3313 31.2292 36.4513 31.1359C36.5446 31.0559 36.5713 30.9492 36.4913 30.9492C36.3806 30.9629 36.2752 31.0042 36.1846 31.0692C36.1179 31.1226 36.1046 31.2426 36.0246 31.2959C35.9713 31.3226 35.8113 31.4426 35.7979 31.4292M36.1313 32.2826C36.0373 32.432 35.9373 32.5633 35.8534 32.6477C35.7694 32.7321 35.7084 32.7626 35.6836 32.7326C35.6589 32.7025 35.6725 32.6143 35.7214 32.4874C35.7703 32.3605 35.8506 32.2053 35.9446 32.0559C36.0386 31.9065 36.1385 31.7751 36.2225 31.6907C36.3064 31.6063 36.3675 31.5758 36.3922 31.6059C36.417 31.6359 36.4034 31.7241 36.3544 31.851C36.3055 31.9779 36.2252 32.1331 36.1313 32.2826Z" fill="#009B3A"/>
<path d="M35.7979 31.4426H35.5713C35.5313 31.4426 35.5046 31.3359 35.3846 31.3359C35.2816 31.3376 35.1826 31.3753 35.1046 31.4426C35.0513 31.4959 35.0913 31.5492 35.2379 31.5492C35.3846 31.5492 35.4646 31.4826 35.5446 31.4692H35.8113L36.0513 31.3092C36.1313 31.2559 36.3313 31.2292 36.4513 31.1359C36.5446 31.0559 36.5713 30.9492 36.4913 30.9492C36.3806 30.9629 36.2752 31.0042 36.1846 31.0692C36.1179 31.1226 36.1046 31.2426 36.0246 31.2959C35.9713 31.3226 35.8113 31.4426 35.7979 31.4292M36.1313 32.2826C36.0373 32.432 35.9373 32.5633 35.8534 32.6477C35.7694 32.7321 35.7084 32.7626 35.6836 32.7326C35.6589 32.7025 35.6725 32.6143 35.7214 32.4874C35.7703 32.3605 35.8506 32.2053 35.9446 32.0559C36.0386 31.9065 36.1385 31.7751 36.2225 31.6907C36.3064 31.6063 36.3675 31.5758 36.3922 31.6059C36.417 31.6359 36.4034 31.7241 36.3544 31.851C36.3055 31.9779 36.2252 32.1331 36.1313 32.2826Z" stroke="black" stroke-width="0.0133333"/>
<path d="M36.0093 32.1759C35.9435 32.3468 35.8678 32.5031 35.7988 32.6102C35.7298 32.7174 35.6732 32.7666 35.6414 32.7472C35.6095 32.7277 35.6051 32.6412 35.6291 32.5065C35.6531 32.3719 35.7035 32.2002 35.7693 32.0292C35.8351 31.8582 35.9108 31.702 35.9798 31.5949C36.0488 31.4877 36.1054 31.4385 36.1372 31.4579C36.1691 31.4774 36.1735 31.5639 36.1495 31.6986C36.1255 31.8332 36.0751 32.0049 36.0093 32.1759ZM35.516 32.0159C35.5827 32.1907 35.6341 32.3689 35.6588 32.5112C35.6834 32.6536 35.6794 32.7485 35.6476 32.775C35.6158 32.8015 35.5587 32.7575 35.489 32.6527C35.4194 32.5478 35.3427 32.3907 35.276 32.2159C35.2092 32.0411 35.1579 31.8629 35.1332 31.7205C35.1085 31.5782 35.1125 31.4833 35.1443 31.4568C35.1762 31.4302 35.2332 31.4743 35.3029 31.5791C35.3726 31.684 35.4492 31.8411 35.516 32.0159Z" fill="#009B3A" stroke="black" stroke-width="0.0133333"/>
<path d="M35.6794 31.9613C35.6962 32.1441 35.6983 32.3229 35.6852 32.4584C35.672 32.5939 35.6448 32.6749 35.6094 32.6838C35.5741 32.6926 35.5335 32.6285 35.4966 32.5055C35.4597 32.3825 35.4295 32.2107 35.4127 32.028C35.4044 31.9375 35.3996 31.847 35.3986 31.7617C35.3976 31.6764 35.4005 31.598 35.407 31.5309C35.4135 31.4638 35.4235 31.4094 35.4365 31.3707C35.4495 31.332 35.4652 31.3099 35.4827 31.3055C35.5002 31.3011 35.5192 31.3146 35.5385 31.3452C35.5579 31.3758 35.5773 31.4229 35.5955 31.4838C35.6138 31.5447 35.6306 31.6182 35.645 31.7001C35.6594 31.782 35.6711 31.8708 35.6794 31.9613Z" fill="#009B3A" stroke="black" stroke-width="0.0133333"/>
<path d="M35.8638 32.0526C35.8465 32.2357 35.8159 32.4106 35.7786 32.5388C35.7414 32.667 35.7006 32.738 35.6652 32.7363C35.6298 32.7345 35.6028 32.6601 35.59 32.5293C35.5773 32.3986 35.5798 32.2223 35.5972 32.0392C35.6057 31.9486 35.6177 31.859 35.6323 31.7755C35.6469 31.6921 35.6639 31.6165 35.6824 31.553C35.7008 31.4895 35.7203 31.4394 35.7398 31.4055C35.7592 31.3716 35.7783 31.3546 35.7958 31.3555C35.8311 31.3573 35.8582 31.4317 35.8709 31.5624C35.8837 31.6931 35.8811 31.8694 35.8638 32.0526Z" fill="#009B3A" stroke="black" stroke-width="0.0133333"/>
<path d="M35.6362 32.7076C35.6362 32.7076 35.4495 32.641 35.4228 32.6143C35.3828 32.5876 35.4095 32.5076 35.2895 32.441C35.195 32.4051 35.0907 32.4051 34.9962 32.441C34.9295 32.441 34.9428 32.521 35.0762 32.5743C35.2095 32.6543 35.3162 32.601 35.3828 32.6276L35.6228 32.7476C35.6895 32.721 35.8362 32.7076 35.9162 32.6943C35.9962 32.681 36.1962 32.7476 36.3428 32.6943C36.4628 32.6543 36.5162 32.561 36.4362 32.5343C36.3357 32.5077 36.23 32.5077 36.1295 32.5343C36.0362 32.5476 35.9828 32.6676 35.8895 32.6676C35.8228 32.6676 35.6362 32.721 35.6228 32.7076M35.7562 33.7343C35.6772 33.8096 35.5925 33.8821 35.5084 33.9465C35.4242 34.0108 35.3428 34.0654 35.2703 34.106C35.1977 34.1466 35.1358 34.1723 35.0892 34.1812C35.0427 34.19 35.0126 34.1817 35.0013 34.157C34.9899 34.1323 34.9976 34.0917 35.0238 34.0384C35.05 33.985 35.0939 33.9202 35.1524 33.8488C35.2109 33.7774 35.2824 33.7013 35.3615 33.626C35.4406 33.5508 35.5254 33.4784 35.6095 33.4143C35.6897 33.3347 35.7778 33.2567 35.8665 33.1866C35.9553 33.1165 36.0423 33.0564 36.1202 33.0112C36.1982 32.966 36.2649 32.937 36.3149 32.9266C36.3649 32.9162 36.3968 32.9247 36.4079 32.9514C36.419 32.9781 36.4091 33.0222 36.3789 33.0801C36.3486 33.138 36.299 33.2081 36.2341 33.2845C36.1692 33.3609 36.0908 33.4415 36.0054 33.5197C35.92 33.5979 35.83 33.6715 35.7428 33.7343" fill="#009B3A"/>
<path d="M35.6362 32.7076C35.6362 32.7076 35.4495 32.641 35.4228 32.6143C35.3828 32.5876 35.4095 32.5076 35.2895 32.441C35.195 32.4051 35.0907 32.4051 34.9962 32.441C34.9295 32.441 34.9428 32.521 35.0762 32.5743C35.2095 32.6543 35.3162 32.601 35.3828 32.6276L35.6228 32.7476C35.6895 32.721 35.8362 32.7076 35.9162 32.6943C35.9962 32.681 36.1962 32.7476 36.3428 32.6943C36.4628 32.6543 36.5162 32.561 36.4362 32.5343C36.3357 32.5077 36.23 32.5077 36.1295 32.5343C36.0362 32.5476 35.9828 32.6676 35.8895 32.6676C35.8228 32.6676 35.6362 32.721 35.6228 32.7076M35.7562 33.7343C35.6772 33.8096 35.5925 33.8821 35.5084 33.9465C35.4242 34.0108 35.3428 34.0654 35.2703 34.106C35.1977 34.1466 35.1358 34.1723 35.0892 34.1812C35.0427 34.19 35.0126 34.1817 35.0013 34.157C34.9899 34.1323 34.9976 34.0917 35.0238 34.0384C35.05 33.985 35.0939 33.9202 35.1524 33.8488C35.2109 33.7774 35.2824 33.7013 35.3615 33.626C35.4406 33.5508 35.5254 33.4784 35.6095 33.4143C35.6897 33.3347 35.7778 33.2567 35.8665 33.1866C35.9553 33.1165 36.0423 33.0564 36.1202 33.0112C36.1982 32.966 36.2649 32.937 36.3149 32.9266C36.3649 32.9162 36.3968 32.9247 36.4079 32.9514C36.419 32.9781 36.4091 33.0222 36.3789 33.0801C36.3486 33.138 36.299 33.2081 36.2341 33.2845C36.1692 33.3609 36.0908 33.4415 36.0054 33.5197C35.92 33.5979 35.83 33.6715 35.7428 33.7343" stroke="black" stroke-width="0.0133333"/>
<path d="M35.6368 33.5857C35.5096 33.7474 35.3771 33.8885 35.2684 33.9778C35.1597 34.0672 35.0837 34.0975 35.0572 34.0621C35.0307 34.0268 35.0558 33.9286 35.127 33.7892C35.1982 33.6499 35.3096 33.4807 35.4368 33.319C35.4998 33.2389 35.5648 33.1631 35.628 33.0958C35.6912 33.0285 35.7514 32.9711 35.8053 32.9269C35.8591 32.8826 35.9054 32.8524 35.9417 32.8379C35.9779 32.8235 36.0033 32.825 36.0164 32.8425C36.0296 32.86 36.0302 32.8932 36.0182 32.94C36.0062 32.9868 35.9819 33.0464 35.9467 33.1154C35.9114 33.1844 35.8659 33.2615 35.8128 33.3422C35.7596 33.4228 35.6998 33.5056 35.6368 33.5857Z" fill="#009B3A" stroke="black" stroke-width="0.0133333"/>
<path d="M35.1582 33.2293C35.1755 33.3353 35.1873 33.4511 35.1925 33.5671C35.1978 33.683 35.1963 33.7959 35.1882 33.8962C35.1801 33.9966 35.1657 34.0816 35.1462 34.1442C35.1266 34.2069 35.1024 34.2454 35.0756 34.2565C35.0489 34.2677 35.0203 34.2512 34.9922 34.2084C34.9641 34.1656 34.9374 34.0977 34.9142 34.0104C34.891 33.9231 34.872 33.8188 34.8588 33.7061C34.8456 33.5935 34.8385 33.4758 34.8382 33.3626C34.8208 33.2566 34.8091 33.1408 34.8038 33.0249C34.7986 32.9089 34.8001 32.7961 34.8082 32.6957C34.8162 32.5954 34.8306 32.5104 34.8502 32.4477C34.8698 32.3851 34.894 32.3466 34.9207 32.3354C34.9475 32.3243 34.9761 32.3408 35.0042 32.3836C35.0323 32.4264 35.059 32.4942 35.0822 32.5816C35.1054 32.6689 35.1244 32.7732 35.1376 32.8858C35.1508 32.9984 35.1579 33.1162 35.1582 33.2293Z" fill="#009B3A" stroke="black" stroke-width="0.0133333"/>
<path d="M35.3423 33.229C35.3007 33.3857 35.2527 33.5219 35.2055 33.6174C35.1583 33.713 35.1143 33.763 35.08 33.76C35.0457 33.757 35.0228 33.7012 35.0149 33.6009C35.0069 33.5005 35.0142 33.3608 35.0356 33.2023C35.0505 33.0859 35.0727 32.9622 35.1005 32.8413C35.1284 32.7204 35.161 32.6058 35.1957 32.507C35.2304 32.4083 35.2662 32.3281 35.3001 32.2732C35.334 32.2184 35.3651 32.1903 35.3908 32.1914C35.4165 32.1926 35.436 32.2228 35.4478 32.2797C35.4596 32.3365 35.4632 32.4184 35.4585 32.5185C35.4538 32.6185 35.4408 32.734 35.4206 32.8552C35.4003 32.9764 35.3735 33.1 35.3423 33.2156" fill="#009B3A"/>
<path d="M35.3423 33.229C35.3007 33.3857 35.2527 33.5219 35.2055 33.6174C35.1583 33.713 35.1143 33.763 35.08 33.76C35.0457 33.757 35.0228 33.7012 35.0149 33.6009C35.0069 33.5005 35.0142 33.3608 35.0356 33.2023C35.0505 33.0859 35.0727 32.9622 35.1005 32.8413C35.1284 32.7204 35.161 32.6058 35.1957 32.507C35.2304 32.4083 35.2662 32.3281 35.3001 32.2732C35.334 32.2184 35.3651 32.1903 35.3908 32.1914C35.4165 32.1926 35.436 32.2228 35.4478 32.2797C35.4596 32.3365 35.4632 32.4184 35.4585 32.5185C35.4538 32.6185 35.4408 32.734 35.4206 32.8552C35.4003 32.9764 35.3735 33.1 35.3423 33.2156" stroke="black" stroke-width="0.0133333"/>
<path d="M35.503 33.3859C35.4661 33.5013 35.42 33.6231 35.3689 33.7409C35.3177 33.8587 35.263 33.969 35.2093 34.0623C35.1557 34.1556 35.1047 34.2291 35.0607 34.2765C35.0168 34.324 34.9812 34.344 34.957 34.3348C34.9329 34.3255 34.9208 34.2874 34.9219 34.2237C34.9231 34.1599 34.9373 34.0724 34.9634 33.9686C34.9896 33.8648 35.0269 33.7479 35.0721 33.6279C35.1173 33.5078 35.1691 33.3882 35.223 33.2792C35.2599 33.1638 35.3059 33.0419 35.3571 32.9241C35.4082 32.8063 35.463 32.6961 35.5167 32.6028C35.5703 32.5095 35.6213 32.436 35.6653 32.3885C35.7092 32.3411 35.7448 32.3211 35.7689 32.3303C35.7931 32.3395 35.8052 32.3776 35.804 32.4414C35.8029 32.5052 35.7887 32.5927 35.7626 32.6965C35.7364 32.8002 35.6991 32.9171 35.6539 33.0372C35.6087 33.1573 35.5569 33.2769 35.503 33.3859Z" fill="#009B3A" stroke="black" stroke-width="0.0133333"/>
<path d="M35.0628 34.0405C34.9877 33.983 34.9164 33.9206 34.8495 33.8538C34.8228 33.8138 34.8628 33.7205 34.7561 33.6138C34.6495 33.5071 34.5161 33.4805 34.4361 33.4805C34.3561 33.4938 34.3561 33.5738 34.4761 33.6938C34.6095 33.8271 34.7428 33.8005 34.7961 33.8538C34.8761 33.9071 34.9828 34.0005 35.0228 34.0671L35.3695 34.1205C35.4628 34.1205 35.6628 34.2671 35.8361 34.2671C35.9695 34.2671 36.0761 34.2005 35.9961 34.1338C35.8945 34.0592 35.7748 34.0132 35.6495 34.0005C35.5428 34.0005 35.4495 34.1071 35.3561 34.0805L35.0495 34.0405M34.7428 35.0138C34.5333 35.0481 34.3345 35.0606 34.1901 35.0486C34.0457 35.0366 33.9676 35.0011 33.9729 34.9498C33.9782 34.8985 34.0665 34.8357 34.2184 34.7752C34.3703 34.7147 34.5733 34.6614 34.7828 34.6271C34.8865 34.6102 34.9887 34.5983 35.0835 34.5924C35.1784 34.5864 35.264 34.5864 35.3355 34.5923C35.4069 34.5982 35.4629 34.61 35.5002 34.627C35.5375 34.6439 35.5553 34.6657 35.5527 34.6911C35.55 34.7165 35.527 34.745 35.4849 34.775C35.4428 34.8049 35.3824 34.8358 35.3072 34.8657C35.232 34.8957 35.1434 34.9242 35.0466 34.9496C34.9497 34.975 34.8465 34.9968 34.7428 35.0138Z" fill="#009B3A"/>
<path d="M35.0628 34.0405C34.9877 33.983 34.9164 33.9206 34.8495 33.8538C34.8228 33.8138 34.8628 33.7205 34.7561 33.6138C34.6495 33.5071 34.5161 33.4805 34.4361 33.4805C34.3561 33.4938 34.3561 33.5738 34.4761 33.6938C34.6095 33.8271 34.7428 33.8005 34.7961 33.8538C34.8761 33.9071 34.9828 34.0005 35.0228 34.0671L35.3695 34.1205C35.4628 34.1205 35.6628 34.2671 35.8361 34.2671C35.9695 34.2671 36.0761 34.2005 35.9961 34.1338C35.8945 34.0592 35.7748 34.0132 35.6495 34.0005C35.5428 34.0005 35.4495 34.1071 35.3561 34.0805L35.0495 34.0405M34.7428 35.0138C34.5333 35.0481 34.3345 35.0606 34.1901 35.0486C34.0457 35.0366 33.9676 35.0011 33.9729 34.9498C33.9782 34.8985 34.0665 34.8357 34.2184 34.7752C34.3703 34.7147 34.5733 34.6614 34.7828 34.6271C34.8865 34.6102 34.9887 34.5983 35.0835 34.5924C35.1784 34.5864 35.264 34.5864 35.3355 34.5923C35.4069 34.5982 35.4629 34.61 35.5002 34.627C35.5375 34.6439 35.5553 34.6657 35.5527 34.6911C35.55 34.7165 35.527 34.745 35.4849 34.775C35.4428 34.8049 35.3824 34.8358 35.3072 34.8657C35.232 34.8957 35.1434 34.9242 35.0466 34.9496C34.9497 34.975 34.8465 34.9968 34.7428 35.0138Z" stroke="black" stroke-width="0.0133333"/>
<path d="M34.7296 34.8013C34.5182 34.8827 34.3119 34.9425 34.1562 34.9675C34.0004 34.9926 33.908 34.9808 33.8991 34.9348C33.8903 34.8889 33.9658 34.8124 34.109 34.7224C34.2523 34.6323 34.4515 34.536 34.6629 34.4546C34.8819 34.3704 35.0954 34.3085 35.2565 34.2827C35.4176 34.2569 35.5131 34.2693 35.5219 34.317C35.5307 34.3647 35.4522 34.444 35.3036 34.5373C35.155 34.6306 34.9485 34.7304 34.7296 34.8146" fill="#009B3A"/>
<path d="M34.7296 34.8013C34.5182 34.8827 34.3119 34.9425 34.1562 34.9675C34.0004 34.9926 33.908 34.9808 33.8991 34.9348C33.8903 34.8889 33.9658 34.8124 34.109 34.7224C34.2523 34.6323 34.4515 34.536 34.6629 34.4546C34.8819 34.3704 35.0954 34.3085 35.2565 34.2827C35.4176 34.2569 35.5131 34.2693 35.5219 34.317C35.5307 34.3647 35.4522 34.444 35.3036 34.5373C35.155 34.6306 34.9485 34.7304 34.7296 34.8146" stroke="black" stroke-width="0.0133333"/>
<path d="M34.4522 34.1866C34.3666 34.3469 34.2745 34.4878 34.1913 34.5859C34.1081 34.684 34.0388 34.7333 33.995 34.7255C33.9513 34.7177 33.9358 34.6533 33.951 34.543C33.9663 34.4328 34.0114 34.2834 34.0789 34.12C34.1227 34.0138 34.1745 33.9051 34.2305 33.8018C34.2866 33.6985 34.3454 33.6032 34.4028 33.5229C34.4601 33.4426 34.5146 33.3793 34.5621 33.3376C34.6096 33.296 34.649 33.277 34.6774 33.2821C34.7058 33.2871 34.7225 33.3161 34.7263 33.367C34.7301 33.4178 34.7208 33.4892 34.6993 33.5758C34.6777 33.6625 34.6443 33.7624 34.6016 33.868C34.5588 33.9737 34.5078 34.0825 34.4522 34.1866Z" fill="#009B3A" stroke="black" stroke-width="0.0133333"/>
<path d="M34.6505 34.2933C34.4917 34.4732 34.3232 34.6352 34.1821 34.7436C34.041 34.852 33.9389 34.8981 33.8982 34.8715C33.8576 34.845 33.8817 34.7481 33.9652 34.6022C34.0488 34.4562 34.185 34.2732 34.3438 34.0933C34.4225 34.0043 34.5044 33.9187 34.5847 33.8414C34.6651 33.7642 34.7424 33.6968 34.8123 33.6431C34.9534 33.5346 35.0555 33.4886 35.0961 33.5151C35.1368 33.5417 35.1127 33.6386 35.0291 33.7845C34.9877 33.8568 34.933 33.9389 34.868 34.0262C34.8031 34.1135 34.7292 34.2043 34.6505 34.2933Z" fill="#009B3A" stroke="black" stroke-width="0.0133333"/>
<path d="M34.7048 34.546C34.6085 34.6251 34.5061 34.7018 34.4049 34.7708C34.3036 34.8399 34.2059 34.8996 34.1187 34.9457C34.0315 34.9918 33.9569 35.0232 33.9 35.0377C33.8432 35.0522 33.8055 35.0495 33.7897 35.0298C33.7739 35.01 33.7803 34.9737 33.8085 34.9233C33.8367 34.8729 33.8859 34.8098 33.9528 34.7382C34.0197 34.6667 34.1026 34.5886 34.1956 34.5093C34.2887 34.43 34.3897 34.3515 34.4915 34.2793C34.6554 34.1631 34.8131 34.0692 34.9367 34.0141C35.0603 33.959 35.1421 33.9463 35.1675 33.9781C35.193 34.0099 35.1606 34.0843 35.0759 34.1882C34.9913 34.292 34.8599 34.4187 34.7048 34.546Z" fill="#009B3A" stroke="black" stroke-width="0.0133333"/>
<path d="M33.9185 34.8935C33.8812 34.7978 33.85 34.6998 33.8252 34.6001C33.8119 34.5468 33.9052 34.4935 33.8652 34.3335C33.8201 34.2043 33.7302 34.0955 33.6119 34.0268C33.5452 33.9868 33.4919 34.0535 33.5452 34.2401C33.5985 34.4268 33.7319 34.4935 33.7719 34.5868L33.8785 34.9068L34.1719 35.1601C34.2519 35.2268 34.3719 35.4801 34.5319 35.5735C34.6652 35.6668 34.7985 35.6401 34.7719 35.5468C34.7118 35.4191 34.62 35.3089 34.5052 35.2268C34.4119 35.1468 34.2652 35.1868 34.1719 35.1201C34.1185 35.0535 33.9052 34.9068 33.9052 34.8935" fill="#009B3A"/>
<path d="M33.9185 34.8935C33.8812 34.7978 33.85 34.6998 33.8252 34.6001C33.8119 34.5468 33.9052 34.4935 33.8652 34.3335C33.8201 34.2043 33.7302 34.0955 33.6119 34.0268C33.5452 33.9868 33.4919 34.0535 33.5452 34.2401C33.5985 34.4268 33.7319 34.4935 33.7719 34.5868L33.8785 34.9068L34.1719 35.1601C34.2519 35.2268 34.3719 35.4801 34.5319 35.5735C34.6652 35.6668 34.7985 35.6401 34.7719 35.5468C34.7118 35.4191 34.62 35.3089 34.5052 35.2268C34.4119 35.1468 34.2652 35.1868 34.1719 35.1201C34.1185 35.0535 33.9052 34.9068 33.9052 34.8935" stroke="black" stroke-width="0.0133333"/>
<path d="M33.4388 35.7323C33.2614 35.7225 33.1036 35.6951 32.9907 35.6546C32.8778 35.6141 32.8164 35.5627 32.8164 35.5089C32.8164 35.455 32.8778 35.4017 32.9907 35.3576C33.1036 35.3135 33.2614 35.2811 33.4388 35.2656C33.6162 35.2754 33.7741 35.3028 33.887 35.3433C33.9999 35.3839 34.0613 35.4352 34.0613 35.489C34.0613 35.5429 33.9999 35.5962 33.887 35.6403C33.7741 35.6844 33.6162 35.7168 33.4388 35.7323Z" fill="#009B3A" stroke="black" stroke-width="0.0133333"/>
<path d="M33.3299 35.0027C33.1903 35.1832 33.0375 35.3408 32.9051 35.4409C32.7726 35.541 32.6714 35.5754 32.6237 35.5365C32.5759 35.4976 32.5856 35.3886 32.6505 35.2335C32.7154 35.0783 32.8303 34.8898 32.9699 34.7094C33.0375 34.6221 33.109 34.5396 33.1802 34.4663C33.2514 34.3931 33.3209 34.3307 33.3849 34.2826C33.4488 34.2346 33.5058 34.2018 33.5527 34.1862C33.5997 34.1706 33.6355 34.1725 33.6583 34.1918C33.6811 34.211 33.6903 34.2473 33.6854 34.2985C33.6806 34.3496 33.6617 34.4147 33.63 34.49C33.5982 34.5653 33.5542 34.6494 33.5005 34.7373C33.4467 34.8253 33.3842 34.9155 33.3165 35.0027" fill="#009B3A"/>
<path d="M33.3299 35.0027C33.1903 35.1832 33.0375 35.3408 32.9051 35.4409C32.7726 35.541 32.6714 35.5754 32.6237 35.5365C32.5759 35.4976 32.5856 35.3886 32.6505 35.2335C32.7154 35.0783 32.8303 34.8898 32.9699 34.7094C33.0375 34.6221 33.109 34.5396 33.1802 34.4663C33.2514 34.3931 33.3209 34.3307 33.3849 34.2826C33.4488 34.2346 33.5058 34.2018 33.5527 34.1862C33.5997 34.1706 33.6355 34.1725 33.6583 34.1918C33.6811 34.211 33.6903 34.2473 33.6854 34.2985C33.6806 34.3496 33.6617 34.4147 33.63 34.49C33.5982 34.5653 33.5542 34.6494 33.5005 34.7373C33.4467 34.8253 33.3842 34.9155 33.3165 35.0027" stroke="black" stroke-width="0.0133333"/>
<path d="M33.4374 35.3722C33.2298 35.4613 33.0222 35.5237 32.8603 35.5455C32.6985 35.5672 32.5956 35.5467 32.5744 35.4884C32.5532 35.43 32.6153 35.3386 32.7472 35.2343C32.879 35.13 33.0698 35.0213 33.2774 34.9322C33.4851 34.843 33.6927 34.7807 33.8546 34.7589C34.0164 34.7371 34.1193 34.7576 34.1405 34.816C34.1617 34.8743 34.0995 34.9657 33.9677 35.07C33.8358 35.1743 33.6451 35.283 33.4374 35.3722ZM33.6641 28.2522C33.7554 28.3377 33.831 28.4224 33.8759 28.4895C33.9208 28.5566 33.9318 28.6013 33.9066 28.6146C33.8815 28.628 33.8221 28.6092 33.7402 28.5618C33.6583 28.5145 33.5598 28.442 33.4641 28.3588C33.4111 28.3127 33.3606 28.2648 33.3159 28.218C33.2712 28.1712 33.2332 28.1266 33.2042 28.087C33.1753 28.0474 33.1562 28.0137 33.148 27.988C33.1398 27.9623 33.1428 27.9452 33.1567 27.9378C33.1706 27.9304 33.1951 27.9328 33.2288 27.9449C33.2625 27.957 33.3045 27.9785 33.3522 28.0081C33.3999 28.0376 33.4523 28.0746 33.506 28.1166C33.5597 28.1586 33.6135 28.2048 33.6641 28.2522ZM33.4108 28.4522C33.5211 28.4726 33.6201 28.499 33.6925 28.5272C33.7648 28.5554 33.8065 28.5838 33.8111 28.6081C33.8156 28.6324 33.7828 28.6511 33.7177 28.6615C33.6525 28.6719 33.5587 28.6733 33.4508 28.6655C33.3753 28.6601 33.2954 28.6503 33.2173 28.637C33.1392 28.6236 33.0649 28.6071 33.0002 28.5887C32.9356 28.5702 32.8823 28.5504 32.8444 28.5306C32.8066 28.5109 32.7853 28.4918 32.7821 28.4748C32.7789 28.4579 32.794 28.4435 32.8261 28.4328C32.8582 28.4221 32.9065 28.4154 32.9673 28.4132C33.0281 28.411 33.0998 28.4134 33.1767 28.4202C33.2536 28.4269 33.3337 28.4379 33.4108 28.4522Z" fill="#009B3A" stroke="black" stroke-width="0.0133333"/>
<path d="M33.5175 28.3227C33.5854 28.3572 33.6512 28.3935 33.7112 28.4298C33.7712 28.466 33.8242 28.5013 33.8672 28.5337C33.9102 28.5662 33.9424 28.5951 33.9618 28.6188C33.9813 28.6425 33.9878 28.6606 33.9808 28.6719C33.9738 28.6833 33.9535 28.6878 33.921 28.6851C33.8886 28.6824 33.8447 28.6726 33.7918 28.6563C33.7388 28.64 33.678 28.6174 33.6126 28.5899C33.5473 28.5624 33.4787 28.5305 33.4109 28.496C33.2739 28.4264 33.1481 28.3504 33.0613 28.2849C32.9744 28.2194 32.9335 28.1697 32.9477 28.1467C32.9618 28.1238 33.0298 28.1294 33.1367 28.1624C33.2436 28.1954 33.3806 28.253 33.5175 28.3227ZM29.8242 34.936C29.8242 34.936 30.5042 35.0827 31.1042 35.296C31.7042 35.5227 32.6109 36.256 32.8509 36.3093C33.1175 36.3093 33.5042 36.216 33.6509 35.8293C33.2242 35.936 32.9842 36.1093 32.5842 35.896C32.4375 35.8427 31.9709 35.416 31.4509 35.1893C30.9442 34.9627 29.9175 34.7093 29.9175 34.7093L29.8242 34.936ZM30.5576 28.736L31.3442 28.3227L30.4776 28.5493L30.3709 28.696L30.5576 28.736Z" fill="#009B3A" stroke="black" stroke-width="0.0133333"/>
<path d="M31.3049 28.9345C30.9983 28.8679 30.5316 28.7612 30.2383 28.7479C30.4383 28.5212 30.7183 28.1212 30.9049 27.8945C30.7716 28.1212 30.5983 28.4279 30.5316 28.6279C30.7316 28.7479 31.0649 28.8412 31.3049 28.9212" fill="#009B3A"/>
<path d="M31.3049 28.9345C30.9983 28.8679 30.5316 28.7612 30.2383 28.7479C30.4383 28.5212 30.7183 28.1212 30.9049 27.8945C30.7716 28.1212 30.5983 28.4279 30.5316 28.6279C30.7316 28.7479 31.0649 28.8412 31.3049 28.9212" stroke="black" stroke-width="0.0133333"/>
<path d="M30.4093 28.7889C30.6429 28.6041 30.8785 28.4219 31.116 28.2422L30.3027 28.6022L30.2227 28.7755H30.4093" fill="#009B3A"/>
<path d="M30.4093 28.7889C30.6429 28.6041 30.8785 28.4219 31.116 28.2422L30.3027 28.6022L30.2227 28.7755H30.4093" stroke="black" stroke-width="0.0133333"/>
<path d="M31.1565 28.9198C30.8498 28.8532 30.3832 28.7465 30.0898 28.7198C30.2765 28.4932 30.5565 28.0932 30.7298 27.8398C30.6232 28.0798 30.4365 28.3865 30.3698 28.6132C30.5832 28.7332 30.9165 28.8265 31.1698 28.9198" fill="#009B3A"/>
<path d="M31.1565 28.9198C30.8498 28.8532 30.3832 28.7465 30.0898 28.7198C30.2765 28.4932 30.5565 28.0932 30.7298 27.8398C30.6232 28.0798 30.4365 28.3865 30.3698 28.6132C30.5832 28.7332 30.9165 28.8265 31.1698 28.9198" stroke="black" stroke-width="0.0133333"/>
<path d="M30.3039 28.8271L31.1172 28.4805L30.2372 28.6271L30.1172 28.7605L30.2905 28.8271" fill="#009B3A"/>
<path d="M30.3039 28.8271L31.1172 28.4805L30.2372 28.6271L30.1172 28.7605L30.2905 28.8271" stroke="black" stroke-width="0.0133333"/>
<path d="M31.066 28.9322C30.7593 28.8922 30.266 28.8389 29.9727 28.8522C30.146 28.5856 30.3727 28.1456 30.5193 27.8789C30.4393 28.1322 30.2927 28.4656 30.2527 28.6922C30.4793 28.7989 30.826 28.8522 31.066 28.9189" fill="#009B3A"/>
<path d="M31.066 28.9322C30.7593 28.8922 30.266 28.8389 29.9727 28.8522C30.146 28.5856 30.3727 28.1456 30.5193 27.8789C30.4393 28.1322 30.2927 28.4656 30.2527 28.6922C30.4793 28.7989 30.826 28.8522 31.066 28.9189" stroke="black" stroke-width="0.0133333"/>
<path d="M30.2101 28.8268L30.7701 28.1602L30.0634 28.6802L30.0234 28.8535L30.2101 28.8268Z" fill="#009B3A" stroke="black" stroke-width="0.0133333"/>
<path d="M31.064 28.9739C30.7306 28.9739 30.2106 28.9339 29.8906 28.9739C30.0506 28.6672 30.2506 28.1739 30.3706 27.8672C30.3173 28.1472 30.1973 28.5339 30.184 28.7872C30.424 28.8672 30.7973 28.9205 31.064 28.9739Z" fill="#009B3A" stroke="black" stroke-width="0.0133333"/>
<path d="M30.1023 28.9893L30.769 28.3359L29.9557 28.8026L29.9023 28.9893H30.1023Z" fill="#009B3A" stroke="black" stroke-width="0.0133333"/>
<path d="M30.919 28.9874C30.559 28.9874 30.0123 28.9741 29.6523 29.0141C29.8923 28.6808 30.2123 28.1341 30.399 27.8008C30.2657 28.1074 30.079 28.5208 29.999 28.8008C30.2523 28.8941 30.639 28.9341 30.919 28.9874Z" fill="#009B3A" stroke="black" stroke-width="0.0133333"/>
<path d="M29.8657 29.0419L30.7457 28.3086L29.759 28.8286L29.6523 29.0419H29.8657Z" fill="#009B3A" stroke="black" stroke-width="0.0133333"/>
<path d="M30.7963 29.0152C30.4363 29.0685 29.8763 29.1219 29.543 29.2152C29.7163 28.8552 29.9563 28.2819 30.103 27.9219C30.023 28.2419 29.8763 28.6685 29.8363 28.9619C30.103 29.0152 30.503 29.0019 30.783 29.0152" fill="#009B3A"/>
<path d="M30.7963 29.0152C30.4363 29.0685 29.8763 29.1219 29.543 29.2152C29.7163 28.8552 29.9563 28.2819 30.103 27.9219C30.023 28.2419 29.8763 28.6685 29.8363 28.9619C30.103 29.0152 30.503 29.0019 30.783 29.0152" stroke="black" stroke-width="0.0133333"/>
<path d="M29.7563 29.1872L30.423 28.2539L29.583 29.0139L29.543 29.2406L29.7563 29.1872Z" fill="#009B3A" stroke="black" stroke-width="0.0133333"/>
<path d="M30.5854 29.12C30.2387 29.16 29.6787 29.1867 29.332 29.2533C29.532 28.9067 29.7987 28.3467 29.972 28C29.8654 28.3067 29.7054 28.7333 29.652 29.0267C29.9187 29.0933 30.3187 29.0933 30.5854 29.12Z" fill="#009B3A" stroke="black" stroke-width="0.0133333"/>
<path d="M29.6391 29.2802L30.4924 28.5469L29.5191 29.0669L29.4258 29.2802H29.6391Z" fill="#009B3A" stroke="black" stroke-width="0.0133333"/>
<path d="M30.4916 29.1595C30.1316 29.2395 29.5716 29.3328 29.2383 29.4395C29.3983 29.0795 29.6116 28.4928 29.745 28.1328C29.6783 28.4528 29.5583 28.8795 29.5316 29.1728C29.7983 29.2128 30.1983 29.1728 30.4916 29.1595Z" fill="#009B3A" stroke="black" stroke-width="0.0133333"/>
<path d="M29.4891 29.3353L30.0224 28.3086L29.3024 29.1886L29.2891 29.4153L29.4891 29.3219" fill="#009B3A"/>
<path d="M29.4891 29.3353L30.0224 28.3086L29.3024 29.1886L29.2891 29.4153L29.4891 29.3219" stroke="black" stroke-width="0.0133333"/>
<path d="M30.4896 29.216C30.0896 29.3227 29.5029 29.456 29.1562 29.5894C29.2896 29.176 29.4362 28.5227 29.5429 28.1094C29.5029 28.4694 29.4229 28.9494 29.4362 29.2827C29.7429 29.3094 30.1696 29.2427 30.4762 29.216" fill="#009B3A"/>
<path d="M30.4896 29.216C30.0896 29.3227 29.5029 29.456 29.1562 29.5894C29.2896 29.176 29.4362 28.5227 29.5429 28.1094C29.5029 28.4694 29.4229 28.9494 29.4362 29.2827C29.7429 29.3094 30.1696 29.2427 30.4762 29.216" stroke="black" stroke-width="0.0133333"/>
<path d="M29.3829 29.5602L30.0762 28.5469L29.1962 29.3602L29.1562 29.6269L29.3829 29.5602Z" fill="#009B3A" stroke="black" stroke-width="0.0133333"/>
<path d="M30.3301 29.3346C29.9568 29.4546 29.3701 29.6146 29.0234 29.7746C29.1301 29.3479 29.2634 28.6946 29.3434 28.2812C29.3301 28.6413 29.2768 29.1212 29.3034 29.4412C29.5968 29.4546 30.0234 29.3612 30.3301 29.3346Z" fill="#009B3A" stroke="black" stroke-width="0.0133333"/>
<path d="M29.2501 29.7059L29.7701 28.5859L29.0234 29.5459V29.8126L29.2501 29.7059Z" fill="#009B3A" stroke="black" stroke-width="0.0133333"/>
<path d="M30.1849 29.4943C29.8116 29.5743 29.2116 29.6943 28.8516 29.8143C28.9982 29.4143 29.1849 28.7477 29.3049 28.3477C29.2516 28.7077 29.1582 29.201 29.1582 29.5077C29.4516 29.5477 29.8782 29.4943 30.1849 29.481" fill="#009B3A"/>
<path d="M30.1849 29.4943C29.8116 29.5743 29.2116 29.6943 28.8516 29.8143C28.9982 29.4143 29.1849 28.7477 29.3049 28.3477C29.2516 28.7077 29.1582 29.201 29.1582 29.5077C29.4516 29.5477 29.8782 29.4943 30.1849 29.481" stroke="black" stroke-width="0.0133333"/>
<path d="M29.1173 29.8136L29.9706 28.9336L28.9706 29.5869L28.8906 29.8269L29.1173 29.8136Z" fill="#009B3A" stroke="black" stroke-width="0.0133333"/>
<path d="M30.0247 29.6423C29.6381 29.6957 29.0514 29.749 28.6914 29.8423C28.8647 29.4423 29.0914 28.8023 29.2247 28.4023C29.1447 28.7623 29.0247 29.2423 28.9981 29.5623C29.2914 29.629 29.7181 29.6157 30.0247 29.6423Z" fill="#009B3A" stroke="black" stroke-width="0.0133333"/>
<path d="M28.9594 29.7356L29.5328 28.6289L28.7461 29.5622V29.8156L28.9594 29.7222" fill="#009B3A"/>
<path d="M28.9594 29.7356L29.5328 28.6289L28.7461 29.5622V29.8156L28.9594 29.7222" stroke="black" stroke-width="0.0133333"/>
<path d="M30.0627 29.5083C29.6627 29.6817 28.996 29.9083 28.6094 30.1217C28.7427 29.6283 28.876 28.855 28.956 28.375C28.956 28.7883 28.8894 29.3617 28.916 29.7217C29.2494 29.7217 29.716 29.575 30.0627 29.5083Z" fill="#009B3A" stroke="black" stroke-width="0.0133333"/>
<path d="M28.8783 30.0541L29.5717 28.8008L28.6517 29.8674L28.625 30.1608L28.8783 30.0541Z" fill="#009B3A" stroke="black" stroke-width="0.0133333"/>
<path d="M29.9055 29.6666C29.5055 29.8533 28.8655 30.1199 28.4922 30.3466C28.5989 29.8666 28.6922 29.0799 28.7589 28.6133C28.7589 29.0133 28.7322 29.5866 28.7722 29.9466C29.1055 29.9066 29.5722 29.7466 29.9055 29.6666Z" fill="#009B3A" stroke="black" stroke-width="0.0133333"/>
<path d="M28.7299 30.2412L29.2366 28.8945L28.4766 30.0945L28.5032 30.4012L28.7299 30.2412Z" fill="#009B3A" stroke="black" stroke-width="0.0133333"/>
<path d="M29.7297 29.7744C29.3297 29.9744 28.6897 30.241 28.3164 30.481C28.4097 29.9877 28.5031 29.2144 28.5697 28.7344C28.5697 29.1344 28.5431 29.7077 28.5964 30.0677C28.9297 30.0277 29.3964 29.8544 29.7297 29.7744Z" fill="#009B3A" stroke="black" stroke-width="0.0133333"/>
<path d="M28.6244 30.4015L29.3978 29.2148L28.4111 30.1882L28.3711 30.4815L28.6244 30.4015Z" fill="#009B3A" stroke="black" stroke-width="0.0133333"/>
<path d="M29.692 29.709C29.332 30.0023 28.7587 30.429 28.4387 30.749C28.4387 30.2423 28.372 29.4823 28.332 29.0156C28.412 29.4023 28.5054 29.949 28.6387 30.2823C28.9587 30.1623 29.372 29.8823 29.7054 29.7223" fill="#009B3A"/>
<path d="M29.692 29.709C29.332 30.0023 28.7587 30.429 28.4387 30.749C28.4387 30.2423 28.372 29.4823 28.332 29.0156C28.412 29.4023 28.5054 29.949 28.6387 30.2823C28.9587 30.1623 29.372 29.8823 29.7054 29.7223" stroke="black" stroke-width="0.0133333"/>
<path d="M28.6644 30.4657L28.7444 29.0391L28.3711 30.4257L28.4778 30.6924L28.6644 30.4657Z" fill="#009B3A" stroke="black" stroke-width="0.0133333"/>
<path d="M29.596 29.8395C29.2227 30.1328 28.6627 30.5461 28.3293 30.8661C28.3293 30.3728 28.2627 29.5995 28.2227 29.1328C28.316 29.5328 28.396 30.0661 28.5293 30.3995C28.8493 30.2928 29.2627 29.9995 29.596 29.8395Z" fill="#009B3A" stroke="black" stroke-width="0.0133333"/>
<path d="M28.5714 30.7086L28.9314 29.3086L28.3047 30.5886L28.3447 30.8819L28.5714 30.7086Z" fill="#009B3A" stroke="black" stroke-width="0.0133333"/>
<path d="M29.5425 29.8686C29.2092 30.2153 28.6625 30.7219 28.3558 31.0686C28.3025 30.5753 28.1558 29.7886 28.0625 29.3086C28.1958 29.7086 28.3425 30.2553 28.5158 30.5753C28.8225 30.4286 29.2358 30.0953 29.5425 29.8819" fill="#009B3A"/>
<path d="M29.5425 29.8686C29.2092 30.2153 28.6625 30.7219 28.3558 31.0686C28.3025 30.5753 28.1558 29.7886 28.0625 29.3086C28.1958 29.7086 28.3425 30.2553 28.5158 30.5753C28.8225 30.4286 29.2358 30.0953 29.5425 29.8819" stroke="black" stroke-width="0.0133333"/>
<path d="M28.5707 30.8823L28.6373 29.4023L28.2773 30.8423L28.384 31.109L28.5707 30.8823Z" fill="#009B3A" stroke="black" stroke-width="0.0133333"/>
<path d="M29.4368 30.1357C29.0768 30.429 28.5034 30.869 28.1568 31.2023C28.1568 30.6957 28.0634 29.8957 28.0234 29.4023C28.1168 29.8023 28.2234 30.3757 28.3568 30.7223C28.6901 30.589 29.1168 30.309 29.4368 30.1223" fill="#009B3A"/>
<path d="M29.4368 30.1357C29.0768 30.429 28.5034 30.869 28.1568 31.2023C28.1568 30.6957 28.0634 29.8957 28.0234 29.4023C28.1168 29.8023 28.2234 30.3757 28.3568 30.7223C28.6901 30.589 29.1168 30.309 29.4368 30.1223" stroke="black" stroke-width="0.0133333"/>
<path d="M28.4659 31.0523L28.9726 29.6523L28.1992 30.8923L28.2259 31.199L28.4659 31.0523Z" fill="#009B3A" stroke="black" stroke-width="0.0133333"/>
<path d="M29.4368 30.1358C29.1034 30.4692 28.5968 30.9892 28.3034 31.3492C28.2501 30.8425 28.1034 30.0425 28.0234 29.5625C28.1568 29.9625 28.2901 30.5225 28.4501 30.8425C28.7568 30.6825 29.1301 30.3492 29.4368 30.1358Z" fill="#009B3A" stroke="black" stroke-width="0.0133333"/>
<path d="M28.4769 31.119L28.4236 29.6523L28.1836 31.119L28.3169 31.3723L28.4769 31.119Z" fill="#009B3A" stroke="black" stroke-width="0.0133333"/>
<path d="M29.2782 30.2397C28.9582 30.5864 28.4649 31.1064 28.1849 31.4797C28.1182 30.9464 27.9449 30.173 27.8516 29.6797C27.9849 30.0797 28.1582 30.6397 28.3182 30.9597C28.6116 30.7997 28.9849 30.453 29.2782 30.2397Z" fill="#009B3A" stroke="black" stroke-width="0.0133333"/>
<path d="M28.3972 31.2668L28.5572 29.7734L28.1172 31.1868L28.2105 31.4801L28.3972 31.2668Z" fill="#009B3A" stroke="black" stroke-width="0.0133333"/>
<path d="M29.1994 30.2945C28.9328 30.6812 28.4661 31.2279 28.2128 31.6279C28.1061 31.1212 27.8794 30.3612 27.7461 29.8945C27.9194 30.2679 28.1194 30.8012 28.3061 31.1079C28.5861 30.9212 28.9328 30.5479 29.2128 30.3079" fill="#009B3A"/>
<path d="M29.1994 30.2945C28.9328 30.6812 28.4661 31.2279 28.2128 31.6279C28.1061 31.1212 27.8794 30.3612 27.7461 29.8945C27.9194 30.2679 28.1194 30.8012 28.3061 31.1079C28.5861 30.9212 28.9328 30.5479 29.2128 30.3079" stroke="black" stroke-width="0.0133333"/>
<path d="M28.3988 31.4129L28.2921 29.9062L28.1055 31.3996L28.2388 31.6662L28.3855 31.3996" fill="#009B3A"/>
<path d="M28.3988 31.4129L28.2921 29.9062L28.1055 31.3996L28.2388 31.6662L28.3855 31.3996" stroke="black" stroke-width="0.0133333"/>
<path d="M29.1847 30.3857C28.9181 30.7857 28.4781 31.3591 28.2514 31.7724C28.1181 31.2657 27.8514 30.5057 27.6914 30.0391C27.8781 30.4124 28.1047 30.9457 28.3181 31.2391C28.5847 31.0391 28.9181 30.6391 29.1847 30.3857Z" fill="#009B3A" stroke="black" stroke-width="0.0133333"/>
<path d="M28.4776 31.5457L28.6376 30.0391L28.2109 31.4524L28.2909 31.7591L28.4776 31.5457Z" fill="#009B3A" stroke="black" stroke-width="0.0133333"/>
<path d="M29.116 30.5334C28.8894 30.9467 28.516 31.6001 28.316 32.0401C28.1427 31.5601 27.8094 30.8401 27.6094 30.3867C27.836 30.7334 28.1027 31.2267 28.3427 31.5067C28.596 31.2667 28.876 30.8134 29.116 30.5201" fill="#009B3A"/>
<path d="M29.116 30.5334C28.8894 30.9467 28.516 31.6001 28.316 32.0401C28.1427 31.5601 27.8094 30.8401 27.6094 30.3867C27.836 30.7334 28.1027 31.2267 28.3427 31.5067C28.596 31.2667 28.876 30.8134 29.116 30.5201" stroke="black" stroke-width="0.0133333"/>
<path d="M28.4384 31.6822L28.0117 30.2422L28.1451 31.7489L28.3451 31.9622L28.4251 31.6822" fill="#009B3A"/>
<path d="M28.4384 31.6822L28.0117 30.2422L28.1451 31.7489L28.3451 31.9622L28.4251 31.6822" stroke="black" stroke-width="0.0133333"/>
<path d="M29.1186 30.6958C28.8786 31.1225 28.4786 31.7625 28.2786 32.2025C28.1053 31.7225 27.7719 31.0025 27.5586 30.5625C27.7853 30.9092 28.0653 31.4025 28.3053 31.6692C28.5719 31.4292 28.8653 30.9892 29.1053 30.6958" fill="#009B3A"/>
<path d="M29.1186 30.6958C28.8786 31.1225 28.4786 31.7625 28.2786 32.2025C28.1053 31.7225 27.7719 31.0025 27.5586 30.5625C27.7853 30.9092 28.0653 31.4025 28.3053 31.6692C28.5719 31.4292 28.8653 30.9892 29.1053 30.6958" stroke="black" stroke-width="0.0133333"/>
<path d="M28.4496 31.9481L28.2896 30.4414L28.1562 31.9481L28.3029 32.2147L28.4496 31.9481Z" fill="#009B3A" stroke="black" stroke-width="0.0133333"/>
<path d="M29.1459 30.8257C28.8926 31.239 28.4793 31.879 28.2793 32.3057C28.1059 31.8257 27.7859 31.1057 27.5859 30.6523C27.8126 30.999 28.0793 31.5057 28.3193 31.7723C28.5859 31.5457 28.8926 31.1057 29.1459 30.8257Z" fill="#009B3A" stroke="black" stroke-width="0.0133333"/>
<path d="M28.4379 32.0682L28.1579 30.6016L28.1445 32.0949L28.3179 32.3349L28.4379 32.0682Z" fill="#009B3A" stroke="black" stroke-width="0.0133333"/>
<path d="M29.0389 31.0417C28.7722 31.4417 28.3322 32.0417 28.1055 32.4684C27.9589 31.9751 27.6655 31.2151 27.4922 30.7617C27.6922 31.1217 27.9455 31.6417 28.1589 31.9351C28.4389 31.7217 28.7722 31.3084 29.0389 31.0417Z" fill="#009B3A" stroke="black" stroke-width="0.0133333"/>
<path d="M28.3034 32.2293L28.4368 30.7227L28.0234 32.1493L28.1168 32.4427L28.3034 32.2293Z" fill="#009B3A" stroke="black" stroke-width="0.0133333"/>
<path d="M29.0522 31.069C28.8255 31.509 28.4389 32.1756 28.2522 32.6156C28.0655 32.149 27.7189 31.4423 27.4922 31.0156C27.7322 31.3356 28.0255 31.8156 28.2655 32.0823C28.5322 31.829 28.7989 31.3756 29.0522 31.0823" fill="#009B3A"/>
<path d="M29.0522 31.069C28.8255 31.509 28.4389 32.1756 28.2522 32.6156C28.0655 32.149 27.7189 31.4423 27.4922 31.0156C27.7322 31.3356 28.0255 31.8156 28.2655 32.0823C28.5322 31.829 28.7989 31.3756 29.0522 31.0823" stroke="black" stroke-width="0.0133333"/>
<path d="M28.2635 32.3626L27.7969 30.9492L27.9702 32.4426L28.1702 32.6559L28.2502 32.3626" fill="#009B3A"/>
<path d="M28.2635 32.3626L27.7969 30.9492L27.9702 32.4426L28.1702 32.6559L28.2502 32.3626" stroke="black" stroke-width="0.0133333"/>
<path d="M28.9842 31.1875C28.8242 31.6675 28.5575 32.3875 28.4508 32.8808C28.1842 32.4542 27.7175 31.8408 27.4375 31.4542C27.7175 31.7342 28.0908 32.1475 28.3708 32.3475C28.5842 32.0408 28.7975 31.5475 28.9842 31.1875Z" fill="#009B3A" stroke="black" stroke-width="0.0133333"/>
<path d="M28.6652 32.4687L28.1719 31.082L28.3852 32.5754L28.5852 32.762L28.6652 32.4687Z" fill="#009B3A" stroke="black" stroke-width="0.0133333"/>
<path d="M28.9842 31.3359C28.8242 31.8159 28.5575 32.5493 28.4508 33.0293C28.1842 32.6026 27.7308 32.0026 27.4375 31.6293C27.7175 31.8959 28.0908 32.2959 28.3708 32.5093C28.5842 32.2026 28.7975 31.6959 28.9842 31.3359Z" fill="#009B3A" stroke="black" stroke-width="0.0133333"/>
<path d="M28.6634 32.7074L28.0234 31.4141L28.3968 32.8541L28.6234 33.0141L28.6768 32.7074" fill="#009B3A"/>
<path d="M28.6634 32.7074L28.0234 31.4141L28.3968 32.8541L28.6234 33.0141L28.6768 32.7074" stroke="black" stroke-width="0.0133333"/>
<path d="M28.9308 31.4531C28.8375 31.9465 28.6642 32.7198 28.5975 33.2131C28.2908 32.8265 27.7575 32.2798 27.4375 31.9598C27.7442 32.1865 28.1575 32.5465 28.4642 32.6931C28.6375 32.3598 28.7842 31.8265 28.9308 31.4531Z" fill="#009B3A" stroke="black" stroke-width="0.0133333"/>
<path d="M28.7178 32.9065L28.3711 31.4531L28.4244 32.9598L28.6111 33.1865L28.7178 32.9198" fill="#009B3A"/>
<path d="M28.7178 32.9065L28.3711 31.4531L28.4244 32.9598L28.6111 33.1865L28.7178 32.9198" stroke="black" stroke-width="0.0133333"/>
<path d="M28.9306 31.6016C28.8772 32.1216 28.7706 32.9082 28.7706 33.4016C28.4239 33.0682 27.8506 32.6016 27.5039 32.3216C27.8239 32.5082 28.2639 32.8016 28.5839 32.9082C28.7172 32.5616 28.8239 32.0016 28.9306 31.6149" fill="#009B3A"/>
<path d="M28.9306 31.6016C28.8772 32.1216 28.7706 32.9082 28.7706 33.4016C28.4239 33.0682 27.8506 32.6016 27.5039 32.3216C27.8239 32.5082 28.2639 32.8016 28.5839 32.9082C28.7172 32.5616 28.8239 32.0016 28.9306 31.6149" stroke="black" stroke-width="0.0133333"/>
<path d="M28.7325 33.0127L27.8125 31.9727L28.5058 33.2393L28.7725 33.3193L28.7325 33.0127Z" fill="#009B3A" stroke="black" stroke-width="0.0133333"/>
<path d="M28.9556 31.7891C28.9023 32.2957 28.7956 33.0824 28.7823 33.5757C28.4356 33.2424 27.8623 32.7757 27.5156 32.4824C27.849 32.6691 28.289 32.9757 28.5956 33.0824C28.7423 32.7357 28.8356 32.1757 28.9556 31.7891Z" fill="#009B3A" stroke="black" stroke-width="0.0133333"/>
<path d="M28.8356 33.2533L28.1289 32L28.5689 33.4267L28.7956 33.5733L28.8356 33.2667" fill="#009B3A"/>
<path d="M28.8356 33.2533L28.1289 32L28.5689 33.4267L28.7956 33.5733L28.8356 33.2667" stroke="black" stroke-width="0.0133333"/>
<path d="M28.9993 32.0016C28.9593 32.5083 28.8926 33.2949 28.8926 33.8016C28.4753 33.441 28.0391 33.1027 27.5859 32.7883C27.9326 32.9483 28.3859 33.2283 28.6926 33.3216C28.8259 32.9616 28.9059 32.3883 28.9993 31.9883" fill="#009B3A"/>
<path d="M28.9993 32.0016C28.9593 32.5083 28.8926 33.2949 28.8926 33.8016C28.4753 33.441 28.0391 33.1027 27.5859 32.7883C27.9326 32.9483 28.3859 33.2283 28.6926 33.3216C28.8259 32.9616 28.9059 32.3883 28.9993 31.9883" stroke="black" stroke-width="0.0133333"/>
<path d="M28.9308 33.4934L28.0508 32.3867L28.6908 33.6934L28.9308 33.8001V33.4934Z" fill="#009B3A" stroke="black" stroke-width="0.0133333"/>
<path d="M29.011 32.2399C28.971 32.7466 28.9043 33.5332 28.9177 34.0399C28.5577 33.7199 27.971 33.2932 27.5977 33.0266C27.9443 33.1999 28.3977 33.4666 28.7177 33.5599C28.851 33.1999 28.9177 32.6266 29.011 32.2266" fill="#009B3A"/>
<path d="M29.011 32.2399C28.971 32.7466 28.9043 33.5332 28.9177 34.0399C28.5577 33.7199 27.971 33.2932 27.5977 33.0266C27.9443 33.1999 28.3977 33.4666 28.7177 33.5599C28.851 33.1999 28.9177 32.6266 29.011 32.2266" stroke="black" stroke-width="0.0133333"/>
<path d="M28.9984 33.681L28.3984 32.3477L28.7318 33.8143L28.9451 33.9877L28.9984 33.681Z" fill="#009B3A" stroke="black" stroke-width="0.0133333"/>
<path d="M29.0254 32.3867C29.0521 32.9067 29.0521 33.6934 29.1054 34.2001C28.6559 33.9037 28.1932 33.6279 27.7188 33.3734C28.0654 33.4934 28.5321 33.6934 28.8654 33.7467C28.9588 33.3601 28.9721 32.8001 29.0254 32.3867Z" fill="#009B3A" stroke="black" stroke-width="0.0133333"/>
<path d="M29.1028 33.6272L27.9961 32.8672L28.9294 33.9072L29.1961 33.9205L29.1028 33.6272Z" fill="#009B3A" stroke="black" stroke-width="0.0133333"/>
<path d="M29.0635 32.4414C29.1035 32.9614 29.1569 33.7481 29.2369 34.2414C28.8369 33.9881 28.1969 33.6681 27.7969 33.4681C28.1569 33.5747 28.6369 33.7614 28.9702 33.8014C29.0369 33.4147 29.0235 32.8547 29.0635 32.4414Z" fill="#009B3A" stroke="black" stroke-width="0.0133333"/>
<path d="M29.238 33.9065L28.3047 32.8398L29.0114 34.1198L29.2647 34.2132L29.2247 33.9065" fill="#009B3A"/>
<path d="M29.238 33.9065L28.3047 32.8398L29.0114 34.1198L29.2647 34.2132L29.2247 33.9065" stroke="black" stroke-width="0.0133333"/>
<path d="M29.143 32.6406C29.2097 33.1473 29.2764 33.934 29.3964 34.4273C28.9964 34.2006 28.3297 33.9206 27.9297 33.7473C28.2897 33.8273 28.783 33.9873 29.103 34.014C29.1564 33.614 29.1297 33.054 29.143 32.6406Z" fill="#009B3A" stroke="black" stroke-width="0.0133333"/>
<path d="M29.4114 34.0953L28.3047 33.3086L29.238 34.3753L29.5047 34.3886L29.4114 34.0953Z" fill="#009B3A" stroke="black" stroke-width="0.0133333"/>
<path d="M29.1857 32.8555C29.2791 33.3621 29.4124 34.1488 29.5457 34.6288C29.1324 34.4288 28.4524 34.2155 28.0391 34.0821C28.4124 34.1221 28.9057 34.2421 29.2391 34.2155C29.2657 33.8288 29.1991 33.2821 29.1857 32.8555Z" fill="#009B3A" stroke="black" stroke-width="0.0133333"/>
<path d="M29.5427 34.2535L28.6094 33.1602L29.3027 34.4535L29.5694 34.5602L29.5427 34.2535Z" fill="#009B3A" stroke="black" stroke-width="0.0133333"/>
<path d="M29.236 32.9883C29.3827 33.4816 29.5827 34.2549 29.7693 34.7216C29.3293 34.5883 28.6493 34.4549 28.2227 34.3749C28.596 34.3749 29.0893 34.415 29.4227 34.3616C29.4227 33.9616 29.2893 33.4149 29.236 33.0016" fill="#009B3A"/>
<path d="M29.236 32.9883C29.3827 33.4816 29.5827 34.2549 29.7693 34.7216C29.3293 34.5883 28.6493 34.4549 28.2227 34.3749C28.596 34.3749 29.0893 34.415 29.4227 34.3616C29.4227 33.9616 29.2893 33.4149 29.236 33.0016" stroke="black" stroke-width="0.0133333"/>
<path d="M29.598 34.2549L28.3047 33.9883L29.518 34.5883L29.7714 34.495L29.5847 34.2549" fill="#009B3A"/>
<path d="M29.598 34.2549L28.3047 33.9883L29.518 34.5883L29.7714 34.495L29.5847 34.2549" stroke="black" stroke-width="0.0133333"/>
<path d="M29.3314 33.1484C29.4647 33.6418 29.6647 34.4018 29.838 34.8684C29.4114 34.7351 28.7314 34.6018 28.3047 34.5218C28.678 34.5218 29.1714 34.5618 29.5047 34.5218C29.5047 34.1218 29.3714 33.5618 29.3314 33.1484Z" fill="#009B3A" stroke="black" stroke-width="0.0133333"/>
<path d="M29.797 34.3891L28.5703 33.7891L29.6636 34.6824L29.9303 34.6557L29.797 34.3891Z" fill="#009B3A" stroke="black" stroke-width="0.0133333"/>
<path d="M29.2653 33.2266C29.5053 33.6799 29.8653 34.3866 30.1319 34.7866C29.6786 34.7599 28.9853 34.7866 28.5586 34.7866C28.9186 34.7199 29.4119 34.6532 29.7186 34.5199C29.6253 34.1332 29.3986 33.6266 29.2653 33.2266Z" fill="#009B3A" stroke="black" stroke-width="0.0133333"/>
<path d="M29.9988 34.5224L28.7188 34.1758L29.9188 34.8424L30.1588 34.7758L29.9854 34.5091" fill="#009B3A"/>
<path d="M29.9988 34.5224L28.7188 34.1758L29.9188 34.8424L30.1588 34.7758L29.9854 34.5091" stroke="black" stroke-width="0.0133333"/>
<path d="M29.3831 33.4258C29.6365 33.8658 29.9965 34.5724 30.2765 34.9724C29.8231 34.9458 29.1298 34.9724 28.7031 34.9991C29.0498 34.9058 29.5565 34.8391 29.8498 34.7058C29.7698 34.3191 29.5298 33.8124 29.3965 33.4258" fill="#009B3A"/>
<path d="M29.3831 33.4258C29.6365 33.8658 29.9965 34.5724 30.2765 34.9724C29.8231 34.9458 29.1298 34.9724 28.7031 34.9991C29.0498 34.9058 29.5565 34.8391 29.8498 34.7058C29.7698 34.3191 29.5298 33.8124 29.3965 33.4258" stroke="black" stroke-width="0.0133333"/>
<path d="M30.1437 34.6285L28.957 33.9219L29.997 34.9085H30.2637L30.1437 34.6285Z" fill="#009B3A" stroke="black" stroke-width="0.0133333"/>
<path d="M29.4904 33.5352C29.7704 33.9485 30.197 34.6018 30.5037 34.9885C29.9838 35.0303 29.4671 35.1061 28.957 35.2152C29.3037 35.0818 29.7837 34.9485 30.077 34.7752C29.9437 34.4018 29.6637 33.9085 29.4904 33.5352Z" fill="#009B3A" stroke="black" stroke-width="0.0133333"/>
<path d="M30.237 34.735L28.957 34.695L30.2237 35.0817L30.4504 34.935L30.237 34.735ZM30.9837 28.5217L31.9037 28.375L30.9837 28.3883L30.8237 28.4683L30.9837 28.5217Z" fill="#009B3A" stroke="black" stroke-width="0.0133333"/>
<path d="M31.4896 28.7216C31.223 28.6416 30.823 28.5083 30.543 28.4549L31.5296 27.9883C31.3296 28.1216 31.023 28.2816 30.863 28.4149C31.023 28.5216 31.303 28.6283 31.4896 28.7216Z" fill="#009B3A" stroke="black" stroke-width="0.0133333"/>
<path d="M30.9295 28.5486L31.8362 28.3086L30.9029 28.4286L30.7695 28.5219L30.9429 28.5486" fill="#009B3A"/>
<path d="M30.9295 28.5486L31.8362 28.3086L30.9029 28.4286L30.7695 28.5219L30.9429 28.5486" stroke="black" stroke-width="0.0133333"/>
<path d="M31.5324 28.7869C31.2124 28.7469 30.7324 28.6936 30.4258 28.6936C30.6658 28.4803 30.9858 28.1469 31.1858 27.9336C31.0524 28.1336 30.8391 28.3869 30.7458 28.5736C30.9591 28.6669 31.2924 28.7203 31.5324 28.7869Z" fill="#009B3A" stroke="black" stroke-width="0.0133333"/>
<path d="M30.6115 28.6138L31.5448 28.5071L30.6382 28.4805L30.4648 28.5605L30.5982 28.6138" fill="#009B3A"/>
<path d="M30.6115 28.6138L31.5448 28.5071L30.6382 28.4805L30.4648 28.5605L30.5982 28.6138" stroke="black" stroke-width="0.0133333"/>
<path d="M31.2891 28.8128L30.2891 28.6395L31.2091 28.1328C31.0224 28.2661 30.7557 28.4528 30.6224 28.5861C30.7957 28.6661 31.0891 28.7461 31.2891 28.8128Z" fill="#009B3A" stroke="black" stroke-width="0.0133333"/>
<path d="M30.5304 28.6139L31.3438 28.2539L30.4504 28.4939L30.3438 28.6006H30.5304" fill="#009B3A"/>
<path d="M30.5304 28.6139L31.3438 28.2539L30.4504 28.4939L30.3438 28.6006H30.5304" stroke="black" stroke-width="0.0133333"/>
<path d="M31.2642 28.9226C31.0375 28.8292 30.6642 28.6559 30.4375 28.5892L31.0242 27.9492C30.9175 28.1226 30.7575 28.3492 30.6775 28.5359C30.8375 28.6692 31.0775 28.8026 31.2642 28.9226Z" fill="#009B3A" stroke="black" stroke-width="0.0133333"/>
<path d="M30.5705 28.669L31.2105 28.4023L30.5171 28.4823L30.4371 28.6157L30.5705 28.669ZM30.0371 34.6157H28.7305L30.0638 34.949L30.2771 34.8157L30.0371 34.6157Z" fill="#009B3A" stroke="black" stroke-width="0.0133333"/>
<path d="M30.2786 34.6934L28.9453 34.3867L30.2253 35.0134L30.492 34.9334L30.2786 34.6934Z" fill="#009B3A" stroke="black" stroke-width="0.0133333"/>
<path d="M30.5052 34.7893L29.1719 34.7227L30.5052 35.1227L30.7319 34.9893L30.5052 34.7893Z" fill="#009B3A" stroke="black" stroke-width="0.0133333"/>
<path d="M29.666 33.8555C29.9994 34.2288 30.5194 34.8421 30.8794 35.1755C30.4394 35.2421 29.7727 35.4155 29.3594 35.5355C29.6794 35.3755 30.1594 35.1888 30.426 35.0021C30.2394 34.6555 29.8927 34.2021 29.666 33.8555Z" fill="#009B3A" stroke="black" stroke-width="0.0133333"/>
<path d="M30.6771 34.8541L29.3438 34.4141L30.5971 35.1607L30.8637 35.1074L30.6771 34.8407" fill="#009B3A"/>
<path d="M30.6771 34.8541L29.3438 34.4141L30.5971 35.1607L30.8637 35.1074L30.6771 34.8407" stroke="black" stroke-width="0.0133333"/>
<path d="M29.7857 33.9336C30.159 34.2803 30.719 34.8269 31.119 35.1336C30.6923 35.2536 30.0523 35.5069 29.6523 35.6669C29.959 35.4803 30.399 35.2403 30.639 35.0003C30.4257 34.6803 30.039 34.2669 29.7857 33.9336Z" fill="#009B3A" stroke="black" stroke-width="0.0133333"/>
<path d="M30.7979 34.9336L29.5312 35.1869L30.8646 35.2669L31.0512 35.0936L30.7846 34.9336" fill="#009B3A"/>
<path d="M30.7979 34.9336L29.5312 35.1869L30.8646 35.2669L31.0512 35.0936L30.7846 34.9336" stroke="black" stroke-width="0.0133333"/>
<path d="M30.5293 34.8555L29.2227 34.9621L30.5693 35.1888L30.7827 35.0288L30.516 34.8555" fill="#009B3A"/>
<path d="M30.5293 34.8555L29.2227 34.9621L30.5693 35.1888L30.7827 35.0288L30.516 34.8555" stroke="black" stroke-width="0.0133333"/>
<path d="M30.7702 34.9337L29.4102 34.707L30.7435 35.2404L30.9835 35.147L30.7702 34.9337Z" fill="#009B3A" stroke="black" stroke-width="0.0133333"/>
<path d="M30.9974 35L29.6641 35.0267L31.0241 35.3333L31.2374 35.1867L30.9974 35Z" fill="#009B3A" stroke="black" stroke-width="0.0133333"/>
<path d="M30.089 34.1344C30.4623 34.4811 31.0223 35.0411 31.409 35.3611C30.969 35.4544 30.3023 35.6811 29.9023 35.8144C30.2223 35.6411 30.6757 35.4278 30.929 35.2144C30.7157 34.8811 30.3423 34.4544 30.089 34.1211V34.1344Z" fill="#009B3A" stroke="black" stroke-width="0.0133333"/>
<path d="M31.1842 35.0537L29.8242 34.707L31.1309 35.3737L31.3842 35.2937L31.1842 35.0537Z" fill="#009B3A" stroke="black" stroke-width="0.0133333"/>
<path d="M30.2109 34.1992C30.6109 34.5192 31.2243 35.0259 31.6376 35.2926C31.2109 35.4392 30.5976 35.7592 30.2243 35.9459C30.5176 35.7192 30.9309 35.4526 31.1576 35.2126C30.9176 34.8926 30.4909 34.5059 30.2243 34.1992H30.2109Z" fill="#009B3A" stroke="black" stroke-width="0.0133333"/>
<path d="M31.3025 35.1211L30.0625 35.4678H31.3958L31.5692 35.2678L31.3025 35.1344V35.1211Z" fill="#009B3A" stroke="black" stroke-width="0.0133333"/>
<path d="M33.0138 33.2654L32.0005 32.5587L30.9871 33.2654L31.3738 32.1454L30.4805 31.452H31.6271L32.0005 30.332L32.3738 31.452H33.5205L32.6271 32.1454L33.0138 33.2654Z" fill="#FEDF00" stroke="black" stroke-width="0.0533333"/>
</g>
</g>
</g>
<defs>
<clipPath id="clip0_423_12578">
<rect width="64" height="64" rx="32" fill="white"/>
</clipPath>
<clipPath id="clip1_423_12578">
<rect width="64" height="64" fill="white"/>
</clipPath>
<clipPath id="clip2_423_12578">
<rect width="85.3333" height="64" fill="white" transform="translate(-10.668)"/>
</clipPath>
</defs>
</svg>
