<svg width="64" height="64" viewBox="0 0 64 64" fill="none" xmlns="http://www.w3.org/2000/svg">
<g clip-path="url(#clip0_423_12951)">
<g clip-path="url(#clip1_423_12951)">
<g clip-path="url(#clip2_423_12951)">
<path d="M-10.668 0H74.6654V64H-10.668V0Z" fill="#20603D"/>
<path d="M-10.668 0H74.6654V48H-10.668V0Z" fill="#FAD201"/>
<path d="M-10.668 0H74.6654V32H-10.668V0Z" fill="#00A1DE"/>
<path d="M67.7839 16.7178L60.6372 17.1356L67.4284 19.3934L60.4239 17.9445L66.4062 21.8734L60.0061 18.6556L64.7528 24.0156L59.4106 19.26L62.6284 25.6601L58.6906 19.6778L60.1306 26.6734L57.8817 19.8911L57.4639 27.0378L57.375 16.6289L67.7839 16.7178Z" fill="#E5BE01"/>
<path d="M67.7839 16.7197L60.6372 16.3019L67.4284 14.0441L60.4239 15.493L66.4062 11.5641L60.0061 14.7819L64.7528 9.42189L59.4106 14.1775L62.6284 7.77744L58.6906 13.7597L60.1306 6.7641L57.8817 13.5464L57.4639 6.39965L57.375 16.8086L67.7839 16.7197Z" fill="#E5BE01"/>
<path d="M47.1457 16.7178L54.2924 17.1356L47.5013 19.3934L54.5058 17.9445L48.5235 21.8734L54.9236 18.6556L50.1769 24.0156L55.5191 19.26L52.3013 25.6601L56.2391 19.6778L54.7991 26.6734L57.048 19.8911L57.4658 27.0378L57.5547 16.6289L47.1457 16.7178Z" fill="#E5BE01"/>
<path d="M47.1457 16.7197L54.2924 16.3019L47.5013 14.0441L54.5058 15.493L48.5235 11.5641L54.9236 14.7819L50.1769 9.42189L55.5191 14.1775L52.3013 7.77744L56.2391 13.7597L54.7991 6.7641L57.048 13.5464L57.4658 6.39965L57.5547 16.8086L47.1457 16.7197Z" fill="#E5BE01"/>
<path d="M57.463 19.7658C59.1468 19.7658 60.5119 18.4007 60.5119 16.7169C60.5119 15.033 59.1468 13.668 57.463 13.668C55.7791 13.668 54.4141 15.033 54.4141 16.7169C54.4141 18.4007 55.7791 19.7658 57.463 19.7658Z" fill="#E5BE01" stroke="#00A1DE" stroke-width="0.302224"/>
</g>
</g>
</g>
<defs>
<clipPath id="clip0_423_12951">
<rect width="64" height="64" rx="32" fill="white"/>
</clipPath>
<clipPath id="clip1_423_12951">
<rect width="64" height="64" fill="white"/>
</clipPath>
<clipPath id="clip2_423_12951">
<rect width="85.3333" height="64" fill="white" transform="translate(-10.668)"/>
</clipPath>
</defs>
</svg>
