<svg width="30" height="32" viewBox="0 0 30 32" fill="none" xmlns="http://www.w3.org/2000/svg">
<g clip-path="url(#clip0_423_24513)">
<g clip-path="url(#clip1_423_24513)">
<g clip-path="url(#clip2_423_24513)">
<path d="M25.3741 24.5326C25.3741 24.8891 25.3838 25.2067 25.3727 25.5256C25.2849 28.0465 23.3852 29.9949 20.8616 30.1216C19.9814 30.1662 19.0956 30.1035 18.2182 30.1592C17.9591 30.176 17.6235 30.3737 17.4786 30.5924C16.7446 31.7066 15.5232 32.2358 14.3018 31.9002C13.0205 31.5478 12.196 30.4949 12.1904 29.2038C12.1862 27.9545 13.0163 26.8459 14.2113 26.5019C15.48 26.1384 16.7767 26.6287 17.4368 27.7999C17.6458 28.1704 17.8714 28.2651 18.2544 28.254C19.0886 28.2303 19.9257 28.2665 20.7599 28.2359C21.9758 28.1913 22.9117 27.474 23.193 26.5465C22.4368 26.3181 21.6206 26.2025 20.9437 25.8334C20.0092 25.325 19.7195 24.3627 19.7181 23.332C19.7126 20.9421 19.7014 18.5508 19.7223 16.1608C19.7348 14.6358 20.519 13.5634 21.8031 13.2152C23.1081 12.8614 24.2292 13.374 25.0955 14.6817C25.1986 14.8377 25.4409 14.9714 25.6289 14.9867C26.1303 15.0285 26.6387 15.0007 27.1554 15.0007C27.6484 11.5328 26.0022 6.98685 22.324 4.29051C18.175 1.24738 12.7517 1.04543 8.46347 3.75431C4.30336 6.38241 2.38556 11.0662 2.84098 15.0411C2.87998 15.0564 2.92037 15.0828 2.96076 15.0828C4.03734 15.101 4.9092 14.8906 5.62785 13.8753C6.25459 12.991 7.38967 12.8976 8.43423 13.2946C9.46903 13.6873 10.1667 14.445 10.2238 15.5675C10.3088 17.2346 10.2809 18.9059 10.2935 20.5758C10.3004 21.527 10.3171 22.4797 10.2865 23.4295C10.2392 24.9003 9.43561 25.9615 8.17518 26.2791C6.87715 26.6064 5.74623 26.0813 4.92451 24.8376C4.79778 24.6468 4.45099 24.5047 4.20726 24.5061C3.32148 24.5075 2.42455 24.4393 1.83125 23.7471C1.40228 23.2457 0.941289 22.5591 0.93154 21.9463C0.877223 18.6775 0.724017 15.3837 1.04853 12.1428C1.67387 5.90609 6.99134 0.800308 13.2127 0.0983681C21.8838 -0.877942 29.1024 5.52726 29.1442 14.2402C29.1553 16.5605 29.1484 18.8822 29.1442 21.2025C29.1414 23.3919 28.1094 24.4407 25.9214 24.4894C25.7654 24.4936 25.608 24.5103 25.3699 24.5284L25.3741 24.5326ZM8.40776 19.775C8.40776 18.5925 8.41193 17.4101 8.40636 16.2277C8.40218 15.4394 8.0749 15.0202 7.4802 15.0146C6.88411 15.0076 6.53313 15.4296 6.53174 16.2068C6.52478 18.5717 6.52478 20.9365 6.53174 23.3014C6.53453 24.0674 6.90082 24.4992 7.49413 24.4838C8.06654 24.4699 8.40079 24.059 8.40636 23.3237C8.41472 22.1412 8.40915 20.9588 8.40915 19.7764L8.40776 19.775ZM23.4869 19.7527C23.4869 18.5466 23.4966 17.3405 23.4827 16.1358C23.4744 15.4129 23.115 15.0076 22.5343 15.0146C21.9563 15.0216 21.6123 15.4282 21.6109 16.1594C21.6039 18.548 21.6039 20.9365 21.6109 23.3237C21.6137 24.0577 21.9507 24.4699 22.5231 24.4838C23.115 24.4992 23.4785 24.0674 23.4841 23.3014C23.4938 22.119 23.4869 20.9365 23.4869 19.7541V19.7527ZM4.58748 22.5577V16.9338C3.13764 16.7026 2.76021 17.0174 2.75742 18.4143C2.75742 19.3182 2.75603 20.2234 2.75742 21.1273C2.76021 22.4699 3.13764 22.7763 4.58748 22.5577ZM25.4131 22.541C26.8323 22.8056 27.2543 22.4741 27.2584 21.151C27.2612 20.1998 27.2626 19.2499 27.2584 18.2987C27.2529 17.0257 26.7292 16.6399 25.4131 16.9686V22.541ZM15.0079 28.2582C14.5065 28.2582 14.0845 28.6857 14.0817 29.1941C14.0789 29.7094 14.4884 30.1175 15.0079 30.1175C15.526 30.1175 15.9355 29.7094 15.9341 29.1941C15.9313 28.6857 15.5093 28.2582 15.0079 28.2582Z" fill="white"/>
</g>
</g>
</g>
<defs>
<clipPath id="clip0_423_24513">
<rect width="30" height="32" fill="white"/>
</clipPath>
<clipPath id="clip1_423_24513">
<rect width="30" height="32" fill="white"/>
</clipPath>
<clipPath id="clip2_423_24513">
<rect width="30" height="32" fill="white"/>
</clipPath>
</defs>
</svg>
