<svg width="20" height="20" viewBox="0 0 20 20" fill="none" xmlns="http://www.w3.org/2000/svg">
<path fill-rule="evenodd" clip-rule="evenodd" d="M9 3.49941C7.54131 3.49941 6.14236 4.07887 5.11091 5.11032C4.07946 6.14177 3.5 7.54072 3.5 8.99941C3.5 10.4581 4.07946 11.857 5.11091 12.8885C6.14236 13.9199 7.54131 14.4994 9 14.4994C10.4587 14.4994 11.8576 13.9199 12.8891 12.8885C13.9205 11.857 14.5 10.4581 14.5 8.99941C14.5 7.54072 13.9205 6.14177 12.8891 5.11032C11.8576 4.07887 10.4587 3.49941 9 3.49941ZM2 8.99941C2.00009 7.88008 2.26861 6.77709 2.78303 5.78297C3.29745 4.78885 4.04276 3.93259 4.95645 3.28601C5.87015 2.63943 6.92557 2.22138 8.0342 2.06695C9.14282 1.91251 10.2723 2.02619 11.3279 2.39843C12.3836 2.77068 13.3345 3.39065 14.101 4.20633C14.8676 5.02201 15.4273 6.00961 15.7333 7.0863C16.0393 8.16299 16.0827 9.29736 15.8597 10.3943C15.6368 11.4912 15.154 12.5186 14.452 13.3904L17.78 16.7194C17.8537 16.7881 17.9128 16.8709 17.9538 16.9629C17.9948 17.0549 18.0168 17.1542 18.0186 17.2549C18.0204 17.3556 18.0018 17.4556 17.9641 17.549C17.9264 17.6424 17.8703 17.7272 17.799 17.7984C17.7278 17.8697 17.643 17.9258 17.5496 17.9635C17.4562 18.0013 17.3562 18.0198 17.2555 18.018C17.1548 18.0162 17.0555 17.9942 16.9635 17.9532C16.8715 17.9122 16.7887 17.8531 16.72 17.7794L13.391 14.4514C12.3625 15.2798 11.1207 15.8004 9.80901 15.953C8.49727 16.1056 7.16912 15.8841 5.97795 15.3139C4.78677 14.7438 3.78117 13.8484 3.07727 12.731C2.37338 11.6137 1.99991 10.32 2 8.99941Z" fill="white" fill-opacity="0.3"/>
</svg>
