<svg width="21" height="20" viewBox="0 0 21 20" fill="none" xmlns="http://www.w3.org/2000/svg">
<path fill-rule="evenodd" clip-rule="evenodd" d="M9.33984 3.49941C7.88115 3.49941 6.48221 4.07887 5.45076 5.11032C4.41931 6.14177 3.83984 7.54072 3.83984 8.99941C3.83984 10.4581 4.41931 11.857 5.45076 12.8885C6.48221 13.9199 7.88115 14.4994 9.33984 14.4994C10.7985 14.4994 12.1975 13.9199 13.2289 12.8885C14.2604 11.857 14.8398 10.4581 14.8398 8.99941C14.8398 7.54072 14.2604 6.14177 13.2289 5.11032C12.1975 4.07887 10.7985 3.49941 9.33984 3.49941ZM2.33984 8.99941C2.33994 7.88008 2.60846 6.77709 3.12287 5.78297C3.63729 4.78885 4.3826 3.93259 5.2963 3.28601C6.20999 2.63943 7.26542 2.22138 8.37404 2.06695C9.48267 1.91251 10.6122 2.02619 11.6678 2.39843C12.7234 2.77068 13.6744 3.39065 14.4409 4.20633C15.2074 5.02201 15.7672 6.00961 16.0732 7.0863C16.3792 8.16299 16.4225 9.29736 16.1996 10.3943C15.9766 11.4912 15.4939 12.5186 14.7918 13.3904L18.1198 16.7194C18.1935 16.7881 18.2526 16.8709 18.2936 16.9629C18.3346 17.0549 18.3567 17.1542 18.3584 17.2549C18.3602 17.3556 18.3417 17.4556 18.304 17.549C18.2662 17.6424 18.2101 17.7272 18.1389 17.7984C18.0677 17.8697 17.9828 17.9258 17.8894 17.9635C17.7961 18.0013 17.696 18.0198 17.5953 18.018C17.4946 18.0162 17.3953 17.9942 17.3033 17.9532C17.2113 17.9122 17.1285 17.8531 17.0598 17.7794L13.7308 14.4514C12.7024 15.2798 11.4606 15.8004 10.1489 15.953C8.83712 16.1056 7.50897 15.8841 6.31779 15.3139C5.12662 14.7438 4.12101 13.8484 3.41712 12.731C2.71322 11.6137 2.33975 10.32 2.33984 8.99941Z" fill="white" fill-opacity="0.5"/>
</svg>
