<svg width="64" height="64" viewBox="0 0 64 64" fill="none" xmlns="http://www.w3.org/2000/svg">
<g clip-path="url(#clip0_423_14263)">
<g clip-path="url(#clip1_423_14263)">
<g clip-path="url(#clip2_423_14263)">
<path d="M-10.668 0H74.6654V64H-10.668V0Z" fill="#006600"/>
<path d="M-10.668 0H74.6654V45.72H-10.668V0Z" fill="white"/>
<path d="M-10.668 0H74.6654V18.28H-10.668V0Z" fill="#CC0000"/>
<path d="M29.438 31.1458C29.5636 30.9328 29.7548 30.7661 29.9829 30.6706C30.211 30.5751 30.4639 30.5559 30.7038 30.6159C30.9438 30.6758 31.1579 30.8118 31.3142 31.0034C31.4706 31.195 31.5608 31.4321 31.5714 31.6792V36.2658H32.4247V31.6925C32.4353 31.4454 32.5255 31.2084 32.6818 31.0167C32.8382 30.8251 33.0523 30.6892 33.2922 30.6292C33.5321 30.5692 33.785 30.5884 34.0131 30.6839C34.2413 30.7794 34.4324 30.9461 34.558 31.1592C34.6902 30.7548 34.7247 30.3248 34.6588 29.9045C34.5928 29.4842 34.4282 29.0855 34.1784 28.7411C33.9286 28.3967 33.6008 28.1163 33.2219 27.923C32.8429 27.7297 32.4235 27.6289 31.998 27.6289C31.5726 27.6289 31.1532 27.7297 30.7742 27.923C30.3952 28.1163 30.0674 28.3967 29.8176 28.7411C29.5679 29.0855 29.4033 29.4842 29.3373 29.9045C29.2713 30.3248 29.3058 30.7548 29.438 31.1592" fill="#F8C300"/>
<path d="M30.0508 29.9583C30.4251 29.8809 30.8144 29.9229 31.1636 30.0784C31.5128 30.2339 31.8045 30.495 31.9974 30.825C32.1904 30.495 32.4821 30.2339 32.8313 30.0784C33.1805 29.9229 33.5698 29.8809 33.9441 29.9583C33.8882 29.4813 33.659 29.0414 33.3002 28.7222C32.9413 28.4029 32.4778 28.2266 31.9974 28.2266C31.5171 28.2266 31.0536 28.4029 30.6947 28.7222C30.3359 29.0414 30.1067 29.4813 30.0508 29.9583Z" fill="white"/>
<path d="M31.5723 34.4414C31.5156 35.0912 31.2768 35.7119 30.8832 36.232C30.4896 36.7522 29.9573 37.1507 29.3473 37.3819C28.7374 37.6131 28.0746 37.6675 27.4351 37.5388C26.7956 37.4102 26.2054 37.1038 25.7323 36.6547C25.5317 37.1668 25.2164 37.6261 24.8106 37.9973C24.4049 38.3686 23.9195 38.642 23.3917 38.7964C22.8638 38.9509 22.3076 38.9824 21.7657 38.8885C21.2239 38.7946 20.7107 38.5778 20.2656 38.2547C20.599 41.5881 25.599 40.9081 25.9723 37.6681C27.5323 40.4281 30.9856 39.6281 31.999 36.2547L31.5723 34.4414Z" fill="#F8C300"/>
<path d="M32.4238 34.4414C32.4805 35.0912 32.7193 35.7119 33.1129 36.232C33.5065 36.7522 34.0388 37.1507 34.6488 37.3819C35.2587 37.6131 35.9215 37.6675 36.561 37.5388C37.2005 37.4102 37.7907 37.1038 38.2638 36.6547C38.4644 37.1668 38.7797 37.6261 39.1855 37.9973C39.5912 38.3686 40.0766 38.642 40.6044 38.7964C41.1323 38.9509 41.6885 38.9824 42.2303 38.8885C42.7722 38.7946 43.2854 38.5778 43.7305 38.2547C43.3971 41.5881 38.3971 40.9081 38.0238 37.6681C36.4638 40.4281 33.0105 39.6281 31.9971 36.2547L32.4238 34.4414Z" fill="#F8C300"/>
<path d="M28.2403 40.3484C27.5336 41.8551 26.1469 42.1084 24.9336 40.8951C24.9336 40.8951 25.4136 40.5484 25.9469 40.4551C25.8403 40.0418 26.0403 39.4551 26.3336 39.1484C26.7219 39.4031 27.0094 39.7849 27.1469 40.2284C27.8803 40.1351 28.2403 40.3618 28.2403 40.3618V40.3484Z" fill="#F8C300"/>
<path d="M33.7069 40.1771C32.7636 41.5481 31.3542 41.5715 30.3553 40.1763C30.3553 40.1763 30.8855 39.9127 31.4269 39.9077C31.3892 39.4825 31.6823 38.9364 32.0218 38.6818C32.3633 38.9964 32.5846 39.4201 32.6478 39.8801C33.3866 39.9078 33.7047 40.1902 33.7047 40.1902L33.7069 40.1771Z" fill="#F8C300"/>
<path d="M39.0677 40.8921C37.9153 42.0927 36.5206 41.8881 35.7603 40.3498C35.7603 40.3498 36.3261 40.1753 36.8612 40.2579C36.8927 39.8322 37.2702 39.3406 37.6464 39.1442C37.9325 39.5099 38.0825 39.9637 38.0705 40.4279C38.7951 40.5746 39.0634 40.9048 39.0634 40.9048L39.0677 40.8921Z" fill="#F8C300"/>
<path d="M23.1328 43.7057C28.9185 41.9835 35.0805 41.9835 40.8661 43.7057" stroke="#F8C300" stroke-width="1.46667"/>
<path d="M33.3791 23.8456L29.7656 21.2202H34.2322L30.6187 23.8456L31.9989 19.5977L33.3791 23.8456Z" fill="#F8C300"/>
<path d="M26.9768 25.5644L23.3633 22.939H27.8298L24.2163 25.5644L25.5966 21.3164L26.9768 25.5644Z" fill="#F8C300"/>
<path d="M22.2971 30.244L18.6836 27.6187H23.1502L19.5366 30.244L20.9169 25.9961L22.2971 30.244Z" fill="#F8C300"/>
<path d="M20.5784 36.6464L16.9648 34.021H21.4314L17.8179 36.6464L19.1981 32.3984L20.5784 36.6464Z" fill="#F8C300"/>
<path d="M37.0193 25.5644L40.6328 22.939H36.1663L39.7798 25.5644L38.3995 21.3164L37.0193 25.5644Z" fill="#F8C300"/>
<path d="M41.699 30.244L45.3125 27.6187H40.8459L44.4595 30.244L43.0792 25.9961L41.699 30.244Z" fill="#F8C300"/>
<path d="M43.4177 36.6464L47.0312 34.021H42.5647L46.1782 36.6464L44.798 32.3984L43.4177 36.6464Z" fill="#F8C300"/>
</g>
</g>
</g>
<defs>
<clipPath id="clip0_423_14263">
<rect width="64" height="64" rx="32" fill="white"/>
</clipPath>
<clipPath id="clip1_423_14263">
<rect width="64" height="64" fill="white"/>
</clipPath>
<clipPath id="clip2_423_14263">
<rect width="85.3333" height="64" fill="white" transform="translate(-10.668)"/>
</clipPath>
</defs>
</svg>
