<svg width="64" height="64" viewBox="0 0 64 64" fill="none" xmlns="http://www.w3.org/2000/svg">
<g clip-path="url(#clip0_423_14488)">
<g clip-path="url(#clip1_423_14488)">
<g clip-path="url(#clip2_423_14488)">
<path d="M-10.668 0H74.6654V64H-10.668V0Z" fill="white"/>
<path d="M24.7987 7.10547H74.6654V14.2255H24.7987V7.10547ZM24.7987 21.3321H74.6654V28.4388H24.7987V21.3321ZM-10.668 35.5588H74.6654V42.6655H-10.668V35.5588ZM-10.668 49.7721H74.6654V56.8921H-10.668V49.7721Z" fill="#0038A8"/>
<path d="M6.32546 21.2539L7.49879 23.0139C2.64902 26.5339 5.58235 28.5677 2.17969 29.6628C4.29169 27.629 1.82769 27.4335 3.6268 23.0921" fill="#FCD116"/>
<path d="M6.32546 21.2539L7.49879 23.0139C2.64902 26.5339 5.58235 28.5677 2.17969 29.6628C4.29169 27.629 1.82769 27.4335 3.6268 23.0921" stroke="black" stroke-width="0.234666" stroke-miterlimit="20" stroke-linecap="square"/>
<path d="M5.46502 21.7617C2.80546 26.1422 4.52635 28.567 2.17969 29.7013" stroke="black" stroke-width="0.234666" stroke-miterlimit="20"/>
<path d="M7.10838 17.7734H9.45505L7.10838 30.6801L4.76172 17.7734H7.10838V30.6801Z" fill="#FCD116"/>
<path d="M7.10838 17.7734H9.45505L7.10838 30.6801M7.10838 17.7734H4.76172L7.10838 30.6801M7.10838 17.7734V30.6801" stroke="black" stroke-width="0.234666" stroke-miterlimit="20"/>
<path d="M4.09166 19.6815L3.67683 21.7557C-2.24149 20.8154 -1.60541 24.3277 -4.78582 22.696C-1.85432 22.7513 -3.45835 20.8707 0.883599 19.0731" fill="#FCD116"/>
<path d="M4.09166 19.6815L3.67683 21.7557C-2.24149 20.8154 -1.60541 24.3277 -4.78582 22.696C-1.85432 22.7513 -3.45835 20.8707 0.883599 19.0731" stroke="black" stroke-width="0.234666" stroke-miterlimit="20" stroke-linecap="square"/>
<path d="M3.12386 19.4325C-1.85417 20.6493 -2.35197 23.5808 -4.81333 22.7235" stroke="black" stroke-width="0.234666" stroke-miterlimit="20"/>
<path d="M7.10465 17.7726L8.764 19.432L-2.02173 26.899L5.44531 16.1133L7.10465 17.7726L-2.02173 26.899Z" fill="#FCD116"/>
<path d="M7.10465 17.7726L8.764 19.432L-2.02173 26.899M7.10465 17.7726L5.44531 16.1133L-2.02173 26.899M7.10465 17.7726L-2.02173 26.899" stroke="black" stroke-width="0.234666" stroke-miterlimit="20"/>
<path d="M3.625 16.9934L1.865 18.1668C-1.65499 13.317 -3.68877 16.2503 -4.78388 12.8477C-2.7501 14.9597 -2.55455 12.4957 1.78678 14.2948" fill="#FCD116"/>
<path d="M3.625 16.9934L1.865 18.1668C-1.65499 13.317 -3.68877 16.2503 -4.78388 12.8477C-2.7501 14.9597 -2.55455 12.4957 1.78678 14.2948" stroke="black" stroke-width="0.234666" stroke-miterlimit="20" stroke-linecap="square"/>
<path d="M3.11719 16.133C-1.26325 13.4734 -3.68814 15.1943 -4.82236 12.8477" stroke="black" stroke-width="0.234666" stroke-miterlimit="20"/>
<path d="M7.10547 17.7764V20.123L-5.80118 17.7764L7.10547 15.4297V17.7764H-5.80118Z" fill="#FCD116"/>
<path d="M7.10547 17.7764V20.123L-5.80118 17.7764M7.10547 17.7764V15.4297L-5.80118 17.7764M7.10547 17.7764H-5.80118" stroke="black" stroke-width="0.234666" stroke-miterlimit="20"/>
<path d="M5.1974 14.7596L3.12322 14.3448C4.06352 8.42647 0.551245 9.06255 2.18293 5.88215C2.12762 8.81365 4.00821 7.20962 5.80583 11.5516" fill="#FCD116"/>
<path d="M5.1974 14.7596L3.12322 14.3448C4.06352 8.42647 0.551245 9.06255 2.18293 5.88215C2.12762 8.81365 4.00821 7.20962 5.80583 11.5516" stroke="black" stroke-width="0.234666" stroke-miterlimit="20" stroke-linecap="square"/>
<path d="M5.44645 13.7918C4.2296 8.8138 1.2981 8.316 2.15542 5.85464" stroke="black" stroke-width="0.234666" stroke-miterlimit="20"/>
<path d="M7.10628 17.7726L5.44694 19.432L-2.0201 8.64624L8.76562 16.1133L7.10628 17.7726L-2.0201 8.64624Z" fill="#FCD116"/>
<path d="M7.10628 17.7726L5.44694 19.432L-2.0201 8.64624M7.10628 17.7726L8.76562 16.1133L-2.0201 8.64624M7.10628 17.7726L-2.0201 8.64624" stroke="black" stroke-width="0.234666" stroke-miterlimit="20"/>
<path d="M7.88548 14.2969L6.71214 12.5369C11.5619 9.01688 8.62859 6.98311 12.0312 5.888C9.91925 7.92177 12.3832 8.11733 10.5841 12.4587" fill="#FCD116"/>
<path d="M7.88548 14.2969L6.71214 12.5369C11.5619 9.01688 8.62859 6.98311 12.0312 5.888C9.91925 7.92177 12.3832 8.11733 10.5841 12.4587" stroke="black" stroke-width="0.234666" stroke-miterlimit="20" stroke-linecap="square"/>
<path d="M8.74592 13.7891C11.4055 9.40862 9.68459 6.98374 12.0312 5.84952" stroke="black" stroke-width="0.234666" stroke-miterlimit="20"/>
<path d="M7.10255 17.7773H4.75589L7.10255 4.87069L9.44922 17.7773H7.10255V4.87069Z" fill="#FCD116"/>
<path d="M7.10255 17.7773H4.75589L7.10255 4.87069M7.10255 17.7773H9.44922L7.10255 4.87069M7.10255 17.7773V4.87069" stroke="black" stroke-width="0.234666" stroke-miterlimit="20"/>
<path d="M10.1193 15.8693L10.5341 13.7951C16.4524 14.7354 15.8164 11.2231 18.9968 12.8548C16.0653 12.7995 17.6693 14.6801 13.3273 16.4777" fill="#FCD116"/>
<path d="M10.1193 15.8693L10.5341 13.7951C16.4524 14.7354 15.8164 11.2231 18.9968 12.8548C16.0653 12.7995 17.6693 14.6801 13.3273 16.4777" stroke="black" stroke-width="0.234666" stroke-miterlimit="20" stroke-linecap="square"/>
<path d="M11.0871 16.1183C16.0651 14.9015 16.5629 11.97 19.0243 12.8273" stroke="black" stroke-width="0.234666" stroke-miterlimit="20"/>
<path d="M7.10628 17.7782L5.44694 16.1188L16.2327 8.65178L8.76562 19.4375L7.10628 17.7782L16.2327 8.65178Z" fill="#FCD116"/>
<path d="M7.10628 17.7782L5.44694 16.1188L16.2327 8.65178M7.10628 17.7782L8.76562 19.4375L16.2327 8.65178M7.10628 17.7782L16.2327 8.65178" stroke="black" stroke-width="0.234666" stroke-miterlimit="20"/>
<path d="M10.5859 18.5574L12.3459 17.384C15.8659 22.2338 17.8997 19.3005 18.9948 22.7031C16.961 20.5911 16.7655 23.0551 12.4242 21.256" fill="#FCD116"/>
<path d="M10.5859 18.5574L12.3459 17.384C15.8659 22.2338 17.8997 19.3005 18.9948 22.7031C16.961 20.5911 16.7655 23.0551 12.4242 21.256" stroke="black" stroke-width="0.234666" stroke-miterlimit="20" stroke-linecap="square"/>
<path d="M11.0938 19.4178C15.4742 22.0773 17.8991 20.3565 19.0333 22.7031" stroke="black" stroke-width="0.234666" stroke-miterlimit="20"/>
<path d="M7.10547 17.7744V15.4278L20.0121 17.7744L7.10547 20.1211V17.7744H20.0121Z" fill="#FCD116"/>
<path d="M7.10547 17.7744V15.4278L20.0121 17.7744M7.10547 17.7744V20.1211L20.0121 17.7744M7.10547 17.7744H20.0121" stroke="black" stroke-width="0.234666" stroke-miterlimit="20"/>
<path d="M9.01354 20.7912L11.0877 21.206C10.1474 27.1243 13.6597 26.4882 12.028 29.6686C12.0833 26.7371 10.2027 28.3412 8.40511 23.9992" fill="#FCD116"/>
<path d="M9.01354 20.7912L11.0877 21.206C10.1474 27.1243 13.6597 26.4882 12.028 29.6686C12.0833 26.7371 10.2027 28.3412 8.40511 23.9992" stroke="black" stroke-width="0.234666" stroke-miterlimit="20" stroke-linecap="square"/>
<path d="M8.76449 21.759C9.98134 26.737 12.9128 27.2348 12.0555 29.6961" stroke="black" stroke-width="0.234666" stroke-miterlimit="20"/>
<path d="M7.10465 17.7782L8.764 16.1188L16.231 26.9045L5.44531 19.4375L7.10465 17.7782L16.231 26.9045Z" fill="#FCD116"/>
<path d="M7.10465 17.7782L8.764 16.1188L16.231 26.9045M7.10465 17.7782L5.44531 19.4375L16.231 26.9045M7.10465 17.7782L16.231 26.9045" stroke="black" stroke-width="0.234666" stroke-miterlimit="20"/>
<path d="M7.1069 22.0771C9.48295 22.0771 11.4091 20.1509 11.4091 17.7749C11.4091 15.3988 9.48295 13.4727 7.1069 13.4727C4.73086 13.4727 2.80469 15.3988 2.80469 17.7749C2.80469 20.1509 4.73086 22.0771 7.1069 22.0771Z" fill="#FCD116" stroke="black" stroke-width="0.234666" stroke-miterlimit="20"/>
<path d="M10.2741 16.051C10.0003 16.3638 9.84384 15.8163 8.86607 15.8163C7.88831 15.8163 7.73186 16.403 7.57542 16.2856C7.41898 16.1683 8.39675 15.4643 8.70963 15.4252C9.02252 15.3861 9.92206 15.699 10.2741 16.051ZM9.13985 16.403C9.41362 16.6376 9.17896 17.1461 8.90518 17.1461C8.63141 17.1461 8.12297 16.6767 8.35764 16.3638" fill="black"/>
<path d="M7.84766 16.7546C7.88677 16.2853 8.27787 16.207 8.90364 16.207C9.52941 16.207 9.80319 16.6764 10.0379 16.7937C9.76408 16.7937 9.52941 16.4026 8.90364 16.4026C8.27787 16.4026 8.27787 16.4026 7.84766 16.7937M7.96499 16.8719C8.12143 16.6372 8.31698 17.1066 8.7472 17.1066C9.17742 17.1066 9.41208 16.9892 9.68586 16.7937C9.95963 16.5981 9.29475 17.263 8.86453 17.263C8.43432 17.263 7.84766 17.0284 7.96499 16.8719Z" fill="black"/>
<path d="M9.29591 17.1064C9.80435 16.8326 9.49146 16.4415 9.29591 16.3633C9.37413 16.4415 9.68701 16.8326 9.29591 17.1064ZM7.10571 19.453C7.34037 19.453 7.41859 19.3748 7.73148 19.3748C8.04437 19.3748 8.78747 19.805 9.21769 19.6486C8.31814 20.0006 8.67014 19.7659 7.10571 19.7659H6.91016M9.37413 20.0006C9.21769 19.7268 9.2568 19.805 8.94391 19.3748C9.2568 19.6095 9.33502 19.7268 9.37413 20.0006ZM7.10571 20.3917C8.08348 20.3917 7.92703 20.1961 9.21769 19.6486C8.27903 19.7659 8.08348 20.0788 7.10571 20.0788H6.91016M7.10571 18.9446C7.37948 18.9446 7.45771 18.749 7.77059 18.749C8.08348 18.749 8.51369 18.8664 8.70925 19.0228C8.74836 19.0619 8.59191 18.7099 8.27903 18.6708C7.96614 18.6317 8.08348 18.1233 7.73148 18.045C7.73148 18.2015 7.84881 18.1624 7.88792 18.397C7.88792 18.5926 7.53593 18.5926 7.45771 18.397C7.53593 18.7099 7.30126 18.7099 7.10571 18.7099" fill="black"/>
<path d="M3.93688 16.051C4.21065 16.3638 4.3671 15.8163 5.34486 15.8163C6.32263 15.8163 6.47907 16.403 6.63552 16.2856C6.79196 16.1683 5.81419 15.4643 5.50131 15.4252C5.18842 15.3861 4.28888 15.699 3.93688 16.051ZM5.07109 16.403C4.79731 16.6376 5.03198 17.1461 5.30575 17.1461C5.57953 17.1461 6.08797 16.6767 5.8533 16.3638" fill="black"/>
<path d="M6.36328 16.7546C6.32417 16.2853 5.93306 16.207 5.30729 16.207C4.68152 16.207 4.40775 16.6764 4.17308 16.7937C4.44686 16.7937 4.68152 16.4026 5.30729 16.4026C5.93306 16.4026 5.93306 16.4026 6.36328 16.7937M6.24595 16.8719C6.08951 16.6372 5.89395 17.1066 5.46374 17.1066C5.03352 17.1066 4.79885 16.9892 4.52508 16.7937C4.25131 16.5981 4.91619 17.263 5.3464 17.263C5.77662 17.263 6.36328 17.0284 6.24595 16.8719Z" fill="black"/>
<path d="M4.91503 17.1064C4.40659 16.8326 4.71948 16.4415 4.91503 16.3633C4.83681 16.4415 4.52392 16.8326 4.91503 17.1064ZM7.10523 19.453C6.87056 19.453 6.79234 19.3748 6.47946 19.3748C6.16657 19.3748 5.42347 19.805 4.99325 19.6486C5.8928 20.0006 5.5408 19.7659 7.10523 19.7659H7.30078M4.83681 20.0006C4.99325 19.7268 4.95414 19.805 5.26703 19.3748C4.95414 19.6095 4.87592 19.7268 4.83681 20.0006ZM7.10523 20.3917C6.12746 20.3917 6.2839 20.1961 4.99325 19.6486C5.93191 19.7659 6.12746 20.0788 7.10523 20.0788H7.30078M7.10523 18.9446C6.83145 18.9446 6.75323 18.749 6.44035 18.749C6.12746 18.749 5.69724 18.8664 5.50169 19.0228C5.46258 19.0619 5.61902 18.7099 5.93191 18.6708C6.24479 18.6317 6.12746 18.1233 6.47946 18.045C6.47946 18.2015 6.36213 18.1624 6.32301 18.397C6.32301 18.5926 6.67501 18.5926 6.75323 18.397C6.67501 18.7099 6.90967 18.7099 7.10523 18.7099" fill="black"/>
<path d="M7.10713 20.7461C6.91157 20.7461 6.40313 20.8634 7.10713 20.8634C7.81112 20.8634 7.30268 20.7461 7.10713 20.7461Z" fill="black"/>
</g>
</g>
</g>
<defs>
<clipPath id="clip0_423_14488">
<rect width="64" height="64" rx="32" fill="white"/>
</clipPath>
<clipPath id="clip1_423_14488">
<rect width="64" height="64" fill="white"/>
</clipPath>
<clipPath id="clip2_423_14488">
<rect width="85.3333" height="64" fill="white" transform="translate(-10.668)"/>
</clipPath>
</defs>
</svg>
