<svg width="64" height="64" viewBox="0 0 64 64" fill="none" xmlns="http://www.w3.org/2000/svg">
<g clip-path="url(#clip0_423_14548)">
<g clip-path="url(#clip1_423_14548)">
<g clip-path="url(#clip2_423_14548)">
<path d="M-10.668 42.668H74.6654V64.0013H-10.668V42.668Z" fill="#1EB53A"/>
<path d="M-10.668 0H74.6654V21.3333H-10.668V0Z" fill="#0099B5"/>
<path d="M-10.668 20.4805H74.6654V43.5205H-10.668V20.4805Z" fill="#CE1126"/>
<path d="M-10.668 21.7617H74.6654V42.2417H-10.668V21.7617Z" fill="white"/>
<path d="M7.25031 17.9186C11.4919 17.9186 14.9303 14.4801 14.9303 10.2386C14.9303 5.99705 11.4919 2.55859 7.25031 2.55859C3.00876 2.55859 -0.429688 5.99705 -0.429688 10.2386C-0.429688 14.4801 3.00876 17.9186 7.25031 17.9186Z" fill="white"/>
<path d="M9.81281 17.9186C14.0544 17.9186 17.4928 14.4801 17.4928 10.2386C17.4928 5.99705 14.0544 2.55859 9.81281 2.55859C5.57127 2.55859 2.13281 5.99705 2.13281 10.2386C2.13281 14.4801 5.57127 17.9186 9.81281 17.9186Z" fill="#0099B5"/>
<path d="M24.1466 14.8516L23.6602 16.3108L24.4026 16.5668" fill="white"/>
<path d="M24.1464 14.8516L24.6328 16.3108L23.8904 16.5668" fill="white"/>
<path d="M25.6073 15.9118L24.0692 15.9001L24.0552 16.6853" fill="white"/>
<path d="M25.6075 15.9124L24.37 16.8259L23.8971 16.199" fill="white"/>
<path d="M22.6855 15.9124L23.9229 16.8259L24.3958 16.199" fill="white"/>
<path d="M22.6856 15.9118L24.2237 15.9001L24.2378 16.6853" fill="white"/>
<path d="M25.0479 17.6296L24.5837 16.1632L23.8326 16.3925" fill="white"/>
<path d="M25.0498 17.6282L23.7986 16.7335L24.2487 16.0901" fill="white"/>
<path d="M23.2432 17.6282L24.4944 16.7335L24.0443 16.0901" fill="white"/>
<path d="M23.2451 17.6296L23.7093 16.1632L24.4603 16.3925" fill="white"/>
<path d="M24.1466 8.70703L23.6602 10.1662L24.4026 10.4222" fill="white"/>
<path d="M24.1464 8.70703L24.6328 10.1662L23.8904 10.4222" fill="white"/>
<path d="M25.6073 9.76728L24.0692 9.75561L24.0552 10.5408" fill="white"/>
<path d="M25.6075 9.76787L24.37 10.6814L23.8971 10.0544" fill="white"/>
<path d="M22.6855 9.76787L23.9229 10.6814L24.3958 10.0544" fill="white"/>
<path d="M22.6856 9.76728L24.2237 9.75561L24.2378 10.5408" fill="white"/>
<path d="M25.0479 11.4851L24.5837 10.0187L23.8326 10.248" fill="white"/>
<path d="M25.0498 11.4836L23.7986 10.589L24.2487 9.94553" fill="white"/>
<path d="M23.2432 11.4836L24.4944 10.589L24.0443 9.94553" fill="white"/>
<path d="M23.2451 11.4851L23.7093 10.0187L24.4603 10.248" fill="white"/>
<path d="M24.1466 2.5625L23.6602 4.0217L24.4026 4.2777" fill="white"/>
<path d="M24.1464 2.5625L24.6328 4.0217L23.8904 4.2777" fill="white"/>
<path d="M25.6073 3.62275L24.0692 3.61107L24.0552 4.39625" fill="white"/>
<path d="M25.6075 3.62334L24.37 4.53686L23.8971 3.9099" fill="white"/>
<path d="M22.6855 3.62334L23.9229 4.53686L24.3958 3.9099" fill="white"/>
<path d="M22.6856 3.62275L24.2237 3.61107L24.2378 4.39625" fill="white"/>
<path d="M25.0479 5.34059L24.5837 3.87417L23.8326 4.10343" fill="white"/>
<path d="M25.0498 5.3391L23.7986 4.44448L24.2487 3.801" fill="white"/>
<path d="M23.2432 5.3391L24.4944 4.44448L24.0443 3.801" fill="white"/>
<path d="M23.2451 5.34059L23.7093 3.87417L24.4603 4.10343" fill="white"/>
<path d="M30.2911 14.8516L29.8047 16.3108L30.5471 16.5668" fill="white"/>
<path d="M30.2909 14.8516L30.7773 16.3108L30.0349 16.5668" fill="white"/>
<path d="M31.7519 15.9118L30.2138 15.9001L30.1997 16.6853" fill="white"/>
<path d="M31.752 15.9124L30.5146 16.8259L30.0417 16.199" fill="white"/>
<path d="M28.83 15.9124L30.0675 16.8259L30.5404 16.199" fill="white"/>
<path d="M28.8302 15.9118L30.3683 15.9001L30.3823 16.6853" fill="white"/>
<path d="M31.1924 17.6296L30.7282 16.1632L29.9772 16.3925" fill="white"/>
<path d="M31.1943 17.6282L29.9431 16.7335L30.3932 16.0901" fill="white"/>
<path d="M29.3877 17.6282L30.6389 16.7335L30.1888 16.0901" fill="white"/>
<path d="M29.3896 17.6296L29.8538 16.1632L30.6049 16.3925" fill="white"/>
<path d="M30.2911 8.70703L29.8047 10.1662L30.5471 10.4222" fill="white"/>
<path d="M30.2909 8.70703L30.7773 10.1662L30.0349 10.4222" fill="white"/>
<path d="M31.7519 9.76728L30.2138 9.75561L30.1997 10.5408" fill="white"/>
<path d="M31.752 9.76787L30.5146 10.6814L30.0417 10.0544" fill="white"/>
<path d="M28.83 9.76787L30.0675 10.6814L30.5404 10.0544" fill="white"/>
<path d="M28.8302 9.76728L30.3683 9.75561L30.3823 10.5408" fill="white"/>
<path d="M31.1924 11.4851L30.7282 10.0187L29.9772 10.248" fill="white"/>
<path d="M31.1943 11.4836L29.9431 10.589L30.3932 9.94553" fill="white"/>
<path d="M29.3877 11.4836L30.6389 10.589L30.1888 9.94553" fill="white"/>
<path d="M29.3896 11.4851L29.8538 10.0187L30.6049 10.248" fill="white"/>
<path d="M30.2911 2.5625L29.8047 4.0217L30.5471 4.2777" fill="white"/>
<path d="M30.2909 2.5625L30.7773 4.0217L30.0349 4.2777" fill="white"/>
<path d="M31.7519 3.62275L30.2138 3.61107L30.1997 4.39625" fill="white"/>
<path d="M31.752 3.62334L30.5146 4.53686L30.0417 3.9099" fill="white"/>
<path d="M28.83 3.62334L30.0675 4.53686L30.5404 3.9099" fill="white"/>
<path d="M28.8302 3.62275L30.3683 3.61107L30.3823 4.39625" fill="white"/>
<path d="M31.1924 5.34059L30.7282 3.87417L29.9772 4.10343" fill="white"/>
<path d="M31.1943 5.3391L29.9431 4.44448L30.3932 3.801" fill="white"/>
<path d="M29.3877 5.3391L30.6389 4.44448L30.1888 3.801" fill="white"/>
<path d="M29.3896 5.34059L29.8538 3.87417L30.6049 4.10343" fill="white"/>
<path d="M36.4317 14.8516L35.9453 16.3108L36.6877 16.5668" fill="white"/>
<path d="M36.4316 14.8516L36.918 16.3108L36.1756 16.5668" fill="white"/>
<path d="M37.8925 15.9118L36.3544 15.9001L36.3403 16.6853" fill="white"/>
<path d="M37.8927 15.9124L36.6552 16.8259L36.1823 16.199" fill="white"/>
<path d="M34.9706 15.9124L36.2081 16.8259L36.681 16.199" fill="white"/>
<path d="M34.9708 15.9118L36.5089 15.9001L36.5229 16.6853" fill="white"/>
<path d="M37.3331 17.6296L36.8689 16.1632L36.1178 16.3925" fill="white"/>
<path d="M37.3349 17.6282L36.0837 16.7335L36.5339 16.0901" fill="white"/>
<path d="M35.5284 17.6282L36.7796 16.7335L36.3294 16.0901" fill="white"/>
<path d="M35.5302 17.6296L35.9944 16.1632L36.7455 16.3925" fill="white"/>
<path d="M36.4317 8.70703L35.9453 10.1662L36.6877 10.4222" fill="white"/>
<path d="M36.4316 8.70703L36.918 10.1662L36.1756 10.4222" fill="white"/>
<path d="M37.8925 9.76728L36.3544 9.75561L36.3403 10.5408" fill="white"/>
<path d="M37.8927 9.76787L36.6552 10.6814L36.1823 10.0544" fill="white"/>
<path d="M34.9706 9.76787L36.2081 10.6814L36.681 10.0544" fill="white"/>
<path d="M34.9708 9.76728L36.5089 9.75561L36.5229 10.5408" fill="white"/>
<path d="M37.3331 11.4851L36.8689 10.0187L36.1178 10.248" fill="white"/>
<path d="M37.3349 11.4836L36.0837 10.589L36.5339 9.94553" fill="white"/>
<path d="M35.5284 11.4836L36.7796 10.589L36.3294 9.94553" fill="white"/>
<path d="M35.5302 11.4851L35.9944 10.0187L36.7455 10.248" fill="white"/>
<path d="M36.4317 2.5625L35.9453 4.0217L36.6877 4.2777" fill="white"/>
<path d="M36.4316 2.5625L36.918 4.0217L36.1756 4.2777" fill="white"/>
<path d="M37.8925 3.62275L36.3544 3.61107L36.3403 4.39625" fill="white"/>
<path d="M37.8927 3.62334L36.6552 4.53686L36.1823 3.9099" fill="white"/>
<path d="M34.9706 3.62334L36.2081 4.53686L36.681 3.9099" fill="white"/>
<path d="M34.9708 3.62275L36.5089 3.61107L36.5229 4.39625" fill="white"/>
<path d="M37.3331 5.34059L36.8689 3.87417L36.1178 4.10343" fill="white"/>
<path d="M37.3349 5.3391L36.0837 4.44448L36.5339 3.801" fill="white"/>
<path d="M35.5284 5.3391L36.7796 4.44448L36.3294 3.801" fill="white"/>
<path d="M35.5302 5.34059L35.9944 3.87417L36.7455 4.10343" fill="white"/>
<path d="M11.8575 14.8516L11.3711 16.3108L12.1135 16.5668" fill="white"/>
<path d="M11.8573 14.8516L12.3438 16.3108L11.6013 16.5668" fill="white"/>
<path d="M13.3183 15.9118L11.7802 15.9001L11.7661 16.6853" fill="white"/>
<path d="M13.3184 15.9124L12.081 16.8259L11.6081 16.199" fill="white"/>
<path d="M10.3964 15.9124L11.6339 16.8259L12.1068 16.199" fill="white"/>
<path d="M10.3966 15.9118L11.9347 15.9001L11.9487 16.6853" fill="white"/>
<path d="M12.7588 17.6296L12.2946 16.1632L11.5436 16.3925" fill="white"/>
<path d="M12.7607 17.6282L11.5095 16.7335L11.9596 16.0901" fill="white"/>
<path d="M10.9542 17.6282L12.2054 16.7335L11.7552 16.0901" fill="white"/>
<path d="M10.956 17.6296L11.4202 16.1632L12.1713 16.3925" fill="white"/>
<path d="M18.002 14.8516L17.5156 16.3108L18.258 16.5668" fill="white"/>
<path d="M18.0019 14.8516L18.4883 16.3108L17.7459 16.5668" fill="white"/>
<path d="M19.4628 15.9118L17.9247 15.9001L17.9107 16.6853" fill="white"/>
<path d="M19.463 15.9124L18.2255 16.8259L17.7526 16.199" fill="white"/>
<path d="M16.5409 15.9124L17.7784 16.8259L18.2513 16.199" fill="white"/>
<path d="M16.5411 15.9118L18.0792 15.9001L18.0932 16.6853" fill="white"/>
<path d="M18.9034 17.6296L18.4392 16.1632L17.6881 16.3925" fill="white"/>
<path d="M18.9052 17.6282L17.654 16.7335L18.1042 16.0901" fill="white"/>
<path d="M17.0987 17.6282L18.3499 16.7335L17.8997 16.0901" fill="white"/>
<path d="M17.1005 17.6296L17.5647 16.1632L18.3158 16.3925" fill="white"/>
<path d="M18.002 8.70703L17.5156 10.1662L18.258 10.4222" fill="white"/>
<path d="M18.0019 8.70703L18.4883 10.1662L17.7459 10.4222" fill="white"/>
<path d="M19.4628 9.76728L17.9247 9.75561L17.9107 10.5408" fill="white"/>
<path d="M19.463 9.76787L18.2255 10.6814L17.7526 10.0544" fill="white"/>
<path d="M16.5409 9.76787L17.7784 10.6814L18.2513 10.0544" fill="white"/>
<path d="M16.5411 9.76728L18.0792 9.75561L18.0932 10.5408" fill="white"/>
<path d="M18.9034 11.4851L18.4392 10.0187L17.6881 10.248" fill="white"/>
<path d="M18.9052 11.4836L17.654 10.589L18.1042 9.94553" fill="white"/>
<path d="M17.0987 11.4836L18.3499 10.589L17.8997 9.94553" fill="white"/>
<path d="M17.1005 11.4851L17.5647 10.0187L18.3158 10.248" fill="white"/>
</g>
</g>
</g>
<defs>
<clipPath id="clip0_423_14548">
<rect width="64" height="64" rx="32" fill="white"/>
</clipPath>
<clipPath id="clip1_423_14548">
<rect width="64" height="64" fill="white"/>
</clipPath>
<clipPath id="clip2_423_14548">
<rect width="85.3333" height="64" fill="white" transform="translate(-10.668)"/>
</clipPath>
</defs>
</svg>
