<svg width="25" height="15" viewBox="0 0 25 15" fill="none" xmlns="http://www.w3.org/2000/svg">
<path fill-rule="evenodd" clip-rule="evenodd" d="M0.707084 3.15907C1.93281 2.77494 3.25707 2.85563 4.42709 3.38573C5.44042 3.91906 6.02708 3.91906 7.12042 3.91906C8.26708 3.94573 9.16042 4.78573 10.4004 4.82573C12.6804 4.87907 13.6404 6.0124 11.8671 6.02573C11.0404 6.02573 9.24041 5.4524 8.37375 5.5724C6.56042 5.75906 5.41375 6.15907 3.70708 8.06573L5.68042 9.39906C7.38708 8.71906 7.66708 7.9324 8.61375 7.90573C9.68042 7.86573 10.0404 7.2124 11.2804 7.2124C12.7608 7.33604 14.2514 7.1915 15.6804 6.78573C17.6538 6.3324 16.7204 4.94573 15.5204 4.4524C14.5471 4.03906 12.7471 4.43907 11.6271 4.02573C10.7738 3.6924 11.4671 3.15906 11.9337 3.0524C12.3871 2.95906 12.8804 3.11907 13.4537 3.2124C14.4804 3.2924 15.7737 3.19906 16.6671 3.0524C18.5337 2.7724 18.4537 2.22573 19.3337 2.2124C20.0004 2.1724 20.4937 1.98573 20.9337 1.66573C21.4671 1.30573 22.0137 0.599067 22.6537 0.625734L24.3471 0.692401L21.9471 6.07907L15.1871 12.9724L11.6804 14.3057L3.97375 9.27907L0.09375 3.31906L0.707084 3.15907Z" fill="#FDF9A1"/>
</svg>
