<svg width="31" height="51" viewBox="0 0 31 51" fill="none" xmlns="http://www.w3.org/2000/svg">
<path fill-rule="evenodd" clip-rule="evenodd" d="M15.0136 50.6663C15.3603 50.8663 15.907 50.853 16.2136 50.693C35.9203 40.1996 35.9336 11.4396 16.2403 1.09296C16.0432 1.00169 15.8278 0.956639 15.6106 0.96126C15.3934 0.965882 15.1801 1.02005 14.987 1.11963C-4.21302 11.6263 -4.26635 40.053 15.0136 50.6796V50.6663ZM15.107 48.3063C15.2726 48.3878 15.4543 48.4312 15.6388 48.4335C15.8233 48.4358 16.0061 48.3969 16.1736 48.3196C32.6536 38.613 32.8536 12.973 16.187 3.7863C15.867 3.5463 15.4003 3.6263 15.0803 3.7863C-0.706352 13.133 -1.58635 37.7196 15.107 48.3063Z" fill="#BE0027"/>
</svg>
