<svg width="4" height="4" viewBox="0 0 4 4" fill="none" xmlns="http://www.w3.org/2000/svg">
<path d="M2.17396 0.0546875C2.47618 0.0546875 2.74285 0.116911 2.97396 0.241355C3.28507 0.401355 3.47618 0.694688 3.54729 1.12135H3.13396C3.08063 0.890243 2.96507 0.712465 2.78729 0.588021C2.62729 0.481354 2.41841 0.428021 2.16063 0.428021C1.86729 0.428021 1.61396 0.548021 1.40063 0.788021C1.19618 1.01024 1.09396 1.34802 1.09396 1.80136C1.09396 2.17469 1.17841 2.4858 1.34729 2.73469C1.52507 2.97469 1.80507 3.09469 2.18729 3.09469C2.48063 3.09469 2.72062 3.01024 2.90729 2.84136C3.11174 2.67247 3.21396 2.39691 3.21396 2.01469H2.20063V1.65469H3.61396V3.38802H3.33396L3.22729 2.96135C3.08507 3.13024 2.95174 3.25024 2.82729 3.32135C2.63174 3.42802 2.38729 3.48136 2.09396 3.48136C1.71174 3.48136 1.37841 3.35691 1.09396 3.10802C0.791739 2.78802 0.640625 2.35691 0.640625 1.81469C0.640625 1.27247 0.787294 0.841354 1.08063 0.521354C1.36507 0.210243 1.72951 0.0546875 2.17396 0.0546875Z" fill="#BD0728"/>
</svg>
