<svg width="16" height="16" viewBox="0 0 16 16" fill="none" xmlns="http://www.w3.org/2000/svg">
<path fill-rule="evenodd" clip-rule="evenodd" d="M0.946644 9.45177C0.746644 9.85177 1.42664 9.33177 1.58664 9.27844C2.47998 8.95844 2.82665 7.83844 4.35998 8.51844C5.55998 9.03844 7.17331 8.73177 6.33331 9.26511C5.29331 9.89177 3.19998 10.5851 3.15998 13.6918C3.33331 13.9851 3.34665 13.9451 3.49331 13.6118C3.81331 12.8918 5.31998 10.9318 6.06664 11.0918C6.37331 11.1718 7.25331 10.1984 7.26664 10.4784C7.35998 11.2518 6.06665 12.8251 6.09331 14.9184C6.09331 15.4118 6.69331 15.5718 6.97331 15.2251C7.26664 14.9184 7.42664 14.6118 7.93331 14.2118C8.81331 13.4918 8.57331 10.3984 8.67998 10.5451C9.30665 11.3451 9.39998 13.6518 10.3333 14.5851C11.12 15.3718 11.7466 14.9851 11.5733 13.9184C11.24 11.7318 10.2133 12.3584 9.71998 10.1051C9.61331 9.66511 9.58664 9.27844 10.1733 9.45177C10.88 9.6651 11.3066 9.9851 11.8266 10.7851C12.36 11.5584 13.3466 12.2918 13.92 12.7318C14.92 13.5051 15.28 12.8384 14.8 11.8518C14.1904 10.7312 13.1958 9.8692 12 9.42511C11.1733 9.13177 10.88 9.10511 10.16 8.97177C9.95998 8.93177 9.75998 8.51844 10.1066 8.29177C10.8778 7.73574 11.7765 7.38268 12.72 7.26511C13.6133 7.23844 14.32 7.95844 14.9466 8.14511C16.2 8.46511 16.2 7.67844 15.64 7.07844C15.1866 6.58511 14.2266 5.74511 13.3333 5.86511C11.5333 6.09177 11.6533 6.03844 10.5333 6.77177C10.1333 7.01177 9.67998 7.27844 9.85331 6.98511C10.2533 6.25177 9.87998 6.38511 10.5066 5.63844C10.9866 5.10511 11.3466 4.70511 11.84 4.57177C12.2933 4.45177 12.9066 3.97177 13.08 3.71844C13.5333 3.10511 13.1466 2.74511 12.4533 2.95844C11.84 3.11844 11.52 3.51844 11.12 3.62511C10.1333 3.94511 9.34665 6.15844 9.22665 6.47844C9.07998 6.85177 8.90664 6.66511 8.93331 6.34511C9.06664 4.78511 9.19998 2.14511 8.66664 1.06511C7.81331 -0.534893 7.89331 0.211774 7.57331 0.971774C7.09331 2.17177 7.26664 3.30511 7.57331 4.47844C7.70664 5.06511 8.18664 5.73177 8.27998 6.19844C8.34664 6.55844 8.06664 6.09177 7.90664 5.86511C7.38664 5.06511 6.99998 4.53177 6.14664 4.09177C5.29434 3.74111 4.35783 3.64838 3.45331 3.82511C3.21331 3.90511 3.71998 4.25177 3.91998 4.41177C4.49331 4.86511 5.57331 5.01177 6.31998 5.46511C6.93331 5.85177 7.41331 6.09177 7.62665 6.62511C7.70665 7.02511 7.83998 7.61177 7.57331 7.59844C6.89331 7.55844 5.83998 6.95844 3.65331 7.19844C2.53331 7.35844 1.57331 8.3051 0.946644 9.45177Z" fill="#239E46"/>
</svg>
