<svg width="64" height="64" viewBox="0 0 64 64" fill="none" xmlns="http://www.w3.org/2000/svg">
<g clip-path="url(#clip0_423_14782)">
<g clip-path="url(#clip1_423_14782)">
<g clip-path="url(#clip2_423_14782)">
<path d="M-10.668 0H74.6654V64H-10.668V0Z" fill="#CF142B"/>
<path d="M-10.668 0H74.6654V42.6667H-10.668V0Z" fill="#00247D"/>
<path d="M-10.668 0H74.6654V21.3333H-10.668V0Z" fill="#FFCC00"/>
<path d="M35.7957 23.2639L34.5633 25.6461L35.9506 26.3781L35.7957 23.2639Z" fill="white"/>
<path d="M35.7942 23.2634L36.1375 25.9235L34.5835 26.1368L35.7942 23.2634Z" fill="white"/>
<path d="M37.9746 25.5188L35.3282 25.0828L35.0607 26.6284L37.9746 25.5188Z" fill="white"/>
<path d="M37.9746 25.5203L35.5509 26.6688L34.8677 25.2568L37.9746 25.5203Z" fill="white"/>
<path d="M32.9771 24.6374L34.8619 26.5456L35.9868 25.4524L32.9771 24.6374Z" fill="white"/>
<path d="M32.976 24.636L35.6119 25.1315L35.3346 26.6754L32.976 24.636Z" fill="white"/>
<path d="M36.5036 28.2882L36.1004 25.6366L34.5478 25.8598L36.5036 28.2882Z" fill="white"/>
<path d="M36.5042 28.2899L34.6629 26.3397L35.7947 25.2537L36.5042 28.2899Z" fill="white"/>
<path d="M33.4169 27.7448L35.8142 26.542L35.1221 25.1343L33.4169 27.7448Z" fill="white"/>
<path d="M33.4151 27.7434L34.7009 25.3896L36.0835 26.1304L33.4151 27.7434Z" fill="white"/>
<path d="M42.935 25.8609L40.9622 27.678L42.0155 28.8403L42.935 25.8609Z" fill="white"/>
<path d="M42.9361 25.8617L42.3489 28.4787L40.8156 28.1478L42.9361 25.8617Z" fill="white"/>
<path d="M44.2087 28.7239L41.8709 27.4092L41.0909 28.7701L44.2087 28.7239Z" fill="white"/>
<path d="M44.2093 28.7253L41.5389 28.9756L41.3799 27.4151L44.2093 28.7253Z" fill="white"/>
<path d="M39.8172 26.1874L40.9356 28.6251L42.3666 27.9826L39.8172 26.1874Z" fill="white"/>
<path d="M39.8156 26.1876L42.1231 27.5548L41.3346 28.9107L39.8156 26.1876Z" fill="white"/>
<path d="M41.8802 30.8219L42.4082 28.1923L40.8729 27.871L41.8802 30.8219Z" fill="white"/>
<path d="M41.8816 30.8226L40.8183 28.3603L42.2533 27.7268L41.8816 30.8226Z" fill="white"/>
<path d="M39.1668 29.2535L41.8309 28.9431L41.662 27.3837L39.1668 29.2535Z" fill="white"/>
<path d="M39.1652 29.2543L41.1785 27.4822L42.2244 28.6512L39.1652 29.2543Z" fill="white"/>
<path d="M48.7486 30.7456L46.2733 31.7783L46.8655 33.2308L48.7486 30.7456Z" fill="white"/>
<path d="M48.7475 30.7465L47.3006 33.0049L45.973 32.1695L48.7475 30.7465Z" fill="white"/>
<path d="M48.9667 33.8738L47.2196 31.8387L46.0212 32.8508L48.9667 33.8738Z" fill="white"/>
<path d="M48.9669 33.8723L46.372 33.1942L46.7562 31.6734L48.9669 33.8723Z" fill="white"/>
<path d="M45.7066 29.9855L45.9238 32.6587L47.4882 32.5444L45.7066 29.9855Z" fill="white"/>
<path d="M45.7075 29.9872L47.4082 32.0611L46.2034 33.0656L45.7075 29.9872Z" fill="white"/>
<path d="M46.0636 35.0486L47.4592 32.7582L46.1263 31.9312L46.0636 35.0486Z" fill="white"/>
<path d="M46.0653 35.049L45.9084 32.3715L47.4735 32.267L46.0653 35.049Z" fill="white"/>
<path d="M44.0497 32.6473L46.6592 33.2667L47.0339 31.7436L44.0497 32.6473Z" fill="white"/>
<path d="M44.048 32.6457L46.546 31.6691L47.129 33.1253L44.048 32.6457Z" fill="white"/>
<path d="M52.5471 37.3221L49.8678 37.4459L49.9275 39.0133L52.5471 37.3221Z" fill="white"/>
<path d="M52.5467 37.3225L50.4147 38.9498L49.4529 37.7107L52.5467 37.3225Z" fill="white"/>
<path d="M51.6821 40.3363L50.7364 37.8264L49.2641 38.3676L51.6821 40.3363Z" fill="white"/>
<path d="M51.6812 40.3356L49.4747 38.8108L50.3559 37.5132L51.6812 40.3356Z" fill="white"/>
<path d="M49.948 35.5697L49.2378 38.1561L50.747 38.5837L49.948 35.5697Z" fill="white"/>
<path d="M49.9466 35.5709L50.8354 38.1014L49.3598 38.6332L49.9466 35.5709Z" fill="white"/>
<path d="M48.5477 40.4472L50.6425 38.7722L49.6729 37.5392L48.5477 40.4472Z" fill="white"/>
<path d="M48.546 40.4474L49.3143 37.8777L50.8208 38.3148L48.546 40.4474Z" fill="white"/>
<path d="M47.4744 37.5005L49.7147 38.9752L50.5878 37.672L47.4744 37.5005Z" fill="white"/>
<path d="M47.4748 37.4995L50.1561 37.4361L50.2059 39.0039L47.4748 37.4995Z" fill="white"/>
<path d="M11.4533 37.3225L13.5853 38.9498L14.5471 37.7107L11.4533 37.3225Z" fill="white"/>
<path d="M11.4529 37.3221L14.1322 37.4459L14.0725 39.0133L11.4529 37.3221Z" fill="white"/>
<path d="M14.0534 35.5709L13.1646 38.1014L14.6402 38.6332L14.0534 35.5709Z" fill="white"/>
<path d="M14.052 35.5697L14.7622 38.1561L13.253 38.5837L14.052 35.5697Z" fill="white"/>
<path d="M12.3149 40.3356L14.5214 38.8108L13.6402 37.5132L12.3149 40.3356Z" fill="white"/>
<path d="M12.314 40.3363L13.2597 37.8264L14.732 38.3676L12.314 40.3363Z" fill="white"/>
<path d="M16.5213 37.4995L13.84 37.4361L13.7902 39.0039L16.5213 37.4995Z" fill="white"/>
<path d="M16.5217 37.5005L14.2814 38.9752L13.4083 37.672L16.5217 37.5005Z" fill="white"/>
<path d="M15.4501 40.4434L14.6817 37.8738L13.1753 38.3109L15.4501 40.4434Z" fill="white"/>
<path d="M15.4484 40.4433L13.3536 38.7683L14.3232 37.5353L15.4484 40.4433Z" fill="white"/>
<path d="M15.2486 30.7465L16.6954 33.0049L18.023 32.1695L15.2486 30.7465Z" fill="white"/>
<path d="M15.2475 30.7456L17.7228 31.7783L17.1306 33.2308L15.2475 30.7456Z" fill="white"/>
<path d="M18.2886 29.9872L16.5879 32.0611L17.7927 33.0656L18.2886 29.9872Z" fill="white"/>
<path d="M18.2895 29.9855L18.0723 32.6587L16.5079 32.5444L18.2895 29.9855Z" fill="white"/>
<path d="M15.0331 33.8723L17.628 33.1942L17.2438 31.6734L15.0331 33.8723Z" fill="white"/>
<path d="M15.0333 33.8738L16.7804 31.8387L17.9788 32.8508L15.0333 33.8738Z" fill="white"/>
<path d="M19.952 32.6457L17.454 31.6691L16.871 33.1253L19.952 32.6457Z" fill="white"/>
<path d="M19.9503 32.6473L17.3408 33.2667L16.9661 31.7436L19.9503 32.6473Z" fill="white"/>
<path d="M17.9386 35.049L18.0955 32.3715L16.5304 32.267L17.9386 35.049Z" fill="white"/>
<path d="M17.9403 35.0487L16.5447 32.7582L17.8776 31.9312L17.9403 35.0487Z" fill="white"/>
<path d="M21.0678 25.8617L21.655 28.4787L23.1883 28.1478L21.0678 25.8617Z" fill="white"/>
<path d="M21.0689 25.8609L23.0417 27.678L21.9885 28.8403L21.0689 25.8609Z" fill="white"/>
<path d="M24.1844 26.1876L21.8769 27.5548L22.6654 28.9107L24.1844 26.1876Z" fill="white"/>
<path d="M24.1828 26.1874L23.0644 28.6251L21.6334 27.9826L24.1828 26.1874Z" fill="white"/>
<path d="M19.7907 28.7253L22.4611 28.9756L22.6201 27.4151L19.7907 28.7253Z" fill="white"/>
<path d="M19.7913 28.7239L22.1291 27.4092L22.9091 28.7701L19.7913 28.7239Z" fill="white"/>
<path d="M24.8348 29.2582L22.8215 27.4861L21.7756 28.6551L24.8348 29.2582Z" fill="white"/>
<path d="M24.8332 29.2574L22.1691 28.947L22.338 27.3876L24.8332 29.2574Z" fill="white"/>
<path d="M22.1184 30.8265L23.1817 28.3642L21.7467 27.7307L22.1184 30.8265Z" fill="white"/>
<path d="M22.1198 30.8258L21.5918 28.1962L23.1271 27.8749L22.1198 30.8258Z" fill="white"/>
<path d="M28.2019 23.2673L27.8586 25.9274L29.4126 26.1408L28.2019 23.2673Z" fill="white"/>
<path d="M28.2004 23.2678L29.4328 25.65L28.0455 26.382L28.2004 23.2678Z" fill="white"/>
<path d="M31.0201 24.64L28.3842 25.1354L28.6614 26.6793L31.0201 24.64Z" fill="white"/>
<path d="M31.019 24.6413L29.1342 26.5495L28.0093 25.4563L31.019 24.6413Z" fill="white"/>
<path d="M26.0254 25.5203L28.4491 26.6688L29.1323 25.2568L26.0254 25.5203Z" fill="white"/>
<path d="M26.0254 25.5188L28.6718 25.0828L28.9393 26.6284L26.0254 25.5188Z" fill="white"/>
<path d="M30.5849 27.7434L29.2991 25.3896L27.9165 26.1304L30.5849 27.7434Z" fill="white"/>
<path d="M30.5831 27.7448L28.1858 26.542L28.8779 25.1343L30.5831 27.7448Z" fill="white"/>
<path d="M27.4958 28.286L29.3371 26.3358L28.2053 25.2498L27.4958 28.286Z" fill="white"/>
<path d="M27.4964 28.2843L27.8996 25.6327L29.4522 25.8559L27.4964 28.2843Z" fill="white"/>
</g>
</g>
</g>
<defs>
<clipPath id="clip0_423_14782">
<rect width="64" height="64" rx="32" fill="white"/>
</clipPath>
<clipPath id="clip1_423_14782">
<rect width="64" height="64" fill="white"/>
</clipPath>
<clipPath id="clip2_423_14782">
<rect width="85.3333" height="64" fill="white" transform="translate(-10.668)"/>
</clipPath>
</defs>
</svg>
