<svg width="64" height="32" viewBox="0 0 64 32" fill="none" xmlns="http://www.w3.org/2000/svg">
<g clip-path="url(#clip0_423_31856)">
<g clip-path="url(#clip1_423_31856)">
<g clip-path="url(#clip2_423_31856)">
<path d="M48.3433 0.34375H15.6567C7.00972 0.34375 0 7.35347 0 16.0004C0 24.6473 7.00972 31.6571 15.6567 31.6571H48.3433C56.9903 31.6571 64 24.6473 64 16.0004C64 7.35347 56.9903 0.34375 48.3433 0.34375Z" fill="#383838" fill-opacity="0.75"/>
<path d="M37.4064 10.3594C34.9343 10.3594 32.7253 11.6406 32.7253 14.0078C32.7253 16.7226 36.6431 16.9101 36.6431 18.274C36.6431 18.8482 35.9849 19.3622 34.8609 19.3622C33.2659 19.3622 32.0738 18.644 32.0738 18.644L31.5634 21.0327C31.5634 21.0327 32.9371 21.6394 34.7604 21.6394C37.463 21.6394 39.5895 20.2953 39.5895 17.8876C39.5895 15.019 35.6556 14.837 35.6556 13.5712C35.6556 13.1213 36.1959 12.6284 37.3166 12.6284C38.5812 12.6284 39.6129 13.1508 39.6129 13.1508L40.112 10.8437C40.112 10.8437 38.9896 10.3594 37.4064 10.3594ZM14.7903 10.5335L14.7305 10.8817C14.7305 10.8817 15.7704 11.0721 16.7071 11.4517C17.9131 11.8871 17.999 12.1405 18.2021 12.9277L20.4154 21.4599H23.3824L27.9533 10.5335H24.993L22.056 17.9624L20.8575 11.6653C20.7476 10.9446 20.1909 10.5335 19.5094 10.5335H14.7903ZM29.1435 10.5335L26.8214 21.4599H29.6443L31.9581 10.5335H29.1435ZM44.887 10.5335C44.2063 10.5335 43.8457 10.8979 43.5809 11.5347L39.4456 21.4599H42.4055L42.9782 19.8057H46.5848L46.933 21.4599H49.5447L47.2662 10.5335H44.887ZM45.2718 13.4855L46.1494 17.5856H43.7987L45.2718 13.4855Z" fill="white"/>
</g>
</g>
</g>
<defs>
<clipPath id="clip0_423_31856">
<rect width="64" height="32" fill="white"/>
</clipPath>
<clipPath id="clip1_423_31856">
<rect width="64" height="32" fill="white"/>
</clipPath>
<clipPath id="clip2_423_31856">
<rect width="64" height="31.3133" fill="white" transform="translate(0 0.34375)"/>
</clipPath>
</defs>
</svg>
