<svg width="33" height="32" viewBox="0 0 33 32" fill="none" xmlns="http://www.w3.org/2000/svg">
<g clip-path="url(#clip0_423_24792)">
<g clip-path="url(#clip1_423_24792)">
<path d="M3.27734 28.8674L5.07334 22.3107C3.96534 20.392 3.38268 18.2147 3.38334 15.9847C3.38668 9.00803 9.06401 3.33203 16.0413 3.33203C19.4273 3.33336 22.6047 4.65136 24.9947 7.0427C27.384 9.4347 28.7 12.6134 28.6987 15.9947C28.696 22.9714 23.0173 28.648 16.0413 28.648H16.036C13.918 28.6474 11.836 28.116 9.98734 27.1074L3.27734 28.8674Z" fill="white"/>
<path d="M3.27835 29.202C3.19035 29.202 3.10502 29.1673 3.04169 29.1033C2.95835 29.0187 2.92569 28.8953 2.95702 28.7813L4.71635 22.3573C3.62569 20.42 3.05035 18.22 3.05169 15.9867C3.05435 8.82533 8.88169 3 16.0424 3C19.5157 3.00133 22.779 4.354 25.2317 6.80867C27.6844 9.264 29.0344 12.5267 29.033 15.996C29.0304 23.1567 23.2024 28.9827 16.0424 28.9827C13.9164 28.982 11.813 28.4573 9.94635 27.4647L3.36302 29.1907C3.33502 29.1987 3.30702 29.202 3.27835 29.202Z" fill="white"/>
<path d="M16.0403 3.33464C19.4263 3.33597 22.6037 4.65397 24.9937 7.0453C27.383 9.4373 28.699 12.616 28.6977 15.9973C28.695 22.974 23.0163 28.6506 16.0403 28.6506H16.035C13.917 28.65 11.835 28.1186 9.98632 27.11L3.27632 28.87L5.07232 22.3133C3.96432 20.3946 3.38165 18.2173 3.38232 15.9873C3.38565 9.01063 9.06298 3.33464 16.0403 3.33464ZM16.0403 2.66797C8.69632 2.66797 2.71898 8.64263 2.71565 15.9873C2.71498 18.232 3.28165 20.444 4.35632 22.402L2.63298 28.6946C2.57032 28.9246 2.63432 29.17 2.80232 29.3393C2.92898 29.4673 3.10032 29.5373 3.27632 29.5373C3.33298 29.5373 3.38965 29.53 3.44565 29.5153L9.90365 27.822C11.789 28.8006 13.9023 29.3173 16.035 29.318C23.3843 29.318 29.3617 23.3426 29.365 15.998C29.3663 12.4386 27.9817 9.09197 25.4663 6.57463C22.9497 4.05664 19.6023 2.6693 16.0403 2.66797Z" fill="#CFD8DC"/>
<path d="M23.4822 8.55275C21.4955 6.56475 18.8549 5.46942 16.0442 5.46875C10.2415 5.46875 5.5222 10.1861 5.51953 15.9847C5.51887 17.9721 6.07487 19.9067 7.1282 21.5821L7.37886 21.9801L6.31553 25.8607L10.2975 24.8168L10.6822 25.0447C12.2969 26.0034 14.1489 26.5101 16.0369 26.5108H16.0409C21.8395 26.5108 26.5589 21.7928 26.5609 15.9934C26.5615 13.1834 25.4689 10.5407 23.4822 8.55275Z" fill="#40C351"/>
<path fill-rule="evenodd" clip-rule="evenodd" d="M12.878 10.6985C12.6414 10.1719 12.392 10.1612 12.166 10.1519C11.9814 10.1439 11.7707 10.1445 11.56 10.1445C11.3494 10.1445 11.0067 10.2239 10.7167 10.5405C10.4267 10.8572 9.60938 11.6219 9.60938 13.1779C9.60938 14.7339 10.7427 16.2379 10.9007 16.4485C11.0587 16.6592 13.0887 19.9545 16.3034 21.2225C18.9747 22.2759 19.5187 22.0665 20.0987 22.0139C20.6787 21.9612 21.97 21.2492 22.2334 20.5105C22.4967 19.7719 22.4967 19.1392 22.418 19.0072C22.3387 18.8752 22.128 18.7965 21.812 18.6379C21.496 18.4792 19.9407 17.7145 19.6507 17.6092C19.3607 17.5039 19.15 17.4512 18.9387 17.7679C18.728 18.0839 18.122 18.7965 17.9374 19.0072C17.7527 19.2185 17.568 19.2452 17.252 19.0865C16.936 18.9279 15.9174 18.5945 14.7087 17.5172C13.7687 16.6792 13.134 15.6439 12.9494 15.3272C12.7647 15.0112 12.9294 14.8399 13.088 14.6819C13.23 14.5399 13.404 14.3125 13.5627 14.1279C13.7207 13.9432 13.7734 13.8112 13.8787 13.6005C13.984 13.3892 13.9314 13.2045 13.852 13.0465C13.774 12.8879 13.1594 11.3239 12.878 10.6985Z" fill="white"/>
</g>
</g>
<defs>
<clipPath id="clip0_423_24792">
<rect width="32" height="32" fill="white" transform="translate(0.03125)"/>
</clipPath>
<clipPath id="clip1_423_24792">
<rect width="32" height="32" fill="white" transform="translate(0.03125)"/>
</clipPath>
</defs>
</svg>
